<?xml version="1.0" encoding="UTF-8" standalone="no"?>
<!-- Created with Inkscape (http://www.inkscape.org/) -->

<svg
   xmlns:dc="http://purl.org/dc/elements/1.1/"
   xmlns:cc="http://creativecommons.org/ns#"
   xmlns:rdf="http://www.w3.org/1999/02/22-rdf-syntax-ns#"
   xmlns:svg="http://www.w3.org/2000/svg"
   xmlns="http://www.w3.org/2000/svg"
   xmlns:sodipodi="http://sodipodi.sourceforge.net/DTD/sodipodi-0.dtd"
   xmlns:inkscape="http://www.inkscape.org/namespaces/inkscape"
   width="512"
   height="512"
   id="svg2"
   version="1.1"
   inkscape:version="0.48.4 r9939"
   sodipodi:docname="obsidian.svg">
  <defs
     id="defs4" />
  <sodipodi:namedview
     id="base"
     pagecolor="#ffffff"
     bordercolor="#666666"
     borderopacity="1.0"
     inkscape:pageopacity="0.0"
     inkscape:pageshadow="2"
     inkscape:zoom="0.7"
     inkscape:cx="229.99559"
     inkscape:cy="191.41821"
     inkscape:document-units="px"
     inkscape:current-layer="g4315"
     showgrid="false"
     fit-margin-top="0"
     fit-margin-left="0"
     fit-margin-right="0"
     fit-margin-bottom="0"
     gridtolerance="10"
     inkscape:window-width="1855"
     inkscape:window-height="1056"
     inkscape:window-x="65"
     inkscape:window-y="24"
     inkscape:window-maximized="1">
    <inkscape:grid
       type="xygrid"
       id="grid2996"
       empspacing="128"
       visible="true"
       enabled="true"
       snapvisiblegridlinesonly="true" />
  </sodipodi:namedview>
  <metadata
     id="metadata7">
    <rdf:RDF>
      <cc:Work
         rdf:about="">
        <dc:format>image/svg+xml</dc:format>
        <dc:type
           rdf:resource="http://purl.org/dc/dcmitype/StillImage" />
      </cc:Work>
    </rdf:RDF>
  </metadata>
  <g
     inkscape:label="Layer 1"
     inkscape:groupmode="layer"
     id="layer1"
     transform="translate(573.14288,-210.6479)">
    <rect
       style="fill:#101019;fill-opacity:1;stroke:none"
       id="rect4269"
       width="512"
       height="512"
       x="-573.14288"
       y="210.6479" />
    <g
       id="g4315">
      <path
         inkscape:transform-center-y="8.7506391"
         inkscape:transform-center-x="-8.7506391"
         transform="translate(-575.64288,208.86219)"
         d="M 189.80367,168.14795 319.09648,165.89577 361.1921,288.16458 257.91582,365.98303 151.99194,291.80868 z"
         inkscape:randomized="0"
         inkscape:rounded="0"
         inkscape:flatsided="true"
         sodipodi:arg2="-1.5882138"
         sodipodi:arg1="-2.2165323"
         sodipodi:r2="146.44772"
         sodipodi:r1="109.99972"
         sodipodi:cy="256"
         sodipodi:cx="256"
         sodipodi:sides="5"
         id="path2998"
         style="fill:#000000;fill-opacity:0;stroke:none"
         sodipodi:type="star" />
      <path
         inkscape:transform-center-y="-0.57546213"
         inkscape:transform-center-x="-6.1650475"
         transform="translate(-570.11242,210.6479)"
         d="m 118.94546,285.72582 50.34207,65.56545 -46.79989,68.13899 -79.265989,-23.45323 -2.18919,-82.63389 z"
         inkscape:randomized="0"
         inkscape:rounded="0"
         inkscape:flatsided="true"
         sodipodi:arg2="-0.65480495"
         sodipodi:arg1="-1.2831235"
         sodipodi:r2="56.887848"
         sodipodi:r1="70.317245"
         sodipodi:cy="353.1535"
         sodipodi:cx="98.994949"
         sodipodi:sides="5"
         id="path3768"
         style="fill:#453550;fill-opacity:1;stroke:none"
         sodipodi:type="star" />
      <path
         inkscape:transform-center-y="-15.657364"
         transform="translate(-573.14288,210.6479)"
         d="m 238.396,39.248608 54.2387,93.944192 -108.47741,0 z"
         inkscape:randomized="0"
         inkscape:rounded="0"
         inkscape:flatsided="true"
         sodipodi:arg2="-0.52359878"
         sodipodi:arg1="-1.5707963"
         sodipodi:r2="31.314729"
         sodipodi:r1="62.629458"
         sodipodi:cy="101.87807"
         sodipodi:cx="238.396"
         sodipodi:sides="3"
         id="path3770"
         style="fill:#453550;fill-opacity:1;stroke:none"
         sodipodi:type="star" />
      <path
         transform="translate(-574.15303,208.12252)"
         d="M 435.37574,96.827306 491.4392,201.37809 386.88842,257.44155 330.82496,152.89077 z"
         inkscape:randomized="0"
         inkscape:rounded="0"
         inkscape:flatsided="true"
         sodipodi:arg2="-0.49221127"
         sodipodi:arg1="-1.2776094"
         sodipodi:r2="59.316902"
         sodipodi:r1="83.886765"
         sodipodi:cy="177.13443"
         sodipodi:cx="411.13208"
         sodipodi:sides="4"
         id="path3772"
         style="fill:#3e3151;fill-opacity:1;stroke:none"
         sodipodi:type="star" />
      <path
         transform="translate(-573.64796,212.66821)"
         d="M 125.764,259.96693 51.012706,271.07861 39.901027,196.32732 114.65232,185.21564 z"
         inkscape:randomized="0"
         inkscape:rounded="0"
         inkscape:flatsided="true"
         sodipodi:arg2="1.4232283"
         sodipodi:arg1="0.63783009"
         sodipodi:r2="38.652363"
         sodipodi:r1="53.437931"
         sodipodi:cy="228.14713"
         sodipodi:cx="82.832512"
         sodipodi:sides="4"
         id="path3774"
         style="fill:#3e3151;fill-opacity:1;stroke:none"
         sodipodi:type="star" />
      <path
         inkscape:transform-center-y="-1.7857143"
         inkscape:transform-center-x="30.060669"
         transform="translate(-591.71431,207.43361)"
         d="m 388.57141,312.71428 158.69278,-98.76417 6.18589,186.81406 z"
         inkscape:randomized="0"
         inkscape:rounded="0"
         inkscape:flatsided="true"
         sodipodi:arg2="4.1556897"
         sodipodi:arg1="3.1084922"
         sodipodi:r2="63.239502"
         sodipodi:r1="107.91626"
         sodipodi:cy="309.14285"
         sodipodi:cx="496.42856"
         sodipodi:sides="3"
         id="path3776"
         style="fill:#3e3151;fill-opacity:1;stroke:none"
         sodipodi:type="star" />
      <path
         inkscape:transform-center-y="-1.7857143"
         inkscape:transform-center-x="30.060669"
         transform="translate(-1103.7143,207.43361)"
         d="m 388.57141,312.71428 158.69278,-98.76417 6.18589,186.81406 z"
         inkscape:randomized="0"
         inkscape:rounded="0"
         inkscape:flatsided="true"
         sodipodi:arg2="4.1556897"
         sodipodi:arg1="3.1084922"
         sodipodi:r2="63.239502"
         sodipodi:r1="107.91626"
         sodipodi:cy="309.14285"
         sodipodi:cx="496.42856"
         sodipodi:sides="3"
         id="path3776-8"
         style="fill:#3e3151;fill-opacity:1;stroke:none"
         sodipodi:type="star" />
      <path
         d="M 134.28572,185.57144 -6.9203047,181.576 -74.063168,57.290275 -2.8201953e-6,-63.000014 141.20603,-59.004575 208.34889,65.281151 z"
         inkscape:randomized="0"
         inkscape:rounded="0"
         inkscape:flatsided="true"
         sodipodi:arg2="1.5990839"
         sodipodi:arg1="1.0754851"
         sodipodi:r2="114.83962"
         sodipodi:r1="141.26254"
         sodipodi:cy="61.285713"
         sodipodi:cx="67.14286"
         sodipodi:sides="6"
         id="path3814-6"
         style="fill:#3e3151;fill-opacity:1;stroke:none"
         sodipodi:type="star"
         transform="translate(-66.857224,205.6479)" />
      <path
         d="M 134.28572,185.57144 -6.9203047,181.576 -74.063168,57.290275 -2.8201953e-6,-63.000014 141.20603,-59.004575 208.34889,65.281151 z"
         inkscape:randomized="0"
         inkscape:rounded="0"
         inkscape:flatsided="true"
         sodipodi:arg2="1.5990839"
         sodipodi:arg1="1.0754851"
         sodipodi:r2="114.83962"
         sodipodi:r1="141.26254"
         sodipodi:cy="61.285713"
         sodipodi:cx="67.14286"
         sodipodi:sides="6"
         id="path3814-6-5"
         style="fill:#3e3151;fill-opacity:1;stroke:none"
         sodipodi:type="star"
         transform="translate(-578.85722,205.6479)" />
      <path
         transform="translate(-573.14288,210.6479)"
         d="M 273.75134,454.4213 195.31947,532.02885 167.3253,425.30108 z"
         inkscape:randomized="0"
         inkscape:rounded="0"
         inkscape:flatsided="true"
         sodipodi:arg2="0.79068094"
         sodipodi:arg1="-0.25651661"
         sodipodi:r2="55.169037"
         sodipodi:r1="63.703716"
         sodipodi:cy="470.58374"
         sodipodi:cx="212.13203"
         sodipodi:sides="3"
         id="path3852"
         style="fill:#3e3151;fill-opacity:1;stroke:none"
         sodipodi:type="star" />
      <path
         d="M 273.75134,454.4213 195.31947,532.02885 167.3253,425.30108 z"
         inkscape:randomized="0"
         inkscape:rounded="0"
         inkscape:flatsided="true"
         sodipodi:arg2="0.79068094"
         sodipodi:arg1="-0.25651661"
         sodipodi:r2="55.169037"
         sodipodi:r1="63.703716"
         sodipodi:cy="470.58374"
         sodipodi:cx="212.13203"
         sodipodi:sides="3"
         id="path3852-3"
         style="fill:#3e3151;fill-opacity:1;stroke:none"
         sodipodi:type="star"
         transform="translate(-573.14288,-301.35209)" />
      <path
         d="M 134.28572,185.57144 -6.9203047,181.576 -74.063168,57.290275 -2.8201953e-6,-63.000014 141.20603,-59.004575 208.34889,65.281151 z"
         inkscape:randomized="0"
         inkscape:rounded="0"
         inkscape:flatsided="true"
         sodipodi:arg2="1.5990839"
         sodipodi:arg1="1.0754851"
         sodipodi:r2="114.83962"
         sodipodi:r1="141.26254"
         sodipodi:cy="61.285713"
         sodipodi:cx="67.14286"
         sodipodi:sides="6"
         id="path3814-6-8"
         style="fill:#3e3151;fill-opacity:1;stroke:none"
         sodipodi:type="star"
         transform="translate(-66.857222,717.6479)" />
      <path
         d="M 134.28572,185.57144 -6.9203047,181.576 -74.063168,57.290275 -2.8201953e-6,-63.000014 141.20603,-59.004575 208.34889,65.281151 z"
         inkscape:randomized="0"
         inkscape:rounded="0"
         inkscape:flatsided="true"
         sodipodi:arg2="1.5990839"
         sodipodi:arg1="1.0754851"
         sodipodi:r2="114.83962"
         sodipodi:r1="141.26254"
         sodipodi:cy="61.285713"
         sodipodi:cx="67.14286"
         sodipodi:sides="6"
         id="path3814-6-5-6"
         style="fill:#3e3151;fill-opacity:1;stroke:none"
         sodipodi:type="star"
         transform="translate(-578.85722,717.6479)" />
      <path
         transform="translate(-573.14288,210.6479)"
         d="m 305.57114,430.17762 112.99188,34.38869 2.21082,118.08836 -111.62551,38.59393 -71.19919,-94.236 z"
         inkscape:randomized="0"
         inkscape:rounded="0"
         inkscape:flatsided="true"
         sodipodi:arg2="-1.2753567"
         sodipodi:arg1="-1.9036752"
         sodipodi:r2="87.009193"
         sodipodi:r1="100.46956"
         sodipodi:cy="525.13196"
         sodipodi:cx="338.40109"
         sodipodi:sides="5"
         id="path3948"
         style="fill:#3e3151;fill-opacity:1;stroke:none"
         sodipodi:type="star" />
      <path
         d="m 305.57114,430.17762 112.99188,34.38869 2.21082,118.08836 -111.62551,38.59393 -71.19919,-94.236 z"
         inkscape:randomized="0"
         inkscape:rounded="0"
         inkscape:flatsided="true"
         sodipodi:arg2="-1.2753567"
         sodipodi:arg1="-1.9036752"
         sodipodi:r2="87.009193"
         sodipodi:r1="100.46956"
         sodipodi:cy="525.13196"
         sodipodi:cx="338.40109"
         sodipodi:sides="5"
         id="path3948-4"
         style="fill:#3e3151;fill-opacity:1;stroke:none"
         sodipodi:type="star"
         transform="translate(-573.14288,-301.35209)" />
      <path
         inkscape:connector-curvature="0"
         id="path3968"
         d="m 251.02291,429.92511 54.54824,-42.17387 -88.13581,-26.26397 -55.81093,42.42641 z"
         style="fill:#453550;stroke:none;stroke-width:1px;stroke-linecap:butt;stroke-linejoin:miter;stroke-opacity:1;fill-opacity:1"
         transform="translate(-573.14288,210.6479)" />
      <path
         inkscape:connector-curvature="0"
         id="path3970"
         d="m 322.23866,412.75251 139.90613,44.69925 32.32488,-51.51778 -128.03683,-71.97337 z"
         style="fill:#453550;stroke:none;stroke-width:1px;stroke-linecap:butt;stroke-linejoin:miter;stroke-opacity:1;fill-opacity:1"
         transform="translate(-573.14288,210.6479)" />
      <path
         transform="translate(-570.6175,211.40551)"
         d="m 314.15743,162.48723 41.87849,122.16634 -103.24593,77.58028 -105.68798,-74.21909 37.92716,-123.4502 z"
         inkscape:randomized="0"
         inkscape:rounded="0"
         inkscape:flatsided="true"
         sodipodi:arg2="-0.33024525"
         sodipodi:arg1="-0.95856378"
         sodipodi:r2="96.319382"
         sodipodi:r1="109.85727"
         sodipodi:cy="252.39079"
         sodipodi:cx="251.0229"
         sodipodi:sides="5"
         id="path4309"
         style="fill:#3e3151;fill-opacity:1;stroke:none"
         sodipodi:type="star" />
      <path
         transform="translate(-573.14288,210.6479)"
         d="m 412.90625,378.40625 -30.125,53.6875 79.375,25.34375 23.8125,-37.96875 -73.0625,-41.0625 z m -149,27.53125 -26.375,20.0625 13.5,3.9375 L 277,409.84375 263.90625,405.9375 z m 88.125,-443.3125 -67.625,96.84375 34.96875,46.25 101.40625,-35.0625 -1.65625,-87.625 -67.09375,-20.40625 z m 0.007,511.99933 112.99188,34.38869 2.21082,118.08836 -111.62551,38.59393 -71.19919,-94.236 z M 175.0384,737.01815 33.832375,733.02271 -33.310488,608.73698 40.752677,488.4467 181.95871,492.44213 249.10157,616.72786 z M 213.78125,-42.25 l 22.40625,85.375 2.21875,-3.875 10.5,18.1875 71.3125,-70.5625 -106.4375,-29.125 z M 320.21836,498.86801 241.78649,576.47556 213.79232,469.74779 z M 40.75,-23.5625 -33.3125,96.75 10.15625,177.21875 128.5625,180.5625 202.625,60.28125 159.15625,-20.21875 40.75,-23.5625 z m 512,0 -74.0625,120.3125 43.46875,80.46875 118.40625,3.34375 74.0625,-120.28125 -43.46875,-80.5 L 552.75,-23.5625 z M 49.125,263.90625 -95.53125,353.9375 69.34375,442 63.6875,271.125 50.5,273.09375 l -1.375,-9.1875 z m 481.9375,18.71875 -97.625,60.75 101.4375,54.1875 -3.8125,-114.9375 z m -370.4375,-50.9375 -74.75,11.09375 7.84375,52.9375 28.25,-10 19.375,25.21875 30.375,-4.5 -11.09375,-74.75 z m 302.625,-83.5 -86.96875,46.625 27.15625,50.65625 87,-46.625 L 463.25,148.1875 z m -188.78125,-46.46875 -18.1875,31.46875 36.34375,0 -18.15625,-31.46875 z M 158.75,333.625 l -68.21875,24.15625 1.375,51.6875 33.625,9.96875 L 172.3125,351.28125 158.75,333.625 z m 173.34375,-124.53125 -98.3125,1.71875 -34.8125,113.84375 56.4375,39.53125 103.28125,-77.8125 -26.59375,-77.28125 z"
         style="fill:#000000;fill-opacity:0.28627452;stroke:none"
         id="path3970-2" />
      <path
         style="fill:#000000;fill-opacity:0.20784314;stroke:none"
         d="M 167.3125 -86.6875 L 195.3125 20.03125 L 273.75 -57.59375 L 167.3125 -86.6875 z M 305.5625 -81.8125 L 237.9375 15 L 309.15625 109.25 L 420.78125 70.65625 L 418.5625 -47.4375 L 305.5625 -81.8125 z M -5.71875 -68 L -79.78125 52.28125 L -12.625 176.5625 L 128.5625 180.5625 L 202.625 60.28125 L 135.5 -64 L -5.71875 -68 z M 506.28125 -68 L 432.21875 52.28125 L 499.375 176.5625 L 640.5625 180.5625 L 714.625 60.28125 L 647.5 -64 L 506.28125 -68 z M 190.25 -63.5625 L 242.25 -49.3125 L 203.9375 -11.375 L 190.25 -63.5625 z M 312.15625 -62.84375 L 402.5 -35.3125 L 404.28125 59.15625 L 315.03125 90 L 258.09375 14.625 L 312.15625 -62.84375 z M 3.25 -51.4375 L 125.65625 -48 L 183.875 59.75 L 119.65625 164 L -2.78125 160.5625 L -60.96875 52.8125 L 3.25 -51.4375 z M 515.25 -51.4375 L 637.65625 -48 L 695.875 59.75 L 631.65625 164 L 509.21875 160.5625 L 451.03125 52.8125 L 515.25 -51.4375 z M 238.40625 39.25 L 184.15625 133.1875 L 292.625 133.1875 L 238.40625 39.25 z M 238.40625 71.8125 L 264.4375 116.90625 L 212.375 116.90625 L 238.40625 71.8125 z M 434.375 94.3125 L 329.8125 150.375 L 385.875 254.90625 L 490.4375 198.84375 L 434.375 94.3125 z M 427.71875 116.3125 L 468.40625 192.1875 L 392.5625 232.875 L 351.84375 157 L 427.71875 116.3125 z M 316.6875 163.25 L 187.5625 165.3125 L 149.625 288.78125 L 255.3125 363 L 358.5625 285.40625 L 316.6875 163.25 z M 305.125 179.71875 L 339.3125 279.5 L 255 342.84375 L 168.6875 282.25 L 199.65625 181.40625 L 305.125 179.71875 z M 114.15625 187.25 L 39.40625 198.34375 L 50.5 273.09375 L 125.25 262 L 114.15625 187.25 z M 100.46875 205.71875 L 106.78125 248.28125 L 64.21875 254.59375 L 57.90625 212.03125 L 100.46875 205.71875 z M 16.6875 210.75 L -142 309.5 L 22.875 397.5625 L 16.6875 210.75 z M 528.6875 210.75 L 370 309.5 L 534.875 397.5625 L 528.6875 210.75 z M 1.375 239.4375 L 5.6875 369.875 L -109.46875 308.40625 L 1.375 239.4375 z M 513.375 239.4375 L 517.6875 369.875 L 402.53125 308.40625 L 513.375 239.4375 z M 121.96875 285.71875 L 44.0625 313.34375 L 46.25 395.96875 L 125.53125 419.4375 L 172.3125 351.28125 L 121.96875 285.71875 z M 116.3125 305 L 152.25 351.8125 L 118.84375 400.46875 L 62.21875 383.6875 L 60.65625 324.71875 L 116.3125 305 z M 366.4375 333.96875 L 322.25 412.75 L 462.15625 457.4375 L 494.46875 405.9375 L 366.4375 333.96875 z M 372.65625 356.09375 L 471.59375 411.75 L 455.09375 438.09375 L 346.1875 403.3125 L 372.65625 356.09375 z M 217.4375 361.5 L 161.625 403.90625 L 251.03125 429.9375 L 305.5625 387.75 L 217.4375 361.5 z M 220.71875 379.4375 L 270.53125 394.28125 L 247.625 411.96875 L 197.1875 397.3125 L 220.71875 379.4375 z M 167.3125 425.3125 L 195.3125 532.03125 L 273.75 454.40625 L 167.3125 425.3125 z M 305.5625 430.1875 L 237.9375 527 L 309.15625 621.25 L 420.78125 582.65625 L 418.5625 464.5625 L 305.5625 430.1875 z M -5.71875 444 L -79.78125 564.28125 L -12.625 688.5625 L 128.5625 692.5625 L 202.625 572.28125 L 135.5 448 L -5.71875 444 z M 506.28125 444 L 432.21875 564.28125 L 499.375 688.5625 L 640.5625 692.5625 L 714.625 572.28125 L 647.5 448 L 506.28125 444 z M 190.25 448.4375 L 242.25 462.6875 L 203.9375 500.625 L 190.25 448.4375 z M 312.15625 449.15625 L 402.5 476.6875 L 404.28125 571.15625 L 315.03125 602 L 258.09375 526.625 L 312.15625 449.15625 z M 3.25 460.5625 L 125.65625 464 L 183.875 571.75 L 119.65625 676 L -2.78125 672.5625 L -60.96875 564.8125 L 3.25 460.5625 z M 515.25 460.5625 L 637.65625 464 L 695.875 571.75 L 631.65625 676 L 509.21875 672.5625 L 451.03125 564.8125 L 515.25 460.5625 z "
         transform="translate(-573.14288,210.6479)"
         id="path4309-6" />
      <path
         style="fill:#000000;fill-opacity:1;stroke:none"
         d="M 261.90625 -45.875 L 198.15625 17.21875 L 203.40625 37.1875 L 265 -23.75 L 277.46875 -41.59375 L 261.90625 -45.875 z M 418.84375 -32.625 L 420.78125 70.65625 L 309.15625 109.25 L 248.375 28.8125 L 246.03125 32.1875 L 317.21875 126.40625 L 428.84375 87.8125 L 426.65625 -30.25 L 418.84375 -32.625 z M 202 61.3125 L 128.5625 180.5625 L -12.625 176.5625 L -71.0625 68.4375 L -71.6875 69.46875 L -4.5625 193.75 L 58.34375 195.53125 L 114.15625 187.25 L 115.625 197.15625 L 136.65625 197.75 L 210.71875 77.46875 L 202 61.3125 z M 714 61.3125 L 640.5625 180.5625 L 499.375 176.5625 L 440.9375 68.4375 L 440.3125 69.46875 L 507.4375 193.75 L 648.65625 197.75 L 722.71875 77.46875 L 714 61.3125 z M 202.15625 133.1875 L 192.25 150.375 L 300.71875 150.375 L 290.78125 133.1875 L 202.15625 133.1875 z M 338.78125 167.0625 L 337.90625 167.53125 L 393.96875 272.09375 L 498.5 216.03125 L 489.53125 199.3125 L 385.875 254.90625 L 338.78125 167.0625 z M 324.75 180.40625 L 322.59375 180.4375 L 358.5625 285.40625 L 255.3125 363 L 160.625 296.5 L 157.71875 305.9375 L 251.125 371.53125 L 268.125 376.59375 L 366.65625 302.59375 L 324.75 180.40625 z M 122.21875 204.40625 L 116.8125 205.21875 L 125.25 262 L 55.90625 272.28125 L 58.59375 290.28125 L 133.34375 279.15625 L 122.21875 204.40625 z M 24.78125 227.90625 L 17.40625 232.5 L 22.875 397.5625 L -122.78125 319.75 L -133.90625 326.6875 L 30.96875 414.71875 L 24.78125 227.90625 z M 536.78125 227.90625 L 529.40625 232.5 L 534.875 397.5625 L 389.21875 319.75 L 378.09375 326.6875 L 542.96875 414.71875 L 536.78125 227.90625 z M 169.90625 354.78125 L 125.53125 419.4375 L 53.9375 398.25 L 54.34375 413.15625 L 133.59375 436.59375 L 180.40625 368.46875 L 169.90625 354.78125 z M 291.78125 398.40625 L 251.03125 429.9375 L 183.8125 410.375 L 169.71875 421.09375 L 259.09375 447.09375 L 313.65625 404.9375 L 291.78125 398.40625 z M 488.625 415.25 L 462.15625 457.4375 L 337.25 417.53125 L 330.3125 429.9375 L 470.21875 474.625 L 502.5625 423.09375 L 488.625 415.25 z M 261.90625 466.125 L 198.15625 529.21875 L 203.40625 549.1875 L 265 488.25 L 277.46875 470.40625 L 261.90625 466.125 z M 418.84375 479.375 L 420.78125 582.65625 L 309.15625 621.25 L 248.375 540.8125 L 246.03125 544.1875 L 317.21875 638.40625 L 428.84375 599.8125 L 426.65625 481.75 L 418.84375 479.375 z M 202 573.3125 L 128.5625 692.5625 L -12.625 688.5625 L -71.0625 580.4375 L -71.6875 581.46875 L -4.5625 705.75 L 136.65625 709.75 L 210.71875 589.46875 L 202 573.3125 z M 714 573.3125 L 640.5625 692.5625 L 499.375 688.5625 L 440.9375 580.4375 L 440.3125 581.46875 L 507.4375 705.75 L 648.65625 709.75 L 722.71875 589.46875 L 714 573.3125 z "
         transform="translate(-573.14288,210.6479)"
         id="path4309-4-0" />
    </g>
  </g>
</svg>
