<?xml version="1.0" encoding="UTF-8" standalone="no"?>
<!-- Created with Inkscape (http://www.inkscape.org/) -->

<svg
   xmlns:dc="http://purl.org/dc/elements/1.1/"
   xmlns:cc="http://creativecommons.org/ns#"
   xmlns:rdf="http://www.w3.org/1999/02/22-rdf-syntax-ns#"
   xmlns:svg="http://www.w3.org/2000/svg"
   xmlns="http://www.w3.org/2000/svg"
   xmlns:sodipodi="http://sodipodi.sourceforge.net/DTD/sodipodi-0.dtd"
   xmlns:inkscape="http://www.inkscape.org/namespaces/inkscape"
   width="512"
   height="512"
   id="svg2"
   version="1.1"
   inkscape:version="0.48.4 r9939"
   sodipodi:docname="New document 1">
  <defs
     id="defs4" />
  <sodipodi:namedview
     id="base"
     pagecolor="#ffffff"
     bordercolor="#666666"
     borderopacity="1.0"
     inkscape:pageopacity="0.0"
     inkscape:pageshadow="2"
     inkscape:zoom="0.98994949"
     inkscape:cx="319.61651"
     inkscape:cy="269.41292"
     inkscape:document-units="px"
     inkscape:current-layer="layer1"
     showgrid="false"
     fit-margin-top="0"
     fit-margin-left="0"
     fit-margin-right="0"
     fit-margin-bottom="0"
     inkscape:window-width="1301"
     inkscape:window-height="744"
     inkscape:window-x="65"
     inkscape:window-y="24"
     inkscape:window-maximized="1" />
  <metadata
     id="metadata7">
    <rdf:RDF>
      <cc:Work
         rdf:about="">
        <dc:format>image/svg+xml</dc:format>
        <dc:type
           rdf:resource="http://purl.org/dc/dcmitype/StillImage" />
        <dc:title></dc:title>
      </cc:Work>
    </rdf:RDF>
  </metadata>
  <g
     inkscape:label="Layer 1"
     inkscape:groupmode="layer"
     id="layer1"
     transform="translate(-119,-276.36218)">
    <path
       style="fill:#6f7c82;fill-opacity:1;stroke:none"
       d="m 190.721,371.16918 14.14214,65.65991 333.35036,-32.32488 -21.2132,-59.599 -182.83764,-30.30457 z"
       id="path3996"
       inkscape:connector-curvature="0" />
    <path
       style="fill:#6c6c6c;fill-opacity:1;stroke:none"
       d="M 343.75926,346.42044 519.5258,376.21994 511.4446,345.41029 336.68819,319.6514 189.711,370.15903 201.65426,395.02506 z"
       id="path3998"
       inkscape:connector-curvature="0"
       sodipodi:nodetypes="ccccccc" />
    <path
       style="fill:#406ce6;fill-opacity:1;stroke:none"
       d="M 345.71583,362.26721 523.3133,392.38239 538.213,440.36463 391.99344,490.11465 218.2472,461.3253 200.317,411.07021 z"
       id="path3969"
       inkscape:connector-curvature="0"
       sodipodi:nodetypes="ccccccc" />
    <path
       style="fill:#ffffff;fill-opacity:0.25490196;stroke:none"
       d="M 278.09874,448.44585 425.581,394.40269 403.8627,333.28846 326.08098,321.6717 193.751,374.70471 l 23.73858,63.13454 z"
       id="path3994"
       inkscape:connector-curvature="0" />
    <path
       style="fill:#c4c4c4;fill-opacity:1;stroke:#515151;stroke-width:4;stroke-linecap:butt;stroke-linejoin:miter;stroke-miterlimit:4;stroke-opacity:1;stroke-dasharray:none"
       d="m 165.99478,378.58626 -1.63778,38.34735 88.92857,292.5 26.96429,28.75 112.32143,26.25 93.03571,-45.17857 77.1429,-234.28572 1.4464,-35.45957 -165.26823,63.62591 -204.4612,-41.01604 z"
       id="path3771"
       inkscape:connector-curvature="0"
       sodipodi:nodetypes="ccccccccccc" />
    <path
       style="fill:#000000;fill-opacity:0.09019608;stroke:none"
       d="m 167.34375,393.76843 -0.96875,22.8125 88.65625,291.78125 26.28125,28.03125 111,25.9375 91.65625,-44.53125 76.78125,-233.21875 1.2812,-31 -162.49995,62.125 -0.53125,0.21875 -0.5625,-0.125 -205.34375,-40.6875 -1.1875,-0.21875 -0.34375,-1.15625 -24.21875,-79.96875 z M 230.125,509.04968 394,542.39343 l 72.5,-25.75 -46.21875,168.4375 -59.09375,40.65625 -54.3125,-5.0625 -33.5625,-41.90625 -43.1875,-169.71875 z"
       id="path3771-2"
       inkscape:connector-curvature="0" />
    <path
       style="fill:#000000;fill-opacity:0.12941176;stroke:none"
       d="m 166,378.58093 -1.65625,38.34375 88.9375,292.5 26.96875,28.75 112.3125,26.25 93.03125,-45.15625 77.15625,-234.3125 1.4375,-35.4375 -13.8125,5.3125 -2.8125,27.34375 -74.46875,226.125 -82.34375,40 -102.46875,-23.9375 -21.4375,-22.8125 -68.8125,-228.71875 -3.5625,-0.71875 L 166,378.58093 z"
       id="path3771-8"
       inkscape:connector-curvature="0" />
    <path
       style="fill:#000000;fill-opacity:0.17647059;stroke:none"
       d="m 564.1875,449.51843 -139.9687,53.90625 -49.31255,149.75 -93.0625,45.1875 -34.375,-8.03125 5.8125,19.09375 26.96875,28.75 112.3125,26.25 93.0313,-45.15625 77.1562,-234.3125 1.4375,-35.4375 z"
       id="path3771-4"
       inkscape:connector-curvature="0" />
    <path
       style="fill:#969696;fill-opacity:1;stroke:#515151;stroke-width:4;stroke-linecap:butt;stroke-linejoin:miter;stroke-miterlimit:4;stroke-opacity:1;stroke-dasharray:none"
       d="m 336.43725,299.45593 -175.53125,66.15625 32.5625,107.5625 205.34375,40.6875 173.75005,-66.4375 -31.8125,-107.8125 -204.31255,-40.15625 z m 5.8125,33.3125 164.15625,28.8125 23.7188,71.71875 -137.37505,47.46875 -165.03125,-29.53125 -24.5,-72 139.03125,-46.46875 z"
       id="path2996"
       inkscape:connector-curvature="0" />
    <path
       style="fill:#000000;fill-opacity:0.1372549;stroke:none"
       d="m 329.40625,321.51843 -139.03125,46.46875 24.5,72 7.34375,1.3125 -20.90625,-61.4375 -0.625,-1.90625 1.90625,-0.625 139.03125,-46.46875 0.46875,-0.15625 0.5,0.0937 153.40625,26.9375 -2.4375,-7.40625 -164.15625,-28.8125 z m 201.84375,18.21875 28.4688,96.4375 -173.75005,66.4375 -193.09375,-38.25 2.15625,7.09375 203.59375,40.3125 171.5,-65.5625 -30.9375,-104.90625 -7.9375,-1.5625 z"
       id="path2996-6"
       inkscape:connector-curvature="0" />
  </g>
</svg>
