<?xml version="1.0" encoding="UTF-8" standalone="no"?>
<!-- Created with Inkscape (http://www.inkscape.org/) -->

<svg
   xmlns:dc="http://purl.org/dc/elements/1.1/"
   xmlns:cc="http://creativecommons.org/ns#"
   xmlns:rdf="http://www.w3.org/1999/02/22-rdf-syntax-ns#"
   xmlns:svg="http://www.w3.org/2000/svg"
   xmlns="http://www.w3.org/2000/svg"
   xmlns:sodipodi="http://sodipodi.sourceforge.net/DTD/sodipodi-0.dtd"
   xmlns:inkscape="http://www.inkscape.org/namespaces/inkscape"
   width="512"
   height="512"
   id="svg2"
   version="1.1"
   inkscape:version="0.48.4 r9939"
   sodipodi:docname="SpeedUpgrade.svg">
  <defs
     id="defs4" />
  <sodipodi:namedview
     id="base"
     pagecolor="#ffffff"
     bordercolor="#666666"
     borderopacity="1.0"
     inkscape:pageopacity="0.0"
     inkscape:pageshadow="2"
     inkscape:zoom="0.98994949"
     inkscape:cx="217.86893"
     inkscape:cy="273.48983"
     inkscape:document-units="px"
     inkscape:current-layer="layer1"
     showgrid="false"
     inkscape:window-width="1301"
     inkscape:window-height="744"
     inkscape:window-x="65"
     inkscape:window-y="24"
     inkscape:window-maximized="1" />
  <metadata
     id="metadata7">
    <rdf:RDF>
      <cc:Work
         rdf:about="">
        <dc:format>image/svg+xml</dc:format>
        <dc:type
           rdf:resource="http://purl.org/dc/dcmitype/StillImage" />
        <dc:title></dc:title>
      </cc:Work>
    </rdf:RDF>
  </metadata>
  <g
     inkscape:label="Layer 1"
     inkscape:groupmode="layer"
     id="layer1"
     transform="translate(0,-540.36217)">
    <path
       style="fill:#888888;fill-opacity:1;stroke:#000000;stroke-width:4;stroke-miterlimit:4;stroke-dasharray:none;stroke-opacity:1"
       d="m 81.82261,991.75302 -22.22336,-20.20305 1.01015,-337.39095 14.14214,-31.31473 360.62451,0 17.1725,11.11167 0,362.64477 -17.1725,11.11168 z"
       id="path2996"
       inkscape:connector-curvature="0" />
    <path
       style="fill:#000000;fill-opacity:0.30196078;stroke:none"
       d="M 412.96875 64.46875 L 433.34375 198.84375 L 426.28125 282.6875 L 426.28125 419.0625 L 407.09375 433.21875 L 167.6875 424.125 L 62.375 431 L 82.5625 449.375 L 434.75 445.34375 L 450.5625 435.125 L 450.5625 74.65625 L 434.75 64.46875 L 412.96875 64.46875 z "
       transform="translate(0,540.36217)"
       id="path2996-5" />
    <path
       style="fill:#ffffff;fill-opacity:0.30196078;stroke:none"
       d="M 76.03125,64.46875 62.625,94.1875 61.59375,430.28125 81.6875,448.59375 95.46875,269.5625 84.09375,103.90625 104.03125,80.65625 247.5,89.25 415.19643,79.834821 450.5625,107.1875 l 0,-32.53125 -15.8125,-10.1875 z"
       transform="translate(0,540.36217)"
       id="path3787"
       inkscape:connector-curvature="0"
       sodipodi:nodetypes="ccccccccccccc" />
  </g>
</svg>
