<?xml version="1.0" encoding="UTF-8" standalone="no"?>
<!-- Created with Inkscape (http://www.inkscape.org/) -->

<svg
   xmlns:dc="http://purl.org/dc/elements/1.1/"
   xmlns:cc="http://creativecommons.org/ns#"
   xmlns:rdf="http://www.w3.org/1999/02/22-rdf-syntax-ns#"
   xmlns:svg="http://www.w3.org/2000/svg"
   xmlns="http://www.w3.org/2000/svg"
   xmlns:sodipodi="http://sodipodi.sourceforge.net/DTD/sodipodi-0.dtd"
   xmlns:inkscape="http://www.inkscape.org/namespaces/inkscape"
   width="512"
   height="512"
   id="svg2"
   version="1.1"
   inkscape:version="0.48.4 r9939"
   sodipodi:docname="AdvancedControlCircuit.svg">
  <defs
     id="defs4">
    <inkscape:perspective
       sodipodi:type="inkscape:persp3d"
       inkscape:vp_x="-293.92837 : 293.92837 : 0"
       inkscape:vp_y="0 : 1000 : 0"
       inkscape:vp_z="440.00101 : 220.0005 : 0"
       inkscape:persp3d-origin="855.99984 : 170.66667 : 1"
       id="perspective3879" />
  </defs>
  <sodipodi:namedview
     id="base"
     pagecolor="#ffffff"
     bordercolor="#666666"
     borderopacity="1.0"
     inkscape:pageopacity="0.0"
     inkscape:pageshadow="2"
     inkscape:zoom="1"
     inkscape:cx="232.90366"
     inkscape:cy="329.92547"
     inkscape:document-units="px"
     inkscape:current-layer="layer1"
     showgrid="false"
     inkscape:window-width="1301"
     inkscape:window-height="744"
     inkscape:window-x="65"
     inkscape:window-y="24"
     inkscape:window-maximized="1">
    <inkscape:grid
       type="xygrid"
       id="grid2996"
       empspacing="4"
       visible="true"
       enabled="true"
       snapvisiblegridlinesonly="true" />
  </sodipodi:namedview>
  <metadata
     id="metadata7">
    <rdf:RDF>
      <cc:Work
         rdf:about="">
        <dc:format>image/svg+xml</dc:format>
        <dc:type
           rdf:resource="http://purl.org/dc/dcmitype/StillImage" />
        <dc:title></dc:title>
      </cc:Work>
    </rdf:RDF>
  </metadata>
  <g
     inkscape:label="Layer 1"
     inkscape:groupmode="layer"
     id="layer1"
     transform="translate(0,-540.36218)">
    <path
       style="fill:#323232;fill-opacity:1;stroke:#242424;stroke-width:4;stroke-linecap:butt;stroke-linejoin:miter;stroke-miterlimit:4;stroke-opacity:1;stroke-dasharray:none"
       d="m 6,762.36218 0,26 194,194 306,-153 0,-26 -194,-194 z"
       id="path2998"
       inkscape:connector-curvature="0"
       sodipodi:nodetypes="ccccccc" />
    <path
       style="fill:#ffffff;fill-opacity:0.0627451;stroke:none"
       d="m 199,956.36218 306,-153 -193,-193 -306,153 z"
       id="path3768-8"
       inkscape:connector-curvature="0"
       sodipodi:nodetypes="ccccc" />
    <path
       style="fill:#ffffff;fill-opacity:0.0627451;stroke:none"
       d="m 199,956.36218 306,-153 -193,-193 -306,153 z"
       id="path3768"
       inkscape:connector-curvature="0"
       sodipodi:nodetypes="ccccc" />
    <path
       style="fill:#000000;fill-opacity:0.05490196;stroke:none"
       d="m 312,610.36218 -306,153 193,193 306,-153 -193,-193 z m -3.40625,20.96875 167.31255,167.3125 -273.50005,136.75 -167.3125,-167.3125 273.5,-136.75 z"
       id="path3768-6"
       inkscape:connector-curvature="0" />
    <path
       style="fill:#ffffff;fill-opacity:0.06666667;stroke:none"
       d="M 274.72171,919.41538 390.23455,688.20219 322.91602,620.50866 169.375,925.92468 l 30.74694,30.43703 z"
       id="path3827"
       inkscape:connector-curvature="0"
       sodipodi:nodetypes="cccccc" />
    <path
       style="fill:#ffff00;fill-opacity:1;stroke:none"
       d="m 212.75,659.98718 -9.5,4.75 53.15625,53.15625 10.15625,-4.09375 -53.8125,-53.8125 z"
       id="path5570" />
    <path
       style="fill:#ffff00;fill-opacity:1;stroke:none"
       d="m 180.90625,675.89343 -9.5,4.75 53.8125,53.8125 8.0625,-6.1875 -52.375,-52.375 z"
       id="path5568" />
    <path
       style="fill:#ff0000;fill-opacity:1;stroke:none"
       d="m 383.5,681.86218 -86.9375,44.375 9.53125,6.9375 86.09375,-42.625 -8.6875,-8.6875 z"
       id="path5566" />
    <path
       style="fill:#ff0000;fill-opacity:1;stroke:none"
       d="m 415.9688,714.33093 -89.31255,45.3125 6.875,10.90625 3.96875,-4.9375 86.4688,-43.28125 -8,-8 z"
       id="path5564" />
    <path
       style="fill:#3a78ff;fill-opacity:1;stroke:none"
       d="M 465.2812,763.64343 356,818.86218 l -32.8125,-32.4375 -10,5.09375 42.6875,41.84375 118.8125,-60.3125 -9.4063,-9.40625 z"
       id="path5562" />
    <path
       style="fill:#00ff00;fill-opacity:1;stroke:none"
       d="m 198.90625,774.36218 -120.6875,61.21875 8.4375,8.4375 118.03125,-59.90625 -5.78125,-9.75 z"
       id="path5560" />
    <path
       style="fill:#00ff00;fill-opacity:1;stroke:none"
       d="m 228.78125,807.76843 -118.8125,59.5625 8.0625,8.0625 120.65625,-60.4375 -9.90625,-7.1875 z"
       id="path5558" />
    <path
       style="fill:#3a78ff;fill-opacity:1;stroke:none"
       d="m 275.5625,810.83093 -9.53125,5.0625 32.40625,32.40625 -137.875,69.625 5.9375,5.9375 2.34375,2.1875 L 317,852.11218 275.5625,810.83093 z"
       id="path5422" />
    <path
       style="fill:#ffffff;fill-opacity:0.06666667;stroke:none"
       d="m 47.75,804.36218 64.5,64.5 105.75,-212.75 -128.75,66 z"
       id="path3829"
       inkscape:connector-curvature="0"
       sodipodi:nodetypes="ccccc" />
    <path
       id="path5552"
       style="font-size:medium;font-style:normal;font-variant:normal;font-weight:normal;font-stretch:normal;text-indent:0;text-align:start;text-decoration:none;line-height:normal;letter-spacing:normal;word-spacing:normal;text-transform:none;direction:ltr;block-progression:tb;writing-mode:lr-tb;text-anchor:start;baseline-shift:baseline;color:#000000;fill:#939300;fill-opacity:1;fill-rule:nonzero;stroke:none;stroke-width:4;marker:none;visibility:visible;display:inline;overflow:visible;enable-background:accumulate;font-family:Sans;-inkscape-font-specification:Sans"
       d="m 205.15625,663.79968 -3.78125,1.875 53,53 4.0625,-1.59375 -53.28125,-53.28125 z m 9.5,-4.75 -3.78125,1.875 53.6875,53.6875 4.15625,-1.65625 -0.28125,-0.125 -53.78125,-53.78125 z" />
    <path
       id="path5548"
       style="font-size:medium;font-style:normal;font-variant:normal;font-weight:normal;font-stretch:normal;text-indent:0;text-align:start;text-decoration:none;line-height:normal;letter-spacing:normal;word-spacing:normal;text-transform:none;direction:ltr;block-progression:tb;writing-mode:lr-tb;text-anchor:start;baseline-shift:baseline;color:#000000;fill:#939300;fill-opacity:1;fill-rule:nonzero;stroke:none;stroke-width:4;marker:none;visibility:visible;display:inline;overflow:visible;enable-background:accumulate;font-family:Sans;-inkscape-font-specification:Sans"
       d="m 173.3125,679.70593 -3.78125,1.875 54.09375,54.09375 3.1875,-2.46875 -53.5,-53.5 z m 9.5,-4.75 -3.78125,1.875 52.65625,52.65625 3.21875,-2.4375 -52.09375,-52.09375 z" />
    <path
       id="path5544"
       style="font-size:medium;font-style:normal;font-variant:normal;font-weight:normal;font-stretch:normal;text-indent:0;text-align:start;text-decoration:none;line-height:normal;letter-spacing:normal;word-spacing:normal;text-transform:none;direction:ltr;block-progression:tb;writing-mode:lr-tb;text-anchor:start;baseline-shift:baseline;color:#000000;fill:#460000;fill-opacity:1;fill-rule:nonzero;stroke:none;stroke-width:4;marker:none;visibility:visible;display:inline;overflow:visible;enable-background:accumulate;font-family:Sans;-inkscape-font-specification:Sans"
       d="m 390.6875,689.04968 -86.40625,42.8125 3.65625,2.65625 85.71875,-42.5 -2.96875,-2.96875 z m -8.6875,-8.6875 -87.25,44.5625 3.625,2.625 86.625,-44.1875 -3,-3 z" />
    <path
       id="path5540"
       style="font-size:medium;font-style:normal;font-variant:normal;font-weight:normal;font-stretch:normal;text-indent:0;text-align:start;text-decoration:none;line-height:normal;letter-spacing:normal;word-spacing:normal;text-transform:none;direction:ltr;block-progression:tb;writing-mode:lr-tb;text-anchor:start;baseline-shift:baseline;color:#000000;fill:#460000;fill-opacity:1;fill-rule:nonzero;stroke:none;stroke-width:4;marker:none;visibility:visible;display:inline;overflow:visible;enable-background:accumulate;font-family:Sans;-inkscape-font-specification:Sans"
       d="m 422.4688,720.83093 -85.87505,42.96875 -0.375,0.21875 -0.28125,0.34375 -3.53125,4.40625 2.25,3.5625 4.125,-5.125 86.65625,-43.40625 -2.9687,-2.96875 z m -7.9688,-7.96875 -88.90625,45.0625 2.15625,3.40625 89.7188,-45.5 -2.9688,-2.96875 z" />
    <path
       id="path5536"
       style="font-size:medium;font-style:normal;font-variant:normal;font-weight:normal;font-stretch:normal;text-indent:0;text-align:start;text-decoration:none;line-height:normal;letter-spacing:normal;word-spacing:normal;text-transform:none;direction:ltr;block-progression:tb;writing-mode:lr-tb;text-anchor:start;baseline-shift:baseline;color:#000000;fill:#1c3a7a;fill-opacity:1;fill-rule:nonzero;stroke:none;stroke-width:4;marker:none;visibility:visible;display:inline;overflow:visible;enable-background:accumulate;font-family:Sans;-inkscape-font-specification:Sans"
       d="m 473.2188,771.58093 -116.9688,59.34375 -41.15625,-40.375 -3.78125,1.9375 43.15625,42.28125 1.03125,1 1.28125,-0.625 119.40625,-60.59375 -2.9687,-2.96875 z m -9.4688,-9.46875 -107.375,54.28125 -31.3125,-30.9375 -3.71875,1.90625 33.25,32.90625 1.03125,1 1.28125,-0.625 109.84375,-55.53125 -3,-3 z" />
    <path
       id="path5532"
       style="font-size:medium;font-style:normal;font-variant:normal;font-weight:normal;font-stretch:normal;text-indent:0;text-align:start;text-decoration:none;line-height:normal;letter-spacing:normal;word-spacing:normal;text-transform:none;direction:ltr;block-progression:tb;writing-mode:lr-tb;text-anchor:start;baseline-shift:baseline;color:#000000;fill:#006c00;fill-opacity:1;fill-rule:nonzero;stroke:none;stroke-width:4;marker:none;visibility:visible;display:inline;overflow:visible;enable-background:accumulate;font-family:Sans;-inkscape-font-specification:Sans"
       d="m 203.65625,782.36218 -118.5,60.15625 2.96875,2.96875 117.625,-59.6875 -0.15625,-0.15625 -1.9375,-3.28125 z m -5.09375,-10.0625 -121.8125,61.8125 2.96875,2.96875 120.21875,-61 -1.84375,-3.09375 0.46875,-0.6875 z" />
    <path
       id="path5526"
       style="font-size:medium;font-style:normal;font-variant:normal;font-weight:normal;font-stretch:normal;text-indent:0;text-align:start;text-decoration:none;line-height:normal;letter-spacing:normal;word-spacing:normal;text-transform:none;direction:ltr;block-progression:tb;writing-mode:lr-tb;text-anchor:start;baseline-shift:baseline;color:#000000;fill:#006c00;fill-opacity:1;fill-rule:nonzero;stroke:none;stroke-width:4;marker:none;visibility:visible;display:inline;overflow:visible;enable-background:accumulate;font-family:Sans;-inkscape-font-specification:Sans"
       d="m 236.84375,813.61218 -120.3125,60.28125 3,3 121,-60.625 -3.6875,-2.65625 z m -9.90625,-7.1875 -118.5,59.375 3.03125,3.03125 119.15625,-59.71875 -3.6875,-2.6875 z" />
    <path
       id="path5422-2"
       style="font-size:medium;font-style:normal;font-variant:normal;font-weight:normal;font-stretch:normal;text-indent:0;text-align:start;text-decoration:none;line-height:normal;letter-spacing:normal;word-spacing:normal;text-transform:none;direction:ltr;block-progression:tb;writing-mode:lr-tb;text-anchor:start;baseline-shift:baseline;color:#000000;fill:#1c3a7a;fill-opacity:1;fill-rule:nonzero;stroke:none;stroke-width:4;marker:none;visibility:visible;display:inline;overflow:visible;enable-background:accumulate;font-family:Sans;-inkscape-font-specification:Sans"
       d="m 267.90625,814.92468 -3.6875,1.96875 30.84375,30.84375 -136,68.6875 3.125,3.125 137.15625,-69.46875 2.46875,-1.25 -1.96875,-1.96875 -31.9375,-31.9375 z m 9.5,-5.0625 -3.71875,1.96875 39.9375,39.71875 -146.40625,73.03125 2.90625,2.90625 147.78125,-73.59375 2.5,-1.25 -2,-1.96875 -41,-40.8125 z" />
    <path
       inkscape:connector-curvature="0"
       id="path5367"
       style="color:#000000;fill:#ee5858;fill-opacity:1;fill-rule:evenodd;stroke:none;stroke-width:4;marker:none;visibility:visible"
       d="m 184.308,751.55263 63.90074,63.90074 95.16967,-47.58483 -63.90074,-63.90074 z" />
    <path
       inkscape:connector-curvature="0"
       id="path5371"
       style="color:#000000;fill:#ea3232;fill-opacity:1;fill-rule:evenodd;stroke:none;stroke-width:4;marker:none;visibility:visible"
       d="m 184.308,751.55263 63.90074,63.90074 0,11.89674 -63.90074,-63.90073 z" />
    <path
       inkscape:connector-curvature="0"
       id="path5369"
       style="color:#000000;fill:#ea3232;fill-opacity:1;fill-rule:evenodd;stroke:none;stroke-width:4;marker:none;visibility:visible"
       d="m 248.20874,815.45337 0,11.89674 95.16967,-47.58483 0,-11.89674 z" />
    <path
       style="color:#000000;fill:#000000;fill-opacity:0.09803922;fill-rule:evenodd;stroke:none;stroke-width:4;marker:none;visibility:visible"
       d="m 279.46875,703.95593 -95.15625,47.59375 63.90625,63.90625 95.15625,-47.59375 -63.90625,-63.90625 z m -1.34375,8.28125 53.75,53.75 -82.3125,41.1875 -53.75,-53.75 82.3125,-41.1875 z"
       id="path5367-6"
       inkscape:connector-curvature="0" />
    <path
       style="color:#000000;fill:#000000;fill-opacity:0.07843137;fill-rule:evenodd;stroke:none;stroke-width:4;marker:none;visibility:visible"
       d="m 275.59375,718.83093 -82.6875,41.3125 55.3125,55.3125 82.6875,-41.34375 -55.3125,-55.28125 z"
       id="path5367-2"
       inkscape:connector-curvature="0" />
  </g>
</svg>
