<?xml version="1.0" encoding="UTF-8" standalone="no"?>
<!-- Created with Inkscape (http://www.inkscape.org/) -->

<svg
   xmlns:dc="http://purl.org/dc/elements/1.1/"
   xmlns:cc="http://creativecommons.org/ns#"
   xmlns:rdf="http://www.w3.org/1999/02/22-rdf-syntax-ns#"
   xmlns:svg="http://www.w3.org/2000/svg"
   xmlns="http://www.w3.org/2000/svg"
   xmlns:sodipodi="http://sodipodi.sourceforge.net/DTD/sodipodi-0.dtd"
   xmlns:inkscape="http://www.inkscape.org/namespaces/inkscape"
   width="512"
   height="512"
   id="svg2"
   version="1.1"
   inkscape:version="0.48.4 r9939"
   sodipodi:docname="AtomicCore.svg">
  <defs
     id="defs4" />
  <sodipodi:namedview
     id="base"
     pagecolor="#ffffff"
     bordercolor="#666666"
     borderopacity="1.0"
     inkscape:pageopacity="0.0"
     inkscape:pageshadow="2"
     inkscape:zoom="0.5"
     inkscape:cx="331.62431"
     inkscape:cy="214.4158"
     inkscape:document-units="px"
     inkscape:current-layer="layer1"
     showgrid="false"
     showguides="true"
     inkscape:window-width="1301"
     inkscape:window-height="744"
     inkscape:window-x="65"
     inkscape:window-y="24"
     inkscape:window-maximized="1">
    <inkscape:grid
       type="xygrid"
       id="grid2998"
       empspacing="8"
       visible="true"
       enabled="true"
       snapvisiblegridlinesonly="true" />
  </sodipodi:namedview>
  <metadata
     id="metadata7">
    <rdf:RDF>
      <cc:Work
         rdf:about="">
        <dc:format>image/svg+xml</dc:format>
        <dc:type
           rdf:resource="http://purl.org/dc/dcmitype/StillImage" />
        <dc:title />
      </cc:Work>
    </rdf:RDF>
  </metadata>
  <g
     inkscape:label="Layer 1"
     inkscape:groupmode="layer"
     id="layer1"
     transform="translate(0,-540.36217)">
    <path
       style="color:#000000;fill:#b3b3b3;fill-opacity:1;fill-rule:nonzero;stroke:#454545;stroke-width:16;stroke-linejoin:miter;stroke-miterlimit:4;stroke-opacity:1;stroke-dasharray:none;marker:none;visibility:visible;display:inline;overflow:visible;enable-background:accumulate"
       d="m 121,628.36217 272,0 32,32 0,272 -32,32 -272,0 -32,-32 0,-272 z"
       id="rect4120"
       inkscape:connector-curvature="0"
       sodipodi:nodetypes="ccccccccc" />
    <path
       style="color:#000000;fill:#000000;fill-opacity:0.19607843;fill-rule:nonzero;stroke:none;stroke-width:16;marker:none;visibility:visible;display:inline;overflow:visible;enable-background:accumulate"
       d="M 402.6875 107.28125 L 399.3125 368.5 L 372.3125 395.5 L 106.375 398.9375 L 97 388.40625 L 97 389 L 124.03125 419.4375 L 390 416 L 417 389 L 420.4375 123.03125 L 402.6875 107.28125 z "
       transform="translate(0,540.36217)"
       id="rect4120-8" />
    <path
       style="color:#000000;fill:#595959;fill-opacity:1;fill-rule:nonzero;stroke:#454545;stroke-width:16;stroke-linecap:butt;stroke-linejoin:miter;stroke-miterlimit:4;stroke-opacity:1;stroke-dasharray:none;stroke-dashoffset:0;marker:none;visibility:visible;display:inline;overflow:visible;enable-background:accumulate"
       d="m 153,612.36217 0,80 -80,0 0,208 80,0 0,80 208,0 0,-80 80,0 0,-208 -80,0 0,-80 -208,0 z"
       id="rect4123"
       inkscape:connector-curvature="0" />
    <path
       sodipodi:type="star"
       style="color:#000000;fill:#5d5d5d;fill-opacity:1;fill-rule:nonzero;stroke:none;stroke-width:20;marker:none;visibility:visible;display:inline;overflow:visible;enable-background:accumulate"
       id="path4035"
       sodipodi:sides="7"
       sodipodi:cx="256"
       sodipodi:cy="256"
       sodipodi:r1="135.7645"
       sodipodi:r2="122.31959"
       sodipodi:arg1="-0.78539816"
       sodipodi:arg2="-0.33659921"
       inkscape:flatsided="true"
       inkscape:rounded="0"
       inkscape:randomized="0"
       d="m 352,160 38.91084,111.2008 -62.67977,99.75428 -117.07124,13.19076 -83.30567,-83.30567 13.19076,-117.07124 99.75428,-62.67977 z"
       transform="translate(0.99984,540.36217)"
       inkscape:transform-center-x="-3.3824965"
       inkscape:transform-center-y="-3.3824965" />
    <path
       style="color:#000000;fill:#000000;fill-opacity:0.19607843;fill-rule:nonzero;stroke:none;stroke-width:20;marker:none;visibility:visible;display:inline;overflow:visible;enable-background:accumulate"
       d="m 241.8125,661.45592 -99.78125,62.6875 -13.1875,117.0625 83.3125,83.3125 117.0625,-13.1875 62.6875,-99.78125 L 353,700.36217 241.8125,661.45592 z m 2.625,23.34375 91.96875,32.15625 32.15625,91.96875 -51.8125,82.5 -96.84375,10.90625 -68.875,-68.875 10.90625,-96.84375 82.5,-51.8125 z"
       id="path4035-7"
       inkscape:connector-curvature="0" />
    <path
       style="color:#000000;fill:#000000;fill-opacity:0.19607843;fill-rule:nonzero;stroke:none;stroke-width:20;marker:none;visibility:visible;display:inline;overflow:visible;enable-background:accumulate"
       d="m 339.9375,695.79967 23.6875,67.6875 -62.6875,99.75 -117.0625,13.1875 -53.03125,-53.03125 -2,17.8125 83.3125,83.3125 117.0625,-13.1875 62.6875,-99.78125 L 353,700.36217 l -13.0625,-4.5625 z"
       id="path4035-3"
       inkscape:connector-curvature="0" />
    <path
       style="color:#000000;fill:#ffffff;fill-opacity:0.1372549;fill-rule:nonzero;stroke:none;stroke-width:20;marker:none;visibility:visible;display:inline;overflow:visible;enable-background:accumulate"
       d="m 241.8125,661.45592 -99.78125,62.6875 -9.46875,84 19.5,19.5 117.0625,-13.1875 62.6875,-99.78125 -8.65625,-24.75 -81.34375,-28.46875 z"
       id="path4035-4"
       inkscape:connector-curvature="0" />
    <path
       style="fill:#191919;fill-opacity:1;stroke:none;stroke-width:1px;stroke-linecap:butt;stroke-linejoin:miter;stroke-opacity:1"
       d="m 241,780.36217 0,-144 -32,-32 0,-16 16,-16 64,0 16,16 0,16 -32,32 0,144 144,0 32,-32 16,0 16,16 0,64 -16,16 -16,0 -32,-32 -144,0 0,144 32,32 0,16.00003 -16,16 -64,0 -16,-16 0,-16.00003 32,-32 0,-144 -144,0 -32,32 -16,0 -16,-16 0,-64 16,-16 16,0 32,32 z"
       id="path3004"
       inkscape:connector-curvature="0" />
    <path
       sodipodi:type="star"
       style="color:#000000;fill:#303030;fill-opacity:1;fill-rule:nonzero;stroke:none;stroke-width:20;marker:none;visibility:visible;display:inline;overflow:visible;enable-background:accumulate"
       id="path3000"
       sodipodi:sides="5"
       sodipodi:cx="256"
       sodipodi:cy="256"
       sodipodi:r1="90.509666"
       sodipodi:r2="73.223862"
       sodipodi:arg1="-0.78539816"
       sodipodi:arg2="-0.15707963"
       inkscape:flatsided="true"
       inkscape:rounded="0"
       inkscape:randomized="0"
       d="m 320,192 16.6447,105.09053 -94.80353,48.30481 -75.23651,-75.23651 48.30481,-94.80353 z"
       transform="translate(1.00034,540.36217)"
       inkscape:transform-center-x="4.3753196"
       inkscape:transform-center-y="4.3753196" />
    <path
       id="path3006-1"
       style="fill:#12ff00;fill-opacity:1;stroke:none"
       d="m 289,1004.3622 -8,8 -48,0 -8,-8 0,-16.00003 32,-32 32,32 z M 49,828.36217 l -8,-8 0,-48 8,-8 16,0 32,32 -32,32 z m 416,-64 8,8 0,48 -8,8 -16,0 -32,-32 32,-32 z m -240,-176 8,-8 48,0 8,8 0,16 -32,32 -32,-32 z"
       inkscape:connector-curvature="0" />
    <path
       style="fill:#ffffff;fill-opacity:0.19607843;stroke:none"
       d="m 233,580.36217 -8,8 0,16 4,4 0,-16 8,-8 48,0 -4,-4 -48,0 z m -184,184 -8,8 0,48 4,4 0,-48 8,-8 16,0 -4,-4 -16,0 z m 400,0 -32,32 4,4 32,-32 16,0 -4,-4 -16,0 z m -192,192 -32,32 0,16.00003 4,4 0,-16.00003 32,-32 -4,-4 z"
       id="path3006-1-8"
       inkscape:connector-curvature="0" />
    <path
       style="fill:#000000;fill-opacity:0.19607843;stroke:none"
       d="m 285,584.36217 0,16 -32,32 4,4 32,-32 0,-16 -4,-4 z m 184,184 0,48 -8,8 -16,0 4,4 16,0 8,-8 0,-48 -4,-4 z m -376,24 -32,32 -16,0 4,4 16,0 32,-32 -4,-4 z m 192,192 0,16.00003 -8,8 -48,0 4,4 48,0 8,-8 0,-16.00003 -4,-4 z"
       id="path3006-1-0"
       inkscape:connector-curvature="0" />
    <g
       id="g4131"
       transform="matrix(1.4823828,0,0,1.4823828,-882.53615,-383.4389)">
      <path
         inkscape:transform-center-y="2.1876598"
         inkscape:transform-center-x="2.1876598"
         transform="translate(512.00034,540.36217)"
         d="m 288,224 8.32235,52.54526 -47.40177,24.15241 -37.61825,-37.61825 24.15241,-47.40177 z"
         inkscape:randomized="0"
         inkscape:rounded="0"
         inkscape:flatsided="true"
         sodipodi:arg2="-0.15707963"
         sodipodi:arg1="-0.78539816"
         sodipodi:r2="36.611931"
         sodipodi:r1="45.254833"
         sodipodi:cy="256"
         sodipodi:cx="256"
         sodipodi:sides="5"
         id="path3002"
         style="color:#000000;fill:#0000a3;fill-opacity:1;fill-rule:nonzero;stroke:none;stroke-width:20;marker:none;visibility:visible;display:inline;overflow:visible;enable-background:accumulate"
         sodipodi:type="star" />
      <path
         transform="translate(0,540.36217)"
         id="path3002-1"
         d="M 747.46875,215.6875 723.3125,263.09375 760.90625,300.6875 808.3125,276.53125 800,224 747.46875,215.6875 z m 5.125,10.0625 L 792,232 l 6.25,39.40625 -35.5625,18.125 -28.21875,-28.21875 18.125,-35.5625 z"
         style="color:#000000;fill:#000000;fill-opacity:0.19607843;fill-rule:nonzero;stroke:none;stroke-width:20;marker:none;visibility:visible;display:inline;overflow:visible;enable-background:accumulate"
         inkscape:connector-curvature="0" />
      <path
         transform="translate(0,540.36217)"
         id="path3002-5"
         d="M 747.46875,215.6875 723.3125,263.09375 736.15625,275.9375 770.8125,258.28125 764.5,218.375 747.46875,215.6875 z"
         style="color:#000000;fill:#ffffff;fill-opacity:0.1372549;fill-rule:nonzero;stroke:none;stroke-width:20;marker:none;visibility:visible;display:inline;overflow:visible;enable-background:accumulate"
         inkscape:connector-curvature="0" />
      <path
         transform="translate(0,540.36217)"
         id="path3002-15"
         d="m 785.4375,221.6875 7.375,46.59375 L 750.21875,290 760.90625,300.6875 808.3125,276.53125 800,224 785.4375,221.6875 z"
         style="color:#000000;fill:#000000;fill-opacity:0.1372549;fill-rule:nonzero;stroke:none;stroke-width:20;marker:none;visibility:visible;display:inline;overflow:visible;enable-background:accumulate"
         inkscape:connector-curvature="0" />
    </g>
  </g>
</svg>
