<?xml version="1.0" encoding="UTF-8" standalone="no"?>
<!-- Created with Inkscape (http://www.inkscape.org/) -->

<svg
   xmlns:dc="http://purl.org/dc/elements/1.1/"
   xmlns:cc="http://creativecommons.org/ns#"
   xmlns:rdf="http://www.w3.org/1999/02/22-rdf-syntax-ns#"
   xmlns:svg="http://www.w3.org/2000/svg"
   xmlns="http://www.w3.org/2000/svg"
   xmlns:sodipodi="http://sodipodi.sourceforge.net/DTD/sodipodi-0.dtd"
   xmlns:inkscape="http://www.inkscape.org/namespaces/inkscape"
   width="512"
   height="512"
   id="svg2"
   version="1.1"
   inkscape:version="0.48.4 r9939"
   sodipodi:docname="BronzeHoe.svg">
  <defs
     id="defs4" />
  <sodipodi:namedview
     id="base"
     pagecolor="#ffffff"
     bordercolor="#666666"
     borderopacity="1.0"
     inkscape:pageopacity="0.0"
     inkscape:pageshadow="2"
     inkscape:zoom="0.98994949"
     inkscape:cx="175.76005"
     inkscape:cy="306.24901"
     inkscape:document-units="px"
     inkscape:current-layer="layer1"
     showgrid="false"
     fit-margin-top="0"
     fit-margin-left="0"
     fit-margin-right="0"
     fit-margin-bottom="0"
     inkscape:window-width="1301"
     inkscape:window-height="744"
     inkscape:window-x="65"
     inkscape:window-y="24"
     inkscape:window-maximized="1">
    <inkscape:grid
       type="xygrid"
       id="grid3096"
       empspacing="8"
       visible="true"
       enabled="true"
       snapvisiblegridlinesonly="true" />
  </sodipodi:namedview>
  <metadata
     id="metadata7">
    <rdf:RDF>
      <cc:Work
         rdf:about="">
        <dc:format>image/svg+xml</dc:format>
        <dc:type
           rdf:resource="http://purl.org/dc/dcmitype/StillImage" />
        <dc:title />
      </cc:Work>
    </rdf:RDF>
  </metadata>
  <g
     inkscape:label="Layer 1"
     inkscape:groupmode="layer"
     id="layer1"
     transform="translate(-236,-121.50504)">
    <g
       id="g4000">
      <path
         sodipodi:nodetypes="ccccc"
         transform="translate(236,121.50504)"
         inkscape:connector-curvature="0"
         id="path3034"
         d="M 438.57143,70.571429 60.714285,449.14286 95.382524,483.34191 472.81453,105.98181 z"
         style="fill:#5a4829;fill-opacity:1;stroke:none" />
      <path
         id="path3034-6"
         transform="translate(236,121.50504)"
         d="M 438.5625 70.5625 L 60.71875 449.15625 L 95.375 483.34375 L 472.8125 105.96875 L 438.5625 70.5625 z M 438.46875 81.75 L 461.78125 105.90625 L 95.3125 472.28125 L 71.84375 449.125 L 438.46875 81.75 z "
         style="fill:#000000;fill-opacity:0.27450982;stroke:none" />
      <path
         id="path3034-2"
         transform="translate(236,121.50504)"
         d="M 457.75 90.78125 L 80.53125 468.71875 L 95.375 483.34375 L 472.625 106.15625 L 457.75 90.78125 z "
         style="fill:#000000;fill-opacity:0.19607843;stroke:none" />
    </g>
    <path
       style="fill:#b82e00;fill-opacity:1;stroke:#000000;stroke-width:1px;stroke-linecap:butt;stroke-linejoin:miter;stroke-opacity:0"
       d="M 267.78125 46.625 A 1.3525525 1.3525525 0 0 0 267.65625 46.65625 A 1.3525525 1.3525525 0 0 0 267.5625 46.6875 L 151.46875 75.5 A 1.3525525 1.3525525 0 0 0 151.5625 78.15625 L 290.125 101.3125 L 378.5 163.75 L 400.125 192.21875 A 1.3525525 1.3525525 0 0 0 400.78125 192.6875 L 450.75 208.03125 A 1.3525525 1.3525525 0 0 0 452.15625 207.65625 L 479.375 178.09375 A 1.3525525 1.3525525 0 0 0 479.71875 177.0625 L 476.9375 145.90625 A 1.3525525 1.3525525 0 0 0 476.53125 145.0625 L 395.1875 64.65625 A 1.3525525 1.3525525 0 0 0 394.4375 64.28125 L 268.0625 46.65625 A 1.3525525 1.3525525 0 0 0 267.78125 46.625 z M 267.875 48 L 394.25 65.625 L 475.59375 146.03125 L 478.375 177.1875 L 451.15625 206.75 L 401.1875 191.40625 L 379.4375 162.75 L 290.625 99.96875 L 151.78125 76.8125 L 267.875 48 z "
       transform="translate(236,121.50504)"
       id="path3077" />
    <path
       style="fill:#ff5e28;fill-opacity:1;stroke:#000000;stroke-width:1px;stroke-linecap:butt;stroke-linejoin:miter;stroke-opacity:0"
       d="m 387.77587,198.31158 138.86396,23.17749 88.79872,62.75573 21.75801,28.67231 49.96282,15.33246 27.21044,-29.54696 -2.78449,-31.16866 -81.34714,-80.39718 -126.36919,-17.6362 z"
       id="path3860"
       inkscape:connector-curvature="0"
       sodipodi:nodetypes="cccccccccc" />
    <path
       style="fill:#000000;fill-opacity:0.07843138;stroke:#000000;stroke-width:1px;stroke-linecap:butt;stroke-linejoin:miter;stroke-opacity:0"
       d="M 267.875 48 L 151.78125 76.8125 L 290.625 99.96875 L 379.4375 162.75 L 401.1875 191.40625 L 451.15625 206.75 L 478.375 177.1875 L 475.59375 146.03125 L 394.25 65.625 L 267.875 48 z M 268.46875 60.09375 L 388.71875 76.875 L 464.125 151.4375 L 466.0625 173 L 447.46875 193.1875 L 408.3125 181.15625 L 388.90625 155.5625 A 11.887764 11.887764 0 0 0 386.28125 153.03125 L 297.46875 90.28125 A 11.887764 11.887764 0 0 0 292.59375 88.28125 L 210.28125 74.53125 L 268.46875 60.09375 z "
       transform="translate(236,121.50504)"
       id="path3860-8" />
    <path
       style="fill:#000000;fill-opacity:0.11764706;stroke:#000000;stroke-width:1px;stroke-linecap:butt;stroke-linejoin:miter;stroke-opacity:0"
       d="M 278.96875 88.40625 L 255.78125 94.15625 L 290.625 99.96875 L 379.4375 162.75 L 401.1875 191.40625 L 451.15625 206.75 L 477.875 177.71875 L 405.34375 106.03125 L 278.96875 88.40625 z "
       transform="translate(236,121.50504)"
       id="path3860-2" />
    <path
       style="fill:#ffffff;fill-opacity:0.11764706;stroke:#000000;stroke-width:1px;stroke-linecap:butt;stroke-linejoin:miter;stroke-opacity:0"
       d="M 267.875 48 L 151.78125 76.8125 L 193.4375 83.75 L 272.03125 58.875 L 397 68.34375 L 394.25 65.625 L 267.875 48 z M 363.78125 151.6875 L 379.4375 162.75 L 401.1875 191.40625 L 418.15625 196.625 L 397.03125 172.15625 L 363.78125 151.6875 z "
       transform="translate(236,121.50504)"
       id="path3860-7" />
    <path
       style="fill:#d3cec0;fill-opacity:1;stroke:#b4ad87;stroke-width:5;stroke-linecap:butt;stroke-linejoin:miter;stroke-miterlimit:4;stroke-opacity:1;stroke-dasharray:none"
       d="m 696.27241,249.50221 15,14.38725 -142.44509,37.25527 25.89938,-27.20542 z"
       id="path4005-4"
       inkscape:connector-curvature="0"
       sodipodi:nodetypes="ccccc" />
    <path
       style="fill:#000000;fill-opacity:0.19607843;stroke:none;stroke-width:5;stroke-linecap:butt;stroke-linejoin:miter;stroke-miterlimit:4;stroke-opacity:1;stroke-dasharray:none"
       d="M 385.90756 168.34879 L 475.90625 144.8125 L 480.21875 143.6875 L 477 140.59375 L 462 126.1875 L 461.03125 125.25 L 461.03125 125.25 L 459.6875 125.5625 L 417.7205 135.66351 "
       id="path4141"
       transform="translate(236,121.50504)" />
    <path
       style="fill:#d3cec0;fill-opacity:1;stroke:#b4ad87;stroke-width:5;stroke-linecap:butt;stroke-linejoin:miter;stroke-miterlimit:4;stroke-opacity:1;stroke-dasharray:none"
       d="m 655.24613,209.54735 -14.38725,-15 -36.18384,134.05224 23.04224,-22.65446 z"
       id="path4005"
       inkscape:connector-curvature="0"
       sodipodi:nodetypes="ccccc" />
    <path
       style="font-size:medium;font-style:normal;font-variant:normal;font-weight:normal;font-stretch:normal;text-indent:0;text-align:start;text-decoration:none;line-height:normal;letter-spacing:normal;word-spacing:normal;text-transform:none;direction:ltr;block-progression:tb;writing-mode:lr-tb;text-anchor:start;baseline-shift:baseline;color:#000000;fill:#000000;fill-opacity:0.19607843;fill-rule:nonzero;stroke:none;stroke-width:5;marker:none;visibility:visible;display:inline;overflow:visible;enable-background:accumulate;font-family:Sans;-inkscape-font-specification:Sans"
       d="m 372.94054,181.65707 -6.69054,24.78043 -2.375,8.90625 6.5625,-6.46875 23.03125,-22.65625 0.46875,-0.46875 0.1875,-0.625 9.96926,-35.06406"
       id="path4005-8"
       transform="translate(236,121.50504)"
       inkscape:connector-curvature="0"
       sodipodi:nodetypes="cccccccc" />
    <path
       style="fill:#d3cec0;fill-opacity:1;stroke:#b4ad87;stroke-width:5;stroke-linecap:butt;stroke-linejoin:miter;stroke-miterlimit:4;stroke-opacity:1;stroke-dasharray:none"
       d="m 577.64168,291.61084 35.86041,29.29442 -15.24637,14.7413 -34.59773,-29.54696 z"
       id="path4036"
       inkscape:connector-curvature="0"
       sodipodi:nodetypes="ccccc" />
    <path
       style="fill:#000000;fill-opacity:0.19607843;stroke:none"
       d="m 586.08864,328.53999 10.55422,9.0097 1.71875,1.46875 1.625,-1.5625 15.25,-14.75 2.03125,-1.9375 -2.1875,-1.78125 -10.34854,-8.46289"
       id="path4036-3"
       inkscape:connector-curvature="0" />
  </g>
</svg>
