<?xml version="1.0" encoding="UTF-8" standalone="no"?>
<!-- Created with Inkscape (http://www.inkscape.org/) -->

<svg
   xmlns:dc="http://purl.org/dc/elements/1.1/"
   xmlns:cc="http://creativecommons.org/ns#"
   xmlns:rdf="http://www.w3.org/1999/02/22-rdf-syntax-ns#"
   xmlns:svg="http://www.w3.org/2000/svg"
   xmlns="http://www.w3.org/2000/svg"
   xmlns:sodipodi="http://sodipodi.sourceforge.net/DTD/sodipodi-0.dtd"
   xmlns:inkscape="http://www.inkscape.org/namespaces/inkscape"
   width="512"
   height="512"
   id="svg2"
   version="1.1"
   inkscape:version="0.48.4 r9939"
   sodipodi:docname="BronzeBoots.svg">
  <defs
     id="defs4">
    <inkscape:perspective
       sodipodi:type="inkscape:persp3d"
       inkscape:vp_x="-177.03602 : 203.65664 : 0"
       inkscape:vp_y="6.123234e-14 : 1000 : 0"
       inkscape:vp_z="361.59505 : 40.201559 : 0"
       inkscape:persp3d-origin="199.57185 : 151.38096 : 1"
       id="perspective3045" />
    <inkscape:perspective
       sodipodi:type="inkscape:persp3d"
       inkscape:vp_x="-177.03602 : 203.65664 : 0"
       inkscape:vp_y="6.123234e-14 : 1000 : 0"
       inkscape:vp_z="361.59505 : 40.201559 : 0"
       inkscape:persp3d-origin="152.20273 : 298.12959 : 1"
       id="perspective3045-7" />
    <inkscape:perspective
       sodipodi:type="inkscape:persp3d"
       inkscape:vp_x="-260.03344 : 72.113656 : 0"
       inkscape:vp_y="6.123234e-14 : 1000 : 0"
       inkscape:vp_z="308.72767 : 192.49515 : 0"
       inkscape:persp3d-origin="211.14341 : 214.30954 : 1"
       id="perspective3045-9" />
    <inkscape:perspective
       sodipodi:type="inkscape:persp3d"
       inkscape:vp_x="-260.03344 : 72.113656 : 0"
       inkscape:vp_y="6.123234e-14 : 1000 : 0"
       inkscape:vp_z="308.72767 : 192.49515 : 0"
       inkscape:persp3d-origin="274.14341 : 252.80954 : 1"
       id="perspective3045-9-4" />
    <inkscape:perspective
       sodipodi:type="inkscape:persp3d"
       inkscape:vp_x="-260.03344 : 72.113656 : 0"
       inkscape:vp_y="6.123234e-14 : 1000 : 0"
       inkscape:vp_z="308.72767 : 192.49515 : 0"
       inkscape:persp3d-origin="274.14341 : 348.80954 : 1"
       id="perspective3045-9-4-0" />
  </defs>
  <sodipodi:namedview
     id="base"
     pagecolor="#ffffff"
     bordercolor="#666666"
     borderopacity="1.0"
     inkscape:pageopacity="0.0"
     inkscape:pageshadow="2"
     inkscape:zoom="1"
     inkscape:cx="146.5382"
     inkscape:cy="250.64928"
     inkscape:document-units="px"
     inkscape:current-layer="layer1"
     showgrid="false"
     fit-margin-top="0"
     fit-margin-left="0"
     fit-margin-right="0"
     fit-margin-bottom="0"
     inkscape:window-width="1301"
     inkscape:window-height="744"
     inkscape:window-x="65"
     inkscape:window-y="24"
     inkscape:window-maximized="1">
    <inkscape:grid
       type="xygrid"
       id="grid3096"
       empspacing="8"
       visible="true"
       enabled="true"
       snapvisiblegridlinesonly="true" />
  </sodipodi:namedview>
  <metadata
     id="metadata7">
    <rdf:RDF>
      <cc:Work
         rdf:about="">
        <dc:format>image/svg+xml</dc:format>
        <dc:type
           rdf:resource="http://purl.org/dc/dcmitype/StillImage" />
        <dc:title></dc:title>
      </cc:Work>
    </rdf:RDF>
  </metadata>
  <g
     inkscape:label="Layer 1"
     inkscape:groupmode="layer"
     id="layer1"
     transform="translate(-236,-121.50504)">
    <path
       style="color:#000000;fill:#000000;fill-opacity:1;fill-rule:evenodd;stroke:none;stroke-width:4;marker:none;visibility:visible"
       d="M 80.1875 35.53125 A 4.5432995 4.5432995 0 0 0 75.78125 40.0625 L 75.6875 277.71875 L 14.90625 315.5625 A 4.5432995 4.5432995 0 0 0 12.78125 319.40625 L 12.78125 415.40625 A 4.5432995 4.5432995 0 0 0 16.09375 419.78125 L 116.5 447.65625 A 4.5432995 4.5432995 0 0 0 120.09375 447.15625 L 276.875 350.15625 A 4.5432995 4.5432995 0 0 0 279.03125 346.28125 L 279.03125 250.28125 L 279.03125 104.1875 L 279.03125 94.3125 A 4.5432995 4.5432995 0 0 0 272.09375 90.46875 L 262.8125 96.25 L 185.21875 74.71875 L 185.25 67.90625 A 4.5432995 4.5432995 0 0 0 181.9375 63.53125 L 81.53125 35.6875 A 4.5432995 4.5432995 0 0 0 80.1875 35.53125 z M 80.3125 40.0625 L 180.71875 67.90625 L 180.6875 78.1875 L 263.5 101.15625 L 274.5 94.3125 L 274.5 104.1875 L 274.5 250.28125 L 274.5 346.28125 L 117.71875 443.28125 L 17.3125 415.40625 L 17.3125 319.40625 L 80.21875 280.25 L 80.3125 40.0625 z M 180.15625 224.125 L 179.84375 308.5 L 179.875 308.5 L 180.1875 224.125 L 180.15625 224.125 z "
       transform="translate(236,121.50504)"
       id="path4868" />
    <path
       inkscape:connector-curvature="0"
       id="path3185"
       style="color:#000000;fill:#222222;fill-opacity:1;fill-rule:evenodd;stroke:none;stroke-width:4;marker:none;visibility:visible"
       d="m 528.045,378.12733 0,-151.1709 119.9115,-2.72497 0,140.5643 z"
       sodipodi:nodetypes="ccccc" />
    <path
       id="path3209"
       style="color:#000000;fill:#d0491c;fill-opacity:1;fill-rule:evenodd;stroke:none;stroke-width:4;marker:none;visibility:visible"
       d="m 579.94572,214.43539 119.91154,-13.33157 0,223.39681 42.36452,49.7374 -118.18993,13.14017 -43.97125,-49.5577 z"
       inkscape:connector-curvature="0"
       sodipodi:nodetypes="ccccccc" />
    <path
       inkscape:connector-curvature="0"
       id="path3211"
       style="color:#000000;fill:#ff5e28;fill-opacity:1;fill-rule:evenodd;stroke:none;stroke-width:4;marker:none;visibility:visible"
       d="m 624.03185,575.06274 0,-87.68454 118.18993,-13.14017 0,87.68454 z" />
    <path
       id="path3233"
       style="color:#000000;fill:#aa3f1b;fill-opacity:1;fill-rule:evenodd;stroke:none;stroke-width:4;marker:none;visibility:visible"
       d="m 527.80954,464.61501 96.22231,110.44773 0,-87.68454 -43.97125,-49.5577 -0.10676,-164.91204 -52.14377,-60.03637 z"
       inkscape:connector-curvature="0"
       sodipodi:nodetypes="ccccccc" />
    <path
       style="color:#000000;fill:#000000;fill-opacity:0.23529412;fill-rule:evenodd;stroke:none;stroke-width:4;marker:none;visibility:visible"
       d="M 506.21875 352.71875 L 388.03125 365.875 L 388.03125 453.5625 L 506.21875 440.40625 L 506.21875 352.71875 z M 490.4375 370.375 L 490.4375 426.3125 L 403.8125 435.9375 L 403.8125 380 L 490.4375 370.375 z "
       transform="translate(236,121.50504)"
       id="path3211-4" />
    <path
       style="color:#000000;fill:#ffffff;fill-opacity:0.11764706;fill-rule:evenodd;stroke:none;stroke-width:4;marker:none;visibility:visible"
       d="M 468.84375 356.875 L 388.03125 365.875 L 388.03125 417.0625 L 468.84375 408.09375 L 468.84375 356.875 z "
       transform="translate(236,121.50504)"
       id="path3211-2" />
    <path
       style="color:#000000;fill:#ffffff;fill-opacity:0.07843138;fill-rule:evenodd;stroke:none;stroke-width:4;marker:none;visibility:visible"
       d="M 395.0625,310.0625 344.0527,316.30622 387.71875,365.5 438.375,359.875 z"
       transform="translate(236,121.50504)"
       id="path3209-3"
       inkscape:connector-curvature="0"
       sodipodi:nodetypes="ccccc" />
    <path
       id="path3191-0"
       style="color:#000000;fill:#000000;fill-opacity:0.11764706;fill-rule:evenodd;stroke:none;stroke-width:4;marker:none;visibility:visible"
       d="m 699.8443,424.50504 0,-223.40625 -119.9063,13.34375 0.1152,223.36872 43.9786,49.56878 118.1875,-13.15625 z m -18.4063,-202.84375 0,186.375 -83.0937,9.25 0,-186.375 z m 11.5,216.96875 21.5313,24.78125 -84.7813,9.40625 -21.5312,-24.78125 z"
       inkscape:connector-curvature="0"
       sodipodi:nodetypes="ccccccccccccccccc" />
    <path
       style="color:#000000;fill:#ffffff;fill-opacity:0.07843138;fill-rule:evenodd;stroke:none;stroke-width:4;marker:none;visibility:visible"
       d="M 425.46875 83.875 L 343.9375 92.9375 L 343.9375 272.65625 L 425.46875 263.59375 L 425.46875 83.875 z "
       transform="translate(236,121.50504)"
       id="path3191-7" />
    <path
       style="color:#000000;fill:#000000;fill-opacity:0.31372549;fill-rule:evenodd;stroke:none;stroke-width:4;marker:none;visibility:visible"
       d="m 301.57899,222.79333 -0.003,-102.92441 30.79065,35.39565 0.2262,103.14968 z m 31.03747,46.42547 0.17453,79.58567 43.24026,49.75803 0,-46.5 -31.82501,-35.59721 -0.30432,-165.12197 -52.09962,-59.922689 0.0242,130.812749 z m 11.42233,57.8522 24.49242,27.77275 0,23.6875 -24.49242,-27.77275 z"
       transform="translate(236,121.50504)"
       id="path3213-8"
       inkscape:connector-curvature="0"
       sodipodi:nodetypes="ccccccccccccccccccc" />
    <path
       style="fill:#ffffff;fill-opacity:0.31372549;stroke:none"
       d="m 541.185,387.25511 0,73.89265 12.0208,13.87698 0,-74.24622 z"
       id="path4203"
       inkscape:connector-curvature="0"
       sodipodi:nodetypes="ccccc" />
    <path
       sodipodi:type="arc"
       style="color:#000000;fill:#000000;fill-opacity:0.31372549;fill-rule:nonzero;stroke:none;stroke-width:4;marker:none;visibility:visible;display:inline;overflow:visible;enable-background:accumulate"
       id="path4256-0"
       sodipodi:cx="908.8974"
       sodipodi:cy="306.85065"
       sodipodi:rx="11.048543"
       sodipodi:ry="15.821514"
       d="m 919.94594,306.85065 a 11.048543,15.821514 0 1 1 -22.09708,0 11.048543,15.821514 0 1 1 22.09708,0 z"
       transform="translate(-363.11586,121.32827)" />
    <path
       sodipodi:type="arc"
       style="color:#000000;fill:#ffffff;fill-opacity:0.31372549;fill-rule:nonzero;stroke:none;stroke-width:4;marker:none;visibility:visible;display:inline;overflow:visible;enable-background:accumulate"
       id="path4256"
       sodipodi:cx="908.8974"
       sodipodi:cy="306.85065"
       sodipodi:rx="4.8613591"
       sodipodi:ry="9.6343298"
       d="m 913.75876,306.85065 a 4.8613591,9.6343298 0 1 1 -9.72272,0 4.8613591,9.6343298 0 1 1 9.72272,0 z"
       transform="translate(-363.11586,121.32827)" />
    <path
       sodipodi:type="arc"
       style="color:#000000;fill:#000000;fill-opacity:0.31372549;fill-rule:nonzero;stroke:none;stroke-width:4;marker:none;visibility:visible;display:inline;overflow:visible;enable-background:accumulate"
       id="path4256-0-1"
       sodipodi:cx="908.8974"
       sodipodi:cy="306.85065"
       sodipodi:rx="11.048543"
       sodipodi:ry="15.821514"
       d="m 919.94594,306.85065 a 11.048543,15.821514 0 1 1 -22.09708,0 11.048543,15.821514 0 1 1 22.09708,0 z"
       transform="translate(-293.12486,189.82046)" />
    <path
       sodipodi:type="arc"
       style="color:#000000;fill:#ffffff;fill-opacity:0.31372549;fill-rule:nonzero;stroke:none;stroke-width:4;marker:none;visibility:visible;display:inline;overflow:visible;enable-background:accumulate"
       id="path4256-8"
       sodipodi:cx="908.8974"
       sodipodi:cy="306.85065"
       sodipodi:rx="4.8613591"
       sodipodi:ry="9.6343298"
       d="m 913.75876,306.85065 a 4.8613591,9.6343298 0 1 1 -9.72272,0 4.8613591,9.6343298 0 1 1 9.72272,0 z"
       transform="translate(-293.12486,189.82046)" />
    <path
       sodipodi:type="arc"
       style="color:#000000;fill:#000000;fill-opacity:0.31372549;fill-rule:nonzero;stroke:none;stroke-width:4;marker:none;visibility:visible;display:inline;overflow:visible;enable-background:accumulate"
       id="path4256-0-3"
       sodipodi:cx="908.8974"
       sodipodi:cy="306.85065"
       sodipodi:rx="11.048543"
       sodipodi:ry="15.821514"
       d="m 919.94594,306.85065 a 11.048543,15.821514 0 1 1 -22.09708,0 11.048543,15.821514 0 1 1 22.09708,0 z"
       transform="translate(-293.62486,237.54838)" />
    <path
       sodipodi:type="arc"
       style="color:#000000;fill:#ffffff;fill-opacity:0.31372549;fill-rule:nonzero;stroke:none;stroke-width:4;marker:none;visibility:visible;display:inline;overflow:visible;enable-background:accumulate"
       id="path4256-4"
       sodipodi:cx="908.8974"
       sodipodi:cy="306.85065"
       sodipodi:rx="4.8613591"
       sodipodi:ry="9.6343298"
       d="m 913.75876,306.85065 a 4.8613591,9.6343298 0 1 1 -9.72272,0 4.8613591,9.6343298 0 1 1 9.72272,0 z"
       transform="translate(-293.62486,237.54838)" />
    <path
       inkscape:connector-curvature="0"
       id="path4535"
       style="color:#000000;fill:#ff5e28;fill-opacity:1;fill-rule:evenodd;stroke:none;stroke-width:4;marker:none;visibility:visible"
       d="m 253.303,440.92554 100.41689,27.84807 0,95.99777 L 253.303,536.92331 z" />
    <path
       inkscape:connector-curvature="0"
       id="path4545"
       style="color:#000000;fill:#262626;fill-opacity:1;fill-rule:evenodd;stroke:none;stroke-width:4;marker:none;visibility:visible"
       d="m 410.0803,197.85742 100.4169,27.84807 0,146.09469 -100.4169,-27.84807 z"
       sodipodi:nodetypes="ccccc" />
    <path
       id="path4553"
       style="color:#000000;fill:#aa3f1b;fill-opacity:1;fill-rule:evenodd;stroke:none;stroke-width:4;marker:none;visibility:visible"
       d="m 415.8734,430.00754 -62.1534,38.76607 0,95.99777 156.7773,-96.9712 0,-251.99419 -94.05855,58.47119 z"
       inkscape:connector-curvature="0"
       sodipodi:nodetypes="ccccccc" />
    <path
       id="path4555"
       style="color:#000000;fill:#d0491c;fill-opacity:1;fill-rule:evenodd;stroke:none;stroke-width:4;marker:none;visibility:visible"
       d="m 415.8512,430.00754 -62.1313,38.76607 -100.4169,-27.84807 62.9063,-39.1741 0.094,-240.17514 100.4169,27.84807 z"
       inkscape:connector-curvature="0"
       sodipodi:nodetypes="ccccccc" />
    <path
       style="fill:#000000;fill-opacity:0.31372549;stroke:none"
       d="m 510,216.50504 -93.5625,57.78125 -0.66237,155.75601 -37.52513,23.46274 2.25,61.75 60.5,-34.5 -0.75,-90.5 69.5,-41.5 z m -121.0061,247.78553 35.75396,-23.80982 c 6.82232,-4.41165 7.40759,-10.15075 7.87131,-16.37915 l -0.1776,-143.1013 66.45172,-42.4113 -1.46319,109.21782 -62.90456,37.10281 -0.31538,90.65607 -44.80204,26.5165 z"
       id="path4565"
       inkscape:connector-curvature="0"
       sodipodi:nodetypes="ccccccccccccccccccc" />
    <path
       style="fill:#ffffff;fill-opacity:0.31372549;stroke:none"
       d="m 458.012,399.80625 0.35355,87.32769 38.89088,-24.39519 -1.76777,-84.85281 z"
       id="path4571"
       inkscape:connector-curvature="0" />
    <path
       sodipodi:type="arc"
       style="color:#000000;fill:#000000;fill-opacity:0.31372549;fill-rule:nonzero;stroke:none;stroke-width:4;marker:none;visibility:visible;display:inline;overflow:visible;enable-background:accumulate"
       id="path4256-0-9"
       sodipodi:cx="908.8974"
       sodipodi:cy="306.85065"
       sodipodi:rx="13.788582"
       sodipodi:ry="15.821514"
       d="m 922.68598,306.85065 a 13.788582,15.821514 0 1 1 -27.57716,0 13.788582,15.821514 0 1 1 27.57716,0 z"
       transform="translate(-429.78082,122.03538)" />
    <path
       sodipodi:type="arc"
       style="color:#000000;fill:#ffffff;fill-opacity:0.31372549;fill-rule:nonzero;stroke:none;stroke-width:4;marker:none;visibility:visible;display:inline;overflow:visible;enable-background:accumulate"
       id="path4256-6"
       sodipodi:cx="908.8974"
       sodipodi:cy="306.85065"
       sodipodi:rx="7.1594563"
       sodipodi:ry="9.6343298"
       d="m 916.05686,306.85065 a 7.1594563,9.6343298 0 1 1 -14.31892,0 7.1594563,9.6343298 0 1 1 14.31892,0 z"
       transform="translate(-429.78082,122.03538)" />
    <path
       sodipodi:type="arc"
       style="color:#000000;fill:#000000;fill-opacity:0.31372549;fill-rule:nonzero;stroke:none;stroke-width:4;marker:none;visibility:visible;display:inline;overflow:visible;enable-background:accumulate"
       id="path4256-0-9-4"
       sodipodi:cx="908.8974"
       sodipodi:cy="306.85065"
       sodipodi:rx="13.788582"
       sodipodi:ry="15.821514"
       d="m 922.68598,306.85065 a 13.788582,15.821514 0 1 1 -27.57716,0 13.788582,15.821514 0 1 1 27.57716,0 z"
       transform="translate(-537.61382,174.31762)" />
    <path
       sodipodi:type="arc"
       style="color:#000000;fill:#ffffff;fill-opacity:0.31372549;fill-rule:nonzero;stroke:none;stroke-width:4;marker:none;visibility:visible;display:inline;overflow:visible;enable-background:accumulate"
       id="path4256-6-1"
       sodipodi:cx="908.8974"
       sodipodi:cy="306.85065"
       sodipodi:rx="7.1594563"
       sodipodi:ry="9.6343298"
       d="m 916.05686,306.85065 a 7.1594563,9.6343298 0 1 1 -14.31892,0 7.1594563,9.6343298 0 1 1 14.31892,0 z"
       transform="translate(-537.61382,174.31762)" />
    <path
       sodipodi:type="arc"
       style="color:#000000;fill:#000000;fill-opacity:0.31372549;fill-rule:nonzero;stroke:none;stroke-width:4;marker:none;visibility:visible;display:inline;overflow:visible;enable-background:accumulate"
       id="path4256-0-9-4-0"
       sodipodi:cx="908.8974"
       sodipodi:cy="306.85065"
       sodipodi:rx="13.788582"
       sodipodi:ry="15.821514"
       d="m 922.68598,306.85065 a 13.788582,15.821514 0 1 1 -27.57716,0 13.788582,15.821514 0 1 1 27.57716,0 z"
       transform="translate(-537.61381,222.81762)" />
    <path
       sodipodi:type="arc"
       style="color:#000000;fill:#ffffff;fill-opacity:0.31372549;fill-rule:nonzero;stroke:none;stroke-width:4;marker:none;visibility:visible;display:inline;overflow:visible;enable-background:accumulate"
       id="path4256-6-1-2"
       sodipodi:cx="908.8974"
       sodipodi:cy="306.85065"
       sodipodi:rx="7.1594563"
       sodipodi:ry="9.6343298"
       d="m 916.05686,306.85065 a 7.1594563,9.6343298 0 1 1 -14.31892,0 7.1594563,9.6343298 0 1 1 14.31892,0 z"
       transform="translate(-537.61381,222.81762)" />
    <path
       id="path4555-7"
       style="color:#000000;fill:#000000;fill-opacity:0.11764706;fill-rule:evenodd;stroke:none;stroke-width:4;marker:none;visibility:visible"
       d="M 179.8125,308.51562 180.71875,67.90625 80.3125,40.0625 80.214844,280.22656 17.308594,319.38281 117.71875,347.28125 z M 101.625,68.09375 159.34375,84.125 158.625,280.375 101.53125,264.15625 z m -19.5625,225.1875 68.3125,19.375 L 115.8125,334.25 47,315.15625 z"
       inkscape:connector-curvature="0"
       sodipodi:nodetypes="ccccccccccccccccc"
       transform="translate(236,121.50504)" />
    <path
       style="color:#000000;fill:#ffffff;fill-opacity:0.07843138;fill-rule:evenodd;stroke:none;stroke-width:4;marker:none;visibility:visible"
       d="M 59.21875 293.28125 L 17.3125 319.40625 L 98.90625 342.0625 L 140.25 316.28125 L 59.21875 293.28125 z "
       transform="translate(236,121.50504)"
       id="path4531-3-6" />
    <path
       style="color:#000000;fill:#ffffff;fill-opacity:0.07843138;fill-rule:evenodd;stroke:none;stroke-width:4;marker:none;visibility:visible"
       d="M 80.3125 40.0625 L 80.21875 241.46875 L 143.84375 259.53125 L 144.5625 57.875 L 80.3125 40.0625 z "
       transform="translate(236,121.50504)"
       id="path4555-2" />
    <path
       style="color:#000000;fill:#000000;fill-opacity:0.23529412;fill-rule:evenodd;stroke:none;stroke-width:4;marker:none;visibility:visible"
       d="M 17.3125 319.40625 L 17.3125 415.40625 L 117.71875 443.28125 L 117.71875 347.28125 L 17.3125 319.40625 z M 35.1875 342.96875 L 99.84375 360.90625 L 99.84375 419.75 L 35.1875 401.8125 L 35.1875 342.96875 z "
       transform="translate(236,121.50504)"
       id="path4535-9" />
    <path
       style="color:#000000;fill:#ffffff;fill-opacity:0.11764706;fill-rule:evenodd;stroke:none;stroke-width:4;marker:none;visibility:visible"
       d="M 17.3125 319.40625 L 17.3125 389.875 L 82.375 407.90625 L 82.375 337.46875 L 17.3125 319.40625 z "
       transform="translate(236,121.50504)"
       id="path4535-5" />
    <path
       style="color:#000000;fill:#000000;fill-opacity:1;fill-rule:evenodd;stroke:none;stroke-width:4;marker:none;visibility:visible"
       d="M 463.71875 75.75 A 3.8441337 3.8441337 0 0 0 463.40625 75.78125 L 343.5 89.125 A 3.8441337 3.8441337 0 0 0 340.09375 92.9375 L 340.09375 100.5 L 305.5 101.28125 L 294.71875 88.84375 A 3.8441337 3.8441337 0 0 0 287.96875 91.375 L 287.96875 343.125 A 3.8441337 3.8441337 0 0 0 288.90625 345.65625 L 385.125 456.09375 A 3.8441337 3.8441337 0 0 0 388.46875 457.375 L 506.65625 444.21875 A 3.8441337 3.8441337 0 0 0 510.0625 440.40625 L 510.0625 352.71875 A 3.8441337 3.8441337 0 0 0 509.15625 350.21875 L 467.6875 301.5625 L 467.6875 79.59375 A 3.8441337 3.8441337 0 0 0 463.71875 75.75 z M 463.84375 79.59375 L 463.84375 303 L 506.21875 352.71875 L 506.21875 440.40625 L 388.03125 453.5625 L 291.8125 343.125 L 291.8125 91.375 L 303.78125 105.15625 L 343.9375 104.25 L 343.9375 92.9375 L 463.84375 79.59375 z "
       transform="translate(236,121.50504)"
       id="path4920" />
  </g>
</svg>
