<?xml version="1.0" encoding="UTF-8" standalone="no"?>
<!-- Created with Inkscape (http://www.inkscape.org/) -->

<svg
   xmlns:dc="http://purl.org/dc/elements/1.1/"
   xmlns:cc="http://creativecommons.org/ns#"
   xmlns:rdf="http://www.w3.org/1999/02/22-rdf-syntax-ns#"
   xmlns:svg="http://www.w3.org/2000/svg"
   xmlns="http://www.w3.org/2000/svg"
   xmlns:sodipodi="http://sodipodi.sourceforge.net/DTD/sodipodi-0.dtd"
   xmlns:inkscape="http://www.inkscape.org/namespaces/inkscape"
   width="512"
   height="512"
   id="svg2"
   version="1.1"
   inkscape:version="0.48.4 r9939"
   sodipodi:docname="BronzeShovel.svg">
  <defs
     id="defs4" />
  <sodipodi:namedview
     id="base"
     pagecolor="#ffffff"
     bordercolor="#666666"
     borderopacity="1.0"
     inkscape:pageopacity="0.0"
     inkscape:pageshadow="2"
     inkscape:zoom="0.98994949"
     inkscape:cx="259.65167"
     inkscape:cy="302.97655"
     inkscape:document-units="px"
     inkscape:current-layer="g4000"
     showgrid="false"
     fit-margin-top="0"
     fit-margin-left="0"
     fit-margin-right="0"
     fit-margin-bottom="0"
     inkscape:window-width="1301"
     inkscape:window-height="744"
     inkscape:window-x="65"
     inkscape:window-y="24"
     inkscape:window-maximized="1">
    <inkscape:grid
       type="xygrid"
       id="grid3096"
       empspacing="8"
       visible="true"
       enabled="true"
       snapvisiblegridlinesonly="true" />
  </sodipodi:namedview>
  <metadata
     id="metadata7">
    <rdf:RDF>
      <cc:Work
         rdf:about="">
        <dc:format>image/svg+xml</dc:format>
        <dc:type
           rdf:resource="http://purl.org/dc/dcmitype/StillImage" />
        <dc:title />
      </cc:Work>
    </rdf:RDF>
  </metadata>
  <g
     inkscape:label="Layer 1"
     inkscape:groupmode="layer"
     id="layer1"
     transform="translate(-236,-121.50504)">
    <path
       style="fill:#922500;fill-opacity:1;stroke:none"
       d="M 60.46875 10.8125 A 2.4368458 2.4368458 0 0 0 59 11.53125 L 11.0625 59.46875 A 2.4368458 2.4368458 0 0 0 10.34375 61.1875 L 10.34375 120.5625 A 2.4368458 2.4368458 0 0 0 11.0625 122.28125 L 53.875 165.1875 A 2.4368458 2.4368458 0 0 0 56.21875 165.8125 L 73.15625 161.34375 L 66.5 175.59375 A 2.4368458 2.4368458 0 0 0 67 178.34375 L 134.96875 246.4375 A 2.4368458 2.4368458 0 0 0 138.25 246.59375 L 262.28125 142.09375 A 2.4368458 2.4368458 0 0 0 262.4375 138.5 L 160.875 36.96875 A 2.4368458 2.4368458 0 0 0 158.90625 36.25 L 125.46875 39.53125 L 143.625 23.3125 A 2.4368458 2.4368458 0 0 0 143.71875 19.78125 L 135.46875 11.53125 A 2.4368458 2.4368458 0 0 0 133.75 10.8125 L 60.71875 10.8125 A 2.4368458 2.4368458 0 0 0 60.46875 10.8125 z M 60.71875 13.25 L 133.75 13.25 L 142 21.5 L 118.25 42.71875 L 159.15625 38.65625 L 260.71875 140.21875 L 136.6875 244.6875 L 68.71875 176.625 L 77.5625 157.65625 L 55.59375 163.46875 L 12.78125 120.5625 L 12.78125 61.1875 L 60.71875 13.25 z "
       transform="translate(236,121.50504)"
       id="path3807" />
    <path
       style="fill:#ff5e28;fill-opacity:1;stroke:none"
       d="M 260.71429,140.21428 159.17128,38.671277 118.2601,42.711887 141.99869,21.498684 133.75,13.249998 l -73.035714,0 -47.946429,47.946429 0,59.375003 42.819241,42.89638 21.965358,-5.80157 -8.845203,18.94536 67.966857,68.08929 z"
       id="path3001"
       inkscape:connector-curvature="0"
       transform="translate(236,121.50504)"
       sodipodi:nodetypes="ccccccccccccc" />
    <path
       style="fill:#000000;fill-opacity:0.11764706;stroke:none"
       d="m 12.78125,85.09375 0,35.46875 42.8125,42.90625 21.96875,-5.8125 -8.84375,18.96875 67.96875,68.0625 32.96875,-27.78125 -2.96875,-6.9375 3.53125,-37.875 -84.875,-3.03125 18.68908,-23.74222 L 45.96875,124.09375 56.0625,96.3125 z"
       transform="translate(236,121.50504)"
       id="path3001-94"
       inkscape:connector-curvature="0"
       sodipodi:nodetypes="cccccccccccccc" />
    <path
       style="fill:#000000;fill-opacity:0.07843138;stroke:none"
       d="M 60.71875 13.25 L 12.78125 61.1875 L 12.78125 120.5625 L 55.59375 163.46875 L 77.5625 157.65625 L 68.71875 176.625 L 136.6875 244.6875 L 260.71875 140.21875 L 159.15625 38.65625 L 118.25 42.71875 L 142 21.5 L 133.75 13.25 L 60.71875 13.25 z M 63.84375 20.75 L 130.625 20.75 L 131.0625 21.1875 L 113.25 37.125 A 7.50075 7.50075 0 0 0 119 50.1875 L 156.34375 46.5 L 249.625 139.75 L 137.125 234.53125 L 77.75 175.03125 L 84.375 160.8125 A 7.50075 7.50075 0 0 0 75.65625 150.40625 L 57.875 155.125 L 20.28125 117.4375 L 20.28125 64.3125 L 63.84375 20.75 z "
       transform="translate(236,121.50504)"
       id="path3001-8" />
    <path
       style="fill:#ffffff;fill-opacity:0.19607843;stroke:none"
       d="M 60.71875 13.25 L 12.78125 61.1875 L 12.78125 120.5625 L 19.84375 127.625 L 19.84375 72.3125 L 67.78125 24.375 L 138.78125 24.375 L 142 21.5 L 133.75 13.25 L 60.71875 13.25 z M 159.15625 38.65625 L 140.21875 40.53125 L 125.34375 53.8125 L 166.25 49.78125 L 258.53125 142.0625 L 260.71875 140.21875 L 159.15625 38.65625 z M 84.625 168.78125 L 70.65625 172.46875 L 68.71875 176.625 L 77.0625 184.96875 L 84.625 168.78125 z "
       transform="translate(236,121.50504)"
       id="path3001-9" />
    <g
       id="g4000"
       transform="matrix(-1,0,0,1,1029.3932,12.121831)">
      <path
         sodipodi:nodetypes="ccccc"
         transform="translate(236,121.50504)"
         inkscape:connector-curvature="0"
         id="path3034"
         d="M 408.57165,100.57098 60.714285,449.14286 95.382524,483.34191 442.81475,135.98136 z"
         style="fill:#5a4829;fill-opacity:1;stroke:none" />
      <path
         id="path3034-6"
         transform="translate(236,121.50504)"
         d="M 408.56207,100.56204 60.71875,449.15625 95.375,483.34375 442.81207,135.96829 z m -0.0937,11.1875 23.3125,24.15625 L 95.3125,472.28125 71.84375,449.125 408.46832,111.74954 z"
         style="fill:#000000;fill-opacity:0.2745098;stroke:none"
         inkscape:connector-curvature="0"
         sodipodi:nodetypes="ccccccccccc" />
      <path
         id="path3034-2"
         d="m 644.5537,222.28671 -347.21888,347.93708 14.84375,14.625 347.25013,-347.18708 z"
         style="fill:#000000;fill-opacity:0.19607843;stroke:none"
         inkscape:connector-curvature="0"
         sodipodi:nodetypes="ccccc" />
    </g>
    <path
       style="fill:#d3cec0;fill-opacity:1;stroke:#b4ad87;stroke-width:5;stroke-linecap:butt;stroke-linejoin:miter;stroke-miterlimit:4;stroke-opacity:1;stroke-dasharray:none"
       d="M 309.38224,302.91403 325.7635,319.18788 456.08676,308.4609 439.59102,291.99579 z"
       id="path4005-4"
       inkscape:connector-curvature="0"
       sodipodi:nodetypes="ccccc" />
    <path
       style="fill:#000000;fill-opacity:0.11764706;stroke:none;stroke-width:5;stroke-linecap:butt;stroke-linejoin:miter;stroke-miterlimit:4;stroke-opacity:1;stroke-dasharray:none"
       d="M 160.875 171.5625 L 73.1875 178.9375 L 67.78125 179.375 L 71.625 183.1875 L 88 199.46875 L 88.8125 200.28125 L 89.96875 200.1875 L 182.03125 192.59375 L 160.875 171.5625 z "
       transform="translate(236,121.50504)"
       id="path4005-4-2" />
    <path
       style="fill:#d3cec0;fill-opacity:1;stroke:#b4ad87;stroke-width:5;stroke-linecap:butt;stroke-linejoin:miter;stroke-miterlimit:4;stroke-opacity:1;stroke-dasharray:none"
       d="m 449.58203,214.56747 15.3974,15.30458 -43.79678,108.82907 -15.97117,-17.09863 z"
       id="path4005"
       inkscape:connector-curvature="0"
       sodipodi:nodetypes="ccccc" />
    <path
       style="color:#000000;fill:#000000;stroke:none;stroke-width:5;marker:none;visibility:visible;display:inline;overflow:visible;enable-background:accumulate;fill-opacity:0.11764706"
       d="M 173.25 183.875 L 166.90625 199.15625 L 166.28125 200.625 L 167.375 201.8125 L 183.34375 218.90625 L 186.03125 221.78125 L 187.5 218.125 L 193.28125 203.78125 L 173.25 183.875 z "
       transform="translate(236,121.50504)"
       id="rect3025" />
    <path
       style="fill:#d3cec0;fill-opacity:1;stroke:#b4ad87;stroke-width:5;stroke-linecap:butt;stroke-linejoin:miter;stroke-miterlimit:4;stroke-opacity:1;stroke-dasharray:none"
       d="m 451.75155,303.73267 -35.86041,29.29442 15.24637,14.7413 34.59773,-29.54696 z"
       id="path4036"
       inkscape:connector-curvature="0"
       sodipodi:nodetypes="ccccc" />
    <path
       style="fill:#000000;fill-opacity:0.11764706;stroke:none;stroke-width:5;stroke-linecap:butt;stroke-linejoin:miter;stroke-miterlimit:4;stroke-opacity:1;stroke-dasharray:none"
       d="M 189.4375 200.5 L 178.3125 209.59375 L 176.125 211.375 L 178.15625 213.3125 L 193.40625 228.0625 L 195.03125 229.65625 L 196.75 228.15625 L 207.625 218.875 L 189.4375 200.5 z "
       transform="translate(236,121.50504)"
       id="path4036-1" />
  </g>
</svg>
