<?xml version="1.0" encoding="UTF-8" standalone="no"?>
<!-- Created with Inkscape (http://www.inkscape.org/) -->

<svg
   xmlns:dc="http://purl.org/dc/elements/1.1/"
   xmlns:cc="http://creativecommons.org/ns#"
   xmlns:rdf="http://www.w3.org/1999/02/22-rdf-syntax-ns#"
   xmlns:svg="http://www.w3.org/2000/svg"
   xmlns="http://www.w3.org/2000/svg"
   xmlns:sodipodi="http://sodipodi.sourceforge.net/DTD/sodipodi-0.dtd"
   xmlns:inkscape="http://www.inkscape.org/namespaces/inkscape"
   width="512"
   height="512"
   id="svg2"
   version="1.1"
   inkscape:version="0.48.4 r9939"
   sodipodi:docname="CompressedCarbon_alt.svg">
  <defs
     id="defs4" />
  <sodipodi:namedview
     id="base"
     pagecolor="#ffffff"
     bordercolor="#666666"
     borderopacity="1.0"
     inkscape:pageopacity="0.0"
     inkscape:pageshadow="2"
     inkscape:zoom="0.9899495"
     inkscape:cx="365.3515"
     inkscape:cy="184.62626"
     inkscape:document-units="px"
     inkscape:current-layer="layer1"
     showgrid="false"
     fit-margin-top="0"
     fit-margin-left="0"
     fit-margin-right="0"
     fit-margin-bottom="0"
     inkscape:window-width="1301"
     inkscape:window-height="744"
     inkscape:window-x="65"
     inkscape:window-y="24"
     inkscape:window-maximized="1" />
  <metadata
     id="metadata7">
    <rdf:RDF>
      <cc:Work
         rdf:about="">
        <dc:format>image/svg+xml</dc:format>
        <dc:type
           rdf:resource="http://purl.org/dc/dcmitype/StillImage" />
        <dc:title></dc:title>
      </cc:Work>
    </rdf:RDF>
  </metadata>
  <g
     inkscape:label="Layer 1"
     inkscape:groupmode="layer"
     id="layer1"
     transform="translate(70.285728,-110.6479)">
    <path
       style="fill:#68e5e5;stroke:#000000;stroke-width:4;stroke-linecap:butt;stroke-linejoin:miter;stroke-opacity:1;fill-opacity:1;stroke-miterlimit:4;stroke-dasharray:none"
       d="M 438.12303,57.831826 474.3279,64.040674 486.8502,105.16106 112.5,481.28572 85.357143,497.17857 52.678572,467 60.714286,435.03571 z"
       id="path2996"
       inkscape:connector-curvature="0"
       sodipodi:nodetypes="cccccccc"
       transform="translate(-70.285728,110.6479)" />
    <path
       style="fill:#000000;fill-opacity:0.07843138;stroke:none;stroke-width:4;stroke-linecap:butt;stroke-linejoin:miter;stroke-miterlimit:4;stroke-opacity:1;stroke-dasharray:none"
       d="M 438.125 57.84375 L 60.71875 435.03125 L 52.6875 467 L 85.34375 497.1875 L 112.5 481.28125 L 486.84375 105.15625 L 474.3125 64.03125 L 438.125 57.84375 z M 443.96875 76.21875 L 461 79.15625 L 467.4375 100.34375 L 101.9375 467.59375 L 87.625 475.9375 L 71.78125 461.3125 L 76.1875 443.8125 L 443.96875 76.21875 z "
       transform="translate(-70.285728,110.6479)"
       id="path2996-8" />
    <path
       style="fill:#000000;stroke:none;stroke-width:1px;stroke-linecap:butt;stroke-linejoin:miter;stroke-opacity:1;fill-opacity:0.15686275"
       d="M 474.5 64.625 L 474.28125 64.6875 L 81.8125 463.5 L 66.25 479.53125 L 85.34375 497.1875 L 112.5 481.28125 L 486.84375 105.15625 L 474.5 64.625 z "
       transform="translate(-70.285728,110.6479)"
       id="path3794" />
    <path
       style="fill:#51b2b2;stroke:none;stroke-width:1px;stroke-linecap:butt;stroke-linejoin:miter;stroke-opacity:1;fill-opacity:1"
       d="M 52.780471,467.30075 85.35789,496.59517 113.8947,481.19035 105.05586,438.5114 60.609153,434.72333 z"
       id="path3815"
       inkscape:connector-curvature="0"
       transform="translate(-70.285728,110.6479)" />
    <path
       sodipodi:type="inkscape:offset"
       inkscape:radius="-10.713995"
       inkscape:original="M -9.6875 545.375 L -17.5 577.9375 L 15.0625 607.25 L 43.59375 591.84375 L 34.78125 549.15625 L -9.6875 545.375 z "
       style="fill:#68e5e5;fill-opacity:1;stroke:none"
       id="path3835"
       d="m -1.4375,556.84375 -4.15625,17.375 22.1875,20 14.875,-8.03125 -5.5625,-27.03125 -27.34375,-2.3125 z" />
    <path
       style="fill:#000000;fill-opacity:0.11764706;stroke:none"
       d="M 85.46875 436.84375 L 91.46875 465.78125 L 66.21875 479.40625 L 85.34375 496.59375 L 113.90625 481.1875 L 105.0625 438.5 L 85.46875 436.84375 z "
       transform="translate(-70.285728,110.6479)"
       id="path3815-73" />
    <path
       style="font-size:medium;font-style:normal;font-variant:normal;font-weight:normal;font-stretch:normal;text-indent:0;text-align:start;text-decoration:none;line-height:normal;letter-spacing:normal;word-spacing:normal;text-transform:none;direction:ltr;block-progression:tb;writing-mode:lr-tb;text-anchor:start;baseline-shift:baseline;color:#000000;fill:#000000;fill-opacity:1;fill-rule:nonzero;stroke:none;stroke-width:4;marker:none;visibility:visible;display:inline;overflow:visible;enable-background:accumulate;font-family:Sans;-inkscape-font-specification:Sans"
       d="M 367.15625,166.34375 366.4375,167.0625 -11,544.28125 l -0.375,0.375 -0.125,0.53125 -8.03125,31.96875 -0.3125,1.15625 0.875,0.8125 32.6875,30.15625 1.09375,1.03125 1.28125,-0.75 27.125,-15.90625 0.21875,-0.125 0.1875,-0.1875 374.34375,-376.125 0.84375,-0.84375 -0.34375,-1.15625 -12.5,-41.125 -0.375,-1.15625 -1.21875,-0.21875 -36.1875,-6.21875 -1.03125,-0.15625 z m 1.375,4.28125 33.9375,5.8125 L 414.3125,215.25 40.90625,590.40625 15.34375,605.34375 -15.375,577 -7.75,546.6875 368.53125,170.625 z"
       id="path2996-4"
       inkscape:connector-curvature="0" />
  </g>
</svg>
