<?xml version="1.0" encoding="UTF-8" standalone="no"?>
<!-- Created with Inkscape (http://www.inkscape.org/) -->

<svg
   xmlns:dc="http://purl.org/dc/elements/1.1/"
   xmlns:cc="http://creativecommons.org/ns#"
   xmlns:rdf="http://www.w3.org/1999/02/22-rdf-syntax-ns#"
   xmlns:svg="http://www.w3.org/2000/svg"
   xmlns="http://www.w3.org/2000/svg"
   xmlns:sodipodi="http://sodipodi.sourceforge.net/DTD/sodipodi-0.dtd"
   xmlns:inkscape="http://www.inkscape.org/namespaces/inkscape"
   id="svg3039"
   version="1.1"
   inkscape:version="0.48.4 r9939"
   width="512"
   height="512"
   sodipodi:docname="CompressedCarbon.svg"
   inkscape:export-filename="/home/ben/Pictures/weatherorb.png"
   inkscape:export-xdpi="90"
   inkscape:export-ydpi="90">
  <metadata
     id="metadata3045">
    <rdf:RDF>
      <cc:Work
         rdf:about="">
        <dc:format>image/svg+xml</dc:format>
        <dc:type
           rdf:resource="http://purl.org/dc/dcmitype/StillImage" />
        <dc:title></dc:title>
      </cc:Work>
    </rdf:RDF>
  </metadata>
  <defs
     id="defs3043" />
  <sodipodi:namedview
     pagecolor="#ffffff"
     bordercolor="#666666"
     borderopacity="1"
     objecttolerance="10"
     gridtolerance="10"
     guidetolerance="10"
     inkscape:pageopacity="0"
     inkscape:pageshadow="2"
     inkscape:window-width="1301"
     inkscape:window-height="744"
     id="namedview3041"
     showgrid="false"
     inkscape:zoom="1.4142136"
     inkscape:cx="222.13724"
     inkscape:cy="229.96226"
     inkscape:window-x="65"
     inkscape:window-y="24"
     inkscape:window-maximized="1"
     inkscape:current-layer="svg3039"
     fit-margin-top="0"
     fit-margin-left="0"
     fit-margin-right="0"
     fit-margin-bottom="0">
    <inkscape:grid
       type="xygrid"
       id="grid3115"
       empspacing="128"
       visible="true"
       enabled="true"
       snapvisiblegridlinesonly="true"
       originx="0px"
       originy="0px" />
    <inkscape:grid
       type="xygrid"
       id="grid3117"
       empspacing="8"
       visible="true"
       enabled="true"
       snapvisiblegridlinesonly="true"
       dotted="true"
       originx="0px"
       originy="0px" />
  </sodipodi:namedview>
  <g
     id="g3976"
     transform="matrix(0.96863568,0,0,0.96863568,8.2434313,8.1973521)">
    <g
       id="use3101"
       transform="matrix(0.65485637,-0.75575336,0.75575336,0.65485637,-76.918419,301.48634)"
       inkscape:transform-center-x="-69.499998"
       inkscape:transform-center-y="-145.5"
       inkscape:tile-x0="293.58371"
       inkscape:tile-y0="80.999631">
      <path
         d="m 225,48 8,-8 48,0 8,8 0,16 -32,32 -32,-32 z M 77.33487,194.6697 72.198553,184.58911 87.03137,138.9384 l 10.080588,-5.13632 15.216902,4.94427 20.54527,40.32235 -40.322356,20.54527 z m 93.86014,185.76131 -11.17442,1.76986 -38.83281,-28.21369 -1.76986,-11.17442 9.40457,-12.94427 44.69767,-7.07942 7.07941,44.69767 z m 205.67388,-31.86289 -1.76985,11.17441 -38.83282,28.2137 -11.17442,-1.76986 -9.40456,-12.94427 7.07941,-44.69767 44.69768,7.07941 z m 33.25331,-205.45367 10.08059,5.13632 14.83282,45.65071 -5.13632,10.08059 -15.2169,4.94427 -40.32236,-20.54526 20.54527,-40.32235 z"
         style="fill:#12ff00;fill-opacity:1;stroke:none"
         id="path3163"
         inkscape:connector-curvature="0" />
    </g>
    <path
       id="path3163-4"
       d="m 310.28125,81 -10.46875,4.25 -6.21875,14.75 17,41.9375 2.21875,-0.90625 L 297.59375,103.5 303.8125,88.75 314.28125,84.5 355.375,101.875 354.5,99.6875 310.28125,81 z m -161.65625,33.5 -11.3125,0.8125 -31.40625,36.28125 0.78125,11.28125 4,3.46875 -0.78125,-11.25 L 141.3125,118.8125 152.625,118 l -4,-3.5 z m 268.75,129.0625 -34.625,29.15625 29.125,34.59375 1.125,0.0937 -26.25,-31.1875 34.625,-29.15625 14.8125,1.28125 -2.875,-3.40625 -15.9375,-1.375 z m -315.875,63.875 -13.6875,8.28125 -2.75,10.96875 24.8125,41.125 2.21875,0.5625 -23.03125,-38.1875 2.75,-10.96875 13.6875,-8.28125 39.34375,9.78125 0.59375,-2.375 L 101.5,307.4375 z m 179.15625,74.28125 -23.90625,38.4375 3.625,15.5625 3.71875,2.34375 -3.34375,-14.40625 23.90625,-38.4375 34.6875,21.625 -0.28125,-1.1875 -38.40625,-23.9375 z"
       style="fill:#ffffff;fill-opacity:0.35294118;stroke:none"
       inkscape:connector-curvature="0" />
    <path
       id="path3163-45"
       d="m 350.53125,98 3.71875,9.15625 -6.21875,14.75 -39.125,15.875 1.6875,4.15625 41.9375,-17.03125 6.21875,-14.75 L 354.5,99.6875 350.53125,98 z m -201.90625,16.5 -0.96875,0.0625 8.5625,7.4375 3.21875,45.125 -44.1875,3.15625 3.53125,3.0625 L 163.9375,170.125 160.71875,125 148.625,114.5 z m 282.5625,130.25 4.90625,5.84375 L 432,298.40625 423.34375,305.6875 409.5,304.5 l 2.375,2.8125 15.96875,1.375 8.65625,-7.28125 4.09375,-47.8125 -7.28125,-8.65625 -2.125,-0.1875 z M 140.5,317.125 l -10.4375,42.125 -13.71875,8.28125 -7.8125,-1.9375 1.34375,2.21875 10.96875,2.71875 L 134.5625,362.25 145.4375,318.34375 140.5,317.125 z m 174.125,85.75 3.5625,15.34375 -5.96875,9.625 -46.75,10.875 -5.15625,-3.21875 0.0625,0.21875 9.59375,6 46.75,-10.875 5.96875,-9.625 -3.625,-15.5625 -4.4375,-2.78125 z"
       style="fill:#000000;fill-opacity:0.11764706;stroke:none"
       inkscape:connector-curvature="0" />
  </g>
  <g
     id="g3025"
     transform="matrix(0.9211259,0.38926479,-0.38926479,0.9211259,111.24333,-46.544101)"
     inkscape:transform-center-x="-69.499998"
     inkscape:transform-center-y="-145.5"
     inkscape:tile-cx="256.67386"
     inkscape:tile-cy="256.96233"
     inkscape:tile-w="65.180294"
     inkscape:tile-h="60.925405"
     inkscape:tile-x0="293.58371"
     inkscape:tile-y0="80.999631" />
  <path
     sodipodi:type="star"
     style="fill:#4b4b4b;fill-opacity:1;stroke:#000000;stroke-width:1;stroke-miterlimit:4;stroke-opacity:1;stroke-dasharray:none"
     id="path2987"
     sodipodi:sides="5"
     sodipodi:cx="64"
     sodipodi:cy="64"
     sodipodi:r1="46.647614"
     sodipodi:r2="41.441891"
     sodipodi:arg1="-0.5404195"
     sodipodi:arg2="0.087899028"
     inkscape:flatsided="true"
     inkscape:rounded="0"
     inkscape:randomized="0"
     d="M 104,40.000001 99.186035,94.625852 45.746167,106.92782 17.532476,59.904998 53.535324,18.541333 z"
     inkscape:transform-center-x="16.750639"
     inkscape:transform-center-y="2.9382989"
     transform="scale(4,4)" />
  <path
     style="opacity:0.27272728;fill:#ffffff;fill-opacity:1;stroke:none"
     d="M 113.62868,243.75 222.5,110.75 256,256 z"
     id="path2990"
     inkscape:connector-curvature="0"
     sodipodi:nodetypes="cccc" />
  <g
     inkscape:tile-y0="80.999631"
     inkscape:tile-x0="293.58371"
     inkscape:transform-center-y="-145.5"
     inkscape:transform-center-x="-69.499998"
     transform="matrix(-0.08556926,0.99633223,-0.99633223,-0.08556926,500.38513,24.861035)"
     id="use3095" />
  <g
     inkscape:tile-y0="80.999631"
     inkscape:tile-x0="293.58371"
     inkscape:transform-center-y="-145.5"
     inkscape:transform-center-x="-69.499998"
     transform="matrix(-0.9740106,0.22650239,-0.22650239,-0.9740106,552.72624,417.02228)"
     id="use3097" />
  <g
     inkscape:tile-y0="80.999631"
     inkscape:tile-x0="293.58371"
     inkscape:transform-center-y="-145.5"
     inkscape:transform-center-x="-69.499998"
     transform="matrix(-0.5164024,-0.85634605,0.85634605,-0.5164024,195.93302,587.98612)"
     id="use3099" />
  <rect
     style="color:#000000;fill:#1e1e1e;fill-opacity:1;fill-rule:nonzero;stroke:#000000;stroke-width:4;stroke-opacity:1;marker:none;visibility:visible;display:inline;overflow:visible;enable-background:accumulate"
     id="rect3982"
     width="235.5"
     height="108.5"
     x="137.5"
     y="193.00002" />
</svg>
