<?xml version="1.0" encoding="UTF-8" standalone="no"?>
<!-- Created with Inkscape (http://www.inkscape.org/) -->

<svg
   xmlns:dc="http://purl.org/dc/elements/1.1/"
   xmlns:cc="http://creativecommons.org/ns#"
   xmlns:rdf="http://www.w3.org/1999/02/22-rdf-syntax-ns#"
   xmlns:svg="http://www.w3.org/2000/svg"
   xmlns="http://www.w3.org/2000/svg"
   xmlns:sodipodi="http://sodipodi.sourceforge.net/DTD/sodipodi-0.dtd"
   xmlns:inkscape="http://www.inkscape.org/namespaces/inkscape"
   width="512"
   height="512"
   id="svg2"
   version="1.1"
   inkscape:version="0.48.4 r9939"
   sodipodi:docname="EnergyUpgrade.svg">
  <defs
     id="defs4" />
  <sodipodi:namedview
     id="base"
     pagecolor="#ffffff"
     bordercolor="#666666"
     borderopacity="1.0"
     inkscape:pageopacity="0.0"
     inkscape:pageshadow="2"
     inkscape:zoom="0.7"
     inkscape:cx="369.76781"
     inkscape:cy="169.50335"
     inkscape:document-units="px"
     inkscape:current-layer="layer1"
     showgrid="false"
     inkscape:window-width="1301"
     inkscape:window-height="744"
     inkscape:window-x="65"
     inkscape:window-y="24"
     inkscape:window-maximized="1" />
  <metadata
     id="metadata7">
    <rdf:RDF>
      <cc:Work
         rdf:about="">
        <dc:format>image/svg+xml</dc:format>
        <dc:type
           rdf:resource="http://purl.org/dc/dcmitype/StillImage" />
        <dc:title></dc:title>
      </cc:Work>
    </rdf:RDF>
  </metadata>
  <g
     inkscape:label="Layer 1"
     inkscape:groupmode="layer"
     id="layer1"
     transform="translate(0,-540.36217)">
    <path
       style="fill:#888888;fill-opacity:1;stroke:#000000;stroke-width:4;stroke-miterlimit:4;stroke-opacity:1;stroke-dasharray:none"
       d="M 81.82236,991.75302 59.599,971.54997 l 1.01015,-337.39095 14.14214,-31.31473 360.62451,0 17.1725,11.11167 0,362.64477 -17.1725,11.11168 z"
       id="path2996"
       inkscape:connector-curvature="0" />
    <path
       style="fill:#000000;fill-opacity:0.30196078;stroke:none"
       d="m 412.9685,604.83092 20.375,134.375 -7.0625,83.84375 0,136.375 -19.1875,14.15625 -239.40625,-9.09375 -105.3125,6.875 20.1875,18.375 352.18755,-4.03125 15.8125,-10.21875 0,-360.46875 -15.8125,-10.1875 -21.7813,0 z"
       id="path2996-5"
       inkscape:connector-curvature="0" />
    <path
       style="fill:#ffffff;fill-opacity:0.30196078;stroke:none"
       d="m 76.031,604.83092 -13.40625,29.71875 -1.03125,336.09375 20.09375,18.3125 13.78125,-179.03125 -11.375,-165.65625 19.9375,-23.25 143.46875,8.59375 167.69645,-9.41518 35.3661,27.35268 0,-32.53125 -15.8125,-10.1875 z"
       id="path3787"
       inkscape:connector-curvature="0"
       sodipodi:nodetypes="ccccccccccccc" />
    <path
       style="fill:#d5d400;fill-opacity:1;stroke:#464905;stroke-width:8;stroke-miterlimit:4;stroke-opacity:1;stroke-dasharray:none"
       d="m 243.05141,932.49832 c 4.66627,7.87962 7.32149,6.03914 7.94716,-5.61085 l -2.42722,-104.5253 75,-1.42857 50.17858,-129.28572 c 4.7092,-10.01141 0.86399,-12.32386 -3.7949,-13.90399 l -169.31849,-24.3535 c -5.94131,-2.0348 -15.56557,-2.85107 -7.60091,8.88249 l 44.10715,102.94643 -80.45137,-0.85864 c -10.69227,-0.24793 -10.1168,3.77811 -7.13792,8.71579 z"
       id="path4016"
       inkscape:connector-curvature="0"
       sodipodi:nodetypes="cccccccccccc" />
    <path
       style="fill:#a6ac31;fill-opacity:1;stroke:none"
       d="m 258.15625,677.89342 c -3.78717,0.17041 -5.97722,2.53111 -0.84375,10.09375 l 44.125,102.9375 -80.46875,-0.84375 c -10.69227,-0.24793 -10.10388,3.78107 -7.125,8.71875 l 31.40625,53.53125 -0.6875,-29.875 -0.0937,-4.03125 4.03125,-0.0625 72.3125,-1.375 47.71875,-123 -103.59375,-14.875 c -1.85666,-0.63587 -4.07318,-1.16667 -6,-1.21875 -0.26494,-0.007 -0.52877,-0.0114 -0.78125,0 z"
       id="path4016-7"
       inkscape:connector-curvature="0" />
  </g>
</svg>
