<?xml version="1.0" encoding="UTF-8" standalone="no"?>
<!-- Created with Inkscape (http://www.inkscape.org/) -->

<svg
   xmlns:dc="http://purl.org/dc/elements/1.1/"
   xmlns:cc="http://creativecommons.org/ns#"
   xmlns:rdf="http://www.w3.org/1999/02/22-rdf-syntax-ns#"
   xmlns:svg="http://www.w3.org/2000/svg"
   xmlns="http://www.w3.org/2000/svg"
   xmlns:sodipodi="http://sodipodi.sourceforge.net/DTD/sodipodi-0.dtd"
   xmlns:inkscape="http://www.inkscape.org/namespaces/inkscape"
   width="512"
   height="512"
   id="svg2"
   version="1.1"
   inkscape:version="0.48.4 r9939"
   sodipodi:docname="EnergyTablet.svg">
  <defs
     id="defs4" />
  <sodipodi:namedview
     id="base"
     pagecolor="#ffffff"
     bordercolor="#666666"
     borderopacity="1.0"
     inkscape:pageopacity="0.0"
     inkscape:pageshadow="2"
     inkscape:zoom="0.98994949"
     inkscape:cx="149.54694"
     inkscape:cy="244.68792"
     inkscape:document-units="px"
     inkscape:current-layer="layer1"
     showgrid="true"
     fit-margin-top="0"
     fit-margin-left="0"
     fit-margin-right="0"
     fit-margin-bottom="0"
     inkscape:window-width="1301"
     inkscape:window-height="744"
     inkscape:window-x="65"
     inkscape:window-y="24"
     inkscape:window-maximized="1">
    <inkscape:grid
       type="xygrid"
       id="grid2996"
       empspacing="16"
       visible="true"
       enabled="true"
       snapvisiblegridlinesonly="true" />
  </sodipodi:namedview>
  <metadata
     id="metadata7">
    <rdf:RDF>
      <cc:Work
         rdf:about="">
        <dc:format>image/svg+xml</dc:format>
        <dc:type
           rdf:resource="http://purl.org/dc/dcmitype/StillImage" />
        <dc:title />
      </cc:Work>
    </rdf:RDF>
  </metadata>
  <g
     inkscape:label="Layer 1"
     inkscape:groupmode="layer"
     id="layer1"
     transform="translate(0,-540.36218)">
    <rect
       style="color:#000000;fill:#11ff00;fill-opacity:1;fill-rule:nonzero;stroke:none;stroke-width:8;marker:none;visibility:visible;display:inline;overflow:visible;enable-background:accumulate"
       id="rect3003"
       width="208"
       height="336"
       x="152"
       y="628.36218" />
    <path
       style="color:#000000;fill:#000000;fill-opacity:0.25098039;fill-rule:nonzero;stroke:none;stroke-width:8;marker:none;visibility:visible;display:inline;overflow:visible;enable-background:accumulate"
       d="m 285.375,629.11218 -13.46875,9.78125 5.15625,15.8125 16.625,0 5.125,-15.8125 -13.4375,-9.78125 z m 34.03125,12.65625 -10.09375,1.1875 -2,9.96875 8.875,4.96875 7.46875,-6.875 -4.25,-9.25 z m -134.1875,3.75 -3.25,9.15625 7.71875,5.9375 8.03125,-5.5 -2.75,-9.34375 -9.75,-0.25 z m 46.625,0.25 -24.25,16.15625 7.875,28.03125 29.09375,1.1875 10.09375,-27.3125 -22.8125,-18.0625 z m 60.5625,15.0625 -9.03125,2.9375 0,9.5 9.03125,2.90625 5.59375,-7.65625 -5.59375,-7.6875 z m 28.21875,7.46875 -13.75,5.71875 1.1875,14.84375 14.5,3.46875 7.75,-12.71875 -9.6875,-11.3125 z M 177,669.45593 l -6.28125,8.65625 6.28125,8.625 10.15625,-3.28125 0,-10.6875 L 177,669.45593 z m 95.875,6 -5.34375,2.96875 1.15625,6 6.0625,0.75 2.59375,-5.53125 -4.46875,-4.1875 z m 74.375,2.75 -4.125,1.1875 -0.1875,4.25 4.03125,1.5 2.65625,-3.375 -2.375,-3.5625 z m -61.875,11 -10.84375,9.34375 5.53125,13.1875 14.25,-1.1875 3.28125,-13.9375 -12.21875,-7.40625 z m -83.25,2.03125 -11.3125,3.65625 0,11.875 11.3125,3.65625 6.96875,-9.59375 -6.96875,-9.59375 z m 119.34375,6.34375 -11.28125,7.125 3.28125,12.9375 13.3125,0.875 4.9375,-12.40625 -10.25,-8.53125 z m -152.78125,6.78125 -14.875,10.8125 5.6875,17.5 18.40625,0 5.6875,-17.5 -14.90625,-10.8125 z m 175.78125,6.0625 -9.625,6.96875 3.6875,11.3125 11.875,0 3.65625,-11.3125 -9.59375,-6.96875 z m -124.25,2.53125 -22.3125,14.75 7.125,25.78125 26.71875,1.1875 9.375,-25.0625 -20.90625,-16.65625 z m 43.9375,0.5 -10.5625,7.6875 4.03125,12.40625 13.0625,0 4.03125,-12.40625 -10.5625,-7.6875 z m 38.875,4.65625 -18.40625,14.84375 8.4375,22.09375 23.625,-1.1875 6.15625,-22.8125 -19.8125,-12.9375 z m 50.53125,22.125 -14.1875,11.78125 6.8125,17.125 18.40625,-1.1875 4.5625,-17.875 -15.59375,-9.84375 z m -189.40625,5.53125 -6.71875,4.90625 2.5625,7.90625 8.3125,0 2.5625,-7.90625 -6.71875,-4.90625 z m 98.46875,10.125 -16.0625,10.1875 4.75,18.4375 19,1.1875 7,-17.6875 -14.6875,-12.125 z m -82.8125,5.53125 -6.9375,11.65625 8.90625,10.21875 12.46875,-5.34375 -1.21875,-13.5 -13.21875,-3.03125 z m 141.40625,10.625 -22.6875,17.21875 9.375,26.9375 28.5,-0.59375 8.21875,-27.28125 -23.40625,-16.28125 z m -148.90625,18.6875 -11.28125,3.65625 0,11.875 11.28125,3.65625 7,-9.59375 -7,-9.59375 z m 175.8125,28.3125 -13.0625,4.15625 -0.0625,13.71875 13,4.3125 8.125,-11.03125 -8,-11.15625 z m -186.5625,2.28125 -4.40625,13.5625 11.53125,8.375 11.53125,-8.375 -4.40625,-13.5625 -14.25,0 z m 26.84375,22.4375 -12.03125,8.71875 4.59375,14.125 14.84375,0 4.59375,-14.125 -12,-8.71875 z m 148.46875,3.03125 -14.40625,10.46875 5.5,16.9375 17.8125,0 5.5,-16.9375 -14.40625,-10.46875 z m -26.4375,26.28125 -9.90625,12.59375 8.9375,13.34375 15.4375,-4.40625 0.59375,-16.03125 -15.0625,-5.5 z m -153.09375,3.75 -8.34375,12.28125 9.09375,11.71875 13.96875,-5 -0.4375,-14.84375 -14.28125,-4.15625 z m 94.0625,2.21875 -9.5,1.1875 -1.78125,9.40625 8.375,4.625 7,-6.53125 -4.09375,-8.6875 z m -40.78125,2.09375 -15.875,11.5 6.0625,18.65625 19.59375,0 6.0625,-18.65625 -15.84375,-11.5 z m 55.84375,9.03125 -7.375,7.125 4.5,9.21875 10.15625,-1.4375 1.78125,-10.09375 -9.0625,-4.8125 z m 64.5625,0.71875 -4.34375,5.78125 4.15625,5.9375 6.9375,-2.09375 0.125,-7.25 -6.875,-2.375 z m -43.125,12.46875 -19.78125,12.1875 5.4375,22.5625 23.15625,1.78125 8.875,-21.46875 -17.6875,-15.0625 z m -111.84375,0.96875 -7.375,7.125 4.5,9.1875 10.15625,-1.40625 1.78125,-10.09375 -9.0625,-4.8125 z m 70.28125,7.125 -9.75,0.6875 -2.375,9.5 8.28125,5.1875 7.5,-6.28125 -3.65625,-9.09375 z m 71,2.09375 -10.09375,7.125 3.65625,11.8125 12.34375,0.1875 3.96875,-11.71875 -9.875,-7.40625 z m 30.21875,2.03125 -7.65625,5.46875 2.84375,8.9375 9.375,0.0625 2.96875,-8.90625 -7.53125,-5.5625 z M 233.5,925.79968 l -11.0625,0.46875 -2.96875,10.6875 9.21875,6.125 8.6875,-6.875 -3.875,-10.40625 z m -41.5625,0.28125 -13.625,21.65625 16.375,19.65625 23.75,-9.5 -1.71875,-25.53125 -24.78125,-6.28125 z m 66.15625,16.6875 -16.40625,9.71875 4.15625,18.625 19,1.78125 7.5625,-17.53125 -14.3125,-12.59375 z m 30.3125,3.53125 -13.1875,8.125 3.625,15.03125 15.4375,1.1875 5.90625,-14.3125 -11.78125,-10.03125 z"
       id="path3005"
       inkscape:connector-curvature="0" />
    <path
       style="fill:#032000;fill-opacity:1;stroke:none"
       d="m 160,604.36218 -32,32 0,320 32,32 192,0 32,-32 0,-320 -32,-32 -192,0 z m 32,32 128,0 32,32 0,164 -32,0 0,-30.5 -37.5,-37.5 -53,0 -37.5,37.5 0,30.5 -32,0 0,-164 32,-32 z m -32,224 37.5,0 32,32 53,0 32,-32 37.5,0 0,64 -32,32 -128,0 -32,-32 0,-64 z"
       id="path2998"
       inkscape:connector-curvature="0" />
    <path
       sodipodi:type="star"
       style="color:#000000;fill:#0035ff;fill-opacity:1;fill-rule:nonzero;stroke:none;stroke-width:8;marker:none;visibility:visible;display:inline;overflow:visible;enable-background:accumulate"
       id="path3868"
       sodipodi:sides="5"
       sodipodi:cx="256"
       sodipodi:cy="288"
       sodipodi:r1="48"
       sodipodi:r2="38.832817"
       sodipodi:arg1="1.5707963"
       sodipodi:arg2="2.1991149"
       inkscape:flatsided="true"
       inkscape:rounded="0"
       inkscape:randomized="0"
       d="m 256,336 -45.65071,-33.16718 17.43702,-53.66563 56.42738,-1e-5 17.43702,53.66563 z"
       transform="translate(-2.9e-4,540.36218)"
       inkscape:transform-center-y="4.5835921" />
    <path
       style="color:#000000;fill:#000000;fill-opacity:0.19607843;fill-rule:nonzero;stroke:none;stroke-width:8;marker:none;visibility:visible;display:inline;overflow:visible;enable-background:accumulate"
       d="m 227.78125,789.51843 -17.4375,53.6875 45.65625,33.15625 45.65625,-33.15625 -17.4375,-53.6875 -56.4375,0 z m 7.90625,10.875 40.625,0 12.5625,38.625 -32.875,23.875 -32.875,-23.875 12.5625,-38.625 z"
       id="path3868-4"
       inkscape:connector-curvature="0" />
    <path
       style="color:#000000;fill:#000000;fill-opacity:0.19607843;fill-rule:nonzero;stroke:none;stroke-width:8;marker:none;visibility:visible;display:inline;overflow:visible;enable-background:accumulate"
       d="m 241.84375,808.36218 -15.1875,46.6875 29.34375,21.3125 45.65625,-33.15625 -11.3125,-34.84375 -48.5,0 z"
       id="path3868-1"
       inkscape:connector-curvature="0" />
  </g>
</svg>
