<?xml version="1.0" encoding="UTF-8" standalone="no"?>
<!-- Created with Inkscape (http://www.inkscape.org/) -->

<svg
   xmlns:dc="http://purl.org/dc/elements/1.1/"
   xmlns:cc="http://creativecommons.org/ns#"
   xmlns:rdf="http://www.w3.org/1999/02/22-rdf-syntax-ns#"
   xmlns:svg="http://www.w3.org/2000/svg"
   xmlns="http://www.w3.org/2000/svg"
   xmlns:sodipodi="http://sodipodi.sourceforge.net/DTD/sodipodi-0.dtd"
   xmlns:inkscape="http://www.inkscape.org/namespaces/inkscape"
   width="512"
   height="512"
   id="svg2"
   version="1.1"
   inkscape:version="0.48.4 r9939"
   sodipodi:docname="EnrichedIron.svg">
  <defs
     id="defs4" />
  <sodipodi:namedview
     id="base"
     pagecolor="#ffffff"
     bordercolor="#666666"
     borderopacity="1.0"
     inkscape:pageopacity="0.0"
     inkscape:pageshadow="2"
     inkscape:zoom="1"
     inkscape:cx="134.24149"
     inkscape:cy="263.79979"
     inkscape:document-units="px"
     inkscape:current-layer="layer1"
     showgrid="false"
     fit-margin-top="0"
     fit-margin-left="0"
     fit-margin-right="0"
     fit-margin-bottom="0"
     inkscape:window-width="1301"
     inkscape:window-height="744"
     inkscape:window-x="65"
     inkscape:window-y="24"
     inkscape:window-maximized="1">
    <inkscape:grid
       type="xygrid"
       id="grid3007"
       empspacing="16"
       visible="true"
       enabled="true"
       snapvisiblegridlinesonly="true" />
  </sodipodi:namedview>
  <metadata
     id="metadata7">
    <rdf:RDF>
      <cc:Work
         rdf:about="">
        <dc:format>image/svg+xml</dc:format>
        <dc:type
           rdf:resource="http://purl.org/dc/dcmitype/StillImage" />
      </cc:Work>
    </rdf:RDF>
  </metadata>
  <g
     inkscape:label="Layer 1"
     inkscape:groupmode="layer"
     id="layer1"
     transform="translate(0,-540.36218)">
    <path
       style="fill:#4d4d4d;fill-opacity:1;stroke:#303030;stroke-width:4;stroke-linecap:butt;stroke-linejoin:miter;stroke-miterlimit:4;stroke-opacity:1;stroke-dasharray:none"
       d="m 124.88,783.15653 19.44544,-20.32932 0.12626,-19.31917 23.73859,-20.96067 3.78807,-11.74302 14.77348,-18.05648 6.9448,-0.25253 23.10724,7.95495 26.76904,-20.32932 85.23162,44.0679 18.68783,0.63135 12.6269,3.91434 4.54569,10.98541 7.57614,8.33376 3.91434,18.81409 15.5311,35.73414 -7.82868,20.07678 44.69924,57.19989 -74.87755,13.13199 -9.0368,11.85156 -87.14286,-8.21429 -30.35714,-12.14285 -20.35715,0.71428 -65,-69.64285 z"
       id="path3009"
       inkscape:connector-curvature="0" />
    <path
       style="fill:#000000;fill-opacity:0.04705882;stroke:none"
       d="m 243.75,682.39343 -25.78125,19.5625 a 1.9350788,1.9350788 0 0 1 -1.78125,0.3125 l -22.8125,-7.84375 -5.6875,0.21875 -13.96875,17.09375 -3.6875,11.40625 a 1.9350788,1.9350788 0 0 1 -0.5625,0.84375 l -23.09375,20.375 -0.125,18.4375 a 1.9350788,1.9350788 0 0 1 -0.53125,1.34375 l -18.46875,19.34375 16.15625,31 64.15625,68.75 19.53125,-0.6875 a 1.9350788,1.9350788 0 0 1 0.78125,0.15625 l 30,12.03125 85.90625,8.09375 8.375,-11 a 1.9350788,1.9350788 0 0 1 1.1875,-0.75 l 71.68745,-12.5625 -42.7187,-54.65625 a 1.9350788,1.9350788 0 0 1 -0.28125,-1.90625 l 7.5625,-19.34375 -15.21875,-34.96875 a 1.9350788,1.9350788 0 0 1 -0.125,-0.375 l -3.8125,-18.3125 -7.21875,-7.9375 a 1.9350788,1.9350788 0 0 1 -0.34375,-0.5625 l -4.1875,-10.15625 -11.46875,-3.5625 -18.46875,-0.625 a 1.9350788,1.9350788 0 0 1 -0.8125,-0.21875 l -84.1875,-43.5 z m 1.1875,13.625 77.6875,40.15625 c 1.76097,0.88402 3.75037,1.30805 5.71875,1.21875 l 0,0.28125 16.875,0.5625 4.875,1.53125 2.09375,5.09375 c 0.59819,1.4271 1.486,2.73207 2.59375,3.8125 l -0.125,0.125 5.0625,5.5625 3.1875,15.28125 0.0937,-0.0312 c 0.14301,0.91107 0.3954,1.80492 0.75,2.65625 l 13.3125,30.59375 -5.8125,14.875 c -1.34106,4.10944 -0.50509,9.40319 1.9375,13.25 l 30.8437,39.46875 -54.2812,9.65625 c -1.59056,0.43236 -4.78433,2.10181 -6.8125,4.71875 l -4.46875,5.875 -77.84375,-7.34375 -28.4375,-11.40625 c -1.73948,-0.67835 -3.64461,-0.92735 -5.5,-0.71875 l 0,-0.25 -14.25,0.5 -59.46875,-63.75 -11.625,-22.25 13.78125,-14.625 c 1.03004,-1.30868 2.6253,-4.62296 2.6875,-7.96875 l 0.0937,-13.25 19.21875,-16.96875 c 1.76715,-1.60236 3.01968,-3.7638 3.53125,-6.09375 l 0.375,0.125 3,-9.3125 8.90625,-10.90625 21.59375,7.21875 c 2.08461,0.47667 6.99462,0.0371 10.4375,-2.53125 l 19.96875,-15.15625 z"
       id="path3797-2"
       inkscape:connector-curvature="0" />
    <path
       style="fill:#000000;fill-opacity:0.09803922;stroke:none"
       d="m 330.46875,726.17468 15.25,28.6875 L 315,822.70593 l -98.9375,7.5 21.78125,12.5 76.8125,-7.84375 24.28125,-0.71875 14.625,4.28125 -26.0625,24.28125 -17.5,-13.90625 -8.21875,26.0625 -54.28125,-6.0625 -53.5625,-1.09375 0.625,1.59375 13,13.9375 19.53125,-0.6875 a 1.9350788,1.9350788 0 0 1 0.78125,0.15625 l 30,12.03125 85.90625,8.09375 8.375,-11 a 1.9350788,1.9350788 0 0 1 1.1875,-0.75 l 71.68745,-12.5625 -42.7187,-54.65625 a 1.9350788,1.9350788 0 0 1 -0.28125,-1.90625 l 7.5625,-19.34375 -15.21875,-34.96875 a 1.9350788,1.9350788 0 0 1 -0.125,-0.375 l -3.8125,-18.3125 -7.21875,-7.9375 a 1.9350788,1.9350788 0 0 1 -0.34375,-0.5625 l -4.1875,-10.15625 -11.46875,-3.5625 -16.75,-0.5625 z"
       id="path3839"
       inkscape:connector-curvature="0" />
    <path
       style="fill:#000000;fill-opacity:0.09803922;stroke:none"
       d="m 303,713.01843 6.625,25.6875 -8.09375,16.15625 44.9375,54.5625 -91.40625,16.65625 -96.6875,4.4375 49.1875,52.71875 19.53125,-0.6875 a 1.9350788,1.9350788 0 0 1 0.78125,0.15625 l 30,12.03125 85.90625,8.09375 8.375,-11 a 1.9350788,1.9350788 0 0 1 1.1875,-0.75 l 71.68745,-12.5625 -42.7187,-54.65625 a 1.9350788,1.9350788 0 0 1 -0.28125,-1.90625 l 7.5625,-19.34375 -15.21875,-34.96875 a 1.9350788,1.9350788 0 0 1 -0.125,-0.375 l -3.8125,-18.3125 -7.21875,-7.9375 a 1.9350788,1.9350788 0 0 1 -0.34375,-0.5625 l -4.1875,-10.15625 -11.46875,-3.5625 -18.46875,-0.625 a 1.9350788,1.9350788 0 0 1 -0.8125,-0.21875 L 303,713.01843 z"
       id="path3860"
       inkscape:connector-curvature="0" />
    <path
       style="fill:#000000;fill-opacity:0.19607843;stroke:none"
       d="m 183.34375,819.23718 -27.3125,8.78125 51.53125,55.21875 15.09375,-0.53125 13.1875,-13.96875 -52.5,-49.5 z"
       id="path3888-4"
       inkscape:connector-curvature="0" />
    <path
       style="font-size:medium;font-style:normal;font-variant:normal;font-weight:normal;font-stretch:normal;text-indent:0;text-align:start;text-decoration:none;line-height:normal;letter-spacing:normal;word-spacing:normal;text-transform:none;direction:ltr;block-progression:tb;writing-mode:lr-tb;text-anchor:start;baseline-shift:baseline;color:#000000;fill:#303030;fill-opacity:1;fill-rule:nonzero;stroke:none;stroke-width:4;marker:none;visibility:visible;display:inline;overflow:visible;enable-background:accumulate;font-family:Sans;-inkscape-font-specification:Sans"
       d="m 243.375,677.75 -1,0.78125 -25.9375,19.6875 -22.09375,-7.625 -0.34375,-0.125 -0.375,0.0312 -6.9375,0.25 -0.90625,0.0312 -0.5625,0.6875 -14.78125,18.0625 -0.25,0.3125 -0.125,0.34375 -3.625,11.25 L 143.125,742 l -0.65625,0.59375 -0.0312,0.90625 -0.125,18.53125 -18.875,19.75 -1,1.03125 0.65625,1.28125 L 140,816.5 l 0.125,0.25 0.1875,0.1875 65,69.65625 0.625,0.65625 0.90625,-0.0312 19.90625,-0.6875 30,11.96875 0.28125,0.125 0.28125,0 87.15625,8.21875 1.09375,0.125 0.65625,-0.90625 8.59375,-11.21875 74.0937,-13 3.2813,-0.5625 -2.0625,-2.625 -44,-56.3125 7.4375,-19 0.28125,-0.78125 -0.3125,-0.75 -15.46875,-35.5625 -3.875,-18.59375 -0.0937,-0.53125 -0.375,-0.40625 -7.375,-8.15625 -4.375,-10.59375 -0.375,-0.875 -0.875,-0.28125 -12.625,-3.90625 -0.25,-0.0625 -0.28125,-0.0312 -18.25,-0.625 L 244.5,678.34375 243.375,677.75 z m 0.40625,4.71875 84.09375,43.5 0.40625,0.21875 0.46875,0 18.4375,0.625 11.46875,3.5625 4.15625,10.125 0.125,0.3125 0.25,0.25 7.21875,7.9375 3.78125,18.28125 0.0625,0.1875 0.0625,0.1875 15.1875,35 -7.5,19.28125 -0.40625,1.0625 0.6875,0.90625 42.62495,54.59375 -71.56245,12.53125 -0.78125,0.15625 -0.46875,0.625 L 343.75,902.78125 258,894.6875 227.875,882.65625 227.5,882.5 l -0.4375,0 -19.4375,0.6875 -64.1875,-68.75 -16.125,-30.9375 18.46875,-19.28125 0.53125,-0.59375 0,-0.78125 0.125,-18.40625 23.0625,-20.40625 0.4375,-0.34375 0.15625,-0.53125 3.65625,-11.375 13.96875,-17.0625 5.71875,-0.21875 22.71875,7.84375 1,0.34375 0.84375,-0.65625 25.78125,-19.5625 z"
       id="path3009-1"
       inkscape:connector-curvature="0" />
    <path
       style="fill:#4d4d4d;fill-opacity:1;stroke:#313030;stroke-width:4;stroke-miterlimit:4;stroke-opacity:1;stroke-dasharray:none"
       d="m 85,882.86218 11,-6.5 -0.5,-40 73,-23.5 52.5,49.5 -25.5,27 17,19.5 -40.5,2.5 -57,-3 z"
       id="path3888"
       inkscape:connector-curvature="0" />
    <path
       style="fill:#040201;fill-opacity:0.04705882;stroke:none"
       d="m 168.5,812.86218 -73,23.5 0.5,40 -11,6.5 30,25.5 57,3 40.5,-2.5 -17,-19.5 25.5,-27 -52.5,-49.5 z m -4.4375,13.0625 41.875,36.75 -28.28125,25.46875 15.03125,11.46875 -18.5625,-0.5 -52.15625,-3.1875 -20.3125,-14.34375 5.46875,-5.28125 -0.34375,-32.1875 57.28125,-18.1875 z"
       id="path3888-5"
       inkscape:connector-curvature="0" />
    <path
       style="fill:#000000;fill-opacity:0.14901961;stroke:none"
       d="m 188.875,832.08093 -24.125,25.53125 17,19.5 -40.5,2.5 -46.59375,-2.4375 -9.65625,5.6875 30,25.5 57,3 40.5,-2.5 -17,-19.5 25.5,-27 -32.125,-30.28125 z"
       id="path3888-1"
       inkscape:connector-curvature="0" />
    <path
       id="path4046"
       style="fill:#ffffff;fill-opacity:0.19607843;stroke:none"
       d="m 114.728,846.06378 11.3137,13.25825 24.21841,-4.41942 3.35876,-20.15254 -21.03643,-0.53033 z m 66.64444,-91.74711 20.85965,29.34493 63.28606,-25.45584 -24.04163,-11.66726 -23.33453,-24.04163 z m 41.01219,43.48707 3.88909,12.02081 7.42462,6.01041 8.13173,-9.19239 0,-8.48528 z m -60.10407,-31.1127 -0.35356,7.07107 12.37437,1.06066 -4.24264,-8.13173 z" />
    <path
       id="path3777"
       style="color:#000000;fill:#f70e0e;fill-opacity:0.50196078;fill-rule:nonzero;stroke:none;stroke-width:4;marker:none;visibility:visible;display:inline;overflow:visible;enable-background:accumulate"
       d="m 326,225 -4.79608,1.60124 -3.00494,-4.06653 2.93892,-4.1145 4.8213,1.52363 z m -171,112 -5.23081,-3.80041 1.99799,-6.14918 6.46564,0 1.99799,6.14918 z m 102.5,-87 1.24811,-10.71788 10.57899,-2.12498 5.29007,9.40457 -7.30955,7.93732 z m -76,9.5 7.1291,-2.81237 4.87774,5.91111 -4.1145,6.46564 -7.42063,-1.91513 z m 90,60 -4.49903,-9.80762 7.93732,-7.30955 9.40457,5.29007 -2.12498,10.57899 z m 22,-72.5 -7.64925,-0.47171 -1.91513,-7.42063 6.46564,-4.1145 5.91111,4.87774 z m -21.5,-44.5 -8.64493,-4.10128 1.22912,-9.48918 9.40457,-1.76335 4.58322,8.39936 z"
       transform="translate(0,540.36218)" />
    <path
       style="color:#000000;fill:#000000;fill-opacity:0.19607843;fill-rule:nonzero;stroke:none;stroke-width:4;marker:none;visibility:visible;display:inline;overflow:visible;enable-background:accumulate"
       d="M 274 187.15625 L 264.59375 188.90625 L 263.34375 198.40625 L 272 202.5 L 278.5625 195.53125 L 274 187.15625 z M 272.78125 189.6875 L 275.78125 195.15625 L 271.46875 199.71875 L 265.8125 197.03125 L 266.625 190.84375 L 272.78125 189.6875 z M 321.125 218.40625 L 318.1875 222.53125 L 321.21875 226.59375 L 326 225 L 325.96875 219.9375 L 321.125 218.40625 z M 322 221.09375 L 323.6875 221.625 L 323.71875 223.375 L 322.09375 223.90625 L 321 222.46875 L 322 221.09375 z M 290.40625 235 L 283.9375 239.09375 L 285.84375 246.53125 L 293.5 247 L 296.3125 239.875 L 290.40625 235 z M 269.3125 237.15625 L 258.75 239.28125 L 257.5 250 L 267.3125 254.5 L 274.625 246.5625 L 269.3125 237.15625 z M 290.25 237.78125 L 293.59375 240.53125 L 291.96875 244.625 L 287.65625 244.3125 L 286.5625 240.125 L 290.25 237.78125 z M 268.125 239.71875 L 271.8125 246.25 L 266.75 251.75 L 259.96875 248.625 L 260.84375 241.1875 L 268.125 239.71875 z M 188.625 256.6875 L 181.5 259.5 L 181.96875 267.15625 L 189.40625 269.0625 L 193.5 262.59375 L 188.625 256.6875 z M 187.9375 259.40625 L 190.6875 262.75 L 188.375 266.4375 L 184.15625 265.3125 L 183.875 261.03125 L 187.9375 259.40625 z M 274.9375 302.375 L 267 309.6875 L 271.5 319.5 L 282.21875 318.25 L 284.34375 307.6875 L 274.9375 302.375 z M 275.25 305.1875 L 281.78125 308.84375 L 280.3125 316.15625 L 272.875 317.03125 L 269.75 310.25 L 275.25 305.1875 z M 151.78125 327.0625 L 149.78125 333.1875 L 155 337 L 160.21875 333.1875 L 158.21875 327.0625 L 151.78125 327.0625 z M 153.4375 329.3125 L 156.5625 329.3125 L 157.53125 332.3125 L 155 334.1875 L 152.46875 332.3125 L 153.4375 329.3125 z "
       id="path3777-0"
       transform="translate(0,540.36218)" />
    <path
       style="color:#000000;fill:#000000;fill-opacity:0.13725491;fill-rule:nonzero;stroke:none;stroke-width:4;marker:none;visibility:visible;display:inline;overflow:visible;enable-background:accumulate"
       d="M 276.09375 191.03125 L 270 197.5 L 263.84375 194.59375 L 263.34375 198.40625 L 272 202.5 L 278.5625 195.53125 L 276.09375 191.03125 z M 324 219.3125 L 324 220 L 319.21875 221.59375 L 319.03125 221.34375 L 318.1875 222.53125 L 321.21875 226.59375 L 326 225 L 325.96875 219.9375 L 324 219.3125 z M 293.3125 237.40625 L 291.5 242 L 284.5625 241.5625 L 285.84375 246.53125 L 293.5 247 L 296.3125 239.875 L 293.3125 237.40625 z M 272.125 242.125 L 265.3125 249.5 L 257.9375 246.125 L 257.5 250 L 267.3125 254.5 L 274.625 246.5625 L 272.125 242.125 z M 190.5625 259.0625 L 187.40625 264.0625 L 181.6875 262.59375 L 181.96875 267.15625 L 189.40625 269.0625 L 193.5 262.59375 L 190.5625 259.0625 z M 281.65625 306.15625 L 280.21875 313.25 L 269.5 314.5 L 267.21875 309.5 L 267 309.6875 L 271.5 319.5 L 282.21875 318.25 L 284.34375 307.6875 L 281.65625 306.15625 z M 157.84375 327.0625 L 158.21875 328.1875 L 153 332 L 150.71875 330.34375 L 149.78125 333.1875 L 155 337 L 160.21875 333.1875 L 158.21875 327.0625 L 157.84375 327.0625 z "
       transform="translate(0,540.36218)"
       id="path3777-8" />
    <path
       style="color:#000000;fill:#000000;fill-opacity:0.13725491;fill-rule:nonzero;stroke:none;stroke-width:4;marker:none;visibility:visible;display:inline;overflow:visible;enable-background:accumulate"
       d="M 273.71875 184.875 A 2.2640728 2.2640728 0 0 0 273.59375 184.90625 L 264.1875 186.6875 A 2.2640728 2.2640728 0 0 0 262.34375 188.625 L 261.09375 198.09375 A 2.2640728 2.2640728 0 0 0 262.375 200.40625 L 271.03125 204.53125 A 2.2640728 2.2640728 0 0 0 273.65625 204.0625 L 280.21875 197.09375 A 2.2640728 2.2640728 0 0 0 280.5625 194.4375 L 276 186.03125 A 2.2640728 2.2640728 0 0 0 273.71875 184.875 z M 274 187.15625 L 278.5625 195.53125 L 272 202.5 L 263.34375 198.40625 L 264.59375 188.90625 L 274 187.15625 z M 320.90625 216.15625 A 2.2640728 2.2640728 0 0 0 319.28125 217.09375 L 316.34375 221.21875 A 2.2640728 2.2640728 0 0 0 316.375 223.875 L 319.40625 227.9375 A 2.2640728 2.2640728 0 0 0 321.9375 228.75 L 326.71875 227.15625 A 2.2640728 2.2640728 0 0 0 328.25 225 L 328.21875 219.9375 A 2.2640728 2.2640728 0 0 0 326.65625 217.78125 L 321.8125 216.25 A 2.2640728 2.2640728 0 0 0 320.90625 216.15625 z M 321.125 218.40625 L 325.96875 219.9375 L 326 225 L 321.21875 226.59375 L 318.1875 222.53125 L 321.125 218.40625 z M 290.15625 232.71875 A 2.2640728 2.2640728 0 0 0 289.1875 233.0625 L 282.71875 237.1875 A 2.2640728 2.2640728 0 0 0 281.75 239.65625 L 283.65625 247.0625 A 2.2640728 2.2640728 0 0 0 285.6875 248.75 L 293.34375 249.25 A 2.2640728 2.2640728 0 0 0 295.59375 247.8125 L 298.40625 240.65625 A 2.2640728 2.2640728 0 0 0 297.75 238.09375 L 291.84375 233.21875 A 2.2640728 2.2640728 0 0 0 290.15625 232.71875 z M 269 234.90625 A 2.2640728 2.2640728 0 0 0 268.875 234.9375 L 258.3125 237.0625 A 2.2640728 2.2640728 0 0 0 256.5 239.03125 L 255.25 249.75 A 2.2640728 2.2640728 0 0 0 256.5625 252.0625 L 266.375 256.5625 A 2.2640728 2.2640728 0 0 0 268.96875 256.03125 L 276.28125 248.09375 A 2.2640728 2.2640728 0 0 0 276.59375 245.4375 L 271.28125 236.03125 A 2.2640728 2.2640728 0 0 0 269 234.90625 z M 290.40625 235 L 296.3125 239.875 L 293.5 247 L 285.84375 246.53125 L 283.9375 239.09375 L 290.40625 235 z M 269.3125 237.15625 L 274.625 246.5625 L 267.3125 254.5 L 257.5 250 L 258.75 239.28125 L 269.3125 237.15625 z M 188.34375 254.4375 A 2.2640728 2.2640728 0 0 0 187.78125 254.59375 L 180.65625 257.40625 A 2.2640728 2.2640728 0 0 0 179.25 259.625 L 179.71875 267.25 A 2.2640728 2.2640728 0 0 0 181.40625 269.3125 L 188.84375 271.25 A 2.2640728 2.2640728 0 0 0 191.3125 270.28125 L 195.40625 263.8125 A 2.2640728 2.2640728 0 0 0 195.25 261.15625 L 190.375 255.25 A 2.2640728 2.2640728 0 0 0 188.34375 254.4375 z M 188.625 256.6875 L 193.5 262.59375 L 189.40625 269.0625 L 181.96875 267.15625 L 181.5 259.5 L 188.625 256.6875 z M 274.75 300.125 A 2.2640728 2.2640728 0 0 0 273.40625 300.71875 L 265.46875 308.03125 A 2.2640728 2.2640728 0 0 0 264.9375 310.625 L 269.4375 320.4375 A 2.2640728 2.2640728 0 0 0 271.75 321.75 L 282.46875 320.5 A 2.2640728 2.2640728 0 0 0 284.4375 318.6875 L 286.5625 308.09375 A 2.2640728 2.2640728 0 0 0 285.4375 305.6875 L 276.03125 300.40625 A 2.2640728 2.2640728 0 0 0 274.75 300.125 z M 274.9375 302.375 L 284.34375 307.6875 L 282.21875 318.25 L 271.5 319.5 L 267 309.6875 L 274.9375 302.375 z M 151.5625 324.78125 A 2.2640728 2.2640728 0 0 0 149.625 326.34375 L 147.625 332.5 A 2.2640728 2.2640728 0 0 0 148.4375 335 L 153.65625 338.8125 A 2.2640728 2.2640728 0 0 0 156.34375 338.8125 L 161.5625 335 A 2.2640728 2.2640728 0 0 0 162.375 332.5 L 160.375 326.34375 A 2.2640728 2.2640728 0 0 0 158.21875 324.78125 L 151.78125 324.78125 A 2.2640728 2.2640728 0 0 0 151.5625 324.78125 z M 151.78125 327.0625 L 158.21875 327.0625 L 160.21875 333.1875 L 155 337 L 149.78125 333.1875 L 151.78125 327.0625 z "
       transform="translate(0,540.36218)"
       id="path3837" />
  </g>
</svg>
