<?xml version="1.0" encoding="UTF-8" standalone="no"?>
<!-- Created with Inkscape (http://www.inkscape.org/) -->

<svg
   xmlns:dc="http://purl.org/dc/elements/1.1/"
   xmlns:cc="http://creativecommons.org/ns#"
   xmlns:rdf="http://www.w3.org/1999/02/22-rdf-syntax-ns#"
   xmlns:svg="http://www.w3.org/2000/svg"
   xmlns="http://www.w3.org/2000/svg"
   xmlns:sodipodi="http://sodipodi.sourceforge.net/DTD/sodipodi-0.dtd"
   xmlns:inkscape="http://www.inkscape.org/namespaces/inkscape"
   width="512"
   height="512"
   id="svg2"
   version="1.1"
   inkscape:version="0.48.4 r9939"
   sodipodi:docname="EnergyUpgrade.svg">
  <defs
     id="defs4" />
  <sodipodi:namedview
     id="base"
     pagecolor="#ffffff"
     bordercolor="#666666"
     borderopacity="1.0"
     inkscape:pageopacity="0.0"
     inkscape:pageshadow="2"
     inkscape:zoom="1.4"
     inkscape:cx="273.0364"
     inkscape:cy="229.32769"
     inkscape:document-units="px"
     inkscape:current-layer="layer1"
     showgrid="false"
     inkscape:window-width="1301"
     inkscape:window-height="744"
     inkscape:window-x="65"
     inkscape:window-y="24"
     inkscape:window-maximized="1" />
  <metadata
     id="metadata7">
    <rdf:RDF>
      <cc:Work
         rdf:about="">
        <dc:format>image/svg+xml</dc:format>
        <dc:type
           rdf:resource="http://purl.org/dc/dcmitype/StillImage" />
        <dc:title></dc:title>
      </cc:Work>
    </rdf:RDF>
  </metadata>
  <g
     inkscape:label="Layer 1"
     inkscape:groupmode="layer"
     id="layer1"
     transform="translate(0,-540.36217)">
    <path
       style="fill:#888888;fill-opacity:1;stroke:#000000;stroke-width:4;stroke-miterlimit:4;stroke-opacity:1;stroke-dasharray:none"
       d="M 81.82236,891.75269 59.599,871.54964 60.60915,734.15853 74.75129,702.8438 l 360.62451,0 17.1725,11.11167 0,162.64493 -17.1725,11.11168 z"
       id="path2996"
       inkscape:connector-curvature="0"
       sodipodi:nodetypes="ccccccccc" />
    <path
       style="fill:#000000;fill-opacity:0.30196078;stroke:none"
       d="m 412.9685,704.83079 20.375,61.95464 -7.0625,45.45795 0,47.18173 -19.1875,14.15625 -239.40625,-9.09375 -105.3125,6.875 20.1875,18.375 352.18755,-4.03125 15.8125,-10.21875 0,-160.46932 -15.8125,-10.1875 z"
       id="path2996-5"
       inkscape:connector-curvature="0"
       sodipodi:nodetypes="ccccccccccccc" />
    <path
       style="fill:#ffffff;fill-opacity:0.30196078;stroke:none"
       d="m 76.031,704.83079 -13.40625,29.71875 -1.03125,136.0935 20.09375,18.3125 13.78125,-81.45205 -11.375,-63.2352 19.9375,-23.25 143.46875,8.59375 167.69645,-9.41518 35.3661,27.35268 0,-32.53125 -15.8125,-10.1875 z"
       id="path3787"
       inkscape:connector-curvature="0"
       sodipodi:nodetypes="ccccccccccccc" />
    <path
       style="fill:#333333;fill-opacity:1;stroke:#000000;stroke-width:0.54926496999999996;stroke-miterlimit:4;stroke-opacity:1;stroke-dasharray:none"
       d="m 106.8872,788.64506 -3.05163,-2.77421 0.13871,-46.32926 1.94194,-4.30002 49.51961,0 2.35806,1.52581 0,49.79702 -2.35806,1.52582 z"
       id="path2996-6"
       inkscape:connector-curvature="0" />
    <path
       style="fill:#000000;fill-opacity:0.30196078;stroke:none"
       d="m 152.35894,735.51437 2.79782,18.45187 -0.9698,11.51311 0,18.7265 -2.63475,1.94388 -32.87437,-1.24872 -14.46112,0.94405 2.77208,2.52319 48.36107,-0.55356 2.17131,-1.4032 0,-49.49821 -2.17131,-1.39891 -2.99093,0 z"
       id="path2996-5-0"
       inkscape:connector-curvature="0" />
    <path
       style="fill:#ffffff;fill-opacity:0.30196078;stroke:none"
       d="m 106.09195,735.51437 -1.8409,4.08087 -0.1416,46.15113 2.75919,2.5146 1.89239,-24.5839 -1.56197,-22.74729 2.73774,-3.1926 19.70059,1.18006 23.02745,-1.29286 4.85634,3.75597 0,-4.46707 -2.17131,-1.39891 z"
       id="path3787-0"
       inkscape:connector-curvature="0"
       sodipodi:nodetypes="ccccccccccccc" />
    <path
       style="fill:#00ff00;fill-opacity:1;stroke:#000000;stroke-width:0.27166682;stroke-miterlimit:4;stroke-opacity:1;stroke-dasharray:none"
       d="m 114.48567,782.01167 -1.50934,-1.37212 0.0686,-9.33116 0.96049,-2.12679 34.49243,0 1.1663,0.75467 0,11.04631 -1.1663,0.75467 z"
       id="path2996-9-3"
       inkscape:connector-curvature="0"
       sodipodi:nodetypes="ccccccccc" />
    <path
       style="fill:#000000;fill-opacity:0.30196078;stroke:none"
       d="m 146.97572,769.31655 1.3838,4.20776 -0.47966,3.08735 0,3.20443 -1.30315,0.96144 -16.25968,-0.61761 -17.15257,0.46692 1.37107,1.24797 33.91951,-0.27379 1.07393,-0.69402 0,-10.89855 -1.07393,-0.6919 z"
       id="path2996-5-2-3"
       inkscape:connector-curvature="0"
       sodipodi:nodetypes="ccccccccccccc" />
    <path
       style="fill:#ffffff;fill-opacity:0.30196078;stroke:none"
       d="m 114.09241,769.31655 -0.91052,2.0184 -0.07,9.24302 1.3647,1.24373 0.93598,-5.53196 -0.77256,-4.29473 1.35409,-1.57906 14.74343,0.58366 16.38949,-0.63945 2.40195,1.85771 0,-2.20942 -1.07393,-0.6919 z"
       id="path3787-4-9"
       inkscape:connector-curvature="0"
       sodipodi:nodetypes="ccccccccccccc" />
    <path
       style="fill:#00ff00;fill-opacity:1;stroke:#000000;stroke-width:0.27166681999999998;stroke-miterlimit:4;stroke-opacity:1;stroke-dasharray:none"
       d="m 119.48524,767.36881 -1.50934,-1.37212 0.0686,-9.33116 0.96049,-2.12679 24.49243,0 1.1663,0.75467 0,11.04631 -1.1663,0.75467 z"
       id="path2996-9-4"
       inkscape:connector-curvature="0"
       sodipodi:nodetypes="ccccccccc" />
    <path
       style="fill:#000000;fill-opacity:0.30196078;stroke:none"
       d="m 141.97559,754.67369 1.3838,4.20776 -0.47966,3.08735 0,3.20443 -1.30315,0.96144 -16.25968,-0.61761 -7.15248,0.46692 1.37107,1.24797 23.91942,-0.27379 1.07393,-0.69402 0,-10.89855 -1.07393,-0.6919 z"
       id="path2996-5-2-2"
       inkscape:connector-curvature="0"
       sodipodi:nodetypes="ccccccccccccc" />
    <path
       style="fill:#ffffff;fill-opacity:0.30196078;stroke:none"
       d="m 119.09191,754.67369 -0.91051,2.0184 -0.07,9.24302 1.3647,1.24373 0.93598,-5.53196 -0.77256,-4.29473 1.35409,-1.57906 9.74393,0.58366 11.38939,-0.63945 2.40195,1.85771 0,-2.20942 -1.07393,-0.6919 z"
       id="path3787-4-6"
       inkscape:connector-curvature="0"
       sodipodi:nodetypes="ccccccccccccc" />
    <path
       style="fill:#00ff00;fill-opacity:1;stroke:#000000;stroke-width:0.27166682;stroke-miterlimit:4;stroke-opacity:1;stroke-dasharray:none"
       d="m 114.48567,752.81524 -1.50934,-1.37212 0.0686,-9.33116 0.96049,-2.12679 34.49243,0 1.1663,0.75467 0,11.04631 -1.1663,0.75467 z"
       id="path2996-9-3-9"
       inkscape:connector-curvature="0"
       sodipodi:nodetypes="ccccccccc" />
    <path
       style="fill:#000000;fill-opacity:0.30196078;stroke:none"
       d="m 146.97572,740.12012 1.3838,4.20776 -0.47966,3.08735 0,3.20443 -1.30315,0.96144 -16.25968,-0.61761 -17.15257,0.46692 1.37107,1.24797 33.91951,-0.27379 1.07393,-0.69402 0,-10.89855 -1.07393,-0.6919 z"
       id="path2996-5-2-3-2"
       inkscape:connector-curvature="0"
       sodipodi:nodetypes="ccccccccccccc" />
    <path
       style="fill:#ffffff;fill-opacity:0.30196078;stroke:none"
       d="m 114.09241,740.12012 -0.91052,2.0184 -0.07,9.24302 1.3647,1.24373 0.93598,-5.53196 -0.77256,-4.29473 1.35409,-1.57906 14.74343,0.58366 16.38949,-0.63945 2.40195,1.85771 0,-2.20942 -1.07393,-0.6919 z"
       id="path3787-4-9-7"
       inkscape:connector-curvature="0"
       sodipodi:nodetypes="ccccccccccccc" />
    <path
       style="fill:#00ff00;fill-opacity:1;stroke:#000000;stroke-width:1.63426423;stroke-miterlimit:4;stroke-opacity:1;stroke-dasharray:none"
       d="m 200.40578,772.57559 -9.07973,-8.25425 0.41268,-16.13386 5.77802,-12.79412 207.49585,0 7.01611,4.53985 0,26.45169 -7.01611,4.53987 z"
       id="path2996-9-3-4"
       inkscape:connector-curvature="0"
       sodipodi:nodetypes="ccccccccc" />
    <path
       style="fill:#000000;fill-opacity:0.30196078;stroke:none"
       d="m 395.85593,736.20518 7.58189,14.24228 -2.14286,8.9202 -7.83934,5.78373 -97.81324,-3.71535 -103.1846,2.80885 8.24795,7.5074 204.04934,-1.64705 6.46043,-4.175 0,-25.56281 -6.46043,-4.16225 z"
       id="path2996-5-2-3-7"
       inkscape:connector-curvature="0"
       sodipodi:nodetypes="cccccccccccc" />
    <path
       style="fill:#ffffff;fill-opacity:0.30196078;stroke:none"
       d="m 198.04005,736.20518 -5.47741,12.14206 -0.4211,15.60365 8.20962,7.48191 5.63056,-11.85049 -4.64748,-11.19292 8.14579,-5.57057 88.69194,3.51113 98.59414,-3.84674 14.44939,11.17541 0,-13.29119 -6.46043,-4.16225 z"
       id="path3787-4-9-6"
       inkscape:connector-curvature="0"
       sodipodi:nodetypes="ccccccccccccc" />
    <path
       style="fill:#0000ff;fill-opacity:1;stroke:#000000;stroke-width:1.63426423000000010;stroke-miterlimit:4;stroke-opacity:1;stroke-dasharray:none"
       d="m 200.40578,816.51723 -9.07973,-8.25425 0.41268,-16.13386 5.77802,-12.79412 207.49585,0 7.01611,4.53985 0,26.45169 -7.01611,4.53987 z"
       id="path2996-9-3-4-1"
       inkscape:connector-curvature="0"
       sodipodi:nodetypes="ccccccccc" />
    <path
       style="fill:#000000;fill-opacity:0.30196078;stroke:none"
       d="m 395.85593,780.14682 7.58189,14.24228 -2.14286,8.9202 -7.83934,5.78373 -97.81324,-3.71535 -103.1846,2.80885 8.24795,7.5074 204.04934,-1.64705 6.46043,-4.175 0,-25.56281 -6.46043,-4.16225 z"
       id="path2996-5-2-3-7-4"
       inkscape:connector-curvature="0"
       sodipodi:nodetypes="cccccccccccc" />
    <path
       style="fill:#ffffff;fill-opacity:0.30196078;stroke:none"
       d="m 198.04005,780.14682 -5.47741,12.14206 -0.4211,15.60365 8.20962,7.48191 5.63056,-11.85049 -4.64748,-11.19292 8.14579,-5.57057 88.69194,3.51113 98.59414,-3.84674 14.44939,11.17541 0,-13.29119 -6.46043,-4.16225 z"
       id="path3787-4-9-6-1"
       inkscape:connector-curvature="0"
       sodipodi:nodetypes="ccccccccccccc" />
    <path
       style="fill:#0000ff;fill-opacity:1;stroke:#000000;stroke-width:1.63426423000000010;stroke-miterlimit:4;stroke-opacity:1;stroke-dasharray:none"
       d="m 200.40578,862.47917 -9.07973,-8.25425 0.41268,-16.13386 5.77802,-12.79412 207.49585,0 7.01611,4.53985 0,26.45169 -7.01611,4.53987 z"
       id="path2996-9-3-4-3"
       inkscape:connector-curvature="0"
       sodipodi:nodetypes="ccccccccc" />
    <path
       style="fill:#000000;fill-opacity:0.30196078;stroke:none"
       d="m 395.85593,826.10876 7.58189,14.24228 -2.14286,8.9202 -7.83934,5.78373 -97.81324,-3.71535 -103.1846,2.80885 8.24795,7.5074 204.04934,-1.64705 6.46043,-4.175 0,-25.56281 -6.46043,-4.16225 z"
       id="path2996-5-2-3-7-40"
       inkscape:connector-curvature="0"
       sodipodi:nodetypes="cccccccccccc" />
    <path
       style="fill:#ffffff;fill-opacity:0.30196078;stroke:none"
       d="m 198.04005,826.10876 -5.47741,12.14206 -0.4211,15.60365 8.20962,7.48191 5.63056,-11.85049 -4.64748,-11.19292 8.14579,-5.57057 88.69194,3.51113 98.59414,-3.84674 14.44939,11.17541 0,-13.29119 -6.46043,-4.16225 z"
       id="path3787-4-9-6-9"
       inkscape:connector-curvature="0"
       sodipodi:nodetypes="ccccccccccccc" />
  </g>
</svg>
