<?xml version="1.0" encoding="UTF-8" standalone="no"?>
<!-- Created with Inkscape (http://www.inkscape.org/) -->

<svg
   xmlns:dc="http://purl.org/dc/elements/1.1/"
   xmlns:cc="http://creativecommons.org/ns#"
   xmlns:rdf="http://www.w3.org/1999/02/22-rdf-syntax-ns#"
   xmlns:svg="http://www.w3.org/2000/svg"
   xmlns="http://www.w3.org/2000/svg"
   xmlns:sodipodi="http://sodipodi.sourceforge.net/DTD/sodipodi-0.dtd"
   xmlns:inkscape="http://www.inkscape.org/namespaces/inkscape"
   width="512"
   height="512"
   id="svg2"
   version="1.1"
   inkscape:version="0.48.4 r9939"
   sodipodi:docname="GlowstonePickaxe.svg">
  <defs
     id="defs4" />
  <sodipodi:namedview
     id="base"
     pagecolor="#ffffff"
     bordercolor="#666666"
     borderopacity="1.0"
     inkscape:pageopacity="0.0"
     inkscape:pageshadow="2"
     inkscape:zoom="0.98994949"
     inkscape:cx="285.21334"
     inkscape:cy="425.15131"
     inkscape:document-units="px"
     inkscape:current-layer="layer1"
     showgrid="false"
     fit-margin-top="0"
     fit-margin-left="0"
     fit-margin-right="0"
     fit-margin-bottom="0"
     inkscape:window-width="1301"
     inkscape:window-height="744"
     inkscape:window-x="65"
     inkscape:window-y="24"
     inkscape:window-maximized="1">
    <inkscape:grid
       type="xygrid"
       id="grid3096"
       empspacing="8"
       visible="true"
       enabled="true"
       snapvisiblegridlinesonly="true" />
  </sodipodi:namedview>
  <metadata
     id="metadata7">
    <rdf:RDF>
      <cc:Work
         rdf:about="">
        <dc:format>image/svg+xml</dc:format>
        <dc:type
           rdf:resource="http://purl.org/dc/dcmitype/StillImage" />
        <dc:title />
      </cc:Work>
    </rdf:RDF>
  </metadata>
  <g
     inkscape:label="Layer 1"
     inkscape:groupmode="layer"
     id="layer1"
     transform="translate(-236,-121.50504)">
    <g
       id="g4000">
      <path
         sodipodi:nodetypes="ccccc"
         transform="translate(236,121.50504)"
         inkscape:connector-curvature="0"
         id="path3034"
         d="M 438.57143,70.571429 60.714285,449.14286 95.382524,483.34191 472.81453,105.98181 z"
         style="fill:#5a4829;fill-opacity:1;stroke:none" />
      <path
         id="path3034-6"
         transform="translate(236,121.50504)"
         d="M 438.5625 70.5625 L 60.71875 449.15625 L 95.375 483.34375 L 472.8125 105.96875 L 438.5625 70.5625 z M 438.46875 81.75 L 461.78125 105.90625 L 95.3125 472.28125 L 71.84375 449.125 L 438.46875 81.75 z "
         style="fill:#000000;fill-opacity:0.27450982;stroke:none" />
      <path
         id="path3034-2"
         transform="translate(236,121.50504)"
         d="M 457.75 90.78125 L 80.53125 468.71875 L 95.375 483.34375 L 472.625 106.15625 L 457.75 90.78125 z "
         style="fill:#000000;fill-opacity:0.19607843;stroke:none" />
    </g>
    <g
       id="g3921">
      <path
         id="path3900"
         d="M 267.71875 45.34375 A 2.6519156 2.6519156 0 0 0 267.25 45.4375 L 151.15625 74.25 A 2.6519156 2.6519156 0 0 0 151.34375 79.4375 L 289.625 102.53125 L 377.53125 164.65625 L 448.59375 258.28125 L 462.21875 391.90625 A 2.6519156 2.6519156 0 0 0 467.3125 392.59375 L 501.84375 303.90625 A 2.6519156 2.6519156 0 0 0 502.03125 302.96875 L 503.25 218.65625 A 2.6519156 2.6519156 0 0 0 503.09375 217.75 L 478.09375 145.15625 A 2.6519156 2.6519156 0 0 0 477.46875 144.15625 L 396.125 63.75 A 2.6519156 2.6519156 0 0 0 394.625 63 L 268.25 45.375 A 2.6519156 2.6519156 0 0 0 267.71875 45.34375 z M 267.875 48 L 394.25 65.625 L 475.59375 146.03125 L 500.59375 218.625 L 499.375 302.9375 L 464.84375 391.625 L 451.15625 257.25 L 379.4375 162.75 L 290.625 99.96875 L 151.78125 76.8125 L 267.875 48 z "
         style="fill:#9f7b0d;fill-opacity:1;stroke:#000000;stroke-width:1px;stroke-linecap:butt;stroke-linejoin:miter;stroke-opacity:0"
         transform="translate(236,121.50504)" />
      <path
         transform="translate(236,121.50504)"
         sodipodi:nodetypes="ccccccccccc"
         inkscape:connector-curvature="0"
         id="path3860"
         d="m 151.77587,76.806541 138.86396,23.177489 88.79872,62.75573 71.72083,94.5124 13.69955,134.36518 34.51794,-88.6909 1.21631,-84.31262 L 475.58533,146.02891 394.23819,65.631729 267.869,47.995529 z"
         style="fill:#ffc615;fill-opacity:1;stroke:#000000;stroke-width:1px;stroke-linecap:butt;stroke-linejoin:miter;stroke-opacity:0" />
      <path
         style="fill:#000000;fill-opacity:0.19607843;stroke:#000000;stroke-width:1px;stroke-linecap:butt;stroke-linejoin:miter;stroke-opacity:0"
         d="M 286.0625 80.3125 L 240.53125 91.625 L 290.625 99.96875 L 379.4375 162.75 L 451.15625 257.25 L 452.125 266.90625 L 469.34375 289.5625 L 476.65625 361.3125 L 499.375 302.9375 L 500.59375 218.625 L 483.09375 167.78125 L 412.40625 97.96875 L 286.0625 80.3125 z "
         transform="translate(236,121.50504)"
         id="path3860-0" />
      <path
         style="fill:#000000;fill-opacity:0.11764706;stroke:#000000;stroke-width:1px;stroke-linecap:butt;stroke-linejoin:miter;stroke-opacity:0"
         d="M 267.875 48 L 151.78125 76.8125 L 290.625 99.96875 L 379.4375 162.75 L 451.15625 257.25 L 464.84375 391.625 L 499.375 302.9375 L 500.59375 218.625 L 475.59375 146.03125 L 394.25 65.625 L 267.875 48 z M 268.34375 58.03125 L 389.625 74.96875 L 467.03125 151.46875 L 490.6875 220.125 L 489.53125 301.03125 L 470.5 349.875 L 460.96875 256.25 A 9.8661503 9.8661503 0 0 0 459 251.28125 L 387.28125 156.78125 A 9.8661503 9.8661503 0 0 0 385.125 154.6875 L 296.3125 91.9375 A 9.8661503 9.8661503 0 0 0 292.25 90.28125 L 200.28125 74.9375 L 268.34375 58.03125 z "
         transform="translate(236,121.50504)"
         id="path3860-4" />
      <path
         style="fill:#000000;fill-opacity:0.11764706;stroke:#000000;stroke-width:1px;stroke-linecap:butt;stroke-linejoin:miter;stroke-opacity:0"
         d="M 264.90625 89.0625 L 244.46875 92.28125 L 290.625 99.96875 L 379.4375 162.75 L 451.15625 257.25 L 464.84375 391.625 L 499.375 302.9375 L 500.59375 218.625 L 475.59375 146.03125 L 473.84375 144.3125 L 430.84375 184.875 L 370.0625 113.25 L 264.90625 89.0625 z "
         transform="translate(236,121.50504)"
         id="path3860-3" />
    </g>
    <path
       sodipodi:type="star"
       style="color:#000000;fill:#000000;fill-opacity:0.23529412;fill-rule:nonzero;stroke:none;stroke-width:4;marker:none;visibility:visible;display:inline;overflow:visible;enable-background:accumulate"
       id="path3794"
       sodipodi:sides="5"
       sodipodi:cx="418.70823"
       sodipodi:cy="126.12173"
       sodipodi:r1="15.016997"
       sodipodi:r2="12.149006"
       sodipodi:arg1="1.2277724"
       sodipodi:arg2="1.8560909"
       inkscape:flatsided="true"
       inkscape:rounded="0"
       inkscape:randomized="0"
       d="m 423.75898,140.26386 -16.93996,-4.96841 -0.50949,-17.64619 16.62508,-5.93753 10.78435,13.9766 z"
       transform="translate(236,121.50504)"
       inkscape:transform-center-x="-1.3060251"
       inkscape:transform-center-y="-0.13392814" />
    <path
       sodipodi:type="star"
       style="color:#000000;fill:#000000;fill-opacity:0.23529412;fill-rule:nonzero;stroke:none;stroke-width:4;marker:none;visibility:visible;display:inline;overflow:visible;enable-background:accumulate"
       id="path3024"
       sodipodi:sides="5"
       sodipodi:cx="432.34529"
       sodipodi:cy="162.48722"
       sodipodi:r1="15.452363"
       sodipodi:r2="12.501224"
       sodipodi:arg1="1.3734008"
       sodipodi:arg2="2.0017193"
       inkscape:flatsided="true"
       inkscape:rounded="0"
       inkscape:randomized="0"
       d="m 435.37573,177.6395 -16.50467,-7.58784 2.11623,-18.04165 17.81259,-3.56251 8.89254,15.83989 z"
       transform="translate(236,121.50504)"
       inkscape:transform-center-x="-0.93646291"
       inkscape:transform-center-y="0.55628562" />
    <path
       style="fill:#d3cec0;fill-opacity:1;stroke:#b4ad87;stroke-width:5;stroke-linecap:butt;stroke-linejoin:miter;stroke-miterlimit:4;stroke-opacity:1;stroke-dasharray:none"
       d="m 696.27241,249.50221 15,14.38725 -142.44509,37.25527 25.89938,-27.20542 z"
       id="path4005-4"
       inkscape:connector-curvature="0"
       sodipodi:nodetypes="ccccc" />
    <path
       style="fill:#000000;fill-opacity:0.19607843;stroke:none;stroke-width:5;stroke-linecap:butt;stroke-linejoin:miter;stroke-miterlimit:4;stroke-opacity:1;stroke-dasharray:none"
       d="M 385.90756 168.34879 L 475.90625 144.8125 L 480.21875 143.6875 L 477 140.59375 L 462 126.1875 L 461.03125 125.25 L 461.03125 125.25 L 459.6875 125.5625 L 417.7205 135.66351 "
       id="path4141"
       transform="translate(236,121.50504)" />
    <path
       style="fill:#d3cec0;fill-opacity:1;stroke:#b4ad87;stroke-width:5;stroke-linecap:butt;stroke-linejoin:miter;stroke-miterlimit:4;stroke-opacity:1;stroke-dasharray:none"
       d="m 655.24613,209.54735 -14.38725,-15 -36.18384,134.05224 23.04224,-22.65446 z"
       id="path4005"
       inkscape:connector-curvature="0"
       sodipodi:nodetypes="ccccc" />
    <path
       style="font-size:medium;font-style:normal;font-variant:normal;font-weight:normal;font-stretch:normal;text-indent:0;text-align:start;text-decoration:none;line-height:normal;letter-spacing:normal;word-spacing:normal;text-transform:none;direction:ltr;block-progression:tb;writing-mode:lr-tb;text-anchor:start;baseline-shift:baseline;color:#000000;fill:#000000;fill-opacity:0.19607843;fill-rule:nonzero;stroke:none;stroke-width:5;marker:none;visibility:visible;display:inline;overflow:visible;enable-background:accumulate;font-family:Sans;-inkscape-font-specification:Sans"
       d="m 372.94054,181.65707 -6.69054,24.78043 -2.375,8.90625 6.5625,-6.46875 23.03125,-22.65625 0.46875,-0.46875 0.1875,-0.625 9.96926,-35.06406"
       id="path4005-8"
       transform="translate(236,121.50504)"
       inkscape:connector-curvature="0"
       sodipodi:nodetypes="cccccccc" />
    <path
       style="fill:#d3cec0;fill-opacity:1;stroke:#b4ad87;stroke-width:5;stroke-linecap:butt;stroke-linejoin:miter;stroke-miterlimit:4;stroke-opacity:1;stroke-dasharray:none"
       d="m 577.64168,291.61084 35.86041,29.29442 -15.24637,14.7413 -34.59773,-29.54696 z"
       id="path4036"
       inkscape:connector-curvature="0"
       sodipodi:nodetypes="ccccc" />
    <path
       style="fill:#000000;fill-opacity:0.19607843;stroke:none"
       d="m 586.08864,328.53999 10.55422,9.0097 1.71875,1.46875 1.625,-1.5625 15.25,-14.75 2.03125,-1.9375 -2.1875,-1.78125 -10.34854,-8.46289"
       id="path4036-3"
       inkscape:connector-curvature="0" />
    <path
       sodipodi:type="star"
       style="color:#000000;fill:#d47300;fill-opacity:1;fill-rule:nonzero;stroke:none;stroke-width:4;marker:none;visibility:visible;display:inline;overflow:visible;enable-background:accumulate"
       id="path3010"
       sodipodi:sides="5"
       sodipodi:cx="460.62956"
       sodipodi:cy="189.76134"
       sodipodi:r1="11.111678"
       sodipodi:r2="8.9895364"
       sodipodi:arg1="1.5707963"
       sodipodi:arg2="2.1991149"
       inkscape:flatsided="true"
       inkscape:rounded="0"
       inkscape:randomized="0"
       d="m 460.62955,200.87302 -10.56784,-7.67799 4.03656,-12.42323 13.06256,0 4.03655,12.42323 z"
       transform="translate(236,121.50504)"
       inkscape:transform-center-y="1.0610708" />
    <path
       sodipodi:type="star"
       style="color:#000000;fill:#d47300;fill-opacity:1;fill-rule:nonzero;stroke:none;stroke-width:4;marker:none;visibility:visible;display:inline;overflow:visible;enable-background:accumulate"
       id="path3012"
       sodipodi:sides="5"
       sodipodi:cx="471.74124"
       sodipodi:cy="229.15729"
       sodipodi:r1="15.016997"
       sodipodi:r2="12.149006"
       sodipodi:arg1="1.2277724"
       sodipodi:arg2="1.8560909"
       inkscape:flatsided="true"
       inkscape:rounded="0"
       inkscape:randomized="0"
       d="m 476.792,243.29942 -16.93996,-4.96841 -0.50949,-17.64619 16.62508,-5.93752 10.78435,13.97659 z"
       transform="translate(236,121.50504)"
       inkscape:transform-center-x="-1.3060251"
       inkscape:transform-center-y="-0.13392814" />
    <path
       sodipodi:type="star"
       style="color:#000000;fill:#d47300;fill-opacity:1;fill-rule:nonzero;stroke:none;stroke-width:4;marker:none;visibility:visible;display:inline;overflow:visible;enable-background:accumulate"
       id="path3014"
       sodipodi:sides="5"
       sodipodi:cx="473.76155"
       sodipodi:cy="278.65476"
       sodipodi:r1="8.1441102"
       sodipodi:r2="6.5887236"
       sodipodi:arg1="-0.51914611"
       sodipodi:arg2="0.10917242"
       inkscape:flatsided="true"
       inkscape:rounded="0"
       inkscape:randomized="0"
       d="m 480.8326,274.61414 -1.04314,9.51698 -9.37353,1.94883 -4.75002,-8.31254 6.43786,-7.08626 z"
       transform="translate(236,121.50504)"
       inkscape:transform-center-x="0.51227865"
       inkscape:transform-center-y="-0.27420533" />
    <path
       sodipodi:type="star"
       style="color:#000000;fill:#d47300;fill-opacity:1;fill-rule:nonzero;stroke:none;stroke-width:4;marker:none;visibility:visible;display:inline;overflow:visible;enable-background:accumulate"
       id="path3016"
       sodipodi:sides="5"
       sodipodi:cx="475.78185"
       sodipodi:cy="259.46186"
       sodipodi:r1="7.1428572"
       sodipodi:r2="5.7786928"
       sodipodi:arg1="-0.14189705"
       sodipodi:arg2="0.48642148"
       inkscape:flatsided="true"
       inkscape:rounded="0"
       inkscape:randomized="0"
       d="m 482.85293,258.4517 -3.92528,7.42298 -8.27265,-1.43933 -1.18751,-8.31254 7.53874,-3.6981 z"
       transform="translate(236,121.50504)"
       inkscape:transform-center-x="-0.37835051"
       inkscape:transform-center-y="-0.3121543" />
    <path
       sodipodi:type="star"
       style="color:#000000;fill:#d47300;fill-opacity:1;fill-rule:nonzero;stroke:none;stroke-width:4;marker:none;visibility:visible;display:inline;overflow:visible;enable-background:accumulate"
       id="path3018"
       sodipodi:sides="5"
       sodipodi:cx="452.54834"
       sodipodi:cy="209.96439"
       sodipodi:r1="9.0913729"
       sodipodi:r2="7.3550752"
       sodipodi:arg1="3.1415927"
       sodipodi:arg2="3.7699112"
       inkscape:flatsided="true"
       inkscape:rounded="0"
       inkscape:randomized="0"
       d="m 443.45697,209.96439 6.28198,-8.64641 10.16446,3.30263 0,10.68755 -10.16446,3.30263 z"
       transform="translate(236,121.50504)"
       inkscape:transform-center-x="0.86814886" />
    <path
       sodipodi:type="star"
       style="color:#000000;fill:#d47300;fill-opacity:1;fill-rule:nonzero;stroke:none;stroke-width:4;marker:none;visibility:visible;display:inline;overflow:visible;enable-background:accumulate"
       id="path3020"
       sodipodi:sides="5"
       sodipodi:cx="476.42857"
       sodipodi:cy="207"
       sodipodi:r1="5.5443481"
       sodipodi:r2="4.4854719"
       sodipodi:arg1="-2.8809903"
       sodipodi:arg2="-2.2526717"
       inkscape:flatsided="true"
       inkscape:rounded="0"
       inkscape:randomized="0"
       d="m 471.07142,205.57143 5.06034,-4.10783 5.47051,3.54329 -1.67939,6.2977 -6.50842,0.3489 z"
       transform="translate(236,121.50504)"
       inkscape:transform-center-x="0.091715014"
       inkscape:transform-center-y="-0.44145285" />
    <path
       sodipodi:type="star"
       style="color:#000000;fill:#d47300;fill-opacity:1;fill-rule:nonzero;stroke:none;stroke-width:4;marker:none;visibility:visible;display:inline;overflow:visible;enable-background:accumulate"
       id="path3022"
       sodipodi:sides="5"
       sodipodi:cx="431.07144"
       sodipodi:cy="192.35715"
       sodipodi:r1="9.715336"
       sodipodi:r2="5.0460267"
       sodipodi:arg1="1.2722974"
       sodipodi:arg2="1.9006159"
       inkscape:flatsided="true"
       inkscape:rounded="0"
       inkscape:randomized="0"
       d="m 433.92858,201.64286 -10.80547,-3.69897 0.17885,-11.41966 10.91601,-3.35877 6.56762,9.34383 z"
       transform="translate(243.14286,124.71933)"
       inkscape:transform-center-x="-0.4129179"
       inkscape:transform-center-y="-0.18906584" />
    <path
       sodipodi:type="star"
       style="color:#000000;fill:#000000;fill-opacity:0.23529412;fill-rule:nonzero;stroke:none;stroke-width:4;marker:none;visibility:visible;display:inline;overflow:visible;enable-background:accumulate"
       id="path3796"
       sodipodi:sides="5"
       sodipodi:cx="376.28182"
       sodipodi:cy="103.89837"
       sodipodi:r1="8.3299313"
       sodipodi:r2="6.739056"
       sodipodi:arg1="1.3258177"
       sodipodi:arg2="1.9541362"
       inkscape:flatsided="true"
       inkscape:rounded="0"
       inkscape:randomized="0"
       d="m 378.30213,111.97959 -9.08169,-3.66256 0.67691,-9.769 9.50004,-2.375011 5.19445,8.301161 z"
       transform="translate(236,121.50504)"
       inkscape:transform-center-x="-0.62430861"
       inkscape:transform-center-y="0.17793511" />
    <path
       sodipodi:type="star"
       style="color:#000000;fill:#000000;fill-opacity:0.23529412;fill-rule:nonzero;stroke:none;stroke-width:4;marker:none;visibility:visible;display:inline;overflow:visible;enable-background:accumulate"
       id="path3798"
       sodipodi:sides="5"
       sodipodi:cx="355.71429"
       sodipodi:cy="78.42857"
       sodipodi:r1="9.0350791"
       sodipodi:r2="7.3095325"
       sodipodi:arg1="0.32175055"
       sodipodi:arg2="0.95006909"
       inkscape:flatsided="true"
       inkscape:rounded="0"
       inkscape:randomized="0"
       d="m 364.28572,81.285716 -8.64001,6.177676 -8.54523,-6.308136 3.35877,-10.076319 10.62107,0.08063 z"
       transform="translate(236,121.50504)"
       inkscape:transform-center-x="0.021194622"
       inkscape:transform-center-y="0.84259113" />
    <path
       sodipodi:type="star"
       style="color:#000000;fill:#000000;fill-opacity:0.23529412;fill-rule:nonzero;stroke:none;stroke-width:4;marker:none;visibility:visible;display:inline;overflow:visible;enable-background:accumulate"
       id="path3800"
       sodipodi:sides="5"
       sodipodi:cx="299.28572"
       sodipodi:cy="71.285713"
       sodipodi:r1="8.7189683"
       sodipodi:r2="7.0537936"
       sodipodi:arg1="0.61072596"
       sodipodi:arg2="1.2390445"
       inkscape:flatsided="true"
       inkscape:rounded="0"
       inkscape:randomized="0"
       d="m 306.42856,76.285713 -9.69087,3.338346 -6.1696,-8.184965 5.87785,-8.396932 9.80231,2.995375 z"
       transform="translate(236,121.50504)"
       inkscape:transform-center-x="0.78738097"
       inkscape:transform-center-y="0.047397372" />
    <path
       sodipodi:type="star"
       style="color:#000000;fill:#000000;fill-opacity:0.23529412;fill-rule:nonzero;stroke:none;stroke-width:4;marker:none;visibility:visible;display:inline;overflow:visible;enable-background:accumulate"
       id="path3802"
       sodipodi:sides="5"
       sodipodi:cx="254.28572"
       sodipodi:cy="73.42857"
       sodipodi:r1="9.7153361"
       sodipodi:r2="7.859872"
       sodipodi:arg1="-1.2722974"
       sodipodi:arg2="-0.64397886"
       inkscape:flatsided="true"
       inkscape:rounded="0"
       inkscape:randomized="0"
       d="m 257.14286,64.14286 6.85701,9.133574 -6.56762,9.343826 -10.91601,-3.358772 -0.17885,-11.419662 z"
       transform="translate(236,121.50504)"
       inkscape:transform-center-x="-0.8829057"
       inkscape:transform-center-y="-0.047013594" />
    <path
       sodipodi:type="star"
       style="color:#000000;fill:#000000;fill-opacity:0.23529412;fill-rule:nonzero;stroke:none;stroke-width:4;marker:none;visibility:visible;display:inline;overflow:visible;enable-background:accumulate"
       id="path3804"
       sodipodi:sides="5"
       sodipodi:cx="360"
       sodipodi:cy="124.14286"
       sodipodi:r1="11.517511"
       sodipodi:r2="9.3178622"
       sodipodi:arg1="1.4464413"
       sodipodi:arg2="2.0747599"
       inkscape:flatsided="true"
       inkscape:rounded="0"
       inkscape:randomized="0"
       d="m 361.42857,135.57143 -11.85633,-6.53829 2.55448,-13.29649 13.43509,-1.67939 5.74886,12.25857 z"
       transform="translate(236,121.50504)"
       inkscape:transform-center-x="-0.44145285"
       inkscape:transform-center-y="0.67148485" />
    <path
       sodipodi:type="star"
       style="color:#000000;fill:#000000;fill-opacity:0.23529412;fill-rule:nonzero;stroke:none;stroke-width:4;marker:none;visibility:visible;display:inline;overflow:visible;enable-background:accumulate"
       id="path3806"
       sodipodi:sides="5"
       sodipodi:cx="327.85714"
       sodipodi:cy="84.142855"
       sodipodi:r1="15.152288"
       sodipodi:r2="12.258459"
       sodipodi:arg1="1.4288993"
       sodipodi:arg2="2.0572178"
       inkscape:flatsided="true"
       inkscape:rounded="0"
       inkscape:randomized="0"
       d="m 330,99.142853 -15.74652,-8.326767 3.05328,-17.548949 17.63356,-2.519079 7.84485,15.992072 z"
       transform="translate(236,121.50504)"
       inkscape:transform-center-x="-0.66217928"
       inkscape:transform-center-y="0.80260263" />
  </g>
</svg>
