<?xml version="1.0" encoding="UTF-8" standalone="no"?>
<!-- Created with Inkscape (http://www.inkscape.org/) -->

<svg
   xmlns:dc="http://purl.org/dc/elements/1.1/"
   xmlns:cc="http://creativecommons.org/ns#"
   xmlns:rdf="http://www.w3.org/1999/02/22-rdf-syntax-ns#"
   xmlns:svg="http://www.w3.org/2000/svg"
   xmlns="http://www.w3.org/2000/svg"
   xmlns:sodipodi="http://sodipodi.sourceforge.net/DTD/sodipodi-0.dtd"
   xmlns:inkscape="http://www.inkscape.org/namespaces/inkscape"
   width="512"
   height="512"
   id="svg2"
   version="1.1"
   inkscape:version="0.48.4 r9939"
   sodipodi:docname="GlowstoneAxe.svg">
  <defs
     id="defs4" />
  <sodipodi:namedview
     id="base"
     pagecolor="#ffffff"
     bordercolor="#666666"
     borderopacity="1.0"
     inkscape:pageopacity="0.0"
     inkscape:pageshadow="2"
     inkscape:zoom="1.979899"
     inkscape:cx="431.13982"
     inkscape:cy="358.93609"
     inkscape:document-units="px"
     inkscape:current-layer="layer1"
     showgrid="false"
     fit-margin-top="0"
     fit-margin-left="0"
     fit-margin-right="0"
     fit-margin-bottom="0"
     inkscape:window-width="1301"
     inkscape:window-height="744"
     inkscape:window-x="65"
     inkscape:window-y="24"
     inkscape:window-maximized="1">
    <inkscape:grid
       type="xygrid"
       id="grid3096"
       empspacing="8"
       visible="true"
       enabled="true"
       snapvisiblegridlinesonly="true" />
  </sodipodi:namedview>
  <metadata
     id="metadata7">
    <rdf:RDF>
      <cc:Work
         rdf:about="">
        <dc:format>image/svg+xml</dc:format>
        <dc:type
           rdf:resource="http://purl.org/dc/dcmitype/StillImage" />
        <dc:title />
      </cc:Work>
    </rdf:RDF>
  </metadata>
  <g
     inkscape:label="Layer 1"
     inkscape:groupmode="layer"
     id="layer1"
     transform="translate(-236,-121.50504)">
    <g
       id="g4000">
      <path
         sodipodi:nodetypes="ccccc"
         transform="translate(236,121.50504)"
         inkscape:connector-curvature="0"
         id="path3034"
         d="M 438.57143,70.571429 60.714285,449.14286 95.382524,483.34191 472.81453,105.98181 z"
         style="fill:#5a4829;fill-opacity:1;stroke:none" />
      <path
         id="path3034-6"
         transform="translate(236,121.50504)"
         d="M 438.5625 70.5625 L 60.71875 449.15625 L 95.375 483.34375 L 472.8125 105.96875 L 438.5625 70.5625 z M 438.46875 81.75 L 461.78125 105.90625 L 95.3125 472.28125 L 71.84375 449.125 L 438.46875 81.75 z "
         style="fill:#000000;fill-opacity:0.27450982;stroke:none" />
      <path
         id="path3034-2"
         transform="translate(236,121.50504)"
         d="M 457.75 90.78125 L 80.53125 468.71875 L 95.375 483.34375 L 472.625 106.15625 L 457.75 90.78125 z "
         style="fill:#000000;fill-opacity:0.19607843;stroke:none" />
    </g>
    <path
       style="fill:#9f7b0d;fill-opacity:1;stroke:#000000;stroke-width:1px;stroke-linecap:butt;stroke-linejoin:miter;stroke-opacity:0"
       d="M 311.5 5.21875 A 1.8567189 1.8567189 0 0 0 311.3125 5.25 A 1.8567189 1.8567189 0 0 0 310.3125 5.78125 L 256.53125 58.3125 A 1.8567189 1.8567189 0 0 0 256.15625 60.375 L 283.90625 121.9375 A 1.8567189 1.8567189 0 0 0 284.96875 122.9375 L 360.15625 149.5625 L 378.09375 164.03125 L 399.71875 192.53125 A 1.8567189 1.8567189 0 0 0 400.65625 193.1875 L 450.625 208.53125 A 1.8567189 1.8567189 0 0 0 452.53125 208 L 479.75 178.4375 A 1.8567189 1.8567189 0 0 0 480.21875 177.03125 L 477.4375 145.875 A 1.8567189 1.8567189 0 0 0 476.90625 144.71875 L 403.4375 71.96875 L 371.5 19.75 A 1.8567189 1.8567189 0 0 0 370.34375 18.90625 L 312.0625 5.28125 A 1.8567189 1.8567189 0 0 0 311.5 5.21875 z M 311.625 7.09375 L 369.90625 20.71875 L 401.9375 73.09375 L 475.59375 146.03125 L 478.375 177.1875 L 451.15625 206.75 L 401.1875 191.40625 L 379.4375 162.75 L 361.03125 147.90625 L 285.59375 121.1875 L 257.84375 59.625 L 311.625 7.09375 z "
       id="path3853"
       transform="translate(236,121.50504)" />
    <path
       style="fill:#ffc615;fill-opacity:1;stroke:#000000;stroke-width:1px;stroke-linecap:butt;stroke-linejoin:miter;stroke-opacity:0"
       d="m 493.84189,181.13899 27.74718,61.56328 75.45545,26.69726 18.39403,14.84527 21.75801,28.67231 49.96282,15.33246 27.21044,-29.54696 -2.78449,-31.16866 -73.64473,-72.94731 -32.04619,-52.36019 -58.26418,-13.63638 z"
       id="path3860"
       inkscape:connector-curvature="0"
       sodipodi:nodetypes="cccccccccccc" />
    <path
       style="fill:#000000;fill-opacity:0.07843138;stroke:#000000;stroke-width:1px;stroke-linecap:butt;stroke-linejoin:miter;stroke-opacity:0"
       d="M 318.375 90.8125 L 285.0625 120 L 285.59375 121.1875 L 361.03125 147.90625 L 379.4375 162.75 L 401.1875 191.40625 L 439.3125 203.125 L 392.375 151.28125 L 367.46875 105.125 L 318.375 90.8125 z "
       transform="translate(236,121.50504)"
       id="path3860-5" />
    <path
       style="fill:#000000;fill-opacity:0.11764706;stroke:#000000;stroke-width:1px;stroke-linecap:butt;stroke-linejoin:miter;stroke-opacity:0"
       d="M 313.65625 78.3125 L 280.75 110.4375 L 285.59375 121.1875 L 361.03125 147.90625 L 379.4375 162.75 L 401.1875 191.40625 L 451.15625 206.75 L 458.71875 198.53125 L 403.96875 144.3125 L 371.90625 91.9375 L 313.65625 78.3125 z "
       transform="translate(236,121.50504)"
       id="path3860-7" />
    <path
       sodipodi:type="star"
       style="color:#000000;fill:#000000;fill-opacity:0.11764706;fill-rule:nonzero;stroke:none;stroke-width:4;marker:none;visibility:visible;display:inline;overflow:visible;enable-background:accumulate"
       id="path3018"
       sodipodi:sides="5"
       sodipodi:cx="392.14286"
       sodipodi:cy="95.571429"
       sodipodi:r1="7.8571429"
       sodipodi:r2="6.3565621"
       sodipodi:arg1="3.1415927"
       sodipodi:arg2="3.7699112"
       inkscape:flatsided="true"
       inkscape:rounded="0"
       inkscape:randomized="0"
       d="m 384.28571,95.571426 5.42915,-7.472587 8.78456,2.854275 -10e-6,9.236626 -8.78455,2.85427 z"
       transform="translate(236,121.50504)"
       inkscape:transform-center-x="0.75029038" />
    <path
       sodipodi:type="star"
       style="color:#000000;fill:#000000;fill-opacity:0.11764706;fill-rule:nonzero;stroke:none;stroke-width:4;marker:none;visibility:visible;display:inline;overflow:visible;enable-background:accumulate"
       id="path3020"
       sodipodi:sides="5"
       sodipodi:cx="445.71429"
       sodipodi:cy="164.14285"
       sodipodi:r1="11.539639"
       sodipodi:r2="9.3357639"
       sodipodi:arg1="1.1902899"
       sodipodi:arg2="1.8186085"
       inkscape:flatsided="true"
       inkscape:rounded="0"
       inkscape:randomized="0"
       d="m 450.00001,174.85714 -13.15125,-3.32743 -0.89938,-13.53582 12.5954,-5.03816 8.68376,10.42206 z"
       transform="translate(232.42857,117.21933)"
       inkscape:transform-center-x="-0.87466749"
       inkscape:transform-center-y="-0.23641658" />
    <path
       style="fill:#000000;fill-opacity:0.07843138;stroke:#000000;stroke-width:1px;stroke-linecap:butt;stroke-linejoin:miter;stroke-opacity:0"
       d="M 311.625 7.09375 L 257.84375 59.625 L 285.59375 121.1875 L 361.03125 147.90625 L 379.4375 162.75 L 401.1875 191.40625 L 451.15625 206.75 L 478.375 177.1875 L 475.59375 146.03125 L 401.9375 73.09375 L 369.90625 20.71875 L 311.625 7.09375 z M 314.71875 18.28125 L 363.4375 29.65625 L 393.25 78.40625 A 10.173103 10.173103 0 0 0 394.78125 80.3125 L 465.8125 150.625 L 467.84375 173.625 L 448.03125 195.15625 L 407.3125 182.65625 L 387.53125 156.59375 A 10.173103 10.173103 0 0 0 385.8125 154.84375 L 367.40625 140 A 10.173103 10.173103 0 0 0 364.4375 138.3125 L 293.09375 113.03125 L 270.03125 61.90625 L 314.71875 18.28125 z "
       transform="translate(236,121.50504)"
       id="path3860-2" />
    <path
       style="fill:#d3cec0;fill-opacity:1;stroke:#b4ad87;stroke-width:5;stroke-linecap:butt;stroke-linejoin:miter;stroke-miterlimit:4;stroke-opacity:1;stroke-dasharray:none"
       d="m 696.27241,249.50221 15,14.38725 -142.44509,37.25527 25.89938,-27.20542 z"
       id="path4005-4"
       inkscape:connector-curvature="0"
       sodipodi:nodetypes="ccccc" />
    <path
       style="fill:#000000;fill-opacity:0.19607843;stroke:none;stroke-width:5;stroke-linecap:butt;stroke-linejoin:miter;stroke-miterlimit:4;stroke-opacity:1;stroke-dasharray:none"
       d="M 385.90756 168.34879 L 475.90625 144.8125 L 480.21875 143.6875 L 477 140.59375 L 462 126.1875 L 461.03125 125.25 L 461.03125 125.25 L 459.6875 125.5625 L 417.7205 135.66351 "
       id="path4141"
       transform="translate(236,121.50504)" />
    <path
       style="fill:#d3cec0;fill-opacity:1;stroke:#b4ad87;stroke-width:5;stroke-linecap:butt;stroke-linejoin:miter;stroke-miterlimit:4;stroke-opacity:1;stroke-dasharray:none"
       d="m 655.24613,209.54735 -14.38725,-15 -36.18384,134.05224 23.04224,-22.65446 z"
       id="path4005"
       inkscape:connector-curvature="0"
       sodipodi:nodetypes="ccccc" />
    <path
       style="font-size:medium;font-style:normal;font-variant:normal;font-weight:normal;font-stretch:normal;text-indent:0;text-align:start;text-decoration:none;line-height:normal;letter-spacing:normal;word-spacing:normal;text-transform:none;direction:ltr;block-progression:tb;writing-mode:lr-tb;text-anchor:start;baseline-shift:baseline;color:#000000;fill:#000000;fill-opacity:0.19607843;fill-rule:nonzero;stroke:none;stroke-width:5;marker:none;visibility:visible;display:inline;overflow:visible;enable-background:accumulate;font-family:Sans;-inkscape-font-specification:Sans"
       d="m 372.94054,181.65707 -6.69054,24.78043 -2.375,8.90625 6.5625,-6.46875 23.03125,-22.65625 0.46875,-0.46875 0.1875,-0.625 9.96926,-35.06406"
       id="path4005-8"
       transform="translate(236,121.50504)"
       inkscape:connector-curvature="0"
       sodipodi:nodetypes="cccccccc" />
    <path
       style="fill:#d3cec0;fill-opacity:1;stroke:#b4ad87;stroke-width:5;stroke-linecap:butt;stroke-linejoin:miter;stroke-miterlimit:4;stroke-opacity:1;stroke-dasharray:none"
       d="m 577.64168,291.61084 35.86041,29.29442 -15.24637,14.7413 -34.59773,-29.54696 z"
       id="path4036"
       inkscape:connector-curvature="0"
       sodipodi:nodetypes="ccccc" />
    <path
       style="fill:#000000;fill-opacity:0.19607843;stroke:none"
       d="m 586.08864,328.53999 10.55422,9.0097 1.71875,1.46875 1.625,-1.5625 15.25,-14.75 2.03125,-1.9375 -2.1875,-1.78125 -10.34854,-8.46289"
       id="path4036-3"
       inkscape:connector-curvature="0" />
    <path
       style="fill:#ffffff;fill-opacity:0.19607843;stroke:#000000;stroke-width:1px;stroke-linecap:butt;stroke-linejoin:miter;stroke-opacity:0"
       d="M 311.625 7.09375 L 257.84375 59.625 L 270.3125 87.3125 L 315.8125 32.28125 L 379.75 40.25 L 390.0625 53.65625 L 369.90625 20.71875 L 311.625 7.09375 z M 414.65625 85.6875 L 420.03125 92.6875 L 428.84375 99.75 L 414.65625 85.6875 z M 396.25 184.90625 L 401.1875 191.40625 L 408.34375 193.59375 L 406.15625 191.28125 L 396.25 184.90625 z "
       transform="translate(236,121.50504)"
       id="path3860-0" />
    <path
       sodipodi:type="star"
       style="color:#000000;fill:#000000;fill-opacity:0.11764706;fill-rule:nonzero;stroke:none;stroke-width:4;marker:none;visibility:visible;display:inline;overflow:visible;enable-background:accumulate"
       id="path3010"
       sodipodi:sides="5"
       sodipodi:cx="328.57143"
       sodipodi:cy="51.285714"
       sodipodi:r1="13.552619"
       sodipodi:r2="10.964299"
       sodipodi:arg1="-0.32175055"
       sodipodi:arg2="0.30656798"
       inkscape:flatsided="true"
       inkscape:rounded="0"
       inkscape:randomized="0"
       d="m 341.42858,46.999999 -4.80811,15.189226 -15.9316,0.120943 -5.03816,-15.114478 12.81785,-9.462205 z"
       transform="translate(236,121.50504)"
       inkscape:transform-center-x="0.031791933"
       inkscape:transform-center-y="-1.2638867" />
    <path
       sodipodi:type="star"
       style="color:#000000;fill:#000000;fill-opacity:0.11764706;fill-rule:nonzero;stroke:none;stroke-width:4;marker:none;visibility:visible;display:inline;overflow:visible;enable-background:accumulate"
       id="path3012"
       sodipodi:sides="5"
       sodipodi:cx="357.85714"
       sodipodi:cy="74.142857"
       sodipodi:r1="10.151907"
       sodipodi:r2="8.2130656"
       sodipodi:arg1="0.68572951"
       sodipodi:arg2="1.314048"
       inkscape:flatsided="true"
       inkscape:rounded="0"
       inkscape:randomized="0"
       d="m 365.71429,80.571432 -11.54309,3.030553 -6.44923,-10.041635 7.55723,-9.236625 11.11987,4.333087 z"
       transform="translate(236,121.50504)"
       inkscape:transform-center-x="0.79662808"
       inkscape:transform-center-y="-0.18000575" />
    <path
       sodipodi:type="star"
       style="color:#000000;fill:#000000;fill-opacity:0.11764706;fill-rule:nonzero;stroke:none;stroke-width:4;marker:none;visibility:visible;display:inline;overflow:visible;enable-background:accumulate"
       id="path3014"
       sodipodi:sides="5"
       sodipodi:cx="302.14286"
       sodipodi:cy="69.142857"
       sodipodi:r1="4.5736602"
       sodipodi:r2="3.7001688"
       sodipodi:arg1="0.67474094"
       sodipodi:arg2="1.3030595"
       inkscape:flatsided="true"
       inkscape:rounded="0"
       inkscape:randomized="0"
       d="m 305.71428,72.000003 -5.1851,1.422394 -2.95506,-4.491781 3.35877,-4.198466 5.0309,1.896986 z"
       transform="translate(236,121.50504)"
       inkscape:transform-center-x="0.37389819"
       inkscape:transform-center-y="-0.065587029" />
    <path
       sodipodi:type="star"
       style="color:#000000;fill:#000000;fill-opacity:0.11764706;fill-rule:nonzero;stroke:none;stroke-width:4;marker:none;visibility:visible;display:inline;overflow:visible;enable-background:accumulate"
       id="path3016"
       sodipodi:sides="5"
       sodipodi:cx="425"
       sodipodi:cy="124.14286"
       sodipodi:r1="7.1428571"
       sodipodi:r2="5.7786928"
       sodipodi:arg1="-0.92729522"
       sodipodi:arg2="-0.29897669"
       inkscape:flatsided="true"
       inkscape:rounded="0"
       inkscape:randomized="0"
       d="m 429.28571,118.42857 2.47326,8.02444 -6.86741,4.83188 -6.71755,-5.03815 2.71574,-7.94565 z"
       transform="translate(236,121.50504)"
       inkscape:transform-center-x="0.033510674"
       inkscape:transform-center-y="0.65013301" />
    <path
       sodipodi:type="star"
       style="color:#000000;fill:#d47300;fill-opacity:1;fill-rule:nonzero;stroke:none;stroke-width:4;marker:none;visibility:visible;display:inline;overflow:visible;enable-background:accumulate"
       id="path3022"
       sodipodi:sides="5"
       sodipodi:cx="326.42857"
       sodipodi:cy="112"
       sodipodi:r1="7.7261813"
       sodipodi:r2="6.250612"
       sodipodi:arg1="0.5880026"
       sodipodi:arg2="1.2163211"
       inkscape:flatsided="true"
       inkscape:rounded="0"
       inkscape:randomized="0"
       d="m 332.85713,116.28571 -8.51799,3.15258 -5.63049,-7.12689 5.03816,-7.55724 8.74424,2.45626 z"
       transform="translate(236,121.50504)"
       inkscape:transform-center-x="0.64566588"
       inkscape:transform-center-y="0.096229063" />
    <path
       sodipodi:type="star"
       style="color:#000000;fill:#d47300;fill-opacity:1;fill-rule:nonzero;stroke:none;stroke-width:4;marker:none;visibility:visible;display:inline;overflow:visible;enable-background:accumulate"
       id="path3024"
       sodipodi:sides="5"
       sodipodi:cx="354.28571"
       sodipodi:cy="121.28571"
       sodipodi:r1="11.539639"
       sodipodi:r2="9.335764"
       sodipodi:arg1="-1.1902899"
       sodipodi:arg2="-0.56197142"
       inkscape:flatsided="true"
       inkscape:rounded="0"
       inkscape:randomized="0"
       d="m 358.57142,110.57143 7.22854,11.47934 -8.68377,10.42206 -12.5954,-5.03816 0.89938,-13.53581 z"
       transform="translate(236,121.50504)"
       inkscape:transform-center-x="-0.87466749"
       inkscape:transform-center-y="0.23641658" />
    <path
       sodipodi:type="star"
       style="color:#000000;fill:#d47300;fill-opacity:1;fill-rule:nonzero;stroke:none;stroke-width:4;marker:none;visibility:visible;display:inline;overflow:visible;enable-background:accumulate"
       id="path3026"
       sodipodi:sides="5"
       sodipodi:cx="426.42857"
       sodipodi:cy="177.71429"
       sodipodi:r1="5.8901509"
       sodipodi:r2="4.7652322"
       sodipodi:arg1="0.24497866"
       sodipodi:arg2="0.87329719"
       inkscape:flatsided="true"
       inkscape:rounded="0"
       inkscape:randomized="0"
       d="m 432.14284,179.14287 -5.30712,4.44749 -5.86981,-3.67303 1.67939,-6.71755 6.90772,-0.47864 z"
       transform="translate(236,121.50504)"
       inkscape:transform-center-x="-0.12581912"
       inkscape:transform-center-y="0.44145285" />
    <path
       sodipodi:type="star"
       style="color:#000000;fill:#fcf600;fill-opacity:1;fill-rule:nonzero;stroke:none;stroke-width:4;marker:none;visibility:visible;display:inline;overflow:visible;enable-background:accumulate"
       id="path3028"
       sodipodi:sides="5"
       sodipodi:cx="280.71429"
       sodipodi:cy="60.571429"
       sodipodi:r1="5.7587555"
       sodipodi:r2="4.6589311"
       sodipodi:arg1="0.51914611"
       sodipodi:arg2="1.1474646"
       inkscape:flatsided="true"
       inkscape:rounded="0"
       inkscape:randomized="0"
       d="m 285.71429,63.428573 -6.17221,2.781046 -4.55226,-5.01074 3.35878,-5.877852 6.62808,1.378026 z"
       transform="translate(236,121.50504)"
       inkscape:transform-center-x="0.3622357"
       inkscape:transform-center-y="0.19389245" />
    <path
       sodipodi:type="star"
       style="color:#000000;fill:#fcf600;fill-opacity:1;fill-rule:nonzero;stroke:none;stroke-width:4;marker:none;visibility:visible;display:inline;overflow:visible;enable-background:accumulate"
       id="path3030"
       sodipodi:sides="5"
       sodipodi:cx="319.28571"
       sodipodi:cy="25.571429"
       sodipodi:r1="5.4398379"
       sodipodi:r2="4.4009213"
       sodipodi:arg1="0.40489179"
       sodipodi:arg2="1.0332103"
       inkscape:flatsided="true"
       inkscape:rounded="0"
       inkscape:randomized="0"
       d="m 324.28571,27.714285 -5.4929,3.274605 -4.81173,-4.212143 2.51908,-5.877853 6.36861,0.579431 z"
       transform="translate(236,121.50504)"
       inkscape:transform-center-x="0.1523124"
       inkscape:transform-center-y="0.37246387" />
  </g>
</svg>
