<?xml version="1.0" encoding="UTF-8" standalone="no"?>
<!-- Created with Inkscape (http://www.inkscape.org/) -->

<svg
   xmlns:dc="http://purl.org/dc/elements/1.1/"
   xmlns:cc="http://creativecommons.org/ns#"
   xmlns:rdf="http://www.w3.org/1999/02/22-rdf-syntax-ns#"
   xmlns:svg="http://www.w3.org/2000/svg"
   xmlns="http://www.w3.org/2000/svg"
   xmlns:sodipodi="http://sodipodi.sourceforge.net/DTD/sodipodi-0.dtd"
   xmlns:inkscape="http://www.inkscape.org/namespaces/inkscape"
   width="512"
   height="512"
   id="svg2"
   version="1.1"
   inkscape:version="0.48.4 r9939"
   sodipodi:docname="HDPESheet.svg">
  <defs
     id="defs4" />
  <sodipodi:namedview
     id="base"
     pagecolor="#ffffff"
     bordercolor="#666666"
     borderopacity="1.0"
     inkscape:pageopacity="0.0"
     inkscape:pageshadow="2"
     inkscape:zoom="0.9899495"
     inkscape:cx="428.06992"
     inkscape:cy="214.77647"
     inkscape:document-units="px"
     inkscape:current-layer="g5877"
     showgrid="false"
     fit-margin-top="0"
     fit-margin-left="0"
     fit-margin-right="0"
     fit-margin-bottom="0"
     inkscape:window-width="1301"
     inkscape:window-height="744"
     inkscape:window-x="65"
     inkscape:window-y="24"
     inkscape:window-maximized="1" />
  <metadata
     id="metadata7">
    <rdf:RDF>
      <cc:Work
         rdf:about="">
        <dc:format>image/svg+xml</dc:format>
        <dc:type
           rdf:resource="http://purl.org/dc/dcmitype/StillImage" />
        <dc:title />
      </cc:Work>
    </rdf:RDF>
  </metadata>
  <g
     inkscape:label="Layer 1"
     inkscape:groupmode="layer"
     id="layer1"
     transform="translate(190.28572,29.352102)">
    <g
       id="g5877"
       transform="translate(0,85.397898)">
      <path
         inkscape:connector-curvature="0"
         id="path5843"
         d="M 5,146.46428 5.7142857,101.82143 175,67.535713 352.5,11.107142 506.78572,184.85714 506.96429,220.75 88.928572,330.03571 z"
         style="fill:#eeeeee;fill-opacity:1;stroke:none"
         transform="translate(-190.28572,-29.352102)" />
      <path
         inkscape:connector-curvature="0"
         id="path5845"
         d="m 315.24998,156.75504 -3.2143,26.25 -21.6071,-12.14285 L 37.75,247.29076 -92.42858,263.71933 -97.25,289.43361 -182.60715,72.112178 l 88.92857,167.142862 98.21429,0.17857 213.21427,-63.39285 24.1072,-70.71429 -23.75,-56.250001 48.3928,50.892859 L 163.46428,-17.887817 -13.32143,37.826468 -183.5,71.397898 l -1.78572,46.428572 83.21429,183.03572 418.91291,-109.6433 -0.1263,-34.66086 z"
         style="fill:#000000;fill-opacity:0.05882353;stroke:none" />
      <path
         inkscape:connector-curvature="0"
         id="path5843-7"
         d="m 162.84375,-20.53125 -1.25,0.375 -177.28125,56.375 -0.0625,0 -0.15625,0.0625 -169.0625,34.21875 -1.5625,0.34375 -0.0312,1.59375 -0.71875,44.65625 0,0.4375 0.1875,0.40625 83.90625,183.5625 0.71875,1.53125 1.625,-0.40625 418.03125,-109.28125 1.5,-0.40625 0,-1.5625 -0.1875,-35.875 0,-0.75 -0.5,-0.5625 -154.28125,-173.75 -0.875,-0.96875 z m -1.28125,4.59375 152.9375,172.21875 0.1875,33.59375 -414.90625,108.4375 -83.0625,-181.59375 0.6875,-42.59375 167.71875,-33.96875 0.09375,-0.03125 0.09375,-0.03125 176.25,-56.03125 z"
         style="font-size:medium;font-style:normal;font-variant:normal;font-weight:normal;font-stretch:normal;text-indent:0;text-align:start;text-decoration:none;line-height:normal;letter-spacing:normal;word-spacing:normal;text-transform:none;direction:ltr;block-progression:tb;writing-mode:lr-tb;text-anchor:start;baseline-shift:baseline;color:#000000;fill:#9b9b9b;fill-opacity:1;fill-rule:nonzero;stroke:none;stroke-width:4;marker:none;visibility:visible;display:inline;overflow:visible;enable-background:accumulate;font-family:Sans;-inkscape-font-specification:Sans" />
      <path
         inkscape:connector-curvature="0"
         id="path5869"
         d="m -180.28572,74.433608 82.5,187.500002 157.14286,-21.07142 256.07144,-84.64286 1.7857,34.28571 L -101,300.1479 l -84.28572,-185 1.07143,-44.285712 z"
         style="fill:#000000;fill-opacity:0.03921569;stroke:none" />
      <path
         inkscape:connector-curvature="0"
         id="path5871"
         d="M -81.35672,216.3979 108.28614,19.433611 195.429,35.147897 l 17.50001,53.392861 -30.35716,81.964282 -150.53571,50 z"
         style="fill:#ffffff;fill-opacity:0.39215686;stroke:none" />
      <path
         inkscape:connector-curvature="0"
         id="path5873"
         d="m -77.25029,192.6479 -16.07143,-1.25 0,-6.60714 L -63.67887,131.3979 73.99971,28.540754 z"
         style="fill:#ffffff;fill-opacity:0.39215686;stroke:none" />
      <path
         inkscape:connector-curvature="0"
         id="path5875"
         d="m 104.96228,169.75315 50.00256,-14.39468 30.80965,-54.29569 0.50507,-27.526662 -4.54568,-20.960667 -23.23351,-5.808377 z"
         style="fill:#ffffff;fill-opacity:0.39215686;stroke:none" />
    </g>
  </g>
</svg>
