<?xml version="1.0" encoding="UTF-8" standalone="no"?>
<!-- Created with Inkscape (http://www.inkscape.org/) -->

<svg
   xmlns:dc="http://purl.org/dc/elements/1.1/"
   xmlns:cc="http://creativecommons.org/ns#"
   xmlns:rdf="http://www.w3.org/1999/02/22-rdf-syntax-ns#"
   xmlns:svg="http://www.w3.org/2000/svg"
   xmlns="http://www.w3.org/2000/svg"
   xmlns:sodipodi="http://sodipodi.sourceforge.net/DTD/sodipodi-0.dtd"
   xmlns:inkscape="http://www.inkscape.org/namespaces/inkscape"
   width="512"
   height="512"
   id="svg2"
   version="1.1"
   inkscape:version="0.48.4 r9939"
   sodipodi:docname="BronzePickaxe.svg">
  <defs
     id="defs4" />
  <sodipodi:namedview
     id="base"
     pagecolor="#ffffff"
     bordercolor="#666666"
     borderopacity="1.0"
     inkscape:pageopacity="0.0"
     inkscape:pageshadow="2"
     inkscape:zoom="0.98994949"
     inkscape:cx="594.31419"
     inkscape:cy="314.98616"
     inkscape:document-units="px"
     inkscape:current-layer="layer1"
     showgrid="false"
     fit-margin-top="0"
     fit-margin-left="0"
     fit-margin-right="0"
     fit-margin-bottom="0"
     inkscape:window-width="1301"
     inkscape:window-height="744"
     inkscape:window-x="65"
     inkscape:window-y="24"
     inkscape:window-maximized="1">
    <inkscape:grid
       type="xygrid"
       id="grid3096"
       empspacing="8"
       visible="true"
       enabled="true"
       snapvisiblegridlinesonly="true" />
  </sodipodi:namedview>
  <metadata
     id="metadata7">
    <rdf:RDF>
      <cc:Work
         rdf:about="">
        <dc:format>image/svg+xml</dc:format>
        <dc:type
           rdf:resource="http://purl.org/dc/dcmitype/StillImage" />
        <dc:title></dc:title>
      </cc:Work>
    </rdf:RDF>
  </metadata>
  <g
     inkscape:label="Layer 1"
     inkscape:groupmode="layer"
     id="layer1"
     transform="translate(-236,-121.50504)">
    <g
       id="g4000">
      <path
         sodipodi:nodetypes="ccccc"
         transform="translate(236,121.50504)"
         inkscape:connector-curvature="0"
         id="path3034"
         d="M 438.57143,70.571429 60.714285,449.14286 95.382524,483.34191 472.81453,105.98181 z"
         style="fill:#5a4829;fill-opacity:1;stroke:none" />
      <path
         id="path3034-6"
         transform="translate(236,121.50504)"
         d="M 438.5625 70.5625 L 60.71875 449.15625 L 95.375 483.34375 L 472.8125 105.96875 L 438.5625 70.5625 z M 438.46875 81.75 L 461.78125 105.90625 L 95.3125 472.28125 L 71.84375 449.125 L 438.46875 81.75 z "
         style="fill:#000000;fill-opacity:0.27450982;stroke:none" />
      <path
         id="path3034-2"
         transform="translate(236,121.50504)"
         d="M 457.75 90.78125 L 80.53125 468.71875 L 95.375 483.34375 L 472.625 106.15625 L 457.75 90.78125 z "
         style="fill:#000000;fill-opacity:0.19607843;stroke:none" />
    </g>
    <g
       id="g3921">
      <path
         transform="translate(236,121.50504)"
         id="path3900"
         d="M 267.71875 45.34375 A 2.6519156 2.6519156 0 0 0 267.25 45.4375 L 151.15625 74.25 A 2.6519156 2.6519156 0 0 0 151.34375 79.4375 L 289.625 102.53125 L 377.53125 164.65625 L 448.59375 258.28125 L 462.21875 391.90625 A 2.6519156 2.6519156 0 0 0 467.3125 392.59375 L 501.84375 303.90625 A 2.6519156 2.6519156 0 0 0 502.03125 302.96875 L 503.25 218.65625 A 2.6519156 2.6519156 0 0 0 503.09375 217.75 L 478.09375 145.15625 A 2.6519156 2.6519156 0 0 0 477.46875 144.15625 L 396.125 63.75 A 2.6519156 2.6519156 0 0 0 394.625 63 L 268.25 45.375 A 2.6519156 2.6519156 0 0 0 267.71875 45.34375 z M 267.875 48 L 394.25 65.625 L 475.59375 146.03125 L 500.59375 218.625 L 499.375 302.9375 L 464.84375 391.625 L 451.15625 257.25 L 379.4375 162.75 L 290.625 99.96875 L 151.78125 76.8125 L 267.875 48 z "
         style="fill:#171f65;fill-opacity:1;stroke:#000000;stroke-width:1px;stroke-linecap:butt;stroke-linejoin:miter;stroke-opacity:0" />
      <path
         transform="translate(236,121.50504)"
         sodipodi:nodetypes="ccccccccccc"
         inkscape:connector-curvature="0"
         id="path3860"
         d="m 151.77587,76.806541 138.86396,23.177489 88.79872,62.75573 71.72083,94.5124 13.69955,134.36518 34.51794,-88.6909 1.21631,-84.31262 L 475.58533,146.02891 394.23819,65.631729 267.869,47.995529 z"
         style="fill:#3242c4;fill-opacity:1;stroke:#000000;stroke-width:1px;stroke-linecap:butt;stroke-linejoin:miter;stroke-opacity:0" />
      <path
         style="fill:#000000;fill-opacity:0.19607843;stroke:#000000;stroke-width:1px;stroke-linecap:butt;stroke-linejoin:miter;stroke-opacity:0"
         d="M 286.0625 80.3125 L 240.53125 91.625 L 290.625 99.96875 L 379.4375 162.75 L 451.15625 257.25 L 452.125 266.90625 L 469.34375 289.5625 L 476.65625 361.3125 L 499.375 302.9375 L 500.59375 218.625 L 483.09375 167.78125 L 412.40625 97.96875 L 286.0625 80.3125 z "
         transform="translate(236,121.50504)"
         id="path3860-0" />
      <path
         style="fill:#000000;fill-opacity:0.11764706;stroke:#000000;stroke-width:1px;stroke-linecap:butt;stroke-linejoin:miter;stroke-opacity:0"
         d="M 267.875 48 L 151.78125 76.8125 L 290.625 99.96875 L 379.4375 162.75 L 451.15625 257.25 L 464.84375 391.625 L 499.375 302.9375 L 500.59375 218.625 L 475.59375 146.03125 L 394.25 65.625 L 267.875 48 z M 268.34375 58.03125 L 389.625 74.96875 L 467.03125 151.46875 L 490.6875 220.125 L 489.53125 301.03125 L 470.5 349.875 L 460.96875 256.25 A 9.8661503 9.8661503 0 0 0 459 251.28125 L 387.28125 156.78125 A 9.8661503 9.8661503 0 0 0 385.125 154.6875 L 296.3125 91.9375 A 9.8661503 9.8661503 0 0 0 292.25 90.28125 L 200.28125 74.9375 L 268.34375 58.03125 z "
         transform="translate(236,121.50504)"
         id="path3860-4" />
      <path
         style="fill:#000000;fill-opacity:0.11764706;stroke:#000000;stroke-width:1px;stroke-linecap:butt;stroke-linejoin:miter;stroke-opacity:0"
         d="M 264.90625 89.0625 L 244.46875 92.28125 L 290.625 99.96875 L 379.4375 162.75 L 451.15625 257.25 L 464.84375 391.625 L 499.375 302.9375 L 500.59375 218.625 L 475.59375 146.03125 L 473.84375 144.3125 L 430.84375 184.875 L 370.0625 113.25 L 264.90625 89.0625 z "
         transform="translate(236,121.50504)"
         id="path3860-3" />
    </g>
    <path
       style="fill:#d3cec0;fill-opacity:1;stroke:#b4ad87;stroke-width:5;stroke-linecap:butt;stroke-linejoin:miter;stroke-miterlimit:4;stroke-opacity:1;stroke-dasharray:none"
       d="m 696.27241,249.50221 15,14.38725 -142.44509,37.25527 25.89938,-27.20542 z"
       id="path4005-4"
       inkscape:connector-curvature="0"
       sodipodi:nodetypes="ccccc" />
    <path
       style="fill:#000000;fill-opacity:0.19607843;stroke:none;stroke-width:5;stroke-linecap:butt;stroke-linejoin:miter;stroke-miterlimit:4;stroke-opacity:1;stroke-dasharray:none"
       d="M 385.90756 168.34879 L 475.90625 144.8125 L 480.21875 143.6875 L 477 140.59375 L 462 126.1875 L 461.03125 125.25 L 461.03125 125.25 L 459.6875 125.5625 L 417.7205 135.66351 "
       id="path4141"
       transform="translate(236,121.50504)" />
    <path
       style="fill:#d3cec0;fill-opacity:1;stroke:#b4ad87;stroke-width:5;stroke-linecap:butt;stroke-linejoin:miter;stroke-miterlimit:4;stroke-opacity:1;stroke-dasharray:none"
       d="m 655.24613,209.54735 -14.38725,-15 -36.18384,134.05224 23.04224,-22.65446 z"
       id="path4005"
       inkscape:connector-curvature="0"
       sodipodi:nodetypes="ccccc" />
    <path
       style="font-size:medium;font-style:normal;font-variant:normal;font-weight:normal;font-stretch:normal;text-indent:0;text-align:start;text-decoration:none;line-height:normal;letter-spacing:normal;word-spacing:normal;text-transform:none;direction:ltr;block-progression:tb;writing-mode:lr-tb;text-anchor:start;baseline-shift:baseline;color:#000000;fill:#000000;fill-opacity:0.19607843;fill-rule:nonzero;stroke:none;stroke-width:5;marker:none;visibility:visible;display:inline;overflow:visible;enable-background:accumulate;font-family:Sans;-inkscape-font-specification:Sans"
       d="m 372.94054,181.65707 -6.69054,24.78043 -2.375,8.90625 6.5625,-6.46875 23.03125,-22.65625 0.46875,-0.46875 0.1875,-0.625 9.96926,-35.06406"
       id="path4005-8"
       transform="translate(236,121.50504)"
       inkscape:connector-curvature="0"
       sodipodi:nodetypes="cccccccc" />
    <path
       style="fill:#d3cec0;fill-opacity:1;stroke:#b4ad87;stroke-width:5;stroke-linecap:butt;stroke-linejoin:miter;stroke-miterlimit:4;stroke-opacity:1;stroke-dasharray:none"
       d="m 577.64168,291.61084 35.86041,29.29442 -15.24637,14.7413 -34.59773,-29.54696 z"
       id="path4036"
       inkscape:connector-curvature="0"
       sodipodi:nodetypes="ccccc" />
    <path
       style="fill:#000000;fill-opacity:0.19607843;stroke:none"
       d="m 586.08864,328.53999 10.55422,9.0097 1.71875,1.46875 1.625,-1.5625 15.25,-14.75 2.03125,-1.9375 -2.1875,-1.78125 -10.34854,-8.46289"
       id="path4036-3"
       inkscape:connector-curvature="0" />
  </g>
</svg>
