<?xml version="1.0" encoding="UTF-8" standalone="no"?>
<!-- Created with Inkscape (http://www.inkscape.org/) -->

<svg
   xmlns:dc="http://purl.org/dc/elements/1.1/"
   xmlns:cc="http://creativecommons.org/ns#"
   xmlns:rdf="http://www.w3.org/1999/02/22-rdf-syntax-ns#"
   xmlns:svg="http://www.w3.org/2000/svg"
   xmlns="http://www.w3.org/2000/svg"
   xmlns:sodipodi="http://sodipodi.sourceforge.net/DTD/sodipodi-0.dtd"
   xmlns:inkscape="http://www.inkscape.org/namespaces/inkscape"
   width="512"
   height="512"
   id="svg2"
   version="1.1"
   inkscape:version="0.48.4 r9939"
   sodipodi:docname="BronzeSword.svg">
  <defs
     id="defs4" />
  <sodipodi:namedview
     id="base"
     pagecolor="#ffffff"
     bordercolor="#666666"
     borderopacity="1.0"
     inkscape:pageopacity="0.0"
     inkscape:pageshadow="2"
     inkscape:zoom="0.9899495"
     inkscape:cx="510.67264"
     inkscape:cy="296.06875"
     inkscape:document-units="px"
     inkscape:current-layer="layer1"
     showgrid="false"
     fit-margin-top="0"
     fit-margin-left="0"
     fit-margin-right="0"
     fit-margin-bottom="0"
     inkscape:window-width="1301"
     inkscape:window-height="744"
     inkscape:window-x="65"
     inkscape:window-y="24"
     inkscape:window-maximized="1">
    <inkscape:grid
       type="xygrid"
       id="grid3096"
       empspacing="8"
       visible="true"
       enabled="true"
       snapvisiblegridlinesonly="true" />
  </sodipodi:namedview>
  <metadata
     id="metadata7">
    <rdf:RDF>
      <cc:Work
         rdf:about="">
        <dc:format>image/svg+xml</dc:format>
        <dc:type
           rdf:resource="http://purl.org/dc/dcmitype/StillImage" />
        <dc:title></dc:title>
      </cc:Work>
    </rdf:RDF>
  </metadata>
  <g
     inkscape:label="Layer 1"
     inkscape:groupmode="layer"
     id="layer1"
     transform="translate(-236,-121.50504)">
    <g
       id="g3100"
       transform="translate(0,0.88388349)">
      <rect
         transform="matrix(0.70710678,-0.70710678,0.70710678,0.70710678,0,0)"
         y="589.55005"
         x="-185.7244"
         height="49.279377"
         width="165.29126"
         id="rect3879-0"
         style="color:#000000;fill:#3242c4;fill-opacity:1;fill-rule:nonzero;stroke:#2f0a09;stroke-width:3.66199993999999984;stroke-opacity:1;marker:none;visibility:visible;display:inline;overflow:visible;enable-background:accumulate" />
      <path
         inkscape:connector-curvature="0"
         id="rect3879-0-0"
         d="M 396.46391,439.80326 288.06265,548.20452 320.38014,580.52201 428.7814,472.12075 396.46391,439.80326 z m -2.40569,15.6805 19.27455,19.27456 -93.44536,93.41638 -19.27456,-19.24557 93.44537,-93.44537 z"
         style="color:#000000;fill:#000000;fill-opacity:0.39215686;fill-rule:nonzero;stroke:none;stroke-width:3.66199994;marker:none;visibility:visible;display:inline;overflow:visible;enable-background:accumulate" />
      <path
         id="rect3879-0-3"
         d="M 405.9689,460.67604 302.00015,564.64479 320.4064,583.05104 424.37515,479.08229 405.9689,460.67604 z"
         style="color:#000000;fill:#000000;fill-opacity:0.19607843;fill-rule:nonzero;stroke:none;stroke-width:3.66199994;marker:none;visibility:visible;display:inline;overflow:visible;enable-background:accumulate"
         inkscape:connector-curvature="0" />
      <g
         transform="translate(219.9512,-49.623639)"
         id="g3842">
        <path
           sodipodi:type="star"
           style="color:#000000;fill:#3242c4;fill-opacity:1;fill-rule:nonzero;stroke:#000000;stroke-width:4.00009775000000012;stroke-miterlimit:4;stroke-opacity:1;stroke-dasharray:none;marker:none;visibility:visible;display:inline;overflow:visible;enable-background:accumulate"
           id="path2997-8"
           sodipodi:sides="5"
           sodipodi:cx="82.327431"
           sodipodi:cy="447.09769"
           sodipodi:r1="45.678699"
           sodipodi:r2="39.67952"
           sodipodi:arg1="-1.4265537"
           sodipodi:arg2="-0.79823514"
           inkscape:flatsided="true"
           inkscape:rounded="0"
           inkscape:randomized="0"
           d="m 88.893422,401.89336 38.454888,37.48005 -23.76244,48.15474 -53.140876,-7.71879 -9.080432,-52.92521 z"
           transform="matrix(0.91547764,0,0,0.91547764,-16.315632,231.3782)"
           inkscape:transform-center-x="1.1317962"
           inkscape:transform-center-y="-0.87702664" />
        <path
           inkscape:connector-curvature="0"
           style="color:#000000;fill:#000000;fill-opacity:0.35686275;fill-rule:nonzero;stroke:none;stroke-width:4;marker:none;visibility:visible;display:inline;overflow:visible;enable-background:accumulate"
           d="m 65.06473,599.30801 -43.51379,22.88694 8.32512,48.43449 48.63475,7.06634 21.7712,-44.08597 -35.21728,-34.3018 z m -2.28869,15.73477 21.82842,21.25625 -13.47469,27.32128 -30.18215,-4.37713 -5.14956,-30.03911 26.97798,-14.16129 z"
           id="path2997-8-46" />
        <path
           inkscape:connector-curvature="0"
           id="path2997-8-7"
           d="m 71.0487,630.54968 -43.5,22.875 2.96875,17.3125 48,6.96875 13.28125,-26.9375 -20.75,-20.21875 z"
           style="color:#000000;fill:#000000;fill-opacity:0.19607843;fill-rule:nonzero;stroke:none;stroke-width:4;marker:none;visibility:visible;display:inline;overflow:visible;enable-background:accumulate" />
      </g>
      <path
         transform="matrix(0.86100387,0,0,0.86100387,204.84899,206.83081)"
         d="m 104.42452,442.48889 c 0,9.03088 -7.320968,16.35185 -16.351842,16.35185 -9.030875,0 -16.351845,-7.32097 -16.351845,-16.35185 0,-9.03087 7.32097,-16.35184 16.351845,-16.35184 9.030874,0 16.351842,7.32097 16.351842,16.35184 z"
         sodipodi:ry="16.351845"
         sodipodi:rx="16.351845"
         sodipodi:cy="442.48889"
         sodipodi:cx="88.072678"
         id="path3849"
         style="color:#000000;fill:#000000;fill-opacity:0.19607843;fill-rule:nonzero;stroke:none;stroke-width:4;marker:none;visibility:visible;display:inline;overflow:visible;enable-background:accumulate"
         sodipodi:type="arc" />
      <path
         transform="matrix(0.98823526,0,0,0.98461538,196.1505,152.066)"
         d="m 91.607142,442.55804 c 0,3.36549 -2.718271,6.09375 -6.071429,6.09375 -3.353157,0 -6.071429,-2.72826 -6.071429,-6.09375 0,-3.36548 2.718272,-6.09375 6.071429,-6.09375 3.353158,0 6.071429,2.72827 6.071429,6.09375 z"
         sodipodi:ry="6.09375"
         sodipodi:rx="6.0714288"
         sodipodi:cy="442.55804"
         sodipodi:cx="85.535713"
         id="path3847"
         style="color:#000000;fill:#ffffff;fill-opacity:1;fill-rule:nonzero;stroke:none;stroke-width:4;marker:none;visibility:visible;display:inline;overflow:visible;enable-background:accumulate"
         sodipodi:type="arc" />
      <path
         transform="matrix(0.86100387,0,0,0.86100387,251.28484,160.49548)"
         d="m 104.42452,442.48889 c 0,9.03088 -7.320968,16.35185 -16.351842,16.35185 -9.030875,0 -16.351845,-7.32097 -16.351845,-16.35185 0,-9.03087 7.32097,-16.35184 16.351845,-16.35184 9.030874,0 16.351842,7.32097 16.351842,16.35184 z"
         sodipodi:ry="16.351845"
         sodipodi:rx="16.351845"
         sodipodi:cy="442.48889"
         sodipodi:cx="88.072678"
         id="path3849-7"
         style="color:#000000;fill:#000000;fill-opacity:0.19607843;fill-rule:nonzero;stroke:none;stroke-width:4;marker:none;visibility:visible;display:inline;overflow:visible;enable-background:accumulate"
         sodipodi:type="arc" />
      <path
         transform="matrix(0.98823526,0,0,0.98461538,242.58635,105.73067)"
         d="m 91.607142,442.55804 c 0,3.36549 -2.718271,6.09375 -6.071429,6.09375 -3.353157,0 -6.071429,-2.72826 -6.071429,-6.09375 0,-3.36548 2.718272,-6.09375 6.071429,-6.09375 3.353158,0 6.071429,2.72827 6.071429,6.09375 z"
         sodipodi:ry="6.09375"
         sodipodi:rx="6.0714288"
         sodipodi:cy="442.55804"
         sodipodi:cx="85.535713"
         id="path3847-1"
         style="color:#000000;fill:#ffffff;fill-opacity:1;fill-rule:nonzero;stroke:none;stroke-width:4;marker:none;visibility:visible;display:inline;overflow:visible;enable-background:accumulate"
         sodipodi:type="arc" />
      <path
         transform="matrix(0.86100387,0,0,0.86100387,299.3681,113.11934)"
         d="m 104.42452,442.48889 c 0,9.03088 -7.320968,16.35185 -16.351842,16.35185 -9.030875,0 -16.351845,-7.32097 -16.351845,-16.35185 0,-9.03087 7.32097,-16.35184 16.351845,-16.35184 9.030874,0 16.351842,7.32097 16.351842,16.35184 z"
         sodipodi:ry="16.351845"
         sodipodi:rx="16.351845"
         sodipodi:cy="442.48889"
         sodipodi:cx="88.072678"
         id="path3849-77"
         style="color:#000000;fill:#000000;fill-opacity:0.19607843;fill-rule:nonzero;stroke:none;stroke-width:4;marker:none;visibility:visible;display:inline;overflow:visible;enable-background:accumulate"
         sodipodi:type="arc" />
      <path
         transform="matrix(0.98823526,0,0,0.98461538,290.66961,58.354531)"
         d="m 91.607142,442.55804 c 0,3.36549 -2.718271,6.09375 -6.071429,6.09375 -3.353157,0 -6.071429,-2.72826 -6.071429,-6.09375 0,-3.36548 2.718272,-6.09375 6.071429,-6.09375 3.353158,0 6.071429,2.72827 6.071429,6.09375 z"
         sodipodi:ry="6.09375"
         sodipodi:rx="6.0714288"
         sodipodi:cy="442.55804"
         sodipodi:cx="85.535713"
         id="path3847-6"
         style="color:#000000;fill:#ffffff;fill-opacity:1;fill-rule:nonzero;stroke:none;stroke-width:4;marker:none;visibility:visible;display:inline;overflow:visible;enable-background:accumulate"
         sodipodi:type="arc" />
    </g>
    <path
       style="fill:#3242c4;stroke:#2f0a09;stroke-width:4;stroke-linecap:butt;stroke-linejoin:miter;stroke-opacity:1;fill-opacity:1;stroke-miterlimit:4;stroke-dasharray:none"
       d="m 152,320 40,40 64,0 0,-64 184,-144 56,-136 -136,56 -144,184 -64,0 z"
       id="path3098"
       inkscape:connector-curvature="0"
       sodipodi:nodetypes="cccccccccc"
       transform="translate(236,121.50504)" />
    <path
       style="fill:#000000;fill-opacity:0.07843138;stroke:none;stroke-width:4;stroke-linecap:butt;stroke-linejoin:miter;stroke-miterlimit:4;stroke-opacity:1;stroke-dasharray:none"
       d="M 484.8125 43.1875 L 376 88 L 232 272 L 168 272 L 168 336 L 192 360 L 256 360 L 256 296 L 440 152 L 484.8125 43.1875 z "
       transform="translate(236,121.50504)"
       id="path3098-8" />
    <path
       style="fill:#000000;fill-opacity:0.07843138;stroke:none;stroke-width:4;stroke-linecap:butt;stroke-linejoin:miter;stroke-miterlimit:4;stroke-opacity:1;stroke-dasharray:none"
       d="M 496 16 L 360 72 L 216 256 L 152 256 L 152 320 L 192 360 L 256 360 L 256 296 L 440 152 L 496 16 z M 478.4375 33.5625 L 432.125 146.03125 L 250.125 288.46875 A 9.552961 9.552961 0 0 0 246.4375 296 L 246.4375 350.4375 L 195.9375 350.4375 L 161.5625 316.0625 L 161.5625 265.5625 L 216 265.5625 A 9.552961 9.552961 0 0 0 223.53125 261.875 L 365.96875 79.875 L 478.4375 33.5625 z "
       transform="translate(236,121.50504)"
       id="path3098-5" />
    <path
       style="fill:#000000;fill-opacity:0.07843138;stroke:none"
       d="M 480.125 54.53125 L 433.65625 73.65625 L 408 136 L 216 296 L 370.125 99.8125 L 360 104 L 216 288 L 152 288 L 152 320 L 192 360 L 256 360 L 256 328 L 256 296 L 440 152 L 480.125 54.53125 z "
       transform="translate(236,121.50504)"
       id="path3098-1-7" />
    <path
       style="fill:#ffffff;fill-opacity:0.07843138;stroke:none"
       d="M 433.65625 73.65625 L 370.125 99.8125 L 216 296 L 408 136 L 433.65625 73.65625 z "
       transform="translate(236,121.50504)"
       id="path3098-1" />
    <path
       style="fill:#d3cec0;fill-opacity:1;stroke:#b4ad87;stroke-width:5;stroke-linecap:butt;stroke-linejoin:miter;stroke-miterlimit:4;stroke-opacity:1;stroke-dasharray:none"
       d="m 491.99829,422.11646 -0.004,20.16499 -131.52467,31.95197 26.97081,-27.20542 z"
       id="path4005-4"
       inkscape:connector-curvature="0"
       sodipodi:nodetypes="ccccc" />
    <path
       style="color:#000000;fill:#000000;fill-opacity:0.19607843;fill-rule:nonzero;stroke:none;stroke-width:4;marker:none;visibility:visible;display:inline;overflow:visible;enable-background:accumulate"
       d="M 258.5 297.4375 L 255.40625 298.1875 L 213.25 308.21875 L 180.34375 341.71875 L 256.59375 323.21875 L 258.5 322.75 L 258.5 320.78125 L 258.5 300.625 L 258.5 297.4375 z "
       transform="translate(236,121.50504)"
       id="rect3019-0" />
    <path
       style="fill:#d3cec0;fill-opacity:1;stroke:#b4ad87;stroke-width:5;stroke-linecap:butt;stroke-linejoin:miter;stroke-miterlimit:4;stroke-opacity:1;stroke-dasharray:none"
       d="m 446.89333,376.65435 -15.3974,0.15228 -32.14323,127.73879 23.04224,-22.65446 z"
       id="path4005"
       inkscape:connector-curvature="0"
       sodipodi:nodetypes="ccccc" />
    <path
       style="fill:#d3cec0;fill-opacity:1;stroke:#b4ad87;stroke-width:5;stroke-linecap:butt;stroke-linejoin:miter;stroke-miterlimit:4;stroke-opacity:1;stroke-dasharray:none"
       d="m 362.60777,470.36088 40.4061,30.80965 -15.24637,14.7413 -39.14342,-31.06219 z"
       id="path4036"
       inkscape:connector-curvature="0"
       sodipodi:nodetypes="ccccc" />
    <path
       style="color:#000000;fill:#000000;fill-opacity:0.19607843;fill-rule:nonzero;stroke:none;stroke-width:4;marker:none;visibility:visible;display:inline;overflow:visible;enable-background:accumulate"
       d="M 197.34375 324.4375 L 168 354.28125 L 160.9375 382.4375 L 158.75 391.0625 L 165.09375 384.8125 L 188.15625 362.1875 L 188.65625 361.65625 L 188.84375 360.96875 L 197.34375 324.4375 z "
       transform="translate(236,121.50504)"
       id="rect3019-8" />
    <path
       style="color:#000000;fill:#000000;fill-opacity:0.19607843;fill-rule:nonzero;stroke:none;stroke-width:4;marker:none;visibility:visible;display:inline;overflow:visible;enable-background:accumulate"
       d="M 155.09375 367.4375 L 137 385.875 L 150.21875 396.375 L 151.9375 397.71875 L 153.5 396.21875 L 168.75 381.46875 L 170.84375 379.4375 L 168.53125 377.6875 L 155.09375 367.4375 z "
       transform="translate(236,121.50504)"
       id="rect3019-3" />
  </g>
</svg>
