<?xml version="1.0" encoding="UTF-8" standalone="no"?>
<!-- Created with Inkscape (http://www.inkscape.org/) -->

<svg
   xmlns:dc="http://purl.org/dc/elements/1.1/"
   xmlns:cc="http://creativecommons.org/ns#"
   xmlns:rdf="http://www.w3.org/1999/02/22-rdf-syntax-ns#"
   xmlns:svg="http://www.w3.org/2000/svg"
   xmlns="http://www.w3.org/2000/svg"
   version="1.1"
   width="512"
   height="512"
   id="svg2">
  <defs
     id="defs4" />
  <metadata
     id="metadata7">
    <rdf:RDF>
      <cc:Work
         rdf:about="">
        <dc:format>image/svg+xml</dc:format>
        <dc:type
           rdf:resource="http://purl.org/dc/dcmitype/StillImage" />
        <dc:title></dc:title>
      </cc:Work>
    </rdf:RDF>
  </metadata>
  <g
     transform="translate(190.28572,29.352102)"
     id="layer1">
    <path
       d="m 616.4286,303.42856 40.28237,64.55607 -48.94853,58.25973 -70.53423,-28.54957 5.35598,-75.90434 z"
       transform="matrix(1.087597,-0.44186022,0.44186022,1.087597,-892.27765,110.54173)"
       id="path3003-85"
       style="color:#000000;fill:#91bdbc;fill-opacity:1;fill-rule:nonzero;stroke:none;stroke-width:5;marker:none;visibility:visible;display:inline;overflow:visible;enable-background:accumulate" />
    <path
       d="M 121.09375,228.96875 48.875,281.5625 66.3125,335.03125 147.34375,334.9375 170.125,264.5 121.09375,228.96875 z"
       transform="translate(-190.28572,-29.352102)"
       id="path3003-85-2"
       style="color:#000000;fill:#000000;fill-opacity:0.07843137;fill-rule:nonzero;stroke:none;stroke-width:5;marker:none;visibility:visible;display:inline;overflow:visible;enable-background:accumulate" />
    <path
       d="m 102.5,197.53125 -72.1875,52.59375 27.71875,84.90625 89.3125,-0.0937 27.5,-85 L 102.5,197.53125 z m 0.0312,19.53125 53.78125,38.96875 -20.4375,63.125 -66.4375,0.0625 L 48.875,256.125 102.53125,217.0625 z"
       transform="translate(-190.28572,-29.352102)"
       id="path3003-85-5"
       style="color:#000000;fill:#000000;fill-opacity:0.07843137;fill-rule:nonzero;stroke:none;stroke-width:5;marker:none;visibility:visible;display:inline;overflow:visible;enable-background:accumulate" />
    <path
       d="m 102.5,197.53125 -72.1875,52.59375 27.71875,84.90625 89.3125,-0.0937 27.5,-85 L 102.5,197.53125 z m 0.0312,3.3125 69.1875,50.15625 -26.34375,81.25 -85.40625,0.0937 -26.5,-81.21875 69.0625,-50.28125 z"
       transform="translate(-190.28572,-29.352102)"
       id="path3003-85-4"
       style="color:#000000;fill:#000000;fill-opacity:0.39215686;fill-rule:nonzero;stroke:none;stroke-width:5;marker:none;visibility:visible;display:inline;overflow:visible;enable-background:accumulate" />
    <path
       d="m 616.4286,303.42856 40.28237,64.55607 -48.94853,58.25973 -70.53423,-28.54957 5.35598,-75.90434 z"
       transform="matrix(1.0180382,-0.64745255,0.64745255,1.0180382,-835.85973,315.49853)"
       id="path3003-00"
       style="color:#000000;fill:#91bdbc;fill-opacity:1;fill-rule:nonzero;stroke:none;stroke-width:5;marker:none;visibility:visible;display:inline;overflow:visible;enable-background:accumulate" />
    <path
       d="m 178.4375,254.65625 -63.28125,66.5 43.6875,80.71875 90.28125,-16.59375 12.125,-91 -82.8125,-39.625 z m 0.9375,4.9375 77.40625,37.09375 -11.34375,85.09375 -84.4375,15.5 -40.875,-75.46875 59.25,-62.21875 z"
       transform="translate(-190.28572,-29.352102)"
       id="path3003-00-4"
       style="color:#000000;fill:#000000;fill-opacity:0.39215686;fill-rule:nonzero;stroke:none;stroke-width:5;marker:none;visibility:visible;display:inline;overflow:visible;enable-background:accumulate" />
    <path
       d="m 178.4375,254.65625 -63.28125,66.5 43.6875,80.71875 90.28125,-16.59375 12.125,-91 -82.8125,-39.625 z m 5.09375,27.53125 53.0625,25.40625 -7.78125,58.34375 -57.90625,10.65625 -27.96875,-51.75 40.59375,-42.65625 z"
       transform="translate(-190.28572,-29.352102)"
       id="path3003-00-1"
       style="color:#000000;fill:#000000;fill-opacity:0.07843137;fill-rule:nonzero;stroke:none;stroke-width:5;marker:none;visibility:visible;display:inline;overflow:visible;enable-background:accumulate" />
    <path
       d="M 203.78125,294.5 140.5,361.03125 162.28125,401.25 249.125,385.28125 l 8.65625,-64.9375 -54,-25.84375 z"
       transform="translate(-190.28572,-29.352102)"
       id="path3003-00-7"
       style="color:#000000;fill:#000000;fill-opacity:0.07843137;fill-rule:nonzero;stroke:none;stroke-width:5;marker:none;visibility:visible;display:inline;overflow:visible;enable-background:accumulate" />
    <path
       d="m 616.4286,303.42856 40.28237,64.55607 -48.94853,58.25973 -70.53423,-28.54957 5.35598,-75.90434 z"
       transform="matrix(1.241059,0.28478619,-0.28478619,1.241059,-515.00832,-294.10075)"
       id="path3003-2"
       style="color:#000000;fill:#91bdbc;fill-opacity:1;fill-rule:nonzero;stroke:none;stroke-width:5;marker:none;visibility:visible;display:inline;overflow:visible;enable-background:accumulate" />
    <path
       d="m 353.875,287.375 -96.875,1.75 -28.25,92.6875 79.40625,55.5 L 385.5,378.96875 353.875,287.375 z m -15.0625,21.59375 21.53125,62.375 -52.65625,39.6875 -54.0625,-37.8125 19.28125,-63.09375 65.90625,-1.15625 z"
       transform="translate(-190.28572,-29.352102)"
       id="path3003-2-7"
       style="color:#000000;fill:#000000;fill-opacity:0.07843137;fill-rule:nonzero;stroke:none;stroke-width:5;marker:none;visibility:visible;display:inline;overflow:visible;enable-background:accumulate" />
    <path
       d="m 353.875,287.375 -96.875,1.75 -28.25,92.6875 79.40625,55.5 L 385.5,378.96875 353.875,287.375 z m -2.78125,4 29.75,86.1875 -72.8125,54.875 -74.6875,-52.25 26.625,-87.15625 91.125,-1.65625 z"
       transform="translate(-190.28572,-29.352102)"
       id="path3003-2-0"
       style="color:#000000;fill:#000000;fill-opacity:0.39215686;fill-rule:nonzero;stroke:none;stroke-width:5;marker:none;visibility:visible;display:inline;overflow:visible;enable-background:accumulate" />
    <path
       d="m 616.4286,303.42856 40.28237,64.55607 -48.94853,58.25973 -70.53423,-28.54957 5.35598,-75.90434 z"
       transform="matrix(0.58551136,-0.9466938,0.9466938,0.58551136,-485.76643,597.99886)"
       id="path3003-0"
       style="color:#000000;fill:#91bdbc;fill-opacity:1;fill-rule:nonzero;stroke:none;stroke-width:5;marker:none;visibility:visible;display:inline;overflow:visible;enable-background:accumulate" />
    <path
       d="m 247.09943,191.74165 -84.6875,0.34375 -25.84375,80.65625 68.71875,49.53125 68.3125,-50.0625 -26.5,-80.46875 z m -12.9375,18 18.3125,55.71875 -47.28125,34.625 -47.5625,-34.28125 17.90625,-55.84375 58.625,-0.21875 z"
       id="path3003-0-2"
       style="color:#000000;fill:#000000;fill-opacity:0.07843137;fill-rule:nonzero;stroke:none;stroke-width:5;marker:none;visibility:visible;display:inline;overflow:visible;enable-background:accumulate" />
    <path
       d="m 616.4286,303.42856 40.28237,64.55607 -48.94853,58.25973 -70.53423,-28.54957 5.35598,-75.90434 z"
       transform="matrix(0.14300224,-0.96352767,0.96352767,0.14300224,-464.87299,689.20203)"
       id="path3003-3"
       style="color:#000000;fill:#91bdbc;fill-opacity:1;fill-rule:nonzero;stroke:none;stroke-width:5;marker:none;visibility:visible;display:inline;overflow:visible;enable-background:accumulate" />
    <path
       d="M 173.875,138.40625 105.9375,168 l 7.125,73.78125 72.375,16 37.59375,-63.875 -49.15625,-55.5 z m -1,4.6875 45.375,51.28125 -34.71875,59.03125 -66.90625,-14.84375 -6.59375,-68.15625 62.84375,-27.3125 z"
       transform="translate(-190.28572,-29.352102)"
       id="path3003-3-8"
       style="color:#000000;fill:#000000;fill-opacity:0.39215686;fill-rule:nonzero;stroke:none;stroke-width:5;marker:none;visibility:visible;display:inline;overflow:visible;enable-background:accumulate" />
    <path
       d="m 6.7366014,138.86665 -67.9687504,29.59375 4.59375,47.65625 55.71875043,12.3125 34.71874957,-59 -27.0624996,-30.5625 z"
       id="path3003-3-3"
       style="color:#000000;fill:#000000;fill-opacity:0.07843137;fill-rule:nonzero;stroke:none;stroke-width:5;marker:none;visibility:visible;display:inline;overflow:visible;enable-background:accumulate" />
    <path
       d="M 173.875,138.40625 105.9375,168 l 7.125,73.78125 72.375,16 37.59375,-63.875 -49.15625,-55.5 z m -5,22.84375 30.9375,34.90625 L 176.09375,236.375 130.53125,226.28125 126.0625,179.875 168.875,161.25 z"
       transform="translate(-190.28572,-29.352102)"
       id="path3003-3-9"
       style="color:#000000;fill:#000000;fill-opacity:0.07843137;fill-rule:nonzero;stroke:none;stroke-width:5;marker:none;visibility:visible;display:inline;overflow:visible;enable-background:accumulate" />
    <path
       d="m 616.4286,303.42856 40.28237,64.55607 -48.94853,58.25973 -70.53423,-28.54957 5.35598,-75.90434 z"
       transform="matrix(0.57855993,-0.51870231,0.51870231,0.57855993,-502.80024,223.07582)"
       id="path3003-59"
       style="color:#000000;fill:#91bdbc;fill-opacity:1;fill-rule:nonzero;stroke:none;stroke-width:5;marker:none;visibility:visible;display:inline;overflow:visible;enable-background:accumulate" />
    <path
       d="m 201.5,108.25 -33.1875,48.90625 36.28125,46.6875 55.625,-20.0625 L 258.3125,124.6875 201.5,108.25 z m 8.75,24.21875 27.71875,8.03125 0.9375,28.8125 -27.15625,9.78125 -17.6875,-22.75 16.1875,-23.875 z"
       transform="translate(-190.28572,-29.352102)"
       id="path3003-59-4"
       style="color:#000000;fill:#000000;fill-opacity:0.07843137;fill-rule:nonzero;stroke:none;stroke-width:5;marker:none;visibility:visible;display:inline;overflow:visible;enable-background:accumulate" />
    <path
       d="m 223.75,147.625 -29.3125,43.15625 10.15625,13.0625 55.625,-20.0625 L 259.375,157.96875 223.75,147.625 z"
       transform="translate(-190.28572,-29.352102)"
       id="path3003-59-9"
       style="color:#000000;fill:#000000;fill-opacity:0.07843137;fill-rule:nonzero;stroke:none;stroke-width:5;marker:none;visibility:visible;display:inline;overflow:visible;enable-background:accumulate" />
    <path
       d="M 11.239545,78.885056 -21.968558,127.80094 14.294438,174.50528 69.916434,154.44566 68.033375,95.344349 11.239545,78.885056 z m 1.910208,5.331704 50.42972,14.598911 1.661152,52.451659 -49.376326,17.78655 -32.1832,-41.42622 29.468654,-43.4109 z"
       id="path3003-5-4"
       style="color:#000000;fill:#000000;fill-opacity:0.39215686;fill-rule:nonzero;stroke:none;stroke-width:5;marker:none;visibility:visible;display:inline;overflow:visible;enable-background:accumulate" />
    <path
       d="m 616.4286,303.42856 40.28237,64.55607 -48.94853,58.25973 -70.53423,-28.54957 5.35598,-75.90434 z"
       transform="matrix(0.89134354,-0.75547813,0.75547813,0.89134354,-697.8373,241.18674)"
       id="path3003-7"
       style="color:#000000;fill:#91bdbc;fill-opacity:1;fill-rule:nonzero;stroke:none;stroke-width:5;marker:none;visibility:visible;display:inline;overflow:visible;enable-background:accumulate" />
    <path
       d="m 271.125,75.3125 -51.9375,72.15625 52.5625,71.6875 84.4375,-27.84375 -0.375,-88.90625 L 271.125,75.3125 z m 7.5625,22.875 57.6875,18.46875 0.21875,60.59375 -57.5,18.96875 -35.8125,-48.90625 35.40625,-49.125 z"
       transform="translate(-190.28572,-29.352102)"
       id="path3003-7-4"
       style="color:#000000;fill:#000000;fill-opacity:0.07843137;fill-rule:nonzero;stroke:none;stroke-width:5;marker:none;visibility:visible;display:inline;overflow:visible;enable-background:accumulate" />
    <path
       d="m 295.375,109.65625 -51.46875,71.5 27.84375,38 84.4375,-27.84375 -0.25,-62.28125 -60.5625,-19.375 z"
       transform="translate(-190.28572,-29.352102)"
       id="path3003-7-0"
       style="color:#000000;fill:#000000;fill-opacity:0.07843137;fill-rule:nonzero;stroke:none;stroke-width:5;marker:none;visibility:visible;display:inline;overflow:visible;enable-background:accumulate" />
    <path
       d="m 271.125,75.3125 -51.9375,72.15625 52.5625,71.6875 84.4375,-27.84375 -0.375,-88.90625 L 271.125,75.3125 z m 1.71875,5.09375 78.625,25.1875 0.375,82.59375 -78.5,25.8125 -48.78125,-66.59375 48.28125,-67 z"
       transform="translate(-190.28572,-29.352102)"
       id="path3003-7-9"
       style="color:#000000;fill:#000000;fill-opacity:0.39215686;fill-rule:nonzero;stroke:none;stroke-width:5;marker:none;visibility:visible;display:inline;overflow:visible;enable-background:accumulate" />
    <path
       d="m 247.09943,191.74165 -84.6875,0.34375 -25.84375,80.65625 68.71875,49.53125 68.3125,-50.0625 -26.5,-80.46875 z m -2.90625,4.09375 24.59375,74.84375 -63.53125,46.53125 -63.90625,-46.0625 24.0625,-75 78.78125,-0.3125 z"
       id="path3003-0-1"
       style="color:#000000;fill:#000000;fill-opacity:0.39215686;fill-rule:nonzero;stroke:none;stroke-width:5;marker:none;visibility:visible;display:inline;overflow:visible;enable-background:accumulate" />
    <path
       d="m 616.4286,303.42856 40.28237,64.55607 -48.94853,58.25973 -70.53423,-28.54957 5.35598,-75.90434 z"
       transform="matrix(0.6326777,-0.40480314,0.42335965,0.60494647,-404.08964,213.20882)"
       id="path3003"
       style="color:#000000;fill:#91bdbc;fill-opacity:1;fill-rule:nonzero;stroke:none;stroke-width:5;marker:none;visibility:visible;display:inline;overflow:visible;enable-background:accumulate" />
    <path
       d="m 114.37981,147.23643 -38.953301,40.98918 28.735011,48.09502 56.71577,-11.27249 6.32072,-55.06084 -52.8182,-22.75087 z m 1.11783,5.19659 46.90179,20.18664 -5.6193,48.86446 -50.34444,9.98762 -25.505407,-42.66217 34.567357,-36.37655 z"
       id="path3003-5"
       style="color:#000000;fill:#000000;fill-opacity:0.39215686;fill-rule:nonzero;stroke:none;stroke-width:5;marker:none;visibility:visible;display:inline;overflow:visible;enable-background:accumulate" />
    <path
       d="m 304.65625,176.59375 -38.9375,41 28.75,48.09375 56.6875,-11.28125 6.3125,-55.0625 -52.8125,-22.75 z m 4.96875,22.75 26.75,11.53125 -3.1875,27.90625 -28.78125,5.71875 -14.53125,-24.40625 19.75,-20.75 z"
       transform="translate(-190.28572,-29.352102)"
       id="path3003-86"
       style="color:#000000;fill:#000000;fill-opacity:0.03921569;fill-rule:nonzero;stroke:none;stroke-width:5;marker:none;visibility:visible;display:inline;overflow:visible;enable-background:accumulate" />
    <path
       d="m 328,214.90625 -33.15625,34.90625 8.4375,14.125 47.875,-9.53125 3.21875,-28.125 -26.375,-11.375 z"
       transform="translate(-190.28572,-29.352102)"
       id="path3003-1"
       style="color:#000000;fill:#000000;fill-opacity:0.07843137;fill-rule:nonzero;stroke:none;stroke-width:5;marker:none;visibility:visible;display:inline;overflow:visible;enable-background:accumulate" />
    <path
       d="m 616.4286,303.42856 40.28237,64.55607 -48.94853,58.25973 -70.53423,-28.54957 5.35598,-75.90434 z"
       transform="matrix(0.53739269,-0.26577344,0.26577344,0.53739269,-392.98925,158.75596)"
       id="path3003-8"
       style="color:#000000;fill:#91bdbc;fill-opacity:1;fill-rule:nonzero;stroke:none;stroke-width:5;marker:none;visibility:visible;display:inline;overflow:visible;enable-background:accumulate" />
    <path
       d="m 209.21875,187.34375 -34.8125,29.5 17.28125,42.1875 45.5,-3.375 L 248,211.3125 209.21875,187.34375 z m 1.90625,25.3125 13.375,8.28125 -3.71875,15.34375 -15.75,1.15625 -5.96875,-14.59375 12.0625,-10.1875 z"
       transform="translate(-190.28572,-29.352102)"
       id="path3003-8-6"
       style="color:#000000;fill:#000000;fill-opacity:0.07843137;fill-rule:nonzero;stroke:none;stroke-width:5;marker:none;visibility:visible;display:inline;overflow:visible;enable-background:accumulate" />
    <path
       d="m 233.9375,212.09375 -34.78125,29.5 6.71875,16.375 31.3125,-2.3125 8.8125,-36.125 -12.0625,-7.4375 z"
       transform="translate(-190.28572,-29.352102)"
       id="path3003-8-9"
       style="color:#000000;fill:#000000;fill-opacity:0.07843137;fill-rule:nonzero;stroke:none;stroke-width:5;marker:none;visibility:visible;display:inline;overflow:visible;enable-background:accumulate" />
    <path
       d="m 18.925378,157.98835 -34.807822,29.4835 17.2853886,42.22 45.4941394,-3.39606 10.834139,-44.31772 -38.805845,-23.98972 z m 0.316148,4.35827 34.460719,21.28962 -9.622623,39.32933 -40.3814364,2.9994 -15.3455686,-37.45245 30.888909,-26.1659 z"
       id="path3003-5-2"
       style="color:#000000;fill:#000000;fill-opacity:0.39215686;fill-rule:nonzero;stroke:none;stroke-width:5;marker:none;visibility:visible;display:inline;overflow:visible;enable-background:accumulate" />
    <path
       d="m 371,337 -89.75,1.625 -20.0625,65.84375 46.96875,32.84375 L 385.5,378.96875 371,337 z"
       transform="translate(-190.28572,-29.352102)"
       id="path3003-2-1"
       style="color:#000000;fill:#000000;fill-opacity:0.07843137;fill-rule:nonzero;stroke:none;stroke-width:5;marker:none;visibility:visible;display:inline;overflow:visible;enable-background:accumulate" />
    <path
       d="m 616.4286,303.42856 40.28237,64.55607 -48.94853,58.25973 -70.53423,-28.54957 5.35598,-75.90434 z"
       transform="matrix(0.82219895,-0.76861501,0.76861501,0.82219895,-684.86774,403.87251)"
       id="path3003-4"
       style="color:#000000;fill:#91bdbc;fill-opacity:1;fill-rule:nonzero;stroke:none;stroke-width:5;marker:none;visibility:visible;display:inline;overflow:visible;enable-background:accumulate" />
    <path
       d="M 245.46875,208.90625 198.875,280.75 l 53.9375,66.53125 79.9375,-30.71875 -4.53125,-85.53125 -82.75,-22.125 z m 10.5,27.3125 49.5,13.21875 2.71875,51.15625 L 260.34375,319 l -32.25,-39.8125 27.875,-42.96875 z"
       transform="translate(-190.28572,-29.352102)"
       id="path3003-4-7"
       style="color:#000000;fill:#000000;fill-opacity:0.07843137;fill-rule:nonzero;stroke:none;stroke-width:5;marker:none;visibility:visible;display:inline;overflow:visible;enable-background:accumulate" />
    <path
       d="m 259.44318,229.17915 -65.71875,0.28125 -22,68.625 33.5625,24.1875 68.3125,-50.0625 -14.15625,-43.03125 z"
       id="path3003-0-4"
       style="color:#000000;fill:#000000;fill-opacity:0.07843137;fill-rule:nonzero;stroke:none;stroke-width:5;marker:none;visibility:visible;display:inline;overflow:visible;enable-background:accumulate" />
    <g
       id="g5474"
       style="fill:#91bdbc;fill-opacity:1">
      <path
         d="m 631.78574,456.28573 -22.90859,-9.8976 2.33403,-24.84589 24.35111,-5.45801 12.71577,21.47266 z"
         transform="translate(-694.57143,-29.352102)"
         id="path5001"
         style="color:#000000;fill:#91bdbc;fill-opacity:1;fill-rule:nonzero;stroke:none;stroke-width:5;marker:none;visibility:visible;display:inline;overflow:visible;enable-background:accumulate" />
      <path
         d="m 619.99999,408.07144 -32.16965,-11.43656 0.93585,-34.12925 32.74804,-9.65647 19.30355,28.16121 z"
         transform="translate(-694.57143,-29.352102)"
         id="path5003"
         style="color:#000000;fill:#91bdbc;fill-opacity:1;fill-rule:nonzero;stroke:none;stroke-width:5;marker:none;visibility:visible;display:inline;overflow:visible;enable-background:accumulate" />
      <path
         d="m 897.85713,376.64285 -16.30655,-17.55595 11.6577,-20.93354 23.51141,4.61831 2.87315,23.78782 z"
         transform="translate(-694.57143,-29.352102)"
         id="path5005"
         style="color:#000000;fill:#91bdbc;fill-opacity:1;fill-rule:nonzero;stroke:none;stroke-width:5;marker:none;visibility:visible;display:inline;overflow:visible;enable-background:accumulate" />
      <path
         d="m 897.85713,376.64285 -16.30655,-17.55595 11.6577,-20.93354 23.51141,4.61831 2.87315,23.78782 z"
         transform="translate(-694.57143,-29.352098)"
         id="path5005-1"
         style="color:#000000;fill:#91bdbc;fill-opacity:1;fill-rule:nonzero;stroke:none;stroke-width:5;marker:none;visibility:visible;display:inline;overflow:visible;enable-background:accumulate" />
      <path
         d="m 897.85713,376.64285 -16.30655,-17.55595 11.6577,-20.93354 23.51141,4.61831 2.87315,23.78782 z"
         transform="translate(-694.57143,-29.352098)"
         id="path5005-1-7"
         style="color:#000000;fill:#91bdbc;fill-opacity:1;fill-rule:nonzero;stroke:none;stroke-width:5;marker:none;visibility:visible;display:inline;overflow:visible;enable-background:accumulate" />
    </g>
    <path
       d="M 245.46875,208.90625 198.875,280.75 l 53.9375,66.53125 79.9375,-30.71875 -4.53125,-85.53125 -82.75,-22.125 z m 1.5,3.90625 78,20.875 4.25,80.625 -75.34375,28.9375 -50.84375,-62.75 43.9375,-67.6875 z"
       transform="translate(-190.28572,-29.352102)"
       id="path3003-4-2"
       style="color:#000000;fill:#000000;fill-opacity:0.39215686;fill-rule:nonzero;stroke:none;stroke-width:5;marker:none;visibility:visible;display:inline;overflow:visible;enable-background:accumulate" />
    <path
       d="m 616.4286,303.42856 40.28237,64.55607 -48.94853,58.25973 -70.53423,-28.54957 5.35598,-75.90434 z"
       transform="matrix(0.6317915,-0.30362839,0.30362839,0.6317915,-432.45397,122.98682)"
       id="path3003-47"
       style="color:#000000;fill:#91bdbc;fill-opacity:1;fill-rule:nonzero;stroke:none;stroke-width:5;marker:none;visibility:visible;display:inline;overflow:visible;enable-background:accumulate" />
    <path
       d="M 49.13825,127.52814 8.0540654,161.53863 27.705489,211.12755 80.938928,207.7578 94.190607,156.08764 49.13825,127.52814 z m 0.312074,5.09957 40.007987,25.34536 -11.769394,45.85406 -47.250783,2.97352 -17.446471,-43.98943 36.458661,-30.18351 z"
       id="path3003-5-43"
       style="color:#000000;fill:#000000;fill-opacity:0.39215686;fill-rule:nonzero;stroke:none;stroke-width:5;marker:none;visibility:visible;display:inline;overflow:visible;enable-background:accumulate" />
    <path
       d="m 616.4286,303.42856 40.28237,64.55607 -48.94853,58.25973 -70.53423,-28.54957 5.35598,-75.90434 z"
       transform="matrix(0.54127319,-0.42934937,0.42934937,0.54127319,-299.67819,220.01753)"
       id="path3003-07"
       style="color:#000000;fill:#91bdbc;fill-opacity:1;fill-rule:nonzero;stroke:none;stroke-width:5;marker:none;visibility:visible;display:inline;overflow:visible;enable-background:accumulate" />
    <path
       d="m 164.2636,119.59307 -32.09378,41.63375 29.68097,43.39376 50.43997,-14.82243 1.49587,-52.55386 -49.52303,-17.65122 z m 1.4096,4.8343 43.97452,15.65907 -1.33647,46.64035 -44.77507,13.13976 -26.34295,-38.49076 28.47997,-36.94842 z"
       id="path3003-5-5"
       style="color:#000000;fill:#000000;fill-opacity:0.39215686;fill-rule:nonzero;stroke:none;stroke-width:5;marker:none;visibility:visible;display:inline;overflow:visible;enable-background:accumulate" />
    <path
       d="m 616.4286,303.42856 40.28237,64.55607 -48.94853,58.25973 -70.53423,-28.54957 5.35598,-75.90434 z"
       transform="matrix(0.52071108,-0.1816814,0.1816814,0.52071108,-374.10305,149.93788)"
       id="path3003-16"
       style="color:#000000;fill:#91bdbc;fill-opacity:1;fill-rule:nonzero;stroke:none;stroke-width:5;marker:none;visibility:visible;display:inline;overflow:visible;enable-background:accumulate" />
    <path
       d="m 2.011727,195.94592 -35.118557,22.96783 10.991946,40.50176 41.915677,2.05859 14.915619,-39.22814 -32.704685,-26.30004 z m -0.2056094,4.01442 29.0442964,23.34247 -13.243985,34.81171 -37.203444,-1.84092 -9.761723,-35.92963 31.1648556,-20.38363 z"
       id="path3003-5-46"
       style="color:#000000;fill:#000000;fill-opacity:0.39215686;fill-rule:nonzero;stroke:none;stroke-width:5;marker:none;visibility:visible;display:inline;overflow:visible;enable-background:accumulate" />
    <path
       d="m 192.28125,225.28125 -35.09375,23 11,40.5 41.90625,2.03125 L 225,251.59375 192.28125,225.28125 z m -0.875,18.03125 16.21875,13 -7.40625,19.4375 -20.75,-1.03125 -5.4375,-20.0625 17.375,-11.34375 z"
       transform="translate(-190.28572,-29.352102)"
       id="path3003-16-8"
       style="color:#000000;fill:#000000;fill-opacity:0.07843137;fill-rule:nonzero;stroke:none;stroke-width:5;marker:none;visibility:visible;display:inline;overflow:visible;enable-background:accumulate" />
    <path
       d="m 354.53125,148.9375 -32.0625,41.65625 29.6875,43.375 50.4375,-14.8125 1.46875,-52.5625 -49.53125,-17.65625 z m 5.8125,19.75 26.75,9.53125 -0.8125,28.375 -27.25,8 L 343,191.15625 360.34375,168.6875 z"
       transform="translate(-190.28572,-29.352102)"
       id="path3003-07-3"
       style="color:#000000;fill:#000000;fill-opacity:0.07843137;fill-rule:nonzero;stroke:none;stroke-width:5;marker:none;visibility:visible;display:inline;overflow:visible;enable-background:accumulate" />
    <path
       d="m 239.40625,156.875 -41.0625,34.03125 19.65625,49.5625 53.21875,-3.375 13.25,-51.65625 -45.0625,-28.5625 z m 1.1875,18.21875 26.9375,17.0625 -7.9375,30.90625 -31.8125,2.03125 L 216,195.4375 240.59375,175.09375 z"
       transform="translate(-190.28572,-29.352102)"
       id="path3003-47-7"
       style="color:#000000;fill:#000000;fill-opacity:0.07843137;fill-rule:nonzero;stroke:none;stroke-width:5;marker:none;visibility:visible;display:inline;overflow:visible;enable-background:accumulate" />
    <path
       d="m 265.65625,248.3125 -41.375,63.78125 28.53125,35.1875 79.9375,-30.71875 -2.71875,-51.0625 -64.375,-17.1875 z"
       transform="translate(-190.28572,-29.352102)"
       id="path3003-4-1"
       style="color:#000000;fill:#000000;fill-opacity:0.07843137;fill-rule:nonzero;stroke:none;stroke-width:5;marker:none;visibility:visible;display:inline;overflow:visible;enable-background:accumulate" />
    <path
       d="m 373.71875,180.25 -30.875,40.125 9.3125,13.59375 50.4375,-14.8125 L 403.375,190.8125 373.71875,180.25 z"
       transform="translate(-190.28572,-29.352102)"
       id="path3003-07-8"
       style="color:#000000;fill:#000000;fill-opacity:0.07843137;fill-rule:nonzero;stroke:none;stroke-width:5;marker:none;visibility:visible;display:inline;overflow:visible;enable-background:accumulate" />
    <path
       d="m 260.625,193.25 -41.0625,34 5.0625,12.8125 46.59375,-2.96875 8.1875,-31.9375 L 260.625,193.25 z"
       transform="translate(-190.28572,-29.352102)"
       id="path3003-47-6"
       style="color:#000000;fill:#000000;fill-opacity:0.07843137;fill-rule:nonzero;stroke:none;stroke-width:5;marker:none;visibility:visible;display:inline;overflow:visible;enable-background:accumulate" />
    <path
       d="M 220.21875,264.1875 190.5,283.625 l 1.71875,6.3125 17.875,0.875 10.125,-26.625 z"
       transform="translate(-190.28572,-29.352102)"
       id="path3003-16-4"
       style="color:#000000;fill:#000000;fill-opacity:0.07843137;fill-rule:nonzero;stroke:none;stroke-width:5;marker:none;visibility:visible;display:inline;overflow:visible;enable-background:accumulate" />
    <path
       d="m 863.92858,391.99999 22.91405,21.31866 -13.19442,28.38038 -31.06865,-3.77862 -6.00706,-30.7157 z"
       transform="translate(-701.71429,-33.637816)"
       id="path4995"
       style="color:#000000;fill:#91bdbc;fill-opacity:1;fill-rule:nonzero;stroke:none;stroke-width:5;marker:none;visibility:visible;display:inline;overflow:visible;enable-background:accumulate" />
    <path
       d="m 731.4286,477.00001 -34.49174,-26.09763 14.16179,-40.8682 43.2442,0.83969 12.5646,41.38716 z"
       transform="translate(-693.85714,-30.066388)"
       id="path4997"
       style="color:#000000;fill:#91bdbc;fill-opacity:1;fill-rule:nonzero;stroke:none;stroke-width:5;marker:none;visibility:visible;display:inline;overflow:visible;enable-background:accumulate" />
    <path
       d="m 117.21875,352.84375 -32.75,9.65625 -0.9375,34.125 32.1875,11.4375 20.8125,-27.0625 -19.3125,-28.15625 z m -8.65625,22.84375 3.5625,4.15625 -2.84375,4.65625 -5.3125,-1.25 -0.4375,-5.46875 5.03125,-2.09375 z"
       transform="translate(-190.28572,-29.352102)"
       id="path5003-6"
       style="color:#000000;fill:#000000;fill-opacity:0.07843137;fill-rule:nonzero;stroke:none;stroke-width:5;marker:none;visibility:visible;display:inline;overflow:visible;enable-background:accumulate" />
    <path
       d="m 117.21875,352.84375 -32.75,9.65625 -0.9375,34.125 32.1875,11.4375 20.8125,-27.0625 -19.3125,-28.15625 z m -1.6875,4.71875 16,23.28125 -17.25,22.40625 -26.59375,-9.4375 0.75,-28.25 27.09375,-8 z"
       transform="translate(-190.28572,-29.352102)"
       id="path5003-5"
       style="color:#000000;fill:#000000;fill-opacity:0.39215686;fill-rule:nonzero;stroke:none;stroke-width:5;marker:none;visibility:visible;display:inline;overflow:visible;enable-background:accumulate" />
    <path
       d="M 131.28125,416.09375 106.9375,421.53125 104.59375,446.375 127.5,456.28125 144,437.5625 131.28125,416.09375 z m -2,4.65625 9.65625,16.34375 -12.5625,14.25 -17.4375,-7.53125 1.78125,-18.9375 18.5625,-4.125 z"
       transform="translate(-190.28572,-29.352102)"
       id="path5001-0"
       style="color:#000000;fill:#000000;fill-opacity:0.39215686;fill-rule:nonzero;stroke:none;stroke-width:5;marker:none;visibility:visible;display:inline;overflow:visible;enable-background:accumulate" />
    <path
       d="m 631.78574,456.28573 -22.90859,-9.8976 2.33403,-24.84589 24.35111,-5.45801 12.71577,21.47266 z"
       transform="translate(-694.57143,-29.352102)"
       id="path5001-4"
       style="color:#000000;fill:#000000;fill-opacity:0.07843137;fill-rule:nonzero;stroke:none;stroke-width:5;marker:none;visibility:visible;display:inline;overflow:visible;enable-background:accumulate" />
    <path
       d="m 207.53125,409.3125 -14.15625,40.875 34.46875,26.09375 35.5,-24.75 -12.5625,-41.375 -43.25,-0.84375 z m 15.4375,21.25 12.375,0.84375 3,12.03125 -10.5,6.59375 -9.5,-7.96875 4.625,-11.5 z"
       transform="translate(-190.28572,-29.352102)"
       id="path4997-8"
       style="color:#000000;fill:#000000;fill-opacity:0.07843137;fill-rule:nonzero;stroke:none;stroke-width:5;marker:none;visibility:visible;display:inline;overflow:visible;enable-background:accumulate" />
    <path
       d="m 228.25,447.1875 -8.0625,23.28125 7.65625,5.8125 35.5,-24.75 -1.125,-3.6875 L 228.25,447.1875 z"
       transform="translate(-190.28572,-29.352102)"
       id="path4997-3"
       style="color:#000000;fill:#000000;fill-opacity:0.07843137;fill-rule:nonzero;stroke:none;stroke-width:5;marker:none;visibility:visible;display:inline;overflow:visible;enable-background:accumulate" />
    <path
       d="m 207.53125,409.3125 -14.15625,40.875 34.46875,26.09375 35.5,-24.75 -12.5625,-41.375 -43.25,-0.84375 z m 2.65625,3.84375 37.78125,0.71875 10.96875,36.125 -30.96875,21.625 -30.125,-22.78125 12.34375,-35.6875 z"
       transform="translate(-190.28572,-29.352102)"
       id="path4997-1"
       style="color:#000000;fill:#000000;fill-opacity:0.39215686;fill-rule:nonzero;stroke:none;stroke-width:5;marker:none;visibility:visible;display:inline;overflow:visible;enable-background:accumulate" />
    <path
       d="m 352.5,387.71875 -27.34375,15.1875 6,30.71875 31.0625,3.78125 13.1875,-28.375 L 352.5,387.71875 z m -0.5,4.09375 19.34375,18 -11.125,24 -26.25,-3.21875 L 328.875,404.65625 352,391.8125 z"
       transform="translate(-190.28572,-29.352102)"
       id="path4995-9"
       style="color:#000000;fill:#000000;fill-opacity:0.39215686;fill-rule:nonzero;stroke:none;stroke-width:5;marker:none;visibility:visible;display:inline;overflow:visible;enable-background:accumulate" />
    <path
       d="m 352.5,387.71875 -27.34375,15.1875 6,30.71875 31.0625,3.78125 13.1875,-28.375 L 352.5,387.71875 z m -2.78125,22.84375 3.125,2.90625 -1.8125,3.84375 -4.21875,-0.53125 -0.8125,-4.125 3.71875,-2.09375 z"
       transform="translate(-190.28572,-29.352102)"
       id="path4995-4"
       style="color:#000000;fill:#000000;fill-opacity:0.07843137;fill-rule:nonzero;stroke:none;stroke-width:5;marker:none;visibility:visible;display:inline;overflow:visible;enable-background:accumulate" />
    <path
       d="m 388.9375,338.15625 -11.6875,20.9375 16.3125,17.5625 21.75,-10.09375 -2.875,-23.78125 -23.5,-4.625 z m 1.96875,4.28125 L 409,346 l 2.1875,18.25 -16.71875,7.78125 -12.5,-13.5 8.9375,-16.09375 z"
       transform="translate(-190.28572,-29.352102)"
       id="path5005-8"
       style="color:#000000;fill:#000000;fill-opacity:0.39215686;fill-rule:nonzero;stroke:none;stroke-width:5;marker:none;visibility:visible;display:inline;overflow:visible;enable-background:accumulate" />
  </g>
</svg>
