<?xml version="1.0" encoding="UTF-8" standalone="no"?>
<!-- Created with Inkscape (http://www.inkscape.org/) -->

<svg
   xmlns:dc="http://purl.org/dc/elements/1.1/"
   xmlns:cc="http://creativecommons.org/ns#"
   xmlns:rdf="http://www.w3.org/1999/02/22-rdf-syntax-ns#"
   xmlns:svg="http://www.w3.org/2000/svg"
   xmlns="http://www.w3.org/2000/svg"
   xmlns:sodipodi="http://sodipodi.sourceforge.net/DTD/sodipodi-0.dtd"
   xmlns:inkscape="http://www.inkscape.org/namespaces/inkscape"
   width="512"
   height="512"
   id="svg2"
   version="1.1"
   inkscape:version="0.48.4 r9939"
   sodipodi:docname="ObsidianPaxel.svg">
  <defs
     id="defs4" />
  <sodipodi:namedview
     id="base"
     pagecolor="#ffffff"
     bordercolor="#666666"
     borderopacity="1.0"
     inkscape:pageopacity="0.0"
     inkscape:pageshadow="2"
     inkscape:zoom="1"
     inkscape:cx="275.22104"
     inkscape:cy="232.21304"
     inkscape:document-units="px"
     inkscape:current-layer="g3042"
     showgrid="false"
     fit-margin-top="0"
     fit-margin-left="0"
     fit-margin-right="0"
     fit-margin-bottom="0"
     inkscape:window-width="1301"
     inkscape:window-height="744"
     inkscape:window-x="65"
     inkscape:window-y="24"
     inkscape:window-maximized="1">
    <inkscape:grid
       type="xygrid"
       id="grid3096"
       empspacing="8"
       visible="true"
       enabled="true"
       snapvisiblegridlinesonly="true" />
  </sodipodi:namedview>
  <metadata
     id="metadata7">
    <rdf:RDF>
      <cc:Work
         rdf:about="">
        <dc:format>image/svg+xml</dc:format>
        <dc:type
           rdf:resource="http://purl.org/dc/dcmitype/StillImage" />
        <dc:title />
      </cc:Work>
    </rdf:RDF>
  </metadata>
  <g
     inkscape:label="Layer 1"
     inkscape:groupmode="layer"
     id="layer1"
     transform="translate(-236,-121.50504)">
    <path
       inkscape:connector-curvature="0"
       style="fill:#411a59;fill-opacity:1;stroke:none"
       d="m 596.55089,161.11567 a 2.6047481,2.6047481 0 0 1 1.5625,0.65625 l 143.75,131 a 2.6047481,2.6047481 0 0 1 -0.78125,4.34375 l -220.90625,88.59375 a 2.6047481,2.6047481 0 0 1 -3.4375,-3.28125 l 77.15625,-219.59375 a 2.6047481,2.6047481 0 0 1 2.65625,-1.71875 z m -0.1875,2.59375 -77.15625,219.59375 220.90625,-88.59375 -143.75,-131 z"
       id="path3112" />
    <path
       style="fill:#7a30a7;fill-opacity:1;stroke:none"
       d="M 740.11576,294.70389 596.35225,163.70231 519.20924,383.28794 z"
       id="path2999-3"
       inkscape:connector-curvature="0"
       sodipodi:nodetypes="cccc" />
    <path
       inkscape:connector-curvature="0"
       style="fill:#000000;fill-opacity:0.19607843;stroke:none"
       d="m 596.36339,163.70942 23.375,21.28125 -54.0625,153.84375 154.78125,-62.0625 19.65625,17.9375 -220.90625,88.59375 77.15625,-219.59375 z"
       id="path2999-2" />
    <path
       inkscape:connector-curvature="0"
       style="fill:#ffffff;fill-opacity:0.11764706;stroke:none"
       d="m 596.36339,163.70942 143.75,131 -49.375,19.8125 -111.625,-101.71875 17.25,-49.09375 z"
       id="path2999-1" />
    <path
       inkscape:connector-curvature="0"
       style="fill:#000000;fill-opacity:0.19607843;stroke:none"
       d="m 596.36339,163.70942 143.75,131 -220.90625,88.59375 77.15625,-219.59375 z m 7.5,29.78125 -56.28125,160.1875 161.15625,-64.625 -104.875,-95.5625 z"
       id="path2999-6" />
    <path
       style="fill:#d3cec0;fill-opacity:1;stroke:#b4ad87;stroke-width:5;stroke-linecap:butt;stroke-linejoin:miter;stroke-miterlimit:4;stroke-opacity:1;stroke-dasharray:none"
       d="m 674.91822,322.31547 -36.86005,15.17704 -110.62529,4.17277 11.44497,-17.7278 z"
       id="path4005-4-7"
       inkscape:connector-curvature="0"
       sodipodi:nodetypes="ccccc" />
    <path
       style="fill:#d3cec0;fill-opacity:1;stroke:#b4ad87;stroke-width:5;stroke-linecap:butt;stroke-linejoin:miter;stroke-miterlimit:4;stroke-opacity:1;stroke-dasharray:none"
       d="m 569.79803,236.66017 -15.3974,42.5787 7.93636,92.66663 16.72879,-11.29025 z"
       id="path4005-47"
       inkscape:connector-curvature="0"
       sodipodi:nodetypes="ccccc" />
    <path
       style="fill:#d3cec0;fill-opacity:1;stroke:#b4ad87;stroke-width:5;stroke-linecap:butt;stroke-linejoin:miter;stroke-miterlimit:4;stroke-opacity:1;stroke-dasharray:none"
       d="m 531.76809,336.93705 35.86041,29.29442 -15.24637,14.7413 -34.59773,-29.54696 z"
       id="path4036-2"
       inkscape:connector-curvature="0"
       sodipodi:nodetypes="ccccc" />
    <g
       id="g4000">
      <path
         sodipodi:nodetypes="ccccc"
         transform="translate(236,121.50504)"
         inkscape:connector-curvature="0"
         id="path3034"
         d="M 378.57145,130.57181 60.714285,449.14286 95.382524,483.34191 412.81455,165.98219 z"
         style="fill:#5a4829;fill-opacity:1;stroke:none" />
      <path
         id="path3034-6"
         transform="translate(236,121.50504)"
         d="M 378.56285,130.56288 60.71875,449.15625 95.375,483.34375 412.81285,165.96913 z m -0.0937,11.18749 23.3125,24.15625 L 95.3125,472.28125 71.84375,449.125 z"
         style="fill:#000000;fill-opacity:0.2745098;stroke:none"
         inkscape:connector-curvature="0"
         sodipodi:nodetypes="cccccccccc" />
      <path
         id="path3034-2"
         transform="translate(236,121.50504)"
         d="M 397.7505,150.7815 80.53125,468.71875 95.375,483.34375 412.6255,166.1565 z"
         style="fill:#000000;fill-opacity:0.19607843;stroke:none"
         inkscape:connector-curvature="0"
         sodipodi:nodetypes="ccccc" />
    </g>
    <path
       style="fill:#7a30a7;fill-opacity:1;stroke:none"
       d="m 584.2191,231.72495 -45.46345,53.40968 113.88277,217.70146 z"
       id="path2999-5"
       inkscape:connector-curvature="0"
       sodipodi:nodetypes="cccc" />
    <path
       style="fill:#000000;fill-opacity:0.19607843;stroke:none"
       d="m 584.2187,231.72337 -45.46875,53.40625 113.875,217.71875 -68.40625,-271.125 z m -6.84375,29.375 33.15625,131.46875 -55.21875,-105.5625 22.0625,-25.90625 z"
       id="path2999-5-4"
       inkscape:connector-curvature="0" />
    <path
       style="fill:#000000;fill-opacity:0.19607843;stroke:none"
       d="m 584.2187,231.72337 -11.15625,13.09375 51.625,204.59375 27.9375,53.4375 -68.40625,-271.125 z"
       id="path2999-5-8"
       inkscape:connector-curvature="0" />
    <path
       style="fill:#ffffff;fill-opacity:0.19607843;stroke:none"
       d="m 584.2187,231.72337 -45.46875,53.40625 113.875,217.71875 -9.40625,-37.21875 -90.46875,-173 36.125,-42.4375 -4.65625,-18.46875 z"
       id="path2999-5-6"
       inkscape:connector-curvature="0" />
    <path
       style="fill:#411a59;fill-opacity:1;stroke:none"
       d="m 396.4062,257.84837 a 4.87919,4.87919 0 0 0 -1.75,9.375 l 226.21875,95.875 a 4.87919,4.87919 0 0 0 5.34375,-1.0625 l 49.5625,-49.65625 a 4.87919,4.87919 0 0 0 -2.625,-8.25 L 397.37495,257.91087 a 4.87919,4.87919 0 0 0 -0.96875,-0.0625 z m 0.15625,4.875 275.78125,46.21875 -49.5625,49.65625 -226.21875,-95.875 z"
       id="path4245"
       inkscape:connector-curvature="0" />
    <path
       style="fill:#411a59;fill-opacity:1;stroke:none"
       d="m 583.9062,227.69212 c 0.5019,-0.0664 -3.52207,0.536 -0.78125,0.125 -0.67798,0.21367 0.0105,0.0299 -0.75,0.28125 -0.63277,0.4293 0.0522,-0.13977 -0.65625,0.4375 -0.1856,0.16496 -0.2475,0.19735 -0.25,0.1875 0.0247,-0.0225 0.0872,-0.0831 -0.34375,0.375 l -45.46875,53.40625 c -0.043,0.0506 -0.14835,0.1651 -0.1875,0.21875 -0.0392,0.0537 -0.12121,0.19358 -0.15625,0.25 -0.035,0.0564 -0.12552,0.22237 -0.15625,0.28125 -0.0307,0.0589 -0.0987,0.189 -0.125,0.25 -0.0263,0.061 -0.0721,0.21846 -0.0937,0.28125 -0.0216,0.0628 -0.0769,0.24827 -0.0937,0.3125 -0.0169,0.0642 -0.0504,0.21594 -0.0625,0.28125 -0.0121,0.0653 -0.0553,0.24647 -0.0625,0.3125 -0.007,0.066 0.002,0.21487 0,0.28125 -0.002,0.0664 -0.003,0.24614 0,0.3125 0.003,0.0664 -0.008,0.24653 0,0.3125 0.008,0.066 0.0499,0.21604 0.0625,0.28125 0.0126,0.0652 0.0451,0.21716 0.0625,0.28125 0.0174,0.0641 0.0716,0.24989 0.0937,0.3125 0.0221,0.0626 0.067,0.22046 0.0937,0.28125 0.0267,0.0608 0.12504,0.19137 0.15625,0.25 l 113.875,217.71875 c 0.0189,0.0355 0.0733,0.12165 0.0937,0.15625 0.0205,0.0346 0.0717,0.12261 0.0937,0.15625 0.022,0.0336 0.0702,0.12364 0.0937,0.15625 0.0235,0.0326 0.0688,0.12473 0.0937,0.15625 0.025,0.0315 0.0986,0.0947 0.125,0.125 0.0264,0.0303 0.0973,0.12712 0.125,0.15625 0.0277,0.0291 0.096,0.0971 0.125,0.125 0.029,0.0279 0.12601,0.0985 0.15625,0.125 0.0302,0.0265 0.0936,0.0686 0.125,0.0937 0.0314,0.0251 0.12374,0.10133 0.15625,0.125 0.0325,0.0237 0.0915,0.0716 0.125,0.0937 0.0335,0.0222 0.12174,0.0731 0.15625,0.0937 0.0345,0.0206 0.12084,0.0747 0.15625,0.0937 0.0354,0.0191 0.15127,0.0763 0.1875,0.0937 0.0362,0.0174 0.11926,0.0467 0.15625,0.0625 0.037,0.0158 0.11859,0.0797 0.15625,0.0937 0.0377,0.0141 0.14924,0.0501 0.1875,0.0625 0.0383,0.0124 0.14872,0.0206 0.1875,0.0312 0.0388,0.0106 0.11703,0.0536 0.15625,0.0625 0.0392,0.009 0.14792,0.0242 0.1875,0.0312 0.0396,0.007 0.14764,0.0259 0.1875,0.0312 0.0399,0.005 0.11619,-0.004 0.15625,0 0.0401,0.003 0.14732,0.0296 0.1875,0.0312 0.0402,0.002 0.14729,1.3e-4 0.1875,0 0.0402,-1.3e-4 0.14733,0.002 0.1875,0 0.0402,-0.002 0.14746,-0.0275 0.1875,-0.0312 0.04,-0.004 0.14767,0.006 0.1875,0 0.0398,-0.006 0.11671,-0.0239 0.15625,-0.0312 0.0395,-0.007 0.14834,-0.0534 0.1875,-0.0625 0.0392,-0.009 0.14879,-0.0204 0.1875,-0.0312 0.0387,-0.0109 0.11807,-0.0499 0.15625,-0.0625 0.0382,-0.0126 0.14993,-0.0482 0.1875,-0.0625 0.0376,-0.0144 0.11937,-0.0465 0.15625,-0.0625 0.0369,-0.016 0.15138,-0.0448 0.1875,-0.0625 0.0361,-0.0177 0.12097,-0.0745 0.15625,-0.0937 0.0353,-0.0193 0.12187,-0.0729 0.15625,-0.0937 0.0344,-0.0209 0.12285,-0.0713 0.15625,-0.0937 0.0334,-0.0224 0.1239,-0.0699 0.15625,-0.0937 0.0323,-0.0239 0.0938,-0.0997 0.125,-0.125 0.0312,-0.0253 0.12619,-0.0983 0.15625,-0.125 0.0301,-0.0267 0.0962,-0.097 0.125,-0.125 0.0288,-0.028 0.0975,-0.0957 0.125,-0.125 0.0275,-0.0293 0.0988,-0.0945 0.125,-0.125 0.0262,-0.0305 0.10023,-0.12457 0.125,-0.15625 0.0248,-0.0317 0.0704,-0.12348 0.0937,-0.15625 0.0233,-0.0328 0.0719,-0.0912 0.0937,-0.125 0.0218,-0.0338 0.0735,-0.12151 0.0937,-0.15625 0.0203,-0.0347 0.0751,-0.12063 0.0937,-0.15625 0.0187,-0.0356 0.0767,-0.15108 0.0937,-0.1875 0.0171,-0.0364 0.0471,-0.11909 0.0625,-0.15625 0.0154,-0.0372 0.0488,-0.11844 0.0625,-0.15625 0.0137,-0.0378 0.0505,-0.14911 0.0625,-0.1875 0.012,-0.0384 0.0523,-0.14861 0.0625,-0.1875 0.0102,-0.0389 0.0228,-0.11693 0.0312,-0.15625 0.008,-0.0393 0.0246,-0.14784 0.0312,-0.1875 0.007,-0.0397 0.0264,-0.14758 0.0312,-0.1875 0.005,-0.0399 0.0282,-0.1474 0.0312,-0.1875 0.003,-0.0401 -10e-4,-0.11605 0,-0.15625 0.001,-0.0402 5.7e-4,-0.14729 0,-0.1875 -5.7e-4,-0.0402 0.002,-0.14736 0,-0.1875 -0.002,-0.0401 -0.0271,-0.14751 -0.0312,-0.1875 -0.004,-0.04 0.006,-0.14774 0,-0.1875 -0.006,-0.0398 -0.0235,-0.14805 -0.0312,-0.1875 -0.008,-0.0394 -0.0529,-0.11719 -0.0625,-0.15625 l -68.40625,-271.125 c -0.009,-0.0377 -0.0202,-0.15021 -0.0312,-0.1875 -0.0111,-0.0373 -0.0498,-0.11948 -0.0625,-0.15625 -0.0127,-0.0368 -0.0482,-0.12007 -0.0625,-0.15625 -0.0143,-0.0362 -0.0466,-0.15198 -0.0625,-0.1875 -0.0159,-0.0355 -0.0764,-0.12146 -0.0937,-0.15625 -0.0174,-0.0348 -0.0436,-0.12225 -0.0625,-0.15625 -0.0189,-0.034 -0.0734,-0.12311 -0.0937,-0.15625 -0.0204,-0.0331 -0.072,-0.0928 -0.0937,-0.125 -0.0218,-0.0322 -0.0706,-0.12501 -0.0937,-0.15625 -0.0232,-0.0312 -0.10047,-0.0948 -0.125,-0.125 -0.0245,-0.0302 -0.0679,-0.12716 -0.0937,-0.15625 -0.0258,-0.0291 -0.0979,-0.0971 -0.125,-0.125 -0.0271,-0.0279 -0.0967,-0.0983 -0.125,-0.125 -0.0283,-0.0267 -0.12684,-0.0995 -0.15625,-0.125 -0.0294,-0.0255 -0.0945,-0.0696 -0.125,-0.0937 -0.0305,-0.0242 -0.0935,-0.1022 -0.125,-0.125 -0.0315,-0.0228 -0.12376,-0.0724 -0.15625,-0.0937 -0.0325,-0.0214 -0.12286,-0.0738 -0.15625,-0.0937 -0.0334,-0.02 -0.12202,-0.0753 -0.15625,-0.0937 -0.0342,-0.0185 -0.12124,-0.0455 -0.15625,-0.0625 -0.035,-0.017 -0.12053,-0.0783 -0.15625,-0.0937 -0.0357,-0.0154 -0.11989,-0.0487 -0.15625,-0.0625 -0.0364,-0.0138 -0.11932,-0.0503 -0.15625,-0.0625 -0.0369,-0.0122 -0.15007,-0.0206 -0.1875,-0.0312 -0.0374,-0.0106 -0.1184,-0.0535 -0.15625,-0.0625 -0.0379,-0.009 -0.14929,-0.0239 -0.1875,-0.0312 -0.0382,-0.007 -0.11776,-0.0256 -0.15625,-0.0312 -0.0385,-0.006 -0.1488,-0.0273 -0.1875,-0.0312 -0.0387,-0.004 -0.14866,0.002 -0.1875,0 -0.0388,-0.002 -0.11735,5.5e-4 -0.15625,0 -0.0389,-5.5e-4 -0.14861,-0.001 -0.1875,0 -0.0324,9.6e-4 -0.11006,-0.003 -0.15625,0 -0.009,5.7e-4 -0.0248,-4.8e-4 -0.0312,0 z m 0.3125,4.03125 68.40625,271.125 -113.875,-217.71875 45.46875,-53.40625 z"
       id="path4293"
       inkscape:connector-curvature="0" />
    <path
       style="fill:#7a30a7;fill-opacity:1;stroke:none"
       d="m 672.34056,308.94347 -49.55134,49.64054 -226.2112,-95.87335 z"
       id="path2999"
       inkscape:connector-curvature="0"
       sodipodi:nodetypes="cccc" />
    <path
       style="fill:#d3cec0;fill-opacity:1;stroke:#b4ad87;stroke-width:5;stroke-linecap:butt;stroke-linejoin:miter;stroke-miterlimit:6.5999999;stroke-opacity:1;stroke-dasharray:none"
       d="m 692.40413,250.61647 35.82224,32.46123 -157.90344,-48.40109 6.52036,-19.66631 z"
       id="path4005-49-1"
       inkscape:connector-curvature="0"
       sodipodi:nodetypes="ccccc" />
    <path
       style="fill:#000000;fill-opacity:0.19607843;stroke:none"
       d="m 396.56245,262.72337 226.21875,95.875 49.5625,-49.65625 -275.78125,-46.21875 z m 127.875,37.25 115.5,19.34375 -20.75,20.8125 -94.75,-40.15625 z"
       id="path2999-7"
       inkscape:connector-curvature="0" />
    <path
       style="fill:#ffffff;fill-opacity:0.19607843;stroke:none"
       d="m 396.56245,262.72337 71.15625,30.15625 189.03125,31.6875 15.59375,-15.625 -275.78125,-46.21875 z"
       id="path2999-0"
       inkscape:connector-curvature="0" />
    <path
       style="fill:#000000;fill-opacity:0.19607843;stroke:none"
       d="m 396.56245,262.72337 226.21875,95.875 49.5625,-49.65625 -26.96875,-4.53125 -34.59375,34.6875 -157.96875,-66.9375 -56.25,-9.4375 z"
       id="path2999-01"
       inkscape:connector-curvature="0" />
    <path
       style="fill:#d3cec0;fill-opacity:1;stroke:#b4ad87;stroke-width:5;stroke-linecap:butt;stroke-linejoin:miter;stroke-miterlimit:4.80000019;stroke-opacity:1;stroke-dasharray:none"
       d="m 640.13235,300.46516 17.39949,3.05201 -129.55938,38.1284 13.11367,-13.70542 z"
       id="path4005-4"
       inkscape:connector-curvature="0"
       sodipodi:nodetypes="ccccc" />
    <path
       style="fill:#d3cec0;fill-opacity:1;stroke:#b4ad87;stroke-width:5;stroke-linecap:butt;stroke-linejoin:miter;stroke-miterlimit:4.19999981;stroke-opacity:1;stroke-dasharray:none"
       d="m 596.14114,267.26478 -4.72626,-15.80769 -27.3447,116.89334 12.73894,-10.7905 z"
       id="path4005"
       inkscape:connector-curvature="0"
       sodipodi:nodetypes="ccccc" />
    <path
       style="color:#000000;fill:#000000;fill-opacity:0.19607843;fill-rule:nonzero;stroke:none;stroke-width:5;marker:none;visibility:visible;display:inline;overflow:visible;enable-background:accumulate"
       d="m 584.0937,335.44212 -19.40625,19.25 -3.0625,13.09375 -1.71875,7.375 5.78125,-4.90625 12.75,-10.78125 0.625,-0.5625 0.1875,-0.8125 4.84375,-22.65625 z"
       id="rect4466-5"
       inkscape:connector-curvature="0" />
    <path
       style="fill:#d3cec0;fill-opacity:1;stroke:#b4ad87;stroke-width:5;stroke-linecap:butt;stroke-linejoin:miter;stroke-miterlimit:4;stroke-opacity:1;stroke-dasharray:none"
       d="m 532.03682,336.86168 35.86041,29.29442 -15.24637,14.7413 -34.59773,-29.54696 z"
       id="path4036"
       inkscape:connector-curvature="0"
       sodipodi:nodetypes="ccccc" />
    <g
       transform="translate(86.963166,-88.334195)"
       id="g3042">
      <rect
         transform="matrix(0.70710678,-0.70710678,0.70710678,0.70710678,0,0)"
         y="613.81476"
         x="-286.18637"
         height="49.279358"
         width="156.29126"
         id="rect3879-0"
         style="color:#000000;fill:#a03b35;fill-opacity:1;fill-rule:nonzero;stroke:#2f0a09;stroke-width:3.66199994;stroke-opacity:1;marker:none;visibility:visible;display:inline;overflow:visible;enable-background:accumulate" />
      <path
         inkscape:connector-curvature="0"
         id="rect3879-0-0"
         d="m 342.58429,527.99833 -108.40126,108.40126 32.31749,32.31749 108.40126,-108.40126 -32.31749,-32.31749 z m -2.40569,15.6805 19.27455,19.27456 -93.44536,93.41638 -19.27456,-19.24557 93.44537,-93.44537 z"
         style="color:#000000;fill:#000000;fill-opacity:0.39215686;fill-rule:nonzero;stroke:none;stroke-width:3.66199994;marker:none;visibility:visible;display:inline;overflow:visible;enable-background:accumulate" />
      <path
         inkscape:connector-curvature="0"
         transform="translate(141.71428,232.93361)"
         id="rect3879-0-3"
         d="M 210.375,315.9375 106.40625,419.90625 124.8125,438.3125 228.78125,334.34375 210.375,315.9375 z"
         style="color:#000000;fill:#000000;fill-opacity:0.19607843;fill-rule:nonzero;stroke:none;stroke-width:3.66199994;marker:none;visibility:visible;display:inline;overflow:visible;enable-background:accumulate" />
      <g
         transform="translate(166.07158,38.571428)"
         id="g3842">
        <path
           sodipodi:type="star"
           style="color:#000000;fill:#7a30a7;fill-opacity:1;fill-rule:nonzero;stroke:#000000;stroke-width:4.00009775000000012;stroke-miterlimit:4;stroke-opacity:1;stroke-dasharray:none;marker:none;visibility:visible;display:inline;overflow:visible;enable-background:accumulate"
           id="path2997-8"
           sodipodi:sides="5"
           sodipodi:cx="82.327431"
           sodipodi:cy="447.09769"
           sodipodi:r1="45.678699"
           sodipodi:r2="39.67952"
           sodipodi:arg1="-1.4265537"
           sodipodi:arg2="-0.79823514"
           inkscape:flatsided="true"
           inkscape:rounded="0"
           inkscape:randomized="0"
           d="m 88.893422,401.89336 38.454888,37.48005 -23.76244,48.15474 -53.140876,-7.71879 -9.080432,-52.92521 z"
           transform="matrix(0.91547764,0,0,0.91547764,-16.315632,231.3782)"
           inkscape:transform-center-x="1.1317962"
           inkscape:transform-center-y="-0.87702664" />
        <path
           inkscape:connector-curvature="0"
           style="color:#000000;fill:#000000;fill-opacity:0.35686275;fill-rule:nonzero;stroke:none;stroke-width:4;marker:none;visibility:visible;display:inline;overflow:visible;enable-background:accumulate"
           d="m 65.06473,599.30801 -43.51379,22.88694 8.32512,48.43449 48.63475,7.06634 21.7712,-44.08597 -35.21728,-34.3018 z m -2.28869,15.73477 21.82842,21.25625 -13.47469,27.32128 -30.18215,-4.37713 -5.14956,-30.03911 26.97798,-14.16129 z"
           id="path2997-8-46" />
        <path
           inkscape:connector-curvature="0"
           id="path2997-8-7"
           d="m 71.0487,630.54968 -43.5,22.875 2.96875,17.3125 48,6.96875 13.28125,-26.9375 -20.75,-20.21875 z"
           style="color:#000000;fill:#000000;fill-opacity:0.19607843;fill-rule:nonzero;stroke:none;stroke-width:4;marker:none;visibility:visible;display:inline;overflow:visible;enable-background:accumulate" />
      </g>
      <path
         transform="matrix(0.86100387,0,0,0.86100387,150.96937,295.02588)"
         d="m 104.42452,442.48889 c 0,9.03088 -7.320968,16.35185 -16.351842,16.35185 -9.030875,0 -16.351845,-7.32097 -16.351845,-16.35185 0,-9.03087 7.32097,-16.35184 16.351845,-16.35184 9.030874,0 16.351842,7.32097 16.351842,16.35184 z"
         sodipodi:ry="16.351845"
         sodipodi:rx="16.351845"
         sodipodi:cy="442.48889"
         sodipodi:cx="88.072678"
         id="path3849"
         style="color:#000000;fill:#000000;fill-opacity:0.19607843;fill-rule:nonzero;stroke:none;stroke-width:4;marker:none;visibility:visible;display:inline;overflow:visible;enable-background:accumulate"
         sodipodi:type="arc" />
      <path
         transform="matrix(0.98823526,0,0,0.98461538,142.27088,240.26107)"
         d="m 91.607142,442.55804 c 0,3.36549 -2.718271,6.09375 -6.071429,6.09375 -3.353157,0 -6.071429,-2.72826 -6.071429,-6.09375 0,-3.36548 2.718272,-6.09375 6.071429,-6.09375 3.353158,0 6.071429,2.72827 6.071429,6.09375 z"
         sodipodi:ry="6.09375"
         sodipodi:rx="6.0714288"
         sodipodi:cy="442.55804"
         sodipodi:cx="85.535713"
         id="path3847"
         style="color:#000000;fill:#ffffff;fill-opacity:1;fill-rule:nonzero;stroke:none;stroke-width:4;marker:none;visibility:visible;display:inline;overflow:visible;enable-background:accumulate"
         sodipodi:type="arc" />
      <path
         transform="matrix(0.86100387,0,0,0.86100387,197.40522,248.69055)"
         d="m 104.42452,442.48889 c 0,9.03088 -7.320968,16.35185 -16.351842,16.35185 -9.030875,0 -16.351845,-7.32097 -16.351845,-16.35185 0,-9.03087 7.32097,-16.35184 16.351845,-16.35184 9.030874,0 16.351842,7.32097 16.351842,16.35184 z"
         sodipodi:ry="16.351845"
         sodipodi:rx="16.351845"
         sodipodi:cy="442.48889"
         sodipodi:cx="88.072678"
         id="path3849-7"
         style="color:#000000;fill:#000000;fill-opacity:0.19607843;fill-rule:nonzero;stroke:none;stroke-width:4;marker:none;visibility:visible;display:inline;overflow:visible;enable-background:accumulate"
         sodipodi:type="arc" />
      <path
         transform="matrix(0.98823526,0,0,0.98461538,188.70673,193.92574)"
         d="m 91.607142,442.55804 c 0,3.36549 -2.718271,6.09375 -6.071429,6.09375 -3.353157,0 -6.071429,-2.72826 -6.071429,-6.09375 0,-3.36548 2.718272,-6.09375 6.071429,-6.09375 3.353158,0 6.071429,2.72827 6.071429,6.09375 z"
         sodipodi:ry="6.09375"
         sodipodi:rx="6.0714288"
         sodipodi:cy="442.55804"
         sodipodi:cx="85.535713"
         id="path3847-1"
         style="color:#000000;fill:#7a30a7;fill-opacity:1;fill-rule:nonzero;stroke:none;stroke-width:4;marker:none;visibility:visible;display:inline;overflow:visible;enable-background:accumulate"
         sodipodi:type="arc" />
      <path
         transform="matrix(0.86100387,0,0,0.86100387,245.48848,201.31441)"
         d="m 104.42452,442.48889 c 0,9.03088 -7.320968,16.35185 -16.351842,16.35185 -9.030875,0 -16.351845,-7.32097 -16.351845,-16.35185 0,-9.03087 7.32097,-16.35184 16.351845,-16.35184 9.030874,0 16.351842,7.32097 16.351842,16.35184 z"
         sodipodi:ry="16.351845"
         sodipodi:rx="16.351845"
         sodipodi:cy="442.48889"
         sodipodi:cx="88.072678"
         id="path3849-77"
         style="color:#000000;fill:#000000;fill-opacity:0.19607843;fill-rule:nonzero;stroke:none;stroke-width:4;marker:none;visibility:visible;display:inline;overflow:visible;enable-background:accumulate"
         sodipodi:type="arc" />
      <path
         transform="matrix(0.98823526,0,0,0.98461538,236.78999,146.5496)"
         d="m 91.607142,442.55804 c 0,3.36549 -2.718271,6.09375 -6.071429,6.09375 -3.353157,0 -6.071429,-2.72826 -6.071429,-6.09375 0,-3.36548 2.718272,-6.09375 6.071429,-6.09375 3.353158,0 6.071429,2.72827 6.071429,6.09375 z"
         sodipodi:ry="6.09375"
         sodipodi:rx="6.0714288"
         sodipodi:cy="442.55804"
         sodipodi:cx="85.535713"
         id="path3847-6"
         style="color:#000000;fill:#7a30a7;fill-opacity:1;fill-rule:nonzero;stroke:none;stroke-width:4;marker:none;visibility:visible;display:inline;overflow:visible;enable-background:accumulate"
         sodipodi:type="arc" />
    </g>
    <path
       style="color:#000000;fill:#000000;fill-opacity:0.19607843;fill-rule:nonzero;stroke:none;stroke-width:5;marker:none;visibility:visible;display:inline;overflow:visible;enable-background:accumulate"
       d="m 639.99995,297.91087 -0.53125,0.15625 -24.53125,6.8125 -19.78125,19.59375 63.09375,-18.5625 10.21875,-3 -10.5,-1.84375 -17.40625,-3.0625 -0.5625,-0.0937 z"
       id="rect4466"
       inkscape:connector-curvature="0" />
    <path
       style="fill:#d3cec0;fill-opacity:1;stroke:#b4ad87;stroke-width:5;stroke-linecap:butt;stroke-linejoin:miter;stroke-miterlimit:4.69999981;stroke-opacity:1;stroke-dasharray:none"
       d="m 652.4098,213.45912 -34.6144,-31.10477 59.11503,139.16392 20.67267,-8.41517 z"
       id="path4005-49"
       inkscape:connector-curvature="0"
       sodipodi:nodetypes="ccccc" />
    <path
       style="color:#000000;fill:#000000;fill-opacity:0.19607843;fill-rule:nonzero;stroke:none;stroke-width:5;marker:none;visibility:visible;display:inline;overflow:visible;enable-background:accumulate"
       d="m 561.56245,357.78587 -18.4375,18.28125 7.90625,6.75 1.71875,1.46875 1.625,-1.59375 15.25,-14.71875 2.03125,-1.96875 -2.1875,-1.78125 -7.90625,-6.4375 z"
       id="rect4466-2"
       inkscape:connector-curvature="0" />
  </g>
</svg>
