<?xml version="1.0" encoding="UTF-8" standalone="no"?>
<!-- Created with Inkscape (http://www.inkscape.org/) -->

<svg
   xmlns:dc="http://purl.org/dc/elements/1.1/"
   xmlns:cc="http://creativecommons.org/ns#"
   xmlns:rdf="http://www.w3.org/1999/02/22-rdf-syntax-ns#"
   xmlns:svg="http://www.w3.org/2000/svg"
   xmlns="http://www.w3.org/2000/svg"
   xmlns:sodipodi="http://sodipodi.sourceforge.net/DTD/sodipodi-0.dtd"
   xmlns:inkscape="http://www.inkscape.org/namespaces/inkscape"
   width="512"
   height="512"
   id="svg2"
   version="1.1"
   inkscape:version="0.48.4 r9939"
   sodipodi:docname="ObsidianSword.svg">
  <defs
     id="defs4" />
  <sodipodi:namedview
     id="base"
     pagecolor="#ffffff"
     bordercolor="#666666"
     borderopacity="1.0"
     inkscape:pageopacity="0.0"
     inkscape:pageshadow="2"
     inkscape:zoom="1.4142136"
     inkscape:cx="189.6051"
     inkscape:cy="213.21017"
     inkscape:document-units="px"
     inkscape:current-layer="g3042"
     showgrid="false"
     fit-margin-top="0"
     fit-margin-left="0"
     fit-margin-right="0"
     fit-margin-bottom="0"
     inkscape:window-width="1301"
     inkscape:window-height="744"
     inkscape:window-x="65"
     inkscape:window-y="24"
     inkscape:window-maximized="1">
    <inkscape:grid
       type="xygrid"
       id="grid3096"
       empspacing="8"
       visible="true"
       enabled="true"
       snapvisiblegridlinesonly="true" />
  </sodipodi:namedview>
  <metadata
     id="metadata7">
    <rdf:RDF>
      <cc:Work
         rdf:about="">
        <dc:format>image/svg+xml</dc:format>
        <dc:type
           rdf:resource="http://purl.org/dc/dcmitype/StillImage" />
        <dc:title />
      </cc:Work>
    </rdf:RDF>
  </metadata>
  <g
     inkscape:label="Layer 1"
     inkscape:groupmode="layer"
     id="layer1"
     transform="translate(-236,-121.50504)">
    <path
       style="fill:#411a59;fill-opacity:1;stroke:none;stroke-opacity:1"
       d="M 506.625 4.65625 A 2.6923747 2.6923747 0 0 0 505.03125 5.25 L 140.28125 299.75 A 2.6923747 2.6923747 0 0 0 140.21875 303.90625 L 211.21875 363.90625 A 2.6923747 2.6923747 0 0 0 215.03125 363.5625 L 508.78125 9.0625 A 2.6923747 2.6923747 0 0 0 506.625 4.65625 z M 506.71875 7.34375 L 212.96875 361.84375 L 141.96875 301.84375 L 506.71875 7.34375 z "
       transform="translate(236,121.50504)"
       id="path3146" />
    <g
       id="g4000"
       transform="translate(-27.577164,-4.2426407)">
      <path
         sodipodi:nodetypes="ccccc"
         transform="translate(236,121.50504)"
         inkscape:connector-curvature="0"
         id="path3034"
         d="M 318.57145,190.57181 60.714285,449.14286 95.382524,483.34191 352.81455,225.98219 z"
         style="fill:#5a4829;fill-opacity:1;stroke:none" />
      <path
         id="path3034-6"
         transform="translate(236,121.50504)"
         d="M 318.56285,190.56288 60.71875,449.15625 95.375,483.34375 352.81285,225.96913 z m -0.0937,11.18748 23.3125,24.15625 L 95.3125,472.28125 71.84375,449.125 z"
         style="fill:#000000;fill-opacity:0.2745098;stroke:none"
         inkscape:connector-curvature="0"
         sodipodi:nodetypes="cccccccccc" />
      <path
         id="path3034-2"
         transform="translate(236,121.50504)"
         d="M 337.7505,210.7815 80.53125,468.71875 95.375,483.34375 352.6255,226.1565 z"
         style="fill:#000000;fill-opacity:0.19607843;stroke:none"
         inkscape:connector-curvature="0"
         sodipodi:nodetypes="ccccc" />
    </g>
    <path
       style="fill:#7a30a7;stroke:none;stroke-width:1px;stroke-linecap:butt;stroke-linejoin:miter;stroke-opacity:0;fill-opacity:1"
       d="m 377.97562,423.34566 71,60 293.73149,-354.49747 z"
       id="path3115"
       inkscape:connector-curvature="0"
       sodipodi:nodetypes="cccc" />
    <path
       style="fill:#08030b;fill-opacity:0.19607843;stroke:none"
       d="M 506.71875 7.34375 L 411.3125 84.375 L 203.0625 335.6875 L 152.71875 293.15625 L 141.96875 301.84375 L 212.96875 361.84375 L 506.71875 7.34375 z "
       transform="translate(236,121.50504)"
       id="path3115-6" />
    <path
       style="fill:#000000;fill-opacity:0.19607843;stroke:none"
       d="M 506.71875 7.34375 L 141.96875 301.84375 L 212.96875 361.84375 L 506.71875 7.34375 z M 355.25 156.90625 L 210.28125 331.8125 L 175.25 302.21875 L 355.25 156.90625 z "
       transform="translate(236,121.50504)"
       id="path3115-5" />
    <path
       style="fill:#ffffff;fill-opacity:0.19607843;stroke:none"
       d="M 506.71875 7.34375 L 141.96875 301.84375 L 159.0625 316.3125 L 435.9375 92.75 L 506.71875 7.34375 z "
       transform="translate(236,121.50504)"
       id="path3115-9" />
    <path
       style="fill:#d3cec0;fill-opacity:1;stroke:#b4ad87;stroke-width:5;stroke-linecap:butt;stroke-linejoin:miter;stroke-miterlimit:4.80000019;stroke-opacity:1;stroke-dasharray:none"
       d="m 500.33323,422.58612 -12.65254,15.42638 -107.28552,19.39007 13.11367,-13.70542 z"
       id="path4005-4"
       inkscape:connector-curvature="0"
       sodipodi:nodetypes="ccccc" />
    <path
       style="fill:#d3cec0;fill-opacity:1;stroke:#b4ad87;stroke-width:5;stroke-linecap:butt;stroke-linejoin:miter;stroke-miterlimit:4.19999981;stroke-opacity:1;stroke-dasharray:none"
       d="m 440.78568,371.70807 -12.85799,10.35526 -11.4348,102.0441 12.73894,-10.7905 z"
       id="path4005"
       inkscape:connector-curvature="0"
       sodipodi:nodetypes="ccccc" />
    <path
       style="fill:#d3cec0;fill-opacity:1;stroke:#b4ad87;stroke-width:5;stroke-linecap:butt;stroke-linejoin:miter;stroke-miterlimit:4;stroke-opacity:1;stroke-dasharray:none"
       d="m 384.45953,452.61868 35.86041,29.29442 -15.24637,14.7413 -34.59773,-29.54696 z"
       id="path4036"
       inkscape:connector-curvature="0"
       sodipodi:nodetypes="ccccc" />
    <g
       transform="translate(59.386002,-92.576836)"
       id="g3042">
      <rect
         transform="matrix(0.70710678,-0.70710678,0.70710678,0.70710678,0,0)"
         y="613.81476"
         x="-286.18637"
         height="49.279358"
         width="86.291"
         id="rect3879-0"
         style="color:#000000;fill:#a03b35;fill-opacity:1;fill-rule:nonzero;stroke:#2f0a09;stroke-width:3.66199994;stroke-opacity:1;marker:none;visibility:visible;display:inline;overflow:visible;enable-background:accumulate" />
      <path
         inkscape:connector-curvature="0"
         id="rect3879-0-0"
         d="m 292.58393,577.9987 -58.4009,58.40089 32.31749,32.31749 58.4009,-58.40089 z m -2.40569,15.6805 19.27455,19.27456 -43.445,43.41601 -19.27456,-19.24557 z"
         style="color:#000000;fill:#000000;fill-opacity:0.39215686;fill-rule:nonzero;stroke:none;stroke-width:3.66199994;marker:none;visibility:visible;display:inline;overflow:visible;enable-background:accumulate"
         sodipodi:nodetypes="cccccccccc" />
      <path
         inkscape:connector-curvature="0"
         transform="translate(141.71428,232.93361)"
         id="rect3879-0-3"
         d="m 160.37543,365.9375 -53.96918,53.96875 18.40625,18.40625 53.96918,-53.96875 z"
         style="color:#000000;fill:#000000;fill-opacity:0.19607843;fill-rule:nonzero;stroke:none;stroke-width:3.66199994;marker:none;visibility:visible;display:inline;overflow:visible;enable-background:accumulate"
         sodipodi:nodetypes="ccccc" />
      <g
         transform="translate(166.07158,38.571428)"
         id="g3842">
        <path
           sodipodi:type="star"
           style="color:#000000;fill:#7a30a7;fill-opacity:1;fill-rule:nonzero;stroke:#000000;stroke-width:4.00009775;stroke-miterlimit:4;stroke-opacity:1;stroke-dasharray:none;marker:none;visibility:visible;display:inline;overflow:visible;enable-background:accumulate"
           id="path2997-8"
           sodipodi:sides="5"
           sodipodi:cx="82.327431"
           sodipodi:cy="447.09769"
           sodipodi:r1="45.678699"
           sodipodi:r2="39.67952"
           sodipodi:arg1="-1.4265537"
           sodipodi:arg2="-0.79823514"
           inkscape:flatsided="true"
           inkscape:rounded="0"
           inkscape:randomized="0"
           d="m 88.893422,401.89336 38.454888,37.48005 -23.76244,48.15474 -53.140876,-7.71879 -9.080432,-52.92521 z"
           transform="matrix(0.91547764,0,0,0.91547764,-16.315632,231.3782)"
           inkscape:transform-center-x="1.1317962"
           inkscape:transform-center-y="-0.87702664" />
        <path
           inkscape:connector-curvature="0"
           style="color:#000000;fill:#000000;fill-opacity:0.35686275;fill-rule:nonzero;stroke:none;stroke-width:4;marker:none;visibility:visible;display:inline;overflow:visible;enable-background:accumulate"
           d="m 65.06473,599.30801 -43.51379,22.88694 8.32512,48.43449 48.63475,7.06634 21.7712,-44.08597 -35.21728,-34.3018 z m -2.28869,15.73477 21.82842,21.25625 -13.47469,27.32128 -30.18215,-4.37713 -5.14956,-30.03911 26.97798,-14.16129 z"
           id="path2997-8-46" />
        <path
           inkscape:connector-curvature="0"
           id="path2997-8-7"
           d="m 71.0487,630.54968 -43.5,22.875 2.96875,17.3125 48,6.96875 13.28125,-26.9375 -20.75,-20.21875 z"
           style="color:#000000;fill:#000000;fill-opacity:0.19607843;fill-rule:nonzero;stroke:none;stroke-width:4;marker:none;visibility:visible;display:inline;overflow:visible;enable-background:accumulate" />
      </g>
      <path
         transform="matrix(0.86100387,0,0,0.86100387,150.96937,295.02588)"
         d="m 104.42452,442.48889 c 0,9.03088 -7.320968,16.35185 -16.351842,16.35185 -9.030875,0 -16.351845,-7.32097 -16.351845,-16.35185 0,-9.03087 7.32097,-16.35184 16.351845,-16.35184 9.030874,0 16.351842,7.32097 16.351842,16.35184 z"
         sodipodi:ry="16.351845"
         sodipodi:rx="16.351845"
         sodipodi:cy="442.48889"
         sodipodi:cx="88.072678"
         id="path3849"
         style="color:#000000;fill:#000000;fill-opacity:0.19607843;fill-rule:nonzero;stroke:none;stroke-width:4;marker:none;visibility:visible;display:inline;overflow:visible;enable-background:accumulate"
         sodipodi:type="arc" />
      <path
         transform="matrix(0.98823526,0,0,0.98461538,142.27088,240.26107)"
         d="m 91.607142,442.55804 c 0,3.36549 -2.718271,6.09375 -6.071429,6.09375 -3.353157,0 -6.071429,-2.72826 -6.071429,-6.09375 0,-3.36548 2.718272,-6.09375 6.071429,-6.09375 3.353158,0 6.071429,2.72827 6.071429,6.09375 z"
         sodipodi:ry="6.09375"
         sodipodi:rx="6.0714288"
         sodipodi:cy="442.55804"
         sodipodi:cx="85.535713"
         id="path3847"
         style="color:#000000;fill:#ffffff;fill-opacity:1;fill-rule:nonzero;stroke:none;stroke-width:4;marker:none;visibility:visible;display:inline;overflow:visible;enable-background:accumulate"
         sodipodi:type="arc" />
      <path
         transform="matrix(0.86100387,0,0,0.86100387,197.40522,248.69055)"
         d="m 104.42452,442.48889 c 0,9.03088 -7.320968,16.35185 -16.351842,16.35185 -9.030875,0 -16.351845,-7.32097 -16.351845,-16.35185 0,-9.03087 7.32097,-16.35184 16.351845,-16.35184 9.030874,0 16.351842,7.32097 16.351842,16.35184 z"
         sodipodi:ry="16.351845"
         sodipodi:rx="16.351845"
         sodipodi:cy="442.48889"
         sodipodi:cx="88.072678"
         id="path3849-7"
         style="color:#000000;fill:#000000;fill-opacity:0.19607843;fill-rule:nonzero;stroke:none;stroke-width:4;marker:none;visibility:visible;display:inline;overflow:visible;enable-background:accumulate"
         sodipodi:type="arc" />
      <path
         transform="matrix(0.98823526,0,0,0.98461538,188.70673,193.92574)"
         d="m 91.607142,442.55804 c 0,3.36549 -2.718271,6.09375 -6.071429,6.09375 -3.353157,0 -6.071429,-2.72826 -6.071429,-6.09375 0,-3.36548 2.718272,-6.09375 6.071429,-6.09375 3.353158,0 6.071429,2.72827 6.071429,6.09375 z"
         sodipodi:ry="6.09375"
         sodipodi:rx="6.0714288"
         sodipodi:cy="442.55804"
         sodipodi:cx="85.535713"
         id="path3847-1"
         style="color:#000000;fill:#7a30a7;fill-opacity:1;fill-rule:nonzero;stroke:none;stroke-width:4;marker:none;visibility:visible;display:inline;overflow:visible;enable-background:accumulate"
         sodipodi:type="arc" />
    </g>
  </g>
</svg>
