<?xml version="1.0" encoding="UTF-8" standalone="no"?>
<!-- Created with Inkscape (http://www.inkscape.org/) -->

<svg
   xmlns:dc="http://purl.org/dc/elements/1.1/"
   xmlns:cc="http://creativecommons.org/ns#"
   xmlns:rdf="http://www.w3.org/1999/02/22-rdf-syntax-ns#"
   xmlns:svg="http://www.w3.org/2000/svg"
   xmlns="http://www.w3.org/2000/svg"
   xmlns:sodipodi="http://sodipodi.sourceforge.net/DTD/sodipodi-0.dtd"
   xmlns:inkscape="http://www.inkscape.org/namespaces/inkscape"
   width="512"
   height="512"
   id="svg2"
   version="1.1"
   inkscape:version="0.48.4 r9939"
   sodipodi:docname="OsmiumPaxel.svg">
  <defs
     id="defs4" />
  <sodipodi:namedview
     id="base"
     pagecolor="#ffffff"
     bordercolor="#666666"
     borderopacity="1.0"
     inkscape:pageopacity="0.0"
     inkscape:pageshadow="2"
     inkscape:zoom="1.4142136"
     inkscape:cx="212.92952"
     inkscape:cy="210.76397"
     inkscape:document-units="px"
     inkscape:current-layer="g3042"
     showgrid="false"
     fit-margin-top="0"
     fit-margin-left="0"
     fit-margin-right="0"
     fit-margin-bottom="0"
     inkscape:window-width="1301"
     inkscape:window-height="744"
     inkscape:window-x="65"
     inkscape:window-y="24"
     inkscape:window-maximized="1">
    <inkscape:grid
       type="xygrid"
       id="grid3096"
       empspacing="8"
       visible="true"
       enabled="true"
       snapvisiblegridlinesonly="true" />
  </sodipodi:namedview>
  <metadata
     id="metadata7">
    <rdf:RDF>
      <cc:Work
         rdf:about="">
        <dc:format>image/svg+xml</dc:format>
        <dc:type
           rdf:resource="http://purl.org/dc/dcmitype/StillImage" />
        <dc:title />
      </cc:Work>
    </rdf:RDF>
  </metadata>
  <g
     inkscape:label="Layer 1"
     inkscape:groupmode="layer"
     id="layer1"
     transform="translate(-236,-121.50504)">
    <g
       id="g4000"
       transform="translate(-33.019446,0)">
      <path
         sodipodi:nodetypes="ccccc"
         transform="translate(236,121.50504)"
         inkscape:connector-curvature="0"
         id="path3034"
         d="M 368.57145,140.57181 60.714285,449.14286 95.382524,483.34191 402.81455,175.98219 z"
         style="fill:#5a4829;fill-opacity:1;stroke:none" />
      <path
         id="path3034-6"
         transform="translate(236,121.50504)"
         d="M 368.56285,140.56288 60.71875,449.15625 95.375,483.34375 402.81285,175.96913 z m -0.0937,11.1875 23.3125,24.15625 L 95.3125,472.28125 71.84375,449.125 z"
         style="fill:#000000;fill-opacity:0.2745098;stroke:none"
         inkscape:connector-curvature="0"
         sodipodi:nodetypes="cccccccccc" />
      <path
         id="path3034-2"
         transform="translate(236,121.50504)"
         d="M 387.7505,160.7815 80.53125,468.71875 95.375,483.34375 402.6255,176.1565 z"
         style="fill:#000000;fill-opacity:0.19607843;stroke:none"
         inkscape:connector-curvature="0"
         sodipodi:nodetypes="ccccc" />
    </g>
    <g
       transform="translate(53.94372,-88.334195)"
       id="g3042">
      <rect
         transform="matrix(0.70710678,-0.70710678,0.70710678,0.70710678,0,0)"
         y="613.81476"
         x="-286.18637"
         height="49.279358"
         width="156.29126"
         id="rect3879-0"
         style="color:#000000;fill:#a03b35;fill-opacity:1;fill-rule:nonzero;stroke:#2f0a09;stroke-width:3.66199994;stroke-opacity:1;marker:none;visibility:visible;display:inline;overflow:visible;enable-background:accumulate" />
      <path
         inkscape:connector-curvature="0"
         id="rect3879-0-0"
         d="m 342.58429,527.99833 -108.40126,108.40126 32.31749,32.31749 108.40126,-108.40126 -32.31749,-32.31749 z m -2.40569,15.6805 19.27455,19.27456 -93.44536,93.41638 -19.27456,-19.24557 93.44537,-93.44537 z"
         style="color:#000000;fill:#000000;fill-opacity:0.39215686;fill-rule:nonzero;stroke:none;stroke-width:3.66199994;marker:none;visibility:visible;display:inline;overflow:visible;enable-background:accumulate" />
      <path
         inkscape:connector-curvature="0"
         transform="translate(141.71428,232.93361)"
         id="rect3879-0-3"
         d="M 210.375,315.9375 106.40625,419.90625 124.8125,438.3125 228.78125,334.34375 210.375,315.9375 z"
         style="color:#000000;fill:#000000;fill-opacity:0.19607843;fill-rule:nonzero;stroke:none;stroke-width:3.66199994;marker:none;visibility:visible;display:inline;overflow:visible;enable-background:accumulate" />
      <g
         transform="translate(166.07158,38.571428)"
         id="g3842">
        <path
           sodipodi:type="star"
           style="color:#000000;fill:#6ab6d7;fill-opacity:1;fill-rule:nonzero;stroke:#000000;stroke-width:4.00009775;stroke-miterlimit:4;stroke-opacity:1;stroke-dasharray:none;marker:none;visibility:visible;display:inline;overflow:visible;enable-background:accumulate"
           id="path2997-8"
           sodipodi:sides="5"
           sodipodi:cx="82.327431"
           sodipodi:cy="447.09769"
           sodipodi:r1="45.678699"
           sodipodi:r2="39.67952"
           sodipodi:arg1="-1.4265537"
           sodipodi:arg2="-0.79823514"
           inkscape:flatsided="true"
           inkscape:rounded="0"
           inkscape:randomized="0"
           d="m 88.893422,401.89336 38.454888,37.48005 -23.76244,48.15474 -53.140876,-7.71879 -9.080432,-52.92521 z"
           transform="matrix(0.91547764,0,0,0.91547764,-16.315632,231.3782)"
           inkscape:transform-center-x="1.1317962"
           inkscape:transform-center-y="-0.87702664" />
        <path
           inkscape:connector-curvature="0"
           style="color:#000000;fill:#000000;fill-opacity:0.35686275;fill-rule:nonzero;stroke:none;stroke-width:4;marker:none;visibility:visible;display:inline;overflow:visible;enable-background:accumulate"
           d="m 65.06473,599.30801 -43.51379,22.88694 8.32512,48.43449 48.63475,7.06634 21.7712,-44.08597 -35.21728,-34.3018 z m -2.28869,15.73477 21.82842,21.25625 -13.47469,27.32128 -30.18215,-4.37713 -5.14956,-30.03911 26.97798,-14.16129 z"
           id="path2997-8-46" />
        <path
           inkscape:connector-curvature="0"
           id="path2997-8-7"
           d="m 71.0487,630.54968 -43.5,22.875 2.96875,17.3125 48,6.96875 13.28125,-26.9375 -20.75,-20.21875 z"
           style="color:#000000;fill:#000000;fill-opacity:0.19607843;fill-rule:nonzero;stroke:none;stroke-width:4;marker:none;visibility:visible;display:inline;overflow:visible;enable-background:accumulate" />
      </g>
      <path
         transform="matrix(0.86100387,0,0,0.86100387,150.96937,295.02588)"
         d="m 104.42452,442.48889 c 0,9.03088 -7.320968,16.35185 -16.351842,16.35185 -9.030875,0 -16.351845,-7.32097 -16.351845,-16.35185 0,-9.03087 7.32097,-16.35184 16.351845,-16.35184 9.030874,0 16.351842,7.32097 16.351842,16.35184 z"
         sodipodi:ry="16.351845"
         sodipodi:rx="16.351845"
         sodipodi:cy="442.48889"
         sodipodi:cx="88.072678"
         id="path3849"
         style="color:#000000;fill:#000000;fill-opacity:0.19607843;fill-rule:nonzero;stroke:none;stroke-width:4;marker:none;visibility:visible;display:inline;overflow:visible;enable-background:accumulate"
         sodipodi:type="arc" />
      <path
         transform="matrix(0.98823526,0,0,0.98461538,142.27088,240.26107)"
         d="m 91.607142,442.55804 c 0,3.36549 -2.718271,6.09375 -6.071429,6.09375 -3.353157,0 -6.071429,-2.72826 -6.071429,-6.09375 0,-3.36548 2.718272,-6.09375 6.071429,-6.09375 3.353158,0 6.071429,2.72827 6.071429,6.09375 z"
         sodipodi:ry="6.09375"
         sodipodi:rx="6.0714288"
         sodipodi:cy="442.55804"
         sodipodi:cx="85.535713"
         id="path3847"
         style="color:#000000;fill:#ffffff;fill-opacity:1;fill-rule:nonzero;stroke:none;stroke-width:4;marker:none;visibility:visible;display:inline;overflow:visible;enable-background:accumulate"
         sodipodi:type="arc" />
      <path
         transform="matrix(0.86100387,0,0,0.86100387,197.40522,248.69055)"
         d="m 104.42452,442.48889 c 0,9.03088 -7.320968,16.35185 -16.351842,16.35185 -9.030875,0 -16.351845,-7.32097 -16.351845,-16.35185 0,-9.03087 7.32097,-16.35184 16.351845,-16.35184 9.030874,0 16.351842,7.32097 16.351842,16.35184 z"
         sodipodi:ry="16.351845"
         sodipodi:rx="16.351845"
         sodipodi:cy="442.48889"
         sodipodi:cx="88.072678"
         id="path3849-7"
         style="color:#000000;fill:#000000;fill-opacity:0.19607843;fill-rule:nonzero;stroke:none;stroke-width:4;marker:none;visibility:visible;display:inline;overflow:visible;enable-background:accumulate"
         sodipodi:type="arc" />
      <path
         transform="matrix(0.98823526,0,0,0.98461538,188.70673,193.92574)"
         d="m 91.607142,442.55804 c 0,3.36549 -2.718271,6.09375 -6.071429,6.09375 -3.353157,0 -6.071429,-2.72826 -6.071429,-6.09375 0,-3.36548 2.718272,-6.09375 6.071429,-6.09375 3.353158,0 6.071429,2.72827 6.071429,6.09375 z"
         sodipodi:ry="6.09375"
         sodipodi:rx="6.0714288"
         sodipodi:cy="442.55804"
         sodipodi:cx="85.535713"
         id="path3847-1"
         style="color:#000000;fill:#6ab6d7;fill-opacity:1;fill-rule:nonzero;stroke:none;stroke-width:4;marker:none;visibility:visible;display:inline;overflow:visible;enable-background:accumulate"
         sodipodi:type="arc" />
      <path
         transform="matrix(0.86100387,0,0,0.86100387,245.48848,201.31441)"
         d="m 104.42452,442.48889 c 0,9.03088 -7.320968,16.35185 -16.351842,16.35185 -9.030875,0 -16.351845,-7.32097 -16.351845,-16.35185 0,-9.03087 7.32097,-16.35184 16.351845,-16.35184 9.030874,0 16.351842,7.32097 16.351842,16.35184 z"
         sodipodi:ry="16.351845"
         sodipodi:rx="16.351845"
         sodipodi:cy="442.48889"
         sodipodi:cx="88.072678"
         id="path3849-77"
         style="color:#000000;fill:#000000;fill-opacity:0.19607843;fill-rule:nonzero;stroke:none;stroke-width:4;marker:none;visibility:visible;display:inline;overflow:visible;enable-background:accumulate"
         sodipodi:type="arc" />
      <path
         transform="matrix(0.98823526,0,0,0.98461538,236.78999,146.5496)"
         d="m 91.607142,442.55804 c 0,3.36549 -2.718271,6.09375 -6.071429,6.09375 -3.353157,0 -6.071429,-2.72826 -6.071429,-6.09375 0,-3.36548 2.718272,-6.09375 6.071429,-6.09375 3.353158,0 6.071429,2.72827 6.071429,6.09375 z"
         sodipodi:ry="6.09375"
         sodipodi:rx="6.0714288"
         sodipodi:cy="442.55804"
         sodipodi:cx="85.535713"
         id="path3847-6"
         style="color:#000000;fill:#6ab6d7;fill-opacity:1;fill-rule:nonzero;stroke:none;stroke-width:4;marker:none;visibility:visible;display:inline;overflow:visible;enable-background:accumulate"
         sodipodi:type="arc" />
    </g>
    <path
       style="fill:#6ab6d7;fill-opacity:1;stroke:none"
       d="m 563.99992,218.0053 -50.5,-44.5 c -52.76562,-24.38343 -77.19631,-4.79887 -91.5,30.5 -7.43606,17.59818 -0.76861,53.20981 1.5,66 2.26861,12.79019 11.5368,17.10253 15.5,32 3.9632,14.89747 -1.5,55 -1.5,55 l 35.5,-31 c 3.96262,-20.58982 12.67611,-43.35271 25,-43.5 12.32389,-0.14729 19.9444,5.14533 13.5,17.5 l 4.5,27.5 27.5,27.5 c 0,0 37.28303,-6.71808 43.5,7.5 6.21697,14.21808 -25.42879,26.21504 -47,34.5 l -32.5,36.5 c 20,-1.86128 43,-11.91791 63,-4 16.153,11.56285 30.99329,23.72428 59.5,21 28.5067,-2.72428 57.35,-7.56838 69,-34 11.65,-26.43162 4.8897,-47.33333 -9.5,-68.5 l -36.5,-42 c 0,0 7.75287,30.76146 4.67157,39.7981 -3.0813,9.03663 -12.95257,18.47897 -27.67157,-7.7981 -14.71901,-26.27707 -13.76939,-46.31828 2.5,-59.5 16.2694,-13.18172 38.36195,14.82674 46,22 7.63805,7.17327 64,99 64,99 l 1,-52 -51.5,-168.5 -169,-52 -52.5,-1 c 0,0 92.49464,54.01693 101.5,64.5 9.00536,10.48307 28.21815,39.62019 10.5,50 -15.84056,12.0219 -33.50132,8.57214 -52,-2 -21.40634,-10.52204 -19.1262,-21.9055 -12.5,-26.5 6.6262,-4.59451 46,6 46,6 z"
       id="path3029"
       inkscape:connector-curvature="0"
       sodipodi:nodetypes="ccczzcczccczccczzcczzzzccccczcczc" />
    <path
       style="fill:#396173;fill-opacity:1;stroke:none"
       d="M 234.15625 0.25 A 4.2522629 4.2522629 0 0 0 232.34375 8.15625 C 232.34375 8.15625 255.45215 21.65052 279.65625 36.4375 C 291.7583 43.83099 304.13331 51.57099 314 58.0625 C 318.93334 61.30826 323.23391 64.24446 326.53125 66.65625 C 329.82859 69.06804 332.23968 71.15082 332.78125 71.78125 C 336.98906 76.67953 343.86161 86.42336 347.28125 95.53125 C 348.99107 100.08519 349.79266 104.44105 349.375 107.75 C 348.95734 111.05895 347.73552 113.35675 344.34375 115.34375 A 4.2522629 4.2522629 0 0 0 343.9375 115.625 C 336.77937 121.05753 329.64873 122.82936 321.84375 122.21875 C 314.03877 121.60814 305.54123 118.40819 296.625 113.3125 A 4.2522629 4.2522629 0 0 0 296.375 113.1875 C 286.27023 108.22062 282.64103 103.36166 281.84375 100.40625 C 281.05378 97.477931 282.26175 95.516627 284.375 94.03125 C 284.33998 94.090802 285.06764 93.791179 286.25 93.6875 C 287.60127 93.56901 289.48982 93.58733 291.65625 93.75 C 295.98912 94.07534 301.44401 94.9183 306.6875 95.9375 C 317.17448 97.9759 326.90625 100.59375 326.90625 100.59375 A 4.2522629 4.2522629 0 0 0 330.8125 93.3125 L 280.3125 48.8125 A 4.2522629 4.2522629 0 0 0 279.28125 48.125 C 252.27812 35.64663 231.55953 34.08469 215.625 40.96875 C 199.70991 47.84441 189.45736 62.69732 182.09375 80.84375 C 182.08475 80.86592 182.07149 80.88407 182.0625 80.90625 C 177.79287 91.06576 177.83375 104.70203 178.875 117.65625 C 179.91834 130.6365 182.18478 142.89203 183.3125 149.25 C 184.60635 156.54457 187.99 161.54339 191.09375 166.09375 C 194.1975 170.64411 197.11015 174.84229 198.90625 181.59375 C 200.51937 187.65739 200.35946 201.54287 199.5 213.28125 C 198.64054 225.01963 197.28125 234.9375 197.28125 234.9375 A 4.2522629 4.2522629 0 0 0 204.28125 238.6875 L 239.78125 207.6875 A 4.2522629 4.2522629 0 0 0 241.1875 205.3125 C 243.11446 195.29999 246.23117 184.71462 250.15625 177 C 252.11879 173.14269 254.28444 170.04468 256.375 168.0625 C 258.46556 166.08032 260.28416 165.27125 262.0625 165.25 C 267.60544 165.18375 271.39659 166.57811 272.65625 167.9375 C 273.28608 168.6172 273.59332 169.23109 273.59375 170.53125 C 273.59418 171.83141 273.11337 173.8576 271.71875 176.53125 A 4.2522629 4.2522629 0 0 0 271.3125 179.1875 L 275.8125 206.6875 A 4.2522629 4.2522629 0 0 0 277 209 L 304.5 236.5 A 4.2522629 4.2522629 0 0 0 308.25 237.6875 C 308.25 237.6875 317.27383 236.06332 326.875 236.15625 C 331.67558 236.20272 336.59128 236.70862 340.3125 237.875 C 344.03372 239.04138 346.21372 240.70614 347.09375 242.71875 C 348.02958 244.85898 347.75404 246.21302 345.90625 248.6875 C 344.05846 251.16198 340.40831 254.05841 335.75 256.8125 C 326.43337 262.32068 313.26277 267.38554 302.46875 271.53125 A 4.2522629 4.2522629 0 0 0 300.8125 272.6875 L 268.3125 309.1875 A 4.2522629 4.2522629 0 0 0 271.90625 316.21875 C 292.89327 314.26561 314.86107 305.04726 332.625 311.875 C 348.45558 323.23476 364.92451 336.03621 394.40625 333.21875 C 408.76199 331.84683 423.43749 329.97998 436.375 324.84375 C 449.31251 319.70752 460.59761 311.03185 466.90625 296.71875 C 479.13474 268.97465 471.80453 245.85589 457.03125 224.125 A 4.2522629 4.2522629 0 0 0 456.71875 223.71875 L 420.21875 181.71875 A 4.2522629 4.2522629 0 0 0 412.875 185.53125 C 412.875 185.53125 414.76347 193.10556 416.28125 201.75 C 417.04014 206.07222 417.72449 210.64237 418 214.5625 C 418.27551 218.48263 417.98198 221.89058 417.625 222.9375 C 417.00525 224.75507 416.02675 226.5875 414.96875 227.75 C 413.91075 228.9125 412.99512 229.3634 412 229.40625 C 411.00488 229.4491 409.40455 229.06791 406.90625 226.875 C 404.40795 224.68209 401.24665 220.73568 397.71875 214.4375 C 390.60353 201.73507 387.49243 190.85251 387.875 182.03125 C 388.25757 173.20999 391.84028 166.26533 399.1875 160.3125 C 402.31691 157.77701 405.13167 157.33537 408.65625 158.03125 C 412.18083 158.72713 416.25387 160.86937 420.21875 163.78125 C 428.1485 169.60501 435.25293 178.01708 439.59375 182.09375 C 439.84968 182.3341 441.74403 184.65057 443.96875 187.78125 C 446.19347 190.91193 449.02384 195.05823 452.1875 199.84375 C 458.51483 209.4148 466.26745 221.55607 473.78125 233.46875 C 488.80884 257.29411 502.875 280.21875 502.875 280.21875 A 4.2522629 4.2522629 0 0 0 510.75 278.09375 L 511.75 226.09375 A 4.2522629 4.2522629 0 0 0 511.5625 224.75 L 460.0625 56.25 A 4.2522629 4.2522629 0 0 0 457.25 53.4375 L 288.25 1.4375 A 4.2522629 4.2522629 0 0 0 287.09375 1.25 L 234.59375 0.25 A 4.2522629 4.2522629 0 0 0 234.15625 0.25 z M 234.5 4.5 L 287 5.5 L 456 57.5 L 507.5 226 L 506.5 278 C 506.5 278 450.13805 186.17327 442.5 179 C 434.86195 171.82674 412.7694 143.81828 396.5 157 C 380.23061 170.18172 379.28099 190.22293 394 216.5 C 408.719 242.77707 418.57495 233.34913 421.65625 224.3125 C 424.73755 215.27586 417 184.5 417 184.5 L 453.5 226.5 C 467.8897 247.66667 474.65 268.56838 463 295 C 451.35 321.43162 422.5067 326.27572 394 329 C 365.49329 331.72428 350.653 319.56285 334.5 308 C 314.5 300.08209 291.5 310.13872 271.5 312 L 304 275.5 C 325.57121 267.21504 357.21697 255.21808 351 241 C 344.78303 226.78192 307.5 233.5 307.5 233.5 L 280 206 L 275.5 178.5 C 281.9444 166.14533 274.32389 160.85271 262 161 C 249.67611 161.14729 240.96262 183.91018 237 204.5 L 201.5 235.5 C 201.5 235.5 206.9632 195.39747 203 180.5 C 199.0368 165.60253 189.76861 161.29019 187.5 148.5 C 185.23139 135.70981 178.56394 100.09818 186 82.5 C 200.30369 47.20113 224.73438 27.61657 277.5 52 L 328 96.5 C 328 96.5 288.6262 85.90549 282 90.5 C 275.3738 95.0945 273.09366 106.47796 294.5 117 C 312.99868 127.57214 330.65944 131.0219 346.5 119 C 364.21815 108.62019 345.00536 79.48307 336 69 C 326.99464 58.51693 234.5 4.5 234.5 4.5 z "
       transform="translate(236,121.50504)"
       id="path3099" />
    <path
       style="fill:#000000;fill-opacity:0.07843138;stroke:none"
       d="M 234.5 4.5 C 234.5 4.5 326.99464 58.51693 336 69 C 345.00536 79.48307 364.21815 108.62019 346.5 119 C 330.65944 131.0219 312.99868 127.57214 294.5 117 C 273.09366 106.47796 275.3738 95.0945 282 90.5 C 288.6262 85.90549 328 96.5 328 96.5 L 277.5 52 C 224.73438 27.61657 200.30369 47.20113 186 82.5 C 178.56394 100.09818 185.23139 135.70981 187.5 148.5 C 189.76861 161.29019 199.0368 165.60253 203 180.5 C 206.9632 195.39747 201.5 235.5 201.5 235.5 L 237 204.5 C 240.96262 183.91018 249.67611 161.14729 262 161 C 274.32389 160.85271 281.9444 166.14533 275.5 178.5 L 280 206 L 307.5 233.5 C 307.5 233.5 344.78303 226.78192 351 241 C 357.21697 255.21808 325.57121 267.21504 304 275.5 L 271.5 312 C 291.5 310.13872 314.5 300.08209 334.5 308 C 350.653 319.56285 365.49329 331.72428 394 329 C 422.5067 326.27572 451.35 321.43162 463 295 C 474.65 268.56838 467.8897 247.66667 453.5 226.5 L 417 184.5 C 417 184.5 424.73755 215.27586 421.65625 224.3125 C 418.57495 233.34913 408.719 242.77707 394 216.5 C 379.28099 190.22293 380.23061 170.18172 396.5 157 C 412.7694 143.81828 434.86195 171.82674 442.5 179 C 450.13805 186.17327 506.5 278 506.5 278 L 507.5 226 L 456 57.5 L 287 5.5 L 234.5 4.5 z M 319.3125 34.65625 L 441.28125 72.1875 L 481.40625 203.46875 C 477.90733 198.01942 474.13746 191.9951 471.0625 187.34375 C 467.81711 182.43461 464.91457 178.14204 462.4375 174.65625 C 459.96043 171.17046 459.06949 169.32756 455.09375 165.59375 C 453.53039 164.12552 444.65171 153.66072 433.625 145.5625 C 428.11165 141.51339 421.63295 137.54203 413.03125 135.84375 C 404.42955 134.14547 393.05951 136.13817 384.9375 142.71875 C 373.39859 152.06776 365.92269 166.24093 365.28125 181.03125 C 364.63981 195.82157 369.55322 210.44495 377.96875 225.46875 C 382.30493 233.20991 386.57639 239.17305 391.96875 243.90625 C 397.36111 248.63945 404.79091 252.35217 412.96875 252 C 421.14659 251.64783 427.81216 247.22687 431.6875 242.96875 C 433.99863 240.42935 435.54363 237.87614 436.8125 235.34375 L 438.84375 237.65625 C 451.12768 255.87914 455.19751 267.15175 446.1875 287.59375 C 442.45325 296.06604 437.20495 300.17051 428.03125 303.8125 C 418.85755 307.45449 406.06074 309.36766 392.25 310.6875 C 369.50143 312.8615 361.96788 305.07445 345.1875 293.0625 A 18.382203 18.382203 0 0 0 341.28125 290.90625 C 335.76112 288.72086 330.37053 287.59516 325.09375 286.90625 C 332.49956 283.88152 340.12664 280.54245 347.28125 276.3125 C 353.3078 272.74948 359.08665 268.84034 364.03125 262.21875 C 368.97585 255.59716 372.07132 243.29337 367.84375 233.625 C 363.37494 223.40493 354.23472 218.52932 347.0625 216.28125 C 339.89028 214.03318 333.21631 213.59051 327.09375 213.53125 C 322.272 213.48458 317.92314 213.79914 314.15625 214.15625 L 297.15625 197.15625 L 294.4375 180.5625 C 295.47542 177.44826 296.21996 174.17895 296.21875 170.53125 C 296.21668 164.27495 293.58496 157.20694 289.28125 152.5625 C 280.67383 143.27363 270.61911 142.51937 261.78125 142.625 C 253.06912 142.72912 245.67787 147.01186 240.8125 151.625 C 235.94713 156.23814 232.70074 161.38035 229.96875 166.75 C 226.86918 172.84212 224.51212 179.34637 222.59375 185.9375 C 222.23331 182.5748 221.65491 179.18276 220.75 175.78125 C 217.96651 165.31824 212.87514 157.83385 209.8125 153.34375 C 206.74986 148.85365 206.03838 147.788 205.59375 145.28125 C 204.43098 138.72566 202.36156 127.33999 201.4375 115.84375 C 200.51344 104.34751 201.71625 92.54645 202.9375 89.65625 A 18.382203 18.382203 0 0 0 203.03125 89.40625 C 209.25954 74.03597 216.37247 65.31527 224.625 61.75 C 232.60575 58.30215 245.30371 57.87545 267.5625 67.75 L 274.375 73.75 C 273.46507 74.2313 272.55636 74.69545 271.53125 75.40625 C 263.18817 81.19121 256.64665 93.88216 260 106.3125 C 263.26314 118.40847 272.66073 126.49066 285.40625 132.9375 L 285.375 132.96875 C 285.71153 133.16108 286.06833 133.31045 286.40625 133.5 C 296.80199 139.33116 307.84997 143.85708 320.0625 144.8125 C 332.00417 145.74673 344.88693 142.38422 355.75 134.8125 L 355.78125 134.84375 C 356.0979 134.65825 356.37827 134.41646 356.6875 134.21875 C 356.98567 134.00178 357.33023 133.87996 357.625 133.65625 L 357.59375 133.625 C 365.49125 128.15016 370.80219 118.84552 371.84375 110.59375 C 372.96427 101.7164 370.96225 94.20371 368.46875 87.5625 C 363.48174 74.28009 355.71489 63.75666 349.9375 57.03125 C 346.28679 52.78149 343.70211 51.15142 339.90625 48.375 C 336.11039 45.59858 331.55998 42.52644 326.4375 39.15625 C 324.34859 37.78191 321.56884 36.10708 319.3125 34.65625 z "
       transform="translate(236,121.50504)"
       id="path3029-1" />
    <path
       style="fill:#ffffff;fill-opacity:0.27450982;stroke:none"
       d="M 234.5 4.5 C 234.5 4.5 247.95581 12.377495 265.0625 22.65625 L 306.125 23.4375 L 460.0625 70.8125 L 456 57.5 L 287 5.5 L 234.5 4.5 z M 235.78125 41.15625 C 210.4576 41.388223 195.83379 58.232027 186 82.5 C 178.56394 100.09818 185.23139 135.70981 187.5 148.5 C 189.76861 161.29019 199.0368 165.60253 203 180.5 C 206.9632 195.39747 201.5 235.5 201.5 235.5 L 223.53125 216.25 C 223.60687 209.26092 223.2775 202.76968 222.125 198.4375 C 218.1618 183.54003 208.89361 179.22769 206.625 166.4375 C 204.35639 153.64731 197.68894 118.03568 205.125 100.4375 C 219.42869 65.13863 243.85938 45.55407 296.625 69.9375 L 326.28125 96.0625 C 327.37082 96.34322 328 96.5 328 96.5 L 277.5 52 C 261.01074 44.380178 247.292 41.050808 235.78125 41.15625 z M 341.9375 76.75 C 350.99464 89.889241 360.85039 110.59312 346.5 119 C 331.26456 130.56266 314.35407 127.78944 296.625 118.15625 C 297.32688 123.17449 301.91841 129.18326 313.625 134.9375 C 332.12368 145.50964 349.78444 148.9594 365.625 136.9375 C 383.34315 126.55769 364.13036 97.42057 355.125 86.9375 C 353.39575 84.924495 348.57774 81.282767 341.9375 76.75 z M 441.59375 178.125 C 441.89826 178.42717 442.23057 178.74696 442.5 179 C 450.13805 186.17327 506.5 278 506.5 278 L 506.75 265.4375 C 489.62006 238.00522 466.34066 201.36621 461.625 196.9375 C 457.76554 193.31289 450.21824 184.38692 441.59375 178.125 z M 281.125 178.9375 C 279.26653 178.95971 277.50285 179.50293 275.8125 180.46875 L 280 206 L 307.5 233.5 C 307.5 233.5 308.09644 233.41445 308.53125 233.34375 L 299.125 223.9375 L 294.625 196.4375 C 301.0694 184.08283 293.44889 178.79021 281.125 178.9375 z M 417 184.5 C 417 184.5 424.73755 215.27586 421.65625 224.3125 C 420.17073 228.66914 417.11176 233.09656 412.6875 233.59375 C 412.84179 233.87419 412.96711 234.15562 413.125 234.4375 C 427.844 260.71457 437.7312 251.28663 440.8125 242.25 C 443.07807 235.60567 439.46664 217.27079 437.40625 208 L 417 184.5 z M 350.15625 250.03125 C 343.8452 260.31493 320.84082 269.03186 304 275.5 L 271.5 312 C 284.49793 310.79036 298.77109 306.13653 312.65625 305.1875 L 323.125 293.4375 C 344.69621 285.15254 376.34197 273.15558 370.125 258.9375 C 367.437 252.79009 358.93482 250.58624 350.15625 250.03125 z "
       transform="translate(236,121.50504)"
       id="path3029-9" />
    <path
       sodipodi:type="star"
       style="color:#000000;fill:#6ab6d7;fill-opacity:1;fill-rule:nonzero;stroke:none;stroke-width:4;marker:none;visibility:visible;display:inline;overflow:visible;enable-background:accumulate"
       id="path3883"
       sodipodi:sides="5"
       sodipodi:cx="969.44342"
       sodipodi:cy="174.00296"
       sodipodi:r1="45.541191"
       sodipodi:r2="36.843597"
       sodipodi:arg1="-2.0205559"
       sodipodi:arg2="-1.3922374"
       inkscape:flatsided="true"
       inkscape:rounded="0"
       inkscape:randomized="0"
       d="m 949.64443,132.99077 52.68567,9.50877 7.2374,53.04543 -48.21272,23.27511 -37.0345,-38.66063 z"
       transform="translate(-437.44289,164.09912)"
       inkscape:transform-center-x="2.4995282"
       inkscape:transform-center-y="1.9024612" />
    <path
       style="color:#000000;fill:#396173;fill-opacity:1;fill-rule:nonzero;stroke:none;stroke-width:4;marker:none;visibility:visible;display:inline;overflow:visible;enable-background:accumulate"
       d="m 512.09167,291.41162 a 5.7014473,5.7014473 0 0 0 -4.9063,3 l -25.3437,47.15625 a 5.7014473,5.7014473 0 0 0 0.9062,6.625 l 37.0313,38.65625 a 5.7014473,5.7014473 0 0 0 6.5937,1.1875 l 48.2188,-23.28125 a 5.7014473,5.7014473 0 0 0 3.1875,-5.90625 l -7.2188,-53.03125 a 5.7014473,5.7014473 0 0 0 -4.6562,-4.84375 l -52.6875,-9.5 a 5.7014473,5.7014473 0 0 0 -1.125,-0.0625 z m 0.125,5.6875 52.6562,9.5 7.25,53.03125 -48.2187,23.28125 -37.0313,-38.65625 25.3438,-47.15625 z"
       id="path3910"
       inkscape:connector-curvature="0" />
    <path
       style="color:#000000;fill:#000000;fill-opacity:0.07843137;fill-rule:nonzero;stroke:none;stroke-width:4;marker:none;visibility:visible;display:inline;overflow:visible;enable-background:accumulate"
       d="m 512.21667,297.09912 -25.3438,47.15625 37.0313,38.65625 48.2187,-23.28125 -7.25,-53.03125 -52.6562,-9.5 z m 7.9062,16.375 31.6563,5.6875 4.3437,31.84375 -29,14 -22.2187,-23.21875 15.2187,-28.3125 z"
       id="path3883-9"
       inkscape:connector-curvature="0" />
    <path
       style="color:#000000;fill:#000000;fill-opacity:0.07843137;fill-rule:nonzero;stroke:none;stroke-width:4;marker:none;visibility:visible;display:inline;overflow:visible;enable-background:accumulate"
       d="m 520.34167,334.56787 -15.375,28.59375 18.9375,19.75 48.2187,-23.28125 -2.2187,-16.125 -49.5625,-8.9375 z"
       id="path3883-2"
       inkscape:connector-curvature="0" />
    <rect
       style="color:#000000;fill:#6ab6d7;fill-opacity:1;fill-rule:nonzero;stroke:none;stroke-width:4;marker:none;visibility:visible;display:inline;overflow:visible;enable-background:accumulate"
       id="rect4028"
       width="16"
       height="16"
       x="523.93542"
       y="329.67316" />
    <path
       style="color:#000000;fill:#396173;fill-opacity:1;fill-rule:nonzero;stroke:none;stroke-width:4;marker:none;visibility:visible;display:inline;overflow:visible;enable-background:accumulate"
       d="m 523.59167,326.34912 a 3.3590931,3.3590931 0 0 0 -3,3.34375 l 0,16 a 3.3590931,3.3590931 0 0 0 3.3437,3.34375 l 16,0 a 3.3590931,3.3590931 0 0 0 3.3438,-3.34375 l 0,-16 a 3.3590931,3.3590931 0 0 0 -3.3438,-3.34375 l -16,0 a 3.3590931,3.3590931 0 0 0 -0.3437,0 z m 0.3437,3.3125 16,0 0,16 -16,0 0,-16 z"
       id="path4048"
       inkscape:connector-curvature="0" />
    <path
       style="color:#000000;fill:#000000;fill-opacity:0.07843137;fill-rule:nonzero;stroke:none;stroke-width:4;marker:none;visibility:visible;display:inline;overflow:visible;enable-background:accumulate"
       d="m 523.93537,329.66162 0,16 16,0 0,-16 -16,0 z m 6.1875,6.21875 3.625,0 0,3.625 -3.625,0 0,-3.625 z"
       id="rect4028-4"
       inkscape:connector-curvature="0" />
    <path
       style="color:#000000;fill:#000000;fill-opacity:0.07843137;fill-rule:nonzero;stroke:none;stroke-width:4;marker:none;visibility:visible;display:inline;overflow:visible;enable-background:accumulate"
       d="m 529.68537,339.66162 0,6 10.25,0 0,-6 -10.25,0 z"
       id="rect4028-6"
       inkscape:connector-curvature="0" />
    <path
       sodipodi:type="star"
       style="color:#000000;fill:#6ab6d7;fill-opacity:1;fill-rule:nonzero;stroke:none;stroke-width:4;marker:none;visibility:visible;display:inline;overflow:visible;enable-background:accumulate"
       id="path3946"
       sodipodi:sides="5"
       sodipodi:cx="947.5"
       sodipodi:cy="161.5"
       sodipodi:r1="20.024984"
       sodipodi:r2="16.200554"
       sodipodi:arg1="-1.6207547"
       sodipodi:arg2="-0.99243619"
       inkscape:flatsided="true"
       inkscape:rounded="0"
       inkscape:randomized="0"
       d="m 946.5,141.5 19.71211,12.8686 -6.14739,22.72395 -23.51141,1.17557 -8.38346,-21.9974 z"
       transform="translate(-363.99971,121.50504)"
       inkscape:transform-center-x="0.30901699"
       inkscape:transform-center-y="-1.6159374" />
    <path
       style="color:#000000;fill:#396173;fill-opacity:1;fill-rule:nonzero;stroke:none;stroke-width:4;marker:none;visibility:visible;display:inline;overflow:visible;enable-background:accumulate"
       d="m 582.40654,259.59879 a 3.3914192,3.3914192 0 0 0 -0.3125,0.0312 3.3914192,3.3914192 0 0 0 -1.71875,0.75 l -18.34375,14.78125 a 3.3914192,3.3914192 0 0 0 -1.03125,3.84375 l 8.40625,22 a 3.3914192,3.3914192 0 0 0 3.3125,2.15625 l 23.5,-1.1875 a 3.3914192,3.3914192 0 0 0 3.125,-2.5 l 6.15625,-22.71875 a 3.3914192,3.3914192 0 0 0 -1.4375,-3.71875 l -19.71875,-12.875 a 3.3914192,3.3914192 0 0 0 -1.9375,-0.5625 z m 0.0937,3.40625 19.71875,12.875 -6.15625,22.71875 -23.5,1.1875 -8.40625,-22 18.34375,-14.78125 z"
       id="path3966"
       inkscape:connector-curvature="0" />
    <path
       style="color:#000000;fill:#000000;fill-opacity:0.07843137;fill-rule:nonzero;stroke:none;stroke-width:4;marker:none;visibility:visible;display:inline;overflow:visible;enable-background:accumulate"
       d="m 590.00029,279.00504 -18.34375,14.78125 2.28125,5.9375 22.125,-1.125 3.59375,-13.28125 -9.65625,-6.3125 z"
       id="path3946-1"
       inkscape:connector-curvature="0" />
    <path
       transform="translate(-475.99969,74.00504)"
       sodipodi:type="star"
       style="color:#000000;fill:#6ab6d7;fill-opacity:1;fill-rule:nonzero;stroke:none;stroke-width:4;marker:none;visibility:visible;display:inline;overflow:visible;enable-background:accumulate"
       id="path3946-3"
       sodipodi:sides="5"
       sodipodi:cx="947.5"
       sodipodi:cy="161.5"
       sodipodi:r1="20.024984"
       sodipodi:r2="16.200554"
       sodipodi:arg1="-1.6207547"
       sodipodi:arg2="-0.99243619"
       inkscape:flatsided="true"
       inkscape:rounded="0"
       inkscape:randomized="0"
       d="m 946.5,141.5 19.71211,12.8686 -6.14739,22.72395 -23.51141,1.17557 -8.38346,-21.9974 z"
       inkscape:transform-center-x="0.30901699"
       inkscape:transform-center-y="-1.6159374" />
    <path
       inkscape:connector-curvature="0"
       style="color:#000000;fill:#396173;fill-opacity:1;fill-rule:nonzero;stroke:none;stroke-width:4;marker:none;visibility:visible;display:inline;overflow:visible;enable-background:accumulate"
       d="m 470.40659,212.09879 a 3.3914192,3.3914192 0 0 0 -0.3125,0.0312 3.3914192,3.3914192 0 0 0 -1.7188,0.75 l -18.3437,14.78125 a 3.3914192,3.3914192 0 0 0 -1.0313,3.8438 l 8.4063,22 a 3.3914192,3.3914192 0 0 0 3.3125,2.15625 l 23.5,-1.1875 a 3.3914192,3.3914192 0 0 0 3.125,-2.5 l 6.1562,-22.71875 a 3.3914192,3.3914192 0 0 0 -1.4375,-3.71875 l -19.7187,-12.875 a 3.3914192,3.3914192 0 0 0 -1.9375,-0.5625 z m 0.094,3.40625 19.7187,12.875 -6.1562,22.71875 -23.5,1.1875 -8.4063,-22 18.3438,-14.78125 z"
       id="path3966-0" />
    <path
       inkscape:connector-curvature="0"
       style="color:#000000;fill:#000000;fill-opacity:0.07843137;fill-rule:nonzero;stroke:none;stroke-width:4;marker:none;visibility:visible;display:inline;overflow:visible;enable-background:accumulate"
       d="m 478.00029,231.50504 -18.3437,14.78125 2.2812,5.9375 22.125,-1.125 3.5938,-13.28125 -9.6563,-6.3125 z"
       id="path3946-1-0" />
    <path
       transform="translate(-310.49969,233.50504)"
       sodipodi:type="star"
       style="color:#000000;fill:#6ab6d7;fill-opacity:1;fill-rule:nonzero;stroke:none;stroke-width:4;marker:none;visibility:visible;display:inline;overflow:visible;enable-background:accumulate"
       id="path3946-6"
       sodipodi:sides="5"
       sodipodi:cx="947.5"
       sodipodi:cy="161.5"
       sodipodi:r1="20.024984"
       sodipodi:r2="16.200554"
       sodipodi:arg1="-1.6207547"
       sodipodi:arg2="-0.99243619"
       inkscape:flatsided="true"
       inkscape:rounded="0"
       inkscape:randomized="0"
       d="m 946.5,141.5 19.71211,12.8686 -6.14739,22.72395 -23.51141,1.17557 -8.38346,-21.9974 z"
       inkscape:transform-center-x="0.30901699"
       inkscape:transform-center-y="-1.6159374" />
    <path
       inkscape:connector-curvature="0"
       style="color:#000000;fill:#396173;fill-opacity:1;fill-rule:nonzero;stroke:none;stroke-width:4;marker:none;visibility:visible;display:inline;overflow:visible;enable-background:accumulate"
       d="m 635.90659,371.59879 a 3.3914192,3.3914192 0 0 0 -0.3125,0.0312 3.3914192,3.3914192 0 0 0 -1.7188,0.75 l -18.3437,14.78125 a 3.3914192,3.3914192 0 0 0 -1.0313,3.8438 l 8.4063,22 a 3.3914192,3.3914192 0 0 0 3.3125,2.15625 l 23.5,-1.1875 a 3.3914192,3.3914192 0 0 0 3.125,-2.5 l 6.1562,-22.71875 a 3.3914192,3.3914192 0 0 0 -1.4375,-3.71875 l -19.7187,-12.875 a 3.3914192,3.3914192 0 0 0 -1.9375,-0.5625 z m 0.094,3.40625 19.7187,12.875 -6.1562,22.71875 -23.5,1.1875 -8.4063,-22 18.3438,-14.78125 z"
       id="path3966-1" />
    <path
       inkscape:connector-curvature="0"
       style="color:#000000;fill:#000000;fill-opacity:0.07843137;fill-rule:nonzero;stroke:none;stroke-width:4;marker:none;visibility:visible;display:inline;overflow:visible;enable-background:accumulate"
       d="m 643.50029,391.00504 -18.3437,14.78125 2.2812,5.9375 22.125,-1.125 3.5938,-13.28125 -9.6563,-6.3125 z"
       id="path3946-1-08" />
  </g>
</svg>
