<?xml version="1.0" encoding="UTF-8" standalone="no"?>
<!-- Created with Inkscape (http://www.inkscape.org/) -->

<svg
   xmlns:dc="http://purl.org/dc/elements/1.1/"
   xmlns:cc="http://creativecommons.org/ns#"
   xmlns:rdf="http://www.w3.org/1999/02/22-rdf-syntax-ns#"
   xmlns:svg="http://www.w3.org/2000/svg"
   xmlns="http://www.w3.org/2000/svg"
   xmlns:sodipodi="http://sodipodi.sourceforge.net/DTD/sodipodi-0.dtd"
   xmlns:inkscape="http://www.inkscape.org/namespaces/inkscape"
   width="512"
   height="512"
   id="svg2"
   version="1.1"
   inkscape:version="0.48.4 r9939"
   sodipodi:docname="OsmiumAxe.svg">
  <defs
     id="defs4" />
  <sodipodi:namedview
     id="base"
     pagecolor="#ffffff"
     bordercolor="#666666"
     borderopacity="1.0"
     inkscape:pageopacity="0.0"
     inkscape:pageshadow="2"
     inkscape:zoom="1"
     inkscape:cx="164.70018"
     inkscape:cy="264.88599"
     inkscape:document-units="px"
     inkscape:current-layer="g3042"
     showgrid="false"
     fit-margin-top="0"
     fit-margin-left="0"
     fit-margin-right="0"
     fit-margin-bottom="0"
     inkscape:window-width="1301"
     inkscape:window-height="744"
     inkscape:window-x="65"
     inkscape:window-y="24"
     inkscape:window-maximized="1">
    <inkscape:grid
       type="xygrid"
       id="grid3096"
       empspacing="8"
       visible="true"
       enabled="true"
       snapvisiblegridlinesonly="true" />
  </sodipodi:namedview>
  <metadata
     id="metadata7">
    <rdf:RDF>
      <cc:Work
         rdf:about="">
        <dc:format>image/svg+xml</dc:format>
        <dc:type
           rdf:resource="http://purl.org/dc/dcmitype/StillImage" />
        <dc:title />
      </cc:Work>
    </rdf:RDF>
  </metadata>
  <g
     inkscape:label="Layer 1"
     inkscape:groupmode="layer"
     id="layer1"
     transform="translate(-236,-121.50504)">
    <g
       id="g4000"
       transform="translate(-6,0)">
      <path
         sodipodi:nodetypes="ccccc"
         transform="translate(236,121.50504)"
         inkscape:connector-curvature="0"
         id="path3034"
         d="M 368.57145,140.57181 60.714285,449.14286 95.382524,483.34191 402.81455,175.98219 z"
         style="fill:#5a4829;fill-opacity:1;stroke:none" />
      <path
         id="path3034-6"
         transform="translate(236,121.50504)"
         d="M 368.56285,140.56288 60.71875,449.15625 95.375,483.34375 402.81285,175.96913 z m -0.0937,11.1875 23.3125,24.15625 L 95.3125,472.28125 71.84375,449.125 z"
         style="fill:#000000;fill-opacity:0.2745098;stroke:none"
         inkscape:connector-curvature="0"
         sodipodi:nodetypes="cccccccccc" />
      <path
         id="path3034-2"
         transform="translate(236,121.50504)"
         d="M 387.7505,160.7815 80.53125,468.71875 95.375,483.34375 402.6255,176.1565 z"
         style="fill:#000000;fill-opacity:0.19607843;stroke:none"
         inkscape:connector-curvature="0"
         sodipodi:nodetypes="ccccc" />
    </g>
    <g
       transform="translate(80.963166,-88.334195)"
       id="g3042">
      <rect
         transform="matrix(0.70710678,-0.70710678,0.70710678,0.70710678,0,0)"
         y="613.81476"
         x="-286.18637"
         height="49.279358"
         width="156.29126"
         id="rect3879-0"
         style="color:#000000;fill:#a03b35;fill-opacity:1;fill-rule:nonzero;stroke:#2f0a09;stroke-width:3.66199994;stroke-opacity:1;marker:none;visibility:visible;display:inline;overflow:visible;enable-background:accumulate" />
      <path
         inkscape:connector-curvature="0"
         id="rect3879-0-0"
         d="m 342.58429,527.99833 -108.40126,108.40126 32.31749,32.31749 108.40126,-108.40126 -32.31749,-32.31749 z m -2.40569,15.6805 19.27455,19.27456 -93.44536,93.41638 -19.27456,-19.24557 93.44537,-93.44537 z"
         style="color:#000000;fill:#000000;fill-opacity:0.39215686;fill-rule:nonzero;stroke:none;stroke-width:3.66199994;marker:none;visibility:visible;display:inline;overflow:visible;enable-background:accumulate" />
      <path
         inkscape:connector-curvature="0"
         transform="translate(141.71428,232.93361)"
         id="rect3879-0-3"
         d="M 210.375,315.9375 106.40625,419.90625 124.8125,438.3125 228.78125,334.34375 210.375,315.9375 z"
         style="color:#000000;fill:#000000;fill-opacity:0.19607843;fill-rule:nonzero;stroke:none;stroke-width:3.66199994;marker:none;visibility:visible;display:inline;overflow:visible;enable-background:accumulate" />
      <g
         transform="translate(166.07158,38.571428)"
         id="g3842">
        <path
           sodipodi:type="star"
           style="color:#000000;fill:#6ab6d7;fill-opacity:1;fill-rule:nonzero;stroke:#000000;stroke-width:4.00009775;stroke-miterlimit:4;stroke-opacity:1;stroke-dasharray:none;marker:none;visibility:visible;display:inline;overflow:visible;enable-background:accumulate"
           id="path2997-8"
           sodipodi:sides="5"
           sodipodi:cx="82.327431"
           sodipodi:cy="447.09769"
           sodipodi:r1="45.678699"
           sodipodi:r2="39.67952"
           sodipodi:arg1="-1.4265537"
           sodipodi:arg2="-0.79823514"
           inkscape:flatsided="true"
           inkscape:rounded="0"
           inkscape:randomized="0"
           d="m 88.893422,401.89336 38.454888,37.48005 -23.76244,48.15474 -53.140876,-7.71879 -9.080432,-52.92521 z"
           transform="matrix(0.91547764,0,0,0.91547764,-16.315632,231.3782)"
           inkscape:transform-center-x="1.1317962"
           inkscape:transform-center-y="-0.87702664" />
        <path
           inkscape:connector-curvature="0"
           style="color:#000000;fill:#000000;fill-opacity:0.35686275;fill-rule:nonzero;stroke:none;stroke-width:4;marker:none;visibility:visible;display:inline;overflow:visible;enable-background:accumulate"
           d="m 65.06473,599.30801 -43.51379,22.88694 8.32512,48.43449 48.63475,7.06634 21.7712,-44.08597 -35.21728,-34.3018 z m -2.28869,15.73477 21.82842,21.25625 -13.47469,27.32128 -30.18215,-4.37713 -5.14956,-30.03911 26.97798,-14.16129 z"
           id="path2997-8-46" />
        <path
           inkscape:connector-curvature="0"
           id="path2997-8-7"
           d="m 71.0487,630.54968 -43.5,22.875 2.96875,17.3125 48,6.96875 13.28125,-26.9375 -20.75,-20.21875 z"
           style="color:#000000;fill:#000000;fill-opacity:0.19607843;fill-rule:nonzero;stroke:none;stroke-width:4;marker:none;visibility:visible;display:inline;overflow:visible;enable-background:accumulate" />
      </g>
      <path
         transform="matrix(0.86100387,0,0,0.86100387,150.96937,295.02588)"
         d="m 104.42452,442.48889 c 0,9.03088 -7.320968,16.35185 -16.351842,16.35185 -9.030875,0 -16.351845,-7.32097 -16.351845,-16.35185 0,-9.03087 7.32097,-16.35184 16.351845,-16.35184 9.030874,0 16.351842,7.32097 16.351842,16.35184 z"
         sodipodi:ry="16.351845"
         sodipodi:rx="16.351845"
         sodipodi:cy="442.48889"
         sodipodi:cx="88.072678"
         id="path3849"
         style="color:#000000;fill:#000000;fill-opacity:0.19607843;fill-rule:nonzero;stroke:none;stroke-width:4;marker:none;visibility:visible;display:inline;overflow:visible;enable-background:accumulate"
         sodipodi:type="arc" />
      <path
         transform="matrix(0.98823526,0,0,0.98461538,142.27088,240.26107)"
         d="m 91.607142,442.55804 c 0,3.36549 -2.718271,6.09375 -6.071429,6.09375 -3.353157,0 -6.071429,-2.72826 -6.071429,-6.09375 0,-3.36548 2.718272,-6.09375 6.071429,-6.09375 3.353158,0 6.071429,2.72827 6.071429,6.09375 z"
         sodipodi:ry="6.09375"
         sodipodi:rx="6.0714288"
         sodipodi:cy="442.55804"
         sodipodi:cx="85.535713"
         id="path3847"
         style="color:#000000;fill:#ffffff;fill-opacity:1;fill-rule:nonzero;stroke:none;stroke-width:4;marker:none;visibility:visible;display:inline;overflow:visible;enable-background:accumulate"
         sodipodi:type="arc" />
      <path
         transform="matrix(0.86100387,0,0,0.86100387,197.40522,248.69055)"
         d="m 104.42452,442.48889 c 0,9.03088 -7.320968,16.35185 -16.351842,16.35185 -9.030875,0 -16.351845,-7.32097 -16.351845,-16.35185 0,-9.03087 7.32097,-16.35184 16.351845,-16.35184 9.030874,0 16.351842,7.32097 16.351842,16.35184 z"
         sodipodi:ry="16.351845"
         sodipodi:rx="16.351845"
         sodipodi:cy="442.48889"
         sodipodi:cx="88.072678"
         id="path3849-7"
         style="color:#000000;fill:#000000;fill-opacity:0.19607843;fill-rule:nonzero;stroke:none;stroke-width:4;marker:none;visibility:visible;display:inline;overflow:visible;enable-background:accumulate"
         sodipodi:type="arc" />
      <path
         transform="matrix(0.98823526,0,0,0.98461538,188.70673,193.92574)"
         d="m 91.607142,442.55804 c 0,3.36549 -2.718271,6.09375 -6.071429,6.09375 -3.353157,0 -6.071429,-2.72826 -6.071429,-6.09375 0,-3.36548 2.718272,-6.09375 6.071429,-6.09375 3.353158,0 6.071429,2.72827 6.071429,6.09375 z"
         sodipodi:ry="6.09375"
         sodipodi:rx="6.0714288"
         sodipodi:cy="442.55804"
         sodipodi:cx="85.535713"
         id="path3847-1"
         style="color:#000000;fill:#6ab6d7;fill-opacity:1;fill-rule:nonzero;stroke:none;stroke-width:4;marker:none;visibility:visible;display:inline;overflow:visible;enable-background:accumulate"
         sodipodi:type="arc" />
      <path
         transform="matrix(0.86100387,0,0,0.86100387,245.48848,201.31441)"
         d="m 104.42452,442.48889 c 0,9.03088 -7.320968,16.35185 -16.351842,16.35185 -9.030875,0 -16.351845,-7.32097 -16.351845,-16.35185 0,-9.03087 7.32097,-16.35184 16.351845,-16.35184 9.030874,0 16.351842,7.32097 16.351842,16.35184 z"
         sodipodi:ry="16.351845"
         sodipodi:rx="16.351845"
         sodipodi:cy="442.48889"
         sodipodi:cx="88.072678"
         id="path3849-77"
         style="color:#000000;fill:#000000;fill-opacity:0.19607843;fill-rule:nonzero;stroke:none;stroke-width:4;marker:none;visibility:visible;display:inline;overflow:visible;enable-background:accumulate"
         sodipodi:type="arc" />
      <path
         transform="matrix(0.98823526,0,0,0.98461538,236.78999,146.5496)"
         d="m 91.607142,442.55804 c 0,3.36549 -2.718271,6.09375 -6.071429,6.09375 -3.353157,0 -6.071429,-2.72826 -6.071429,-6.09375 0,-3.36548 2.718272,-6.09375 6.071429,-6.09375 3.353158,0 6.071429,2.72827 6.071429,6.09375 z"
         sodipodi:ry="6.09375"
         sodipodi:rx="6.0714288"
         sodipodi:cy="442.55804"
         sodipodi:cx="85.535713"
         id="path3847-6"
         style="color:#000000;fill:#6ab6d7;fill-opacity:1;fill-rule:nonzero;stroke:none;stroke-width:4;marker:none;visibility:visible;display:inline;overflow:visible;enable-background:accumulate"
         sodipodi:type="arc" />
    </g>
    <path
       style="fill:#6ab6d7;fill-opacity:1;stroke:none"
       d="m 619,456.50504 -3.5,-64.5 -24.5,-49.5 -37,-24.5 -57.5,0.5 -83.5,79 15,-63 -61.5,53.5 44,-141 32,-12.5 15,-51.5 55,-11.5 22.5,-36 79,0 68,19.5 -39.5,21.5 -30,32 1.5,49.5 29.5,24 95.5,55 z"
       id="path3042"
       inkscape:connector-curvature="0" />
    <path
       style="fill:#000000;fill-opacity:0.07843137;stroke:none"
       d="m 566,202.50504 -22.5,36 -55,11.5 -15,51.5 -32,12.5 -25.03125,80.21875 80.03125,-75.71875 57.5,-0.5 37,24.5 24.5,49.5 0.75,13.6875 5.75,3.8125 14.59375,29.46875 71.125,-70.84375 -33.21875,-19.125 -29.5,-24 -1.3125,-42.875 -0.1875,-0.125 -29.5,-24 -1.5,-49.5 5.625,-6 -52.125,0 z"
       id="path3042-9"
       inkscape:connector-curvature="0" />
    <path
       style="fill:#000000;fill-opacity:0.07843137;stroke:none"
       d="m 535,135.50504 -22.5,36 -55,11.5 -15,51.5 -32,12.5 -44,141 61.5,-53.5 -15,63 83.5,-79 57.5,-0.5 37,24.5 24.5,49.5 3.5,64.5 120,-119.5 -95.5,-55 -29.5,-24 -1.5,-49.5 30,-32 39.5,-21.5 -68,-19.5 -79,0 z m 9.96875,18 66.46875,0 23.375,6.6875 -0.90625,0.5 a 18.0018,18.0018 0 0 0 -4.53125,3.5 l -30,32 a 18.0018,18.0018 0 0 0 -4.875,12.84375 l 1.5,49.5 a 18.0018,18.0018 0 0 0 6.625,13.4375 l 29.5,24 a 18.0018,18.0018 0 0 0 2.40625,1.625 l 75.125,43.25 -74.875,74.53125 -1.3125,-24.34375 a 18.0018,18.0018 0 0 0 -1.84375,-7.03125 l -24.5,-49.5 a 18.0018,18.0018 0 0 0 -6.1875,-7 l -37,-24.5 a 18.0018,18.0018 0 0 0 -10.09375,-3 l -57.5,0.5 a 18.0018,18.0018 0 0 0 -12.21875,4.9375 l -39.65625,37.5 1.03125,-4.28125 a 18.0018,18.0018 0 0 0 -29.3125,-17.75 l -13.5625,11.8125 22.46875,-72.09375 23.96875,-9.34375 a 18.0018,18.0018 0 0 0 10.71875,-11.75 l 11.96875,-41.125 44.4375,-9.28125 a 18.0018,18.0018 0 0 0 11.5625,-8.09375 l 17.21875,-27.53125 z"
       id="path3042-8"
       inkscape:connector-curvature="0" />
    <path
       style="fill:#ffffff;fill-opacity:0.2745098;stroke:none"
       d="m 535,135.50504 -22.5,36 -55,11.5 -15,51.5 -32,12.5 -44,141 61.5,-53.5 -6.5,27.28125 24.34375,-78 32,-12.5 15,-51.5 55,-11.5 22.5,-36 79,0 0.59375,0.15625 32.0625,-17.4375 -68,-19.5 -79,0 z m 114.0625,149.6875 0.28125,9.59375 29.5,24 49.71875,28.625 L 739,337.00504 649.0625,285.19254 z m -48.21875,77.21875 14.65625,29.59375 3.5,64.5 30.53125,-30.40625 -23.1875,-46.8125 -25.5,-16.875 z"
       id="path3042-6"
       inkscape:connector-curvature="0" />
    <path
       style="fill:#396173;fill-opacity:1;stroke:none"
       d="m 535,130.50504 a 5.0005,5.0005 0 0 0 -4.25,2.34375 l -21.375,34.1875 -52.90625,11.0625 a 5.0005,5.0005 0 0 0 -3.78125,3.5 l -14.3125,49.15625 -29.6875,11.59375 a 5.0005,5.0005 0 0 0 -2.96875,3.15625 l -44,141 a 5.0005,5.0005 0 0 0 8.0625,5.28125 l 49.71875,-43.25 -11.375,47.8125 a 5.0005,5.0005 0 0 0 8.3125,4.78125 l 82.0625,-77.65625 54.03125,-0.46875 34.59375,22.90625 23.4375,47.34375 3.4375,63.53125 a 5.0005,5.0005 0 0 0 8.53125,3.25 l 120,-119.5 a 5.0005,5.0005 0 0 0 -1.03125,-7.875 l -95.21875,-54.84375 -27.34375,-22.25 -1.375,-45.15625 28,-29.875 38.8125,-21.125 a 5.0005,5.0005 0 0 0 -1,-9.21875 l -68,-19.5 A 5.0005,5.0005 0 0 0 614,130.50504 l -79,0 z m 0,5 79,0 68,19.5 -39.5,21.5 -30,32 1.5,49.5 29.5,24 95.5,55 -120,119.5 -3.5,-64.5 -24.5,-49.5 -37,-24.5 -57.5,0.5 -83.5,79 15,-63 -61.5,53.5 44,-141 32,-12.5 15,-51.5 55,-11.5 22.5,-36 z"
       id="path3938"
       inkscape:connector-curvature="0" />
    <path
       style="fill:#6ab6d7;fill-opacity:1;stroke:none"
       d="M 523.91269,371.22908 576.2386,258.092 680.18327,209.65518 629.62516,318.54963 z"
       id="path4103"
       inkscape:connector-curvature="0"
       sodipodi:nodetypes="ccccc" />
    <path
       style="fill:#000000;fill-opacity:0.07843137;stroke:none"
       d="m 680.1875,209.66129 -103.9375,48.4375 -52.34375,113.125 105.71875,-52.6875 50.5625,-108.875 z m -32.90625,32.96875 -29.78125,64.125 -59.96875,29.875 30.78125,-66.53125 58.96875,-27.46875 z"
       id="path4103-6"
       inkscape:connector-curvature="0" />
    <path
       style="fill:#ffffff;fill-opacity:0.2745098;stroke:none"
       d="m 680.1875,209.66129 -103.9375,48.4375 -52.34375,113.125 31.625,-15.75 35.5625,-76.875 72.84375,-33.9375 16.25,-35 z"
       id="path4103-1"
       inkscape:connector-curvature="0" />
    <path
       style="fill:#396173;fill-opacity:1;stroke:none"
       d="m 680.21875,203.13004 a 6.5198542,6.5198542 0 0 0 -2.78125,0.625 L 573.5,252.19254 a 6.5198542,6.5198542 0 0 0 -3.15625,3.15625 L 518,368.47379 a 6.5198542,6.5198542 0 0 0 8.8125,8.59375 l 105.71875,-52.65625 a 6.5198542,6.5198542 0 0 0 3,-3.09375 l 50.5625,-108.90625 a 6.5198542,6.5198542 0 0 0 -5.875,-9.28125 z m -0.0312,6.53125 -50.5625,108.875 -105.71875,52.6875 52.34375,-113.125 103.9375,-48.4375 z"
       id="path3268"
       inkscape:connector-curvature="0" />
    <path
       sodipodi:type="star"
       style="color:#000000;fill:#6ab6d7;fill-opacity:1;fill-rule:nonzero;stroke:none;stroke-width:4;marker:none;visibility:visible;display:inline;overflow:visible;enable-background:accumulate"
       id="path3883"
       sodipodi:sides="5"
       sodipodi:cx="969.44342"
       sodipodi:cy="174.00296"
       sodipodi:r1="45.541191"
       sodipodi:r2="36.843597"
       sodipodi:arg1="-2.0205559"
       sodipodi:arg2="-1.3922374"
       inkscape:flatsided="true"
       inkscape:rounded="0"
       inkscape:randomized="0"
       d="m 949.64443,132.99077 52.68567,9.50877 7.2374,53.04543 -48.21272,23.27511 -37.0345,-38.66063 z"
       transform="translate(-367.87828,121.50504)"
       inkscape:transform-center-x="2.4995282"
       inkscape:transform-center-y="1.9024612" />
    <path
       style="color:#000000;fill:#396173;fill-opacity:1;fill-rule:nonzero;stroke:none;stroke-width:4;marker:none;visibility:visible;display:inline;overflow:visible;enable-background:accumulate"
       d="m 581.65625,248.81754 a 5.7014473,5.7014473 0 0 0 -4.90625,3 l -25.34375,47.15625 a 5.7014473,5.7014473 0 0 0 0.90625,6.625 l 37.03125,38.65625 a 5.7014473,5.7014473 0 0 0 6.59375,1.1875 l 48.21875,-23.28125 a 5.7014473,5.7014473 0 0 0 3.1875,-5.90625 L 640.125,263.22379 a 5.7014473,5.7014473 0 0 0 -4.65625,-4.84375 l -52.6875,-9.5 a 5.7014473,5.7014473 0 0 0 -1.125,-0.0625 z m 0.125,5.6875 52.65625,9.5 7.25,53.03125 -48.21875,23.28125 -37.03125,-38.65625 25.34375,-47.15625 z"
       id="path3910"
       inkscape:connector-curvature="0" />
    <path
       style="color:#000000;fill:#000000;fill-opacity:0.07843137;fill-rule:nonzero;stroke:none;stroke-width:4;marker:none;visibility:visible;display:inline;overflow:visible;enable-background:accumulate"
       d="m 581.78125,254.50504 -25.34375,47.15625 37.03125,38.65625 48.21875,-23.28125 -7.25,-53.03125 -52.65625,-9.5 z m 7.90625,16.375 31.65625,5.6875 4.34375,31.84375 -29,14 -22.21875,-23.21875 15.21875,-28.3125 z"
       id="path3883-9"
       inkscape:connector-curvature="0" />
    <path
       style="color:#000000;fill:#000000;fill-opacity:0.07843137;fill-rule:nonzero;stroke:none;stroke-width:4;marker:none;visibility:visible;display:inline;overflow:visible;enable-background:accumulate"
       d="m 589.90625,291.97379 -15.375,28.59375 18.9375,19.75 48.21875,-23.28125 -2.21875,-16.125 -49.5625,-8.9375 z"
       id="path3883-2"
       inkscape:connector-curvature="0" />
    <rect
       style="color:#000000;fill:#6ab6d7;fill-opacity:1;fill-rule:nonzero;stroke:none;stroke-width:4;marker:none;visibility:visible;display:inline;overflow:visible;enable-background:accumulate"
       id="rect4028"
       width="16"
       height="16"
       x="593.5"
       y="287.07907" />
    <path
       style="color:#000000;fill:#396173;fill-opacity:1;fill-rule:nonzero;stroke:none;stroke-width:4;marker:none;visibility:visible;display:inline;overflow:visible;enable-background:accumulate"
       d="m 593.15625,283.75504 a 3.3590931,3.3590931 0 0 0 -3,3.34375 l 0,16 a 3.3590931,3.3590931 0 0 0 3.34375,3.34375 l 16,0 a 3.3590931,3.3590931 0 0 0 3.34375,-3.34375 l 0,-16 A 3.3590931,3.3590931 0 0 0 609.5,283.75504 l -16,0 a 3.3590931,3.3590931 0 0 0 -0.34375,0 z m 0.34375,3.3125 16,0 0,16 -16,0 0,-16 z"
       id="path4048"
       inkscape:connector-curvature="0" />
    <path
       style="color:#000000;fill:#000000;fill-opacity:0.07843137;fill-rule:nonzero;stroke:none;stroke-width:4;marker:none;visibility:visible;display:inline;overflow:visible;enable-background:accumulate"
       d="m 593.5,287.06754 0,16 16,0 0,-16 -16,0 z m 6.1875,6.21875 3.625,0 0,3.625 -3.625,0 0,-3.625 z"
       id="rect4028-4"
       inkscape:connector-curvature="0" />
    <path
       style="color:#000000;fill:#000000;fill-opacity:0.07843137;fill-rule:nonzero;stroke:none;stroke-width:4;marker:none;visibility:visible;display:inline;overflow:visible;enable-background:accumulate"
       d="m 599.25,297.06754 0,6 10.25,0 0,-6 -10.25,0 z"
       id="rect4028-6"
       inkscape:connector-curvature="0" />
  </g>
</svg>
