<?xml version="1.0" encoding="UTF-8" standalone="no"?>
<!-- Created with Inkscape (http://www.inkscape.org/) -->

<svg
   xmlns:dc="http://purl.org/dc/elements/1.1/"
   xmlns:cc="http://creativecommons.org/ns#"
   xmlns:rdf="http://www.w3.org/1999/02/22-rdf-syntax-ns#"
   xmlns:svg="http://www.w3.org/2000/svg"
   xmlns="http://www.w3.org/2000/svg"
   xmlns:sodipodi="http://sodipodi.sourceforge.net/DTD/sodipodi-0.dtd"
   xmlns:inkscape="http://www.inkscape.org/namespaces/inkscape"
   width="512"
   height="512"
   id="svg2"
   version="1.1"
   inkscape:version="0.48.4 r9939"
   sodipodi:docname="OsmiumPickaxe.svg">
  <defs
     id="defs4" />
  <sodipodi:namedview
     id="base"
     pagecolor="#ffffff"
     bordercolor="#666666"
     borderopacity="1.0"
     inkscape:pageopacity="0.0"
     inkscape:pageshadow="2"
     inkscape:zoom="1.4142136"
     inkscape:cx="191.67516"
     inkscape:cy="179.31181"
     inkscape:document-units="px"
     inkscape:current-layer="g3042"
     showgrid="false"
     fit-margin-top="0"
     fit-margin-left="0"
     fit-margin-right="0"
     fit-margin-bottom="0"
     inkscape:window-width="1301"
     inkscape:window-height="744"
     inkscape:window-x="65"
     inkscape:window-y="24"
     inkscape:window-maximized="1">
    <inkscape:grid
       type="xygrid"
       id="grid3096"
       empspacing="8"
       visible="true"
       enabled="true"
       snapvisiblegridlinesonly="true" />
  </sodipodi:namedview>
  <metadata
     id="metadata7">
    <rdf:RDF>
      <cc:Work
         rdf:about="">
        <dc:format>image/svg+xml</dc:format>
        <dc:type
           rdf:resource="http://purl.org/dc/dcmitype/StillImage" />
        <dc:title />
      </cc:Work>
    </rdf:RDF>
  </metadata>
  <g
     inkscape:label="Layer 1"
     inkscape:groupmode="layer"
     id="layer1"
     transform="translate(-236,-121.50504)">
    <path
       style="fill:#396173;fill-opacity:1;stroke:none"
       d="M 264.59375 3.53125 A 5.0583485 5.0583485 0 0 0 263.03125 3.84375 C 237.19286 13.2361 207.6216 20.62675 166.90625 22.625 A 5.0583485 5.0583485 0 0 0 164.375 23.46875 L 146 35.5 A 5.0583485 5.0583485 0 0 0 146.6875 44.34375 L 212.4375 74.03125 A 5.0583485 5.0583485 0 0 0 214.78125 74.46875 L 271.625 71.75 L 310.3125 119.9375 A 5.0583485 5.0583485 0 0 0 314.15625 121.84375 L 391.5 123.375 L 392.625 200.28125 A 5.0583485 5.0583485 0 0 0 394.53125 204.15625 L 445.375 244.84375 L 439.3125 298.65625 A 5.0583485 5.0583485 0 0 0 439.78125 301.375 L 470.90625 367.125 A 5.0583485 5.0583485 0 0 0 479.46875 368.0625 L 491.46875 352.5 A 5.0583485 5.0583485 0 0 0 492.53125 349.6875 C 494.45088 314.39198 497.63227 280.27072 510.375 265.78125 A 5.0583485 5.0583485 0 0 0 511.625 262.125 L 504.5625 149 A 5.0583485 5.0583485 0 0 0 502.4375 145.1875 L 460.71875 115.5 A 5.0583485 5.0583485 0 0 0 457.875 114.5625 L 401.5 113.4375 L 400.625 53.09375 A 5.0583485 5.0583485 0 0 0 399.5 49.96875 L 369.09375 12.46875 A 5.0583485 5.0583485 0 0 0 365.5 10.625 L 265.09375 3.5625 A 5.0583485 5.0583485 0 0 0 264.59375 3.53125 z M 264.75 8.59375 L 365.15625 15.65625 L 395.5625 53.125 L 396.5 118.40625 L 457.78125 119.59375 L 499.5 149.3125 L 506.5625 262.4375 C 491.7192 279.31548 489.39065 314.06908 487.46875 349.40625 L 475.46875 364.96875 L 444.34375 299.21875 L 450.71875 242.65625 L 397.6875 200.21875 L 396.5 118.40625 L 314.25 116.78125 L 273.9375 66.5625 L 214.53125 69.40625 L 148.78125 39.6875 L 167.15625 27.6875 C 208.36604 25.66498 238.5458 18.11907 264.75 8.59375 z "
       transform="translate(236,121.50504)"
       id="path3107" />
    <path
       style="fill:#6ab6d7;fill-opacity:1;stroke:none"
       d="m 509.9339,188.07798 40.30509,50.20458 143.54268,2.82843 41.7193,29.69848 7.0711,113.13709 c -14.8433,16.87798 -17.17,51.63696 -19.0919,86.97413 l -12.0208,15.55635 -31.1127,-65.76093 6.3639,-56.56854 -53.033,-42.42641 -2.1213,-147.07821 -30.4056,-37.47666 -100.40916,-7.07107 c -26.2042,9.52532 -56.37094,17.06937 -97.58073,19.09189 l -18.38478,12.02081 65.76093,29.69849 z"
       id="path3080"
       inkscape:connector-curvature="0"
       sodipodi:nodetypes="ccccccccccccccccc" />
    <path
       style="fill:#000000;fill-opacity:0.07843138;stroke:none"
       d="M 264.75 8.59375 C 238.5458 18.11907 208.36604 25.66498 167.15625 27.6875 L 148.78125 39.6875 L 214.53125 69.40625 L 273.9375 66.5625 L 314.25 116.78125 L 396.5 118.40625 L 395.5625 53.125 L 365.15625 15.65625 L 264.75 8.59375 z M 396.5 118.40625 L 397.6875 200.21875 L 450.71875 242.65625 L 444.34375 299.21875 L 475.46875 364.96875 L 487.46875 349.40625 C 489.39065 314.06908 491.7192 279.31548 506.5625 262.4375 L 499.5 149.3125 L 457.78125 119.59375 L 396.5 118.40625 z M 266.9375 26.59375 L 356.1875 32.875 L 377.875 59.59375 L 378.46875 100.25 L 322.90625 99.15625 L 287.8125 55.4375 A 17.792556 17.792556 0 0 0 273.09375 48.78125 L 217.9375 51.40625 L 198.75 42.75 C 225.36508 39.3396 247.34004 33.47449 266.9375 26.59375 z M 414.5625 136.5625 L 451.9375 137.28125 L 482.28125 158.90625 L 488.40625 256.90625 C 476.97577 273.36339 473.29771 293.7755 471.59375 315.15625 L 462.59375 296.15625 L 468.40625 244.65625 A 17.792556 17.792556 0 0 0 461.84375 228.75 L 415.34375 191.53125 L 414.5625 136.5625 z "
       transform="translate(236,121.50504)"
       id="path3080-7" />
    <path
       style="fill:#ffffff;fill-opacity:0.27450982;stroke:none"
       d="M 264.75 8.59375 C 238.5458 18.11907 208.36604 25.66498 167.15625 27.6875 L 148.78125 39.6875 L 180.34375 53.96875 C 208.35828 48.644742 230.52926 40.895467 250.25 32.125 L 350.9375 32.15625 L 383.875 67.4375 L 388.15625 118.25 L 396.5 118.40625 L 395.5625 53.125 L 365.15625 15.65625 L 264.75 8.59375 z M 396.5 118.40625 L 396.6875 132.09375 L 450.59375 129.40625 L 494.28125 156.125 L 504.9375 236.1875 L 499.5 149.3125 L 457.78125 119.59375 L 396.5 118.40625 z M 449.78125 251.03125 L 444.34375 299.21875 L 475.46875 364.96875 L 478.59375 360.90625 L 449.71875 309.5 L 452.09375 252.625 L 449.78125 251.03125 z "
       transform="translate(236,121.50504)"
       id="path3080-8" />
    <g
       id="g4000"
       transform="translate(-32,0)">
      <path
         sodipodi:nodetypes="ccccc"
         transform="translate(236,121.50504)"
         inkscape:connector-curvature="0"
         id="path3034"
         d="M 368.57145,140.57181 60.714285,449.14286 95.382524,483.34191 402.81455,175.98219 z"
         style="fill:#5a4829;fill-opacity:1;stroke:none" />
      <path
         id="path3034-6"
         transform="translate(236,121.50504)"
         d="M 368.56285,140.56288 60.71875,449.15625 95.375,483.34375 402.81285,175.96913 z m -0.0937,11.1875 23.3125,24.15625 L 95.3125,472.28125 71.84375,449.125 z"
         style="fill:#000000;fill-opacity:0.2745098;stroke:none"
         inkscape:connector-curvature="0"
         sodipodi:nodetypes="cccccccccc" />
      <path
         id="path3034-2"
         transform="translate(236,121.50504)"
         d="M 387.7505,160.7815 80.53125,468.71875 95.375,483.34375 402.6255,176.1565 z"
         style="fill:#000000;fill-opacity:0.19607843;stroke:none"
         inkscape:connector-curvature="0"
         sodipodi:nodetypes="ccccc" />
    </g>
    <g
       transform="translate(54.963166,-88.334195)"
       id="g3042">
      <rect
         transform="matrix(0.70710678,-0.70710678,0.70710678,0.70710678,0,0)"
         y="613.81476"
         x="-286.18637"
         height="49.279358"
         width="156.29126"
         id="rect3879-0"
         style="color:#000000;fill:#a03b35;fill-opacity:1;fill-rule:nonzero;stroke:#2f0a09;stroke-width:3.66199994;stroke-opacity:1;marker:none;visibility:visible;display:inline;overflow:visible;enable-background:accumulate" />
      <path
         inkscape:connector-curvature="0"
         id="rect3879-0-0"
         d="m 342.58429,527.99833 -108.40126,108.40126 32.31749,32.31749 108.40126,-108.40126 -32.31749,-32.31749 z m -2.40569,15.6805 19.27455,19.27456 -93.44536,93.41638 -19.27456,-19.24557 93.44537,-93.44537 z"
         style="color:#000000;fill:#000000;fill-opacity:0.39215686;fill-rule:nonzero;stroke:none;stroke-width:3.66199994;marker:none;visibility:visible;display:inline;overflow:visible;enable-background:accumulate" />
      <path
         inkscape:connector-curvature="0"
         transform="translate(141.71428,232.93361)"
         id="rect3879-0-3"
         d="M 210.375,315.9375 106.40625,419.90625 124.8125,438.3125 228.78125,334.34375 210.375,315.9375 z"
         style="color:#000000;fill:#000000;fill-opacity:0.19607843;fill-rule:nonzero;stroke:none;stroke-width:3.66199994;marker:none;visibility:visible;display:inline;overflow:visible;enable-background:accumulate" />
      <g
         transform="translate(166.07158,38.571428)"
         id="g3842">
        <path
           sodipodi:type="star"
           style="color:#000000;fill:#6ab6d7;fill-opacity:1;fill-rule:nonzero;stroke:#000000;stroke-width:4.00009775;stroke-miterlimit:4;stroke-opacity:1;stroke-dasharray:none;marker:none;visibility:visible;display:inline;overflow:visible;enable-background:accumulate"
           id="path2997-8"
           sodipodi:sides="5"
           sodipodi:cx="82.327431"
           sodipodi:cy="447.09769"
           sodipodi:r1="45.678699"
           sodipodi:r2="39.67952"
           sodipodi:arg1="-1.4265537"
           sodipodi:arg2="-0.79823514"
           inkscape:flatsided="true"
           inkscape:rounded="0"
           inkscape:randomized="0"
           d="m 88.893422,401.89336 38.454888,37.48005 -23.76244,48.15474 -53.140876,-7.71879 -9.080432,-52.92521 z"
           transform="matrix(0.91547764,0,0,0.91547764,-16.315632,231.3782)"
           inkscape:transform-center-x="1.1317962"
           inkscape:transform-center-y="-0.87702664" />
        <path
           inkscape:connector-curvature="0"
           style="color:#000000;fill:#000000;fill-opacity:0.35686275;fill-rule:nonzero;stroke:none;stroke-width:4;marker:none;visibility:visible;display:inline;overflow:visible;enable-background:accumulate"
           d="m 65.06473,599.30801 -43.51379,22.88694 8.32512,48.43449 48.63475,7.06634 21.7712,-44.08597 -35.21728,-34.3018 z m -2.28869,15.73477 21.82842,21.25625 -13.47469,27.32128 -30.18215,-4.37713 -5.14956,-30.03911 26.97798,-14.16129 z"
           id="path2997-8-46" />
        <path
           inkscape:connector-curvature="0"
           id="path2997-8-7"
           d="m 71.0487,630.54968 -43.5,22.875 2.96875,17.3125 48,6.96875 13.28125,-26.9375 -20.75,-20.21875 z"
           style="color:#000000;fill:#000000;fill-opacity:0.19607843;fill-rule:nonzero;stroke:none;stroke-width:4;marker:none;visibility:visible;display:inline;overflow:visible;enable-background:accumulate" />
      </g>
      <path
         transform="matrix(0.86100387,0,0,0.86100387,150.96937,295.02588)"
         d="m 104.42452,442.48889 c 0,9.03088 -7.320968,16.35185 -16.351842,16.35185 -9.030875,0 -16.351845,-7.32097 -16.351845,-16.35185 0,-9.03087 7.32097,-16.35184 16.351845,-16.35184 9.030874,0 16.351842,7.32097 16.351842,16.35184 z"
         sodipodi:ry="16.351845"
         sodipodi:rx="16.351845"
         sodipodi:cy="442.48889"
         sodipodi:cx="88.072678"
         id="path3849"
         style="color:#000000;fill:#000000;fill-opacity:0.19607843;fill-rule:nonzero;stroke:none;stroke-width:4;marker:none;visibility:visible;display:inline;overflow:visible;enable-background:accumulate"
         sodipodi:type="arc" />
      <path
         transform="matrix(0.98823526,0,0,0.98461538,142.27088,240.26107)"
         d="m 91.607142,442.55804 c 0,3.36549 -2.718271,6.09375 -6.071429,6.09375 -3.353157,0 -6.071429,-2.72826 -6.071429,-6.09375 0,-3.36548 2.718272,-6.09375 6.071429,-6.09375 3.353158,0 6.071429,2.72827 6.071429,6.09375 z"
         sodipodi:ry="6.09375"
         sodipodi:rx="6.0714288"
         sodipodi:cy="442.55804"
         sodipodi:cx="85.535713"
         id="path3847"
         style="color:#000000;fill:#ffffff;fill-opacity:1;fill-rule:nonzero;stroke:none;stroke-width:4;marker:none;visibility:visible;display:inline;overflow:visible;enable-background:accumulate"
         sodipodi:type="arc" />
      <path
         transform="matrix(0.86100387,0,0,0.86100387,197.40522,248.69055)"
         d="m 104.42452,442.48889 c 0,9.03088 -7.320968,16.35185 -16.351842,16.35185 -9.030875,0 -16.351845,-7.32097 -16.351845,-16.35185 0,-9.03087 7.32097,-16.35184 16.351845,-16.35184 9.030874,0 16.351842,7.32097 16.351842,16.35184 z"
         sodipodi:ry="16.351845"
         sodipodi:rx="16.351845"
         sodipodi:cy="442.48889"
         sodipodi:cx="88.072678"
         id="path3849-7"
         style="color:#000000;fill:#000000;fill-opacity:0.19607843;fill-rule:nonzero;stroke:none;stroke-width:4;marker:none;visibility:visible;display:inline;overflow:visible;enable-background:accumulate"
         sodipodi:type="arc" />
      <path
         transform="matrix(0.98823526,0,0,0.98461538,188.70673,193.92574)"
         d="m 91.607142,442.55804 c 0,3.36549 -2.718271,6.09375 -6.071429,6.09375 -3.353157,0 -6.071429,-2.72826 -6.071429,-6.09375 0,-3.36548 2.718272,-6.09375 6.071429,-6.09375 3.353158,0 6.071429,2.72827 6.071429,6.09375 z"
         sodipodi:ry="6.09375"
         sodipodi:rx="6.0714288"
         sodipodi:cy="442.55804"
         sodipodi:cx="85.535713"
         id="path3847-1"
         style="color:#000000;fill:#6ab6d7;fill-opacity:1;fill-rule:nonzero;stroke:none;stroke-width:4;marker:none;visibility:visible;display:inline;overflow:visible;enable-background:accumulate"
         sodipodi:type="arc" />
      <path
         transform="matrix(0.86100387,0,0,0.86100387,245.48848,201.31441)"
         d="m 104.42452,442.48889 c 0,9.03088 -7.320968,16.35185 -16.351842,16.35185 -9.030875,0 -16.351845,-7.32097 -16.351845,-16.35185 0,-9.03087 7.32097,-16.35184 16.351845,-16.35184 9.030874,0 16.351842,7.32097 16.351842,16.35184 z"
         sodipodi:ry="16.351845"
         sodipodi:rx="16.351845"
         sodipodi:cy="442.48889"
         sodipodi:cx="88.072678"
         id="path3849-77"
         style="color:#000000;fill:#000000;fill-opacity:0.19607843;fill-rule:nonzero;stroke:none;stroke-width:4;marker:none;visibility:visible;display:inline;overflow:visible;enable-background:accumulate"
         sodipodi:type="arc" />
      <path
         transform="matrix(0.98823526,0,0,0.98461538,236.78999,146.5496)"
         d="m 91.607142,442.55804 c 0,3.36549 -2.718271,6.09375 -6.071429,6.09375 -3.353157,0 -6.071429,-2.72826 -6.071429,-6.09375 0,-3.36548 2.718272,-6.09375 6.071429,-6.09375 3.353158,0 6.071429,2.72827 6.071429,6.09375 z"
         sodipodi:ry="6.09375"
         sodipodi:rx="6.0714288"
         sodipodi:cy="442.55804"
         sodipodi:cx="85.535713"
         id="path3847-6"
         style="color:#000000;fill:#6ab6d7;fill-opacity:1;fill-rule:nonzero;stroke:none;stroke-width:4;marker:none;visibility:visible;display:inline;overflow:visible;enable-background:accumulate"
         sodipodi:type="arc" />
    </g>
    <path
       style="fill:#6ab6d7;fill-opacity:1;stroke:none"
       d="m 542.91298,325.22917 52.3259,-113.13708 103.9447,-48.43682 -50.5581,108.89445 z"
       id="path4103"
       inkscape:connector-curvature="0"
       sodipodi:nodetypes="ccccc" />
    <path
       style="fill:#000000;fill-opacity:0.07843137;stroke:none"
       d="m 699.18778,163.66138 -103.9375,48.4375 -52.3437,113.125 105.7187,-52.6875 50.5625,-108.875 z m -32.9062,32.96875 -29.7813,64.125 -59.9687,29.875 30.7812,-66.53125 58.9688,-27.46875 z"
       id="path4103-6"
       inkscape:connector-curvature="0" />
    <path
       style="fill:#ffffff;fill-opacity:0.2745098;stroke:none"
       d="m 699.18778,163.66138 -103.9375,48.4375 -52.3437,113.125 31.625,-15.75 35.5625,-76.875 72.8437,-33.9375 16.25,-35 z"
       id="path4103-1"
       inkscape:connector-curvature="0" />
    <path
       style="fill:#396173;fill-opacity:1;stroke:none"
       d="m 699.21908,157.13013 a 6.5198542,6.5198542 0 0 0 -2.7813,0.625 l -103.9375,48.4375 a 6.5198542,6.5198542 0 0 0 -3.1562,3.15625 l -52.3438,113.125 a 6.5198542,6.5198542 0 0 0 8.8125,8.59375 l 105.7188,-52.65625 a 6.5198542,6.5198542 0 0 0 3,-3.09375 l 50.5625,-108.90625 a 6.5198542,6.5198542 0 0 0 -5.875,-9.28125 z m -0.031,6.53125 -50.5625,108.875 -105.7188,52.6875 52.3438,-113.125 103.9375,-48.4375 z"
       id="path3268"
       inkscape:connector-curvature="0" />
    <path
       sodipodi:type="star"
       style="color:#000000;fill:#6ab6d7;fill-opacity:1;fill-rule:nonzero;stroke:none;stroke-width:4;marker:none;visibility:visible;display:inline;overflow:visible;enable-background:accumulate"
       id="path3883"
       sodipodi:sides="5"
       sodipodi:cx="969.44342"
       sodipodi:cy="174.00296"
       sodipodi:r1="45.541191"
       sodipodi:r2="36.843597"
       sodipodi:arg1="-2.0205559"
       sodipodi:arg2="-1.3922374"
       inkscape:flatsided="true"
       inkscape:rounded="0"
       inkscape:randomized="0"
       d="m 949.64443,132.99077 52.68567,9.50877 7.2374,53.04543 -48.21272,23.27511 -37.0345,-38.66063 z"
       transform="translate(-348.878,75.505127)"
       inkscape:transform-center-x="2.4995282"
       inkscape:transform-center-y="1.9024612" />
    <path
       style="color:#000000;fill:#396173;fill-opacity:1;fill-rule:nonzero;stroke:none;stroke-width:4;marker:none;visibility:visible;display:inline;overflow:visible;enable-background:accumulate"
       d="m 600.65658,202.81763 a 5.7014473,5.7014473 0 0 0 -4.9063,3 l -25.3437,47.15625 a 5.7014473,5.7014473 0 0 0 0.9062,6.625 l 37.0313,38.65625 a 5.7014473,5.7014473 0 0 0 6.5937,1.1875 l 48.2188,-23.28125 a 5.7014473,5.7014473 0 0 0 3.1875,-5.90625 l -7.2188,-53.03125 a 5.7014473,5.7014473 0 0 0 -4.6562,-4.84375 l -52.6875,-9.5 a 5.7014473,5.7014473 0 0 0 -1.125,-0.0625 z m 0.125,5.6875 52.6562,9.5 7.25,53.03125 -48.2187,23.28125 -37.0313,-38.65625 25.3438,-47.15625 z"
       id="path3910"
       inkscape:connector-curvature="0" />
    <path
       style="color:#000000;fill:#000000;fill-opacity:0.07843137;fill-rule:nonzero;stroke:none;stroke-width:4;marker:none;visibility:visible;display:inline;overflow:visible;enable-background:accumulate"
       d="m 600.78158,208.50513 -25.3438,47.15625 37.0313,38.65625 48.2187,-23.28125 -7.25,-53.03125 -52.6562,-9.5 z m 7.9062,16.375 31.6563,5.6875 4.3437,31.84375 -29,14 -22.2187,-23.21875 15.2187,-28.3125 z"
       id="path3883-9"
       inkscape:connector-curvature="0" />
    <path
       style="color:#000000;fill:#000000;fill-opacity:0.07843137;fill-rule:nonzero;stroke:none;stroke-width:4;marker:none;visibility:visible;display:inline;overflow:visible;enable-background:accumulate"
       d="m 608.90658,245.97388 -15.375,28.59375 18.9375,19.75 48.2187,-23.28125 -2.2187,-16.125 -49.5625,-8.9375 z"
       id="path3883-2"
       inkscape:connector-curvature="0" />
    <rect
       style="color:#000000;fill:#6ab6d7;fill-opacity:1;fill-rule:nonzero;stroke:none;stroke-width:4;marker:none;visibility:visible;display:inline;overflow:visible;enable-background:accumulate"
       id="rect4028"
       width="16"
       height="16"
       x="612.50031"
       y="241.07915" />
    <path
       style="color:#000000;fill:#396173;fill-opacity:1;fill-rule:nonzero;stroke:none;stroke-width:4;marker:none;visibility:visible;display:inline;overflow:visible;enable-background:accumulate"
       d="m 612.15658,237.75513 a 3.3590931,3.3590931 0 0 0 -3,3.34375 l 0,16 a 3.3590931,3.3590931 0 0 0 3.3437,3.34375 l 16,0 a 3.3590931,3.3590931 0 0 0 3.3438,-3.34375 l 0,-16 a 3.3590931,3.3590931 0 0 0 -3.3438,-3.34375 l -16,0 a 3.3590931,3.3590931 0 0 0 -0.3437,0 z m 0.3437,3.3125 16,0 0,16 -16,0 0,-16 z"
       id="path4048"
       inkscape:connector-curvature="0" />
    <path
       style="color:#000000;fill:#000000;fill-opacity:0.07843137;fill-rule:nonzero;stroke:none;stroke-width:4;marker:none;visibility:visible;display:inline;overflow:visible;enable-background:accumulate"
       d="m 612.50028,241.06763 0,16 16,0 0,-16 -16,0 z m 6.1875,6.21875 3.625,0 0,3.625 -3.625,0 0,-3.625 z"
       id="rect4028-4"
       inkscape:connector-curvature="0" />
    <path
       style="color:#000000;fill:#000000;fill-opacity:0.07843137;fill-rule:nonzero;stroke:none;stroke-width:4;marker:none;visibility:visible;display:inline;overflow:visible;enable-background:accumulate"
       d="m 618.25028,251.06763 0,6 10.25,0 0,-6 -10.25,0 z"
       id="rect4028-6"
       inkscape:connector-curvature="0" />
  </g>
</svg>
