<?xml version="1.0" encoding="UTF-8" standalone="no"?>
<!-- Created with Inkscape (http://www.inkscape.org/) -->

<svg
   xmlns:dc="http://purl.org/dc/elements/1.1/"
   xmlns:cc="http://creativecommons.org/ns#"
   xmlns:rdf="http://www.w3.org/1999/02/22-rdf-syntax-ns#"
   xmlns:svg="http://www.w3.org/2000/svg"
   xmlns="http://www.w3.org/2000/svg"
   xmlns:sodipodi="http://sodipodi.sourceforge.net/DTD/sodipodi-0.dtd"
   xmlns:inkscape="http://www.inkscape.org/namespaces/inkscape"
   width="512"
   height="512"
   id="svg2"
   version="1.1"
   inkscape:version="0.48.4 r9939"
   sodipodi:docname="OsmiumCrystal.svg">
  <defs
     id="defs4" />
  <sodipodi:namedview
     id="base"
     pagecolor="#ffffff"
     bordercolor="#666666"
     borderopacity="1.0"
     inkscape:pageopacity="0.0"
     inkscape:pageshadow="2"
     inkscape:zoom="0.98994949"
     inkscape:cx="272.5286"
     inkscape:cy="268.14416"
     inkscape:document-units="px"
     inkscape:current-layer="layer1"
     showgrid="false"
     fit-margin-top="0"
     fit-margin-left="0"
     fit-margin-right="0"
     fit-margin-bottom="0"
     inkscape:window-width="1301"
     inkscape:window-height="744"
     inkscape:window-x="65"
     inkscape:window-y="24"
     inkscape:window-maximized="1" />
  <metadata
     id="metadata7">
    <rdf:RDF>
      <cc:Work
         rdf:about="">
        <dc:format>image/svg+xml</dc:format>
        <dc:type
           rdf:resource="http://purl.org/dc/dcmitype/StillImage" />
        <dc:title></dc:title>
      </cc:Work>
    </rdf:RDF>
  </metadata>
  <g
     inkscape:label="Layer 1"
     inkscape:groupmode="layer"
     id="layer1"
     transform="translate(190.28572,29.352102)">
    <path
       sodipodi:type="star"
       style="color:#000000;fill:#f6f6f6;fill-opacity:1;fill-rule:nonzero;stroke:none;stroke-width:5;marker:none;visibility:visible;display:inline;overflow:visible;enable-background:accumulate"
       id="path3003-85"
       sodipodi:sides="5"
       sodipodi:cx="592.14288"
       sodipodi:cy="363.42856"
       sodipodi:r1="64.72863"
       sodipodi:r2="52.366566"
       sodipodi:arg1="-1.1861916"
       sodipodi:arg2="-0.55787308"
       inkscape:flatsided="true"
       inkscape:rounded="0"
       inkscape:randomized="0"
       d="m 616.4286,303.42856 40.28237,64.55607 -48.94853,58.25973 -70.53423,-28.54957 5.35598,-75.90434 z"
       transform="matrix(1.087597,-0.44186022,0.44186022,1.087597,-892.27765,110.54173)"
       inkscape:transform-center-x="0.030410688"
       inkscape:transform-center-y="-7.2270871" />
    <path
       style="color:#000000;fill:#000000;fill-opacity:0.07843138;fill-rule:nonzero;stroke:none;stroke-width:5;marker:none;visibility:visible;display:inline;overflow:visible;enable-background:accumulate"
       d="M 121.09375 228.96875 L 48.875 281.5625 L 66.3125 335.03125 L 147.34375 334.9375 L 170.125 264.5 L 121.09375 228.96875 z "
       transform="translate(-190.28572,-29.352102)"
       id="path3003-85-2" />
    <path
       style="color:#000000;fill:#000000;fill-opacity:0.07843138;fill-rule:nonzero;stroke:none;stroke-width:5;marker:none;visibility:visible;display:inline;overflow:visible;enable-background:accumulate"
       d="M 102.5 197.53125 L 30.3125 250.125 L 58.03125 335.03125 L 147.34375 334.9375 L 174.84375 249.9375 L 102.5 197.53125 z M 102.53125 217.0625 L 156.3125 256.03125 L 135.875 319.15625 L 69.4375 319.21875 L 48.875 256.125 L 102.53125 217.0625 z "
       transform="translate(-190.28572,-29.352102)"
       id="path3003-85-5" />
    <path
       style="color:#000000;fill:#000000;fill-opacity:0.39215687;fill-rule:nonzero;stroke:none;stroke-width:5;marker:none;visibility:visible;display:inline;overflow:visible;enable-background:accumulate"
       d="M 102.5 197.53125 L 30.3125 250.125 L 58.03125 335.03125 L 147.34375 334.9375 L 174.84375 249.9375 L 102.5 197.53125 z M 102.53125 200.84375 L 171.71875 251 L 145.375 332.25 L 59.96875 332.34375 L 33.46875 251.125 L 102.53125 200.84375 z "
       transform="translate(-190.28572,-29.352102)"
       id="path3003-85-4" />
    <path
       sodipodi:type="star"
       style="color:#000000;fill:#f6f6f6;fill-opacity:1;fill-rule:nonzero;stroke:none;stroke-width:5;marker:none;visibility:visible;display:inline;overflow:visible;enable-background:accumulate"
       id="path3003-00"
       sodipodi:sides="5"
       sodipodi:cx="592.14288"
       sodipodi:cy="363.42856"
       sodipodi:r1="64.72863"
       sodipodi:r2="52.366566"
       sodipodi:arg1="-1.1861916"
       sodipodi:arg2="-0.55787308"
       inkscape:flatsided="true"
       inkscape:rounded="0"
       inkscape:randomized="0"
       d="m 616.4286,303.42856 40.28237,64.55607 -48.94853,58.25973 -70.53423,-28.54957 5.35598,-75.90434 z"
       transform="matrix(1.0180382,-0.64745255,0.64745255,1.0180382,-835.85973,315.49853)"
       inkscape:transform-center-x="4.3643618"
       inkscape:transform-center-y="-3.1835786" />
    <path
       style="color:#000000;fill:#000000;fill-opacity:0.39215687;fill-rule:nonzero;stroke:none;stroke-width:5;marker:none;visibility:visible;display:inline;overflow:visible;enable-background:accumulate"
       d="M 178.4375 254.65625 L 115.15625 321.15625 L 158.84375 401.875 L 249.125 385.28125 L 261.25 294.28125 L 178.4375 254.65625 z M 179.375 259.59375 L 256.78125 296.6875 L 245.4375 381.78125 L 161 397.28125 L 120.125 321.8125 L 179.375 259.59375 z "
       transform="translate(-190.28572,-29.352102)"
       id="path3003-00-4" />
    <path
       style="color:#000000;fill:#000000;fill-opacity:0.07843138;fill-rule:nonzero;stroke:none;stroke-width:5;marker:none;visibility:visible;display:inline;overflow:visible;enable-background:accumulate"
       d="M 178.4375 254.65625 L 115.15625 321.15625 L 158.84375 401.875 L 249.125 385.28125 L 261.25 294.28125 L 178.4375 254.65625 z M 183.53125 282.1875 L 236.59375 307.59375 L 228.8125 365.9375 L 170.90625 376.59375 L 142.9375 324.84375 L 183.53125 282.1875 z "
       transform="translate(-190.28572,-29.352102)"
       id="path3003-00-1" />
    <path
       style="color:#000000;fill:#000000;fill-opacity:0.07843137;fill-rule:nonzero;stroke:none;stroke-width:5;marker:none;visibility:visible;display:inline;overflow:visible;enable-background:accumulate"
       d="M 203.78125 294.5 L 140.5 361.03125 L 162.28125 401.25 L 249.125 385.28125 L 257.78125 320.34375 L 203.78125 294.5 z "
       transform="translate(-190.28572,-29.352102)"
       id="path3003-00-7" />
    <path
       sodipodi:type="star"
       style="color:#000000;fill:#f6f6f6;fill-opacity:1;fill-rule:nonzero;stroke:none;stroke-width:5;marker:none;visibility:visible;display:inline;overflow:visible;enable-background:accumulate"
       id="path3003-2"
       sodipodi:sides="5"
       sodipodi:cx="592.14288"
       sodipodi:cy="363.42856"
       sodipodi:r1="64.72863"
       sodipodi:r2="52.366566"
       sodipodi:arg1="-1.1861916"
       sodipodi:arg2="-0.55787308"
       inkscape:flatsided="true"
       inkscape:rounded="0"
       inkscape:randomized="0"
       d="m 616.4286,303.42856 40.28237,64.55607 -48.94853,58.25973 -70.53423,-28.54957 5.35598,-75.90434 z"
       transform="matrix(1.241059,0.28478619,-0.28478619,1.241059,-515.00832,-294.10075)"
       inkscape:transform-center-x="-0.46221755"
       inkscape:transform-center-y="7.4295377" />
    <path
       style="color:#000000;fill:#000000;fill-opacity:0.07843138;fill-rule:nonzero;stroke:none;stroke-width:5;marker:none;visibility:visible;display:inline;overflow:visible;enable-background:accumulate"
       d="M 353.875 287.375 L 257 289.125 L 228.75 381.8125 L 308.15625 437.3125 L 385.5 378.96875 L 353.875 287.375 z M 338.8125 308.96875 L 360.34375 371.34375 L 307.6875 411.03125 L 253.625 373.21875 L 272.90625 310.125 L 338.8125 308.96875 z "
       transform="translate(-190.28572,-29.352102)"
       id="path3003-2-7" />
    <path
       style="color:#000000;fill:#000000;fill-opacity:0.39215687;fill-rule:nonzero;stroke:none;stroke-width:5;marker:none;visibility:visible;display:inline;overflow:visible;enable-background:accumulate"
       d="M 353.875 287.375 L 257 289.125 L 228.75 381.8125 L 308.15625 437.3125 L 385.5 378.96875 L 353.875 287.375 z M 351.09375 291.375 L 380.84375 377.5625 L 308.03125 432.4375 L 233.34375 380.1875 L 259.96875 293.03125 L 351.09375 291.375 z "
       transform="translate(-190.28572,-29.352102)"
       id="path3003-2-0" />
    <path
       sodipodi:type="star"
       style="color:#000000;fill:#f6f6f6;fill-opacity:1;fill-rule:nonzero;stroke:none;stroke-width:5;marker:none;visibility:visible;display:inline;overflow:visible;enable-background:accumulate"
       id="path3003-0"
       sodipodi:sides="5"
       sodipodi:cx="592.14288"
       sodipodi:cy="363.42856"
       sodipodi:r1="64.72863"
       sodipodi:r2="52.366566"
       sodipodi:arg1="-1.1861916"
       sodipodi:arg2="-0.55787308"
       inkscape:flatsided="true"
       inkscape:rounded="0"
       inkscape:randomized="0"
       d="m 616.4286,303.42856 40.28237,64.55607 -48.94853,58.25973 -70.53423,-28.54957 5.35598,-75.90434 z"
       transform="matrix(0.58551136,-0.9466938,0.9466938,0.58551136,-485.76643,597.99886)"
       inkscape:transform-center-x="-0.08853423"
       inkscape:transform-center-y="6.7960364" />
    <path
       style="color:#000000;fill:#000000;fill-opacity:0.07843137;fill-rule:nonzero;stroke:none;stroke-width:5;marker:none;visibility:visible;display:inline;overflow:visible;enable-background:accumulate"
       d="m 247.09943,191.74165 -84.6875,0.34375 -25.84375,80.65625 68.71875,49.53125 68.3125,-50.0625 -26.5,-80.46875 z m -12.9375,18 18.3125,55.71875 -47.28125,34.625 -47.5625,-34.28125 17.90625,-55.84375 58.625,-0.21875 z"
       id="path3003-0-2"
       inkscape:connector-curvature="0" />
    <path
       sodipodi:type="star"
       style="color:#000000;fill:#f6f6f6;fill-opacity:1;fill-rule:nonzero;stroke:none;stroke-width:5;marker:none;visibility:visible;display:inline;overflow:visible;enable-background:accumulate"
       id="path3003-3"
       sodipodi:sides="5"
       sodipodi:cx="592.14288"
       sodipodi:cy="363.42856"
       sodipodi:r1="64.72863"
       sodipodi:r2="52.366566"
       sodipodi:arg1="-1.1861916"
       sodipodi:arg2="-0.55787308"
       inkscape:flatsided="true"
       inkscape:rounded="0"
       inkscape:randomized="0"
       d="m 616.4286,303.42856 40.28237,64.55607 -48.94853,58.25973 -70.53423,-28.54957 5.35598,-75.90434 z"
       transform="matrix(0.14300224,-0.96352767,0.96352767,0.14300224,-464.87299,689.20203)"
       inkscape:transform-center-x="-4.2098414"
       inkscape:transform-center-y="-1.8748226" />
    <path
       style="color:#000000;fill:#000000;fill-opacity:0.39215687;fill-rule:nonzero;stroke:none;stroke-width:5;marker:none;visibility:visible;display:inline;overflow:visible;enable-background:accumulate"
       d="M 173.875 138.40625 L 105.9375 168 L 113.0625 241.78125 L 185.4375 257.78125 L 223.03125 193.90625 L 173.875 138.40625 z M 172.875 143.09375 L 218.25 194.375 L 183.53125 253.40625 L 116.625 238.5625 L 110.03125 170.40625 L 172.875 143.09375 z "
       transform="translate(-190.28572,-29.352102)"
       id="path3003-3-8" />
    <path
       style="color:#000000;fill:#000000;fill-opacity:0.07843137;fill-rule:nonzero;stroke:none;stroke-width:5;marker:none;visibility:visible;display:inline;overflow:visible;enable-background:accumulate"
       d="m 6.7366014,138.86665 -67.9687504,29.59375 4.59375,47.65625 55.71875043,12.3125 34.71874957,-59 -27.0624996,-30.5625 z"
       id="path3003-3-3"
       inkscape:connector-curvature="0" />
    <path
       style="color:#000000;fill:#000000;fill-opacity:0.07843138;fill-rule:nonzero;stroke:none;stroke-width:5;marker:none;visibility:visible;display:inline;overflow:visible;enable-background:accumulate"
       d="M 173.875 138.40625 L 105.9375 168 L 113.0625 241.78125 L 185.4375 257.78125 L 223.03125 193.90625 L 173.875 138.40625 z M 168.875 161.25 L 199.8125 196.15625 L 176.09375 236.375 L 130.53125 226.28125 L 126.0625 179.875 L 168.875 161.25 z "
       transform="translate(-190.28572,-29.352102)"
       id="path3003-3-9" />
    <path
       sodipodi:type="star"
       style="color:#000000;fill:#f6f6f6;fill-opacity:1;fill-rule:nonzero;stroke:none;stroke-width:5;marker:none;visibility:visible;display:inline;overflow:visible;enable-background:accumulate"
       id="path3003-59"
       sodipodi:sides="5"
       sodipodi:cx="592.14288"
       sodipodi:cy="363.42856"
       sodipodi:r1="64.72863"
       sodipodi:r2="52.366566"
       sodipodi:arg1="-1.1861916"
       sodipodi:arg2="-0.55787308"
       inkscape:flatsided="true"
       inkscape:rounded="0"
       inkscape:randomized="0"
       d="m 616.4286,303.42856 40.28237,64.55607 -48.94853,58.25973 -70.53423,-28.54957 5.35598,-75.90434 z"
       transform="matrix(0.57855993,-0.51870231,0.51870231,0.57855993,-502.80024,223.07582)"
       inkscape:transform-center-x="3.5267459"
       inkscape:transform-center-y="0.2759638" />
    <path
       style="color:#000000;fill:#000000;fill-opacity:0.07843138;fill-rule:nonzero;stroke:none;stroke-width:5;marker:none;visibility:visible;display:inline;overflow:visible;enable-background:accumulate"
       d="M 201.5 108.25 L 168.3125 157.15625 L 204.59375 203.84375 L 260.21875 183.78125 L 258.3125 124.6875 L 201.5 108.25 z M 210.25 132.46875 L 237.96875 140.5 L 238.90625 169.3125 L 211.75 179.09375 L 194.0625 156.34375 L 210.25 132.46875 z "
       transform="translate(-190.28572,-29.352102)"
       id="path3003-59-4" />
    <path
       style="color:#000000;fill:#000000;fill-opacity:0.07843138;fill-rule:nonzero;stroke:none;stroke-width:5;marker:none;visibility:visible;display:inline;overflow:visible;enable-background:accumulate"
       d="M 223.75 147.625 L 194.4375 190.78125 L 204.59375 203.84375 L 260.21875 183.78125 L 259.375 157.96875 L 223.75 147.625 z "
       transform="translate(-190.28572,-29.352102)"
       id="path3003-59-9" />
    <path
       style="color:#000000;fill:#000000;fill-opacity:0.39215686;fill-rule:nonzero;stroke:none;stroke-width:5;marker:none;visibility:visible;display:inline;overflow:visible;enable-background:accumulate"
       d="M 11.239545,78.885056 -21.968558,127.80094 14.294438,174.50528 69.916434,154.44566 68.033375,95.344349 11.239545,78.885056 z m 1.910208,5.331704 50.42972,14.598911 1.661152,52.451659 -49.376326,17.78655 -32.1832,-41.42622 29.468654,-43.4109 z"
       id="path3003-5-4"
       inkscape:connector-curvature="0"
       inkscape:transform-center-x="3.5285044"
       inkscape:transform-center-y="0.2766029" />
    <path
       sodipodi:type="star"
       style="color:#000000;fill:#f6f6f6;fill-opacity:1;fill-rule:nonzero;stroke:none;stroke-width:5;marker:none;visibility:visible;display:inline;overflow:visible;enable-background:accumulate"
       id="path3003-7"
       sodipodi:sides="5"
       sodipodi:cx="592.14288"
       sodipodi:cy="363.42856"
       sodipodi:r1="64.72863"
       sodipodi:r2="52.366566"
       sodipodi:arg1="-1.1861916"
       sodipodi:arg2="-0.55787308"
       inkscape:flatsided="true"
       inkscape:rounded="0"
       inkscape:randomized="0"
       d="m 616.4286,303.42856 40.28237,64.55607 -48.94853,58.25973 -70.53423,-28.54957 5.35598,-75.90434 z"
       transform="matrix(0.89134354,-0.75547813,0.75547813,0.89134354,-697.8373,241.18674)"
       inkscape:transform-center-x="7.1260762"
       inkscape:transform-center-y="0.10094352" />
    <path
       style="color:#000000;fill:#000000;fill-opacity:0.07843138;fill-rule:nonzero;stroke:none;stroke-width:5;marker:none;visibility:visible;display:inline;overflow:visible;enable-background:accumulate"
       d="M 271.125 75.3125 L 219.1875 147.46875 L 271.75 219.15625 L 356.1875 191.3125 L 355.8125 102.40625 L 271.125 75.3125 z M 278.6875 98.1875 L 336.375 116.65625 L 336.59375 177.25 L 279.09375 196.21875 L 243.28125 147.3125 L 278.6875 98.1875 z "
       transform="translate(-190.28572,-29.352102)"
       id="path3003-7-4" />
    <path
       style="color:#000000;fill:#000000;fill-opacity:0.07843138;fill-rule:nonzero;stroke:none;stroke-width:5;marker:none;visibility:visible;display:inline;overflow:visible;enable-background:accumulate"
       d="M 295.375 109.65625 L 243.90625 181.15625 L 271.75 219.15625 L 356.1875 191.3125 L 355.9375 129.03125 L 295.375 109.65625 z "
       transform="translate(-190.28572,-29.352102)"
       id="path3003-7-0" />
    <path
       style="color:#000000;fill:#000000;fill-opacity:0.39215687;fill-rule:nonzero;stroke:none;stroke-width:5;marker:none;visibility:visible;display:inline;overflow:visible;enable-background:accumulate"
       d="M 271.125 75.3125 L 219.1875 147.46875 L 271.75 219.15625 L 356.1875 191.3125 L 355.8125 102.40625 L 271.125 75.3125 z M 272.84375 80.40625 L 351.46875 105.59375 L 351.84375 188.1875 L 273.34375 214 L 224.5625 147.40625 L 272.84375 80.40625 z "
       transform="translate(-190.28572,-29.352102)"
       id="path3003-7-9" />
    <path
       style="color:#000000;fill:#000000;fill-opacity:0.39215686;fill-rule:nonzero;stroke:none;stroke-width:5;marker:none;visibility:visible;display:inline;overflow:visible;enable-background:accumulate"
       d="m 247.09943,191.74165 -84.6875,0.34375 -25.84375,80.65625 68.71875,49.53125 68.3125,-50.0625 -26.5,-80.46875 z m -2.90625,4.09375 24.59375,74.84375 -63.53125,46.53125 -63.90625,-46.0625 24.0625,-75 78.78125,-0.3125 z"
       id="path3003-0-1"
       inkscape:connector-curvature="0" />
    <path
       sodipodi:type="star"
       style="color:#000000;fill:#f6f6f6;fill-opacity:1;fill-rule:nonzero;stroke:none;stroke-width:5;marker:none;visibility:visible;display:inline;overflow:visible;enable-background:accumulate"
       id="path3003"
       sodipodi:sides="5"
       sodipodi:cx="592.14288"
       sodipodi:cy="363.42856"
       sodipodi:r1="64.72863"
       sodipodi:r2="52.366566"
       sodipodi:arg1="-1.1861916"
       sodipodi:arg2="-0.55787308"
       inkscape:flatsided="true"
       inkscape:rounded="0"
       inkscape:randomized="0"
       d="m 616.4286,303.42856 40.28237,64.55607 -48.94853,58.25973 -70.53423,-28.54957 5.35598,-75.90434 z"
       transform="matrix(0.6326777,-0.40480314,0.42335965,0.60494647,-404.08964,213.20882)"
       inkscape:transform-center-x="3.1014572"
       inkscape:transform-center-y="-1.5844258" />
    <path
       style="color:#000000;fill:#000000;fill-opacity:0.39215686;fill-rule:nonzero;stroke:none;stroke-width:5;marker:none;visibility:visible;display:inline;overflow:visible;enable-background:accumulate"
       d="m 114.37981,147.23643 -38.953301,40.98918 28.735011,48.09502 56.71577,-11.27249 6.32072,-55.06084 -52.8182,-22.75087 z m 1.11783,5.19659 46.90179,20.18664 -5.6193,48.86446 -50.34444,9.98762 -25.505407,-42.66217 34.567357,-36.37655 z"
       id="path3003-5"
       inkscape:connector-curvature="0" />
    <path
       style="color:#000000;fill:#000000;fill-opacity:0.03921569;fill-rule:nonzero;stroke:none;stroke-width:5;marker:none;visibility:visible;display:inline;overflow:visible;enable-background:accumulate"
       d="M 304.65625 176.59375 L 265.71875 217.59375 L 294.46875 265.6875 L 351.15625 254.40625 L 357.46875 199.34375 L 304.65625 176.59375 z M 309.625 199.34375 L 336.375 210.875 L 333.1875 238.78125 L 304.40625 244.5 L 289.875 220.09375 L 309.625 199.34375 z "
       transform="translate(-190.28572,-29.352102)"
       id="path3003-86" />
    <path
       style="color:#000000;fill:#000000;fill-opacity:0.07843137;fill-rule:nonzero;stroke:none;stroke-width:5;marker:none;visibility:visible;display:inline;overflow:visible;enable-background:accumulate"
       d="M 328 214.90625 L 294.84375 249.8125 L 303.28125 263.9375 L 351.15625 254.40625 L 354.375 226.28125 L 328 214.90625 z "
       transform="translate(-190.28572,-29.352102)"
       id="path3003-1" />
    <path
       sodipodi:type="star"
       style="color:#000000;fill:#f6f6f6;fill-opacity:1;fill-rule:nonzero;stroke:none;stroke-width:5;marker:none;visibility:visible;display:inline;overflow:visible;enable-background:accumulate"
       id="path3003-8"
       sodipodi:sides="5"
       sodipodi:cx="592.14288"
       sodipodi:cy="363.42856"
       sodipodi:r1="64.72863"
       sodipodi:r2="52.366566"
       sodipodi:arg1="-1.1861916"
       sodipodi:arg2="-0.55787308"
       inkscape:flatsided="true"
       inkscape:rounded="0"
       inkscape:randomized="0"
       d="m 616.4286,303.42856 40.28237,64.55607 -48.94853,58.25973 -70.53423,-28.54957 5.35598,-75.90434 z"
       transform="matrix(0.53739269,-0.26577344,0.26577344,0.53739269,-392.98925,158.75596)"
       inkscape:transform-center-x="0.89473555"
       inkscape:transform-center-y="-2.8443833" />
    <path
       style="color:#000000;fill:#000000;fill-opacity:0.07843138;fill-rule:nonzero;stroke:none;stroke-width:5;marker:none;visibility:visible;display:inline;overflow:visible;enable-background:accumulate"
       d="M 209.21875 187.34375 L 174.40625 216.84375 L 191.6875 259.03125 L 237.1875 255.65625 L 248 211.3125 L 209.21875 187.34375 z M 211.125 212.65625 L 224.5 220.9375 L 220.78125 236.28125 L 205.03125 237.4375 L 199.0625 222.84375 L 211.125 212.65625 z "
       transform="translate(-190.28572,-29.352102)"
       id="path3003-8-6" />
    <path
       style="color:#000000;fill:#000000;fill-opacity:0.07843138;fill-rule:nonzero;stroke:none;stroke-width:5;marker:none;visibility:visible;display:inline;overflow:visible;enable-background:accumulate"
       d="M 233.9375 212.09375 L 199.15625 241.59375 L 205.875 257.96875 L 237.1875 255.65625 L 246 219.53125 L 233.9375 212.09375 z "
       transform="translate(-190.28572,-29.352102)"
       id="path3003-8-9" />
    <path
       style="color:#000000;fill:#000000;fill-opacity:0.39215686;fill-rule:nonzero;stroke:none;stroke-width:5;marker:none;visibility:visible;display:inline;overflow:visible;enable-background:accumulate"
       d="m 18.925378,157.98835 -34.807822,29.4835 17.2853886,42.22 45.4941394,-3.39606 10.834139,-44.31772 -38.805845,-23.98972 z m 0.316148,4.35827 34.460719,21.28962 -9.622623,39.32933 -40.3814364,2.9994 -15.3455686,-37.45245 30.888909,-26.1659 z"
       id="path3003-5-2"
       inkscape:connector-curvature="0" />
    <path
       style="color:#000000;fill:#000000;fill-opacity:0.07843138;fill-rule:nonzero;stroke:none;stroke-width:5;marker:none;visibility:visible;display:inline;overflow:visible;enable-background:accumulate"
       d="M 371 337 L 281.25 338.625 L 261.1875 404.46875 L 308.15625 437.3125 L 385.5 378.96875 L 371 337 z "
       transform="translate(-190.28572,-29.352102)"
       id="path3003-2-1" />
    <path
       sodipodi:type="star"
       style="color:#000000;fill:#f6f6f6;fill-opacity:1;fill-rule:nonzero;stroke:none;stroke-width:5;marker:none;visibility:visible;display:inline;overflow:visible;enable-background:accumulate"
       id="path3003-4"
       sodipodi:sides="5"
       sodipodi:cx="592.14288"
       sodipodi:cy="363.42856"
       sodipodi:r1="64.72863"
       sodipodi:r2="52.366566"
       sodipodi:arg1="-1.1861916"
       sodipodi:arg2="-0.55787308"
       inkscape:flatsided="true"
       inkscape:rounded="0"
       inkscape:randomized="0"
       d="m 616.4286,303.42856 40.28237,64.55607 -48.94853,58.25973 -70.53423,-28.54957 5.35598,-75.90434 z"
       transform="matrix(0.82219895,-0.76861501,0.76861501,0.82219895,-684.86774,403.87251)"
       inkscape:transform-center-x="5.8135906"
       inkscape:transform-center-y="1.1918031" />
    <path
       style="color:#000000;fill:#000000;fill-opacity:0.07843138;fill-rule:nonzero;stroke:none;stroke-width:5;marker:none;visibility:visible;display:inline;overflow:visible;enable-background:accumulate"
       d="M 245.46875 208.90625 L 198.875 280.75 L 252.8125 347.28125 L 332.75 316.5625 L 328.21875 231.03125 L 245.46875 208.90625 z M 255.96875 236.21875 L 305.46875 249.4375 L 308.1875 300.59375 L 260.34375 319 L 228.09375 279.1875 L 255.96875 236.21875 z "
       transform="translate(-190.28572,-29.352102)"
       id="path3003-4-7" />
    <path
       style="color:#000000;fill:#000000;fill-opacity:0.07843137;fill-rule:nonzero;stroke:none;stroke-width:5;marker:none;visibility:visible;display:inline;overflow:visible;enable-background:accumulate"
       d="m 259.44318,229.17915 -65.71875,0.28125 -22,68.625 33.5625,24.1875 68.3125,-50.0625 -14.15625,-43.03125 z"
       id="path3003-0-4"
       inkscape:connector-curvature="0" />
    <g
       id="g5474"
       style="fill:#f6f6f6;fill-opacity:1">
      <path
         inkscape:transform-center-y="0.61353679"
         inkscape:transform-center-x="-1.4347218"
         transform="translate(-694.57143,-29.352102)"
         d="m 631.78574,456.28573 -22.90859,-9.8976 2.33403,-24.84589 24.35111,-5.45801 12.71577,21.47266 z"
         inkscape:randomized="0"
         inkscape:rounded="0"
         inkscape:flatsided="true"
         sodipodi:arg2="1.9786211"
         sodipodi:arg1="1.3503026"
         sodipodi:r2="17.174"
         sodipodi:r1="21.22823"
         sodipodi:cy="435.57144"
         sodipodi:cx="627.14288"
         sodipodi:sides="5"
         id="path5001"
         style="color:#000000;fill:#f6f6f6;fill-opacity:1;fill-rule:nonzero;stroke:none;stroke-width:5;marker:none;visibility:visible;display:inline;overflow:visible;enable-background:accumulate"
         sodipodi:type="star" />
      <path
         inkscape:transform-center-y="0.24600244"
         inkscape:transform-center-x="-2.5383539"
         transform="translate(-694.57143,-29.352102)"
         d="m 619.99999,408.07144 -32.16965,-11.43656 0.93585,-34.12925 32.74804,-9.65647 19.30355,28.16121 z"
         inkscape:randomized="0"
         inkscape:rounded="0"
         inkscape:flatsided="true"
         sodipodi:arg2="1.9123695"
         sodipodi:arg1="1.2840509"
         sodipodi:r2="23.496267"
         sodipodi:r1="29.042984"
         sodipodi:cy="380.21429"
         sodipodi:cx="611.78571"
         sodipodi:sides="5"
         id="path5003"
         style="color:#000000;fill:#f6f6f6;fill-opacity:1;fill-rule:nonzero;stroke:none;stroke-width:5;marker:none;visibility:visible;display:inline;overflow:visible;enable-background:accumulate"
         sodipodi:type="star" />
      <path
         inkscape:transform-center-y="0.75525188"
         inkscape:transform-center-x="1.2139953"
         transform="translate(-694.57143,-29.352102)"
         d="m 897.85713,376.64285 -16.30655,-17.55595 11.6577,-20.93354 23.51141,4.61831 2.87315,23.78782 z"
         inkscape:randomized="0"
         inkscape:rounded="0"
         inkscape:flatsided="true"
         sodipodi:arg2="2.393074"
         sodipodi:arg1="1.7647555"
         sodipodi:r2="16.489538"
         sodipodi:r1="20.382191"
         sodipodi:cy="356.64285"
         sodipodi:cx="901.78571"
         sodipodi:sides="5"
         id="path5005"
         style="color:#000000;fill:#f6f6f6;fill-opacity:1;fill-rule:nonzero;stroke:none;stroke-width:5;marker:none;visibility:visible;display:inline;overflow:visible;enable-background:accumulate"
         sodipodi:type="star" />
      <path
         inkscape:transform-center-y="0.75525188"
         inkscape:transform-center-x="1.2139953"
         transform="translate(-694.57143,-29.352098)"
         d="m 897.85713,376.64285 -16.30655,-17.55595 11.6577,-20.93354 23.51141,4.61831 2.87315,23.78782 z"
         inkscape:randomized="0"
         inkscape:rounded="0"
         inkscape:flatsided="true"
         sodipodi:arg2="2.393074"
         sodipodi:arg1="1.7647555"
         sodipodi:r2="16.489538"
         sodipodi:r1="20.382191"
         sodipodi:cy="356.64285"
         sodipodi:cx="901.78571"
         sodipodi:sides="5"
         id="path5005-1"
         style="color:#000000;fill:#f6f6f6;fill-opacity:1;fill-rule:nonzero;stroke:none;stroke-width:5;marker:none;visibility:visible;display:inline;overflow:visible;enable-background:accumulate"
         sodipodi:type="star" />
      <path
         inkscape:transform-center-y="0.75525188"
         inkscape:transform-center-x="1.2139953"
         transform="translate(-694.57143,-29.352098)"
         d="m 897.85713,376.64285 -16.30655,-17.55595 11.6577,-20.93354 23.51141,4.61831 2.87315,23.78782 z"
         inkscape:randomized="0"
         inkscape:rounded="0"
         inkscape:flatsided="true"
         sodipodi:arg2="2.393074"
         sodipodi:arg1="1.7647555"
         sodipodi:r2="16.489538"
         sodipodi:r1="20.382191"
         sodipodi:cy="356.64285"
         sodipodi:cx="901.78571"
         sodipodi:sides="5"
         id="path5005-1-7"
         style="color:#000000;fill:#000000;fill-opacity:0.07843138;fill-rule:nonzero;stroke:none;stroke-width:5;marker:none;visibility:visible;display:inline;overflow:visible;enable-background:accumulate"
         sodipodi:type="star" />
    </g>
    <path
       style="color:#000000;fill:#000000;fill-opacity:0.39215687;fill-rule:nonzero;stroke:none;stroke-width:5;marker:none;visibility:visible;display:inline;overflow:visible;enable-background:accumulate"
       d="M 245.46875 208.90625 L 198.875 280.75 L 252.8125 347.28125 L 332.75 316.5625 L 328.21875 231.03125 L 245.46875 208.90625 z M 246.96875 212.8125 L 324.96875 233.6875 L 329.21875 314.3125 L 253.875 343.25 L 203.03125 280.5 L 246.96875 212.8125 z "
       id="path3003-4-2"
       transform="translate(-190.28572,-29.352102)" />
    <path
       sodipodi:type="star"
       style="color:#000000;fill:#f6f6f6;fill-opacity:1;fill-rule:nonzero;stroke:none;stroke-width:5;marker:none;visibility:visible;display:inline;overflow:visible;enable-background:accumulate"
       id="path3003-47"
       sodipodi:sides="5"
       sodipodi:cx="592.14288"
       sodipodi:cy="363.42856"
       sodipodi:r1="64.72863"
       sodipodi:r2="52.366566"
       sodipodi:arg1="-1.1861916"
       sodipodi:arg2="-0.55787308"
       inkscape:flatsided="true"
       inkscape:rounded="0"
       inkscape:randomized="0"
       d="m 616.4286,303.42856 40.28237,64.55607 -48.94853,58.25973 -70.53423,-28.54957 5.35598,-75.90434 z"
       transform="matrix(0.6317915,-0.30362839,0.30362839,0.6317915,-432.45397,122.98682)"
       inkscape:transform-center-x="0.88818447"
       inkscape:transform-center-y="-3.4792773" />
    <path
       style="color:#000000;fill:#000000;fill-opacity:0.39215686;fill-rule:nonzero;stroke:none;stroke-width:5;marker:none;visibility:visible;display:inline;overflow:visible;enable-background:accumulate"
       d="M 49.13825,127.52814 8.0540654,161.53863 27.705489,211.12755 80.938928,207.7578 94.190607,156.08764 49.13825,127.52814 z m 0.312074,5.09957 40.007987,25.34536 -11.769394,45.85406 -47.250783,2.97352 -17.446471,-43.98943 36.458661,-30.18351 z"
       id="path3003-5-43"
       inkscape:connector-curvature="0" />
    <path
       sodipodi:type="star"
       style="color:#000000;fill:#f6f6f6;fill-opacity:1;fill-rule:nonzero;stroke:none;stroke-width:5;marker:none;visibility:visible;display:inline;overflow:visible;enable-background:accumulate"
       id="path3003-07"
       sodipodi:sides="5"
       sodipodi:cx="592.14288"
       sodipodi:cy="363.42856"
       sodipodi:r1="64.72863"
       sodipodi:r2="52.366566"
       sodipodi:arg1="-1.1861916"
       sodipodi:arg2="-0.55787308"
       inkscape:flatsided="true"
       inkscape:rounded="0"
       inkscape:randomized="0"
       d="m 616.4286,303.42856 40.28237,64.55607 -48.94853,58.25973 -70.53423,-28.54957 5.35598,-75.90434 z"
       transform="matrix(0.54127319,-0.42934937,0.42934937,0.54127319,-299.67819,220.01753)"
       inkscape:transform-center-x="3.8984747"
       inkscape:transform-center-y="-0.38923297" />
    <path
       style="color:#000000;fill:#000000;fill-opacity:0.39215686;fill-rule:nonzero;stroke:none;stroke-width:5;marker:none;visibility:visible;display:inline;overflow:visible;enable-background:accumulate"
       d="m 164.2636,119.59307 -32.09378,41.63375 29.68097,43.39376 50.43997,-14.82243 1.49587,-52.55386 -49.52303,-17.65122 z m 1.4096,4.8343 43.97452,15.65907 -1.33647,46.64035 -44.77507,13.13976 -26.34295,-38.49076 28.47997,-36.94842 z"
       id="path3003-5-5"
       inkscape:connector-curvature="0" />
    <path
       sodipodi:type="star"
       style="color:#000000;fill:#f6f6f6;fill-opacity:1;fill-rule:nonzero;stroke:none;stroke-width:5;marker:none;visibility:visible;display:inline;overflow:visible;enable-background:accumulate"
       id="path3003-16"
       sodipodi:sides="5"
       sodipodi:cx="592.14288"
       sodipodi:cy="363.42856"
       sodipodi:r1="64.72863"
       sodipodi:r2="52.366566"
       sodipodi:arg1="-1.1861916"
       sodipodi:arg2="-0.55787308"
       inkscape:flatsided="true"
       inkscape:rounded="0"
       inkscape:randomized="0"
       d="m 616.4286,303.42856 40.28237,64.55607 -48.94853,58.25973 -70.53423,-28.54957 5.35598,-75.90434 z"
       transform="matrix(0.52071108,-0.1816814,0.1816814,0.52071108,-374.10305,149.93788)"
       inkscape:transform-center-x="7.0369093"
       inkscape:transform-center-y="-8.4477353" />
    <path
       style="color:#000000;fill:#000000;fill-opacity:0.39215686;fill-rule:nonzero;stroke:none;stroke-width:5;marker:none;visibility:visible;display:inline;overflow:visible;enable-background:accumulate"
       d="m 2.011727,195.94592 -35.118557,22.96783 10.991946,40.50176 41.915677,2.05859 14.915619,-39.22814 -32.704685,-26.30004 z m -0.2056094,4.01442 29.0442964,23.34247 -13.243985,34.81171 -37.203444,-1.84092 -9.761723,-35.92963 31.1648556,-20.38363 z"
       id="path3003-5-46"
       inkscape:connector-curvature="0"
       inkscape:transform-center-x="7.0318541"
       inkscape:transform-center-y="-8.4436219" />
    <path
       style="color:#000000;fill:#000000;fill-opacity:0.07843138;fill-rule:nonzero;stroke:none;stroke-width:5;marker:none;visibility:visible;display:inline;overflow:visible;enable-background:accumulate"
       d="M 192.28125 225.28125 L 157.1875 248.28125 L 168.1875 288.78125 L 210.09375 290.8125 L 225 251.59375 L 192.28125 225.28125 z M 191.40625 243.3125 L 207.625 256.3125 L 200.21875 275.75 L 179.46875 274.71875 L 174.03125 254.65625 L 191.40625 243.3125 z "
       transform="translate(-190.28572,-29.352102)"
       id="path3003-16-8" />
    <path
       style="color:#000000;fill:#000000;fill-opacity:0.07843138;fill-rule:nonzero;stroke:none;stroke-width:5;marker:none;visibility:visible;display:inline;overflow:visible;enable-background:accumulate"
       d="M 354.53125 148.9375 L 322.46875 190.59375 L 352.15625 233.96875 L 402.59375 219.15625 L 404.0625 166.59375 L 354.53125 148.9375 z M 360.34375 168.6875 L 387.09375 178.21875 L 386.28125 206.59375 L 359.03125 214.59375 L 343 191.15625 L 360.34375 168.6875 z "
       transform="translate(-190.28572,-29.352102)"
       id="path3003-07-3" />
    <path
       style="color:#000000;fill:#000000;fill-opacity:0.07843138;fill-rule:nonzero;stroke:none;stroke-width:5;marker:none;visibility:visible;display:inline;overflow:visible;enable-background:accumulate"
       d="M 239.40625 156.875 L 198.34375 190.90625 L 218 240.46875 L 271.21875 237.09375 L 284.46875 185.4375 L 239.40625 156.875 z M 240.59375 175.09375 L 267.53125 192.15625 L 259.59375 223.0625 L 227.78125 225.09375 L 216 195.4375 L 240.59375 175.09375 z "
       transform="translate(-190.28572,-29.352102)"
       id="path3003-47-7" />
    <path
       style="color:#000000;fill:#000000;fill-opacity:0.07843138;fill-rule:nonzero;stroke:none;stroke-width:5;marker:none;visibility:visible;display:inline;overflow:visible;enable-background:accumulate"
       d="M 265.65625 248.3125 L 224.28125 312.09375 L 252.8125 347.28125 L 332.75 316.5625 L 330.03125 265.5 L 265.65625 248.3125 z "
       transform="translate(-190.28572,-29.352102)"
       id="path3003-4-1" />
    <path
       style="color:#000000;fill:#000000;fill-opacity:0.07843138;fill-rule:nonzero;stroke:none;stroke-width:5;marker:none;visibility:visible;display:inline;overflow:visible;enable-background:accumulate"
       d="M 373.71875 180.25 L 342.84375 220.375 L 352.15625 233.96875 L 402.59375 219.15625 L 403.375 190.8125 L 373.71875 180.25 z "
       transform="translate(-190.28572,-29.352102)"
       id="path3003-07-8" />
    <path
       style="color:#000000;fill:#000000;fill-opacity:0.07843138;fill-rule:nonzero;stroke:none;stroke-width:5;marker:none;visibility:visible;display:inline;overflow:visible;enable-background:accumulate"
       d="M 260.625 193.25 L 219.5625 227.25 L 224.625 240.0625 L 271.21875 237.09375 L 279.40625 205.15625 L 260.625 193.25 z "
       transform="translate(-190.28572,-29.352102)"
       id="path3003-47-6" />
    <path
       style="color:#000000;fill:#000000;fill-opacity:0.07843138;fill-rule:nonzero;stroke:none;stroke-width:5;marker:none;visibility:visible;display:inline;overflow:visible;enable-background:accumulate"
       d="M 220.21875 264.1875 L 190.5 283.625 L 192.21875 289.9375 L 210.09375 290.8125 L 220.21875 264.1875 z "
       transform="translate(-190.28572,-29.352102)"
       id="path3003-16-4" />
    <path
       sodipodi:type="star"
       style="color:#000000;fill:#f6f6f6;fill-opacity:1;fill-rule:nonzero;stroke:none;stroke-width:5;marker:none;visibility:visible;display:inline;overflow:visible;enable-background:accumulate"
       id="path4995"
       sodipodi:sides="5"
       sodipodi:cx="860.71429"
       sodipodi:cy="418.42856"
       sodipodi:r1="26.623318"
       sodipodi:r2="20.587481"
       sodipodi:arg1="-1.4497691"
       sodipodi:arg2="-0.82145057"
       inkscape:flatsided="true"
       inkscape:rounded="0"
       inkscape:randomized="0"
       d="m 863.92858,391.99999 22.91405,21.31866 -13.19442,28.38038 -31.06865,-3.77862 -6.00706,-30.7157 z"
       transform="translate(-701.71429,-33.637816)"
       inkscape:transform-center-x="-0.66217928"
       inkscape:transform-center-y="-1.7916218" />
    <path
       sodipodi:type="star"
       style="color:#000000;fill:#f6f6f6;fill-opacity:1;fill-rule:nonzero;stroke:none;stroke-width:5;marker:none;visibility:visible;display:inline;overflow:visible;enable-background:accumulate"
       id="path4997"
       sodipodi:sides="5"
       sodipodi:cx="732.14288"
       sodipodi:cy="440.21429"
       sodipodi:r1="36.792648"
       sodipodi:r2="29.765879"
       sodipodi:arg1="1.5902114"
       sodipodi:arg2="2.2185299"
       inkscape:flatsided="true"
       inkscape:rounded="0"
       inkscape:randomized="0"
       d="m 731.4286,477.00001 -34.49174,-26.09763 14.16179,-40.8682 43.2442,0.83969 12.5646,41.38716 z"
       transform="translate(-693.85714,-30.066388)"
       inkscape:transform-center-x="0.22072642"
       inkscape:transform-center-y="3.3027998" />
    <path
       style="color:#000000;fill:#000000;fill-opacity:0.07843138;fill-rule:nonzero;stroke:none;stroke-width:5;marker:none;visibility:visible;display:inline;overflow:visible;enable-background:accumulate"
       d="M 117.21875 352.84375 L 84.46875 362.5 L 83.53125 396.625 L 115.71875 408.0625 L 136.53125 381 L 117.21875 352.84375 z M 108.5625 375.6875 L 112.125 379.84375 L 109.28125 384.5 L 103.96875 383.25 L 103.53125 377.78125 L 108.5625 375.6875 z "
       transform="translate(-190.28572,-29.352102)"
       id="path5003-6" />
    <path
       style="color:#000000;fill:#000000;fill-opacity:0.39215687;fill-rule:nonzero;stroke:none;stroke-width:5;marker:none;visibility:visible;display:inline;overflow:visible;enable-background:accumulate"
       d="M 117.21875 352.84375 L 84.46875 362.5 L 83.53125 396.625 L 115.71875 408.0625 L 136.53125 381 L 117.21875 352.84375 z M 115.53125 357.5625 L 131.53125 380.84375 L 114.28125 403.25 L 87.6875 393.8125 L 88.4375 365.5625 L 115.53125 357.5625 z "
       transform="translate(-190.28572,-29.352102)"
       id="path5003-5" />
    <path
       style="color:#000000;fill:#000000;fill-opacity:0.39215687;fill-rule:nonzero;stroke:none;stroke-width:5;marker:none;visibility:visible;display:inline;overflow:visible;enable-background:accumulate"
       d="M 131.28125 416.09375 L 106.9375 421.53125 L 104.59375 446.375 L 127.5 456.28125 L 144 437.5625 L 131.28125 416.09375 z M 129.28125 420.75 L 138.9375 437.09375 L 126.375 451.34375 L 108.9375 443.8125 L 110.71875 424.875 L 129.28125 420.75 z "
       transform="translate(-190.28572,-29.352102)"
       id="path5001-0" />
    <path
       sodipodi:type="star"
       style="color:#000000;fill:#000000;fill-opacity:0.07843138;fill-rule:nonzero;stroke:none;stroke-width:5;marker:none;visibility:visible;display:inline;overflow:visible;enable-background:accumulate"
       id="path5001-4"
       sodipodi:sides="5"
       sodipodi:cx="627.14288"
       sodipodi:cy="435.57144"
       sodipodi:r1="21.22823"
       sodipodi:r2="17.174"
       sodipodi:arg1="1.3503026"
       sodipodi:arg2="1.9786211"
       inkscape:flatsided="true"
       inkscape:rounded="0"
       inkscape:randomized="0"
       d="m 631.78574,456.28573 -22.90859,-9.8976 2.33403,-24.84589 24.35111,-5.45801 12.71577,21.47266 z"
       transform="translate(-694.57143,-29.352102)"
       inkscape:transform-center-x="-1.4347218"
       inkscape:transform-center-y="0.61353679" />
    <path
       style="color:#000000;fill:#000000;fill-opacity:0.07843138;fill-rule:nonzero;stroke:none;stroke-width:5;marker:none;visibility:visible;display:inline;overflow:visible;enable-background:accumulate"
       d="M 207.53125 409.3125 L 193.375 450.1875 L 227.84375 476.28125 L 263.34375 451.53125 L 250.78125 410.15625 L 207.53125 409.3125 z M 222.96875 430.5625 L 235.34375 431.40625 L 238.34375 443.4375 L 227.84375 450.03125 L 218.34375 442.0625 L 222.96875 430.5625 z "
       transform="translate(-190.28572,-29.352102)"
       id="path4997-8" />
    <path
       style="color:#000000;fill:#000000;fill-opacity:0.07843138;fill-rule:nonzero;stroke:none;stroke-width:5;marker:none;visibility:visible;display:inline;overflow:visible;enable-background:accumulate"
       d="M 228.25 447.1875 L 220.1875 470.46875 L 227.84375 476.28125 L 263.34375 451.53125 L 262.21875 447.84375 L 228.25 447.1875 z "
       transform="translate(-190.28572,-29.352102)"
       id="path4997-3" />
    <path
       style="color:#000000;fill:#000000;fill-opacity:0.39215687;fill-rule:nonzero;stroke:none;stroke-width:5;marker:none;visibility:visible;display:inline;overflow:visible;enable-background:accumulate"
       d="M 207.53125 409.3125 L 193.375 450.1875 L 227.84375 476.28125 L 263.34375 451.53125 L 250.78125 410.15625 L 207.53125 409.3125 z M 210.1875 413.15625 L 247.96875 413.875 L 258.9375 450 L 227.96875 471.625 L 197.84375 448.84375 L 210.1875 413.15625 z "
       transform="translate(-190.28572,-29.352102)"
       id="path4997-1" />
    <path
       style="color:#000000;fill:#000000;fill-opacity:0.39215687;fill-rule:nonzero;stroke:none;stroke-width:5;marker:none;visibility:visible;display:inline;overflow:visible;enable-background:accumulate"
       d="M 352.5 387.71875 L 325.15625 402.90625 L 331.15625 433.625 L 362.21875 437.40625 L 375.40625 409.03125 L 352.5 387.71875 z M 352 391.8125 L 371.34375 409.8125 L 360.21875 433.8125 L 333.96875 430.59375 L 328.875 404.65625 L 352 391.8125 z "
       transform="translate(-190.28572,-29.352102)"
       id="path4995-9" />
    <path
       style="color:#000000;fill:#000000;fill-opacity:0.07843138;fill-rule:nonzero;stroke:none;stroke-width:5;marker:none;visibility:visible;display:inline;overflow:visible;enable-background:accumulate"
       d="M 352.5 387.71875 L 325.15625 402.90625 L 331.15625 433.625 L 362.21875 437.40625 L 375.40625 409.03125 L 352.5 387.71875 z M 349.71875 410.5625 L 352.84375 413.46875 L 351.03125 417.3125 L 346.8125 416.78125 L 346 412.65625 L 349.71875 410.5625 z "
       transform="translate(-190.28572,-29.352102)"
       id="path4995-4" />
    <path
       style="color:#000000;fill:#000000;fill-opacity:0.39215687;fill-rule:nonzero;stroke:none;stroke-width:5;marker:none;visibility:visible;display:inline;overflow:visible;enable-background:accumulate"
       d="M 388.9375 338.15625 L 377.25 359.09375 L 393.5625 376.65625 L 415.3125 366.5625 L 412.4375 342.78125 L 388.9375 338.15625 z M 390.90625 342.4375 L 409 346 L 411.1875 364.25 L 394.46875 372.03125 L 381.96875 358.53125 L 390.90625 342.4375 z "
       id="path5005-8"
       transform="translate(-190.28572,-29.352102)" />
  </g>
</svg>
