<?xml version="1.0" encoding="UTF-8" standalone="no"?>
<!-- Created with Inkscape (http://www.inkscape.org/) -->

<svg
   xmlns:dc="http://purl.org/dc/elements/1.1/"
   xmlns:cc="http://creativecommons.org/ns#"
   xmlns:rdf="http://www.w3.org/1999/02/22-rdf-syntax-ns#"
   xmlns:svg="http://www.w3.org/2000/svg"
   xmlns="http://www.w3.org/2000/svg"
   xmlns:sodipodi="http://sodipodi.sourceforge.net/DTD/sodipodi-0.dtd"
   xmlns:inkscape="http://www.inkscape.org/namespaces/inkscape"
   width="512"
   height="512"
   id="svg2"
   version="1.1"
   inkscape:version="0.48.4 r9939"
   sodipodi:docname="SteelDust.svg">
  <defs
     id="defs4" />
  <sodipodi:namedview
     id="base"
     pagecolor="#ffffff"
     bordercolor="#666666"
     borderopacity="1.0"
     inkscape:pageopacity="0.0"
     inkscape:pageshadow="2"
     inkscape:zoom="1"
     inkscape:cx="241.91867"
     inkscape:cy="239.51352"
     inkscape:document-units="px"
     inkscape:current-layer="layer1"
     showgrid="false"
     fit-margin-top="0"
     fit-margin-left="0"
     fit-margin-right="0"
     fit-margin-bottom="0"
     inkscape:window-width="1301"
     inkscape:window-height="744"
     inkscape:window-x="65"
     inkscape:window-y="24"
     inkscape:window-maximized="1" />
  <metadata
     id="metadata7">
    <rdf:RDF>
      <cc:Work
         rdf:about="">
        <dc:format>image/svg+xml</dc:format>
        <dc:type
           rdf:resource="http://purl.org/dc/dcmitype/StillImage" />
        <dc:title />
      </cc:Work>
    </rdf:RDF>
  </metadata>
  <g
     inkscape:label="Layer 1"
     inkscape:groupmode="layer"
     id="layer1"
     transform="translate(0,-540.36218)">
    <path
       style="color:#000000;fill:none;stroke:#000000;stroke-width:4;stroke-linecap:butt;stroke-linejoin:round;stroke-miterlimit:4;stroke-opacity:1;stroke-dasharray:none;stroke-dashoffset:0;marker:none;visibility:visible;display:inline;overflow:visible;enable-background:accumulate"
       d="m 276.3396,657.49293 69.4381,85.4356 99.669,80.14793 16.9643,89.91072 -114.1071,85.17857 -121.875,3.92855 -164.6429,-80.62498 12.8571,-82.14285 105,-109.28572 z"
       id="path2996"
       inkscape:connector-curvature="0"
       sodipodi:nodetypes="cccccccccc" />
    <path
       style="color:#000000;fill:#303030;fill-opacity:1;stroke:none;stroke-width:4;marker:none;visibility:visible;display:inline;overflow:visible;enable-background:accumulate"
       d="m 276.3396,657.49293 69.4381,85.4356 99.669,80.14793 16.9643,89.91072 -114.1071,85.17857 -121.875,3.92855 L 61.786,921.46932 74.6431,839.32647 179.6432,730.04075 z"
       id="path2996-0"
       inkscape:connector-curvature="0"
       sodipodi:nodetypes="cccccccccc" />
    <path
       style="fill:#000000;fill-opacity:0.39215687;stroke:none"
       d="m 281.3125,663.61218 -13.375,56.71875 10.1875,57.90625 3.71875,72.21875 -33.34375,55.6875 -68.3125,20.34375 -78.15625,-28.0625 -28.96875,-48.90625 -11.28125,71.9375 164.65625,80.62497 121.875,-3.90622 114.09375,-85.1875 -16.96875,-89.90625 -99.65625,-80.15625 -64.46875,-79.3125 z"
       id="path3865"
       inkscape:connector-curvature="0" />
    <path
       style="fill:#000000;fill-opacity:0.39215687;stroke:none"
       d="m 276.34375,657.48718 -37,27.78125 93.5,73.15625 16.09375,89.65625 -112.875,84.625 -119.28125,4.3125 -53.1875,-27.1875 -1.8125,11.625 164.65625,80.62497 121.875,-3.90622 114.09375,-85.1875 -16.96875,-89.90625 -99.65625,-80.15625 -69.4375,-85.4375 z"
       id="path3926"
       inkscape:connector-curvature="0" />
    <path
       style="color:#000000;fill:#000000;fill-opacity:0.19607843;stroke:none;stroke-width:4;marker:none;visibility:visible;display:inline;overflow:visible;enable-background:accumulate"
       d="m 276.344,657.48718 -96.6875,72.5625 -105,109.28125 -12.875,82.125 164.6563,80.62497 121.875,-3.90622 114.0937,-85.1875 -16.9687,-89.90625 -99.6563,-80.15625 -69.4375,-85.4375 z m -2.5625,20.65625 60.3438,74.25 a 15.007071,15.007071 0 0 0 2.25,2.21875 l 95.3437,76.65625 14.1875,75.3125 -102.7812,76.71875 -113.4688,3.65625 -151.3437,-74.09375 10.4062,-66.5625 100.9375,-105.03125 84.125,-63.125 z"
       id="path2996-2"
       inkscape:connector-curvature="0" />
    <g
       id="g4087"
       transform="translate(2e-4,0)"
       style="fill:#adadad;fill-opacity:1" />
    <path
       inkscape:connector-curvature="0"
       id="path4111-5"
       style="color:#000000;fill:#adadad;fill-opacity:1;fill-rule:nonzero;stroke:none;stroke-width:4;marker:none;visibility:visible;display:inline;overflow:visible;enable-background:accumulate"
       d="m 233.71273,951.29074 8.21003,2.8197 -0.14465,8.67954 -8.29943,2.54455 -4.98468,-7.10692 z m 24.0369,0.25255 -9.95438,-4.57453 1.27456,-10.88079 10.7421,-2.15017 5.36443,9.55191 z m 38.4526,4.93565 -7.28614,9.86136 -11.63025,-3.88221 0.0983,-12.2607 11.69098,-3.69532 z m 59.77964,-31.97206 -6.33576,-7.62521 5.29415,-8.38198 9.60772,2.44486 0.64375,9.89299 z m 33.83927,-60.44829 9.63805,15.3058 -11.57836,13.89608 -16.79386,-6.71755 1.19918,-18.04775 z m -62.32141,-79.99999 6.07729,-7.65038 9.15394,3.41574 -0.41985,9.76144 -9.41342,2.61715 z m 38.92857,31.96428 -5.25135,8.12073 -9.34603,-2.48489 -0.52481,-9.65647 9.02168,-3.48314 z m -20.44645,16.69646 18.68147,13.57288 -7.13569,21.96138 -23.09156,0 -7.13569,-21.96139 z m -126.68119,62.44956 -6.32164,3.08904 -4.89134,-5.05766 3.29861,-6.21485 6.93,1.21667 z m -47.1581,5.20877 -6.88577,9.49051 -11.15384,-3.61603 -0.008,-11.72534 11.14909,-3.63063 z m 43.80376,-160.21511 -5.48204,7.91559 -9.22221,-2.76768 -0.2176,-9.6261 9.08772,-3.18158 z m 42.92468,-4.77888 9.31767,5.04554 -1.91926,10.42079 -10.50385,1.39486 -4.57247,-9.55871 z m 9.83694,54.79585 25.05874,1.95124 5.88784,24.43524 -21.41986,13.15058 -19.12603,-16.30775 z m -55.30014,-32.73016 12.51396,8.14622 -3.88048,14.4188 -14.91224,0.7651 -5.33578,-13.94595 z m -25.12075,39.37493 0.037,15.07601 -14.32672,4.69391 -8.89137,-12.17502 8.83155,-12.21849 z m -25.90483,20.84065 17.29724,21.74117 -15.33193,23.16904 -26.77291,-7.42191 -1.21462,-27.75604 z" />
    <path
       style="color:#000000;fill:#000000;fill-opacity:0.19607843;fill-rule:nonzero;stroke:none;stroke-width:4;marker:none;visibility:visible;display:inline;overflow:visible;enable-background:accumulate"
       d="M 210.125 192.125 L 201.03125 195.3125 L 201.25 204.9375 L 210.46875 207.71875 L 215.9375 199.8125 L 210.125 192.125 z M 258.875 195.03125 L 251.1875 202.3125 L 255.75 211.875 L 266.28125 210.5 L 268.1875 200.0625 L 258.875 195.03125 z M 208.71875 196.84375 L 211.03125 199.875 L 208.84375 203.0625 L 205.15625 201.96875 L 205.0625 198.09375 L 208.71875 196.84375 z M 259.5 199.875 L 263.75 202.1875 L 262.90625 206.90625 L 258.09375 207.5625 L 256.03125 203.1875 L 259.5 199.875 z M 213.40625 217.09375 L 201.78125 226.46875 L 207.125 240.40625 L 222.03125 239.65625 L 225.90625 225.21875 L 213.40625 217.09375 z M 213.6875 221.96875 L 221.3125 226.9375 L 218.9375 235.8125 L 209.8125 236.28125 L 206.53125 227.75 L 213.6875 221.96875 z M 333.5625 236.03125 L 327.5 243.6875 L 332.90625 251.84375 L 342.3125 249.21875 L 342.71875 239.46875 L 333.5625 236.03125 z M 334.90625 240.75 L 338.625 242.15625 L 338.46875 246.1875 L 334.625 247.21875 L 332.40625 243.90625 L 334.90625 240.75 z M 268.71875 249.8125 L 259.09375 273.03125 L 278.25 289.34375 L 299.65625 276.21875 L 293.78125 251.78125 L 268.71875 249.8125 z M 173.9375 251.84375 L 165.09375 264.0625 L 174 276.21875 L 188.3125 271.53125 L 188.28125 256.46875 L 173.9375 251.84375 z M 271.28125 254 L 290.59375 255.5 L 295.09375 274.3125 L 278.625 284.4375 L 263.875 271.875 L 271.28125 254 z M 175.46875 256.46875 L 184.3125 259.34375 L 184.34375 268.65625 L 175.5 271.53125 L 170 264 L 175.46875 256.46875 z M 360.3125 268.15625 L 351.3125 271.625 L 351.84375 281.28125 L 361.1875 283.78125 L 366.4375 275.65625 L 360.3125 268.15625 z M 359.09375 272.90625 L 361.53125 275.90625 L 359.40625 279.1875 L 355.65625 278.1875 L 355.4375 274.3125 L 359.09375 272.90625 z M 162.375 277.3125 L 136.375 287.03125 L 137.5625 314.78125 L 164.34375 322.21875 L 179.6875 299.03125 L 162.375 277.3125 z M 161.09375 282 L 174.78125 299.25 L 162.625 317.59375 L 141.40625 311.75 L 140.46875 289.75 L 161.09375 282 z M 345.96875 292.34375 L 327.3125 305.9375 L 334.4375 327.90625 L 357.53125 327.90625 L 364.65625 305.9375 L 345.96875 292.34375 z M 345.96875 297.25 L 359.96875 307.4375 L 354.65625 323.90625 L 337.3125 323.90625 L 331.96875 307.4375 L 345.96875 297.25 z M 389.8125 323.6875 L 372.28125 328.125 L 371.09375 346.1875 L 387.875 352.90625 L 399.46875 339 L 389.8125 323.6875 z M 388 328.25 L 394.59375 338.6875 L 386.6875 348.125 L 375.25 343.53125 L 376.0625 331.25 L 388 328.25 z M 211.375 346.625 L 208.09375 352.84375 L 212.96875 357.90625 L 219.3125 354.8125 L 218.3125 347.84375 L 211.375 346.625 z M 165.25 350.53125 L 154.09375 354.15625 L 154.09375 365.875 L 165.25 369.5 L 172.15625 360 L 165.25 350.53125 z M 213.53125 351 L 214.78125 351.21875 L 214.96875 352.5 L 213.8125 353.0625 L 212.9375 352.15625 L 213.53125 351 z M 163.71875 355.1875 L 167.21875 360 L 163.71875 364.8125 L 158.0625 363 L 158.0625 357.03125 L 163.71875 355.1875 z M 354.9375 368.125 L 349.65625 376.53125 L 355.96875 384.15625 L 365.1875 380.46875 L 364.5625 370.59375 L 354.9375 368.125 z M 356.75 372.6875 L 360.78125 373.6875 L 361.03125 377.84375 L 357.1875 379.375 L 354.53125 376.1875 L 356.75 372.6875 z M 259.8125 393.5625 L 249.0625 395.71875 L 247.78125 406.59375 L 257.75 411.1875 L 265.1875 403.125 L 259.8125 393.5625 z M 257.78125 398.03125 L 260.3125 402.5625 L 256.78125 406.375 L 252.0625 404.1875 L 252.65625 399.0625 L 257.78125 398.03125 z M 289.0625 406.125 L 277.375 409.84375 L 277.28125 422.09375 L 288.90625 425.96875 L 296.1875 416.125 L 289.0625 406.125 z M 287.5 410.78125 L 291.28125 416.0625 L 287.4375 421.28125 L 281.28125 419.21875 L 281.3125 412.71875 L 287.5 410.78125 z M 233.71875 410.9375 L 228.5 417.875 L 233.46875 424.96875 L 241.78125 422.4375 L 241.9375 413.75 L 233.71875 410.9375 z M 235.15625 415.59375 L 237.90625 416.5625 L 237.875 419.46875 L 235.09375 420.34375 L 233.40625 417.9375 L 235.15625 415.59375 z "
       transform="translate(0,540.36218)"
       id="path4111" />
    <path
       style="color:#000000;fill:#000000;fill-opacity:0.19607843;fill-rule:nonzero;stroke:none;stroke-width:4;marker:none;visibility:visible;display:inline;overflow:visible;enable-background:accumulate"
       d="M 214.53125 201.8125 L 210.9375 203.09375 L 211.03125 206.90625 L 214.53125 201.8125 z M 267.46875 204.0625 L 261.09375 210.09375 L 261.59375 211.125 L 266.28125 210.5 L 267.46875 204.0625 z M 223.3125 224.875 L 211.6875 234.25 L 213.90625 240.0625 L 222.03125 239.65625 L 225.59375 226.375 L 223.3125 224.875 z M 342.5 245.0625 L 338.3125 250.34375 L 342.3125 249.21875 L 342.5 245.0625 z M 278.59375 257.59375 L 269 280.8125 L 278.6875 289.0625 L 299.65625 276.21875 L 295.5 258.90625 L 278.59375 257.59375 z M 183.84375 259.625 L 175 271.84375 L 177.40625 275.09375 L 188.3125 271.53125 L 188.28125 261.0625 L 183.84375 259.625 z M 364.9375 277.96875 L 361.21875 279.40625 L 361.4375 283.40625 L 364.9375 277.96875 z M 169.4375 286.15625 L 146.25 294.8125 L 147.25 317.46875 L 164.34375 322.21875 L 179.6875 299.03125 L 169.4375 286.15625 z M 355.875 300.125 L 337.1875 313.71875 L 341.8125 327.90625 L 357.53125 327.90625 L 364.5 306.40625 L 355.875 300.125 z M 395.40625 332.5625 L 382.1875 335.90625 L 381.25 350.25 L 387.875 352.90625 L 399.46875 339 L 395.40625 332.5625 z M 171.75 359.4375 L 164 361.9375 L 164 369.09375 L 165.25 369.5 L 172.15625 360 L 171.75 359.4375 z M 364.84375 375.90625 L 360.875 382.1875 L 365.1875 380.46875 L 364.90625 375.90625 L 364.84375 375.90625 z M 264.75 402.34375 L 258.96875 403.5 L 258.09375 410.8125 L 265.1875 403.125 L 264.75 402.34375 z M 295.40625 415.03125 L 287.28125 417.625 L 287.21875 425.40625 L 288.90625 425.96875 L 296.1875 416.125 L 295.40625 415.03125 z M 241.8125 421.125 L 240.53125 422.8125 L 241.78125 422.4375 L 241.8125 421.125 z "
       transform="translate(0,540.36218)"
       id="path4111-1" />
  </g>
</svg>
