<?xml version="1.0" encoding="UTF-8" standalone="no"?>
<!-- Created with Inkscape (http://www.inkscape.org/) -->

<svg
   xmlns:dc="http://purl.org/dc/elements/1.1/"
   xmlns:cc="http://creativecommons.org/ns#"
   xmlns:rdf="http://www.w3.org/1999/02/22-rdf-syntax-ns#"
   xmlns:svg="http://www.w3.org/2000/svg"
   xmlns="http://www.w3.org/2000/svg"
   xmlns:sodipodi="http://sodipodi.sourceforge.net/DTD/sodipodi-0.dtd"
   xmlns:inkscape="http://www.inkscape.org/namespaces/inkscape"
   width="512"
   height="512"
   id="svg2"
   version="1.1"
   inkscape:version="0.48.4 r9939"
   sodipodi:docname="SteelAxe.svg">
  <defs
     id="defs4" />
  <sodipodi:namedview
     id="base"
     pagecolor="#ffffff"
     bordercolor="#666666"
     borderopacity="1.0"
     inkscape:pageopacity="0.0"
     inkscape:pageshadow="2"
     inkscape:zoom="1"
     inkscape:cx="281.4967"
     inkscape:cy="265.71085"
     inkscape:document-units="px"
     inkscape:current-layer="layer1"
     showgrid="false"
     fit-margin-top="0"
     fit-margin-left="0"
     fit-margin-right="0"
     fit-margin-bottom="0"
     inkscape:window-width="1301"
     inkscape:window-height="744"
     inkscape:window-x="65"
     inkscape:window-y="24"
     inkscape:window-maximized="1">
    <inkscape:grid
       type="xygrid"
       id="grid3096"
       empspacing="8"
       visible="true"
       enabled="true"
       snapvisiblegridlinesonly="true" />
  </sodipodi:namedview>
  <metadata
     id="metadata7">
    <rdf:RDF>
      <cc:Work
         rdf:about="">
        <dc:format>image/svg+xml</dc:format>
        <dc:type
           rdf:resource="http://purl.org/dc/dcmitype/StillImage" />
        <dc:title></dc:title>
      </cc:Work>
    </rdf:RDF>
  </metadata>
  <g
     inkscape:label="Layer 1"
     inkscape:groupmode="layer"
     id="layer1"
     transform="translate(-236,-121.50504)">
    <path
       style="fill:#1a1a1a;fill-opacity:1;stroke:none"
       d="m 670.48045,132.34879 a 5.6574198,5.6574198 0 0 0 -4,1.65625 l -266.75,266.5 a 5.6574198,5.6574198 0 0 0 -0.0937,7.875 l 62,65.5 a 5.6574198,5.6574198 0 0 0 8.09375,0.125 l 267.5,-267.5 a 5.6574198,5.6574198 0 0 0 1.65625,-4 l 0,-64.5 a 5.6574198,5.6574198 0 0 0 -5.65625,-5.65625 l -62.75,0 z m 0,5.65625 62.75,0 0,64.5 -267.5,267.5 -62,-65.5 266.75,-266.5 z"
       id="path4691"
       inkscape:connector-curvature="0" />
    <g
       id="g4000"
       transform="translate(-32.000002,0)">
      <path
         sodipodi:nodetypes="ccccc"
         transform="translate(236,121.50504)"
         inkscape:connector-curvature="0"
         id="path3034"
         d="M 418.5719,90.57181 60.714285,449.14286 95.382524,483.34191 452.815,125.98219 z"
         style="fill:#5a4829;fill-opacity:1;stroke:none" />
      <path
         id="path3034-6"
         transform="translate(236,121.50504)"
         d="M 418.5633,90.562875 60.71875,449.15625 95.375,483.34375 452.8133,125.96913 z m -0.0937,11.187505 23.3125,24.15625 L 95.3125,472.28125 71.84375,449.125 z"
         style="fill:#000000;fill-opacity:0.2745098;stroke:none"
         inkscape:connector-curvature="0"
         sodipodi:nodetypes="cccccccccc" />
      <path
         id="path3034-2"
         transform="translate(236,121.50504)"
         d="M 437.75095,110.7815 80.53125,468.71875 95.375,483.34375 452.62595,126.1565 z"
         style="fill:#000000;fill-opacity:0.19607843;stroke:none"
         inkscape:connector-curvature="0"
         sodipodi:nodetypes="ccccc" />
    </g>
    <path
       style="fill:#4d4d4d;fill-opacity:1;stroke:none"
       d="m 403.73045,404.50504 266.75,-266.5 62.75,0 0,64.5 -267.5,267.5 z"
       id="path4671"
       inkscape:connector-curvature="0" />
    <path
       style="fill:#000000;fill-opacity:0.3137255;stroke:none"
       d="M 434.46875 16.5 L 167.71875 283 L 229.71875 348.5 L 497.21875 81 L 497.21875 16.5 L 434.46875 16.5 z M 438.875 27.09375 L 486.625 27.09375 L 486.625 76.59375 L 229.90625 333.3125 L 182.5 283.21875 L 438.875 27.09375 z "
       transform="translate(236,121.50504)"
       id="path4671-8" />
    <path
       style="fill:#000000;stroke:none;stroke-width:1px;stroke-linecap:butt;stroke-linejoin:miter;stroke-opacity:1;fill-opacity:0.3137255"
       d="M 441 42.5 L 224 264 L 196.0625 254.6875 L 167.71875 283 L 229.71875 348.5 L 497.21875 81 L 497.21875 43 L 473.5 43 L 471.5 49 L 251 279.5 L 233.5 283.5 L 239 272.5 L 459 42.5 L 441 42.5 z "
       transform="translate(236,121.50504)"
       id="path4751" />
    <g
       transform="translate(54.963167,-88.334195)"
       id="g3042">
      <rect
         transform="matrix(0.70710678,-0.70710678,0.70710678,0.70710678,0,0)"
         y="613.81476"
         x="-286.18637"
         height="49.279358"
         width="156.29126"
         id="rect3879-0"
         style="color:#000000;fill:#a03b35;fill-opacity:1;fill-rule:nonzero;stroke:#2f0a09;stroke-width:3.66199994;stroke-opacity:1;marker:none;visibility:visible;display:inline;overflow:visible;enable-background:accumulate" />
      <path
         inkscape:connector-curvature="0"
         id="rect3879-0-0"
         d="m 342.58429,527.99833 -108.40126,108.40126 32.31749,32.31749 108.40126,-108.40126 -32.31749,-32.31749 z m -2.40569,15.6805 19.27455,19.27456 -93.44536,93.41638 -19.27456,-19.24557 93.44537,-93.44537 z"
         style="color:#000000;fill:#000000;fill-opacity:0.39215686;fill-rule:nonzero;stroke:none;stroke-width:3.66199994;marker:none;visibility:visible;display:inline;overflow:visible;enable-background:accumulate" />
      <path
         inkscape:connector-curvature="0"
         transform="translate(141.71428,232.93361)"
         id="rect3879-0-3"
         d="M 210.375,315.9375 106.40625,419.90625 124.8125,438.3125 228.78125,334.34375 210.375,315.9375 z"
         style="color:#000000;fill:#000000;fill-opacity:0.19607843;fill-rule:nonzero;stroke:none;stroke-width:3.66199994;marker:none;visibility:visible;display:inline;overflow:visible;enable-background:accumulate" />
      <g
         transform="translate(166.07158,38.571428)"
         id="g3842">
        <path
           sodipodi:type="star"
           style="color:#000000;fill:#4d4d4d;fill-opacity:1;fill-rule:nonzero;stroke:#000000;stroke-width:4.00009775;stroke-miterlimit:4;stroke-opacity:1;stroke-dasharray:none;marker:none;visibility:visible;display:inline;overflow:visible;enable-background:accumulate"
           id="path2997-8"
           sodipodi:sides="5"
           sodipodi:cx="82.327431"
           sodipodi:cy="447.09769"
           sodipodi:r1="45.678699"
           sodipodi:r2="39.67952"
           sodipodi:arg1="-1.4265537"
           sodipodi:arg2="-0.79823514"
           inkscape:flatsided="true"
           inkscape:rounded="0"
           inkscape:randomized="0"
           d="m 88.893422,401.89336 38.454888,37.48005 -23.76244,48.15474 -53.140876,-7.71879 -9.080432,-52.92521 z"
           transform="matrix(0.91547764,0,0,0.91547764,-16.315632,231.3782)"
           inkscape:transform-center-x="1.1317962"
           inkscape:transform-center-y="-0.87702664" />
        <path
           inkscape:connector-curvature="0"
           style="color:#000000;fill:#000000;fill-opacity:0.35686275;fill-rule:nonzero;stroke:none;stroke-width:4;marker:none;visibility:visible;display:inline;overflow:visible;enable-background:accumulate"
           d="m 65.06473,599.30801 -43.51379,22.88694 8.32512,48.43449 48.63475,7.06634 21.7712,-44.08597 -35.21728,-34.3018 z m -2.28869,15.73477 21.82842,21.25625 -13.47469,27.32128 -30.18215,-4.37713 -5.14956,-30.03911 26.97798,-14.16129 z"
           id="path2997-8-46" />
        <path
           inkscape:connector-curvature="0"
           id="path2997-8-7"
           d="m 71.0487,630.54968 -43.5,22.875 2.96875,17.3125 48,6.96875 13.28125,-26.9375 -20.75,-20.21875 z"
           style="color:#000000;fill:#000000;fill-opacity:0.31372549;fill-rule:nonzero;stroke:none;stroke-width:4;marker:none;visibility:visible;display:inline;overflow:visible;enable-background:accumulate" />
      </g>
      <path
         transform="matrix(0.86100387,0,0,0.86100387,150.96937,295.02588)"
         d="m 104.42452,442.48889 c 0,9.03088 -7.320968,16.35185 -16.351842,16.35185 -9.030875,0 -16.351845,-7.32097 -16.351845,-16.35185 0,-9.03087 7.32097,-16.35184 16.351845,-16.35184 9.030874,0 16.351842,7.32097 16.351842,16.35184 z"
         sodipodi:ry="16.351845"
         sodipodi:rx="16.351845"
         sodipodi:cy="442.48889"
         sodipodi:cx="88.072678"
         id="path3849"
         style="color:#000000;fill:#000000;fill-opacity:0.19607843;fill-rule:nonzero;stroke:none;stroke-width:4;marker:none;visibility:visible;display:inline;overflow:visible;enable-background:accumulate"
         sodipodi:type="arc" />
      <path
         transform="matrix(0.98823526,0,0,0.98461538,142.27088,240.26107)"
         d="m 91.607142,442.55804 c 0,3.36549 -2.718271,6.09375 -6.071429,6.09375 -3.353157,0 -6.071429,-2.72826 -6.071429,-6.09375 0,-3.36548 2.718272,-6.09375 6.071429,-6.09375 3.353158,0 6.071429,2.72827 6.071429,6.09375 z"
         sodipodi:ry="6.09375"
         sodipodi:rx="6.0714288"
         sodipodi:cy="442.55804"
         sodipodi:cx="85.535713"
         id="path3847"
         style="color:#000000;fill:#ffffff;fill-opacity:1;fill-rule:nonzero;stroke:none;stroke-width:4;marker:none;visibility:visible;display:inline;overflow:visible;enable-background:accumulate"
         sodipodi:type="arc" />
      <path
         transform="matrix(0.86100387,0,0,0.86100387,197.40522,248.69055)"
         d="m 104.42452,442.48889 c 0,9.03088 -7.320968,16.35185 -16.351842,16.35185 -9.030875,0 -16.351845,-7.32097 -16.351845,-16.35185 0,-9.03087 7.32097,-16.35184 16.351845,-16.35184 9.030874,0 16.351842,7.32097 16.351842,16.35184 z"
         sodipodi:ry="16.351845"
         sodipodi:rx="16.351845"
         sodipodi:cy="442.48889"
         sodipodi:cx="88.072678"
         id="path3849-7"
         style="color:#000000;fill:#000000;fill-opacity:0.19607843;fill-rule:nonzero;stroke:none;stroke-width:4;marker:none;visibility:visible;display:inline;overflow:visible;enable-background:accumulate"
         sodipodi:type="arc" />
      <path
         transform="matrix(0.98823526,0,0,0.98461538,188.70673,193.92574)"
         d="m 91.607142,442.55804 c 0,3.36549 -2.718271,6.09375 -6.071429,6.09375 -3.353157,0 -6.071429,-2.72826 -6.071429,-6.09375 0,-3.36548 2.718272,-6.09375 6.071429,-6.09375 3.353158,0 6.071429,2.72827 6.071429,6.09375 z"
         sodipodi:ry="6.09375"
         sodipodi:rx="6.0714288"
         sodipodi:cy="442.55804"
         sodipodi:cx="85.535713"
         id="path3847-1"
         style="color:#000000;fill:#ffffff;fill-opacity:1;fill-rule:nonzero;stroke:none;stroke-width:4;marker:none;visibility:visible;display:inline;overflow:visible;enable-background:accumulate"
         sodipodi:type="arc" />
      <path
         transform="matrix(0.86100387,0,0,0.86100387,245.48848,201.31441)"
         d="m 104.42452,442.48889 c 0,9.03088 -7.320968,16.35185 -16.351842,16.35185 -9.030875,0 -16.351845,-7.32097 -16.351845,-16.35185 0,-9.03087 7.32097,-16.35184 16.351845,-16.35184 9.030874,0 16.351842,7.32097 16.351842,16.35184 z"
         sodipodi:ry="16.351845"
         sodipodi:rx="16.351845"
         sodipodi:cy="442.48889"
         sodipodi:cx="88.072678"
         id="path3849-77"
         style="color:#000000;fill:#000000;fill-opacity:0.19607843;fill-rule:nonzero;stroke:none;stroke-width:4;marker:none;visibility:visible;display:inline;overflow:visible;enable-background:accumulate"
         sodipodi:type="arc" />
      <path
         transform="matrix(0.98823526,0,0,0.98461538,236.78999,146.5496)"
         d="m 91.607142,442.55804 c 0,3.36549 -2.718271,6.09375 -6.071429,6.09375 -3.353157,0 -6.071429,-2.72826 -6.071429,-6.09375 0,-3.36548 2.718272,-6.09375 6.071429,-6.09375 3.353158,0 6.071429,2.72827 6.071429,6.09375 z"
         sodipodi:ry="6.09375"
         sodipodi:rx="6.0714288"
         sodipodi:cy="442.55804"
         sodipodi:cx="85.535713"
         id="path3847-6"
         style="color:#000000;fill:#ffffff;fill-opacity:1;fill-rule:nonzero;stroke:none;stroke-width:4;marker:none;visibility:visible;display:inline;overflow:visible;enable-background:accumulate"
         sodipodi:type="arc" />
    </g>
    <path
       style="fill:#ffffff;fill-opacity:0.3137255;stroke:none"
       d="M 434.46875 16.5 L 167.71875 283 L 229.71875 348.5 L 235.40625 342.8125 L 186.125 290.78125 L 452.875 24.28125 L 497.21875 24.28125 L 497.21875 16.5 L 434.46875 16.5 z "
       transform="translate(236,121.50504)"
       id="path4671-7" />
    <path
       style="fill:#4d4d4d;stroke:none"
       d="m 351.69298,388.30015 -5.12653,-69.29646 51.26534,-1.23744 21.0364,19.62221 -27.754,13.78859 24.3952,55.86143 46.8458,2.2981 0,47.37615 55.1544,19.09189 9.8995,-28.81461 23.1577,23.33453 0,57.80598 -65.0538,-6.01041 z"
       id="path4598"
       inkscape:connector-curvature="0"
       sodipodi:nodetypes="cccccccccccccc" />
    <path
       style="fill:#1a1a1a;stroke:none"
       d="m 397.73045,313.22379 -51.25,1.21875 a 4.5705063,4.5705063 0 0 0 -4.46875,4.90625 l 5.125,69.3125 a 4.5705063,4.5705063 0 0 0 1.34375,2.875 l 133.8125,133.8125 a 4.5705063,4.5705063 0 0 0 2.8125,1.34375 l 65.0625,6 a 4.5705063,4.5705063 0 0 0 4.96875,-4.5625 l 0,-57.8125 a 4.5705063,4.5705063 0 0 0 -1.3125,-3.21875 l -23.15625,-23.3125 a 4.5705063,4.5705063 0 0 0 -7.5625,1.71875 l -8.4375,24.5 -47.75,-16.53125 0,-44.125 a 4.5705063,4.5705063 0 0 0 -4.34375,-4.5625 l -44,-2.1875 -21.53125,-49.25 23.84375,-11.875 a 4.5705063,4.5705063 0 0 0 1.09375,-7.4375 L 400.9492,314.44254 a 4.5705063,4.5705063 0 0 0 -3.21875,-1.21875 z m 0.0937,4.53125 21.03125,19.625 -27.75,13.8125 24.40625,55.84375 46.84375,2.3125 0,47.375 55.15625,19.09375 9.90625,-28.8125 23.15625,23.3125 0,57.8125 -65.0625,-6 -133.8125,-133.84375 -5.125,-69.28125 51.25,-1.25 z"
       id="path4618"
       inkscape:connector-curvature="0" />
    <path
       style="fill:#000000;fill-opacity:0.31372549;stroke:none"
       d="m 397.8242,317.75504 -51.25,1.25 5.125,69.28125 133.8125,133.84375 65.0625,6 0,-57.8125 -23.15625,-23.3125 -9.90625,28.8125 -55.15625,-19.09375 0,-47.375 -46.84375,-2.3125 -24.40625,-55.84375 27.75,-13.8125 -21.03125,-19.625 z m -4.4375,11.6875 5.4375,5.03125 -12.84375,6.40625 a 11.532403,11.532403 0 0 0 -5.4375,14.9375 l 24.40625,55.84375 a 11.532403,11.532403 0 0 0 10,6.90625 l 35.875,1.78125 0,36.375 a 11.532403,11.532403 0 0 0 7.75,10.90625 l 55.15625,19.09375 a 11.532403,11.532403 0 0 0 14.6875,-7.15625 l 3.875,-11.28125 6.75,6.78125 0,40.4375 -48.3125,-4.46875 -127.84375,-127.84375 -3.90625,-52.9375 34.40625,-0.8125 z"
       id="path4598-0"
       inkscape:connector-curvature="0" />
    <path
       style="fill:#000000;fill-opacity:0.31372549;stroke:none"
       d="m 396.3867,348.56754 -38.8125,0.9375 3.5625,48.21875 124.375,124.40625 65.0625,6 0,-38.375 -12.15625,-12.25 -9.90625,28.8125 -55.15625,-19.09375 0,-26.6875 -11,-3.8125 0,-17.40625 -35.84375,-1.78125 -24.40625,-55.84375 1.90625,-0.9375 -12.90625,-29.5625 5.28125,-2.625 z"
       id="path4598-3"
       inkscape:connector-curvature="0" />
  </g>
</svg>
