<?xml version="1.0" encoding="UTF-8" standalone="no"?>
<!-- Created with Inkscape (http://www.inkscape.org/) -->

<svg
   xmlns:dc="http://purl.org/dc/elements/1.1/"
   xmlns:cc="http://creativecommons.org/ns#"
   xmlns:rdf="http://www.w3.org/1999/02/22-rdf-syntax-ns#"
   xmlns:svg="http://www.w3.org/2000/svg"
   xmlns="http://www.w3.org/2000/svg"
   xmlns:sodipodi="http://sodipodi.sourceforge.net/DTD/sodipodi-0.dtd"
   xmlns:inkscape="http://www.inkscape.org/namespaces/inkscape"
   width="512"
   height="512"
   id="svg2"
   version="1.1"
   inkscape:version="0.48.4 r9939"
   sodipodi:docname="OsmiumHoe.svg">
  <defs
     id="defs4" />
  <sodipodi:namedview
     id="base"
     pagecolor="#ffffff"
     bordercolor="#666666"
     borderopacity="1.0"
     inkscape:pageopacity="0.0"
     inkscape:pageshadow="2"
     inkscape:zoom="0.70710678"
     inkscape:cx="167.99437"
     inkscape:cy="261.3332"
     inkscape:document-units="px"
     inkscape:current-layer="g3842"
     showgrid="false"
     fit-margin-top="0"
     fit-margin-left="0"
     fit-margin-right="0"
     fit-margin-bottom="0"
     inkscape:window-width="1301"
     inkscape:window-height="744"
     inkscape:window-x="65"
     inkscape:window-y="24"
     inkscape:window-maximized="1">
    <inkscape:grid
       type="xygrid"
       id="grid3096"
       empspacing="8"
       visible="true"
       enabled="true"
       snapvisiblegridlinesonly="true" />
  </sodipodi:namedview>
  <metadata
     id="metadata7">
    <rdf:RDF>
      <cc:Work
         rdf:about="">
        <dc:format>image/svg+xml</dc:format>
        <dc:type
           rdf:resource="http://purl.org/dc/dcmitype/StillImage" />
        <dc:title></dc:title>
      </cc:Work>
    </rdf:RDF>
  </metadata>
  <g
     inkscape:label="Layer 1"
     inkscape:groupmode="layer"
     id="layer1"
     transform="translate(-236,-121.50504)">
    <g
       id="g4000"
       transform="translate(4.7695502,0)">
      <path
         sodipodi:nodetypes="ccccc"
         transform="translate(236,121.50504)"
         inkscape:connector-curvature="0"
         id="path3034"
         d="M 318.5719,190.57181 60.714285,449.14286 95.382524,483.34191 352.815,225.98219 z"
         style="fill:#5a4829;fill-opacity:1;stroke:none" />
      <path
         id="path3034-6"
         transform="translate(236,121.50504)"
         d="M 318.5633,190.56288 60.71875,449.15625 95.375,483.34375 352.8133,225.96913 z m -0.0937,11.1875 23.3125,24.15625 L 95.3125,472.28125 71.84375,449.125 z"
         style="fill:#000000;fill-opacity:0.2745098;stroke:none"
         inkscape:connector-curvature="0"
         sodipodi:nodetypes="cccccccccc" />
      <path
         id="path3034-2"
         transform="translate(236,121.50504)"
         d="M 337.75095,210.7815 80.53125,468.71875 95.375,483.34375 352.62595,226.1565 z"
         style="fill:#000000;fill-opacity:0.19607843;stroke:none"
         inkscape:connector-curvature="0"
         sodipodi:nodetypes="ccccc" />
    </g>
    <g
       transform="translate(91.73272,-88.334195)"
       id="g3042">
      <rect
         transform="matrix(0.70710678,-0.70710678,0.70710678,0.70710678,0,0)"
         y="613.81476"
         x="-286.18637"
         height="49.279358"
         width="156.29126"
         id="rect3879-0"
         style="color:#000000;fill:#a03b35;fill-opacity:1;fill-rule:nonzero;stroke:#2f0a09;stroke-width:3.66199994;stroke-opacity:1;marker:none;visibility:visible;display:inline;overflow:visible;enable-background:accumulate" />
      <path
         inkscape:connector-curvature="0"
         id="rect3879-0-0"
         d="m 342.58429,527.99833 -108.40126,108.40126 32.31749,32.31749 108.40126,-108.40126 -32.31749,-32.31749 z m -2.40569,15.6805 19.27455,19.27456 -93.44536,93.41638 -19.27456,-19.24557 93.44537,-93.44537 z"
         style="color:#000000;fill:#000000;fill-opacity:0.39215686;fill-rule:nonzero;stroke:none;stroke-width:3.66199994;marker:none;visibility:visible;display:inline;overflow:visible;enable-background:accumulate" />
      <path
         inkscape:connector-curvature="0"
         transform="translate(141.71428,232.93361)"
         id="rect3879-0-3"
         d="M 210.375,315.9375 106.40625,419.90625 124.8125,438.3125 228.78125,334.34375 210.375,315.9375 z"
         style="color:#000000;fill:#000000;fill-opacity:0.19607843;fill-rule:nonzero;stroke:none;stroke-width:3.66199994;marker:none;visibility:visible;display:inline;overflow:visible;enable-background:accumulate" />
      <g
         transform="translate(166.07158,38.571428)"
         id="g3842">
        <path
           sodipodi:type="star"
           style="color:#000000;fill:#4d4d4d;fill-opacity:1;fill-rule:nonzero;stroke:#000000;stroke-width:4.00009775000000012;stroke-miterlimit:4;stroke-opacity:1;stroke-dasharray:none;marker:none;visibility:visible;display:inline;overflow:visible;enable-background:accumulate"
           id="path2997-8"
           sodipodi:sides="5"
           sodipodi:cx="82.327431"
           sodipodi:cy="447.09769"
           sodipodi:r1="45.678699"
           sodipodi:r2="39.67952"
           sodipodi:arg1="-1.4265537"
           sodipodi:arg2="-0.79823514"
           inkscape:flatsided="true"
           inkscape:rounded="0"
           inkscape:randomized="0"
           d="m 88.893422,401.89336 38.454888,37.48005 -23.76244,48.15474 -53.140876,-7.71879 -9.080432,-52.92521 z"
           transform="matrix(0.91547764,0,0,0.91547764,-16.315632,231.3782)"
           inkscape:transform-center-x="1.1317962"
           inkscape:transform-center-y="-0.87702664" />
        <path
           inkscape:connector-curvature="0"
           style="color:#000000;fill:#000000;fill-opacity:0.35686275;fill-rule:nonzero;stroke:none;stroke-width:4;marker:none;visibility:visible;display:inline;overflow:visible;enable-background:accumulate"
           d="m 65.06473,599.30801 -43.51379,22.88694 8.32512,48.43449 48.63475,7.06634 21.7712,-44.08597 -35.21728,-34.3018 z m -2.28869,15.73477 21.82842,21.25625 -13.47469,27.32128 -30.18215,-4.37713 -5.14956,-30.03911 26.97798,-14.16129 z"
           id="path2997-8-46" />
        <path
           inkscape:connector-curvature="0"
           id="path2997-8-7"
           d="m 71.0487,630.54968 -43.5,22.875 2.96875,17.3125 48,6.96875 13.28125,-26.9375 -20.75,-20.21875 z"
           style="color:#000000;fill:#000000;fill-opacity:0.3137255;fill-rule:nonzero;stroke:none;stroke-width:4;marker:none;visibility:visible;display:inline;overflow:visible;enable-background:accumulate" />
      </g>
      <path
         transform="matrix(0.86100387,0,0,0.86100387,150.96937,295.02588)"
         d="m 104.42452,442.48889 c 0,9.03088 -7.320968,16.35185 -16.351842,16.35185 -9.030875,0 -16.351845,-7.32097 -16.351845,-16.35185 0,-9.03087 7.32097,-16.35184 16.351845,-16.35184 9.030874,0 16.351842,7.32097 16.351842,16.35184 z"
         sodipodi:ry="16.351845"
         sodipodi:rx="16.351845"
         sodipodi:cy="442.48889"
         sodipodi:cx="88.072678"
         id="path3849"
         style="color:#000000;fill:#000000;fill-opacity:0.19607843;fill-rule:nonzero;stroke:none;stroke-width:4;marker:none;visibility:visible;display:inline;overflow:visible;enable-background:accumulate"
         sodipodi:type="arc" />
      <path
         transform="matrix(0.98823526,0,0,0.98461538,142.27088,240.26107)"
         d="m 91.607142,442.55804 c 0,3.36549 -2.718271,6.09375 -6.071429,6.09375 -3.353157,0 -6.071429,-2.72826 -6.071429,-6.09375 0,-3.36548 2.718272,-6.09375 6.071429,-6.09375 3.353158,0 6.071429,2.72827 6.071429,6.09375 z"
         sodipodi:ry="6.09375"
         sodipodi:rx="6.0714288"
         sodipodi:cy="442.55804"
         sodipodi:cx="85.535713"
         id="path3847"
         style="color:#000000;fill:#ffffff;fill-opacity:1;fill-rule:nonzero;stroke:none;stroke-width:4;marker:none;visibility:visible;display:inline;overflow:visible;enable-background:accumulate"
         sodipodi:type="arc" />
      <path
         transform="matrix(0.86100387,0,0,0.86100387,197.40522,248.69055)"
         d="m 104.42452,442.48889 c 0,9.03088 -7.320968,16.35185 -16.351842,16.35185 -9.030875,0 -16.351845,-7.32097 -16.351845,-16.35185 0,-9.03087 7.32097,-16.35184 16.351845,-16.35184 9.030874,0 16.351842,7.32097 16.351842,16.35184 z"
         sodipodi:ry="16.351845"
         sodipodi:rx="16.351845"
         sodipodi:cy="442.48889"
         sodipodi:cx="88.072678"
         id="path3849-7"
         style="color:#000000;fill:#000000;fill-opacity:0.19607843;fill-rule:nonzero;stroke:none;stroke-width:4;marker:none;visibility:visible;display:inline;overflow:visible;enable-background:accumulate"
         sodipodi:type="arc" />
      <path
         transform="matrix(0.98823526,0,0,0.98461538,188.70673,193.92574)"
         d="m 91.607142,442.55804 c 0,3.36549 -2.718271,6.09375 -6.071429,6.09375 -3.353157,0 -6.071429,-2.72826 -6.071429,-6.09375 0,-3.36548 2.718272,-6.09375 6.071429,-6.09375 3.353158,0 6.071429,2.72827 6.071429,6.09375 z"
         sodipodi:ry="6.09375"
         sodipodi:rx="6.0714288"
         sodipodi:cy="442.55804"
         sodipodi:cx="85.535713"
         id="path3847-1"
         style="color:#000000;fill:#ffffff;fill-opacity:1;fill-rule:nonzero;stroke:none;stroke-width:4;marker:none;visibility:visible;display:inline;overflow:visible;enable-background:accumulate"
         sodipodi:type="arc" />
      <path
         transform="matrix(0.86100387,0,0,0.86100387,245.48848,201.31441)"
         d="m 104.42452,442.48889 c 0,9.03088 -7.320968,16.35185 -16.351842,16.35185 -9.030875,0 -16.351845,-7.32097 -16.351845,-16.35185 0,-9.03087 7.32097,-16.35184 16.351845,-16.35184 9.030874,0 16.351842,7.32097 16.351842,16.35184 z"
         sodipodi:ry="16.351845"
         sodipodi:rx="16.351845"
         sodipodi:cy="442.48889"
         sodipodi:cx="88.072678"
         id="path3849-77"
         style="color:#000000;fill:#000000;fill-opacity:0.19607843;fill-rule:nonzero;stroke:none;stroke-width:4;marker:none;visibility:visible;display:inline;overflow:visible;enable-background:accumulate"
         sodipodi:type="arc" />
      <path
         transform="matrix(0.98823526,0,0,0.98461538,236.78999,146.5496)"
         d="m 91.607142,442.55804 c 0,3.36549 -2.718271,6.09375 -6.071429,6.09375 -3.353157,0 -6.071429,-2.72826 -6.071429,-6.09375 0,-3.36548 2.718272,-6.09375 6.071429,-6.09375 3.353158,0 6.071429,2.72827 6.071429,6.09375 z"
         sodipodi:ry="6.09375"
         sodipodi:rx="6.0714288"
         sodipodi:cy="442.55804"
         sodipodi:cx="85.535713"
         id="path3847-6"
         style="color:#000000;fill:#ffffff;fill-opacity:1;fill-rule:nonzero;stroke:none;stroke-width:4;marker:none;visibility:visible;display:inline;overflow:visible;enable-background:accumulate"
         sodipodi:type="arc" />
    </g>
    <path
       style="fill:#4d4d4d;fill-opacity:1;stroke:none"
       d="m 491,309.50504 64.5,-178.5 44.5,1.5 111.5,115 0,27.5 -190,71.5 z"
       id="path3047"
       inkscape:connector-curvature="0"
       sodipodi:nodetypes="ccccccc" />
    <path
       style="fill:#1a1a1a;fill-opacity:1;stroke:none"
       d="M 319.0625 2.84375 A 6.6720109 6.6720109 0 0 0 313.21875 7.21875 L 248.71875 185.71875 A 6.6720109 6.6720109 0 0 0 249.84375 192.25 L 280.34375 229.25 A 6.6720109 6.6720109 0 0 0 287.84375 231.25 L 477.84375 159.75 A 6.6720109 6.6720109 0 0 0 482.15625 153.5 L 482.15625 126 A 6.6720109 6.6720109 0 0 0 480.28125 121.34375 L 368.78125 6.34375 A 6.6720109 6.6720109 0 0 0 364.21875 4.34375 L 319.71875 2.84375 A 6.6720109 6.6720109 0 0 0 319.0625 2.84375 z M 319.5 9.5 L 364 11 L 475.5 126 L 475.5 153.5 L 285.5 225 L 255 188 L 319.5 9.5 z "
       transform="translate(236,121.50504)"
       id="path3067" />
    <path
       style="fill:#000000;fill-opacity:0.19607843;stroke:none"
       d="M 319.5 9.5 L 255 188 L 285.5 225 L 475.5 153.5 L 475.5 126 L 364 11 L 319.5 9.5 z M 329.46875 24.21875 L 357.75 25.1875 L 461.125 131.8125 L 461.125 143.53125 L 290.0625 207.90625 L 271.3125 185.1875 L 329.46875 24.21875 z "
       transform="translate(236,121.50504)"
       id="path3047-0" />
    <path
       style="fill:#000000;stroke:none;stroke-width:1px;stroke-linecap:butt;stroke-linejoin:miter;stroke-opacity:1;fill-opacity:0.3137255"
       d="M 406.8125 55.15625 L 417 138 L 260.40625 194.5625 L 285.5 225 L 475.5 153.5 L 475.5 126 L 406.8125 55.15625 z "
       transform="translate(236,121.50504)"
       id="path3873" />
    <path
       style="fill:#ffffff;fill-opacity:0.3137255;stroke:none"
       d="M 319.5 9.5 L 303.96875 52.53125 L 377.4375 24.875 L 364 11 L 319.5 9.5 z "
       transform="translate(236,121.50504)"
       id="path3047-6" />
    <path
       style="fill:#4d4d4d;fill-opacity:1;stroke:none"
       d="m 484,307.50504 56.5,61.5 49,-61 z"
       id="path3909"
       inkscape:connector-curvature="0"
       sodipodi:nodetypes="cccc" />
    <path
       style="fill:#1a1a1a;fill-opacity:1;stroke:none"
       d="M 248.03125 180.75 A 5.2415839 5.2415839 0 0 0 244.125 189.53125 L 300.625 251.03125 A 5.2415839 5.2415839 0 0 0 308.59375 250.78125 L 357.59375 189.78125 A 5.2415839 5.2415839 0 0 0 353.53125 181.25 L 248.03125 180.75 z M 248 186 L 353.5 186.5 L 304.5 247.5 L 248 186 z "
       transform="translate(236,121.50504)"
       id="path3929" />
    <path
       style="fill:#000000;fill-opacity:0.19607843;stroke:none"
       d="M 248 186 L 304.5 247.5 L 353.5 186.5 L 248 186 z M 265.5625 193.78125 L 337.53125 194.125 L 304.09375 235.71875 L 265.5625 193.78125 z "
       transform="translate(236,121.50504)"
       id="path3909-4" />
    <path
       style="fill:#4d4d4d;fill-opacity:1;stroke:none"
       d="m 506,399.00504 29.5,-85.5 46,-27.5 38,37 -23.5,48 z"
       id="path3983"
       inkscape:connector-curvature="0" />
    <path
       style="fill:#1a1a1a;fill-opacity:1;stroke:none"
       d="M 345.34375 158.6875 A 5.805906 5.805906 0 0 0 342.53125 159.53125 L 296.53125 187.03125 A 5.805906 5.805906 0 0 0 294 190.09375 L 264.5 275.59375 A 5.805906 5.805906 0 0 0 271.71875 283.03125 L 361.71875 255.03125 A 5.805906 5.805906 0 0 0 365.21875 252.0625 L 388.71875 204.0625 A 5.805906 5.805906 0 0 0 387.5625 197.34375 L 349.5625 160.34375 A 5.805906 5.805906 0 0 0 345.34375 158.6875 z M 345.5 164.5 L 383.5 201.5 L 360 249.5 L 270 277.5 L 299.5 192 L 345.5 164.5 z "
       transform="translate(236,121.50504)"
       id="path4003" />
    <path
       style="fill:#000000;fill-opacity:0.19607843;stroke:none"
       d="M 345.5 164.5 L 299.5 192 L 270 277.5 L 360 249.5 L 383.5 201.5 L 345.5 164.5 z M 343.53125 181.09375 L 367.40625 204.3125 L 350.65625 238.53125 L 291.03125 257.0625 L 310.40625 200.90625 L 343.53125 181.09375 z "
       transform="translate(236,121.50504)"
       id="path3983-9" />
    <path
       style="fill:#000000;fill-opacity:0.07843138;stroke:none"
       d="M 352.5625 195.625 L 306.5625 223.125 L 289.9375 271.28125 L 360 249.5 L 375.46875 217.90625 L 352.5625 195.625 z "
       transform="translate(236,121.50504)"
       id="path3983-0" />
    <rect
       style="color:#000000;fill:#4d4d4d;fill-opacity:1;fill-rule:nonzero;stroke:none;stroke-width:4;marker:none;visibility:visible;display:inline;overflow:visible;enable-background:accumulate"
       id="rect4052"
       width="32"
       height="32"
       x="552"
       y="325.50507" />
    <path
       style="color:#000000;fill:#1a1a1a;fill-opacity:1;fill-rule:nonzero;stroke:none;stroke-width:4;marker:none;visibility:visible;display:inline;overflow:visible;enable-background:accumulate"
       d="M 316 199.5 A 4.50045 4.50045 0 0 0 311.5 204 L 311.5 236 A 4.50045 4.50045 0 0 0 316 240.5 L 348 240.5 A 4.50045 4.50045 0 0 0 352.5 236 L 352.5 204 A 4.50045 4.50045 0 0 0 348 199.5 L 316 199.5 z M 316 204 L 348 204 L 348 236 L 316 236 L 316 204 z "
       transform="translate(236,121.50504)"
       id="path4072" />
    <path
       style="color:#000000;fill:#000000;fill-opacity:0.19607843;fill-rule:nonzero;stroke:none;stroke-width:4;marker:none;visibility:visible;display:inline;overflow:visible;enable-background:accumulate"
       d="M 316 204 L 316 236 L 348 236 L 348 204 L 316 204 z M 328.1875 216.1875 L 335.8125 216.1875 L 335.8125 223.8125 L 328.1875 223.8125 L 328.1875 216.1875 z "
       transform="translate(236,121.50504)"
       id="rect4052-3" />
    <path
       style="color:#000000;fill:#000000;fill-opacity:0.3137255;fill-rule:nonzero;stroke:none;stroke-width:4;marker:none;visibility:visible;display:inline;overflow:visible;enable-background:accumulate"
       d="M 328.71875 226.28125 L 328.71875 236 L 348 236 L 348 226.28125 L 328.71875 226.28125 z "
       transform="translate(236,121.50504)"
       id="rect4052-8" />
  </g>
</svg>
