<?xml version="1.0" encoding="UTF-8" standalone="no"?>
<!-- Created with Inkscape (http://www.inkscape.org/) -->

<svg
   xmlns:dc="http://purl.org/dc/elements/1.1/"
   xmlns:cc="http://creativecommons.org/ns#"
   xmlns:rdf="http://www.w3.org/1999/02/22-rdf-syntax-ns#"
   xmlns:svg="http://www.w3.org/2000/svg"
   xmlns="http://www.w3.org/2000/svg"
   xmlns:sodipodi="http://sodipodi.sourceforge.net/DTD/sodipodi-0.dtd"
   xmlns:inkscape="http://www.inkscape.org/namespaces/inkscape"
   width="512"
   height="512"
   id="svg2"
   version="1.1"
   inkscape:version="0.48.4 r9939"
   sodipodi:docname="SteelHoe.svg">
  <defs
     id="defs4" />
  <sodipodi:namedview
     id="base"
     pagecolor="#ffffff"
     bordercolor="#666666"
     borderopacity="1.0"
     inkscape:pageopacity="0.0"
     inkscape:pageshadow="2"
     inkscape:zoom="0.70710678"
     inkscape:cx="335.49672"
     inkscape:cy="314.21879"
     inkscape:document-units="px"
     inkscape:current-layer="layer1"
     showgrid="false"
     fit-margin-top="0"
     fit-margin-left="0"
     fit-margin-right="0"
     fit-margin-bottom="0"
     inkscape:window-width="1301"
     inkscape:window-height="744"
     inkscape:window-x="65"
     inkscape:window-y="24"
     inkscape:window-maximized="1">
    <inkscape:grid
       type="xygrid"
       id="grid3096"
       empspacing="8"
       visible="true"
       enabled="true"
       snapvisiblegridlinesonly="true" />
  </sodipodi:namedview>
  <metadata
     id="metadata7">
    <rdf:RDF>
      <cc:Work
         rdf:about="">
        <dc:format>image/svg+xml</dc:format>
        <dc:type
           rdf:resource="http://purl.org/dc/dcmitype/StillImage" />
        <dc:title></dc:title>
      </cc:Work>
    </rdf:RDF>
  </metadata>
  <g
     inkscape:label="Layer 1"
     inkscape:groupmode="layer"
     id="layer1"
     transform="translate(-236,-121.50504)">
    <g
       id="g4000"
       transform="translate(4.7695502,0)">
      <path
         sodipodi:nodetypes="ccccc"
         transform="translate(236,121.50504)"
         inkscape:connector-curvature="0"
         id="path3034"
         d="M 418.5719,90.57181 60.714285,449.14286 95.382524,483.34191 452.815,125.98219 z"
         style="fill:#5a4829;fill-opacity:1;stroke:none" />
      <path
         id="path3034-6"
         transform="translate(236,121.50504)"
         d="M 418.5633,90.562875 60.71875,449.15625 95.375,483.34375 452.8133,125.96913 z m -0.0937,11.187505 23.3125,24.15625 L 95.3125,472.28125 71.84375,449.125 z"
         style="fill:#000000;fill-opacity:0.2745098;stroke:none"
         inkscape:connector-curvature="0"
         sodipodi:nodetypes="cccccccccc" />
      <path
         id="path3034-2"
         transform="translate(236,121.50504)"
         d="M 437.75095,110.7815 80.53125,468.71875 95.375,483.34375 452.62595,126.1565 z"
         style="fill:#000000;fill-opacity:0.19607843;stroke:none"
         inkscape:connector-curvature="0"
         sodipodi:nodetypes="ccccc" />
    </g>
    <g
       transform="translate(91.73272,-88.334195)"
       id="g3042">
      <rect
         transform="matrix(0.70710678,-0.70710678,0.70710678,0.70710678,0,0)"
         y="613.81476"
         x="-286.18637"
         height="49.279358"
         width="156.29126"
         id="rect3879-0"
         style="color:#000000;fill:#a03b35;fill-opacity:1;fill-rule:nonzero;stroke:#2f0a09;stroke-width:3.66199994;stroke-opacity:1;marker:none;visibility:visible;display:inline;overflow:visible;enable-background:accumulate" />
      <path
         inkscape:connector-curvature="0"
         id="rect3879-0-0"
         d="m 342.58429,527.99833 -108.40126,108.40126 32.31749,32.31749 108.40126,-108.40126 -32.31749,-32.31749 z m -2.40569,15.6805 19.27455,19.27456 -93.44536,93.41638 -19.27456,-19.24557 93.44537,-93.44537 z"
         style="color:#000000;fill:#000000;fill-opacity:0.39215686;fill-rule:nonzero;stroke:none;stroke-width:3.66199994;marker:none;visibility:visible;display:inline;overflow:visible;enable-background:accumulate" />
      <path
         inkscape:connector-curvature="0"
         transform="translate(141.71428,232.93361)"
         id="rect3879-0-3"
         d="M 210.375,315.9375 106.40625,419.90625 124.8125,438.3125 228.78125,334.34375 210.375,315.9375 z"
         style="color:#000000;fill:#000000;fill-opacity:0.19607843;fill-rule:nonzero;stroke:none;stroke-width:3.66199994;marker:none;visibility:visible;display:inline;overflow:visible;enable-background:accumulate" />
      <g
         transform="translate(166.07158,38.571428)"
         id="g3842">
        <path
           sodipodi:type="star"
           style="color:#000000;fill:#4d4d4d;fill-opacity:1;fill-rule:nonzero;stroke:#000000;stroke-width:4.00009775000000012;stroke-miterlimit:4;stroke-opacity:1;stroke-dasharray:none;marker:none;visibility:visible;display:inline;overflow:visible;enable-background:accumulate"
           id="path2997-8"
           sodipodi:sides="5"
           sodipodi:cx="82.327431"
           sodipodi:cy="447.09769"
           sodipodi:r1="45.678699"
           sodipodi:r2="39.67952"
           sodipodi:arg1="-1.4265537"
           sodipodi:arg2="-0.79823514"
           inkscape:flatsided="true"
           inkscape:rounded="0"
           inkscape:randomized="0"
           d="m 88.893422,401.89336 38.454888,37.48005 -23.76244,48.15474 -53.140876,-7.71879 -9.080432,-52.92521 z"
           transform="matrix(0.91547764,0,0,0.91547764,-16.315632,231.3782)"
           inkscape:transform-center-x="1.1317962"
           inkscape:transform-center-y="-0.87702664" />
        <path
           inkscape:connector-curvature="0"
           style="color:#000000;fill:#000000;fill-opacity:0.35686275;fill-rule:nonzero;stroke:none;stroke-width:4;marker:none;visibility:visible;display:inline;overflow:visible;enable-background:accumulate"
           d="m 65.06473,599.30801 -43.51379,22.88694 8.32512,48.43449 48.63475,7.06634 21.7712,-44.08597 -35.21728,-34.3018 z m -2.28869,15.73477 21.82842,21.25625 -13.47469,27.32128 -30.18215,-4.37713 -5.14956,-30.03911 26.97798,-14.16129 z"
           id="path2997-8-46" />
        <path
           inkscape:connector-curvature="0"
           id="path2997-8-7"
           d="m 71.0487,630.54968 -43.5,22.875 2.96875,17.3125 48,6.96875 13.28125,-26.9375 -20.75,-20.21875 z"
           style="color:#000000;fill:#000000;fill-opacity:0.3137255;fill-rule:nonzero;stroke:none;stroke-width:4;marker:none;visibility:visible;display:inline;overflow:visible;enable-background:accumulate" />
      </g>
      <path
         transform="matrix(0.86100387,0,0,0.86100387,150.96937,295.02588)"
         d="m 104.42452,442.48889 c 0,9.03088 -7.320968,16.35185 -16.351842,16.35185 -9.030875,0 -16.351845,-7.32097 -16.351845,-16.35185 0,-9.03087 7.32097,-16.35184 16.351845,-16.35184 9.030874,0 16.351842,7.32097 16.351842,16.35184 z"
         sodipodi:ry="16.351845"
         sodipodi:rx="16.351845"
         sodipodi:cy="442.48889"
         sodipodi:cx="88.072678"
         id="path3849"
         style="color:#000000;fill:#000000;fill-opacity:0.19607843;fill-rule:nonzero;stroke:none;stroke-width:4;marker:none;visibility:visible;display:inline;overflow:visible;enable-background:accumulate"
         sodipodi:type="arc" />
      <path
         transform="matrix(0.98823526,0,0,0.98461538,142.27088,240.26107)"
         d="m 91.607142,442.55804 c 0,3.36549 -2.718271,6.09375 -6.071429,6.09375 -3.353157,0 -6.071429,-2.72826 -6.071429,-6.09375 0,-3.36548 2.718272,-6.09375 6.071429,-6.09375 3.353158,0 6.071429,2.72827 6.071429,6.09375 z"
         sodipodi:ry="6.09375"
         sodipodi:rx="6.0714288"
         sodipodi:cy="442.55804"
         sodipodi:cx="85.535713"
         id="path3847"
         style="color:#000000;fill:#ffffff;fill-opacity:1;fill-rule:nonzero;stroke:none;stroke-width:4;marker:none;visibility:visible;display:inline;overflow:visible;enable-background:accumulate"
         sodipodi:type="arc" />
      <path
         transform="matrix(0.86100387,0,0,0.86100387,197.40522,248.69055)"
         d="m 104.42452,442.48889 c 0,9.03088 -7.320968,16.35185 -16.351842,16.35185 -9.030875,0 -16.351845,-7.32097 -16.351845,-16.35185 0,-9.03087 7.32097,-16.35184 16.351845,-16.35184 9.030874,0 16.351842,7.32097 16.351842,16.35184 z"
         sodipodi:ry="16.351845"
         sodipodi:rx="16.351845"
         sodipodi:cy="442.48889"
         sodipodi:cx="88.072678"
         id="path3849-7"
         style="color:#000000;fill:#000000;fill-opacity:0.19607843;fill-rule:nonzero;stroke:none;stroke-width:4;marker:none;visibility:visible;display:inline;overflow:visible;enable-background:accumulate"
         sodipodi:type="arc" />
      <path
         transform="matrix(0.98823526,0,0,0.98461538,188.70673,193.92574)"
         d="m 91.607142,442.55804 c 0,3.36549 -2.718271,6.09375 -6.071429,6.09375 -3.353157,0 -6.071429,-2.72826 -6.071429,-6.09375 0,-3.36548 2.718272,-6.09375 6.071429,-6.09375 3.353158,0 6.071429,2.72827 6.071429,6.09375 z"
         sodipodi:ry="6.09375"
         sodipodi:rx="6.0714288"
         sodipodi:cy="442.55804"
         sodipodi:cx="85.535713"
         id="path3847-1"
         style="color:#000000;fill:#ffffff;fill-opacity:1;fill-rule:nonzero;stroke:none;stroke-width:4;marker:none;visibility:visible;display:inline;overflow:visible;enable-background:accumulate"
         sodipodi:type="arc" />
      <path
         transform="matrix(0.86100387,0,0,0.86100387,245.48848,201.31441)"
         d="m 104.42452,442.48889 c 0,9.03088 -7.320968,16.35185 -16.351842,16.35185 -9.030875,0 -16.351845,-7.32097 -16.351845,-16.35185 0,-9.03087 7.32097,-16.35184 16.351845,-16.35184 9.030874,0 16.351842,7.32097 16.351842,16.35184 z"
         sodipodi:ry="16.351845"
         sodipodi:rx="16.351845"
         sodipodi:cy="442.48889"
         sodipodi:cx="88.072678"
         id="path3849-77"
         style="color:#000000;fill:#000000;fill-opacity:0.19607843;fill-rule:nonzero;stroke:none;stroke-width:4;marker:none;visibility:visible;display:inline;overflow:visible;enable-background:accumulate"
         sodipodi:type="arc" />
      <path
         transform="matrix(0.98823526,0,0,0.98461538,236.78999,146.5496)"
         d="m 91.607142,442.55804 c 0,3.36549 -2.718271,6.09375 -6.071429,6.09375 -3.353157,0 -6.071429,-2.72826 -6.071429,-6.09375 0,-3.36548 2.718272,-6.09375 6.071429,-6.09375 3.353158,0 6.071429,2.72827 6.071429,6.09375 z"
         sodipodi:ry="6.09375"
         sodipodi:rx="6.0714288"
         sodipodi:cy="442.55804"
         sodipodi:cx="85.535713"
         id="path3847-6"
         style="color:#000000;fill:#ffffff;fill-opacity:1;fill-rule:nonzero;stroke:none;stroke-width:4;marker:none;visibility:visible;display:inline;overflow:visible;enable-background:accumulate"
         sodipodi:type="arc" />
    </g>
    <path
       style="fill:#4d4d4d;stroke:none;stroke-width:1px;stroke-linecap:butt;stroke-linejoin:miter;stroke-opacity:1"
       d="m 378.25,218.25504 111.5,-27 126.25,18 79.75,79.75 24,70.75 -0.75,85.25 -32,83 -12.25,-129.75 -72,-95.25 -89.75,-63.5 z"
       id="path3871"
       inkscape:connector-curvature="0"
       sodipodi:nodetypes="ccccccccccc" />
    <path
       style="fill:#1a1a1a;stroke:none"
       d="M 253.4375 64.65625 A 5.0995294 5.0995294 0 0 0 252.5625 64.78125 L 141.0625 91.78125 A 5.0995294 5.0995294 0 0 0 141.46875 101.78125 L 275.03125 122.84375 L 363.15625 185.1875 L 433.8125 278.65625 L 445.9375 406.96875 A 5.0995294 5.0995294 0 0 0 455.75 408.34375 L 487.75 325.34375 A 5.0995294 5.0995294 0 0 0 488.09375 323.53125 L 488.84375 238.28125 A 5.0995294 5.0995294 0 0 0 488.59375 236.625 L 464.59375 165.875 A 5.0995294 5.0995294 0 0 0 463.34375 163.90625 L 383.59375 84.15625 A 5.0995294 5.0995294 0 0 0 380.71875 82.6875 L 254.46875 64.6875 A 5.0995294 5.0995294 0 0 0 253.4375 64.65625 z M 253.75 69.75 L 380 87.75 L 459.75 167.5 L 483.75 238.25 L 483 323.5 L 451 406.5 L 438.75 276.75 L 366.75 181.5 L 277 118 L 142.25 96.75 L 253.75 69.75 z "
       transform="translate(236,121.50504)"
       id="path3898" />
    <path
       style="fill:#000000;stroke:none;fill-opacity:0.3137255"
       d="M 253.75 69.75 L 142.25 96.75 L 277 118 L 366.75 181.5 L 438.75 276.75 L 451 406.5 L 483 323.5 L 483.75 238.25 L 459.75 167.5 L 380 87.75 L 253.75 69.75 z M 254.25 80.46875 L 375 97.6875 L 450.5625 173.25 L 473.1875 240 L 472.5 321.46875 L 457.28125 360.875 L 449.25 275.75 A 10.548245 10.548245 0 0 0 447.15625 270.375 L 375.15625 175.125 A 10.548245 10.548245 0 0 0 372.84375 172.875 L 283.09375 109.375 A 10.548245 10.548245 0 0 0 278.65625 107.59375 L 196.0625 94.5625 L 254.25 80.46875 z "
       transform="translate(236,121.50504)"
       id="path3871-2" />
    <path
       style="fill:#ffffff;stroke:none;fill-opacity:0.3137255"
       d="M 253.75 69.75 L 142.25 96.75 L 224.375 109.6875 L 260.8125 100.875 L 387.0625 118.875 L 466.8125 198.625 L 483.65625 248.28125 L 483.75 238.25 L 459.75 167.5 L 380 87.75 L 253.75 69.75 z M 441.09375 301.65625 L 451 406.5 L 454.3125 397.90625 L 445.8125 307.875 L 441.09375 301.65625 z "
       transform="translate(236,121.50504)"
       id="path3871-8" />
    <path
       style="fill:#000000;stroke:none;fill-opacity:0.3137255"
       d="M 257.53125 111.625 L 247.5625 113.34375 L 277 118 L 366.75 181.5 L 438.75 276.75 L 451 406.5 L 483 323.5 L 483.75 238.25 L 464.375 181.15625 L 426.84375 214.4375 L 354.3125 132.03125 L 257.53125 111.625 z "
       transform="translate(236,121.50504)"
       id="path3871-38" />
    <path
       style="fill:#4d4d4d;stroke:none"
       d="m 576.01,300.8113 73.62752,-74.40875 31.0123,31.01229 -72.95834,74.55205 z"
       id="path3969"
       inkscape:connector-curvature="0"
       sodipodi:nodetypes="ccccc" />
    <path
       style="fill:#000000;stroke:none;fill-opacity:0.3137255"
       d="M 413.625 104.90625 L 340 179.3125 L 371.6875 210.46875 L 444.65625 135.90625 L 413.625 104.90625 z M 413.6875 124.46875 L 425.25 136 L 371.5 190.90625 L 359.5625 179.1875 L 413.6875 124.46875 z "
       transform="translate(236,121.50504)"
       id="path3969-2" />
    <path
       style="fill:#1a1a1a;stroke:none"
       d="M 413.5625 100.65625 A 4.2596026 4.2596026 0 0 0 410.59375 101.90625 L 336.96875 176.3125 A 4.2596026 4.2596026 0 0 0 337 182.34375 L 368.6875 213.5 A 4.2596026 4.2596026 0 0 0 374.71875 213.4375 L 447.6875 138.875 A 4.2596026 4.2596026 0 0 0 447.65625 132.90625 L 416.625 101.90625 A 4.2596026 4.2596026 0 0 0 413.5625 100.65625 z M 413.625 104.90625 L 444.65625 135.90625 L 371.6875 210.46875 L 340 179.3125 L 413.625 104.90625 z "
       id="path3989"
       transform="translate(236,121.50504)" />
    <path
       transform="matrix(0.86100387,0,0,0.86100387,536.15809,-85.675423)"
       d="m 104.42452,442.48889 a 16.351845,16.351845 0 1 1 -32.703687,0 16.351845,16.351845 0 1 1 32.703687,0 z"
       sodipodi:ry="16.351845"
       sodipodi:rx="16.351845"
       sodipodi:cy="442.48889"
       sodipodi:cx="88.072678"
       id="path3849-7-1"
       style="color:#000000;fill:#000000;fill-opacity:0.19607843;fill-rule:nonzero;stroke:none;stroke-width:4;marker:none;visibility:visible;display:inline;overflow:visible;enable-background:accumulate"
       sodipodi:type="arc" />
    <path
       transform="matrix(0.98823526,0,0,0.98461538,527.45959,-140.44023)"
       d="m 91.607142,442.55804 a 6.0714288,6.09375 0 1 1 -12.142858,0 6.0714288,6.09375 0 1 1 12.142858,0 z"
       sodipodi:ry="6.09375"
       sodipodi:rx="6.0714288"
       sodipodi:cy="442.55804"
       sodipodi:cx="85.535713"
       id="path3847-1-2"
       style="color:#000000;fill:#ffffff;fill-opacity:1;fill-rule:nonzero;stroke:none;stroke-width:4;marker:none;visibility:visible;display:inline;overflow:visible;enable-background:accumulate"
       sodipodi:type="arc" />
    <path
       transform="matrix(0.86100387,0,0,0.86100387,573.98829,-121.03074)"
       d="m 104.42452,442.48889 a 16.351845,16.351845 0 1 1 -32.703687,0 16.351845,16.351845 0 1 1 32.703687,0 z"
       sodipodi:ry="16.351845"
       sodipodi:rx="16.351845"
       sodipodi:cy="442.48889"
       sodipodi:cx="88.072678"
       id="path3849-77-8"
       style="color:#000000;fill:#000000;fill-opacity:0.19607843;fill-rule:nonzero;stroke:none;stroke-width:4;marker:none;visibility:visible;display:inline;overflow:visible;enable-background:accumulate"
       sodipodi:type="arc" />
    <path
       transform="matrix(0.98823526,0,0,0.98461538,565.28979,-175.79555)"
       d="m 91.607142,442.55804 a 6.0714288,6.09375 0 1 1 -12.142858,0 6.0714288,6.09375 0 1 1 12.142858,0 z"
       sodipodi:ry="6.09375"
       sodipodi:rx="6.0714288"
       sodipodi:cy="442.55804"
       sodipodi:cx="85.535713"
       id="path3847-6-9"
       style="color:#000000;fill:#ffffff;fill-opacity:1;fill-rule:nonzero;stroke:none;stroke-width:4;marker:none;visibility:visible;display:inline;overflow:visible;enable-background:accumulate"
       sodipodi:type="arc" />
    <path
       style="fill:#ffffff;stroke:none;fill-opacity:0.3137255"
       d="M 413.625 104.90625 L 340 179.3125 L 347.78125 186.96875 L 416.125 117.90625 L 439.46875 141.21875 L 444.65625 135.90625 L 413.625 104.90625 z "
       transform="translate(236,121.50504)"
       id="path3969-9" />
    <path
       style="fill:#000000;stroke:none;fill-opacity:0.3137255"
       d="M 413.125 143.65625 L 359.1875 198.1875 L 371.6875 210.46875 L 425.21875 155.75 L 413.125 143.65625 z "
       transform="translate(236,121.50504)"
       id="path3969-4" />
  </g>
</svg>
