<?xml version="1.0" encoding="UTF-8" standalone="no"?>
<!-- Created with Inkscape (http://www.inkscape.org/) -->

<svg
   xmlns:dc="http://purl.org/dc/elements/1.1/"
   xmlns:cc="http://creativecommons.org/ns#"
   xmlns:rdf="http://www.w3.org/1999/02/22-rdf-syntax-ns#"
   xmlns:svg="http://www.w3.org/2000/svg"
   xmlns="http://www.w3.org/2000/svg"
   xmlns:sodipodi="http://sodipodi.sourceforge.net/DTD/sodipodi-0.dtd"
   xmlns:inkscape="http://www.inkscape.org/namespaces/inkscape"
   width="512"
   height="512"
   id="svg2"
   version="1.1"
   inkscape:version="0.48.4 r9939"
   sodipodi:docname="StonePaxel.svg">
  <defs
     id="defs4" />
  <sodipodi:namedview
     id="base"
     pagecolor="#ffffff"
     bordercolor="#666666"
     borderopacity="1.0"
     inkscape:pageopacity="0.0"
     inkscape:pageshadow="2"
     inkscape:zoom="0.35"
     inkscape:cx="867.08864"
     inkscape:cy="360.95398"
     inkscape:document-units="px"
     inkscape:current-layer="layer1"
     showgrid="false"
     fit-margin-top="0"
     fit-margin-left="0"
     fit-margin-right="0"
     fit-margin-bottom="0"
     inkscape:window-width="1301"
     inkscape:window-height="744"
     inkscape:window-x="65"
     inkscape:window-y="24"
     inkscape:window-maximized="1">
    <inkscape:grid
       type="xygrid"
       id="grid3096"
       empspacing="8"
       visible="true"
       enabled="true"
       snapvisiblegridlinesonly="true" />
  </sodipodi:namedview>
  <metadata
     id="metadata7">
    <rdf:RDF>
      <cc:Work
         rdf:about="">
        <dc:format>image/svg+xml</dc:format>
        <dc:type
           rdf:resource="http://purl.org/dc/dcmitype/StillImage" />
        <dc:title></dc:title>
      </cc:Work>
    </rdf:RDF>
  </metadata>
  <g
     inkscape:label="Layer 1"
     inkscape:groupmode="layer"
     id="layer1"
     transform="translate(-236,-121.50504)">
    <path
       style="fill:#000000;fill-opacity:1;stroke:#000000;stroke-width:1px;stroke-linecap:butt;stroke-linejoin:miter;stroke-opacity:0"
       d="M 385.625 8.25 A 6.7545573 6.7545573 0 0 0 382.65625 9.15625 L 346.4375 29.96875 A 6.7545573 6.7545573 0 0 0 343.3125 34 L 338.25 52.09375 L 316.90625 50.8125 A 6.7545573 6.7545573 0 0 0 311.59375 52.90625 L 287.40625 78.46875 L 258.84375 71.875 A 6.7545573 6.7545573 0 0 0 257.5625 71.71875 L 159.96875 68.25 A 6.7545573 6.7545573 0 0 0 156.4375 69.09375 L 83.84375 109.6875 A 6.7545573 6.7545573 0 0 0 86.0625 122.25 L 216.625 143.125 L 318.09375 315.6875 A 6.7545573 6.7545573 0 0 0 321.09375 318.375 L 368.5625 340.15625 A 6.7545573 6.7545573 0 0 0 371.375 340.78125 L 422.46875 340.78125 A 6.7545573 6.7545573 0 0 0 425.90625 339.84375 L 481.625 306.71875 A 6.7545573 6.7545573 0 0 0 484.90625 301.53125 L 492.09375 224.03125 A 6.7545573 6.7545573 0 0 0 489.6875 218.21875 L 450.53125 185.625 L 474.625 139.5 A 6.7545573 6.7545573 0 0 0 475.375 136.34375 L 475.125 71.75 A 6.7545573 6.7545573 0 0 0 473.125 67 L 424.3125 18.4375 A 6.7545573 6.7545573 0 0 0 421.15625 16.65625 L 387.625 8.4375 A 6.7545573 6.7545573 0 0 0 385.625 8.25 z M 386.03125 15 L 419.5625 23.1875 L 468.375 71.75 L 468.625 136.375 L 442.03125 187.3125 L 485.375 223.40625 L 478.1875 300.90625 L 422.46875 334.03125 L 371.375 334.03125 L 323.90625 312.25 L 220.84375 136.9375 L 87.125 115.59375 L 159.71875 75 L 257.3125 78.46875 L 289.65625 85.9375 L 316.5 57.5625 L 343.28125 59.15625 L 349.8125 35.8125 L 386.03125 15 z "
       transform="translate(236,121.50504)"
       id="path4164" />
    <path
       style="fill:#636363;fill-opacity:1;stroke:#000000;stroke-width:1px;stroke-linecap:butt;stroke-linejoin:miter;stroke-opacity:0"
       d="m 323.118,237.10092 133.73803,21.35629 103.0545,175.29016 47.4772,21.78142 51.0752,0.0149 55.7311,-33.13251 7.1829,-77.49535 -43.3422,-36.1117 26.5937,-50.91645 -0.2514,-64.61818 -48.8084,-48.56464 -33.5317,-8.19414 -36.2369,20.80467 -6.5144,23.34545 -26.7988,-1.60529 -26.8209,28.39137 -32.3643,-7.46907 -97.59327,-3.46838 z"
       id="path3860"
       inkscape:connector-curvature="0"
       sodipodi:nodetypes="ccccccccccccccccccc" />
    <path
       style="fill:#000000;fill-opacity:0.15686275;stroke:#000000;stroke-width:1px;stroke-linecap:butt;stroke-linejoin:miter;stroke-opacity:0"
       d="M 386.03125 15 L 349.8125 35.8125 L 343.28125 59.15625 L 316.5 57.5625 L 289.65625 85.9375 L 257.3125 78.46875 L 159.71875 75 L 87.125 115.59375 L 220.84375 136.9375 L 323.90625 312.25 L 371.375 334.03125 L 422.46875 334.03125 L 478.1875 300.90625 L 485.375 223.40625 L 442.03125 187.3125 L 468.625 136.375 L 468.375 71.75 L 419.5625 23.1875 L 386.03125 15 z M 389.15625 36.90625 L 409.125 41.78125 L 447.875 80.34375 L 448.0625 131.40625 L 423.84375 177.8125 A 20.531954 20.531954 0 0 0 428.90625 203.09375 L 463.9375 232.28125 L 458.71875 288.59375 L 416.8125 313.5 L 375.84375 313.5 L 338.3125 296.28125 L 238.53125 126.5625 A 20.531954 20.531954 0 0 0 224.09375 116.6875 L 148.75 104.65625 L 164.6875 95.71875 L 254.6875 98.9375 L 285.03125 105.9375 A 20.531954 20.531954 0 0 0 304.5625 100.03125 L 324.8125 78.625 L 342.0625 79.65625 A 20.531954 20.531954 0 0 0 363.0625 64.6875 L 367.34375 49.4375 L 389.15625 36.90625 z "
       transform="translate(236,121.50504)"
       id="path3860-4" />
    <path
       style="fill:#ffffff;fill-opacity:0.19607843;stroke:#000000;stroke-width:1px;stroke-linecap:butt;stroke-linejoin:miter;stroke-opacity:0"
       d="M 386.03125 15 L 349.8125 35.8125 L 343.28125 59.15625 L 316.5 57.5625 L 289.65625 85.9375 L 257.3125 78.46875 L 159.71875 75 L 87.125 115.59375 L 136 123.40625 L 174 102.15625 L 271.59375 105.625 L 303.9375 113.09375 L 330.78125 84.6875 L 357.5625 86.3125 L 364.09375 62.96875 L 400.3125 42.15625 L 433.84375 50.34375 L 468.4375 84.75 L 468.375 71.75 L 419.5625 23.1875 L 386.03125 15 z M 461.84375 203.8125 L 456.3125 214.4375 L 484.0625 237.5625 L 485.375 223.40625 L 461.84375 203.8125 z "
       id="path3860-13"
       transform="translate(236,121.50504)" />
    <path
       style="fill:#000000;fill-opacity:0.19607843;stroke:#000000;stroke-width:1px;stroke-linecap:butt;stroke-linejoin:miter;stroke-opacity:0"
       d="M 449.84375 53.3125 L 450.0625 109.25 L 423.46875 160.15625 L 446.28125 179.15625 L 468.625 136.375 L 468.375 71.75 L 449.84375 53.3125 z M 120.75 96.78125 L 87.125 115.59375 L 217.96875 136.46875 L 202.28125 109.8125 L 120.75 96.78125 z M 465.8125 207.125 L 459.625 273.75 L 403.90625 306.90625 L 352.8125 306.875 L 308.90625 286.71875 L 323.90625 312.25 L 371.375 334.03125 L 422.46875 334.03125 L 478.1875 300.90625 L 485.375 223.40625 L 465.8125 207.125 z "
       transform="translate(236,121.50504)"
       id="path3860-6" />
    <g
       id="g4000"
       transform="translate(-52.527932,17.172593)">
      <path
         sodipodi:nodetypes="ccccc"
         transform="translate(236,121.50504)"
         inkscape:connector-curvature="0"
         id="path3034"
         d="M 438.57143,70.571429 60.714285,449.14286 95.382524,483.34191 472.81453,105.98181 z"
         style="fill:#5a4829;fill-opacity:1;stroke:none" />
      <path
         id="path3034-6"
         transform="translate(236,121.50504)"
         d="M 438.5625,70.5625 60.71875,449.15625 95.375,483.34375 472.8125,105.96875 438.5625,70.5625 z m -0.0937,11.1875 23.3125,24.15625 L 95.3125,472.28125 71.84375,449.125 438.46875,81.75 z"
         style="fill:#000000;fill-opacity:0.2745098;stroke:none"
         inkscape:connector-curvature="0" />
      <path
         id="path3034-2"
         transform="translate(236,121.50504)"
         d="m 457.75,90.78125 -377.21875,377.9375 14.84375,14.625 377.25,-377.1875 -14.875,-15.375 z"
         style="fill:#000000;fill-opacity:0.19607843;stroke:none"
         inkscape:connector-curvature="0" />
    </g>
    <path
       style="fill:#d3cec0;fill-opacity:1;stroke:#b4ad87;stroke-width:5;stroke-linecap:butt;stroke-linejoin:miter;stroke-miterlimit:4;stroke-opacity:1;stroke-dasharray:none"
       d="m 518.63424,359.93932 -10.7335,-3.91677 51.41553,-181.83759 14.78462,-7.55078 z"
       id="path4005-4-3-3"
       inkscape:connector-curvature="0"
       sodipodi:nodetypes="ccccc" />
    <path
       style="fill:#d3cec0;fill-opacity:1;stroke:#b4ad87;stroke-width:5;stroke-linecap:butt;stroke-linejoin:miter;stroke-miterlimit:4;stroke-opacity:1;stroke-dasharray:none"
       d="m 690.24919,299.66921 5.96555,16.57343 -202.39304,23.86348 18.92548,-19.3365 z"
       id="path4005-4"
       inkscape:connector-curvature="0"
       sodipodi:nodetypes="ccccc" />
    <path
       style="fill:#d3cec0;fill-opacity:1;stroke:#b4ad87;stroke-width:5;stroke-linecap:butt;stroke-linejoin:miter;stroke-miterlimit:4;stroke-opacity:1;stroke-dasharray:none"
       d="m 534.70567,363.51075 -20.01922,3.22608 -5.91116,-168.87584 20.85605,-3.97935 z"
       id="path4005-4-3"
       inkscape:connector-curvature="0"
       sodipodi:nodetypes="ccccc" />
    <path
       style="fill:#d3cec0;fill-opacity:1;stroke:#b4ad87;stroke-width:5;stroke-linecap:butt;stroke-linejoin:miter;stroke-miterlimit:4;stroke-opacity:1;stroke-dasharray:none"
       d="m 499.45638,334.0193 35.58557,30.74837 -14.82052,15.3256 -35.35534,-31.06219 z"
       id="path4036"
       inkscape:connector-curvature="0"
       sodipodi:nodetypes="ccccc" />
  </g>
</svg>
