<?xml version="1.0" encoding="UTF-8" standalone="no"?>
<!-- Created with Inkscape (http://www.inkscape.org/) -->

<svg
   xmlns:dc="http://purl.org/dc/elements/1.1/"
   xmlns:cc="http://creativecommons.org/ns#"
   xmlns:rdf="http://www.w3.org/1999/02/22-rdf-syntax-ns#"
   xmlns:svg="http://www.w3.org/2000/svg"
   xmlns="http://www.w3.org/2000/svg"
   xmlns:sodipodi="http://sodipodi.sourceforge.net/DTD/sodipodi-0.dtd"
   xmlns:inkscape="http://www.inkscape.org/namespaces/inkscape"
   width="512"
   height="512"
   id="svg2"
   version="1.1"
   inkscape:version="0.48.4 r9939"
   sodipodi:docname="WoodPaxel.svg">
  <defs
     id="defs4" />
  <sodipodi:namedview
     id="base"
     pagecolor="#ffffff"
     bordercolor="#666666"
     borderopacity="1.0"
     inkscape:pageopacity="0.0"
     inkscape:pageshadow="2"
     inkscape:zoom="1.4"
     inkscape:cx="547.73609"
     inkscape:cy="384.88469"
     inkscape:document-units="px"
     inkscape:current-layer="layer1"
     showgrid="false"
     fit-margin-top="0"
     fit-margin-left="0"
     fit-margin-right="0"
     fit-margin-bottom="0"
     inkscape:window-width="1301"
     inkscape:window-height="744"
     inkscape:window-x="65"
     inkscape:window-y="24"
     inkscape:window-maximized="1">
    <inkscape:grid
       type="xygrid"
       id="grid3096"
       empspacing="8"
       visible="true"
       enabled="true"
       snapvisiblegridlinesonly="true" />
  </sodipodi:namedview>
  <metadata
     id="metadata7">
    <rdf:RDF>
      <cc:Work
         rdf:about="">
        <dc:format>image/svg+xml</dc:format>
        <dc:type
           rdf:resource="http://purl.org/dc/dcmitype/StillImage" />
        <dc:title />
      </cc:Work>
    </rdf:RDF>
  </metadata>
  <g
     inkscape:label="Layer 1"
     inkscape:groupmode="layer"
     id="layer1"
     transform="translate(-236,-121.50504)">
    <path
       style="fill:#000000;fill-opacity:1;stroke:#000000;stroke-width:1px;stroke-linecap:butt;stroke-linejoin:miter;stroke-opacity:0"
       d="M 206.96875 41.34375 A 3.379329 3.379329 0 0 0 205.59375 41.75 L 138.0625 78.28125 A 3.379329 3.379329 0 0 0 139.3125 84.625 L 222.6875 93.46875 L 218.125 111.8125 A 3.379329 3.379329 0 0 0 222.34375 115.875 L 276.25 100.3125 L 311.46875 330.9375 A 3.379329 3.379329 0 0 0 317.9375 331.75 L 339.0625 281.78125 L 387.5625 338.25 A 3.379329 3.379329 0 0 0 392.5 338.46875 L 428.03125 303.3125 A 3.379329 3.379329 0 0 0 428.4375 298.96875 L 398.34375 255.6875 L 452.875 260.375 A 3.379329 3.379329 0 0 0 455.65625 259.25 L 475.15625 237.625 A 3.379329 3.379329 0 0 0 476.03125 235.5625 L 478.8125 187.125 A 3.379329 3.379329 0 0 0 477.625 184.375 L 465.875 174.34375 L 476.5625 168.5 A 3.379329 3.379329 0 0 0 478.3125 165.78125 L 482.46875 111.8125 A 3.379329 3.379329 0 0 0 481.34375 109.0625 L 416.25 50.59375 A 3.379329 3.379329 0 0 0 414.03125 49.71875 L 367.03125 49.125 A 3.379329 3.379329 0 0 0 364 50.96875 L 346 86.15625 L 321.78125 46.4375 A 3.379329 3.379329 0 0 0 319 44.8125 L 207.28125 41.34375 A 3.379329 3.379329 0 0 0 206.96875 41.34375 z M 207.1875 44.6875 L 318.90625 48.15625 L 346.25 93 L 367 52.5 L 414 53.09375 L 479.09375 111.5625 L 474.9375 165.53125 L 459.96875 173.71875 L 475.4375 186.90625 L 472.65625 235.375 L 453.15625 257 L 391.4375 251.6875 L 425.65625 300.90625 L 390.125 336.0625 L 338.0625 275.4375 L 314.8125 330.4375 L 279 96 L 221.40625 112.625 L 226.90625 90.5 L 139.65625 81.25 L 207.1875 44.6875 z "
       transform="translate(236,121.50504)"
       id="path3016" />
    <path
       style="fill:#2f220c;fill-opacity:1;stroke:#000000;stroke-width:1px;stroke-linecap:butt;stroke-linejoin:miter;stroke-opacity:0"
       d="m 375.646,202.75573 87.271,9.23446 -5.5173,22.1364 57.6024,-16.62508 35.8171,234.42861 23.2336,-54.99018 52.0853,60.62405 35.5281,-35.15282 -34.2334,-49.21108 61.7137,5.30456 19.5226,-21.62203 2.7791,-48.45574 -15.4734,-13.2093 14.9556,-8.19414 4.1692,-53.94662 -65.1032,-58.47691 -47.0019,-0.59513 -20.76,40.5132 -27.3135,-44.84472 -111.7354,-3.46838 z"
       id="path3860"
       inkscape:connector-curvature="0"
       sodipodi:nodetypes="ccccccccccccccccccccc" />
    <path
       style="fill:#ffffff;fill-opacity:0.11764706;stroke:#000000;stroke-width:1px;stroke-linecap:butt;stroke-linejoin:miter;stroke-opacity:0"
       d="M 207.1875 44.6875 L 139.65625 81.25 L 182.96875 85.84375 L 225.375 62.875 L 329.84375 66.125 L 318.90625 48.15625 L 207.1875 44.6875 z M 367 52.5 L 349.46875 86.6875 L 364.40625 111.1875 L 385.1875 70.6875 L 432.1875 71.28125 L 478.96875 113.28125 L 479.09375 111.5625 L 414 53.09375 L 367 52.5 z M 222.96875 106.3125 L 221.40625 112.625 L 237.8125 107.875 L 222.96875 106.3125 z M 297.1875 114.1875 L 282.4375 118.4375 L 314.8125 330.4375 L 326.125 303.65625 L 297.1875 114.1875 z M 356.25 293.625 L 355.40625 295.625 L 390.125 336.0625 L 391.5 334.6875 L 356.25 293.625 z "
       id="path3860-6"
       transform="translate(236,121.50504)" />
    <path
       style="fill:#000000;fill-opacity:0.3137255;stroke:#000000;stroke-width:1px;stroke-linecap:butt;stroke-linejoin:miter;stroke-opacity:0"
       d="M 191.5 53.1875 L 139.65625 81.25 L 226.90625 90.5 L 221.40625 112.625 L 263.4375 100.5 L 257.28125 60.125 L 199.6875 76.75 L 205.1875 54.625 L 191.5 53.1875 z M 456.1875 91 L 453.21875 129.65625 L 438.25 137.84375 L 453.71875 151.0625 L 450.9375 199.53125 L 431.4375 221.125 L 369.71875 215.84375 L 394.875 251.96875 L 453.15625 257 L 472.65625 235.375 L 475.4375 186.90625 L 459.96875 173.71875 L 474.9375 165.53125 L 479.09375 111.5625 L 456.1875 91 z M 316.34375 239.5625 L 305.03125 266.34375 L 314.8125 330.4375 L 338.0625 275.4375 L 390.125 336.0625 L 425.65625 300.90625 L 402.03125 266.90625 L 368.40625 300.1875 L 316.34375 239.5625 z "
       transform="translate(236,121.50504)"
       id="path3860-1" />
    <path
       style="fill:#000000;fill-opacity:0.3137255;stroke:#000000;stroke-width:1px;stroke-linecap:butt;stroke-linejoin:miter;stroke-opacity:0"
       d="M 207.1875 44.6875 L 139.65625 81.25 L 226.90625 90.5 L 221.40625 112.625 L 279 96 L 314.8125 330.4375 L 338.0625 275.4375 L 390.125 336.0625 L 425.65625 300.90625 L 391.4375 251.6875 L 453.15625 257 L 472.65625 235.375 L 475.4375 186.90625 L 459.96875 173.71875 L 474.9375 165.53125 L 479.09375 111.5625 L 414 53.09375 L 367 52.5 L 346.25 93 L 318.90625 48.15625 L 207.1875 44.6875 z M 211.21875 61.84375 L 309.1875 64.875 L 331.75 101.875 A 16.968146 16.968146 0 0 0 361.34375 100.75 L 377.28125 69.59375 L 407.40625 69.96875 L 461.53125 118.625 L 458.75 155.0625 L 451.8125 158.84375 A 16.968146 16.968146 0 0 0 448.9375 186.625 L 458.03125 194.375 L 456.0625 228.4375 L 446.21875 239.375 L 392.90625 234.78125 A 16.968146 16.968146 0 0 0 377.5 261.375 L 403.5625 298.875 L 391.125 311.1875 L 350.9375 264.375 A 16.968146 16.968146 0 0 0 322.53125 268.625 L 295.78125 93.4375 A 16.968146 16.968146 0 0 0 274.28125 79.6875 L 243.75 88.5 A 16.968146 16.968146 0 0 0 228.6875 73.625 L 195.875 70.15625 L 211.21875 61.84375 z "
       transform="translate(236,121.50504)"
       id="path3860-0" />
    <g
       id="g4000"
       transform="translate(-52.527932,17.172593)">
      <path
         sodipodi:nodetypes="ccccc"
         transform="translate(236,121.50504)"
         inkscape:connector-curvature="0"
         id="path3034"
         d="M 438.57143,70.571429 60.714285,449.14286 95.382524,483.34191 472.81453,105.98181 z"
         style="fill:#5a4829;fill-opacity:1;stroke:none" />
      <path
         id="path3034-6"
         transform="translate(236,121.50504)"
         d="M 438.5625,70.5625 60.71875,449.15625 95.375,483.34375 472.8125,105.96875 438.5625,70.5625 z m -0.0937,11.1875 23.3125,24.15625 L 95.3125,472.28125 71.84375,449.125 438.46875,81.75 z"
         style="fill:#000000;fill-opacity:0.2745098;stroke:none"
         inkscape:connector-curvature="0" />
      <path
         id="path3034-2"
         transform="translate(236,121.50504)"
         d="m 457.75,90.78125 -377.21875,377.9375 14.84375,14.625 377.25,-377.1875 -14.875,-15.375 z"
         style="fill:#000000;fill-opacity:0.19607843;stroke:none"
         inkscape:connector-curvature="0" />
    </g>
    <path
       style="fill:#d3cec0;fill-opacity:1;stroke:#b4ad87;stroke-width:5;stroke-linecap:butt;stroke-linejoin:miter;stroke-miterlimit:4;stroke-opacity:1;stroke-dasharray:none"
       d="m 590.28692,187.87367 -20.05822,0.0402 -43.72717,104.80063 12.16208,17.92548 z"
       id="path4005"
       inkscape:connector-curvature="0"
       sodipodi:nodetypes="ccccc" />
    <path
       style="fill:#d3cec0;fill-opacity:1;stroke:#b4ad87;stroke-width:5;stroke-linecap:butt;stroke-linejoin:miter;stroke-miterlimit:4;stroke-opacity:1;stroke-dasharray:none"
       d="m 514.27691,304.04648 39.87872,39.33467 -8.42784,9.438 -34.59773,-29.54696 z"
       id="path4036"
       inkscape:connector-curvature="0"
       sodipodi:nodetypes="ccccc" />
    <path
       style="fill:#000000;stroke:none;stroke-width:1px;stroke-linecap:butt;stroke-linejoin:miter;stroke-opacity:1;fill-opacity:0.23529412"
       d="M 312.03125 212.3125 L 298.96875 225.4375 L 308.09375 233.21875 L 309.96875 234.8125 L 311.59375 232.96875 L 320.03125 223.53125 L 321.59375 221.78125 L 319.90625 220.09375 L 312.03125 212.3125 z "
       transform="translate(236,121.50504)"
       id="path3879-7" />
    <path
       style="fill:#d3cec0;fill-opacity:1;stroke:#b4ad87;stroke-width:5;stroke-linecap:butt;stroke-linejoin:miter;stroke-miterlimit:4;stroke-opacity:1;stroke-dasharray:none"
       d="m 658.51796,380.5695 -9.74873,15.14486 -134.59039,-91.32253 2.49691,-13.97935 z"
       id="path4005-4"
       inkscape:connector-curvature="0"
       sodipodi:nodetypes="ccccc" />
    <path
       style="fill:#000000;fill-opacity:0.23529412;stroke:none"
       d="m 328.1572,196.12468 -14.09375,14.21875 97.29014,65.94972 2.125,1.4375 1.40625,-2.15625 9.75,-15.15625 1.34375,-2.09375 -2.125,-1.375 z"
       transform="translate(236,121.50504)"
       id="path3879-8"
       inkscape:connector-curvature="0"
       sodipodi:nodetypes="ccccccccc" />
    <path
       style="fill:#d3cec0;fill-opacity:1;stroke:#b4ad87;stroke-width:5;stroke-linecap:butt;stroke-linejoin:miter;stroke-miterlimit:4;stroke-opacity:1;stroke-dasharray:none"
       d="m 583.31926,415.65987 -13.95151,2.64115 -51.82977,-132.19962 1.76468,-17.64179 z"
       id="path4005-4-3"
       inkscape:connector-curvature="0"
       sodipodi:nodetypes="ccccc" />
    <path
       style="fill:#000000;fill-opacity:0.23529412;stroke:none"
       d="m 313.72321,210.58929 -12.0625,12.15625 29.25442,74.7478 0.90625,2.21875 18.96937,-3.70676 -2.29526,-5.32003 z"
       transform="translate(236,121.50504)"
       id="path3879-9"
       inkscape:connector-curvature="0"
       sodipodi:nodetypes="ccccccc" />
  </g>
</svg>
