<?xml version="1.0" encoding="UTF-8" standalone="no"?>
<!-- Created with Inkscape (http://www.inkscape.org/) -->

<svg
   xmlns:dc="http://purl.org/dc/elements/1.1/"
   xmlns:cc="http://creativecommons.org/ns#"
   xmlns:rdf="http://www.w3.org/1999/02/22-rdf-syntax-ns#"
   xmlns:svg="http://www.w3.org/2000/svg"
   xmlns="http://www.w3.org/2000/svg"
   xmlns:sodipodi="http://sodipodi.sourceforge.net/DTD/sodipodi-0.dtd"
   xmlns:inkscape="http://www.inkscape.org/namespaces/inkscape"
   width="512"
   height="512"
   id="svg2"
   version="1.1"
   inkscape:version="0.48.4 r9939"
   sodipodi:docname="MechanicalPipe.svg">
  <defs
     id="defs4" />
  <sodipodi:namedview
     id="base"
     pagecolor="#ffffff"
     bordercolor="#666666"
     borderopacity="1.0"
     inkscape:pageopacity="0.0"
     inkscape:pageshadow="2"
     inkscape:zoom="0.70710678"
     inkscape:cx="102.77374"
     inkscape:cy="229.31727"
     inkscape:document-units="px"
     inkscape:current-layer="layer1"
     showgrid="false"
     inkscape:window-width="1301"
     inkscape:window-height="744"
     inkscape:window-x="65"
     inkscape:window-y="24"
     inkscape:window-maximized="1">
    <inkscape:grid
       type="xygrid"
       id="grid3773"
       empspacing="128"
       visible="true"
       enabled="true"
       snapvisiblegridlinesonly="true" />
  </sodipodi:namedview>
  <metadata
     id="metadata7">
    <rdf:RDF>
      <cc:Work
         rdf:about="">
        <dc:format>image/svg+xml</dc:format>
        <dc:type
           rdf:resource="http://purl.org/dc/dcmitype/StillImage" />
        <dc:title></dc:title>
      </cc:Work>
    </rdf:RDF>
  </metadata>
  <g
     inkscape:label="Layer 1"
     inkscape:groupmode="layer"
     id="layer1"
     transform="translate(0,-540.36218)">
    <path
       style="color:#000000;fill:#464646;fill-opacity:1;fill-rule:nonzero;stroke:none;stroke-width:25;marker:none;visibility:visible;display:inline;overflow:visible;enable-background:accumulate"
       d="M 0 0 L 0 512 L 512 512 L 512 0 L 0 0 z M 40 40 L 472 40 L 472 472 L 40 472 L 40 40 z "
       id="rect3771"
       transform="translate(0,540.36218)" />
    <path
       style="color:#000000;fill:#ffffff;fill-opacity:0.07843138;fill-rule:nonzero;stroke:none;stroke-width:25;marker:none;visibility:visible;display:inline;overflow:visible;enable-background:accumulate"
       d="m 0,540.36218 0,512.00002 10,0 0,-502.00002 502,0 0,-10 -512,0 z"
       id="path2998" />
    <path
       style="color:#000000;fill:#00ff00;fill-opacity:0.3137255;fill-rule:nonzero;stroke:none;stroke-width:25;marker:none;visibility:visible;display:inline;overflow:visible;enable-background:accumulate"
       d="m 472,590.36218 0,422.00002 -422,0 0,10 432,0 0,-432.00002 -10,0 z"
       id="rect3771-6" />
    <path
       style="color:#000000;fill:#000000;fill-opacity:0.19607843;fill-rule:nonzero;stroke:none;stroke-width:25;marker:none;visibility:visible;display:inline;overflow:visible;enable-background:accumulate"
       d="m 502,540.36218 0,502.00002 -502,0 0,10 512,0 0,-512.00002 -10,0 z"
       id="path2994" />
    <path
       style="color:#000000;fill:#00ff00;fill-opacity:0.3137255;fill-rule:nonzero;stroke:none;stroke-width:25;marker:none;visibility:visible;display:inline;overflow:visible;enable-background:accumulate"
       d="m 30,570.36218 0,432.00002 10,0 0,-422.00002 422,0 0,-10 -432,0 z"
       id="rect3771-7" />
    <path
       style="color:#000000;fill:#000000;fill-opacity:0.23529412;fill-rule:nonzero;stroke:none;stroke-width:25;marker:none;visibility:visible;display:inline;overflow:visible;enable-background:accumulate"
       d="M 0 0 L 0 92 L 40 92 L 40 40 L 92 40 L 92 0 L 0 0 z M 420 0 L 420 40 L 472 40 L 472 92 L 512 92 L 512 0 L 420 0 z M 0 420 L 0 512 L 92 512 L 92 472 L 40 472 L 40 420 L 0 420 z M 472 420 L 472 472 L 420 472 L 420 512 L 512 512 L 512 420 L 472 420 z "
       transform="translate(0,540.36218)"
       id="rect4017-6" />
    <path
       id="path2997-2-64"
       style="fill:#464646;fill-opacity:1;stroke:none"
       d="m 80,1052.3622 0,-40 -40,-40 -40,0 0,80 z m 432,-79.99998 -40,0 -40,39.99998 0,40 80,0 z m -79.99998,-432.00004 0,40 40,40 40,0 0,-80 z m -432.00002,80 40,0 40,-40 0,-40 -80,0 z" />
    <path
       id="path2997-2-1-34"
       style="fill:#000000;fill-opacity:0.10980392;stroke:none"
       d="m 0,1052.3622 80,0 0,-40 -40,-40 -40,0 0,80 z m 8,-8 0,-64 28.6875,0 35.3125,35.3125 0,28.6875 -64,0 z m 504,8 0,-80 -40,0 -40,40 0,40 80,0 z m -8,-8 -64,0 0,-28.6875 35.3125,-35.3125 28.6875,0 0,64 z m 8.00002,-504.00002 -80,0 0,40 40,40 40,0 0,-80 z m -8,8 0,64 -28.6875,0 -35.3125,-35.3125 0,-28.6875 64,0 z m -504.00002,-8 0,80 40,0 40,-40 0,-40 -80,0 z m 8,8 64,0 0,28.6875 -35.3125,35.3125 -28.6875,0 0,-64 z" />
    <path
       id="path3852-6"
       style="color:#000000;fill:#000000;fill-opacity:0.10980392;fill-rule:nonzero;stroke:none;stroke-width:25;marker:none;visibility:visible;display:inline;overflow:visible;enable-background:accumulate"
       d="m -16,32 c 0,8.836556 -7.163444,16 -16,16 -8.836556,0 -16,-7.163444 -16,-16 0,-8.836556 7.163444,-16 16,-16 8.836556,0 16,7.163444 16,16 z m -16,432 c 8.836556,0 16,7.16344 16,16 0,8.83656 -7.163444,16 -16,16 -8.836556,0 -16,-7.16344 -16,-16 0,-8.83656 7.163444,-16 16,-16 z m 432.00002,16.00002 c 0,-8.83656 7.16344,-16 16,-16 8.83656,0 16,7.16344 16,16 0,8.83656 -7.16344,16 -16,16 -8.83656,0 -16,-7.16344 -16,-16 z M 416.00002,48 c -8.83656,0 -16,-7.163444 -16,-16 0,-8.836556 7.16344,-16 16,-16 8.83656,0 16,7.163444 16,16 0,8.836556 -7.16344,16 -16,16 z"
       transform="matrix(0,-1,1,0,0,988.3622)" />
    <path
       id="path3854-8"
       style="color:#000000;fill:#ffffff;fill-opacity:0.19607843;fill-rule:nonzero;stroke:none;stroke-width:25;marker:none;visibility:visible;display:inline;overflow:visible;enable-background:accumulate"
       d="m 32,1012.3622 c 4.41828,0 8,3.5817 8,8 0,4.4183 -3.58172,8 -8,8 -4.41828,0 -8,-3.5817 -8,-8 0,-4.4183 3.58172,-8 8,-8 z m 440,8 c 0,-4.4183 3.58172,-8 8,-8 4.41828,0 8,3.5817 8,8 0,4.4183 -3.58172,8 -8,8 -4.41828,0 -8,-3.5817 -8,-8 z m 8.00002,-440.00002 c -4.41828,0 -8,-3.58172 -8,-8 0,-4.41828 3.58172,-8 8,-8 4.41828,0 8,3.58172 8,8 0,4.41828 -3.58172,8 -8,8 z M 40,572.36218 c 0,4.41828 -3.58172,8 -8,8 -4.41828,0 -8,-3.58172 -8,-8 0,-4.41828 3.58172,-8 8,-8 4.41828,0 8,3.58172 8,8 z"
       inkscape:connector-curvature="0" />
    <path
       style="fill:#000000;fill-opacity:0.19607843;stroke:none"
       d="M 56 0 L 56 16 L 16 56 L 0 56 L 0 80 L 40 80 L 80 40 L 80 0 L 56 0 z M 488 0 L 488 56 L 448 56 L 472 80 L 512 80 L 512 0 L 488 0 z M 488 432 L 488 488 L 432 488 L 432 512 L 512 512 L 512 432 L 488 432 z M 56 448 L 56 488 L 0 488 L 0 512 L 80 512 L 80 472 L 56 448 z "
       transform="translate(0,540.36218)"
       id="path2997-2-64-41" />
  </g>
</svg>
