<?xml version="1.0" encoding="UTF-8" standalone="no"?>
<!-- Created with Inkscape (http://www.inkscape.org/) -->

<svg
   xmlns:dc="http://purl.org/dc/elements/1.1/"
   xmlns:cc="http://creativecommons.org/ns#"
   xmlns:rdf="http://www.w3.org/1999/02/22-rdf-syntax-ns#"
   xmlns:svg="http://www.w3.org/2000/svg"
   xmlns="http://www.w3.org/2000/svg"
   xmlns:sodipodi="http://sodipodi.sourceforge.net/DTD/sodipodi-0.dtd"
   xmlns:inkscape="http://www.inkscape.org/namespaces/inkscape"
   width="512"
   height="512"
   id="svg2"
   version="1.1"
   inkscape:version="0.48.4 r9939"
   sodipodi:docname="Input.svg">
  <defs
     id="defs4" />
  <sodipodi:namedview
     id="base"
     pagecolor="#ffffff"
     bordercolor="#666666"
     borderopacity="1.0"
     inkscape:pageopacity="0.0"
     inkscape:pageshadow="2"
     inkscape:zoom="0.98994949"
     inkscape:cx="309.99848"
     inkscape:cy="280.10202"
     inkscape:document-units="px"
     inkscape:current-layer="layer1"
     showgrid="false"
     fit-margin-top="0"
     fit-margin-left="0"
     fit-margin-right="0"
     fit-margin-bottom="0"
     inkscape:window-width="1301"
     inkscape:window-height="744"
     inkscape:window-x="65"
     inkscape:window-y="24"
     inkscape:window-maximized="1">
    <inkscape:grid
       type="xygrid"
       id="grid2996"
       empspacing="64"
       visible="true"
       enabled="true"
       snapvisiblegridlinesonly="true" />
  </sodipodi:namedview>
  <metadata
     id="metadata7">
    <rdf:RDF>
      <cc:Work
         rdf:about="">
        <dc:format>image/svg+xml</dc:format>
        <dc:type
           rdf:resource="http://purl.org/dc/dcmitype/StillImage" />
        <dc:title />
      </cc:Work>
    </rdf:RDF>
  </metadata>
  <g
     inkscape:label="Layer 1"
     inkscape:groupmode="layer"
     id="layer1"
     transform="translate(-119,-276.36218)">
    <g
       id="g4013"
       transform="translate(-600,0)">
      <path
         inkscape:transform-center-y="-12.222912"
         transform="translate(718.99989,276.36218)"
         d="m 256,155.77053 95.32389,69.25686 -36.41049,112.05996 -117.82681,-1e-5 -36.41048,-112.05995 z"
         inkscape:randomized="0"
         inkscape:rounded="0"
         inkscape:flatsided="true"
         sodipodi:arg2="-0.9424778"
         sodipodi:arg1="-1.5707963"
         sodipodi:r2="103.55418"
         sodipodi:r1="100.22947"
         sodipodi:cy="256"
         sodipodi:cx="256"
         sodipodi:sides="5"
         id="path3952-6"
         style="color:#000000;fill:#000000;fill-opacity:1;stroke:none;stroke-width:20;marker:none;visibility:visible;display:inline;overflow:visible;enable-background:accumulate"
         sodipodi:type="star" />
      <path
         id="path2998-6-2-6-7"
         d="m 985.893,366.8845 -161.125,117.0625 61.53125,189.40625 199.18755,0 L 1147.018,483.947 985.893,366.8845 z m 0,57.96875 106,77 -40.5,124.59375 -131,0 -40.5,-124.59375 106,-77 z"
         style="color:#000000;fill:#000000;fill-opacity:0.14901961;fill-rule:nonzero;stroke:none;stroke-width:1;marker:none;visibility:visible;display:inline;overflow:visible;enable-background:accumulate"
         inkscape:connector-curvature="0" />
      <path
         id="path2998-6-2-6"
         d="m 975,362.95593 -161.125,117.0625 61.53125,189.40625 199.18755,0 L 1136.125,480.01843 975,362.95593 z m 0,57.96875 106,77 -40.5,124.59375 -131,0 -40.5,-124.59375 106,-77 z"
         style="color:#000000;fill:#454544;fill-opacity:1;fill-rule:nonzero;stroke:none;stroke-width:1;marker:none;visibility:visible;display:inline;overflow:visible;enable-background:accumulate"
         inkscape:connector-curvature="0" />
      <path
         inkscape:connector-curvature="0"
         id="path2998-6-2"
         d="m 975,362.95593 -161.125,117.0625 61.53125,189.40625 20.9375,0 L 837.125,487.17468 991.5625,374.98718 975,362.95593 z m 23.25,65.125 -6.6875,4.875 89.4375,64.96875 -40.5,124.59375 -110.0625,0 2.3125,7.15625 131,0 40.5,-124.59375 -106,-77 z"
         style="color:#000000;fill:#838383;fill-opacity:0.35294118;fill-rule:nonzero;stroke:none;stroke-width:1;marker:none;visibility:visible;display:inline;overflow:visible;enable-background:accumulate" />
      <path
         inkscape:transform-center-y="-12.222912"
         transform="translate(719.00022,276.36218)"
         d="M 255.68611,88.694249 415.02023,204.00115 354.5938,391.16869 157.91409,391.5377 96.785776,204.59821 z"
         inkscape:randomized="0"
         inkscape:rounded="0"
         inkscape:flatsided="true"
         sodipodi:arg2="-0.94435396"
         sodipodi:arg1="-1.5726725"
         sodipodi:r2="103.55418"
         sodipodi:r1="167.30605"
         sodipodi:cy="256"
         sodipodi:cx="256"
         sodipodi:sides="5"
         id="path3939"
         style="color:#000000;fill:none;stroke:#000000;stroke-width:18;stroke-linejoin:round;stroke-miterlimit:4;stroke-opacity:0.19607843;stroke-dasharray:none;marker:none;visibility:visible;display:inline;overflow:visible;enable-background:accumulate"
         sodipodi:type="star" />
      <path
         inkscape:transform-center-y="-12.222912"
         transform="translate(718.99977,276.36218)"
         d="m 256,144.1541 106.37177,77.28362 -40.6304,125.04752 -131.48274,-10e-6 -40.6304,-125.04752 z"
         inkscape:randomized="0"
         inkscape:rounded="0"
         inkscape:flatsided="true"
         sodipodi:arg2="-0.9424778"
         sodipodi:arg1="-1.5707963"
         sodipodi:r2="103.55418"
         sodipodi:r1="111.8459"
         sodipodi:cy="256"
         sodipodi:cx="256"
         sodipodi:sides="5"
         id="path3952"
         style="color:#000000;fill:none;stroke:#000000;stroke-width:20;stroke-linecap:butt;stroke-linejoin:round;stroke-miterlimit:4;stroke-opacity:0.19607843;stroke-dasharray:none;stroke-dashoffset:0;marker:none;visibility:visible;display:inline;overflow:visible;enable-background:accumulate"
         sodipodi:type="star" />
      <path
         inkscape:connector-curvature="0"
         id="path3952-6-3"
         d="m 975.0005,432.14343 -95.3125,69.25 36.40625,112.0625 117.81255,0 36.4062,-112.0625 -95.3125,-69.25 z m 0,22.59375 c 8.37116,0 16.73977,8.29332 39.5625,24.875 45.6455,33.16337 41.9038,21.59054 24.4688,75.25 -17.4351,53.65946 -7.6104,46.5 -64.0313,46.5 -56.42089,0 -46.59623,7.15946 -64.03125,-46.5 -17.43502,-53.65946 -21.17671,-42.08663 24.46875,-75.25 22.82273,-16.58168 31.19134,-24.875 39.5625,-24.875 z"
         style="color:#000000;fill:#ffffff;fill-opacity:0.10196078;stroke:none;stroke-width:20;marker:none;visibility:visible;display:inline;overflow:visible;enable-background:accumulate" />
    </g>
  </g>
</svg>
