<?xml version="1.0" encoding="UTF-8" standalone="no"?>
<!-- Created with Inkscape (http://www.inkscape.org/) -->

<svg
   xmlns:dc="http://purl.org/dc/elements/1.1/"
   xmlns:cc="http://creativecommons.org/ns#"
   xmlns:rdf="http://www.w3.org/1999/02/22-rdf-syntax-ns#"
   xmlns:svg="http://www.w3.org/2000/svg"
   xmlns="http://www.w3.org/2000/svg"
   xmlns:sodipodi="http://sodipodi.sourceforge.net/DTD/sodipodi-0.dtd"
   xmlns:inkscape="http://www.inkscape.org/namespaces/inkscape"
   width="512"
   height="512"
   id="svg2"
   version="1.1"
   inkscape:version="0.48.4 r9939"
   sodipodi:docname="rivetblock.svg"
   inkscape:export-filename="/home/ben/Dropbox/minecraft/svg/machineblock.png"
   inkscape:export-xdpi="360"
   inkscape:export-ydpi="360">
  <defs
     id="defs4" />
  <sodipodi:namedview
     id="base"
     pagecolor="#ffffff"
     bordercolor="#666666"
     borderopacity="1.0"
     inkscape:pageopacity="0.0"
     inkscape:pageshadow="2"
     inkscape:zoom="0.70710678"
     inkscape:cx="136.18926"
     inkscape:cy="349.06584"
     inkscape:document-units="px"
     inkscape:current-layer="layer1"
     showgrid="false"
     inkscape:window-width="1301"
     inkscape:window-height="744"
     inkscape:window-x="65"
     inkscape:window-y="24"
     inkscape:window-maximized="1"
     fit-margin-top="0"
     fit-margin-left="0"
     fit-margin-right="0"
     fit-margin-bottom="0">
    <inkscape:grid
       type="xygrid"
       id="grid2996"
       empspacing="128"
       visible="true"
       enabled="true"
       snapvisiblegridlinesonly="true"
       originx="-284.42856px"
       originy="428.42859px" />
  </sodipodi:namedview>
  <metadata
     id="metadata7">
    <rdf:RDF>
      <cc:Work
         rdf:about="">
        <dc:format>image/svg+xml</dc:format>
        <dc:type
           rdf:resource="http://purl.org/dc/dcmitype/StillImage" />
        <dc:title></dc:title>
      </cc:Work>
    </rdf:RDF>
  </metadata>
  <g
     inkscape:label="Layer 1"
     inkscape:groupmode="layer"
     id="layer1"
     transform="translate(-284.42856,-968.79077)">
    <rect
       style="color:#000000;fill:#ff5e28;fill-opacity:1;fill-rule:nonzero;stroke:none;stroke-width:4;marker:none;visibility:visible;display:inline;overflow:visible;enable-background:accumulate"
       id="rect3014"
       width="512"
       height="512"
       x="284.42859"
       y="968.79077" />
    <path
       style="fill:#000000;fill-opacity:0.1372549;stroke:none"
       d="m 396.42857,1036.9158 a 11.883171,11.883171 0 0 0 -8.40625,3.4687 l -32,32 a 11.883171,11.883171 0 0 0 -3.46875,8.4063 l 0,288 a 11.883171,11.883171 0 0 0 3.46875,8.4062 l 32,32 a 11.883171,11.883171 0 0 0 8.40625,3.4688 l 287.96873,0 a 11.883171,11.883171 0 0 0 8.4063,-3.4688 l 32.0312,-32 a 11.883171,11.883171 0 0 0 3.4688,-8.4062 l 0,-288 a 11.883171,11.883171 0 0 0 -3.4688,-8.4063 l -32,-32 a 11.883171,11.883171 0 0 0 -8.4062,-3.4687 l -288.00003,0 z m 0,11.875 288.00003,0 32,32 0,288 -32.0313,32 -287.96873,0 -32,-32 0,-288 32,-32 z"
       id="path3085-4"
       inkscape:connector-curvature="0" />
    <path
       style="fill:#ffffff;fill-opacity:0.05490196;stroke:none"
       d="m 396.42856,1048.7908 -32,32 0,121.6875 154.21875,-153.6875 z m 205.4375,0 -237.4375,238.6875 0,70.25 310,-308.9375 z m 114.5625,71.2812 -279.1875,280.7188 165.1875,0 114,-114 z"
       id="path3085-8"
       inkscape:connector-curvature="0"
       sodipodi:nodetypes="ccccccccccccccc" />
    <path
       style="fill:#000000;fill-opacity:0.16470588;stroke:none"
       d="m 396.42856,1048.7908 -32,32 0,288 14,14 0,-288 32.00004,-32 288,0 -14,-14 -288.00004,0 z"
       id="path3085"
       inkscape:connector-curvature="0" />
    <path
       style="fill:#000000;fill-opacity:0.05882353;stroke:none"
       d="m 396.42856,1048.7908 -32,32 0,288 32,32 287.96874,0 32.0313,-32 0,-288 -32,-32 -288.00004,0 z m 6.71874,16.2187 274.5625,0 22.5,22.5 0,274.5625 -22.5312,22.5 -274.5313,0 -22.49999,-22.5 0,-274.5625 22.49999,-22.5 z"
       id="path3085-2"
       inkscape:connector-curvature="0" />
    <path
       style="fill:#ffffff;fill-opacity:0.41203703;stroke:none"
       d="m 716.4286,1080.7908 0,288 -32.0313,32 -287.96874,0 17.00004,17 287.9687,0 32.0313,-32 0,-288 -17,-17 z"
       id="path3085-5"
       inkscape:connector-curvature="0" />
    <path
       style="color:#000000;fill:#ffffff;fill-opacity:0.41176471;fill-rule:nonzero;stroke:none;stroke-width:25;marker:none;visibility:visible;display:inline;overflow:visible;enable-background:accumulate"
       d="m 284.42856,968.79077 0,512.00003 17,0 0,-495.00003 495.00004,0 0,-17 -512.00004,0 z"
       id="rect3933"
       inkscape:connector-curvature="0" />
    <path
       style="color:#000000;fill:#000000;fill-opacity:0.1372549;fill-rule:nonzero;stroke:none;stroke-width:25;marker:none;visibility:visible;display:inline;overflow:visible;enable-background:accumulate"
       d="m 284.42856,968.79077 0,512.00003 512.00004,0 0,-512.00003 -512.00004,0 z m 12,12 488.00004,0 0,488.00003 -488.00004,0 0,-488.00003 z"
       id="rect3933-3"
       inkscape:connector-curvature="0" />
    <path
       sodipodi:type="arc"
       style="color:#000000;fill:#000000;fill-opacity:0.15686275;fill-rule:nonzero;stroke:none;stroke-width:25;marker:none;visibility:visible;display:inline;overflow:visible;enable-background:accumulate"
       id="path3990"
       sodipodi:cx="173.32954"
       sodipodi:cy="39.387505"
       sodipodi:rx="27.135223"
       sodipodi:ry="28.019106"
       d="m 200.46477,39.387505 c 0,15.474524 -12.14886,28.019105 -27.13523,28.019105 -14.98637,0 -27.13522,-12.544581 -27.13522,-28.019105 0,-15.474525 12.14885,-28.019106 27.13522,-28.019106 14.98637,0 27.13523,12.544581 27.13523,28.019106 z"
       transform="matrix(0.95816421,0,0,0.92793825,292.35039,972.2416)" />
    <path
       sodipodi:type="arc"
       style="color:#000000;fill:#ffffff;fill-opacity:0.43137255;fill-rule:nonzero;stroke:none;stroke-width:25;marker:none;visibility:visible;display:inline;overflow:visible;enable-background:accumulate"
       id="path3988"
       sodipodi:cx="173.90407"
       sodipodi:cy="39.873642"
       sodipodi:rx="10.297242"
       sodipodi:ry="10.208854"
       d="m 184.20131,39.873642 c 0,5.638194 -4.61023,10.208854 -10.29724,10.208854 -5.68701,0 -10.29724,-4.57066 -10.29724,-10.208854 0,-5.638194 4.61023,-10.208854 10.29724,-10.208854 5.68701,0 10.29724,4.57066 10.29724,10.208854 z"
       transform="matrix(0.97113381,0,0,0.9795419,289.54443,969.73287)" />
    <path
       sodipodi:type="arc"
       style="color:#000000;fill:#000000;fill-opacity:0.15686275;fill-rule:nonzero;stroke:none;stroke-width:25;marker:none;visibility:visible;display:inline;overflow:visible;enable-background:accumulate"
       id="path3990-2"
       sodipodi:cx="173.32954"
       sodipodi:cy="39.387505"
       sodipodi:rx="27.135223"
       sodipodi:ry="28.019106"
       d="m 200.46477,39.387505 c 0,15.474524 -12.14886,28.019105 -27.13523,28.019105 -14.98637,0 -27.13522,-12.544581 -27.13522,-28.019105 0,-15.474525 12.14885,-28.019106 27.13522,-28.019106 14.98637,0 27.13523,12.544581 27.13523,28.019106 z"
       transform="matrix(0.95816421,0,0,0.92793825,448.3504,974.2416)" />
    <path
       sodipodi:type="arc"
       style="color:#000000;fill:#ffffff;fill-opacity:0.43137255;fill-rule:nonzero;stroke:none;stroke-width:25;marker:none;visibility:visible;display:inline;overflow:visible;enable-background:accumulate"
       id="path3988-5"
       sodipodi:cx="173.90407"
       sodipodi:cy="39.873642"
       sodipodi:rx="10.297242"
       sodipodi:ry="10.208854"
       d="m 184.20131,39.873642 c 0,5.638194 -4.61023,10.208854 -10.29724,10.208854 -5.68701,0 -10.29724,-4.57066 -10.29724,-10.208854 0,-5.638194 4.61023,-10.208854 10.29724,-10.208854 5.68701,0 10.29724,4.57066 10.29724,10.208854 z"
       transform="matrix(0.97113381,0,0,0.9795419,445.5444,971.73287)" />
    <path
       sodipodi:type="arc"
       style="color:#000000;fill:#000000;fill-opacity:0.15686275;fill-rule:nonzero;stroke:none;stroke-width:25;marker:none;visibility:visible;display:inline;overflow:visible;enable-background:accumulate"
       id="path3990-9"
       sodipodi:cx="173.32954"
       sodipodi:cy="39.387505"
       sodipodi:rx="27.135223"
       sodipodi:ry="28.019106"
       d="m 200.46477,39.387505 c 0,15.474524 -12.14886,28.019105 -27.13523,28.019105 -14.98637,0 -27.13522,-12.544581 -27.13522,-28.019105 0,-15.474525 12.14885,-28.019106 27.13522,-28.019106 14.98637,0 27.13523,12.544581 27.13523,28.019106 z"
       transform="matrix(0.95816421,0,0,0.92793825,578.3504,990.2416)" />
    <path
       sodipodi:type="arc"
       style="color:#000000;fill:#ffffff;fill-opacity:0.43137255;fill-rule:nonzero;stroke:none;stroke-width:25;marker:none;visibility:visible;display:inline;overflow:visible;enable-background:accumulate"
       id="path3988-6"
       sodipodi:cx="173.90407"
       sodipodi:cy="39.873642"
       sodipodi:rx="10.297242"
       sodipodi:ry="10.208854"
       d="m 184.20131,39.873642 c 0,5.638194 -4.61023,10.208854 -10.29724,10.208854 -5.68701,0 -10.29724,-4.57066 -10.29724,-10.208854 0,-5.638194 4.61023,-10.208854 10.29724,-10.208854 5.68701,0 10.29724,4.57066 10.29724,10.208854 z"
       transform="matrix(0.97113381,0,0,0.9795419,575.5444,987.73287)" />
    <path
       sodipodi:type="arc"
       style="color:#000000;fill:#000000;fill-opacity:0.15686275;fill-rule:nonzero;stroke:none;stroke-width:25;marker:none;visibility:visible;display:inline;overflow:visible;enable-background:accumulate"
       id="path3990-5"
       sodipodi:cx="173.32954"
       sodipodi:cy="39.387505"
       sodipodi:rx="27.135223"
       sodipodi:ry="28.019106"
       d="m 200.46477,39.387505 c 0,15.474524 -12.14886,28.019105 -27.13523,28.019105 -14.98637,0 -27.13522,-12.544581 -27.13522,-28.019105 0,-15.474525 12.14885,-28.019106 27.13522,-28.019106 14.98637,0 27.13523,12.544581 27.13523,28.019106 z"
       transform="matrix(0.95816421,0,0,0.92793825,594.3504,1136.2416)" />
    <path
       sodipodi:type="arc"
       style="color:#000000;fill:#ffffff;fill-opacity:0.43137255;fill-rule:nonzero;stroke:none;stroke-width:25;marker:none;visibility:visible;display:inline;overflow:visible;enable-background:accumulate"
       id="path3988-7"
       sodipodi:cx="173.90407"
       sodipodi:cy="39.873642"
       sodipodi:rx="10.297242"
       sodipodi:ry="10.208854"
       d="m 184.20131,39.873642 c 0,5.638194 -4.61023,10.208854 -10.29724,10.208854 -5.68701,0 -10.29724,-4.57066 -10.29724,-10.208854 0,-5.638194 4.61023,-10.208854 10.29724,-10.208854 5.68701,0 10.29724,4.57066 10.29724,10.208854 z"
       transform="matrix(0.97113381,0,0,0.9795419,591.5444,1133.7328)" />
    <path
       sodipodi:type="arc"
       style="color:#000000;fill:#000000;fill-opacity:0.15686275;fill-rule:nonzero;stroke:none;stroke-width:25;marker:none;visibility:visible;display:inline;overflow:visible;enable-background:accumulate"
       id="path3990-0"
       sodipodi:cx="173.32954"
       sodipodi:cy="39.387505"
       sodipodi:rx="27.135223"
       sodipodi:ry="28.019106"
       d="m 200.46477,39.387505 c 0,15.474524 -12.14886,28.019105 -27.13523,28.019105 -14.98637,0 -27.13522,-12.544581 -27.13522,-28.019105 0,-15.474525 12.14885,-28.019106 27.13522,-28.019106 14.98637,0 27.13523,12.544581 27.13523,28.019106 z"
       transform="matrix(0.95816421,0,0,0.92793825,594.3504,1260.2416)" />
    <path
       sodipodi:type="arc"
       style="color:#000000;fill:#ffffff;fill-opacity:0.43137255;fill-rule:nonzero;stroke:none;stroke-width:25;marker:none;visibility:visible;display:inline;overflow:visible;enable-background:accumulate"
       id="path3988-8"
       sodipodi:cx="173.90407"
       sodipodi:cy="39.873642"
       sodipodi:rx="10.297242"
       sodipodi:ry="10.208854"
       d="m 184.20131,39.873642 c 0,5.638194 -4.61023,10.208854 -10.29724,10.208854 -5.68701,0 -10.29724,-4.57066 -10.29724,-10.208854 0,-5.638194 4.61023,-10.208854 10.29724,-10.208854 5.68701,0 10.29724,4.57066 10.29724,10.208854 z"
       transform="matrix(0.97113381,0,0,0.9795419,591.5444,1257.7329)" />
    <path
       sodipodi:type="arc"
       style="color:#000000;fill:#000000;fill-opacity:0.15686275;fill-rule:nonzero;stroke:none;stroke-width:25;marker:none;visibility:visible;display:inline;overflow:visible;enable-background:accumulate"
       id="path3990-6"
       sodipodi:cx="173.32954"
       sodipodi:cy="39.387505"
       sodipodi:rx="27.135223"
       sodipodi:ry="28.019106"
       d="m 200.46477,39.387505 c 0,15.474524 -12.14886,28.019105 -27.13523,28.019105 -14.98637,0 -27.13522,-12.544581 -27.13522,-28.019105 0,-15.474525 12.14885,-28.019106 27.13522,-28.019106 14.98637,0 27.13523,12.544581 27.13523,28.019106 z"
       transform="matrix(0.95816421,0,0,0.92793825,572.3504,1394.2416)" />
    <path
       sodipodi:type="arc"
       style="color:#000000;fill:#ffffff;fill-opacity:0.43137255;fill-rule:nonzero;stroke:none;stroke-width:25;marker:none;visibility:visible;display:inline;overflow:visible;enable-background:accumulate"
       id="path3988-0"
       sodipodi:cx="173.90407"
       sodipodi:cy="39.873642"
       sodipodi:rx="10.297242"
       sodipodi:ry="10.208854"
       d="m 184.20131,39.873642 c 0,5.638194 -4.61023,10.208854 -10.29724,10.208854 -5.68701,0 -10.29724,-4.57066 -10.29724,-10.208854 0,-5.638194 4.61023,-10.208854 10.29724,-10.208854 5.68701,0 10.29724,4.57066 10.29724,10.208854 z"
       transform="matrix(0.97113381,0,0,0.9795419,569.5444,1391.7329)" />
    <path
       sodipodi:type="arc"
       style="color:#000000;fill:#000000;fill-opacity:0.15686275;fill-rule:nonzero;stroke:none;stroke-width:25;marker:none;visibility:visible;display:inline;overflow:visible;enable-background:accumulate"
       id="path3990-7"
       sodipodi:cx="173.32954"
       sodipodi:cy="39.387505"
       sodipodi:rx="27.135223"
       sodipodi:ry="28.019106"
       d="m 200.46477,39.387505 c 0,15.474524 -12.14886,28.019105 -27.13523,28.019105 -14.98637,0 -27.13522,-12.544581 -27.13522,-28.019105 0,-15.474525 12.14885,-28.019106 27.13522,-28.019106 14.98637,0 27.13523,12.544581 27.13523,28.019106 z"
       transform="matrix(0.95816421,0,0,0.92793825,454.3504,1410.2416)" />
    <path
       sodipodi:type="arc"
       style="color:#000000;fill:#ffffff;fill-opacity:0.43137255;fill-rule:nonzero;stroke:none;stroke-width:25;marker:none;visibility:visible;display:inline;overflow:visible;enable-background:accumulate"
       id="path3988-1"
       sodipodi:cx="173.90407"
       sodipodi:cy="39.873642"
       sodipodi:rx="10.297242"
       sodipodi:ry="10.208854"
       d="m 184.20131,39.873642 c 0,5.638194 -4.61023,10.208854 -10.29724,10.208854 -5.68701,0 -10.29724,-4.57066 -10.29724,-10.208854 0,-5.638194 4.61023,-10.208854 10.29724,-10.208854 5.68701,0 10.29724,4.57066 10.29724,10.208854 z"
       transform="matrix(0.97113381,0,0,0.9795419,451.5444,1407.7329)" />
    <path
       sodipodi:type="arc"
       style="color:#000000;fill:#000000;fill-opacity:0.15686275;fill-rule:nonzero;stroke:none;stroke-width:25;marker:none;visibility:visible;display:inline;overflow:visible;enable-background:accumulate"
       id="path3990-63"
       sodipodi:cx="173.32954"
       sodipodi:cy="39.387505"
       sodipodi:rx="27.135223"
       sodipodi:ry="28.019106"
       d="m 200.46477,39.387505 c 0,15.474524 -12.14886,28.019105 -27.13523,28.019105 -14.98637,0 -27.13522,-12.544581 -27.13522,-28.019105 0,-15.474525 12.14885,-28.019106 27.13522,-28.019106 14.98637,0 27.13523,12.544581 27.13523,28.019106 z"
       transform="matrix(0.95816421,0,0,0.92793825,308.35039,1408.2416)" />
    <path
       sodipodi:type="arc"
       style="color:#000000;fill:#ffffff;fill-opacity:0.43137255;fill-rule:nonzero;stroke:none;stroke-width:25;marker:none;visibility:visible;display:inline;overflow:visible;enable-background:accumulate"
       id="path3988-60"
       sodipodi:cx="173.90407"
       sodipodi:cy="39.873642"
       sodipodi:rx="10.297242"
       sodipodi:ry="10.208854"
       d="m 184.20131,39.873642 c 0,5.638194 -4.61023,10.208854 -10.29724,10.208854 -5.68701,0 -10.29724,-4.57066 -10.29724,-10.208854 0,-5.638194 4.61023,-10.208854 10.29724,-10.208854 5.68701,0 10.29724,4.57066 10.29724,10.208854 z"
       transform="matrix(0.97113381,0,0,0.9795419,305.54443,1405.7329)" />
    <path
       sodipodi:type="arc"
       style="color:#000000;fill:#000000;fill-opacity:0.15686275;fill-rule:nonzero;stroke:none;stroke-width:25;marker:none;visibility:visible;display:inline;overflow:visible;enable-background:accumulate"
       id="path3990-8"
       sodipodi:cx="173.32954"
       sodipodi:cy="39.387505"
       sodipodi:rx="27.135223"
       sodipodi:ry="28.019106"
       d="m 200.46477,39.387505 c 0,15.474524 -12.14886,28.019105 -27.13523,28.019105 -14.98637,0 -27.13522,-12.544581 -27.13522,-28.019105 0,-15.474525 12.14885,-28.019106 27.13522,-28.019106 14.98637,0 27.13523,12.544581 27.13523,28.019106 z"
       transform="matrix(0.95816421,0,0,0.92793825,172.35039,1390.2416)" />
    <path
       sodipodi:type="arc"
       style="color:#000000;fill:#ffffff;fill-opacity:0.43137255;fill-rule:nonzero;stroke:none;stroke-width:25;marker:none;visibility:visible;display:inline;overflow:visible;enable-background:accumulate"
       id="path3988-18"
       sodipodi:cx="173.90407"
       sodipodi:cy="39.873642"
       sodipodi:rx="10.297242"
       sodipodi:ry="10.208854"
       d="m 184.20131,39.873642 c 0,5.638194 -4.61023,10.208854 -10.29724,10.208854 -5.68701,0 -10.29724,-4.57066 -10.29724,-10.208854 0,-5.638194 4.61023,-10.208854 10.29724,-10.208854 5.68701,0 10.29724,4.57066 10.29724,10.208854 z"
       transform="matrix(0.97113381,0,0,0.9795419,169.54443,1387.7329)" />
    <path
       sodipodi:type="arc"
       style="color:#000000;fill:#000000;fill-opacity:0.15686275;fill-rule:nonzero;stroke:none;stroke-width:25;marker:none;visibility:visible;display:inline;overflow:visible;enable-background:accumulate"
       id="path3990-78"
       sodipodi:cx="173.32954"
       sodipodi:cy="39.387505"
       sodipodi:rx="27.135223"
       sodipodi:ry="28.019106"
       d="m 200.46477,39.387505 c 0,15.474524 -12.14886,28.019105 -27.13523,28.019105 -14.98637,0 -27.13522,-12.544581 -27.13522,-28.019105 0,-15.474525 12.14885,-28.019106 27.13522,-28.019106 14.98637,0 27.13523,12.544581 27.13523,28.019106 z"
       transform="matrix(0.95816421,0,0,0.92793825,162.35039,1262.2416)" />
    <path
       sodipodi:type="arc"
       style="color:#000000;fill:#ffffff;fill-opacity:0.43137255;fill-rule:nonzero;stroke:none;stroke-width:25;marker:none;visibility:visible;display:inline;overflow:visible;enable-background:accumulate"
       id="path3988-3"
       sodipodi:cx="173.90407"
       sodipodi:cy="39.873642"
       sodipodi:rx="10.297242"
       sodipodi:ry="10.208854"
       d="m 184.20131,39.873642 c 0,5.638194 -4.61023,10.208854 -10.29724,10.208854 -5.68701,0 -10.29724,-4.57066 -10.29724,-10.208854 0,-5.638194 4.61023,-10.208854 10.29724,-10.208854 5.68701,0 10.29724,4.57066 10.29724,10.208854 z"
       transform="matrix(0.97113381,0,0,0.9795419,159.54443,1259.7329)" />
    <path
       sodipodi:type="arc"
       style="color:#000000;fill:#000000;fill-opacity:0.15686275;fill-rule:nonzero;stroke:none;stroke-width:25;marker:none;visibility:visible;display:inline;overflow:visible;enable-background:accumulate"
       id="path3990-3"
       sodipodi:cx="173.32954"
       sodipodi:cy="39.387505"
       sodipodi:rx="27.135223"
       sodipodi:ry="28.019106"
       d="m 200.46477,39.387505 c 0,15.474524 -12.14886,28.019105 -27.13523,28.019105 -14.98637,0 -27.13522,-12.544581 -27.13522,-28.019105 0,-15.474525 12.14885,-28.019106 27.13522,-28.019106 14.98637,0 27.13523,12.544581 27.13523,28.019106 z"
       transform="matrix(0.95816421,0,0,0.92793825,162.35039,1134.2416)" />
    <path
       sodipodi:type="arc"
       style="color:#000000;fill:#ffffff;fill-opacity:0.43137255;fill-rule:nonzero;stroke:none;stroke-width:25;marker:none;visibility:visible;display:inline;overflow:visible;enable-background:accumulate"
       id="path3988-2"
       sodipodi:cx="173.90407"
       sodipodi:cy="39.873642"
       sodipodi:rx="10.297242"
       sodipodi:ry="10.208854"
       d="m 184.20131,39.873642 c 0,5.638194 -4.61023,10.208854 -10.29724,10.208854 -5.68701,0 -10.29724,-4.57066 -10.29724,-10.208854 0,-5.638194 4.61023,-10.208854 10.29724,-10.208854 5.68701,0 10.29724,4.57066 10.29724,10.208854 z"
       transform="matrix(0.97113381,0,0,0.9795419,159.54443,1131.7329)" />
    <path
       sodipodi:type="arc"
       style="color:#000000;fill:#000000;fill-opacity:0.15686275;fill-rule:nonzero;stroke:none;stroke-width:25;marker:none;visibility:visible;display:inline;overflow:visible;enable-background:accumulate"
       id="path3990-72"
       sodipodi:cx="173.32954"
       sodipodi:cy="39.387505"
       sodipodi:rx="27.135223"
       sodipodi:ry="28.019106"
       d="m 200.46477,39.387505 c 0,15.474524 -12.14886,28.019105 -27.13523,28.019105 -14.98637,0 -27.13522,-12.544581 -27.13522,-28.019105 0,-15.474525 12.14885,-28.019106 27.13522,-28.019106 14.98637,0 27.13523,12.544581 27.13523,28.019106 z"
       transform="matrix(0.95816421,0,0,0.92793825,176.35039,992.2416)" />
    <path
       sodipodi:type="arc"
       style="color:#000000;fill:#ffffff;fill-opacity:0.43137255;fill-rule:nonzero;stroke:none;stroke-width:25;marker:none;visibility:visible;display:inline;overflow:visible;enable-background:accumulate"
       id="path3988-9"
       sodipodi:cx="173.90407"
       sodipodi:cy="39.873642"
       sodipodi:rx="10.297242"
       sodipodi:ry="10.208854"
       d="m 184.20131,39.873642 c 0,5.638194 -4.61023,10.208854 -10.29724,10.208854 -5.68701,0 -10.29724,-4.57066 -10.29724,-10.208854 0,-5.638194 4.61023,-10.208854 10.29724,-10.208854 5.68701,0 10.29724,4.57066 10.29724,10.208854 z"
       transform="matrix(0.97113381,0,0,0.9795419,173.54443,989.73287)" />
  </g>
</svg>
