<?xml version="1.0" encoding="UTF-8" standalone="no"?>
<!-- Created with Inkscape (http://www.inkscape.org/) -->

<svg
   xmlns:dc="http://purl.org/dc/elements/1.1/"
   xmlns:cc="http://creativecommons.org/ns#"
   xmlns:rdf="http://www.w3.org/1999/02/22-rdf-syntax-ns#"
   xmlns:svg="http://www.w3.org/2000/svg"
   xmlns="http://www.w3.org/2000/svg"
   xmlns:sodipodi="http://sodipodi.sourceforge.net/DTD/sodipodi-0.dtd"
   xmlns:inkscape="http://www.inkscape.org/namespaces/inkscape"
   width="512"
   height="512"
   id="svg2"
   version="1.1"
   inkscape:version="0.48.4 r9939"
   sodipodi:docname="CardboardBoxTop.svg"
   inkscape:export-filename="/home/ben/Dropbox/minecraft/svg/machineblock.png"
   inkscape:export-xdpi="360"
   inkscape:export-ydpi="360">
  <defs
     id="defs4" />
  <sodipodi:namedview
     id="base"
     pagecolor="#ffffff"
     bordercolor="#666666"
     borderopacity="1.0"
     inkscape:pageopacity="0.0"
     inkscape:pageshadow="2"
     inkscape:zoom="1"
     inkscape:cx="272.52025"
     inkscape:cy="253.72908"
     inkscape:document-units="px"
     inkscape:current-layer="layer1"
     showgrid="false"
     inkscape:window-width="1301"
     inkscape:window-height="744"
     inkscape:window-x="65"
     inkscape:window-y="24"
     inkscape:window-maximized="1"
     fit-margin-top="0"
     fit-margin-left="0"
     fit-margin-right="0"
     fit-margin-bottom="0">
    <inkscape:grid
       type="xygrid"
       id="grid2996"
       empspacing="8"
       visible="true"
       enabled="true"
       snapvisiblegridlinesonly="true"
       originx="0px"
       originy="0px" />
  </sodipodi:namedview>
  <metadata
     id="metadata7">
    <rdf:RDF>
      <cc:Work
         rdf:about="">
        <dc:format>image/svg+xml</dc:format>
        <dc:type
           rdf:resource="http://purl.org/dc/dcmitype/StillImage" />
        <dc:title></dc:title>
      </cc:Work>
    </rdf:RDF>
  </metadata>
  <g
     inkscape:label="Layer 1"
     inkscape:groupmode="layer"
     id="layer1"
     transform="translate(-284.42856,-968.79077)">
    <rect
       style="color:#000000;fill:#a48d6e;fill-opacity:1;fill-rule:nonzero;stroke:none;stroke-width:4;marker:none;visibility:visible;display:inline;overflow:visible;enable-background:accumulate"
       id="rect3063"
       width="512"
       height="512"
       x="284.42856"
       y="968.79077" />
    <rect
       style="color:#000000;fill:#000000;fill-opacity:1;fill-rule:nonzero;stroke:none;stroke-width:4;marker:none;visibility:visible;display:inline;overflow:visible;enable-background:accumulate;opacity:0.3"
       id="rect4019"
       width="512"
       height="512"
       x="0"
       y="0"
       transform="translate(284.42856,968.79077)" />
    <path
       transform="translate(284.42856,968.79077)"
       style="opacity:1;color:#000000;fill:#a48d6e;fill-opacity:1;fill-rule:nonzero;stroke:none;stroke-width:4;marker:none;visibility:visible;display:inline;overflow:visible;enable-background:accumulate;stroke-opacity:1"
       d="m 0,0 504,-8 8,256 -504,8 z"
       id="rect3997"
       inkscape:connector-curvature="0"
       sodipodi:nodetypes="ccccc" />
    <path
       style="opacity:1;color:#000000;fill:#a48d6e;fill-opacity:1;fill-rule:nonzero;stroke:none;stroke-width:4;marker:none;visibility:visible;display:inline;overflow:visible;enable-background:accumulate"
       d="m 284.42856,1232.7908 504,-8 8,256 -504,8 z"
       id="rect3997-9"
       inkscape:connector-curvature="0"
       sodipodi:nodetypes="ccccc" />
    <path
       style="color:#000000;fill:#000000;fill-opacity:1;fill-rule:nonzero;stroke:none;stroke-width:4;marker:none;visibility:visible;display:inline;overflow:visible;enable-background:accumulate;opacity:0.1"
       d="M 504 0 L 504 504 L 0 504 L 0 512 L 512 512 L 512 0 L 504 0 z "
       id="rect3063-9"
       transform="translate(284.42856,968.79077)" />
    <path
       style="color:#000000;fill:#000000;fill-opacity:1;fill-rule:nonzero;stroke:none;stroke-width:4;marker:none;visibility:visible;display:inline;overflow:visible;enable-background:accumulate;opacity:0.1"
       d="M 504 256 L 0 264 L 0.25 271.875 L 496 264 L 503.75 512.125 L 512 512 L 504 256 z "
       id="rect3997-9-7"
       transform="translate(284.42856,968.79077)" />
    <path
       style="color:#000000;fill:#000000;fill-opacity:1;fill-rule:nonzero;stroke:none;stroke-width:4;marker:none;visibility:visible;display:inline;overflow:visible;enable-background:accumulate;opacity:0.1"
       d="M 8.25 -0.125 L 0 0 L 8 256 L 512 248 L 511.75 240.125 L 16 248 L 8.25 -0.125 z "
       transform="translate(284.42856,968.79077)"
       id="rect3997-5" />
    <g
       id="g4113"
       transform="matrix(0,1,-1,0,1753.8599,684.36219)">
      <path
         id="path3859"
         d="m 284.42854,979.94704 0,104.37506 114.56254,-78.7188 -114.56254,-25.65626 z m 512.00004,23.90626 -39.6563,37.1249 39.6563,64.4375 0,-101.5624 z m -512.00004,126.8124 0,74.1564 110.31254,-43.6564 -110.31254,-30.5 z m 512.00004,62.2814 -140.0625,13.5 140.0625,104.5 0,-118 z m -512.00004,57.6561 0,183.0313 70.71874,-34.875 -70.71874,-148.1563 z m 512.00004,140.9063 -31.1563,42.625 31.1563,22.7812 0,-65.4062 z"
         style="opacity:0.1;fill:#000000;fill-opacity:1;stroke:none"
         inkscape:connector-curvature="0" />
      <path
         id="path3882"
         d="m 796.42855,986.50951 -28.34369,7.78125 28.34369,58.15634 0,-65.93759 z m -511.99999,38.06259 0,92.75 52.3125,-31.0939 -52.3125,-61.6562 z m 511.99999,143.0937 -69.34369,10.4688 69.34369,48.9687 0,-59.4375 z m -511.99999,24.1875 0,136.0313 35.34375,-98.8125 -35.34375,-37.2188 z m 511.99999,97.3125 -45.3125,72.8438 45.3125,38.6875 0,-111.5313 z"
         style="opacity:0.1;fill:#000000;fill-opacity:1;stroke:none"
         inkscape:connector-curvature="0" />
    </g>
    <rect
       style="opacity:0.10000000000000001;color:#000000;fill:#ffffff;fill-opacity:1;fill-rule:nonzero;stroke:none;stroke-width:4;marker:none;visibility:visible;display:inline;overflow:visible;enable-background:accumulate"
       id="rect4171"
       width="272"
       height="64"
       x="128"
       y="224"
       transform="translate(284.42856,968.79077)" />
  </g>
</svg>
