<?xml version="1.0" encoding="UTF-8" standalone="no"?>
<!-- Created with Inkscape (http://www.inkscape.org/) -->

<svg
   xmlns:dc="http://purl.org/dc/elements/1.1/"
   xmlns:cc="http://creativecommons.org/ns#"
   xmlns:rdf="http://www.w3.org/1999/02/22-rdf-syntax-ns#"
   xmlns:svg="http://www.w3.org/2000/svg"
   xmlns="http://www.w3.org/2000/svg"
   xmlns:sodipodi="http://sodipodi.sourceforge.net/DTD/sodipodi-0.dtd"
   xmlns:inkscape="http://www.inkscape.org/namespaces/inkscape"
   width="512"
   height="512"
   id="svg2"
   version="1.1"
   inkscape:version="0.48.4 r9939"
   sodipodi:docname="CardboardBoxSideStorage.svg"
   inkscape:export-filename="/home/ben/Dropbox/minecraft/svg/machineblock.png"
   inkscape:export-xdpi="360"
   inkscape:export-ydpi="360">
  <defs
     id="defs4" />
  <sodipodi:namedview
     id="base"
     pagecolor="#ffffff"
     bordercolor="#666666"
     borderopacity="1.0"
     inkscape:pageopacity="0.0"
     inkscape:pageshadow="2"
     inkscape:zoom="1.4142136"
     inkscape:cx="223.34418"
     inkscape:cy="257.04862"
     inkscape:document-units="px"
     inkscape:current-layer="layer1"
     showgrid="true"
     inkscape:window-width="1301"
     inkscape:window-height="744"
     inkscape:window-x="65"
     inkscape:window-y="24"
     inkscape:window-maximized="1"
     fit-margin-top="0"
     fit-margin-left="0"
     fit-margin-right="0"
     fit-margin-bottom="0">
    <inkscape:grid
       type="xygrid"
       id="grid2996"
       empspacing="8"
       visible="true"
       enabled="true"
       snapvisiblegridlinesonly="true"
       originx="0px"
       originy="0px" />
  </sodipodi:namedview>
  <metadata
     id="metadata7">
    <rdf:RDF>
      <cc:Work
         rdf:about="">
        <dc:format>image/svg+xml</dc:format>
        <dc:type
           rdf:resource="http://purl.org/dc/dcmitype/StillImage" />
        <dc:title></dc:title>
      </cc:Work>
    </rdf:RDF>
  </metadata>
  <g
     inkscape:label="Layer 1"
     inkscape:groupmode="layer"
     id="layer1"
     transform="translate(-284.42856,-968.79077)">
    <rect
       style="color:#000000;fill:#a48d6e;fill-opacity:1;fill-rule:nonzero;stroke:none;stroke-width:4;marker:none;visibility:visible;display:inline;overflow:visible;enable-background:accumulate"
       id="rect3063"
       width="512"
       height="512"
       x="284.42856"
       y="968.79077" />
    <path
       style="color:#000000;fill:#000000;fill-opacity:1;fill-rule:nonzero;stroke:none;stroke-width:4;marker:none;visibility:visible;display:inline;overflow:visible;enable-background:accumulate;opacity:0.1"
       d="M 504 0 L 504 504 L 0 504 L 0 512 L 512 512 L 512 0 L 504 0 z "
       transform="translate(284.42856,968.79077)"
       id="rect3063-9" />
    <path
       style="fill:#000000;stroke:none;stroke-width:1px;stroke-linecap:butt;stroke-linejoin:miter;stroke-opacity:1;fill-opacity:1;opacity:0.1"
       d="M 0 11.15625 L 0 115.53125 L 114.5625 36.8125 L 0 11.15625 z M 512 35.0625 L 472.34375 72.1875 L 512 136.625 L 512 35.0625 z M 0 161.875 L 0 236.03125 L 110.3125 192.375 L 0 161.875 z M 512 224.15625 L 371.9375 237.65625 L 512 342.15625 L 512 224.15625 z M 0 281.8125 L 0 464.84375 L 70.71875 429.96875 L 0 281.8125 z M 512 422.71875 L 480.84375 465.34375 L 512 488.125 L 512 422.71875 z "
       transform="translate(284.42856,968.79077)"
       id="path3859" />
    <path
       style="fill:#000000;stroke:none;stroke-width:1px;stroke-linecap:butt;stroke-linejoin:miter;stroke-opacity:1;fill-opacity:1;opacity:0.10000000000000001"
       d="M 512 17.71875 L 483.65625 25.5 L 512 83.65625 L 512 17.71875 z M 0 55.78125 L 0 148.53125 L 52.3125 117.4375 L 0 55.78125 z M 512 198.875 L 442.65625 209.34375 L 512 258.3125 L 512 198.875 z M 0 223.0625 L 0 359.09375 L 35.34375 260.28125 L 0 223.0625 z M 512 320.375 L 466.6875 393.21875 L 512 431.90625 L 512 320.375 z "
       transform="translate(284.42856,968.79077)"
       id="path3882" />
    <path
       style="fill:#3b3b3b;fill-opacity:1;stroke:none"
       d="m 372.42856,1456.7908 0,-64 -24,0 32,-32 32,32 -24,0 0,64 z"
       id="path3938"
       inkscape:connector-curvature="0"
       sodipodi:nodetypes="cccccccc" />
    <path
       style="fill:#3b3b3b;fill-opacity:1;stroke:none"
       d="m 692.42856,1456.7908 0,-64 -24,0 32,-32 32,32 -24,0 0,64 z"
       id="path3938-8"
       inkscape:connector-curvature="0"
       sodipodi:nodetypes="cccccccc" />
    <text
       xml:space="preserve"
       style="font-size:48px;font-style:normal;font-variant:normal;font-weight:500;font-stretch:normal;line-height:125%;letter-spacing:0px;word-spacing:0px;fill:#3b3b3b;fill-opacity:1;stroke:none;font-family:Orbitron;-inkscape-font-specification:Orbitron Medium"
       x="332.42856"
       y="1056.7908"
       id="text3958"
       sodipodi:linespacing="125%"><tspan
         sodipodi:role="line"
         id="tspan3960"
         x="332.42856"
         y="1056.7908">FRAGILE</tspan></text>
  </g>
</svg>
