<?xml version="1.0" encoding="UTF-8" standalone="no"?>
<!-- Created with Inkscape (http://www.inkscape.org/) -->

<svg
   xmlns:dc="http://purl.org/dc/elements/1.1/"
   xmlns:cc="http://creativecommons.org/ns#"
   xmlns:rdf="http://www.w3.org/1999/02/22-rdf-syntax-ns#"
   xmlns:svg="http://www.w3.org/2000/svg"
   xmlns="http://www.w3.org/2000/svg"
   xmlns:sodipodi="http://sodipodi.sourceforge.net/DTD/sodipodi-0.dtd"
   xmlns:inkscape="http://www.inkscape.org/namespaces/inkscape"
   width="512"
   height="512"
   id="svg2"
   version="1.1"
   inkscape:version="0.48.4 r9939"
   sodipodi:docname="EnergizedSmelterFrontOff.svg"
   inkscape:export-filename="/home/ben/Dropbox/minecraft/svg/machineblock.png"
   inkscape:export-xdpi="360"
   inkscape:export-ydpi="360">
  <defs
     id="defs4">
    <inkscape:path-effect
       effect="envelope"
       id="path-effect3929"
       is_visible="true"
       yy="true"
       xx="true"
       bendpath1="m 430.40517,1173.5111 70.15408,0"
       bendpath2="m 500.55925,1173.5111 0,123.7667"
       bendpath3="m 430.40517,1297.2778 70.15408,0"
       bendpath4="m 430.40517,1173.5111 0,123.7667" />
  </defs>
  <sodipodi:namedview
     id="base"
     pagecolor="#ffffff"
     bordercolor="#666666"
     borderopacity="1.0"
     inkscape:pageopacity="0.0"
     inkscape:pageshadow="2"
     inkscape:zoom="0.35355339"
     inkscape:cx="410.83403"
     inkscape:cy="163.90617"
     inkscape:document-units="px"
     inkscape:current-layer="layer1"
     showgrid="false"
     inkscape:window-width="1301"
     inkscape:window-height="744"
     inkscape:window-x="65"
     inkscape:window-y="24"
     inkscape:window-maximized="1"
     fit-margin-top="0"
     fit-margin-left="0"
     fit-margin-right="0"
     fit-margin-bottom="0">
    <inkscape:grid
       type="xygrid"
       id="grid2996"
       empspacing="16"
       visible="true"
       enabled="true"
       snapvisiblegridlinesonly="true"
       originx="0px"
       originy="0px" />
  </sodipodi:namedview>
  <metadata
     id="metadata7">
    <rdf:RDF>
      <cc:Work
         rdf:about="">
        <dc:format>image/svg+xml</dc:format>
        <dc:type
           rdf:resource="http://purl.org/dc/dcmitype/StillImage" />
        <dc:title></dc:title>
      </cc:Work>
    </rdf:RDF>
  </metadata>
  <g
     inkscape:label="Layer 1"
     inkscape:groupmode="layer"
     id="layer1"
     transform="translate(-284.42856,-968.79077)">
    <rect
       style="color:#000000;fill:#000000;fill-opacity:1;fill-rule:nonzero;stroke:none;stroke-width:20;marker:none;visibility:visible;display:inline;overflow:visible;enable-background:accumulate"
       id="rect4269"
       width="375"
       height="306"
       x="65"
       y="75"
       transform="translate(284.42856,968.79077)" />
    <g
       id="g3960">
      <path
         id="path3925"
         d="m 612.42856,1128.7908 0,16 -144,0 0,-16 16,-16 40,0 0,-144.00003 32,0 0,144.00003 40,0 z"
         style="fill:#ff0000;stroke:none" />
      <path
         d="m 604.42856,1120.7908 0,16 -136,0 0,8 144,0 0,-16 -8,-8 z m -56,-152.00003 0,136.00003 8,0 0,-136.00003 -8,0 z"
         style="fill:#000000;stroke:none;fill-opacity:0.19607843"
         id="path3935" />
      <path
         d="m 564.42856,1112.7908 0,8 40,0 -8,-8 -32,0 z m -40,-144.00003 0,144.00003 -40,0 -16,16 0,16 8,0 0,-8 16,-16 40,0 0,-144.00003 24,0 0,-8 -32,0 z"
         style="fill:#ffffff;stroke:none;fill-opacity:0.19607843"
         id="path3947" />
    </g>
    <g
       id="g3974">
      <path
         id="path3923"
         d="m 636.42856,1152.7908 -16,0 0,128 16,0 16,-16 0,-32 112,0 0,-32 -112,0 0,-32 z"
         style="fill:#ff0000;stroke:none" />
      <path
         d="m 756.42856,1200.7908 0,24 -112,0 0,32 -16,16 -8,0 0,8 16,0 16,-16 0,-32 112,0 0,-32 -8,0 z m -112,-40 0,32 8,0 0,-24 -8,-8 z"
         style="fill:#000000;stroke:none;fill-opacity:0.19607843"
         id="path3929" />
      <path
         d="m 660.42856,1200.7908 0,8 104,0 0,-8 -104,0 z m -40,-48 0,128 8,0 0,-120 16,0 -8,-8 -16,0 z"
         style="fill:#ffffff;stroke:none;fill-opacity:0.19607843"
         id="path3941" />
    </g>
    <g
       id="g3967">
      <path
         id="path3038-5-4"
         d="m 444.42856,1152.7908 16,0 0,128 -16,0 -16,-16 0,-32 -112,0 0,-32 112,0 0,-32 z"
         style="fill:#ff0000;stroke:none" />
      <path
         d="m 316.42856,1224.7908 0,8 104,0 0,-8 -104,0 z m 136,-72 0,120 -16,0 8,8 16,0 0,-128 -8,0 z"
         style="fill:#000000;stroke:none;fill-opacity:0.19607843"
         id="path3038-5" />
      <path
         d="m 428.42856,1240.7908 0,24 8,8 0,-32 -8,0 z m 16,-88 -16,16 0,32 -112,0 0,32 8,0 0,-24 112,0 0,-32 16,-16 8,0 0,-8 -16,0 z"
         style="fill:#ffffff;stroke:none;fill-opacity:0.19607843"
         id="path3038-5-5" />
    </g>
    <g
       id="g4271">
      <g
         id="g4215">
        <path
           id="rect3014"
           transform="translate(284.42856,968.79077)"
           d="M 0 0 L 0 512 L 512 512 L 512 0 L 0 0 z M 128 128 L 384 128 L 384 320 L 128 320 L 128 128 z "
           style="color:#000000;fill:#4d4d4d;fill-opacity:1;fill-rule:nonzero;stroke:none;stroke-width:4;marker:none;visibility:visible;display:inline;overflow:visible;enable-background:accumulate" />
        <path
           style="fill:#000000;fill-opacity:0.1372549;stroke:none"
           d="m 396.42857,1036.9158 a 11.883171,11.883171 0 0 0 -8.40625,3.4687 l -32,32 a 11.883171,11.883171 0 0 0 -3.46875,8.4063 l 0,288 a 11.883171,11.883171 0 0 0 3.46875,8.4062 l 32,32 a 11.883171,11.883171 0 0 0 8.40625,3.4688 l 287.96873,0 a 11.883171,11.883171 0 0 0 8.4063,-3.4688 l 32.0312,-32 a 11.883171,11.883171 0 0 0 3.4688,-8.4062 l 0,-288 a 11.883171,11.883171 0 0 0 -3.4688,-8.4063 l -32,-32 a 11.883171,11.883171 0 0 0 -8.4062,-3.4687 l -288.00003,0 z m 0,11.875 288.00003,0 32,32 0,288 -32.0313,32 -287.96873,0 -32,-32 0,-288 32,-32 z"
           id="path3085-4"
           inkscape:connector-curvature="0" />
        <path
           id="path3085-8"
           transform="translate(284.42856,968.79077)"
           d="M 112 80 L 80 112 L 80 233.6875 L 128 185.84375 L 128 128 L 186.0625 128 L 234.21875 80 L 112 80 z M 317.4375 80 L 269.6875 128 L 341.84375 128 L 390 80 L 317.4375 80 z M 432 151.28125 L 384 199.53125 L 384 320 L 264.1875 320 L 152.8125 432 L 318 432 L 432 318 L 432 151.28125 z M 128 270.4375 L 80 318.6875 L 80 388.9375 L 149.1875 320 L 128 320 L 128 270.4375 z "
           style="fill:#ffffff;fill-opacity:0.05490196;stroke:none" />
        <path
           style="fill:#000000;fill-opacity:0.16470588;stroke:none"
           d="m 396.42856,1048.7908 -32,32 0,288 14,14 0,-288 32.00004,-32 288,0 -14,-14 -288.00004,0 z"
           id="path3085"
           inkscape:connector-curvature="0" />
        <path
           style="fill:#000000;fill-opacity:0.05882353;stroke:none"
           d="m 396.42856,1048.7908 -32,32 0,288 32,32 287.96874,0 32.0313,-32 0,-288 -32,-32 -288.00004,0 z m 6.71874,16.2187 274.5625,0 22.5,22.5 0,274.5625 -22.5312,22.5 -274.5313,0 -22.49999,-22.5 0,-274.5625 22.49999,-22.5 z"
           id="path3085-2"
           inkscape:connector-curvature="0" />
        <path
           style="fill:#ffffff;fill-opacity:0.41203703;stroke:none"
           d="m 716.4286,1080.7908 0,288 -32.0313,32 -287.96874,0 17.00004,17 287.9687,0 32.0313,-32 0,-288 -17,-17 z"
           id="path3085-5"
           inkscape:connector-curvature="0" />
        <path
           style="color:#000000;fill:#ffffff;fill-opacity:0.41176471;fill-rule:nonzero;stroke:none;stroke-width:25;marker:none;visibility:visible;display:inline;overflow:visible;enable-background:accumulate"
           d="m 284.42856,968.79077 0,512.00003 17,0 0,-495.00003 495.00004,0 0,-17 -512.00004,0 z"
           id="rect3933"
           inkscape:connector-curvature="0" />
        <path
           style="color:#000000;fill:#000000;fill-opacity:0.1372549;fill-rule:nonzero;stroke:none;stroke-width:25;marker:none;visibility:visible;display:inline;overflow:visible;enable-background:accumulate"
           d="m 284.42856,968.79077 0,512.00003 512.00004,0 0,-512.00003 -512.00004,0 z m 12,12 488.00004,0 0,488.00003 -488.00004,0 0,-488.00003 z"
           id="rect3933-3"
           inkscape:connector-curvature="0" />
        <path
           sodipodi:type="arc"
           style="color:#000000;fill:#000000;fill-opacity:0.15686275;fill-rule:nonzero;stroke:none;stroke-width:25;marker:none;visibility:visible;display:inline;overflow:visible;enable-background:accumulate"
           id="path3990"
           sodipodi:cx="173.32954"
           sodipodi:cy="39.387505"
           sodipodi:rx="27.135223"
           sodipodi:ry="28.019106"
           d="m 200.46477,39.387505 c 0,15.474524 -12.14886,28.019105 -27.13523,28.019105 -14.98637,0 -27.13522,-12.544581 -27.13522,-28.019105 0,-15.474525 12.14885,-28.019106 27.13522,-28.019106 14.98637,0 27.13523,12.544581 27.13523,28.019106 z"
           transform="matrix(0.95816421,0,0,0.92793825,292.35039,972.2416)" />
        <path
           sodipodi:type="arc"
           style="color:#000000;fill:#ffffff;fill-opacity:0.43137255;fill-rule:nonzero;stroke:none;stroke-width:25;marker:none;visibility:visible;display:inline;overflow:visible;enable-background:accumulate"
           id="path3988"
           sodipodi:cx="173.90407"
           sodipodi:cy="39.873642"
           sodipodi:rx="10.297242"
           sodipodi:ry="10.208854"
           d="m 184.20131,39.873642 c 0,5.638194 -4.61023,10.208854 -10.29724,10.208854 -5.68701,0 -10.29724,-4.57066 -10.29724,-10.208854 0,-5.638194 4.61023,-10.208854 10.29724,-10.208854 5.68701,0 10.29724,4.57066 10.29724,10.208854 z"
           transform="matrix(0.97113381,0,0,0.9795419,289.54443,969.73287)" />
        <path
           sodipodi:type="arc"
           style="color:#000000;fill:#000000;fill-opacity:0.15686275;fill-rule:nonzero;stroke:none;stroke-width:25;marker:none;visibility:visible;display:inline;overflow:visible;enable-background:accumulate"
           id="path3990-2"
           sodipodi:cx="173.32954"
           sodipodi:cy="39.387505"
           sodipodi:rx="27.135223"
           sodipodi:ry="28.019106"
           d="m 200.46477,39.387505 c 0,15.474524 -12.14886,28.019105 -27.13523,28.019105 -14.98637,0 -27.13522,-12.544581 -27.13522,-28.019105 0,-15.474525 12.14885,-28.019106 27.13522,-28.019106 14.98637,0 27.13523,12.544581 27.13523,28.019106 z"
           transform="matrix(0.95816421,0,0,0.92793825,448.3504,974.2416)" />
        <path
           sodipodi:type="arc"
           style="color:#000000;fill:#ffffff;fill-opacity:0.43137255;fill-rule:nonzero;stroke:none;stroke-width:25;marker:none;visibility:visible;display:inline;overflow:visible;enable-background:accumulate"
           id="path3988-5"
           sodipodi:cx="173.90407"
           sodipodi:cy="39.873642"
           sodipodi:rx="10.297242"
           sodipodi:ry="10.208854"
           d="m 184.20131,39.873642 c 0,5.638194 -4.61023,10.208854 -10.29724,10.208854 -5.68701,0 -10.29724,-4.57066 -10.29724,-10.208854 0,-5.638194 4.61023,-10.208854 10.29724,-10.208854 5.68701,0 10.29724,4.57066 10.29724,10.208854 z"
           transform="matrix(0.97113381,0,0,0.9795419,445.5444,971.73287)" />
        <path
           sodipodi:type="arc"
           style="color:#000000;fill:#000000;fill-opacity:0.15686275;fill-rule:nonzero;stroke:none;stroke-width:25;marker:none;visibility:visible;display:inline;overflow:visible;enable-background:accumulate"
           id="path3990-9"
           sodipodi:cx="173.32954"
           sodipodi:cy="39.387505"
           sodipodi:rx="27.135223"
           sodipodi:ry="28.019106"
           d="m 200.46477,39.387505 c 0,15.474524 -12.14886,28.019105 -27.13523,28.019105 -14.98637,0 -27.13522,-12.544581 -27.13522,-28.019105 0,-15.474525 12.14885,-28.019106 27.13522,-28.019106 14.98637,0 27.13523,12.544581 27.13523,28.019106 z"
           transform="matrix(0.95816421,0,0,0.92793825,578.3504,990.2416)" />
        <path
           sodipodi:type="arc"
           style="color:#000000;fill:#ffffff;fill-opacity:0.43137255;fill-rule:nonzero;stroke:none;stroke-width:25;marker:none;visibility:visible;display:inline;overflow:visible;enable-background:accumulate"
           id="path3988-6"
           sodipodi:cx="173.90407"
           sodipodi:cy="39.873642"
           sodipodi:rx="10.297242"
           sodipodi:ry="10.208854"
           d="m 184.20131,39.873642 c 0,5.638194 -4.61023,10.208854 -10.29724,10.208854 -5.68701,0 -10.29724,-4.57066 -10.29724,-10.208854 0,-5.638194 4.61023,-10.208854 10.29724,-10.208854 5.68701,0 10.29724,4.57066 10.29724,10.208854 z"
           transform="matrix(0.97113381,0,0,0.9795419,575.5444,987.73287)" />
        <path
           sodipodi:type="arc"
           style="color:#000000;fill:#000000;fill-opacity:0.15686275;fill-rule:nonzero;stroke:none;stroke-width:25;marker:none;visibility:visible;display:inline;overflow:visible;enable-background:accumulate"
           id="path3990-5"
           sodipodi:cx="173.32954"
           sodipodi:cy="39.387505"
           sodipodi:rx="27.135223"
           sodipodi:ry="28.019106"
           d="m 200.46477,39.387505 c 0,15.474524 -12.14886,28.019105 -27.13523,28.019105 -14.98637,0 -27.13522,-12.544581 -27.13522,-28.019105 0,-15.474525 12.14885,-28.019106 27.13522,-28.019106 14.98637,0 27.13523,12.544581 27.13523,28.019106 z"
           transform="matrix(0.95816421,0,0,0.92793825,594.3504,1136.2416)" />
        <path
           sodipodi:type="arc"
           style="color:#000000;fill:#ffffff;fill-opacity:0.43137255;fill-rule:nonzero;stroke:none;stroke-width:25;marker:none;visibility:visible;display:inline;overflow:visible;enable-background:accumulate"
           id="path3988-7"
           sodipodi:cx="173.90407"
           sodipodi:cy="39.873642"
           sodipodi:rx="10.297242"
           sodipodi:ry="10.208854"
           d="m 184.20131,39.873642 c 0,5.638194 -4.61023,10.208854 -10.29724,10.208854 -5.68701,0 -10.29724,-4.57066 -10.29724,-10.208854 0,-5.638194 4.61023,-10.208854 10.29724,-10.208854 5.68701,0 10.29724,4.57066 10.29724,10.208854 z"
           transform="matrix(0.97113381,0,0,0.9795419,591.5444,1133.7328)" />
        <path
           sodipodi:type="arc"
           style="color:#000000;fill:#000000;fill-opacity:0.15686275;fill-rule:nonzero;stroke:none;stroke-width:25;marker:none;visibility:visible;display:inline;overflow:visible;enable-background:accumulate"
           id="path3990-0"
           sodipodi:cx="173.32954"
           sodipodi:cy="39.387505"
           sodipodi:rx="27.135223"
           sodipodi:ry="28.019106"
           d="m 200.46477,39.387505 c 0,15.474524 -12.14886,28.019105 -27.13523,28.019105 -14.98637,0 -27.13522,-12.544581 -27.13522,-28.019105 0,-15.474525 12.14885,-28.019106 27.13522,-28.019106 14.98637,0 27.13523,12.544581 27.13523,28.019106 z"
           transform="matrix(0.95816421,0,0,0.92793825,594.3504,1260.2416)" />
        <path
           sodipodi:type="arc"
           style="color:#000000;fill:#ffffff;fill-opacity:0.43137255;fill-rule:nonzero;stroke:none;stroke-width:25;marker:none;visibility:visible;display:inline;overflow:visible;enable-background:accumulate"
           id="path3988-8"
           sodipodi:cx="173.90407"
           sodipodi:cy="39.873642"
           sodipodi:rx="10.297242"
           sodipodi:ry="10.208854"
           d="m 184.20131,39.873642 c 0,5.638194 -4.61023,10.208854 -10.29724,10.208854 -5.68701,0 -10.29724,-4.57066 -10.29724,-10.208854 0,-5.638194 4.61023,-10.208854 10.29724,-10.208854 5.68701,0 10.29724,4.57066 10.29724,10.208854 z"
           transform="matrix(0.97113381,0,0,0.9795419,591.5444,1257.7329)" />
        <path
           sodipodi:type="arc"
           style="color:#000000;fill:#000000;fill-opacity:0.15686275;fill-rule:nonzero;stroke:none;stroke-width:25;marker:none;visibility:visible;display:inline;overflow:visible;enable-background:accumulate"
           id="path3990-6"
           sodipodi:cx="173.32954"
           sodipodi:cy="39.387505"
           sodipodi:rx="27.135223"
           sodipodi:ry="28.019106"
           d="m 200.46477,39.387505 c 0,15.474524 -12.14886,28.019105 -27.13523,28.019105 -14.98637,0 -27.13522,-12.544581 -27.13522,-28.019105 0,-15.474525 12.14885,-28.019106 27.13522,-28.019106 14.98637,0 27.13523,12.544581 27.13523,28.019106 z"
           transform="matrix(0.95816421,0,0,0.92793825,572.3504,1394.2416)" />
        <path
           sodipodi:type="arc"
           style="color:#000000;fill:#ffffff;fill-opacity:0.43137255;fill-rule:nonzero;stroke:none;stroke-width:25;marker:none;visibility:visible;display:inline;overflow:visible;enable-background:accumulate"
           id="path3988-0"
           sodipodi:cx="173.90407"
           sodipodi:cy="39.873642"
           sodipodi:rx="10.297242"
           sodipodi:ry="10.208854"
           d="m 184.20131,39.873642 c 0,5.638194 -4.61023,10.208854 -10.29724,10.208854 -5.68701,0 -10.29724,-4.57066 -10.29724,-10.208854 0,-5.638194 4.61023,-10.208854 10.29724,-10.208854 5.68701,0 10.29724,4.57066 10.29724,10.208854 z"
           transform="matrix(0.97113381,0,0,0.9795419,569.5444,1391.7329)" />
        <path
           sodipodi:type="arc"
           style="color:#000000;fill:#000000;fill-opacity:0.15686275;fill-rule:nonzero;stroke:none;stroke-width:25;marker:none;visibility:visible;display:inline;overflow:visible;enable-background:accumulate"
           id="path3990-7"
           sodipodi:cx="173.32954"
           sodipodi:cy="39.387505"
           sodipodi:rx="27.135223"
           sodipodi:ry="28.019106"
           d="m 200.46477,39.387505 c 0,15.474524 -12.14886,28.019105 -27.13523,28.019105 -14.98637,0 -27.13522,-12.544581 -27.13522,-28.019105 0,-15.474525 12.14885,-28.019106 27.13522,-28.019106 14.98637,0 27.13523,12.544581 27.13523,28.019106 z"
           transform="matrix(0.95816421,0,0,0.92793825,454.3504,1410.2416)" />
        <path
           sodipodi:type="arc"
           style="color:#000000;fill:#ffffff;fill-opacity:0.43137255;fill-rule:nonzero;stroke:none;stroke-width:25;marker:none;visibility:visible;display:inline;overflow:visible;enable-background:accumulate"
           id="path3988-1"
           sodipodi:cx="173.90407"
           sodipodi:cy="39.873642"
           sodipodi:rx="10.297242"
           sodipodi:ry="10.208854"
           d="m 184.20131,39.873642 c 0,5.638194 -4.61023,10.208854 -10.29724,10.208854 -5.68701,0 -10.29724,-4.57066 -10.29724,-10.208854 0,-5.638194 4.61023,-10.208854 10.29724,-10.208854 5.68701,0 10.29724,4.57066 10.29724,10.208854 z"
           transform="matrix(0.97113381,0,0,0.9795419,451.5444,1407.7329)" />
        <path
           sodipodi:type="arc"
           style="color:#000000;fill:#000000;fill-opacity:0.15686275;fill-rule:nonzero;stroke:none;stroke-width:25;marker:none;visibility:visible;display:inline;overflow:visible;enable-background:accumulate"
           id="path3990-63"
           sodipodi:cx="173.32954"
           sodipodi:cy="39.387505"
           sodipodi:rx="27.135223"
           sodipodi:ry="28.019106"
           d="m 200.46477,39.387505 c 0,15.474524 -12.14886,28.019105 -27.13523,28.019105 -14.98637,0 -27.13522,-12.544581 -27.13522,-28.019105 0,-15.474525 12.14885,-28.019106 27.13522,-28.019106 14.98637,0 27.13523,12.544581 27.13523,28.019106 z"
           transform="matrix(0.95816421,0,0,0.92793825,308.35039,1408.2416)" />
        <path
           sodipodi:type="arc"
           style="color:#000000;fill:#ffffff;fill-opacity:0.43137255;fill-rule:nonzero;stroke:none;stroke-width:25;marker:none;visibility:visible;display:inline;overflow:visible;enable-background:accumulate"
           id="path3988-60"
           sodipodi:cx="173.90407"
           sodipodi:cy="39.873642"
           sodipodi:rx="10.297242"
           sodipodi:ry="10.208854"
           d="m 184.20131,39.873642 c 0,5.638194 -4.61023,10.208854 -10.29724,10.208854 -5.68701,0 -10.29724,-4.57066 -10.29724,-10.208854 0,-5.638194 4.61023,-10.208854 10.29724,-10.208854 5.68701,0 10.29724,4.57066 10.29724,10.208854 z"
           transform="matrix(0.97113381,0,0,0.9795419,305.54443,1405.7329)" />
        <path
           sodipodi:type="arc"
           style="color:#000000;fill:#000000;fill-opacity:0.15686275;fill-rule:nonzero;stroke:none;stroke-width:25;marker:none;visibility:visible;display:inline;overflow:visible;enable-background:accumulate"
           id="path3990-8"
           sodipodi:cx="173.32954"
           sodipodi:cy="39.387505"
           sodipodi:rx="27.135223"
           sodipodi:ry="28.019106"
           d="m 200.46477,39.387505 c 0,15.474524 -12.14886,28.019105 -27.13523,28.019105 -14.98637,0 -27.13522,-12.544581 -27.13522,-28.019105 0,-15.474525 12.14885,-28.019106 27.13522,-28.019106 14.98637,0 27.13523,12.544581 27.13523,28.019106 z"
           transform="matrix(0.95816421,0,0,0.92793825,172.35039,1390.2416)" />
        <path
           sodipodi:type="arc"
           style="color:#000000;fill:#ffffff;fill-opacity:0.43137255;fill-rule:nonzero;stroke:none;stroke-width:25;marker:none;visibility:visible;display:inline;overflow:visible;enable-background:accumulate"
           id="path3988-18"
           sodipodi:cx="173.90407"
           sodipodi:cy="39.873642"
           sodipodi:rx="10.297242"
           sodipodi:ry="10.208854"
           d="m 184.20131,39.873642 c 0,5.638194 -4.61023,10.208854 -10.29724,10.208854 -5.68701,0 -10.29724,-4.57066 -10.29724,-10.208854 0,-5.638194 4.61023,-10.208854 10.29724,-10.208854 5.68701,0 10.29724,4.57066 10.29724,10.208854 z"
           transform="matrix(0.97113381,0,0,0.9795419,169.54443,1387.7329)" />
        <path
           sodipodi:type="arc"
           style="color:#000000;fill:#000000;fill-opacity:0.15686275;fill-rule:nonzero;stroke:none;stroke-width:25;marker:none;visibility:visible;display:inline;overflow:visible;enable-background:accumulate"
           id="path3990-78"
           sodipodi:cx="173.32954"
           sodipodi:cy="39.387505"
           sodipodi:rx="27.135223"
           sodipodi:ry="28.019106"
           d="m 200.46477,39.387505 c 0,15.474524 -12.14886,28.019105 -27.13523,28.019105 -14.98637,0 -27.13522,-12.544581 -27.13522,-28.019105 0,-15.474525 12.14885,-28.019106 27.13522,-28.019106 14.98637,0 27.13523,12.544581 27.13523,28.019106 z"
           transform="matrix(0.95816421,0,0,0.92793825,162.35039,1262.2416)" />
        <path
           sodipodi:type="arc"
           style="color:#000000;fill:#ffffff;fill-opacity:0.43137255;fill-rule:nonzero;stroke:none;stroke-width:25;marker:none;visibility:visible;display:inline;overflow:visible;enable-background:accumulate"
           id="path3988-3"
           sodipodi:cx="173.90407"
           sodipodi:cy="39.873642"
           sodipodi:rx="10.297242"
           sodipodi:ry="10.208854"
           d="m 184.20131,39.873642 c 0,5.638194 -4.61023,10.208854 -10.29724,10.208854 -5.68701,0 -10.29724,-4.57066 -10.29724,-10.208854 0,-5.638194 4.61023,-10.208854 10.29724,-10.208854 5.68701,0 10.29724,4.57066 10.29724,10.208854 z"
           transform="matrix(0.97113381,0,0,0.9795419,159.54443,1259.7329)" />
        <path
           sodipodi:type="arc"
           style="color:#000000;fill:#000000;fill-opacity:0.15686275;fill-rule:nonzero;stroke:none;stroke-width:25;marker:none;visibility:visible;display:inline;overflow:visible;enable-background:accumulate"
           id="path3990-3"
           sodipodi:cx="173.32954"
           sodipodi:cy="39.387505"
           sodipodi:rx="27.135223"
           sodipodi:ry="28.019106"
           d="m 200.46477,39.387505 c 0,15.474524 -12.14886,28.019105 -27.13523,28.019105 -14.98637,0 -27.13522,-12.544581 -27.13522,-28.019105 0,-15.474525 12.14885,-28.019106 27.13522,-28.019106 14.98637,0 27.13523,12.544581 27.13523,28.019106 z"
           transform="matrix(0.95816421,0,0,0.92793825,162.35039,1134.2416)" />
        <path
           sodipodi:type="arc"
           style="color:#000000;fill:#ffffff;fill-opacity:0.43137255;fill-rule:nonzero;stroke:none;stroke-width:25;marker:none;visibility:visible;display:inline;overflow:visible;enable-background:accumulate"
           id="path3988-2"
           sodipodi:cx="173.90407"
           sodipodi:cy="39.873642"
           sodipodi:rx="10.297242"
           sodipodi:ry="10.208854"
           d="m 184.20131,39.873642 c 0,5.638194 -4.61023,10.208854 -10.29724,10.208854 -5.68701,0 -10.29724,-4.57066 -10.29724,-10.208854 0,-5.638194 4.61023,-10.208854 10.29724,-10.208854 5.68701,0 10.29724,4.57066 10.29724,10.208854 z"
           transform="matrix(0.97113381,0,0,0.9795419,159.54443,1131.7329)" />
        <path
           sodipodi:type="arc"
           style="color:#000000;fill:#000000;fill-opacity:0.15686275;fill-rule:nonzero;stroke:none;stroke-width:25;marker:none;visibility:visible;display:inline;overflow:visible;enable-background:accumulate"
           id="path3990-72"
           sodipodi:cx="173.32954"
           sodipodi:cy="39.387505"
           sodipodi:rx="27.135223"
           sodipodi:ry="28.019106"
           d="m 200.46477,39.387505 c 0,15.474524 -12.14886,28.019105 -27.13523,28.019105 -14.98637,0 -27.13522,-12.544581 -27.13522,-28.019105 0,-15.474525 12.14885,-28.019106 27.13522,-28.019106 14.98637,0 27.13523,12.544581 27.13523,28.019106 z"
           transform="matrix(0.95816421,0,0,0.92793825,176.35039,992.2416)" />
        <path
           sodipodi:type="arc"
           style="color:#000000;fill:#ffffff;fill-opacity:0.43137255;fill-rule:nonzero;stroke:none;stroke-width:25;marker:none;visibility:visible;display:inline;overflow:visible;enable-background:accumulate"
           id="path3988-9"
           sodipodi:cx="173.90407"
           sodipodi:cy="39.873642"
           sodipodi:rx="10.297242"
           sodipodi:ry="10.208854"
           d="m 184.20131,39.873642 c 0,5.638194 -4.61023,10.208854 -10.29724,10.208854 -5.68701,0 -10.29724,-4.57066 -10.29724,-10.208854 0,-5.638194 4.61023,-10.208854 10.29724,-10.208854 5.68701,0 10.29724,4.57066 10.29724,10.208854 z"
           transform="matrix(0.97113381,0,0,0.9795419,173.54443,989.73287)" />
      </g>
      <path
         inkscape:connector-curvature="0"
         id="rect3050-8"
         d="m 412.4286,1080.7908 -16.00004,16 0,192 16.00004,16 256,0 16,-16 0,-192 -16,-16 -256,0 z m 8,16 240,0 8,8 0,176 -8,8 -240,0 -8,-8 0,-176 8,-8 z"
         style="color:#000000;fill:#4d4d4d;fill-opacity:1;fill-rule:nonzero;stroke:none;stroke-width:20;marker:none;visibility:visible;display:inline;overflow:visible;enable-background:accumulate" />
      <path
         inkscape:connector-curvature="0"
         id="rect3050-8-6"
         d="m 412.4286,1080.7908 -16.00004,16 0,192 4.00004,4 0,-192 16,-16 256,0 -4,-4 -256,0 z m 256,24 0,176 -8,8 -240,0 4,4 240,0 8,-8 0,-176 -4,-4 z"
         style="color:#000000;fill:#ffffff;fill-opacity:0.19607843;fill-rule:nonzero;stroke:none;stroke-width:20;marker:none;visibility:visible;display:inline;overflow:visible;enable-background:accumulate" />
      <path
         inkscape:connector-curvature="0"
         id="rect3050-8-0"
         d="m 416.4286,1092.7908 -8,8 0,176 4,4 0,-176 8,-8 240,0 -4,-4 -240,0 z m 264,0 0,192 -16,16 -256,0 4,4 256,0 16,-16 0,-192 -4,-4 z"
         style="color:#000000;fill:#000000;fill-opacity:0.19607843;fill-rule:nonzero;stroke:none;stroke-width:20;marker:none;visibility:visible;display:inline;overflow:visible;enable-background:accumulate" />
    </g>
  </g>
</svg>
