<?xml version="1.0" encoding="UTF-8" standalone="no"?>
<!-- Created with Inkscape (http://www.inkscape.org/) -->

<svg
   xmlns:dc="http://purl.org/dc/elements/1.1/"
   xmlns:cc="http://creativecommons.org/ns#"
   xmlns:rdf="http://www.w3.org/1999/02/22-rdf-syntax-ns#"
   xmlns:svg="http://www.w3.org/2000/svg"
   xmlns="http://www.w3.org/2000/svg"
   xmlns:sodipodi="http://sodipodi.sourceforge.net/DTD/sodipodi-0.dtd"
   xmlns:inkscape="http://www.inkscape.org/namespaces/inkscape"
   width="512"
   height="512"
   id="svg2"
   version="1.1"
   inkscape:version="0.48.4 r9939"
   sodipodi:docname="EnergizedSmelterFrontOn_static.svg"
   inkscape:export-filename="/home/ben/Dropbox/minecraft/svg/machineblock.png"
   inkscape:export-xdpi="360"
   inkscape:export-ydpi="360">
  <defs
     id="defs4">
    <inkscape:path-effect
       effect="envelope"
       id="path-effect3929"
       is_visible="true"
       yy="true"
       xx="true"
       bendpath1="m 430.40517,1173.5111 70.15408,0"
       bendpath2="m 500.55925,1173.5111 0,123.7667"
       bendpath3="m 430.40517,1297.2778 70.15408,0"
       bendpath4="m 430.40517,1173.5111 0,123.7667" />
  </defs>
  <sodipodi:namedview
     id="base"
     pagecolor="#ffffff"
     bordercolor="#666666"
     borderopacity="1.0"
     inkscape:pageopacity="0.0"
     inkscape:pageshadow="2"
     inkscape:zoom="0.088388348"
     inkscape:cx="2905.4288"
     inkscape:cy="1797.4925"
     inkscape:document-units="px"
     inkscape:current-layer="layer1"
     showgrid="true"
     inkscape:window-width="1301"
     inkscape:window-height="744"
     inkscape:window-x="65"
     inkscape:window-y="24"
     inkscape:window-maximized="1"
     fit-margin-top="0"
     fit-margin-left="0"
     fit-margin-right="0"
     fit-margin-bottom="0">
    <inkscape:grid
       type="xygrid"
       id="grid2996"
       empspacing="256"
       visible="true"
       enabled="true"
       snapvisiblegridlinesonly="true"
       originx="0px"
       originy="0px" />
  </sodipodi:namedview>
  <metadata
     id="metadata7">
    <rdf:RDF>
      <cc:Work
         rdf:about="">
        <dc:format>image/svg+xml</dc:format>
        <dc:type
           rdf:resource="http://purl.org/dc/dcmitype/StillImage" />
        <dc:title></dc:title>
      </cc:Work>
    </rdf:RDF>
  </metadata>
  <g
     inkscape:label="Layer 1"
     inkscape:groupmode="layer"
     id="layer1"
     transform="translate(-284.42856,-968.79077)">
    <rect
       style="color:#000000;fill:#000000;fill-opacity:1;fill-rule:nonzero;stroke:none;stroke-width:20;marker:none;visibility:visible;display:inline;overflow:visible;enable-background:accumulate"
       id="rect4269"
       width="375"
       height="306"
       x="65"
       y="75"
       transform="translate(284.42856,968.79077)" />
    <g
       id="g4056"
       transform="translate(2.5e-4,38.183766)">
      <path
         sodipodi:nodetypes="cccccccccccccc"
         inkscape:connector-curvature="0"
         id="path3923"
         d="m 444.72,1296.6176 13.76806,0.6602 7.82626,-7.2533 2.32067,-6.9955 0.46546,-7.0694 -6.3773,-10.9476 -6.93732,-6.9487 -0.89311,-9.4937 11.13912,-19.5585 -16.01036,6.0381 -15.47244,19.4198 -4.14387,15.5643 2.22519,12.5806 z"
         style="fill:#018f01;fill-opacity:1;stroke:none" />
      <path
         id="path3923-3"
         transform="translate(284.42856,968.79077)"
         d="m 181.59375,260.21875 -16,6.03125 -15.46875,19.4375 -4.15625,15.5625 2.21875,12.5625 12.09375,14 2.09375,0.0937 L 151.75,315.59375 149.5,303 l 4.15625,-15.5625 15.46875,-19.40625 10.21875,-3.84375 2.25,-3.96875 z"
         style="fill:#ffffff;fill-opacity:0.19607843;stroke:none"
         inkscape:connector-curvature="0" />
      <path
         id="path3923-9"
         transform="translate(284.42856,968.79077)"
         d="m 181.59375,260.21875 -3.375,1.28125 -9.53125,16.6875 0.90625,9.5 6.9375,6.9375 6.375,10.9375 -0.46875,7.09375 -2.3125,7 -7.84375,7.25 -13.34375,-0.625 1.34375,1.53125 13.78125,0.6875 7.8125,-7.28125 2.34375,-6.96875 0.46875,-7.09375 -6.40625,-10.9375 -6.9375,-6.9375 -0.875,-9.5 11.125,-19.5625 z"
         style="fill:#000000;fill-opacity:0.19607843;stroke:none"
         inkscape:connector-curvature="0" />
    </g>
    <g
       id="g4061"
       transform="translate(2.5e-4,38.183766)">
      <path
         sodipodi:nodetypes="cccccccccccccc"
         inkscape:connector-curvature="0"
         id="path3923-4"
         d="m 501.53545,1298.8355 17.48937,0.8386 9.9416,-9.2138 2.94791,-8.8863 0.59127,-8.9801 -8.101,-13.9066 -8.81238,-8.8268 0.36549,-19.0598 -5.85013,-15.3448 -10.33774,18.1701 -11.15442,11.6687 -5.2639,19.7711 2.82663,15.9809 z"
         style="fill:#018f01;fill-opacity:1;stroke:none" />
      <path
         id="path3923-4-2"
         transform="translate(284.42856,968.79077)"
         d="m 225.6875,246.65625 -10.34375,18.1875 -11.15625,11.65625 -5.25,19.78125 2.8125,15.96875 15.34375,17.78125 0.28125,0 L 205.25,316 l -2.8125,-15.96875 5.25,-19.78125 11.15625,-11.65625 9.09375,-16 -2.25,-5.9375 z m 8.96875,37.9375 0,0.21875 5.65625,5.65625 -0.34375,-0.5625 -5.3125,-5.3125 z"
         style="fill:#ffffff;fill-opacity:0.19607843;stroke:none"
         inkscape:connector-curvature="0" />
      <path
         id="path3923-4-3"
         transform="translate(284.42856,968.79077)"
         d="m 225.6875,246.65625 -1.4375,2.53125 3.53125,9.3125 -0.375,19.0625 8.8125,8.84375 8.09375,13.90625 -0.5625,8.96875 -2.96875,8.875 -9.9375,9.21875 -16.75,-0.8125 3,3.46875 17.5,0.84375 9.9375,-9.21875 2.96875,-8.875 0.5625,-8.96875 -8.09375,-13.90625 -8.8125,-8.84375 0.375,-19.0625 -5.84375,-15.34375 z"
         style="fill:#000000;fill-opacity:0.19607843;stroke:none"
         inkscape:connector-curvature="0" />
    </g>
    <g
       id="g4153"
       transform="translate(2.5e-4,38.183766)">
      <path
         sodipodi:nodetypes="cccccccccccccc"
         inkscape:connector-curvature="0"
         id="path3923-2"
         d="m 558.82167,1298.1682 10.55114,0.5059 5.99764,-5.5586 3.40344,-3.4859 1.73171,-5.7927 -0.38724,-6.3897 -6.3164,-10.3251 -5.68444,-13.2755 -0.96355,-22.4886 -11.76952,19.6273 -4.35728,14.8823 -3.17565,11.9277 1.70527,9.6411 z"
         style="fill:#018f01;fill-opacity:1;stroke:none" />
      <path
         id="path3923-2-7"
         transform="translate(284.42856,968.79077)"
         d="m 282.71875,262.5625 -2.21875,3.71875 0.71875,16.65625 5.6875,13.28125 6.3125,10.3125 0.375,6.40625 -1.71875,5.78125 -3.40625,3.5 -6,5.53125 -9.875,-0.46875 1.8125,2.09375 10.53125,0.5 6,-5.5625 3.40625,-3.46875 1.71875,-5.8125 -0.375,-6.375 -6.3125,-10.3125 -5.6875,-13.28125 -0.96875,-22.5 z"
         style="fill:#ffffff;fill-opacity:0.19607843;stroke:none"
         inkscape:connector-curvature="0" />
      <path
         id="path3923-2-0"
         transform="translate(284.42856,968.79077)"
         d="m 282.71875,262.5625 -11.75,19.625 -4.375,14.875 -3.15625,11.9375 1.6875,9.65625 9.28125,10.71875 -6.8125,-7.90625 -1.6875,-9.625 3.15625,-11.9375 4.375,-14.875 9.5625,-15.96875 -0.28125,-6.5 z"
         style="fill:#000000;fill-opacity:0.19607843;stroke:none"
         inkscape:connector-curvature="0" />
    </g>
    <g
       id="g4148"
       transform="translate(2.5e-4,38.183766)">
      <path
         sodipodi:nodetypes="cccccccccccccc"
         inkscape:connector-curvature="0"
         id="path3923-6"
         d="m 620.32457,1295.574 21.15235,1.0143 8.71911,-6.1866 2.73917,-7.8558 -1.3503,-12.5133 -2.36223,-8.9706 -6.52724,-10.6756 -9.22064,-16.2378 -15.51993,-16.0037 3.49218,19.6036 -4.76914,10.8337 -7.19253,12.3457 -0.71217,18.0886 z"
         style="fill:#018f01;fill-opacity:1;stroke:none" />
      <path
         id="path3923-6-1"
         transform="translate(284.42856,968.79077)"
         d="m 333.53125,249.34375 3.5,19.625 -4.78125,10.8125 -7.1875,12.34375 -0.71875,18.09375 11.5625,16.5625 1.78125,0.0937 -9.625,-13.8125 0.71875,-18.09375 7.1875,-12.34375 4.75,-10.84375 -3.25,-18.375 -3.9375,-4.0625 z"
         style="fill:#ffffff;fill-opacity:0.19607843;stroke:none"
         inkscape:connector-curvature="0" />
      <path
         id="path3923-6-7"
         transform="translate(284.42856,968.79077)"
         d="M 333.53125,249.34375 333.8125,251 346.21875,263.78125 355.4375,280 l 6.53125,10.6875 2.34375,8.96875 1.375,12.5 -2.75,7.875 -8.71875,6.1875 -19.375,-0.9375 1.0625,1.5 21.15625,1.03125 8.71875,-6.1875 2.71875,-7.875 -1.34375,-12.5 -2.375,-8.96875 -6.5,-10.6875 -9.25,-16.25 -15.5,-16 z"
         style="fill:#000000;fill-opacity:0.19607843;stroke:none"
         inkscape:connector-curvature="0" />
    </g>
    <g
       id="g4271">
      <g
         id="g4215">
        <path
           id="rect3014"
           transform="translate(284.42856,968.79077)"
           d="M 0 0 L 0 512 L 512 512 L 512 0 L 0 0 z M 128 128 L 384 128 L 384 320 L 128 320 L 128 128 z "
           style="color:#000000;fill:#4d4d4d;fill-opacity:1;fill-rule:nonzero;stroke:none;stroke-width:4;marker:none;visibility:visible;display:inline;overflow:visible;enable-background:accumulate" />
        <path
           style="fill:#000000;fill-opacity:0.1372549;stroke:none"
           d="m 396.42857,1036.9158 a 11.883171,11.883171 0 0 0 -8.40625,3.4687 l -32,32 a 11.883171,11.883171 0 0 0 -3.46875,8.4063 l 0,288 a 11.883171,11.883171 0 0 0 3.46875,8.4062 l 32,32 a 11.883171,11.883171 0 0 0 8.40625,3.4688 l 287.96873,0 a 11.883171,11.883171 0 0 0 8.4063,-3.4688 l 32.0312,-32 a 11.883171,11.883171 0 0 0 3.4688,-8.4062 l 0,-288 a 11.883171,11.883171 0 0 0 -3.4688,-8.4063 l -32,-32 a 11.883171,11.883171 0 0 0 -8.4062,-3.4687 l -288.00003,0 z m 0,11.875 288.00003,0 32,32 0,288 -32.0313,32 -287.96873,0 -32,-32 0,-288 32,-32 z"
           id="path3085-4"
           inkscape:connector-curvature="0" />
        <path
           id="path3085-8"
           transform="translate(284.42856,968.79077)"
           d="M 112 80 L 80 112 L 80 233.6875 L 128 185.84375 L 128 128 L 186.0625 128 L 234.21875 80 L 112 80 z M 317.4375 80 L 269.6875 128 L 341.84375 128 L 390 80 L 317.4375 80 z M 432 151.28125 L 384 199.53125 L 384 320 L 264.1875 320 L 152.8125 432 L 318 432 L 432 318 L 432 151.28125 z M 128 270.4375 L 80 318.6875 L 80 388.9375 L 149.1875 320 L 128 320 L 128 270.4375 z "
           style="fill:#ffffff;fill-opacity:0.05490196;stroke:none" />
        <path
           style="fill:#000000;fill-opacity:0.16470588;stroke:none"
           d="m 396.42856,1048.7908 -32,32 0,288 14,14 0,-288 32.00004,-32 288,0 -14,-14 -288.00004,0 z"
           id="path3085"
           inkscape:connector-curvature="0" />
        <path
           style="fill:#000000;fill-opacity:0.05882353;stroke:none"
           d="m 396.42856,1048.7908 -32,32 0,288 32,32 287.96874,0 32.0313,-32 0,-288 -32,-32 -288.00004,0 z m 6.71874,16.2187 274.5625,0 22.5,22.5 0,274.5625 -22.5312,22.5 -274.5313,0 -22.49999,-22.5 0,-274.5625 22.49999,-22.5 z"
           id="path3085-2"
           inkscape:connector-curvature="0" />
        <path
           style="fill:#ffffff;fill-opacity:0.41203703;stroke:none"
           d="m 716.4286,1080.7908 0,288 -32.0313,32 -287.96874,0 17.00004,17 287.9687,0 32.0313,-32 0,-288 -17,-17 z"
           id="path3085-5"
           inkscape:connector-curvature="0" />
        <path
           style="color:#000000;fill:#ffffff;fill-opacity:0.41176471;fill-rule:nonzero;stroke:none;stroke-width:25;marker:none;visibility:visible;display:inline;overflow:visible;enable-background:accumulate"
           d="m 284.42856,968.79077 0,512.00003 17,0 0,-495.00003 495.00004,0 0,-17 -512.00004,0 z"
           id="rect3933"
           inkscape:connector-curvature="0" />
        <path
           style="color:#000000;fill:#000000;fill-opacity:0.1372549;fill-rule:nonzero;stroke:none;stroke-width:25;marker:none;visibility:visible;display:inline;overflow:visible;enable-background:accumulate"
           d="m 284.42856,968.79077 0,512.00003 512.00004,0 0,-512.00003 -512.00004,0 z m 12,12 488.00004,0 0,488.00003 -488.00004,0 0,-488.00003 z"
           id="rect3933-3"
           inkscape:connector-curvature="0" />
        <path
           sodipodi:type="arc"
           style="color:#000000;fill:#000000;fill-opacity:0.15686275;fill-rule:nonzero;stroke:none;stroke-width:25;marker:none;visibility:visible;display:inline;overflow:visible;enable-background:accumulate"
           id="path3990"
           sodipodi:cx="173.32954"
           sodipodi:cy="39.387505"
           sodipodi:rx="27.135223"
           sodipodi:ry="28.019106"
           d="m 200.46477,39.387505 c 0,15.474524 -12.14886,28.019105 -27.13523,28.019105 -14.98637,0 -27.13522,-12.544581 -27.13522,-28.019105 0,-15.474525 12.14885,-28.019106 27.13522,-28.019106 14.98637,0 27.13523,12.544581 27.13523,28.019106 z"
           transform="matrix(0.95816421,0,0,0.92793825,292.35039,972.2416)" />
        <path
           sodipodi:type="arc"
           style="color:#000000;fill:#ffffff;fill-opacity:0.43137255;fill-rule:nonzero;stroke:none;stroke-width:25;marker:none;visibility:visible;display:inline;overflow:visible;enable-background:accumulate"
           id="path3988"
           sodipodi:cx="173.90407"
           sodipodi:cy="39.873642"
           sodipodi:rx="10.297242"
           sodipodi:ry="10.208854"
           d="m 184.20131,39.873642 c 0,5.638194 -4.61023,10.208854 -10.29724,10.208854 -5.68701,0 -10.29724,-4.57066 -10.29724,-10.208854 0,-5.638194 4.61023,-10.208854 10.29724,-10.208854 5.68701,0 10.29724,4.57066 10.29724,10.208854 z"
           transform="matrix(0.97113381,0,0,0.9795419,289.54443,969.73287)" />
        <path
           sodipodi:type="arc"
           style="color:#000000;fill:#000000;fill-opacity:0.15686275;fill-rule:nonzero;stroke:none;stroke-width:25;marker:none;visibility:visible;display:inline;overflow:visible;enable-background:accumulate"
           id="path3990-2"
           sodipodi:cx="173.32954"
           sodipodi:cy="39.387505"
           sodipodi:rx="27.135223"
           sodipodi:ry="28.019106"
           d="m 200.46477,39.387505 c 0,15.474524 -12.14886,28.019105 -27.13523,28.019105 -14.98637,0 -27.13522,-12.544581 -27.13522,-28.019105 0,-15.474525 12.14885,-28.019106 27.13522,-28.019106 14.98637,0 27.13523,12.544581 27.13523,28.019106 z"
           transform="matrix(0.95816421,0,0,0.92793825,448.3504,974.2416)" />
        <path
           sodipodi:type="arc"
           style="color:#000000;fill:#ffffff;fill-opacity:0.43137255;fill-rule:nonzero;stroke:none;stroke-width:25;marker:none;visibility:visible;display:inline;overflow:visible;enable-background:accumulate"
           id="path3988-5"
           sodipodi:cx="173.90407"
           sodipodi:cy="39.873642"
           sodipodi:rx="10.297242"
           sodipodi:ry="10.208854"
           d="m 184.20131,39.873642 c 0,5.638194 -4.61023,10.208854 -10.29724,10.208854 -5.68701,0 -10.29724,-4.57066 -10.29724,-10.208854 0,-5.638194 4.61023,-10.208854 10.29724,-10.208854 5.68701,0 10.29724,4.57066 10.29724,10.208854 z"
           transform="matrix(0.97113381,0,0,0.9795419,445.5444,971.73287)" />
        <path
           sodipodi:type="arc"
           style="color:#000000;fill:#000000;fill-opacity:0.15686275;fill-rule:nonzero;stroke:none;stroke-width:25;marker:none;visibility:visible;display:inline;overflow:visible;enable-background:accumulate"
           id="path3990-9"
           sodipodi:cx="173.32954"
           sodipodi:cy="39.387505"
           sodipodi:rx="27.135223"
           sodipodi:ry="28.019106"
           d="m 200.46477,39.387505 c 0,15.474524 -12.14886,28.019105 -27.13523,28.019105 -14.98637,0 -27.13522,-12.544581 -27.13522,-28.019105 0,-15.474525 12.14885,-28.019106 27.13522,-28.019106 14.98637,0 27.13523,12.544581 27.13523,28.019106 z"
           transform="matrix(0.95816421,0,0,0.92793825,578.3504,990.2416)" />
        <path
           sodipodi:type="arc"
           style="color:#000000;fill:#ffffff;fill-opacity:0.43137255;fill-rule:nonzero;stroke:none;stroke-width:25;marker:none;visibility:visible;display:inline;overflow:visible;enable-background:accumulate"
           id="path3988-6"
           sodipodi:cx="173.90407"
           sodipodi:cy="39.873642"
           sodipodi:rx="10.297242"
           sodipodi:ry="10.208854"
           d="m 184.20131,39.873642 c 0,5.638194 -4.61023,10.208854 -10.29724,10.208854 -5.68701,0 -10.29724,-4.57066 -10.29724,-10.208854 0,-5.638194 4.61023,-10.208854 10.29724,-10.208854 5.68701,0 10.29724,4.57066 10.29724,10.208854 z"
           transform="matrix(0.97113381,0,0,0.9795419,575.5444,987.73287)" />
        <path
           sodipodi:type="arc"
           style="color:#000000;fill:#000000;fill-opacity:0.15686275;fill-rule:nonzero;stroke:none;stroke-width:25;marker:none;visibility:visible;display:inline;overflow:visible;enable-background:accumulate"
           id="path3990-5"
           sodipodi:cx="173.32954"
           sodipodi:cy="39.387505"
           sodipodi:rx="27.135223"
           sodipodi:ry="28.019106"
           d="m 200.46477,39.387505 c 0,15.474524 -12.14886,28.019105 -27.13523,28.019105 -14.98637,0 -27.13522,-12.544581 -27.13522,-28.019105 0,-15.474525 12.14885,-28.019106 27.13522,-28.019106 14.98637,0 27.13523,12.544581 27.13523,28.019106 z"
           transform="matrix(0.95816421,0,0,0.92793825,594.3504,1136.2416)" />
        <path
           sodipodi:type="arc"
           style="color:#000000;fill:#ffffff;fill-opacity:0.43137255;fill-rule:nonzero;stroke:none;stroke-width:25;marker:none;visibility:visible;display:inline;overflow:visible;enable-background:accumulate"
           id="path3988-7"
           sodipodi:cx="173.90407"
           sodipodi:cy="39.873642"
           sodipodi:rx="10.297242"
           sodipodi:ry="10.208854"
           d="m 184.20131,39.873642 c 0,5.638194 -4.61023,10.208854 -10.29724,10.208854 -5.68701,0 -10.29724,-4.57066 -10.29724,-10.208854 0,-5.638194 4.61023,-10.208854 10.29724,-10.208854 5.68701,0 10.29724,4.57066 10.29724,10.208854 z"
           transform="matrix(0.97113381,0,0,0.9795419,591.5444,1133.7328)" />
        <path
           sodipodi:type="arc"
           style="color:#000000;fill:#000000;fill-opacity:0.15686275;fill-rule:nonzero;stroke:none;stroke-width:25;marker:none;visibility:visible;display:inline;overflow:visible;enable-background:accumulate"
           id="path3990-0"
           sodipodi:cx="173.32954"
           sodipodi:cy="39.387505"
           sodipodi:rx="27.135223"
           sodipodi:ry="28.019106"
           d="m 200.46477,39.387505 c 0,15.474524 -12.14886,28.019105 -27.13523,28.019105 -14.98637,0 -27.13522,-12.544581 -27.13522,-28.019105 0,-15.474525 12.14885,-28.019106 27.13522,-28.019106 14.98637,0 27.13523,12.544581 27.13523,28.019106 z"
           transform="matrix(0.95816421,0,0,0.92793825,594.3504,1260.2416)" />
        <path
           sodipodi:type="arc"
           style="color:#000000;fill:#ffffff;fill-opacity:0.43137255;fill-rule:nonzero;stroke:none;stroke-width:25;marker:none;visibility:visible;display:inline;overflow:visible;enable-background:accumulate"
           id="path3988-8"
           sodipodi:cx="173.90407"
           sodipodi:cy="39.873642"
           sodipodi:rx="10.297242"
           sodipodi:ry="10.208854"
           d="m 184.20131,39.873642 c 0,5.638194 -4.61023,10.208854 -10.29724,10.208854 -5.68701,0 -10.29724,-4.57066 -10.29724,-10.208854 0,-5.638194 4.61023,-10.208854 10.29724,-10.208854 5.68701,0 10.29724,4.57066 10.29724,10.208854 z"
           transform="matrix(0.97113381,0,0,0.9795419,591.5444,1257.7329)" />
        <path
           sodipodi:type="arc"
           style="color:#000000;fill:#000000;fill-opacity:0.15686275;fill-rule:nonzero;stroke:none;stroke-width:25;marker:none;visibility:visible;display:inline;overflow:visible;enable-background:accumulate"
           id="path3990-6"
           sodipodi:cx="173.32954"
           sodipodi:cy="39.387505"
           sodipodi:rx="27.135223"
           sodipodi:ry="28.019106"
           d="m 200.46477,39.387505 c 0,15.474524 -12.14886,28.019105 -27.13523,28.019105 -14.98637,0 -27.13522,-12.544581 -27.13522,-28.019105 0,-15.474525 12.14885,-28.019106 27.13522,-28.019106 14.98637,0 27.13523,12.544581 27.13523,28.019106 z"
           transform="matrix(0.95816421,0,0,0.92793825,572.3504,1394.2416)" />
        <path
           sodipodi:type="arc"
           style="color:#000000;fill:#ffffff;fill-opacity:0.43137255;fill-rule:nonzero;stroke:none;stroke-width:25;marker:none;visibility:visible;display:inline;overflow:visible;enable-background:accumulate"
           id="path3988-0"
           sodipodi:cx="173.90407"
           sodipodi:cy="39.873642"
           sodipodi:rx="10.297242"
           sodipodi:ry="10.208854"
           d="m 184.20131,39.873642 c 0,5.638194 -4.61023,10.208854 -10.29724,10.208854 -5.68701,0 -10.29724,-4.57066 -10.29724,-10.208854 0,-5.638194 4.61023,-10.208854 10.29724,-10.208854 5.68701,0 10.29724,4.57066 10.29724,10.208854 z"
           transform="matrix(0.97113381,0,0,0.9795419,569.5444,1391.7329)" />
        <path
           sodipodi:type="arc"
           style="color:#000000;fill:#000000;fill-opacity:0.15686275;fill-rule:nonzero;stroke:none;stroke-width:25;marker:none;visibility:visible;display:inline;overflow:visible;enable-background:accumulate"
           id="path3990-7"
           sodipodi:cx="173.32954"
           sodipodi:cy="39.387505"
           sodipodi:rx="27.135223"
           sodipodi:ry="28.019106"
           d="m 200.46477,39.387505 c 0,15.474524 -12.14886,28.019105 -27.13523,28.019105 -14.98637,0 -27.13522,-12.544581 -27.13522,-28.019105 0,-15.474525 12.14885,-28.019106 27.13522,-28.019106 14.98637,0 27.13523,12.544581 27.13523,28.019106 z"
           transform="matrix(0.95816421,0,0,0.92793825,454.3504,1410.2416)" />
        <path
           sodipodi:type="arc"
           style="color:#000000;fill:#ffffff;fill-opacity:0.43137255;fill-rule:nonzero;stroke:none;stroke-width:25;marker:none;visibility:visible;display:inline;overflow:visible;enable-background:accumulate"
           id="path3988-1"
           sodipodi:cx="173.90407"
           sodipodi:cy="39.873642"
           sodipodi:rx="10.297242"
           sodipodi:ry="10.208854"
           d="m 184.20131,39.873642 c 0,5.638194 -4.61023,10.208854 -10.29724,10.208854 -5.68701,0 -10.29724,-4.57066 -10.29724,-10.208854 0,-5.638194 4.61023,-10.208854 10.29724,-10.208854 5.68701,0 10.29724,4.57066 10.29724,10.208854 z"
           transform="matrix(0.97113381,0,0,0.9795419,451.5444,1407.7329)" />
        <path
           sodipodi:type="arc"
           style="color:#000000;fill:#000000;fill-opacity:0.15686275;fill-rule:nonzero;stroke:none;stroke-width:25;marker:none;visibility:visible;display:inline;overflow:visible;enable-background:accumulate"
           id="path3990-63"
           sodipodi:cx="173.32954"
           sodipodi:cy="39.387505"
           sodipodi:rx="27.135223"
           sodipodi:ry="28.019106"
           d="m 200.46477,39.387505 c 0,15.474524 -12.14886,28.019105 -27.13523,28.019105 -14.98637,0 -27.13522,-12.544581 -27.13522,-28.019105 0,-15.474525 12.14885,-28.019106 27.13522,-28.019106 14.98637,0 27.13523,12.544581 27.13523,28.019106 z"
           transform="matrix(0.95816421,0,0,0.92793825,308.35039,1408.2416)" />
        <path
           sodipodi:type="arc"
           style="color:#000000;fill:#ffffff;fill-opacity:0.43137255;fill-rule:nonzero;stroke:none;stroke-width:25;marker:none;visibility:visible;display:inline;overflow:visible;enable-background:accumulate"
           id="path3988-60"
           sodipodi:cx="173.90407"
           sodipodi:cy="39.873642"
           sodipodi:rx="10.297242"
           sodipodi:ry="10.208854"
           d="m 184.20131,39.873642 c 0,5.638194 -4.61023,10.208854 -10.29724,10.208854 -5.68701,0 -10.29724,-4.57066 -10.29724,-10.208854 0,-5.638194 4.61023,-10.208854 10.29724,-10.208854 5.68701,0 10.29724,4.57066 10.29724,10.208854 z"
           transform="matrix(0.97113381,0,0,0.9795419,305.54443,1405.7329)" />
        <path
           sodipodi:type="arc"
           style="color:#000000;fill:#000000;fill-opacity:0.15686275;fill-rule:nonzero;stroke:none;stroke-width:25;marker:none;visibility:visible;display:inline;overflow:visible;enable-background:accumulate"
           id="path3990-8"
           sodipodi:cx="173.32954"
           sodipodi:cy="39.387505"
           sodipodi:rx="27.135223"
           sodipodi:ry="28.019106"
           d="m 200.46477,39.387505 c 0,15.474524 -12.14886,28.019105 -27.13523,28.019105 -14.98637,0 -27.13522,-12.544581 -27.13522,-28.019105 0,-15.474525 12.14885,-28.019106 27.13522,-28.019106 14.98637,0 27.13523,12.544581 27.13523,28.019106 z"
           transform="matrix(0.95816421,0,0,0.92793825,172.35039,1390.2416)" />
        <path
           sodipodi:type="arc"
           style="color:#000000;fill:#ffffff;fill-opacity:0.43137255;fill-rule:nonzero;stroke:none;stroke-width:25;marker:none;visibility:visible;display:inline;overflow:visible;enable-background:accumulate"
           id="path3988-18"
           sodipodi:cx="173.90407"
           sodipodi:cy="39.873642"
           sodipodi:rx="10.297242"
           sodipodi:ry="10.208854"
           d="m 184.20131,39.873642 c 0,5.638194 -4.61023,10.208854 -10.29724,10.208854 -5.68701,0 -10.29724,-4.57066 -10.29724,-10.208854 0,-5.638194 4.61023,-10.208854 10.29724,-10.208854 5.68701,0 10.29724,4.57066 10.29724,10.208854 z"
           transform="matrix(0.97113381,0,0,0.9795419,169.54443,1387.7329)" />
        <path
           sodipodi:type="arc"
           style="color:#000000;fill:#000000;fill-opacity:0.15686275;fill-rule:nonzero;stroke:none;stroke-width:25;marker:none;visibility:visible;display:inline;overflow:visible;enable-background:accumulate"
           id="path3990-78"
           sodipodi:cx="173.32954"
           sodipodi:cy="39.387505"
           sodipodi:rx="27.135223"
           sodipodi:ry="28.019106"
           d="m 200.46477,39.387505 c 0,15.474524 -12.14886,28.019105 -27.13523,28.019105 -14.98637,0 -27.13522,-12.544581 -27.13522,-28.019105 0,-15.474525 12.14885,-28.019106 27.13522,-28.019106 14.98637,0 27.13523,12.544581 27.13523,28.019106 z"
           transform="matrix(0.95816421,0,0,0.92793825,162.35039,1262.2416)" />
        <path
           sodipodi:type="arc"
           style="color:#000000;fill:#ffffff;fill-opacity:0.43137255;fill-rule:nonzero;stroke:none;stroke-width:25;marker:none;visibility:visible;display:inline;overflow:visible;enable-background:accumulate"
           id="path3988-3"
           sodipodi:cx="173.90407"
           sodipodi:cy="39.873642"
           sodipodi:rx="10.297242"
           sodipodi:ry="10.208854"
           d="m 184.20131,39.873642 c 0,5.638194 -4.61023,10.208854 -10.29724,10.208854 -5.68701,0 -10.29724,-4.57066 -10.29724,-10.208854 0,-5.638194 4.61023,-10.208854 10.29724,-10.208854 5.68701,0 10.29724,4.57066 10.29724,10.208854 z"
           transform="matrix(0.97113381,0,0,0.9795419,159.54443,1259.7329)" />
        <path
           sodipodi:type="arc"
           style="color:#000000;fill:#000000;fill-opacity:0.15686275;fill-rule:nonzero;stroke:none;stroke-width:25;marker:none;visibility:visible;display:inline;overflow:visible;enable-background:accumulate"
           id="path3990-3"
           sodipodi:cx="173.32954"
           sodipodi:cy="39.387505"
           sodipodi:rx="27.135223"
           sodipodi:ry="28.019106"
           d="m 200.46477,39.387505 c 0,15.474524 -12.14886,28.019105 -27.13523,28.019105 -14.98637,0 -27.13522,-12.544581 -27.13522,-28.019105 0,-15.474525 12.14885,-28.019106 27.13522,-28.019106 14.98637,0 27.13523,12.544581 27.13523,28.019106 z"
           transform="matrix(0.95816421,0,0,0.92793825,162.35039,1134.2416)" />
        <path
           sodipodi:type="arc"
           style="color:#000000;fill:#ffffff;fill-opacity:0.43137255;fill-rule:nonzero;stroke:none;stroke-width:25;marker:none;visibility:visible;display:inline;overflow:visible;enable-background:accumulate"
           id="path3988-2"
           sodipodi:cx="173.90407"
           sodipodi:cy="39.873642"
           sodipodi:rx="10.297242"
           sodipodi:ry="10.208854"
           d="m 184.20131,39.873642 c 0,5.638194 -4.61023,10.208854 -10.29724,10.208854 -5.68701,0 -10.29724,-4.57066 -10.29724,-10.208854 0,-5.638194 4.61023,-10.208854 10.29724,-10.208854 5.68701,0 10.29724,4.57066 10.29724,10.208854 z"
           transform="matrix(0.97113381,0,0,0.9795419,159.54443,1131.7329)" />
        <path
           sodipodi:type="arc"
           style="color:#000000;fill:#000000;fill-opacity:0.15686275;fill-rule:nonzero;stroke:none;stroke-width:25;marker:none;visibility:visible;display:inline;overflow:visible;enable-background:accumulate"
           id="path3990-72"
           sodipodi:cx="173.32954"
           sodipodi:cy="39.387505"
           sodipodi:rx="27.135223"
           sodipodi:ry="28.019106"
           d="m 200.46477,39.387505 c 0,15.474524 -12.14886,28.019105 -27.13523,28.019105 -14.98637,0 -27.13522,-12.544581 -27.13522,-28.019105 0,-15.474525 12.14885,-28.019106 27.13522,-28.019106 14.98637,0 27.13523,12.544581 27.13523,28.019106 z"
           transform="matrix(0.95816421,0,0,0.92793825,176.35039,992.2416)" />
        <path
           sodipodi:type="arc"
           style="color:#000000;fill:#ffffff;fill-opacity:0.43137255;fill-rule:nonzero;stroke:none;stroke-width:25;marker:none;visibility:visible;display:inline;overflow:visible;enable-background:accumulate"
           id="path3988-9"
           sodipodi:cx="173.90407"
           sodipodi:cy="39.873642"
           sodipodi:rx="10.297242"
           sodipodi:ry="10.208854"
           d="m 184.20131,39.873642 c 0,5.638194 -4.61023,10.208854 -10.29724,10.208854 -5.68701,0 -10.29724,-4.57066 -10.29724,-10.208854 0,-5.638194 4.61023,-10.208854 10.29724,-10.208854 5.68701,0 10.29724,4.57066 10.29724,10.208854 z"
           transform="matrix(0.97113381,0,0,0.9795419,173.54443,989.73287)" />
      </g>
      <path
         inkscape:connector-curvature="0"
         id="rect3050-8"
         d="m 412.4286,1080.7908 -16.00004,16 0,192 16.00004,16 256,0 16,-16 0,-192 -16,-16 -256,0 z m 8,16 240,0 8,8 0,176 -8,8 -240,0 -8,-8 0,-176 8,-8 z"
         style="color:#000000;fill:#4d4d4d;fill-opacity:1;fill-rule:nonzero;stroke:none;stroke-width:20;marker:none;visibility:visible;display:inline;overflow:visible;enable-background:accumulate" />
      <path
         inkscape:connector-curvature="0"
         id="rect3050-8-6"
         d="m 412.4286,1080.7908 -16.00004,16 0,192 4.00004,4 0,-192 16,-16 256,0 -4,-4 -256,0 z m 256,24 0,176 -8,8 -240,0 4,4 240,0 8,-8 0,-176 -4,-4 z"
         style="color:#000000;fill:#ffffff;fill-opacity:0.19607843;fill-rule:nonzero;stroke:none;stroke-width:20;marker:none;visibility:visible;display:inline;overflow:visible;enable-background:accumulate" />
      <path
         inkscape:connector-curvature="0"
         id="rect3050-8-0"
         d="m 416.4286,1092.7908 -8,8 0,176 4,4 0,-176 8,-8 240,0 -4,-4 -240,0 z m 264,0 0,192 -16,16 -256,0 4,4 256,0 16,-16 0,-192 -4,-4 z"
         style="color:#000000;fill:#000000;fill-opacity:0.19607843;fill-rule:nonzero;stroke:none;stroke-width:20;marker:none;visibility:visible;display:inline;overflow:visible;enable-background:accumulate" />
    </g>
  </g>
</svg>
