<?xml version="1.0" encoding="UTF-8" standalone="no"?>
<!-- Created with Inkscape (http://www.inkscape.org/) -->

<svg
   xmlns:dc="http://purl.org/dc/elements/1.1/"
   xmlns:cc="http://creativecommons.org/ns#"
   xmlns:rdf="http://www.w3.org/1999/02/22-rdf-syntax-ns#"
   xmlns:svg="http://www.w3.org/2000/svg"
   xmlns="http://www.w3.org/2000/svg"
   xmlns:sodipodi="http://sodipodi.sourceforge.net/DTD/sodipodi-0.dtd"
   xmlns:inkscape="http://www.inkscape.org/namespaces/inkscape"
   width="512"
   height="512"
   id="svg2"
   version="1.1"
   inkscape:version="0.48.4 r9939"
   sodipodi:docname="EnergizedSmelterFrontOff.svg"
   inkscape:export-filename="/home/ben/Dropbox/minecraft/svg/machineblock.png"
   inkscape:export-xdpi="360"
   inkscape:export-ydpi="360">
  <defs
     id="defs4">
    <inkscape:path-effect
       effect="envelope"
       id="path-effect3929"
       is_visible="true"
       yy="true"
       xx="true"
       bendpath1="m 430.40517,1173.5111 70.15408,0"
       bendpath2="m 500.55925,1173.5111 0,123.7667"
       bendpath3="m 430.40517,1297.2778 70.15408,0"
       bendpath4="m 430.40517,1173.5111 0,123.7667" />
  </defs>
  <sodipodi:namedview
     id="base"
     pagecolor="#ffffff"
     bordercolor="#666666"
     borderopacity="1.0"
     inkscape:pageopacity="0.0"
     inkscape:pageshadow="2"
     inkscape:zoom="0.70710678"
     inkscape:cx="269.75366"
     inkscape:cy="291.55466"
     inkscape:document-units="px"
     inkscape:current-layer="layer1"
     showgrid="false"
     inkscape:window-width="1301"
     inkscape:window-height="744"
     inkscape:window-x="65"
     inkscape:window-y="24"
     inkscape:window-maximized="1"
     fit-margin-top="0"
     fit-margin-left="0"
     fit-margin-right="0"
     fit-margin-bottom="0">
    <inkscape:grid
       type="xygrid"
       id="grid2996"
       empspacing="128"
       visible="true"
       enabled="true"
       snapvisiblegridlinesonly="true"
       originx="-284.42856px"
       originy="428.42859px" />
  </sodipodi:namedview>
  <metadata
     id="metadata7">
    <rdf:RDF>
      <cc:Work
         rdf:about="">
        <dc:format>image/svg+xml</dc:format>
        <dc:type
           rdf:resource="http://purl.org/dc/dcmitype/StillImage" />
        <dc:title></dc:title>
      </cc:Work>
    </rdf:RDF>
  </metadata>
  <g
     inkscape:label="Layer 1"
     inkscape:groupmode="layer"
     id="layer1"
     transform="translate(-284.42856,-968.79077)">
    <rect
       style="color:#000000;fill:#4d4d4d;fill-opacity:1;fill-rule:nonzero;stroke:none;stroke-width:4;marker:none;visibility:visible;display:inline;overflow:visible;enable-background:accumulate"
       id="rect3014"
       width="512"
       height="512"
       x="284.42859"
       y="968.79077" />
    <path
       style="fill:#000000;fill-opacity:0.1372549;stroke:none"
       d="m 396.42857,1036.9158 a 11.883171,11.883171 0 0 0 -8.40625,3.4687 l -32,32 a 11.883171,11.883171 0 0 0 -3.46875,8.4063 l 0,288 a 11.883171,11.883171 0 0 0 3.46875,8.4062 l 32,32 a 11.883171,11.883171 0 0 0 8.40625,3.4688 l 287.96873,0 a 11.883171,11.883171 0 0 0 8.4063,-3.4688 l 32.0312,-32 a 11.883171,11.883171 0 0 0 3.4688,-8.4062 l 0,-288 a 11.883171,11.883171 0 0 0 -3.4688,-8.4063 l -32,-32 a 11.883171,11.883171 0 0 0 -8.4062,-3.4687 l -288.00003,0 z m 0,11.875 288.00003,0 32,32 0,288 -32.0313,32 -287.96873,0 -32,-32 0,-288 32,-32 z"
       id="path3085-4"
       inkscape:connector-curvature="0" />
    <path
       style="fill:#ffffff;fill-opacity:0.05490196;stroke:none"
       d="m 396.42856,1048.7908 -32,32 0,121.6875 154.21875,-153.6875 z m 205.4375,0 -237.4375,238.6875 0,70.25 310,-308.9375 z m 114.5625,71.2812 -279.1875,280.7188 165.1875,0 114,-114 z"
       id="path3085-8"
       inkscape:connector-curvature="0"
       sodipodi:nodetypes="ccccccccccccccc" />
    <path
       style="fill:#000000;fill-opacity:0.16470588;stroke:none"
       d="m 396.42856,1048.7908 -32,32 0,288 14,14 0,-288 32.00004,-32 288,0 -14,-14 -288.00004,0 z"
       id="path3085"
       inkscape:connector-curvature="0" />
    <path
       style="fill:#000000;fill-opacity:0.05882353;stroke:none"
       d="m 396.42856,1048.7908 -32,32 0,288 32,32 287.96874,0 32.0313,-32 0,-288 -32,-32 -288.00004,0 z m 6.71874,16.2187 274.5625,0 22.5,22.5 0,274.5625 -22.5312,22.5 -274.5313,0 -22.49999,-22.5 0,-274.5625 22.49999,-22.5 z"
       id="path3085-2"
       inkscape:connector-curvature="0" />
    <path
       style="fill:#ffffff;fill-opacity:0.41203703;stroke:none"
       d="m 716.4286,1080.7908 0,288 -32.0313,32 -287.96874,0 17.00004,17 287.9687,0 32.0313,-32 0,-288 -17,-17 z"
       id="path3085-5"
       inkscape:connector-curvature="0" />
    <path
       style="color:#000000;fill:#ffffff;fill-opacity:0.41176471;fill-rule:nonzero;stroke:none;stroke-width:25;marker:none;visibility:visible;display:inline;overflow:visible;enable-background:accumulate"
       d="m 284.42856,968.79077 0,512.00003 17,0 0,-495.00003 495.00004,0 0,-17 -512.00004,0 z"
       id="rect3933"
       inkscape:connector-curvature="0" />
    <path
       style="color:#000000;fill:#000000;fill-opacity:0.1372549;fill-rule:nonzero;stroke:none;stroke-width:25;marker:none;visibility:visible;display:inline;overflow:visible;enable-background:accumulate"
       d="m 284.42856,968.79077 0,512.00003 512.00004,0 0,-512.00003 -512.00004,0 z m 12,12 488.00004,0 0,488.00003 -488.00004,0 0,-488.00003 z"
       id="rect3933-3"
       inkscape:connector-curvature="0" />
    <path
       sodipodi:type="arc"
       style="color:#000000;fill:#000000;fill-opacity:0.15686275;fill-rule:nonzero;stroke:none;stroke-width:25;marker:none;visibility:visible;display:inline;overflow:visible;enable-background:accumulate"
       id="path3990"
       sodipodi:cx="173.32954"
       sodipodi:cy="39.387505"
       sodipodi:rx="27.135223"
       sodipodi:ry="28.019106"
       d="m 200.46477,39.387505 c 0,15.474524 -12.14886,28.019105 -27.13523,28.019105 -14.98637,0 -27.13522,-12.544581 -27.13522,-28.019105 0,-15.474525 12.14885,-28.019106 27.13522,-28.019106 14.98637,0 27.13523,12.544581 27.13523,28.019106 z"
       transform="matrix(0.95816421,0,0,0.92793825,292.35039,972.2416)" />
    <path
       sodipodi:type="arc"
       style="color:#000000;fill:#ffffff;fill-opacity:0.43137255;fill-rule:nonzero;stroke:none;stroke-width:25;marker:none;visibility:visible;display:inline;overflow:visible;enable-background:accumulate"
       id="path3988"
       sodipodi:cx="173.90407"
       sodipodi:cy="39.873642"
       sodipodi:rx="10.297242"
       sodipodi:ry="10.208854"
       d="m 184.20131,39.873642 c 0,5.638194 -4.61023,10.208854 -10.29724,10.208854 -5.68701,0 -10.29724,-4.57066 -10.29724,-10.208854 0,-5.638194 4.61023,-10.208854 10.29724,-10.208854 5.68701,0 10.29724,4.57066 10.29724,10.208854 z"
       transform="matrix(0.97113381,0,0,0.9795419,289.54443,969.73287)" />
    <path
       sodipodi:type="arc"
       style="color:#000000;fill:#000000;fill-opacity:0.15686275;fill-rule:nonzero;stroke:none;stroke-width:25;marker:none;visibility:visible;display:inline;overflow:visible;enable-background:accumulate"
       id="path3990-2"
       sodipodi:cx="173.32954"
       sodipodi:cy="39.387505"
       sodipodi:rx="27.135223"
       sodipodi:ry="28.019106"
       d="m 200.46477,39.387505 c 0,15.474524 -12.14886,28.019105 -27.13523,28.019105 -14.98637,0 -27.13522,-12.544581 -27.13522,-28.019105 0,-15.474525 12.14885,-28.019106 27.13522,-28.019106 14.98637,0 27.13523,12.544581 27.13523,28.019106 z"
       transform="matrix(0.95816421,0,0,0.92793825,448.3504,974.2416)" />
    <path
       sodipodi:type="arc"
       style="color:#000000;fill:#ffffff;fill-opacity:0.43137255;fill-rule:nonzero;stroke:none;stroke-width:25;marker:none;visibility:visible;display:inline;overflow:visible;enable-background:accumulate"
       id="path3988-5"
       sodipodi:cx="173.90407"
       sodipodi:cy="39.873642"
       sodipodi:rx="10.297242"
       sodipodi:ry="10.208854"
       d="m 184.20131,39.873642 c 0,5.638194 -4.61023,10.208854 -10.29724,10.208854 -5.68701,0 -10.29724,-4.57066 -10.29724,-10.208854 0,-5.638194 4.61023,-10.208854 10.29724,-10.208854 5.68701,0 10.29724,4.57066 10.29724,10.208854 z"
       transform="matrix(0.97113381,0,0,0.9795419,445.5444,971.73287)" />
    <path
       sodipodi:type="arc"
       style="color:#000000;fill:#000000;fill-opacity:0.15686275;fill-rule:nonzero;stroke:none;stroke-width:25;marker:none;visibility:visible;display:inline;overflow:visible;enable-background:accumulate"
       id="path3990-9"
       sodipodi:cx="173.32954"
       sodipodi:cy="39.387505"
       sodipodi:rx="27.135223"
       sodipodi:ry="28.019106"
       d="m 200.46477,39.387505 c 0,15.474524 -12.14886,28.019105 -27.13523,28.019105 -14.98637,0 -27.13522,-12.544581 -27.13522,-28.019105 0,-15.474525 12.14885,-28.019106 27.13522,-28.019106 14.98637,0 27.13523,12.544581 27.13523,28.019106 z"
       transform="matrix(0.95816421,0,0,0.92793825,578.3504,990.2416)" />
    <path
       sodipodi:type="arc"
       style="color:#000000;fill:#ffffff;fill-opacity:0.43137255;fill-rule:nonzero;stroke:none;stroke-width:25;marker:none;visibility:visible;display:inline;overflow:visible;enable-background:accumulate"
       id="path3988-6"
       sodipodi:cx="173.90407"
       sodipodi:cy="39.873642"
       sodipodi:rx="10.297242"
       sodipodi:ry="10.208854"
       d="m 184.20131,39.873642 c 0,5.638194 -4.61023,10.208854 -10.29724,10.208854 -5.68701,0 -10.29724,-4.57066 -10.29724,-10.208854 0,-5.638194 4.61023,-10.208854 10.29724,-10.208854 5.68701,0 10.29724,4.57066 10.29724,10.208854 z"
       transform="matrix(0.97113381,0,0,0.9795419,575.5444,987.73287)" />
    <path
       sodipodi:type="arc"
       style="color:#000000;fill:#000000;fill-opacity:0.15686275;fill-rule:nonzero;stroke:none;stroke-width:25;marker:none;visibility:visible;display:inline;overflow:visible;enable-background:accumulate"
       id="path3990-5"
       sodipodi:cx="173.32954"
       sodipodi:cy="39.387505"
       sodipodi:rx="27.135223"
       sodipodi:ry="28.019106"
       d="m 200.46477,39.387505 c 0,15.474524 -12.14886,28.019105 -27.13523,28.019105 -14.98637,0 -27.13522,-12.544581 -27.13522,-28.019105 0,-15.474525 12.14885,-28.019106 27.13522,-28.019106 14.98637,0 27.13523,12.544581 27.13523,28.019106 z"
       transform="matrix(0.95816421,0,0,0.92793825,594.3504,1136.2416)" />
    <path
       sodipodi:type="arc"
       style="color:#000000;fill:#ffffff;fill-opacity:0.43137255;fill-rule:nonzero;stroke:none;stroke-width:25;marker:none;visibility:visible;display:inline;overflow:visible;enable-background:accumulate"
       id="path3988-7"
       sodipodi:cx="173.90407"
       sodipodi:cy="39.873642"
       sodipodi:rx="10.297242"
       sodipodi:ry="10.208854"
       d="m 184.20131,39.873642 c 0,5.638194 -4.61023,10.208854 -10.29724,10.208854 -5.68701,0 -10.29724,-4.57066 -10.29724,-10.208854 0,-5.638194 4.61023,-10.208854 10.29724,-10.208854 5.68701,0 10.29724,4.57066 10.29724,10.208854 z"
       transform="matrix(0.97113381,0,0,0.9795419,591.5444,1133.7328)" />
    <path
       sodipodi:type="arc"
       style="color:#000000;fill:#000000;fill-opacity:0.15686275;fill-rule:nonzero;stroke:none;stroke-width:25;marker:none;visibility:visible;display:inline;overflow:visible;enable-background:accumulate"
       id="path3990-0"
       sodipodi:cx="173.32954"
       sodipodi:cy="39.387505"
       sodipodi:rx="27.135223"
       sodipodi:ry="28.019106"
       d="m 200.46477,39.387505 c 0,15.474524 -12.14886,28.019105 -27.13523,28.019105 -14.98637,0 -27.13522,-12.544581 -27.13522,-28.019105 0,-15.474525 12.14885,-28.019106 27.13522,-28.019106 14.98637,0 27.13523,12.544581 27.13523,28.019106 z"
       transform="matrix(0.95816421,0,0,0.92793825,594.3504,1260.2416)" />
    <path
       sodipodi:type="arc"
       style="color:#000000;fill:#ffffff;fill-opacity:0.43137255;fill-rule:nonzero;stroke:none;stroke-width:25;marker:none;visibility:visible;display:inline;overflow:visible;enable-background:accumulate"
       id="path3988-8"
       sodipodi:cx="173.90407"
       sodipodi:cy="39.873642"
       sodipodi:rx="10.297242"
       sodipodi:ry="10.208854"
       d="m 184.20131,39.873642 c 0,5.638194 -4.61023,10.208854 -10.29724,10.208854 -5.68701,0 -10.29724,-4.57066 -10.29724,-10.208854 0,-5.638194 4.61023,-10.208854 10.29724,-10.208854 5.68701,0 10.29724,4.57066 10.29724,10.208854 z"
       transform="matrix(0.97113381,0,0,0.9795419,591.5444,1257.7329)" />
    <path
       sodipodi:type="arc"
       style="color:#000000;fill:#000000;fill-opacity:0.15686275;fill-rule:nonzero;stroke:none;stroke-width:25;marker:none;visibility:visible;display:inline;overflow:visible;enable-background:accumulate"
       id="path3990-6"
       sodipodi:cx="173.32954"
       sodipodi:cy="39.387505"
       sodipodi:rx="27.135223"
       sodipodi:ry="28.019106"
       d="m 200.46477,39.387505 c 0,15.474524 -12.14886,28.019105 -27.13523,28.019105 -14.98637,0 -27.13522,-12.544581 -27.13522,-28.019105 0,-15.474525 12.14885,-28.019106 27.13522,-28.019106 14.98637,0 27.13523,12.544581 27.13523,28.019106 z"
       transform="matrix(0.95816421,0,0,0.92793825,572.3504,1394.2416)" />
    <path
       sodipodi:type="arc"
       style="color:#000000;fill:#ffffff;fill-opacity:0.43137255;fill-rule:nonzero;stroke:none;stroke-width:25;marker:none;visibility:visible;display:inline;overflow:visible;enable-background:accumulate"
       id="path3988-0"
       sodipodi:cx="173.90407"
       sodipodi:cy="39.873642"
       sodipodi:rx="10.297242"
       sodipodi:ry="10.208854"
       d="m 184.20131,39.873642 c 0,5.638194 -4.61023,10.208854 -10.29724,10.208854 -5.68701,0 -10.29724,-4.57066 -10.29724,-10.208854 0,-5.638194 4.61023,-10.208854 10.29724,-10.208854 5.68701,0 10.29724,4.57066 10.29724,10.208854 z"
       transform="matrix(0.97113381,0,0,0.9795419,569.5444,1391.7329)" />
    <path
       sodipodi:type="arc"
       style="color:#000000;fill:#000000;fill-opacity:0.15686275;fill-rule:nonzero;stroke:none;stroke-width:25;marker:none;visibility:visible;display:inline;overflow:visible;enable-background:accumulate"
       id="path3990-7"
       sodipodi:cx="173.32954"
       sodipodi:cy="39.387505"
       sodipodi:rx="27.135223"
       sodipodi:ry="28.019106"
       d="m 200.46477,39.387505 c 0,15.474524 -12.14886,28.019105 -27.13523,28.019105 -14.98637,0 -27.13522,-12.544581 -27.13522,-28.019105 0,-15.474525 12.14885,-28.019106 27.13522,-28.019106 14.98637,0 27.13523,12.544581 27.13523,28.019106 z"
       transform="matrix(0.95816421,0,0,0.92793825,454.3504,1410.2416)" />
    <path
       sodipodi:type="arc"
       style="color:#000000;fill:#ffffff;fill-opacity:0.43137255;fill-rule:nonzero;stroke:none;stroke-width:25;marker:none;visibility:visible;display:inline;overflow:visible;enable-background:accumulate"
       id="path3988-1"
       sodipodi:cx="173.90407"
       sodipodi:cy="39.873642"
       sodipodi:rx="10.297242"
       sodipodi:ry="10.208854"
       d="m 184.20131,39.873642 c 0,5.638194 -4.61023,10.208854 -10.29724,10.208854 -5.68701,0 -10.29724,-4.57066 -10.29724,-10.208854 0,-5.638194 4.61023,-10.208854 10.29724,-10.208854 5.68701,0 10.29724,4.57066 10.29724,10.208854 z"
       transform="matrix(0.97113381,0,0,0.9795419,451.5444,1407.7329)" />
    <path
       sodipodi:type="arc"
       style="color:#000000;fill:#000000;fill-opacity:0.15686275;fill-rule:nonzero;stroke:none;stroke-width:25;marker:none;visibility:visible;display:inline;overflow:visible;enable-background:accumulate"
       id="path3990-63"
       sodipodi:cx="173.32954"
       sodipodi:cy="39.387505"
       sodipodi:rx="27.135223"
       sodipodi:ry="28.019106"
       d="m 200.46477,39.387505 c 0,15.474524 -12.14886,28.019105 -27.13523,28.019105 -14.98637,0 -27.13522,-12.544581 -27.13522,-28.019105 0,-15.474525 12.14885,-28.019106 27.13522,-28.019106 14.98637,0 27.13523,12.544581 27.13523,28.019106 z"
       transform="matrix(0.95816421,0,0,0.92793825,308.35039,1408.2416)" />
    <path
       sodipodi:type="arc"
       style="color:#000000;fill:#ffffff;fill-opacity:0.43137255;fill-rule:nonzero;stroke:none;stroke-width:25;marker:none;visibility:visible;display:inline;overflow:visible;enable-background:accumulate"
       id="path3988-60"
       sodipodi:cx="173.90407"
       sodipodi:cy="39.873642"
       sodipodi:rx="10.297242"
       sodipodi:ry="10.208854"
       d="m 184.20131,39.873642 c 0,5.638194 -4.61023,10.208854 -10.29724,10.208854 -5.68701,0 -10.29724,-4.57066 -10.29724,-10.208854 0,-5.638194 4.61023,-10.208854 10.29724,-10.208854 5.68701,0 10.29724,4.57066 10.29724,10.208854 z"
       transform="matrix(0.97113381,0,0,0.9795419,305.54443,1405.7329)" />
    <path
       sodipodi:type="arc"
       style="color:#000000;fill:#000000;fill-opacity:0.15686275;fill-rule:nonzero;stroke:none;stroke-width:25;marker:none;visibility:visible;display:inline;overflow:visible;enable-background:accumulate"
       id="path3990-8"
       sodipodi:cx="173.32954"
       sodipodi:cy="39.387505"
       sodipodi:rx="27.135223"
       sodipodi:ry="28.019106"
       d="m 200.46477,39.387505 c 0,15.474524 -12.14886,28.019105 -27.13523,28.019105 -14.98637,0 -27.13522,-12.544581 -27.13522,-28.019105 0,-15.474525 12.14885,-28.019106 27.13522,-28.019106 14.98637,0 27.13523,12.544581 27.13523,28.019106 z"
       transform="matrix(0.95816421,0,0,0.92793825,172.35039,1390.2416)" />
    <path
       sodipodi:type="arc"
       style="color:#000000;fill:#ffffff;fill-opacity:0.43137255;fill-rule:nonzero;stroke:none;stroke-width:25;marker:none;visibility:visible;display:inline;overflow:visible;enable-background:accumulate"
       id="path3988-18"
       sodipodi:cx="173.90407"
       sodipodi:cy="39.873642"
       sodipodi:rx="10.297242"
       sodipodi:ry="10.208854"
       d="m 184.20131,39.873642 c 0,5.638194 -4.61023,10.208854 -10.29724,10.208854 -5.68701,0 -10.29724,-4.57066 -10.29724,-10.208854 0,-5.638194 4.61023,-10.208854 10.29724,-10.208854 5.68701,0 10.29724,4.57066 10.29724,10.208854 z"
       transform="matrix(0.97113381,0,0,0.9795419,169.54443,1387.7329)" />
    <path
       sodipodi:type="arc"
       style="color:#000000;fill:#000000;fill-opacity:0.15686275;fill-rule:nonzero;stroke:none;stroke-width:25;marker:none;visibility:visible;display:inline;overflow:visible;enable-background:accumulate"
       id="path3990-78"
       sodipodi:cx="173.32954"
       sodipodi:cy="39.387505"
       sodipodi:rx="27.135223"
       sodipodi:ry="28.019106"
       d="m 200.46477,39.387505 c 0,15.474524 -12.14886,28.019105 -27.13523,28.019105 -14.98637,0 -27.13522,-12.544581 -27.13522,-28.019105 0,-15.474525 12.14885,-28.019106 27.13522,-28.019106 14.98637,0 27.13523,12.544581 27.13523,28.019106 z"
       transform="matrix(0.95816421,0,0,0.92793825,162.35039,1262.2416)" />
    <path
       sodipodi:type="arc"
       style="color:#000000;fill:#ffffff;fill-opacity:0.43137255;fill-rule:nonzero;stroke:none;stroke-width:25;marker:none;visibility:visible;display:inline;overflow:visible;enable-background:accumulate"
       id="path3988-3"
       sodipodi:cx="173.90407"
       sodipodi:cy="39.873642"
       sodipodi:rx="10.297242"
       sodipodi:ry="10.208854"
       d="m 184.20131,39.873642 c 0,5.638194 -4.61023,10.208854 -10.29724,10.208854 -5.68701,0 -10.29724,-4.57066 -10.29724,-10.208854 0,-5.638194 4.61023,-10.208854 10.29724,-10.208854 5.68701,0 10.29724,4.57066 10.29724,10.208854 z"
       transform="matrix(0.97113381,0,0,0.9795419,159.54443,1259.7329)" />
    <path
       sodipodi:type="arc"
       style="color:#000000;fill:#000000;fill-opacity:0.15686275;fill-rule:nonzero;stroke:none;stroke-width:25;marker:none;visibility:visible;display:inline;overflow:visible;enable-background:accumulate"
       id="path3990-3"
       sodipodi:cx="173.32954"
       sodipodi:cy="39.387505"
       sodipodi:rx="27.135223"
       sodipodi:ry="28.019106"
       d="m 200.46477,39.387505 c 0,15.474524 -12.14886,28.019105 -27.13523,28.019105 -14.98637,0 -27.13522,-12.544581 -27.13522,-28.019105 0,-15.474525 12.14885,-28.019106 27.13522,-28.019106 14.98637,0 27.13523,12.544581 27.13523,28.019106 z"
       transform="matrix(0.95816421,0,0,0.92793825,162.35039,1134.2416)" />
    <path
       sodipodi:type="arc"
       style="color:#000000;fill:#ffffff;fill-opacity:0.43137255;fill-rule:nonzero;stroke:none;stroke-width:25;marker:none;visibility:visible;display:inline;overflow:visible;enable-background:accumulate"
       id="path3988-2"
       sodipodi:cx="173.90407"
       sodipodi:cy="39.873642"
       sodipodi:rx="10.297242"
       sodipodi:ry="10.208854"
       d="m 184.20131,39.873642 c 0,5.638194 -4.61023,10.208854 -10.29724,10.208854 -5.68701,0 -10.29724,-4.57066 -10.29724,-10.208854 0,-5.638194 4.61023,-10.208854 10.29724,-10.208854 5.68701,0 10.29724,4.57066 10.29724,10.208854 z"
       transform="matrix(0.97113381,0,0,0.9795419,159.54443,1131.7329)" />
    <path
       sodipodi:type="arc"
       style="color:#000000;fill:#000000;fill-opacity:0.15686275;fill-rule:nonzero;stroke:none;stroke-width:25;marker:none;visibility:visible;display:inline;overflow:visible;enable-background:accumulate"
       id="path3990-72"
       sodipodi:cx="173.32954"
       sodipodi:cy="39.387505"
       sodipodi:rx="27.135223"
       sodipodi:ry="28.019106"
       d="m 200.46477,39.387505 c 0,15.474524 -12.14886,28.019105 -27.13523,28.019105 -14.98637,0 -27.13522,-12.544581 -27.13522,-28.019105 0,-15.474525 12.14885,-28.019106 27.13522,-28.019106 14.98637,0 27.13523,12.544581 27.13523,28.019106 z"
       transform="matrix(0.95816421,0,0,0.92793825,176.35039,992.2416)" />
    <path
       sodipodi:type="arc"
       style="color:#000000;fill:#ffffff;fill-opacity:0.43137255;fill-rule:nonzero;stroke:none;stroke-width:25;marker:none;visibility:visible;display:inline;overflow:visible;enable-background:accumulate"
       id="path3988-9"
       sodipodi:cx="173.90407"
       sodipodi:cy="39.873642"
       sodipodi:rx="10.297242"
       sodipodi:ry="10.208854"
       d="m 184.20131,39.873642 c 0,5.638194 -4.61023,10.208854 -10.29724,10.208854 -5.68701,0 -10.29724,-4.57066 -10.29724,-10.208854 0,-5.638194 4.61023,-10.208854 10.29724,-10.208854 5.68701,0 10.29724,4.57066 10.29724,10.208854 z"
       transform="matrix(0.97113381,0,0,0.9795419,173.54443,989.73287)" />
    <rect
       style="color:#000000;fill:#000000;fill-opacity:1;fill-rule:nonzero;stroke:none;stroke-width:20;marker:none;visibility:visible;display:inline;overflow:visible;enable-background:accumulate"
       id="rect3050"
       width="256"
       height="192"
       x="412.42856"
       y="1096.7908" />
    <g
       id="g4056">
      <path
         sodipodi:nodetypes="cccccccccccccc"
         inkscape:connector-curvature="0"
         id="path3923"
         d="m 444.72,1296.6176 13.76806,0.6602 7.82626,-7.2533 2.32067,-6.9955 0.46546,-7.0694 -6.3773,-10.9476 -6.93732,-6.9487 -0.89311,-9.4937 11.13912,-19.5585 -16.01036,6.0381 -15.47244,19.4198 -4.14387,15.5643 2.22519,12.5806 z"
         style="fill:#018f01;stroke:none;fill-opacity:1" />
      <path
         id="path3923-3"
         transform="translate(284.42856,968.79077)"
         d="M 181.59375 260.21875 L 165.59375 266.25 L 150.125 285.6875 L 145.96875 301.25 L 148.1875 313.8125 L 160.28125 327.8125 L 162.375 327.90625 L 151.75 315.59375 L 149.5 303 L 153.65625 287.4375 L 169.125 268.03125 L 179.34375 264.1875 L 181.59375 260.21875 z "
         style="fill:#ffffff;stroke:none;fill-opacity:0.19607843" />
      <path
         id="path3923-9"
         transform="translate(284.42856,968.79077)"
         d="M 181.59375 260.21875 L 178.21875 261.5 L 168.6875 278.1875 L 169.59375 287.6875 L 176.53125 294.625 L 182.90625 305.5625 L 182.4375 312.65625 L 180.125 319.65625 L 172.28125 326.90625 L 158.9375 326.28125 L 160.28125 327.8125 L 174.0625 328.5 L 181.875 321.21875 L 184.21875 314.25 L 184.6875 307.15625 L 178.28125 296.21875 L 171.34375 289.28125 L 170.46875 279.78125 L 181.59375 260.21875 z "
         style="fill:#000000;stroke:none;fill-opacity:0.19607843" />
    </g>
    <g
       id="g4061">
      <path
         sodipodi:nodetypes="cccccccccccccc"
         inkscape:connector-curvature="0"
         id="path3923-4"
         d="m 501.53545,1298.8355 17.48937,0.8386 9.9416,-9.2138 2.94791,-8.8863 0.59127,-8.9801 -8.101,-13.9066 -8.81238,-8.8268 0.36549,-19.0598 -5.85013,-15.3448 -10.33774,18.1701 -11.15442,11.6687 -5.2639,19.7711 2.82663,15.9809 z"
         style="fill:#018f01;stroke:none;fill-opacity:1" />
      <path
         id="path3923-4-2"
         transform="translate(284.42856,968.79077)"
         d="M 225.6875 246.65625 L 215.34375 264.84375 L 204.1875 276.5 L 198.9375 296.28125 L 201.75 312.25 L 217.09375 330.03125 L 217.375 330.03125 L 205.25 316 L 202.4375 300.03125 L 207.6875 280.25 L 218.84375 268.59375 L 227.9375 252.59375 L 225.6875 246.65625 z M 234.65625 284.59375 L 234.65625 284.8125 L 240.3125 290.46875 L 239.96875 289.90625 L 234.65625 284.59375 z "
         style="fill:#ffffff;fill-opacity:0.19607843;stroke:none" />
      <path
         id="path3923-4-3"
         transform="translate(284.42856,968.79077)"
         d="M 225.6875 246.65625 L 224.25 249.1875 L 227.78125 258.5 L 227.40625 277.5625 L 236.21875 286.40625 L 244.3125 300.3125 L 243.75 309.28125 L 240.78125 318.15625 L 230.84375 327.375 L 214.09375 326.5625 L 217.09375 330.03125 L 234.59375 330.875 L 244.53125 321.65625 L 247.5 312.78125 L 248.0625 303.8125 L 239.96875 289.90625 L 231.15625 281.0625 L 231.53125 262 L 225.6875 246.65625 z "
         style="fill:#000000;fill-opacity:0.19607843;stroke:none" />
    </g>
    <g
       id="g4153">
      <path
         sodipodi:nodetypes="cccccccccccccc"
         inkscape:connector-curvature="0"
         id="path3923-2"
         d="m 558.82167,1298.1682 10.55114,0.5059 5.99764,-5.5586 3.40344,-3.4859 1.73171,-5.7927 -0.38724,-6.3897 -6.3164,-10.3251 -5.68444,-13.2755 -0.96355,-22.4886 -11.76952,19.6273 -4.35728,14.8823 -3.17565,11.9277 1.70527,9.6411 z"
         style="fill:#018f01;stroke:none;fill-opacity:1" />
      <path
         id="path3923-2-7"
         transform="translate(284.42856,968.79077)"
         d="M 282.71875 262.5625 L 280.5 266.28125 L 281.21875 282.9375 L 286.90625 296.21875 L 293.21875 306.53125 L 293.59375 312.9375 L 291.875 318.71875 L 288.46875 322.21875 L 282.46875 327.75 L 272.59375 327.28125 L 274.40625 329.375 L 284.9375 329.875 L 290.9375 324.3125 L 294.34375 320.84375 L 296.0625 315.03125 L 295.6875 308.65625 L 289.375 298.34375 L 283.6875 285.0625 L 282.71875 262.5625 z "
         style="fill:#ffffff;fill-opacity:0.19607843;stroke:none" />
      <path
         id="path3923-2-0"
         transform="translate(284.42856,968.79077)"
         d="M 282.71875 262.5625 L 270.96875 282.1875 L 266.59375 297.0625 L 263.4375 309 L 265.125 318.65625 L 274.40625 329.375 L 267.59375 321.46875 L 265.90625 311.84375 L 269.0625 299.90625 L 273.4375 285.03125 L 283 269.0625 L 282.71875 262.5625 z "
         style="fill:#000000;fill-opacity:0.19607843;stroke:none" />
    </g>
    <g
       id="g4148">
      <path
         sodipodi:nodetypes="cccccccccccccc"
         inkscape:connector-curvature="0"
         id="path3923-6"
         d="m 620.32457,1295.574 21.15235,1.0143 8.71911,-6.1866 2.73917,-7.8558 -1.3503,-12.5133 -2.36223,-8.9706 -6.52724,-10.6756 -9.22064,-16.2378 -15.51993,-16.0037 3.49218,19.6036 -4.76914,10.8337 -7.19253,12.3457 -0.71217,18.0886 z"
         style="fill:#018f01;stroke:none;fill-opacity:1" />
      <path
         id="path3923-6-1"
         transform="translate(284.42856,968.79077)"
         d="M 333.53125 249.34375 L 337.03125 268.96875 L 332.25 279.78125 L 325.0625 292.125 L 324.34375 310.21875 L 335.90625 326.78125 L 337.6875 326.875 L 328.0625 313.0625 L 328.78125 294.96875 L 335.96875 282.625 L 340.71875 271.78125 L 337.46875 253.40625 L 333.53125 249.34375 z "
         style="fill:#ffffff;fill-opacity:0.19607843;stroke:none" />
      <path
         id="path3923-6-7"
         transform="translate(284.42856,968.79077)"
         d="M 333.53125 249.34375 L 333.8125 251 L 346.21875 263.78125 L 355.4375 280 L 361.96875 290.6875 L 364.3125 299.65625 L 365.6875 312.15625 L 362.9375 320.03125 L 354.21875 326.21875 L 334.84375 325.28125 L 335.90625 326.78125 L 357.0625 327.8125 L 365.78125 321.625 L 368.5 313.75 L 367.15625 301.25 L 364.78125 292.28125 L 358.28125 281.59375 L 349.03125 265.34375 L 333.53125 249.34375 z "
         style="fill:#000000;fill-opacity:0.19607843;stroke:none" />
    </g>
    <path
       style="color:#000000;fill:#4d4d4d;fill-opacity:1;fill-rule:nonzero;stroke:none;stroke-width:20;marker:none;visibility:visible;display:inline;overflow:visible;enable-background:accumulate"
       d="M 128 112 L 112 128 L 112 320 L 128 336 L 384 336 L 400 320 L 400 128 L 384 112 L 128 112 z M 136 128 L 376 128 L 384 136 L 384 312 L 376 320 L 136 320 L 128 312 L 128 136 L 136 128 z "
       transform="translate(284.42856,968.79077)"
       id="rect3050-8" />
    <path
       style="color:#000000;fill:#ffffff;fill-opacity:0.19607843;fill-rule:nonzero;stroke:none;stroke-width:20;marker:none;visibility:visible;display:inline;overflow:visible;enable-background:accumulate"
       d="M 128 112 L 112 128 L 112 320 L 116 324 L 116 132 L 132 116 L 388 116 L 384 112 L 128 112 z M 384 136 L 384 312 L 376 320 L 136 320 L 140 324 L 380 324 L 388 316 L 388 140 L 384 136 z "
       transform="translate(284.42856,968.79077)"
       id="rect3050-8-6" />
    <path
       style="color:#000000;fill:#000000;fill-opacity:0.19607843;fill-rule:nonzero;stroke:none;stroke-width:20;marker:none;visibility:visible;display:inline;overflow:visible;enable-background:accumulate"
       d="M 132 124 L 124 132 L 124 308 L 128 312 L 128 136 L 136 128 L 376 128 L 372 124 L 132 124 z M 396 124 L 396 316 L 380 332 L 124 332 L 128 336 L 384 336 L 400 320 L 400 128 L 396 124 z "
       transform="translate(284.42856,968.79077)"
       id="rect3050-8-0" />
  </g>
</svg>
