<?xml version="1.0" encoding="UTF-8" standalone="no"?>
<!-- Created with Inkscape (http://www.inkscape.org/) -->

<svg
   xmlns:dc="http://purl.org/dc/elements/1.1/"
   xmlns:cc="http://creativecommons.org/ns#"
   xmlns:rdf="http://www.w3.org/1999/02/22-rdf-syntax-ns#"
   xmlns:svg="http://www.w3.org/2000/svg"
   xmlns="http://www.w3.org/2000/svg"
   xmlns:sodipodi="http://sodipodi.sourceforge.net/DTD/sodipodi-0.dtd"
   xmlns:inkscape="http://www.inkscape.org/namespaces/inkscape"
   width="512.00006"
   height="512"
   id="svg2"
   version="1.1"
   inkscape:version="0.48.4 r9939"
   sodipodi:docname="EnrichmentChamberFrontOff.svg"
   inkscape:export-filename="/home/ben/Dropbox/minecraft/svg/machinedoor.png"
   inkscape:export-xdpi="90"
   inkscape:export-ydpi="90">
  <defs
     id="defs4" />
  <sodipodi:namedview
     id="base"
     pagecolor="#ffffff"
     bordercolor="#666666"
     borderopacity="1.0"
     inkscape:pageopacity="0.0"
     inkscape:pageshadow="2"
     inkscape:zoom="1.4142136"
     inkscape:cx="249.02728"
     inkscape:cy="300.27282"
     inkscape:document-units="px"
     inkscape:current-layer="layer1"
     showgrid="false"
     inkscape:window-width="1301"
     inkscape:window-height="744"
     inkscape:window-x="65"
     inkscape:window-y="24"
     inkscape:window-maximized="1"
     fit-margin-top="0"
     fit-margin-left="0"
     fit-margin-right="0"
     fit-margin-bottom="0">
    <inkscape:grid
       type="xygrid"
       id="grid2996"
       empspacing="1"
       visible="true"
       enabled="true"
       snapvisiblegridlinesonly="true"
       originx="-2e-05px"
       originy="6e-05px" />
  </sodipodi:namedview>
  <metadata
     id="metadata7">
    <rdf:RDF>
      <cc:Work
         rdf:about="">
        <dc:format>image/svg+xml</dc:format>
        <dc:type
           rdf:resource="http://purl.org/dc/dcmitype/StillImage" />
        <dc:title />
      </cc:Work>
    </rdf:RDF>
  </metadata>
  <g
     inkscape:label="Layer 1"
     inkscape:groupmode="layer"
     id="layer1"
     transform="translate(-2e-5,-540.36221)">
    <g
       transform="translate(-284.42854,-428.42856)"
       id="g3015">
      <rect
         y="968.79077"
         x="284.42859"
         height="512"
         width="512"
         id="rect3014"
         style="color:#000000;fill:#4d4d4d;fill-opacity:1;fill-rule:nonzero;stroke:none;stroke-width:4;marker:none;visibility:visible;display:inline;overflow:visible;enable-background:accumulate" />
      <path
         inkscape:connector-curvature="0"
         id="path3085-4"
         d="m 396.42857,1036.9158 a 11.883171,11.883171 0 0 0 -8.40625,3.4687 l -32,32 a 11.883171,11.883171 0 0 0 -3.46875,8.4063 l 0,288 a 11.883171,11.883171 0 0 0 3.46875,8.4062 l 32,32 a 11.883171,11.883171 0 0 0 8.40625,3.4688 l 287.96873,0 a 11.883171,11.883171 0 0 0 8.4063,-3.4688 l 32.0312,-32 a 11.883171,11.883171 0 0 0 3.4688,-8.4062 l 0,-288 a 11.883171,11.883171 0 0 0 -3.4688,-8.4063 l -32,-32 a 11.883171,11.883171 0 0 0 -8.4062,-3.4687 l -288.00003,0 z m 0,11.875 288.00003,0 32,32 0,288 -32.0313,32 -287.96873,0 -32,-32 0,-288 32,-32 z"
         style="fill:#000000;fill-opacity:0.1372549;stroke:none" />
      <path
         sodipodi:nodetypes="ccccccccccccccc"
         inkscape:connector-curvature="0"
         id="path3085-8"
         d="m 396.42856,1048.7908 -32,32 0,121.6875 154.21875,-153.6875 z m 205.4375,0 -237.4375,238.6875 0,70.25 310,-308.9375 z m 114.5625,71.2812 -279.1875,280.7188 165.1875,0 114,-114 z"
         style="fill:#ffffff;fill-opacity:0.05490196;stroke:none" />
      <path
         inkscape:connector-curvature="0"
         id="path3085"
         d="m 396.42856,1048.7908 -32,32 0,288 14,14 0,-288 32.00004,-32 288,0 -14,-14 -288.00004,0 z"
         style="fill:#000000;fill-opacity:0.16470588;stroke:none" />
      <path
         inkscape:connector-curvature="0"
         id="path3085-2"
         d="m 396.42856,1048.7908 -32,32 0,288 32,32 287.96874,0 32.0313,-32 0,-288 -32,-32 -288.00004,0 z m 6.71874,16.2187 274.5625,0 22.5,22.5 0,274.5625 -22.5312,22.5 -274.5313,0 -22.49999,-22.5 0,-274.5625 22.49999,-22.5 z"
         style="fill:#000000;fill-opacity:0.05882353;stroke:none" />
      <path
         inkscape:connector-curvature="0"
         id="path3085-5"
         d="m 716.4286,1080.7908 0,288 -32.0313,32 -287.96874,0 17.00004,17 287.9687,0 32.0313,-32 0,-288 -17,-17 z"
         style="fill:#ffffff;fill-opacity:0.41203703;stroke:none" />
      <path
         inkscape:connector-curvature="0"
         id="rect3933"
         d="m 284.42856,968.79077 0,512.00003 17,0 0,-495.00003 495.00004,0 0,-17 -512.00004,0 z"
         style="color:#000000;fill:#ffffff;fill-opacity:0.41176471;fill-rule:nonzero;stroke:none;stroke-width:25;marker:none;visibility:visible;display:inline;overflow:visible;enable-background:accumulate" />
      <path
         inkscape:connector-curvature="0"
         id="rect3933-3"
         d="m 284.42856,968.79077 0,512.00003 512.00004,0 0,-512.00003 -512.00004,0 z m 12,12 488.00004,0 0,488.00003 -488.00004,0 0,-488.00003 z"
         style="color:#000000;fill:#000000;fill-opacity:0.1372549;fill-rule:nonzero;stroke:none;stroke-width:25;marker:none;visibility:visible;display:inline;overflow:visible;enable-background:accumulate" />
      <path
         transform="matrix(0.95816421,0,0,0.92793825,292.35039,972.2416)"
         d="m 200.46477,39.387505 c 0,15.474524 -12.14886,28.019105 -27.13523,28.019105 -14.98637,0 -27.13522,-12.544581 -27.13522,-28.019105 0,-15.474525 12.14885,-28.019106 27.13522,-28.019106 14.98637,0 27.13523,12.544581 27.13523,28.019106 z"
         sodipodi:ry="28.019106"
         sodipodi:rx="27.135223"
         sodipodi:cy="39.387505"
         sodipodi:cx="173.32954"
         id="path3990"
         style="color:#000000;fill:#000000;fill-opacity:0.15686275;fill-rule:nonzero;stroke:none;stroke-width:25;marker:none;visibility:visible;display:inline;overflow:visible;enable-background:accumulate"
         sodipodi:type="arc" />
      <path
         transform="matrix(0.97113381,0,0,0.9795419,289.54443,969.73287)"
         d="m 184.20131,39.873642 c 0,5.638194 -4.61023,10.208854 -10.29724,10.208854 -5.68701,0 -10.29724,-4.57066 -10.29724,-10.208854 0,-5.638194 4.61023,-10.208854 10.29724,-10.208854 5.68701,0 10.29724,4.57066 10.29724,10.208854 z"
         sodipodi:ry="10.208854"
         sodipodi:rx="10.297242"
         sodipodi:cy="39.873642"
         sodipodi:cx="173.90407"
         id="path3988"
         style="color:#000000;fill:#ffffff;fill-opacity:0.43137255;fill-rule:nonzero;stroke:none;stroke-width:25;marker:none;visibility:visible;display:inline;overflow:visible;enable-background:accumulate"
         sodipodi:type="arc" />
      <path
         transform="matrix(0.95816421,0,0,0.92793825,448.3504,974.2416)"
         d="m 200.46477,39.387505 c 0,15.474524 -12.14886,28.019105 -27.13523,28.019105 -14.98637,0 -27.13522,-12.544581 -27.13522,-28.019105 0,-15.474525 12.14885,-28.019106 27.13522,-28.019106 14.98637,0 27.13523,12.544581 27.13523,28.019106 z"
         sodipodi:ry="28.019106"
         sodipodi:rx="27.135223"
         sodipodi:cy="39.387505"
         sodipodi:cx="173.32954"
         id="path3990-2"
         style="color:#000000;fill:#000000;fill-opacity:0.15686275;fill-rule:nonzero;stroke:none;stroke-width:25;marker:none;visibility:visible;display:inline;overflow:visible;enable-background:accumulate"
         sodipodi:type="arc" />
      <path
         transform="matrix(0.97113381,0,0,0.9795419,445.5444,971.73287)"
         d="m 184.20131,39.873642 c 0,5.638194 -4.61023,10.208854 -10.29724,10.208854 -5.68701,0 -10.29724,-4.57066 -10.29724,-10.208854 0,-5.638194 4.61023,-10.208854 10.29724,-10.208854 5.68701,0 10.29724,4.57066 10.29724,10.208854 z"
         sodipodi:ry="10.208854"
         sodipodi:rx="10.297242"
         sodipodi:cy="39.873642"
         sodipodi:cx="173.90407"
         id="path3988-5"
         style="color:#000000;fill:#ffffff;fill-opacity:0.43137255;fill-rule:nonzero;stroke:none;stroke-width:25;marker:none;visibility:visible;display:inline;overflow:visible;enable-background:accumulate"
         sodipodi:type="arc" />
      <path
         transform="matrix(0.95816421,0,0,0.92793825,578.3504,990.2416)"
         d="m 200.46477,39.387505 c 0,15.474524 -12.14886,28.019105 -27.13523,28.019105 -14.98637,0 -27.13522,-12.544581 -27.13522,-28.019105 0,-15.474525 12.14885,-28.019106 27.13522,-28.019106 14.98637,0 27.13523,12.544581 27.13523,28.019106 z"
         sodipodi:ry="28.019106"
         sodipodi:rx="27.135223"
         sodipodi:cy="39.387505"
         sodipodi:cx="173.32954"
         id="path3990-9"
         style="color:#000000;fill:#000000;fill-opacity:0.15686275;fill-rule:nonzero;stroke:none;stroke-width:25;marker:none;visibility:visible;display:inline;overflow:visible;enable-background:accumulate"
         sodipodi:type="arc" />
      <path
         transform="matrix(0.97113381,0,0,0.9795419,575.5444,987.73287)"
         d="m 184.20131,39.873642 c 0,5.638194 -4.61023,10.208854 -10.29724,10.208854 -5.68701,0 -10.29724,-4.57066 -10.29724,-10.208854 0,-5.638194 4.61023,-10.208854 10.29724,-10.208854 5.68701,0 10.29724,4.57066 10.29724,10.208854 z"
         sodipodi:ry="10.208854"
         sodipodi:rx="10.297242"
         sodipodi:cy="39.873642"
         sodipodi:cx="173.90407"
         id="path3988-6"
         style="color:#000000;fill:#ffffff;fill-opacity:0.43137255;fill-rule:nonzero;stroke:none;stroke-width:25;marker:none;visibility:visible;display:inline;overflow:visible;enable-background:accumulate"
         sodipodi:type="arc" />
      <path
         transform="matrix(0.95816421,0,0,0.92793825,594.3504,1136.2416)"
         d="m 200.46477,39.387505 c 0,15.474524 -12.14886,28.019105 -27.13523,28.019105 -14.98637,0 -27.13522,-12.544581 -27.13522,-28.019105 0,-15.474525 12.14885,-28.019106 27.13522,-28.019106 14.98637,0 27.13523,12.544581 27.13523,28.019106 z"
         sodipodi:ry="28.019106"
         sodipodi:rx="27.135223"
         sodipodi:cy="39.387505"
         sodipodi:cx="173.32954"
         id="path3990-5"
         style="color:#000000;fill:#000000;fill-opacity:0.15686275;fill-rule:nonzero;stroke:none;stroke-width:25;marker:none;visibility:visible;display:inline;overflow:visible;enable-background:accumulate"
         sodipodi:type="arc" />
      <path
         transform="matrix(0.97113381,0,0,0.9795419,591.5444,1133.7328)"
         d="m 184.20131,39.873642 c 0,5.638194 -4.61023,10.208854 -10.29724,10.208854 -5.68701,0 -10.29724,-4.57066 -10.29724,-10.208854 0,-5.638194 4.61023,-10.208854 10.29724,-10.208854 5.68701,0 10.29724,4.57066 10.29724,10.208854 z"
         sodipodi:ry="10.208854"
         sodipodi:rx="10.297242"
         sodipodi:cy="39.873642"
         sodipodi:cx="173.90407"
         id="path3988-7"
         style="color:#000000;fill:#ffffff;fill-opacity:0.43137255;fill-rule:nonzero;stroke:none;stroke-width:25;marker:none;visibility:visible;display:inline;overflow:visible;enable-background:accumulate"
         sodipodi:type="arc" />
      <path
         transform="matrix(0.95816421,0,0,0.92793825,594.3504,1260.2416)"
         d="m 200.46477,39.387505 c 0,15.474524 -12.14886,28.019105 -27.13523,28.019105 -14.98637,0 -27.13522,-12.544581 -27.13522,-28.019105 0,-15.474525 12.14885,-28.019106 27.13522,-28.019106 14.98637,0 27.13523,12.544581 27.13523,28.019106 z"
         sodipodi:ry="28.019106"
         sodipodi:rx="27.135223"
         sodipodi:cy="39.387505"
         sodipodi:cx="173.32954"
         id="path3990-0"
         style="color:#000000;fill:#000000;fill-opacity:0.15686275;fill-rule:nonzero;stroke:none;stroke-width:25;marker:none;visibility:visible;display:inline;overflow:visible;enable-background:accumulate"
         sodipodi:type="arc" />
      <path
         transform="matrix(0.97113381,0,0,0.9795419,591.5444,1257.7329)"
         d="m 184.20131,39.873642 c 0,5.638194 -4.61023,10.208854 -10.29724,10.208854 -5.68701,0 -10.29724,-4.57066 -10.29724,-10.208854 0,-5.638194 4.61023,-10.208854 10.29724,-10.208854 5.68701,0 10.29724,4.57066 10.29724,10.208854 z"
         sodipodi:ry="10.208854"
         sodipodi:rx="10.297242"
         sodipodi:cy="39.873642"
         sodipodi:cx="173.90407"
         id="path3988-8"
         style="color:#000000;fill:#ffffff;fill-opacity:0.43137255;fill-rule:nonzero;stroke:none;stroke-width:25;marker:none;visibility:visible;display:inline;overflow:visible;enable-background:accumulate"
         sodipodi:type="arc" />
      <path
         transform="matrix(0.95816421,0,0,0.92793825,572.3504,1394.2416)"
         d="m 200.46477,39.387505 c 0,15.474524 -12.14886,28.019105 -27.13523,28.019105 -14.98637,0 -27.13522,-12.544581 -27.13522,-28.019105 0,-15.474525 12.14885,-28.019106 27.13522,-28.019106 14.98637,0 27.13523,12.544581 27.13523,28.019106 z"
         sodipodi:ry="28.019106"
         sodipodi:rx="27.135223"
         sodipodi:cy="39.387505"
         sodipodi:cx="173.32954"
         id="path3990-6"
         style="color:#000000;fill:#000000;fill-opacity:0.15686275;fill-rule:nonzero;stroke:none;stroke-width:25;marker:none;visibility:visible;display:inline;overflow:visible;enable-background:accumulate"
         sodipodi:type="arc" />
      <path
         transform="matrix(0.97113381,0,0,0.9795419,569.5444,1391.7329)"
         d="m 184.20131,39.873642 c 0,5.638194 -4.61023,10.208854 -10.29724,10.208854 -5.68701,0 -10.29724,-4.57066 -10.29724,-10.208854 0,-5.638194 4.61023,-10.208854 10.29724,-10.208854 5.68701,0 10.29724,4.57066 10.29724,10.208854 z"
         sodipodi:ry="10.208854"
         sodipodi:rx="10.297242"
         sodipodi:cy="39.873642"
         sodipodi:cx="173.90407"
         id="path3988-0"
         style="color:#000000;fill:#ffffff;fill-opacity:0.43137255;fill-rule:nonzero;stroke:none;stroke-width:25;marker:none;visibility:visible;display:inline;overflow:visible;enable-background:accumulate"
         sodipodi:type="arc" />
      <path
         transform="matrix(0.95816421,0,0,0.92793825,454.3504,1410.2416)"
         d="m 200.46477,39.387505 c 0,15.474524 -12.14886,28.019105 -27.13523,28.019105 -14.98637,0 -27.13522,-12.544581 -27.13522,-28.019105 0,-15.474525 12.14885,-28.019106 27.13522,-28.019106 14.98637,0 27.13523,12.544581 27.13523,28.019106 z"
         sodipodi:ry="28.019106"
         sodipodi:rx="27.135223"
         sodipodi:cy="39.387505"
         sodipodi:cx="173.32954"
         id="path3990-7"
         style="color:#000000;fill:#000000;fill-opacity:0.15686275;fill-rule:nonzero;stroke:none;stroke-width:25;marker:none;visibility:visible;display:inline;overflow:visible;enable-background:accumulate"
         sodipodi:type="arc" />
      <path
         transform="matrix(0.97113381,0,0,0.9795419,451.5444,1407.7329)"
         d="m 184.20131,39.873642 c 0,5.638194 -4.61023,10.208854 -10.29724,10.208854 -5.68701,0 -10.29724,-4.57066 -10.29724,-10.208854 0,-5.638194 4.61023,-10.208854 10.29724,-10.208854 5.68701,0 10.29724,4.57066 10.29724,10.208854 z"
         sodipodi:ry="10.208854"
         sodipodi:rx="10.297242"
         sodipodi:cy="39.873642"
         sodipodi:cx="173.90407"
         id="path3988-1"
         style="color:#000000;fill:#ffffff;fill-opacity:0.43137255;fill-rule:nonzero;stroke:none;stroke-width:25;marker:none;visibility:visible;display:inline;overflow:visible;enable-background:accumulate"
         sodipodi:type="arc" />
      <path
         transform="matrix(0.95816421,0,0,0.92793825,308.35039,1408.2416)"
         d="m 200.46477,39.387505 c 0,15.474524 -12.14886,28.019105 -27.13523,28.019105 -14.98637,0 -27.13522,-12.544581 -27.13522,-28.019105 0,-15.474525 12.14885,-28.019106 27.13522,-28.019106 14.98637,0 27.13523,12.544581 27.13523,28.019106 z"
         sodipodi:ry="28.019106"
         sodipodi:rx="27.135223"
         sodipodi:cy="39.387505"
         sodipodi:cx="173.32954"
         id="path3990-63"
         style="color:#000000;fill:#000000;fill-opacity:0.15686275;fill-rule:nonzero;stroke:none;stroke-width:25;marker:none;visibility:visible;display:inline;overflow:visible;enable-background:accumulate"
         sodipodi:type="arc" />
      <path
         transform="matrix(0.97113381,0,0,0.9795419,305.54443,1405.7329)"
         d="m 184.20131,39.873642 c 0,5.638194 -4.61023,10.208854 -10.29724,10.208854 -5.68701,0 -10.29724,-4.57066 -10.29724,-10.208854 0,-5.638194 4.61023,-10.208854 10.29724,-10.208854 5.68701,0 10.29724,4.57066 10.29724,10.208854 z"
         sodipodi:ry="10.208854"
         sodipodi:rx="10.297242"
         sodipodi:cy="39.873642"
         sodipodi:cx="173.90407"
         id="path3988-60"
         style="color:#000000;fill:#ffffff;fill-opacity:0.43137255;fill-rule:nonzero;stroke:none;stroke-width:25;marker:none;visibility:visible;display:inline;overflow:visible;enable-background:accumulate"
         sodipodi:type="arc" />
      <path
         transform="matrix(0.95816421,0,0,0.92793825,172.35039,1390.2416)"
         d="m 200.46477,39.387505 c 0,15.474524 -12.14886,28.019105 -27.13523,28.019105 -14.98637,0 -27.13522,-12.544581 -27.13522,-28.019105 0,-15.474525 12.14885,-28.019106 27.13522,-28.019106 14.98637,0 27.13523,12.544581 27.13523,28.019106 z"
         sodipodi:ry="28.019106"
         sodipodi:rx="27.135223"
         sodipodi:cy="39.387505"
         sodipodi:cx="173.32954"
         id="path3990-8"
         style="color:#000000;fill:#000000;fill-opacity:0.15686275;fill-rule:nonzero;stroke:none;stroke-width:25;marker:none;visibility:visible;display:inline;overflow:visible;enable-background:accumulate"
         sodipodi:type="arc" />
      <path
         transform="matrix(0.97113381,0,0,0.9795419,169.54443,1387.7329)"
         d="m 184.20131,39.873642 c 0,5.638194 -4.61023,10.208854 -10.29724,10.208854 -5.68701,0 -10.29724,-4.57066 -10.29724,-10.208854 0,-5.638194 4.61023,-10.208854 10.29724,-10.208854 5.68701,0 10.29724,4.57066 10.29724,10.208854 z"
         sodipodi:ry="10.208854"
         sodipodi:rx="10.297242"
         sodipodi:cy="39.873642"
         sodipodi:cx="173.90407"
         id="path3988-18"
         style="color:#000000;fill:#ffffff;fill-opacity:0.43137255;fill-rule:nonzero;stroke:none;stroke-width:25;marker:none;visibility:visible;display:inline;overflow:visible;enable-background:accumulate"
         sodipodi:type="arc" />
      <path
         transform="matrix(0.95816421,0,0,0.92793825,162.35039,1262.2416)"
         d="m 200.46477,39.387505 c 0,15.474524 -12.14886,28.019105 -27.13523,28.019105 -14.98637,0 -27.13522,-12.544581 -27.13522,-28.019105 0,-15.474525 12.14885,-28.019106 27.13522,-28.019106 14.98637,0 27.13523,12.544581 27.13523,28.019106 z"
         sodipodi:ry="28.019106"
         sodipodi:rx="27.135223"
         sodipodi:cy="39.387505"
         sodipodi:cx="173.32954"
         id="path3990-78"
         style="color:#000000;fill:#000000;fill-opacity:0.15686275;fill-rule:nonzero;stroke:none;stroke-width:25;marker:none;visibility:visible;display:inline;overflow:visible;enable-background:accumulate"
         sodipodi:type="arc" />
      <path
         transform="matrix(0.97113381,0,0,0.9795419,159.54443,1259.7329)"
         d="m 184.20131,39.873642 c 0,5.638194 -4.61023,10.208854 -10.29724,10.208854 -5.68701,0 -10.29724,-4.57066 -10.29724,-10.208854 0,-5.638194 4.61023,-10.208854 10.29724,-10.208854 5.68701,0 10.29724,4.57066 10.29724,10.208854 z"
         sodipodi:ry="10.208854"
         sodipodi:rx="10.297242"
         sodipodi:cy="39.873642"
         sodipodi:cx="173.90407"
         id="path3988-3"
         style="color:#000000;fill:#ffffff;fill-opacity:0.43137255;fill-rule:nonzero;stroke:none;stroke-width:25;marker:none;visibility:visible;display:inline;overflow:visible;enable-background:accumulate"
         sodipodi:type="arc" />
      <path
         transform="matrix(0.95816421,0,0,0.92793825,162.35039,1134.2416)"
         d="m 200.46477,39.387505 c 0,15.474524 -12.14886,28.019105 -27.13523,28.019105 -14.98637,0 -27.13522,-12.544581 -27.13522,-28.019105 0,-15.474525 12.14885,-28.019106 27.13522,-28.019106 14.98637,0 27.13523,12.544581 27.13523,28.019106 z"
         sodipodi:ry="28.019106"
         sodipodi:rx="27.135223"
         sodipodi:cy="39.387505"
         sodipodi:cx="173.32954"
         id="path3990-3"
         style="color:#000000;fill:#000000;fill-opacity:0.15686275;fill-rule:nonzero;stroke:none;stroke-width:25;marker:none;visibility:visible;display:inline;overflow:visible;enable-background:accumulate"
         sodipodi:type="arc" />
      <path
         transform="matrix(0.97113381,0,0,0.9795419,159.54443,1131.7329)"
         d="m 184.20131,39.873642 c 0,5.638194 -4.61023,10.208854 -10.29724,10.208854 -5.68701,0 -10.29724,-4.57066 -10.29724,-10.208854 0,-5.638194 4.61023,-10.208854 10.29724,-10.208854 5.68701,0 10.29724,4.57066 10.29724,10.208854 z"
         sodipodi:ry="10.208854"
         sodipodi:rx="10.297242"
         sodipodi:cy="39.873642"
         sodipodi:cx="173.90407"
         id="path3988-2"
         style="color:#000000;fill:#ffffff;fill-opacity:0.43137255;fill-rule:nonzero;stroke:none;stroke-width:25;marker:none;visibility:visible;display:inline;overflow:visible;enable-background:accumulate"
         sodipodi:type="arc" />
      <path
         transform="matrix(0.95816421,0,0,0.92793825,176.35039,992.2416)"
         d="m 200.46477,39.387505 c 0,15.474524 -12.14886,28.019105 -27.13523,28.019105 -14.98637,0 -27.13522,-12.544581 -27.13522,-28.019105 0,-15.474525 12.14885,-28.019106 27.13522,-28.019106 14.98637,0 27.13523,12.544581 27.13523,28.019106 z"
         sodipodi:ry="28.019106"
         sodipodi:rx="27.135223"
         sodipodi:cy="39.387505"
         sodipodi:cx="173.32954"
         id="path3990-72"
         style="color:#000000;fill:#000000;fill-opacity:0.15686275;fill-rule:nonzero;stroke:none;stroke-width:25;marker:none;visibility:visible;display:inline;overflow:visible;enable-background:accumulate"
         sodipodi:type="arc" />
      <path
         transform="matrix(0.97113381,0,0,0.9795419,173.54443,989.73287)"
         d="m 184.20131,39.873642 c 0,5.638194 -4.61023,10.208854 -10.29724,10.208854 -5.68701,0 -10.29724,-4.57066 -10.29724,-10.208854 0,-5.638194 4.61023,-10.208854 10.29724,-10.208854 5.68701,0 10.29724,4.57066 10.29724,10.208854 z"
         sodipodi:ry="10.208854"
         sodipodi:rx="10.297242"
         sodipodi:cy="39.873642"
         sodipodi:cx="173.90407"
         id="path3988-9"
         style="color:#000000;fill:#ffffff;fill-opacity:0.43137255;fill-rule:nonzero;stroke:none;stroke-width:25;marker:none;visibility:visible;display:inline;overflow:visible;enable-background:accumulate"
         sodipodi:type="arc" />
    </g>
    <path
       style="color:#000000;fill:#454545;fill-opacity:1;fill-rule:nonzero;stroke:#000000;stroke-width:2;stroke-miterlimit:4;stroke-opacity:1;stroke-dasharray:none;marker:none;visibility:visible;display:inline;overflow:visible;enable-background:accumulate"
       inkscape:transform-center-x="15.27864"
       d="m 112,764.36128 112,-111.99896 176,32 0,159.99992 -176,32 z"
       id="path3796"
       inkscape:connector-curvature="0"
       sodipodi:nodetypes="cccccc" />
    <path
       style="opacity:0.3304721;color:#000000;fill:#ffffff;fill-opacity:1;fill-rule:nonzero;stroke:none;stroke-width:0.5;marker:none;visibility:visible;display:inline;overflow:visible;enable-background:accumulate"
       d="m 224,652.36216 -112,112 11.3655,0 104.03268,-104.00477 163.07302,29.57647 9.5288,-5.5717 z"
       id="path3796-4"
       inkscape:connector-curvature="0"
       sodipodi:nodetypes="ccccccc" />
    <path
       style="opacity:0.33000004;color:#000000;fill:#000000;fill-opacity:1;fill-rule:nonzero;stroke:none;stroke-width:0.5;marker:none;visibility:visible;display:inline;overflow:visible;enable-background:accumulate"
       inkscape:transform-center-x="15.27864"
       d="m 227.3125,868.23664 163.5,-29.62432 9.1875,5.74992 -176,32 z"
       id="path3796-2"
       inkscape:connector-curvature="0"
       sodipodi:nodetypes="ccccc" />
    <g
       id="g3812"
       transform="matrix(4,0,0,4,15.999999,-3157.1022)"
       style="stroke:none">
      <g
         id="g3011"
         style="stroke:none">
        <path
           transform="translate(0,924.36218)"
           style="color:#000000;fill:#313b35;fill-opacity:1;fill-rule:nonzero;stroke:#000000;stroke-width:0.5;stroke-opacity:1;marker:none;visibility:visible;display:inline;overflow:visible;enable-background:accumulate"
           inkscape:transform-center-y="-0.19098301"
           d="m 52,42 4,2 0,4 -4,2 -4,-2 0,-4 z"
           id="path3843-0"
           inkscape:connector-curvature="0"
           sodipodi:nodetypes="ccccccc" />
        <path
           style="opacity:0.41630901;fill:#000000;fill-opacity:1;stroke:none"
           d="m 56,44 -1,1 0,3 -3,1.492187 L 52,50 l 4,-2 0,-4"
           id="path3862-1"
           inkscape:connector-curvature="0"
           transform="translate(0,924.36218)"
           sodipodi:nodetypes="ccccccc" />
        <path
           style="opacity:0.12446355;fill:#ffffff;fill-opacity:1;stroke:none"
           d="M 48,48 49,47 49,44.5625 52,43 52,42 48,44 z"
           id="path3860-8"
           inkscape:connector-curvature="0"
           transform="translate(0,924.36218)"
           sodipodi:nodetypes="ccccccc" />
      </g>
      <g
         id="g3016"
         style="stroke:none">
        <path
           transform="translate(0,924.36218)"
           style="color:#000000;fill:#313b35;fill-opacity:1;fill-rule:nonzero;stroke:#000000;stroke-width:0.5;stroke-opacity:1;marker:none;visibility:visible;display:inline;overflow:visible;enable-background:accumulate"
           inkscape:transform-center-y="0.19098301"
           d="m 52,70 -4,-2 0,-4 4,-2 4,2 0,4 z"
           id="path3847-4"
           inkscape:connector-curvature="0"
           sodipodi:nodetypes="ccccccc" />
        <path
           style="opacity:0.12446355;fill:#ffffff;fill-opacity:1;stroke:none"
           d="m 48.001686,992.36227 1,-1 0,-2.4375 3,-1.5625 0,-1 -4,2 z"
           id="path3860-4-2"
           inkscape:connector-curvature="0"
           sodipodi:nodetypes="ccccccc" />
        <path
           style="opacity:0.41630901;fill:#000000;fill-opacity:1;stroke:none"
           d="m 55.988281,988.36609 -1,1 0,3 -3,1.49219 0,0.50781 4,-2 0,-4"
           id="path3862-4-3"
           inkscape:connector-curvature="0"
           sodipodi:nodetypes="ccccccc" />
      </g>
      <g
         id="g3807"
         style="stroke:none">
        <path
           transform="translate(0,924.36218)"
           style="color:#000000;fill:#626262;fill-opacity:1;fill-rule:nonzero;stroke:none;stroke-width:0.5;marker:none;visibility:visible;display:inline;overflow:visible;enable-background:accumulate"
           d="m 52,44 2,1 0,22 -2,1 -2,-1 0,-22 z"
           id="path3851-4"
           inkscape:connector-curvature="0"
           sodipodi:nodetypes="ccccccc" />
        <path
           style="opacity:0.49356223;fill:#ffffff;fill-opacity:1;stroke:none"
           d="m 52,44 0,1 -0.98125,0.490625 C 51.013998,52.830159 51.003467,59.101871 51,66.441406 L 50,67 50,45 z"
           id="path3900-8"
           inkscape:connector-curvature="0"
           transform="translate(0,924.36218)"
           sodipodi:nodetypes="ccccccc" />
        <path
           style="opacity:0.49356223;fill:#000000;fill-opacity:1;stroke:none"
           d="m 51.999207,992.36392 0,-1 0.98125,-0.49063 c 0.005,-7.33953 0.0153,-13.6405 0.0188,-20.98004 l 1,-0.52933 0,22 z"
           id="path3900-7"
           inkscape:connector-curvature="0"
           sodipodi:nodetypes="ccccccc" />
      </g>
    </g>
    <path
       sodipodi:type="star"
       style="color:#000000;fill:#ff0000;fill-opacity:1;fill-rule:nonzero;stroke:#000000;stroke-width:0.5;stroke-miterlimit:4;stroke-opacity:1;stroke-dasharray:none;marker:none;visibility:visible;display:inline;overflow:visible;enable-background:accumulate"
       id="path3031"
       sodipodi:sides="5"
       sodipodi:cx="40"
       sodipodi:cy="96"
       sodipodi:r1="8"
       sodipodi:r2="6.9282031"
       sodipodi:arg1="3.1415927"
       sodipodi:arg2="3.7699111"
       inkscape:flatsided="true"
       inkscape:rounded="0"
       inkscape:randomized="0"
       d="m 32,96 5.527864,-7.608452 8.944272,2.90617 0,9.404562 -8.944272,2.90617 z"
       transform="matrix(4,0,0,4,-9.3428638e-7,540.36216)" />
    <path
       style="opacity:0.41558443;color:#000000;fill:#000000;fill-opacity:1;fill-rule:nonzero;stroke:none;stroke-width:0.5;marker:none;visibility:visible;display:inline;overflow:visible;enable-background:accumulate"
       d="m 178.875,903.36216 0,35.75 -32.5,10.5 3.75,5.125 35.75,-11.625 0,-37.5 -7,-2.25 z"
       id="path3031-4"
       inkscape:connector-curvature="0" />
  </g>
</svg>
