<?xml version="1.0" encoding="UTF-8" standalone="no"?>
<!-- Created with Inkscape (http://www.inkscape.org/) -->

<svg
   xmlns:dc="http://purl.org/dc/elements/1.1/"
   xmlns:cc="http://creativecommons.org/ns#"
   xmlns:rdf="http://www.w3.org/1999/02/22-rdf-syntax-ns#"
   xmlns:svg="http://www.w3.org/2000/svg"
   xmlns="http://www.w3.org/2000/svg"
   xmlns:sodipodi="http://sodipodi.sourceforge.net/DTD/sodipodi-0.dtd"
   xmlns:inkscape="http://www.inkscape.org/namespaces/inkscape"
   width="512"
   height="512"
   id="svg2"
   version="1.1"
   inkscape:version="0.48.4 r9939"
   sodipodi:docname="SlickPlasticBlock.svg"
   inkscape:export-filename="/home/ben/Dropbox/minecraft/svg/machineblock.png"
   inkscape:export-xdpi="360"
   inkscape:export-ydpi="360">
  <defs
     id="defs4" />
  <sodipodi:namedview
     id="base"
     pagecolor="#ffffff"
     bordercolor="#666666"
     borderopacity="1.0"
     inkscape:pageopacity="0.0"
     inkscape:pageshadow="2"
     inkscape:zoom="0.70710678"
     inkscape:cx="277.58623"
     inkscape:cy="274.74865"
     inkscape:document-units="px"
     inkscape:current-layer="layer1"
     showgrid="false"
     inkscape:window-width="1301"
     inkscape:window-height="744"
     inkscape:window-x="65"
     inkscape:window-y="24"
     inkscape:window-maximized="1"
     fit-margin-top="0"
     fit-margin-left="0"
     fit-margin-right="0"
     fit-margin-bottom="0">
    <inkscape:grid
       type="xygrid"
       id="grid2996"
       empspacing="128"
       visible="true"
       enabled="true"
       snapvisiblegridlinesonly="true"
       originx="-284.42856px"
       originy="428.42859px" />
  </sodipodi:namedview>
  <metadata
     id="metadata7">
    <rdf:RDF>
      <cc:Work
         rdf:about="">
        <dc:format>image/svg+xml</dc:format>
        <dc:type
           rdf:resource="http://purl.org/dc/dcmitype/StillImage" />
        <dc:title></dc:title>
      </cc:Work>
    </rdf:RDF>
  </metadata>
  <g
     inkscape:label="Layer 1"
     inkscape:groupmode="layer"
     id="layer1"
     transform="translate(-284.42856,-968.79077)">
    <rect
       style="color:#000000;fill:#e6e6e6;fill-opacity:1;fill-rule:nonzero;stroke:none;stroke-width:4;marker:none;visibility:visible;display:inline;overflow:visible;enable-background:accumulate"
       id="rect3014"
       width="512"
       height="512"
       x="284.42859"
       y="968.79077" />
    <path
       style="fill:#000000;fill-opacity:0.1372549;stroke:none"
       d="m 396.42856,1036.9158 a 11.883171,11.883171 0 0 0 -8.40625,3.4687 l -32,32 a 11.883171,11.883171 0 0 0 -3.46875,8.4063 l 0,128 11.875,0 0,-128 32,-32 288,0 32,32 0,128 11.875,0 0,-128 a 11.883171,11.883171 0 0 0 -3.46875,-8.4063 l -32,-32 a 11.883171,11.883171 0 0 0 -8.40625,-3.4687 l -288,0 z"
       id="path3016" />
    <path
       style="fill:#000000;fill-opacity:0.1372549;stroke:none"
       d="m 352.55356,1240.7908 0,128 c -0.004,3.1106 1.27233,6.2036 3.46875,8.4062 l 32,32 c 2.20258,2.1965 5.29567,3.4728 8.40625,3.4688 l 128,0 0,-11.875 -128,0 -32,-32 0,-116.125 0,0 0,-11.875 z"
       id="path3039"
       inkscape:connector-curvature="0"
       sodipodi:nodetypes="ccccccccccccc" />
    <path
       style="fill:#000000;fill-opacity:0.1372549;stroke:none"
       d="m 716.42856,1240.7908 0,128 -32.03125,32 -127.96875,0 0,11.875 127.96875,0 a 11.883171,11.883171 0 0 0 8.40625,-3.4688 l 32.03125,-32 a 11.883171,11.883171 0 0 0 3.46875,-8.4062 l 0,-128 -11.875,0 z"
       id="path3085-4" />
    <path
       style="fill:#ffffff;fill-opacity:1;stroke:none"
       d="m 402.4286,1055.2908 -32.00004,32 0,121.6875 154.21874,-153.6875 z m 205.4375,0 -237.43754,238.6875 0,70.25 310.00004,-308.9375 z m 114.5625,71.2812 -279.1875,280.7188 165.1875,0 114,-114 z"
       id="path3085-8"
       inkscape:connector-curvature="0"
       sodipodi:nodetypes="ccccccccccccccc" />
    <path
       style="fill:#000000;fill-opacity:0.16470588;stroke:none"
       d="m 396.42856,1048.7908 -32,32 0,128 14,0 0,-114 32,-32 114,0 0,-14 -128,0 z"
       id="path3173" />
    <path
       style="fill:#000000;fill-opacity:0.05882353;stroke:none"
       d="m 572.64756,1065.0095 105.06225,0 22.5,22.5 -2.5e-4,105.0623 -127.562,0 z m -16.219,143.7813 160,0 0,-128 -32,-32 -128,0 z"
       id="path3090"
       inkscape:connector-curvature="0"
       sodipodi:nodetypes="cccccccccccc" />
    <path
       style="fill:#000000;fill-opacity:0.16470588;stroke:none"
       d="m 556.42856,1048.7908 0,160 14,0 0,-146 128,0 -14,-14 z"
       id="path3171"
       inkscape:connector-curvature="0"
       sodipodi:nodetypes="ccccccc" />
    <path
       style="fill:#000000;fill-opacity:0.05882353;stroke:none"
       d="m 508.20956,1384.572 -105.06225,0 -22.5,-22.5 0,-105.0622 127.56225,0 z m 16.219,-143.7812 -160,0 0,128 32,32 128,0 z"
       id="path3088"
       inkscape:connector-curvature="0"
       sodipodi:nodetypes="cccccccccccc" />
    <path
       style="fill:#000000;fill-opacity:0.16470588;stroke:none"
       d="m 364.42856,1240.7908 0,128 14,14 0,-128 146,0 0,-14 z"
       id="path3085"
       inkscape:connector-curvature="0"
       sodipodi:nodetypes="ccccccc" />
    <path
       style="fill:#000000;fill-opacity:0.05882353;stroke:none"
       d="m 508.20956,1192.5718 -127.56225,0 0,-105.0623 22.5,-22.5 105.06225,0 z m 16.219,-143.781 -128,0 -32,32 0,128 160,0 z"
       id="path3092"
       inkscape:connector-curvature="0"
       sodipodi:nodetypes="cccccccccccc" />
    <path
       style="fill:#000000;fill-opacity:0.05882353;stroke:none"
       d="m 556.42856,1400.7908 127.96875,0 32.03125,-32 0,-128 -160,0 z m 16.219,-143.781 127.56225,0 0,105.0622 -22.53125,22.5 -105.031,0 z"
       id="path3085-2"
       inkscape:connector-curvature="0"
       sodipodi:nodetypes="cccccccccccc" />
    <path
       style="fill:#ffffff;fill-opacity:0.41203703;stroke:none"
       d="m 716.4286,1080.7908 0,288 -32.0313,32 -287.96874,0 17.00004,17 287.9687,0 32.0313,-32 0,-288 -17,-17 z"
       id="path3085-5"
       inkscape:connector-curvature="0" />
    <path
       style="color:#000000;fill:#ffffff;fill-opacity:0.41176471;fill-rule:nonzero;stroke:none;stroke-width:25;marker:none;visibility:visible;display:inline;overflow:visible;enable-background:accumulate"
       d="m 284.42856,968.79077 0,512.00003 17,0 0,-495.00003 495.00004,0 0,-17 -512.00004,0 z"
       id="rect3933"
       inkscape:connector-curvature="0" />
    <path
       style="color:#000000;fill:#000000;fill-opacity:0.1372549;fill-rule:nonzero;stroke:none;stroke-width:25;marker:none;visibility:visible;display:inline;overflow:visible;enable-background:accumulate"
       d="m 284.42856,968.79077 0,512.00003 512.00004,0 0,-512.00003 -512.00004,0 z m 12,12 488.00004,0 0,488.00003 -488.00004,0 0,-488.00003 z"
       id="rect3933-3"
       inkscape:connector-curvature="0" />
    <rect
       style="color:#000000;fill:#e6e6e6;fill-opacity:1;fill-rule:nonzero;stroke:none;stroke-width:4;marker:none;visibility:visible;display:inline;overflow:visible;enable-background:accumulate"
       id="rect2991"
       width="32"
       height="393"
       x="524.42859"
       y="1031.2908" />
    <rect
       style="color:#000000;fill:#e6e6e6;fill-opacity:1;fill-rule:nonzero;stroke:none;stroke-width:4;marker:none;visibility:visible;display:inline;overflow:visible;enable-background:accumulate"
       id="rect2993"
       width="382"
       height="32"
       x="352.42856"
       y="1208.7908" />
    <path
       style="fill:#000000;fill-opacity:0.16470588;stroke:none"
       d="m 556.42856,1240.7908 0,160 14,0 0,-146 146,0 0,-14 z"
       id="path3085-7"
       inkscape:connector-curvature="0"
       sodipodi:nodetypes="ccccccc" />
  </g>
</svg>
