<?xml version="1.0" encoding="UTF-8" standalone="no"?>
<!-- Created with Inkscape (http://www.inkscape.org/) -->

<svg
   xmlns:dc="http://purl.org/dc/elements/1.1/"
   xmlns:cc="http://creativecommons.org/ns#"
   xmlns:rdf="http://www.w3.org/1999/02/22-rdf-syntax-ns#"
   xmlns:svg="http://www.w3.org/2000/svg"
   xmlns="http://www.w3.org/2000/svg"
   xmlns:sodipodi="http://sodipodi.sourceforge.net/DTD/sodipodi-0.dtd"
   xmlns:inkscape="http://www.inkscape.org/namespaces/inkscape"
   width="512.00006"
   height="1024"
   id="svg2"
   version="1.1"
   inkscape:version="0.48.4 r9939"
   sodipodi:docname="SalinationController.svg"
   inkscape:export-filename="/home/ben/Dropbox/minecraft/svg/machineblock.png"
   inkscape:export-xdpi="360"
   inkscape:export-ydpi="360">
  <defs
     id="defs4" />
  <sodipodi:namedview
     id="base"
     pagecolor="#ffffff"
     bordercolor="#666666"
     borderopacity="1.0"
     inkscape:pageopacity="0.0"
     inkscape:pageshadow="2"
     inkscape:zoom="0.50000001"
     inkscape:cx="500.57387"
     inkscape:cy="503.25987"
     inkscape:document-units="px"
     inkscape:current-layer="layer1"
     showgrid="true"
     inkscape:window-width="1301"
     inkscape:window-height="744"
     inkscape:window-x="65"
     inkscape:window-y="24"
     inkscape:window-maximized="1"
     fit-margin-top="0"
     fit-margin-left="0"
     fit-margin-right="0"
     fit-margin-bottom="0">
    <inkscape:grid
       type="xygrid"
       id="grid2996"
       empspacing="16"
       visible="true"
       enabled="true"
       snapvisiblegridlinesonly="true"
       originx="2.8421709e-14px"
       originy="3.9542236e-05px" />
  </sodipodi:namedview>
  <metadata
     id="metadata7">
    <rdf:RDF>
      <cc:Work
         rdf:about="">
        <dc:format>image/svg+xml</dc:format>
        <dc:type
           rdf:resource="http://purl.org/dc/dcmitype/StillImage" />
        <dc:title></dc:title>
      </cc:Work>
    </rdf:RDF>
  </metadata>
  <g
     inkscape:label="Layer 1"
     inkscape:groupmode="layer"
     id="layer1"
     transform="translate(-284.42856,-456.79074)">
    <rect
       style="color:#000000;fill:#7b4800;fill-opacity:1;fill-rule:nonzero;stroke:none;stroke-width:4;marker:none;visibility:visible;display:inline;overflow:visible;enable-background:accumulate"
       id="rect3014"
       width="512"
       height="512"
       x="284.42859"
       y="968.79077" />
    <rect
       style="color:#000000;fill:#69fff3;fill-opacity:1;fill-rule:nonzero;stroke:none;stroke-width:4;marker:none;visibility:visible;display:inline;overflow:visible;enable-background:accumulate"
       id="rect3830"
       width="256"
       height="144"
       x="128"
       y="128"
       transform="translate(284.42856,968.79077)" />
    <path
       style="fill:#000000;fill-opacity:0.1372549;stroke:none"
       d="m 396.42857,1036.9158 a 11.883171,11.883171 0 0 0 -8.40625,3.4687 l -32,32 a 11.883171,11.883171 0 0 0 -3.46875,8.4063 l 0,288 a 11.883171,11.883171 0 0 0 3.46875,8.4062 l 32,32 a 11.883171,11.883171 0 0 0 8.40625,3.4688 l 287.96873,0 a 11.883171,11.883171 0 0 0 8.4063,-3.4688 l 32.0312,-32 a 11.883171,11.883171 0 0 0 3.4688,-8.4062 l 0,-288 a 11.883171,11.883171 0 0 0 -3.4688,-8.4063 l -32,-32 a 11.883171,11.883171 0 0 0 -8.4062,-3.4687 l -288.00003,0 z m 0,11.875 288.00003,0 32,32 0,288 -32.0313,32 -287.96873,0 -32,-32 0,-288 32,-32 z"
       id="path3085-4"
       inkscape:connector-curvature="0" />
    <path
       style="fill:#000000;fill-opacity:0.16470588;stroke:none"
       d="m 396.42856,1048.7908 -32,32 0,288 14,14 0,-288 32.00004,-32 288,0 -14,-14 -288.00004,0 z"
       id="path3085"
       inkscape:connector-curvature="0" />
    <path
       style="fill:#000000;fill-opacity:0.05882353;stroke:none"
       d="m 396.42856,1048.7908 -32,32 0,288 32,32 287.96874,0 32.0313,-32 0,-288 -32,-32 -288.00004,0 z m 6.71874,16.2187 274.5625,0 22.5,22.5 0,274.5625 -22.5312,22.5 -274.5313,0 -22.49999,-22.5 0,-274.5625 22.49999,-22.5 z"
       id="path3085-2"
       inkscape:connector-curvature="0" />
    <path
       style="fill:#ffffff;fill-opacity:0.05882353;stroke:none"
       d="m 716.4286,1080.7908 0,288 -32.0313,32 -287.96874,0 17.00004,17 287.9687,0 32.0313,-32 0,-288 -17,-17 z"
       id="path3085-5"
       inkscape:connector-curvature="0" />
    <path
       style="color:#000000;fill:#ffffff;fill-opacity:0.1372549;fill-rule:nonzero;stroke:none;stroke-width:25;marker:none;visibility:visible;display:inline;overflow:visible;enable-background:accumulate"
       d="m 284.42856,968.79077 0,512.00003 17,0 0,-495.00003 495.00004,0 0,-17 -512.00004,0 z"
       id="rect3933"
       inkscape:connector-curvature="0" />
    <path
       style="color:#000000;fill:#000000;fill-opacity:0.05882353;fill-rule:nonzero;stroke:none;stroke-width:25;marker:none;visibility:visible;display:inline;overflow:visible;enable-background:accumulate"
       d="m 284.42856,968.79077 0,512.00003 512.00004,0 0,-512.00003 -512.00004,0 z m 12,12 488.00004,0 0,488.00003 -488.00004,0 0,-488.00003 z"
       id="rect3933-3"
       inkscape:connector-curvature="0" />
    <path
       style="color:#000000;fill:#6f4100;fill-opacity:1;fill-rule:nonzero;stroke:none;stroke-width:20;marker:none;visibility:visible;display:inline;overflow:visible;enable-background:accumulate"
       d="m 412.4286,1080.7908 -16.00004,16 -4e-5,144 16.00004,16 256,0 16,-16 4e-5,-144 -16,-16 z m 8,16 240,0 8,8 -4e-5,128 -8,8 -240,0 -8,-8 4e-5,-128 z"
       id="rect3050-8"
       inkscape:connector-curvature="0"
       sodipodi:nodetypes="cccccccccccccccccc" />
    <path
       style="color:#000000;fill:#ffffff;fill-opacity:0.09722224;fill-rule:nonzero;stroke:none;stroke-width:20;marker:none;visibility:visible;display:inline;overflow:visible;enable-background:accumulate"
       d="m 412.4286,1080.7908 -16.00004,16 -4e-5,144 4.00004,4 4e-5,-144 16,-16 256,0 -4,-4 z m 256,24 -4e-5,128 -8,8 -240,0 4,4 240,0 8,-8 4e-5,-128 z"
       id="rect3050-8-6"
       inkscape:connector-curvature="0"
       sodipodi:nodetypes="cccccccccccccccccc" />
    <path
       style="color:#000000;fill:#000000;fill-opacity:0.19607843;fill-rule:nonzero;stroke:none;stroke-width:20;marker:none;visibility:visible;display:inline;overflow:visible;enable-background:accumulate"
       d="m 416.4286,1092.7908 -8,8 -4e-5,128 4,4 4e-5,-128 8,-8 240,0 -4,-4 z m 264,0 -4e-5,144 -16,16 -256,0 4,4 256,0 16,-16 4e-5,-144 z"
       id="rect3050-8-0"
       inkscape:connector-curvature="0"
       sodipodi:nodetypes="cccccccccccccccccc" />
    <path
       sodipodi:type="star"
       style="color:#000000;fill:#00ff16;fill-opacity:1;fill-rule:nonzero;stroke:#000000;stroke-width:0.5;stroke-opacity:1;marker:none;visibility:visible;display:inline;overflow:visible;enable-background:accumulate"
       id="path3031"
       sodipodi:sides="5"
       sodipodi:cx="40"
       sodipodi:cy="96"
       sodipodi:r1="8"
       sodipodi:r2="6.9282031"
       sodipodi:arg1="3.1415927"
       sodipodi:arg2="3.7699111"
       inkscape:flatsided="true"
       inkscape:rounded="0"
       inkscape:randomized="0"
       d="m 32,96 5.527864,-7.608452 8.944272,2.90617 0,9.404562 -8.944272,2.90617 z"
       transform="matrix(4,0,0,4,284.42854,968.79076)" />
    <path
       style="opacity:0.41558443;color:#000000;fill:#000000;fill-opacity:1;fill-rule:nonzero;stroke:none;stroke-width:0.5;marker:none;visibility:visible;display:inline;overflow:visible;enable-background:accumulate"
       d="m 463.30354,1331.7908 0,35.75 -32.5,10.5 3.75,5.125 35.75,-11.625 0,-37.5 -7,-2.25 z"
       id="path3031-4"
       inkscape:connector-curvature="0" />
    <text
       xml:space="preserve"
       style="font-size:40px;font-style:normal;font-variant:normal;font-weight:normal;font-stretch:normal;line-height:125%;letter-spacing:0px;word-spacing:0px;fill:#000000;fill-opacity:1;stroke:none;font-family:PT Mono;-inkscape-font-specification:PT Mono"
       x="144.60333"
       y="175.77074"
       id="text3885"
       sodipodi:linespacing="125%"
       transform="translate(284.42856,968.79077)"><tspan
         sodipodi:role="line"
         x="144.60333"
         y="175.77074"
         id="tspan3949">&gt;</tspan></text>
    <rect
       style="color:#000000;fill:#7b4800;fill-opacity:1;fill-rule:nonzero;stroke:none;stroke-width:4;marker:none;visibility:visible;display:inline;overflow:visible;enable-background:accumulate"
       id="rect3014-9"
       width="512"
       height="512"
       x="284.42859"
       y="456.79074" />
    <rect
       style="color:#000000;fill:#69fff3;fill-opacity:1;fill-rule:nonzero;stroke:none;stroke-width:4;marker:none;visibility:visible;display:inline;overflow:visible;enable-background:accumulate"
       id="rect3830-5"
       width="256"
       height="144"
       x="412.42856"
       y="584.79071" />
    <path
       style="fill:#000000;fill-opacity:0.1372549;stroke:none"
       d="m 396.42857,524.91577 a 11.883171,11.883171 0 0 0 -8.40625,3.4687 l -32,32 a 11.883171,11.883171 0 0 0 -3.46875,8.4063 l 0,288 a 11.883171,11.883171 0 0 0 3.46875,8.4062 l 32,32 a 11.883171,11.883171 0 0 0 8.40625,3.4688 l 287.96873,0 a 11.883171,11.883171 0 0 0 8.4063,-3.4688 l 32.0312,-32 a 11.883171,11.883171 0 0 0 3.4688,-8.4062 l 0,-288 a 11.883171,11.883171 0 0 0 -3.4688,-8.4063 l -32,-32 a 11.883171,11.883171 0 0 0 -8.4062,-3.4687 l -288.00003,0 z m 0,11.875 288.00003,0 32,32 0,288 -32.0313,32 -287.96873,0 -32,-32 0,-288 32,-32 z"
       id="path3085-4-2"
       inkscape:connector-curvature="0" />
    <path
       style="fill:#000000;fill-opacity:0.16470588;stroke:none"
       d="m 396.42856,536.79077 -32,32 0,288 14,14 0,-288 32.00004,-32 288,0 -14,-14 -288.00004,0 z"
       id="path3085-27"
       inkscape:connector-curvature="0" />
    <path
       style="fill:#000000;fill-opacity:0.05882353;stroke:none"
       d="m 396.42856,536.79077 -32,32 0,288 32,32 287.96874,0 32.0313,-32 0,-288 -32,-32 -288.00004,0 z m 6.71874,16.2187 274.5625,0 22.5,22.5 0,274.5625 -22.5312,22.5 -274.5313,0 -22.49999,-22.5 0,-274.5625 22.49999,-22.5 z"
       id="path3085-2-7"
       inkscape:connector-curvature="0" />
    <path
       style="fill:#ffffff;fill-opacity:0.05882353;stroke:none"
       d="m 716.4286,568.79077 0,288 -32.0313,32 -287.96874,0 17.00004,17 287.9687,0 32.0313,-32 0,-288 -17,-17 z"
       id="path3085-5-4"
       inkscape:connector-curvature="0" />
    <path
       style="color:#000000;fill:#ffffff;fill-opacity:0.1372549;fill-rule:nonzero;stroke:none;stroke-width:25;marker:none;visibility:visible;display:inline;overflow:visible;enable-background:accumulate"
       d="m 284.42856,456.79074 0,512.00003 17,0 0,-495.00003 495.00004,0 0,-17 -512.00004,0 z"
       id="rect3933-0"
       inkscape:connector-curvature="0" />
    <path
       style="color:#000000;fill:#000000;fill-opacity:0.05882353;fill-rule:nonzero;stroke:none;stroke-width:25;marker:none;visibility:visible;display:inline;overflow:visible;enable-background:accumulate"
       d="m 284.42856,456.79074 0,512.00003 512.00004,0 0,-512.00003 -512.00004,0 z m 12,12 488.00004,0 0,488.00003 -488.00004,0 0,-488.00003 z"
       id="rect3933-3-1"
       inkscape:connector-curvature="0" />
    <path
       style="color:#000000;fill:#6f4100;fill-opacity:1;fill-rule:nonzero;stroke:none;stroke-width:20;marker:none;visibility:visible;display:inline;overflow:visible;enable-background:accumulate"
       d="m 412.4286,568.79077 -16.00004,16 -4e-5,144 16.00004,16 256,0 16,-16 4e-5,-144 -16,-16 z m 8,16 240,0 8,8 -4e-5,128 -8,8 -240,0 -8,-8 4e-5,-128 z"
       id="rect3050-8-66"
       inkscape:connector-curvature="0"
       sodipodi:nodetypes="cccccccccccccccccc" />
    <path
       style="color:#000000;fill:#ffffff;fill-opacity:0.09722224;fill-rule:nonzero;stroke:none;stroke-width:20;marker:none;visibility:visible;display:inline;overflow:visible;enable-background:accumulate"
       d="m 412.4286,568.79077 -16.00004,16 -4e-5,144 4.00004,4 4e-5,-144 16,-16 256,0 -4,-4 z m 256,24 -4e-5,128 -8,8 -240,0 4,4 240,0 8,-8 4e-5,-128 z"
       id="rect3050-8-6-2"
       inkscape:connector-curvature="0"
       sodipodi:nodetypes="cccccccccccccccccc" />
    <path
       style="color:#000000;fill:#000000;fill-opacity:0.19607843;fill-rule:nonzero;stroke:none;stroke-width:20;marker:none;visibility:visible;display:inline;overflow:visible;enable-background:accumulate"
       d="m 416.4286,580.79077 -8,8 -4e-5,128 4,4 4e-5,-128 8,-8 240,0 -4,-4 z m 264,0 -4e-5,144 -16,16 -256,0 4,4 256,0 16,-16 4e-5,-144 z"
       id="rect3050-8-0-2"
       inkscape:connector-curvature="0"
       sodipodi:nodetypes="cccccccccccccccccc" />
    <path
       sodipodi:type="star"
       style="color:#000000;fill:#00ff16;fill-opacity:1;fill-rule:nonzero;stroke:#000000;stroke-width:0.5;stroke-opacity:1;marker:none;visibility:visible;display:inline;overflow:visible;enable-background:accumulate"
       id="path3031-2"
       sodipodi:sides="5"
       sodipodi:cx="40"
       sodipodi:cy="96"
       sodipodi:r1="8"
       sodipodi:r2="6.9282031"
       sodipodi:arg1="3.1415927"
       sodipodi:arg2="3.7699111"
       inkscape:flatsided="true"
       inkscape:rounded="0"
       inkscape:randomized="0"
       d="m 32,96 5.527864,-7.608452 8.944272,2.90617 0,9.404562 -8.944272,2.90617 z"
       transform="matrix(4,0,0,4,284.42854,456.79073)" />
    <path
       style="opacity:0.41558443;color:#000000;fill:#000000;fill-opacity:1;fill-rule:nonzero;stroke:none;stroke-width:0.5;marker:none;visibility:visible;display:inline;overflow:visible;enable-background:accumulate"
       d="m 463.30354,819.79077 0,35.75 -32.5,10.5 3.75,5.125 35.75,-11.625 0,-37.5 -7,-2.25 z"
       id="path3031-4-9"
       inkscape:connector-curvature="0" />
    <text
       xml:space="preserve"
       style="font-size:40px;font-style:normal;font-variant:normal;font-weight:normal;font-stretch:normal;line-height:125%;letter-spacing:0px;word-spacing:0px;fill:#000000;fill-opacity:1;stroke:none;font-family:PT Mono;-inkscape-font-specification:PT Mono"
       x="429.03189"
       y="632.56146"
       id="text3885-0"
       sodipodi:linespacing="125%"><tspan
         sodipodi:role="line"
         id="tspan3887-2"
         x="429.03189"
         y="632.56146">&gt;_</tspan></text>
  </g>
</svg>
