<?xml version="1.0" encoding="UTF-8" standalone="no"?>
<!-- Created with Inkscape (http://www.inkscape.org/) -->

<svg
   xmlns:dc="http://purl.org/dc/elements/1.1/"
   xmlns:cc="http://creativecommons.org/ns#"
   xmlns:rdf="http://www.w3.org/1999/02/22-rdf-syntax-ns#"
   xmlns:svg="http://www.w3.org/2000/svg"
   xmlns="http://www.w3.org/2000/svg"
   xmlns:sodipodi="http://sodipodi.sourceforge.net/DTD/sodipodi-0.dtd"
   xmlns:inkscape="http://www.inkscape.org/namespaces/inkscape"
   width="512"
   height="512"
   id="svg2"
   version="1.1"
   inkscape:version="0.48.4 r9939"
   sodipodi:docname="DynamicTank.svg"
   inkscape:export-filename="/home/ben/Dropbox/minecraft/svg/machineblock.png"
   inkscape:export-xdpi="360"
   inkscape:export-ydpi="360">
  <defs
     id="defs4" />
  <sodipodi:namedview
     id="base"
     pagecolor="#ffffff"
     bordercolor="#666666"
     borderopacity="1.0"
     inkscape:pageopacity="0.0"
     inkscape:pageshadow="2"
     inkscape:zoom="1"
     inkscape:cx="164.07995"
     inkscape:cy="234.13378"
     inkscape:document-units="px"
     inkscape:current-layer="layer1"
     showgrid="false"
     inkscape:window-width="1301"
     inkscape:window-height="744"
     inkscape:window-x="65"
     inkscape:window-y="24"
     inkscape:window-maximized="1"
     fit-margin-top="0"
     fit-margin-left="0"
     fit-margin-right="0"
     fit-margin-bottom="0">
    <inkscape:grid
       type="xygrid"
       id="grid2996"
       empspacing="128"
       visible="true"
       enabled="true"
       snapvisiblegridlinesonly="true"
       originx="-284.42856px"
       originy="428.42859px" />
  </sodipodi:namedview>
  <metadata
     id="metadata7">
    <rdf:RDF>
      <cc:Work
         rdf:about="">
        <dc:format>image/svg+xml</dc:format>
        <dc:type
           rdf:resource="http://purl.org/dc/dcmitype/StillImage" />
        <dc:title></dc:title>
      </cc:Work>
    </rdf:RDF>
  </metadata>
  <g
     inkscape:label="Layer 1"
     inkscape:groupmode="layer"
     id="layer1"
     transform="translate(-284.42856,-968.79077)">
    <rect
       style="color:#000000;fill:#7b4800;fill-opacity:1;fill-rule:nonzero;stroke:none;stroke-width:4;marker:none;visibility:visible;display:inline;overflow:visible;enable-background:accumulate"
       id="rect3014"
       width="512"
       height="512"
       x="284.42859"
       y="968.79077" />
    <path
       style="fill:#000000;fill-opacity:0.1372549;stroke:none"
       d="m 396.42857,1036.9158 a 11.883171,11.883171 0 0 0 -8.40625,3.4687 l -32,32 a 11.883171,11.883171 0 0 0 -3.46875,8.4063 l 0,288 a 11.883171,11.883171 0 0 0 3.46875,8.4062 l 32,32 a 11.883171,11.883171 0 0 0 8.40625,3.4688 l 287.96873,0 a 11.883171,11.883171 0 0 0 8.4063,-3.4688 l 32.0312,-32 a 11.883171,11.883171 0 0 0 3.4688,-8.4062 l 0,-288 a 11.883171,11.883171 0 0 0 -3.4688,-8.4063 l -32,-32 a 11.883171,11.883171 0 0 0 -8.4062,-3.4687 l -288.00003,0 z m 0,11.875 288.00003,0 32,32 0,288 -32.0313,32 -287.96873,0 -32,-32 0,-288 32,-32 z"
       id="path3085-4"
       inkscape:connector-curvature="0" />
    <path
       style="fill:#000000;fill-opacity:0.16470588;stroke:none"
       d="m 396.42856,1048.7908 -32,32 0,288 14,14 0,-288 32.00004,-32 288,0 -14,-14 -288.00004,0 z"
       id="path3085"
       inkscape:connector-curvature="0" />
    <path
       style="fill:#000000;fill-opacity:0.05882353;stroke:none"
       d="m 396.42856,1048.7908 -32,32 0,288 32,32 287.96874,0 32.0313,-32 0,-288 -32,-32 -288.00004,0 z m 6.71874,16.2187 274.5625,0 22.5,22.5 0,274.5625 -22.5312,22.5 -274.5313,0 -22.49999,-22.5 0,-274.5625 22.49999,-22.5 z"
       id="path3085-2"
       inkscape:connector-curvature="0" />
    <path
       style="fill:#ffffff;fill-opacity:0.13725491;stroke:none"
       d="m 716.4286,1080.7908 0,288 -32.0313,32 -287.96874,0 17.00004,17 287.9687,0 32.0313,-32 0,-288 -17,-17 z"
       id="path3085-5"
       inkscape:connector-curvature="0" />
    <path
       style="color:#000000;fill:#ffffff;fill-opacity:0.13725491;fill-rule:nonzero;stroke:none;stroke-width:25;marker:none;visibility:visible;display:inline;overflow:visible;enable-background:accumulate"
       d="m 284.42856,968.79077 0,512.00003 17,0 0,-495.00003 495.00004,0 0,-17 -512.00004,0 z"
       id="rect3933"
       inkscape:connector-curvature="0" />
    <path
       style="color:#000000;fill:#000000;fill-opacity:0.1372549;fill-rule:nonzero;stroke:none;stroke-width:25;marker:none;visibility:visible;display:inline;overflow:visible;enable-background:accumulate"
       d="m 284.42856,968.79077 0,512.00003 512.00004,0 0,-512.00003 -512.00004,0 z m 12,12 488.00004,0 0,488.00003 -488.00004,0 0,-488.00003 z"
       id="rect3933-3"
       inkscape:connector-curvature="0" />
  </g>
</svg>
