<?xml version="1.0" encoding="UTF-8" standalone="no"?>
<!-- Created with Inkscape (http://www.inkscape.org/) -->

<svg
   xmlns:dc="http://purl.org/dc/elements/1.1/"
   xmlns:cc="http://creativecommons.org/ns#"
   xmlns:rdf="http://www.w3.org/1999/02/22-rdf-syntax-ns#"
   xmlns:svg="http://www.w3.org/2000/svg"
   xmlns="http://www.w3.org/2000/svg"
   xmlns:sodipodi="http://sodipodi.sourceforge.net/DTD/sodipodi-0.dtd"
   xmlns:inkscape="http://www.inkscape.org/namespaces/inkscape"
   width="512"
   height="512"
   id="svg2"
   version="1.1"
   inkscape:version="0.48.4 r9939"
   sodipodi:docname="TinOre.svg">
  <defs
     id="defs4" />
  <sodipodi:namedview
     id="base"
     pagecolor="#ffffff"
     bordercolor="#666666"
     borderopacity="1.0"
     inkscape:pageopacity="0.0"
     inkscape:pageshadow="2"
     inkscape:zoom="0.7"
     inkscape:cx="301.00157"
     inkscape:cy="349.80878"
     inkscape:document-units="px"
     inkscape:current-layer="layer1"
     showgrid="false"
     fit-margin-top="0"
     fit-margin-left="0"
     fit-margin-right="0"
     fit-margin-bottom="0"
     inkscape:window-width="1301"
     inkscape:window-height="744"
     inkscape:window-x="65"
     inkscape:window-y="24"
     inkscape:window-maximized="1" />
  <metadata
     id="metadata7">
    <rdf:RDF>
      <cc:Work
         rdf:about="">
        <dc:format>image/svg+xml</dc:format>
        <dc:type
           rdf:resource="http://purl.org/dc/dcmitype/StillImage" />
        <dc:title></dc:title>
      </cc:Work>
    </rdf:RDF>
  </metadata>
  <g
     inkscape:label="Layer 1"
     inkscape:groupmode="layer"
     id="layer1"
     transform="translate(1407.4286,352.20926)">
    <rect
       style="color:#000000;fill:#f7f7d1;fill-opacity:1;fill-rule:nonzero;stroke:none;stroke-width:4;marker:none;visibility:visible;display:inline;overflow:visible;enable-background:accumulate"
       id="rect2994"
       width="512"
       height="512"
       x="-1407.4286"
       y="-352.20926" />
    <path
       id="path3094-4"
       style="fill:#ffffff;stroke:none;fill-opacity:0.3611111"
       d="m -1430.0777,313.93798 c 7.3254,-75.25854 12.3421,-151.58907 166.6754,-158.59395 61.8419,-9.11214 86.9369,-43.78741 86.873,-95.96449 -4.9547,-96.1298 45.7267,-152.34662 164.6547,-159.60411 62.46086,-6.24406 93.43886,-41.23345 93.94416,-104.04571 5.1318,-79.6706 30.6452,-147.45194 163.6447,-152.53303 54.4,-3.93083 87.6593,-30.115 90.9137,-87.88328 l -17.14286,-40 c -3.2544,57.76828 -36.5137,83.95245 -90.9137,87.88328 -132.9995,5.08109 -158.5129,72.86243 -163.6447,152.53303 -0.5053,62.81226 -31.4833,97.80165 -93.9442,104.04571 -118.928,7.25749 -169.6096,63.47431 -164.6549,159.60411 0.064,52.17708 -25.0311,86.85235 -86.8731,95.96449 -154.3333,7.00488 -159.3497,83.33541 -166.6751,158.59395 z"
       inkscape:connector-curvature="0"
       sodipodi:nodetypes="ccccccccccccccc" />
    <path
       id="path3094-4-0"
       style="fill:#ffffff;fill-opacity:0.3611111;stroke:none"
       d="m -1344.6507,395.76034 c 7.3254,-75.25854 12.3421,-151.58907 166.6754,-158.59395 61.8419,-9.11214 86.9369,-43.78741 86.873,-95.96449 -4.9547,-96.129804 45.7267,-152.346624 164.6547,-159.604114 62.46086,-6.24406 93.43886,-41.23345 93.94416,-104.045706 5.1318,-79.6706 30.6452,-147.45194 163.6447,-152.53303 54.4,-3.93083 87.6593,-30.115 90.9137,-87.88328 l -17.14286,-40 c -3.2544,57.76828 -36.5137,83.95245 -90.9137,87.88328 -132.9995,5.08109 -158.5129,72.86243 -163.6447,152.53303 -0.5053,62.812256 -31.4833,97.801646 -93.9442,104.045706 -118.928,7.25749 -169.6096,63.4743104 -164.6549,159.604114 0.064,52.17708 -25.0311,86.85235 -86.8731,95.96449 -154.3333,7.00488 -159.3497,83.33541 -166.6751,158.59395 z"
       inkscape:connector-curvature="0"
       sodipodi:nodetypes="ccccccccccccccc" />
    <path
       id="path3094-4-1"
       style="fill:#ffffff;fill-opacity:0.3611111;stroke:none"
       d="m -1522.4937,222.50941 c 7.3254,-75.25854 12.3421,-151.589072 166.6754,-158.593952 61.8419,-9.11214 86.9369,-43.78741 86.873,-95.96449 -4.9547,-96.129798 45.7267,-152.346618 164.6547,-159.604108 62.4609,-6.24406 93.4389,-41.23345 93.9442,-104.04571 5.1318,-79.6706 30.64516,-147.45194 163.64466,-152.53303 54.4,-3.93083 87.6593,-30.115 90.9137,-87.88328 l -17.14286,-40 c -3.2544,57.76828 -36.5137,83.95245 -90.9137,87.88328 -132.9995,5.08109 -158.5129,72.86243 -163.6447,152.53303 -0.5053,62.81226 -31.4833,97.80165 -93.9442,104.04571 -118.928,7.25749 -169.6096,63.47431 -164.6549,159.604108 0.064,52.17708 -25.0311,86.85235 -86.8731,95.96449 -154.3333,7.00488 -159.3497,83.335412 -166.6751,158.593952 z"
       inkscape:connector-curvature="0"
       sodipodi:nodetypes="ccccccccccccccc" />
    <path
       id="path3094-4-11"
       style="fill:#ffffff;fill-opacity:0.3611111;stroke:none"
       d="m -1605.6367,142.50941 c 7.3254,-75.258537 12.3421,-151.5890724 166.6754,-158.593952 61.8419,-9.11214 86.9369,-43.78741 86.873,-95.964488 -4.9547,-96.1298 45.7267,-152.34662 164.6547,-159.60411 62.4608,-6.24406 93.4388,-41.23345 93.9441,-104.04571 5.1318,-79.6706 30.6452,-147.45194 163.64473,-152.53303 54.4,-3.93083 87.6593,-30.115 90.9137,-87.88328 l -17.14286,-40 c -3.2544,57.76828 -36.5137,83.95245 -90.9137,87.88328 -132.99947,5.08109 -158.51287,72.86243 -163.64467,152.53303 -0.5053,62.81226 -31.4833,97.80165 -93.9442,104.04571 -118.928,7.25749 -169.6096,63.47431 -164.6549,159.60411 0.064,52.177078 -25.0311,86.852348 -86.8731,95.964488 -154.3333,7.00488 -159.3497,83.335415 -166.6751,158.593952 z"
       inkscape:connector-curvature="0"
       sodipodi:nodetypes="ccccccccccccccc" />
    <path
       id="path3094-4-11-5"
       style="fill:#ffffff;fill-opacity:0.3611111;stroke:none"
       d="m -1685.2207,59.652267 c 7.3254,-75.25854 12.3421,-151.58907 166.6754,-158.59395 61.8419,-9.112137 86.9369,-43.787407 86.873,-95.964487 -4.9547,-96.1298 45.7267,-152.34662 164.6547,-159.60411 62.4608,-6.24406 93.4388,-41.23345 93.9441,-104.04571 5.1318,-79.6706 30.6452,-147.45194 163.6447,-152.53303 54.40003,-3.93083 87.65933,-30.115 90.91373,-87.88328 l -17.14286,-40 c -3.2544,57.76828 -36.5137,83.95245 -90.91367,87.88328 -132.9995,5.08109 -158.5129,72.86243 -163.6447,152.53303 -0.5053,62.81226 -31.4833,97.80165 -93.9442,104.04571 -118.928,7.25749 -169.6096,63.47431 -164.6549,159.60411 0.064,52.17708 -25.0311,86.85235 -86.8731,95.96449 -154.3333,7.00488 -159.3497,83.335407 -166.6751,158.593947 z"
       inkscape:connector-curvature="0"
       sodipodi:nodetypes="ccccccccccccccc" />
    <path
       id="path3094-4-11-2"
       style="fill:#ffffff;fill-opacity:0.3611111;stroke:none"
       d="m -1266.2077,485.36656 c 7.3254,-75.25854 12.3421,-151.58907 166.6754,-158.59395 61.8419,-9.11214 86.9369,-43.78741 86.873,-95.96449 -4.9547,-96.12981 45.7267,-152.346626 164.65473,-159.604116 62.4608,-6.24406 93.4388,-41.23345 93.9441,-104.045705 5.1318,-79.670599 30.6452,-147.451939 163.64473,-152.533029 54.4,-3.93083 87.6593,-30.115 90.9137,-87.88328 l -17.14286,-40 c -3.2544,57.76828 -36.5137,83.95245 -90.9137,87.88328 -132.99947,5.08109 -158.51287,72.86243 -163.64467,152.533029 -0.5053,62.812255 -31.4833,97.801645 -93.9442,104.045705 -118.92803,7.25749 -169.60963,63.47431 -164.65493,159.604116 0.064,52.17708 -25.0311,86.85235 -86.8731,95.96449 -154.3333,7.00488 -159.3497,83.33541 -166.6751,158.59395 z"
       inkscape:connector-curvature="0"
       sodipodi:nodetypes="ccccccccccccccc" />
  </g>
</svg>
